<?xml version="1.0" encoding="UTF-8" standalone="no"?>
<!DOCTYPE svg PUBLIC "-//W3C//DTD SVG 1.1//EN"
 "http://www.w3.org/Graphics/SVG/1.1/DTD/svg11.dtd">
<!-- Generated by graphviz version 2.43.0 (0)
 -->
<!-- Title: include/experimental/linear_algebra/arithmetic_operators.hpp Pages: 1 -->
<svg width="2023pt" height="195pt"
 viewBox="0.00 0.00 2022.50 195.00" xmlns="http://www.w3.org/2000/svg" xmlns:xlink="http://www.w3.org/1999/xlink">
<g id="graph0" class="graph" transform="scale(1 1) rotate(0) translate(4 191)">
<title>include/experimental/linear_algebra/arithmetic_operators.hpp</title>
<polygon fill="white" stroke="transparent" points="-4,4 -4,-191 2018.5,-191 2018.5,4 -4,4"/>
<!-- Node1 -->
<g id="node1" class="node">
<title>Node1</title>
<g id="a_node1"><a xlink:title=" ">
<polygon fill="#bfbfbf" stroke="black" points="950.5,-145.5 950.5,-186.5 1093.5,-186.5 1093.5,-145.5 950.5,-145.5"/>
<text text-anchor="start" x="958.5" y="-174.5" font-family="Helvetica,sans-Serif" font-size="10.00">include/experimental</text>
<text text-anchor="start" x="958.5" y="-163.5" font-family="Helvetica,sans-Serif" font-size="10.00">/linear_algebra/arithmetic</text>
<text text-anchor="middle" x="1022" y="-152.5" font-family="Helvetica,sans-Serif" font-size="10.00">_operators.hpp</text>
</a>
</g>
</g>
<!-- Node2 -->
<g id="node2" class="node">
<title>Node2</title>
<g id="a_node2"><a xlink:href="linear__algebra_8hpp.html" target="_top" xlink:title=" ">
<polygon fill="white" stroke="black" points="962,-78.5 962,-108.5 1082,-108.5 1082,-78.5 962,-78.5"/>
<text text-anchor="start" x="970" y="-96.5" font-family="Helvetica,sans-Serif" font-size="10.00">include/experimental</text>
<text text-anchor="middle" x="1022" y="-85.5" font-family="Helvetica,sans-Serif" font-size="10.00">/linear_algebra.hpp</text>
</a>
</g>
</g>
<!-- Node1&#45;&gt;Node2 -->
<g id="edge1" class="edge">
<title>Node1&#45;&gt;Node2</title>
<path fill="none" stroke="midnightblue" d="M1015.33,-135.38C1015.07,-126.21 1015.44,-116.53 1016.44,-108.89"/>
<polygon fill="midnightblue" stroke="midnightblue" points="1011.83,-135.57 1015.88,-145.36 1018.82,-135.18 1011.83,-135.57"/>
</g>
<!-- Node2&#45;&gt;Node1 -->
<g id="edge2" class="edge">
<title>Node2&#45;&gt;Node1</title>
<path fill="none" stroke="midnightblue" d="M1028.47,-119.11C1028.94,-127.7 1028.82,-137.23 1028.12,-145.36"/>
<polygon fill="midnightblue" stroke="midnightblue" points="1031.93,-118.54 1027.56,-108.89 1024.96,-119.16 1031.93,-118.54"/>
</g>
<!-- Node3 -->
<g id="node3" class="node">
<title>Node3</title>
<g id="a_node3"><a xlink:href="dynamic__matrix_8hpp.html" target="_top" xlink:title=" ">
<polygon fill="white" stroke="black" points="0,-0.5 0,-41.5 134,-41.5 134,-0.5 0,-0.5"/>
<text text-anchor="start" x="8" y="-29.5" font-family="Helvetica,sans-Serif" font-size="10.00">include/experimental</text>
<text text-anchor="start" x="8" y="-18.5" font-family="Helvetica,sans-Serif" font-size="10.00">/linear_algebra/dynamic</text>
<text text-anchor="middle" x="67" y="-7.5" font-family="Helvetica,sans-Serif" font-size="10.00">_matrix.hpp</text>
</a>
</g>
</g>
<!-- Node2&#45;&gt;Node3 -->
<g id="edge3" class="edge">
<title>Node2&#45;&gt;Node3</title>
<path fill="none" stroke="midnightblue" d="M951.81,-93.19C800.91,-93.76 435.24,-89.8 134,-42 133.06,-41.85 132.11,-41.69 131.16,-41.53"/>
<polygon fill="midnightblue" stroke="midnightblue" points="951.89,-96.69 961.87,-93.14 951.86,-89.69 951.89,-96.69"/>
</g>
<!-- Node4 -->
<g id="node4" class="node">
<title>Node4</title>
<g id="a_node4"><a xlink:href="dynamic__tensor_8hpp.html" target="_top" xlink:title=" ">
<polygon fill="white" stroke="black" points="152,-0.5 152,-41.5 286,-41.5 286,-0.5 152,-0.5"/>
<text text-anchor="start" x="160" y="-29.5" font-family="Helvetica,sans-Serif" font-size="10.00">include/experimental</text>
<text text-anchor="start" x="160" y="-18.5" font-family="Helvetica,sans-Serif" font-size="10.00">/linear_algebra/dynamic</text>
<text text-anchor="middle" x="219" y="-7.5" font-family="Helvetica,sans-Serif" font-size="10.00">_tensor.hpp</text>
</a>
</g>
</g>
<!-- Node2&#45;&gt;Node4 -->
<g id="edge5" class="edge">
<title>Node2&#45;&gt;Node4</title>
<path fill="none" stroke="midnightblue" d="M951.26,-92.06C819.33,-90.29 527.57,-81.81 286,-42 285.06,-41.84 284.11,-41.68 283.16,-41.52"/>
<polygon fill="midnightblue" stroke="midnightblue" points="951.58,-95.56 961.62,-92.19 951.67,-88.56 951.58,-95.56"/>
</g>
<!-- Node5 -->
<g id="node5" class="node">
<title>Node5</title>
<g id="a_node5"><a xlink:href="dynamic__vector_8hpp.html" target="_top" xlink:title=" ">
<polygon fill="white" stroke="black" points="304,-0.5 304,-41.5 438,-41.5 438,-0.5 304,-0.5"/>
<text text-anchor="start" x="312" y="-29.5" font-family="Helvetica,sans-Serif" font-size="10.00">include/experimental</text>
<text text-anchor="start" x="312" y="-18.5" font-family="Helvetica,sans-Serif" font-size="10.00">/linear_algebra/dynamic</text>
<text text-anchor="middle" x="371" y="-7.5" font-family="Helvetica,sans-Serif" font-size="10.00">_vector.hpp</text>
</a>
</g>
</g>
<!-- Node2&#45;&gt;Node5 -->
<g id="edge7" class="edge">
<title>Node2&#45;&gt;Node5</title>
<path fill="none" stroke="midnightblue" d="M951.65,-90.39C841.25,-86.11 621.33,-73.94 438,-42 437.19,-41.86 436.38,-41.71 435.57,-41.57"/>
<polygon fill="midnightblue" stroke="midnightblue" points="951.54,-93.89 961.66,-90.77 951.8,-86.89 951.54,-93.89"/>
</g>
<!-- Node6 -->
<g id="node6" class="node">
<title>Node6</title>
<g id="a_node6"><a xlink:href="fixed__size__matrix_8hpp.html" target="_top" xlink:title=" ">
<polygon fill="white" stroke="black" points="456,-0.5 456,-41.5 576,-41.5 576,-0.5 456,-0.5"/>
<text text-anchor="start" x="464" y="-29.5" font-family="Helvetica,sans-Serif" font-size="10.00">include/experimental</text>
<text text-anchor="start" x="464" y="-18.5" font-family="Helvetica,sans-Serif" font-size="10.00">/linear_algebra/fixed</text>
<text text-anchor="middle" x="516" y="-7.5" font-family="Helvetica,sans-Serif" font-size="10.00">_size_matrix.hpp</text>
</a>
</g>
</g>
<!-- Node2&#45;&gt;Node6 -->
<g id="edge9" class="edge">
<title>Node2&#45;&gt;Node6</title>
<path fill="none" stroke="midnightblue" d="M951.77,-88.46C863.25,-82.3 707.08,-68.38 576,-42 575.27,-41.85 574.53,-41.7 573.79,-41.55"/>
<polygon fill="midnightblue" stroke="midnightblue" points="951.74,-91.97 961.96,-89.15 952.22,-84.98 951.74,-91.97"/>
</g>
<!-- Node7 -->
<g id="node7" class="node">
<title>Node7</title>
<g id="a_node7"><a xlink:href="fixed__size__tensor_8hpp.html" target="_top" xlink:title=" ">
<polygon fill="white" stroke="black" points="594,-0.5 594,-41.5 714,-41.5 714,-0.5 594,-0.5"/>
<text text-anchor="start" x="602" y="-29.5" font-family="Helvetica,sans-Serif" font-size="10.00">include/experimental</text>
<text text-anchor="start" x="602" y="-18.5" font-family="Helvetica,sans-Serif" font-size="10.00">/linear_algebra/fixed</text>
<text text-anchor="middle" x="654" y="-7.5" font-family="Helvetica,sans-Serif" font-size="10.00">_size_tensor.hpp</text>
</a>
</g>
</g>
<!-- Node2&#45;&gt;Node7 -->
<g id="edge11" class="edge">
<title>Node2&#45;&gt;Node7</title>
<path fill="none" stroke="midnightblue" d="M951.67,-83.95C888.79,-75.24 794.58,-60.42 714,-42 713.39,-41.86 712.78,-41.72 712.17,-41.58"/>
<polygon fill="midnightblue" stroke="midnightblue" points="951.5,-87.46 961.88,-85.35 952.45,-80.52 951.5,-87.46"/>
</g>
<!-- Node8 -->
<g id="node8" class="node">
<title>Node8</title>
<g id="a_node8"><a xlink:href="fixed__size__vector_8hpp.html" target="_top" xlink:title=" ">
<polygon fill="white" stroke="black" points="732,-0.5 732,-41.5 852,-41.5 852,-0.5 732,-0.5"/>
<text text-anchor="start" x="740" y="-29.5" font-family="Helvetica,sans-Serif" font-size="10.00">include/experimental</text>
<text text-anchor="start" x="740" y="-18.5" font-family="Helvetica,sans-Serif" font-size="10.00">/linear_algebra/fixed</text>
<text text-anchor="middle" x="792" y="-7.5" font-family="Helvetica,sans-Serif" font-size="10.00">_size_vector.hpp</text>
</a>
</g>
</g>
<!-- Node2&#45;&gt;Node8 -->
<g id="edge13" class="edge">
<title>Node2&#45;&gt;Node8</title>
<path fill="none" stroke="midnightblue" d="M960.83,-75.55C926.39,-65.32 883.67,-52.26 849.8,-41.59"/>
<polygon fill="midnightblue" stroke="midnightblue" points="960.19,-79.01 970.77,-78.49 962.17,-72.3 960.19,-79.01"/>
</g>
<!-- Node9 -->
<g id="node9" class="node">
<title>Node9</title>
<g id="a_node9"><a xlink:href="instant__evaluated__operations_8hpp.html" target="_top" xlink:title=" ">
<polygon fill="white" stroke="black" points="870.5,-0.5 870.5,-41.5 1019.5,-41.5 1019.5,-0.5 870.5,-0.5"/>
<text text-anchor="start" x="878.5" y="-29.5" font-family="Helvetica,sans-Serif" font-size="10.00">include/experimental</text>
<text text-anchor="start" x="878.5" y="-18.5" font-family="Helvetica,sans-Serif" font-size="10.00">/linear_algebra/instant</text>
<text text-anchor="middle" x="945" y="-7.5" font-family="Helvetica,sans-Serif" font-size="10.00">_evaluated_operations.hpp</text>
</a>
</g>
</g>
<!-- Node2&#45;&gt;Node9 -->
<g id="edge15" class="edge">
<title>Node2&#45;&gt;Node9</title>
<path fill="none" stroke="midnightblue" d="M993.01,-71.66C981.89,-62.15 969.69,-50.94 960.28,-41.59"/>
<polygon fill="midnightblue" stroke="midnightblue" points="990.95,-74.5 1000.87,-78.23 995.45,-69.13 990.95,-74.5"/>
</g>
<!-- Node10 -->
<g id="node10" class="node">
<title>Node10</title>
<g id="a_node10"><a xlink:href="matrix__concepts_8hpp.html" target="_top" xlink:title=" ">
<polygon fill="white" stroke="black" points="1037.5,-0.5 1037.5,-41.5 1162.5,-41.5 1162.5,-0.5 1037.5,-0.5"/>
<text text-anchor="start" x="1045.5" y="-29.5" font-family="Helvetica,sans-Serif" font-size="10.00">include/experimental</text>
<text text-anchor="start" x="1045.5" y="-18.5" font-family="Helvetica,sans-Serif" font-size="10.00">/linear_algebra/matrix</text>
<text text-anchor="middle" x="1100" y="-7.5" font-family="Helvetica,sans-Serif" font-size="10.00">_concepts.hpp</text>
</a>
</g>
</g>
<!-- Node2&#45;&gt;Node10 -->
<g id="edge17" class="edge">
<title>Node2&#45;&gt;Node10</title>
<path fill="none" stroke="midnightblue" d="M1039.41,-71.1C1049.11,-61.71 1061.27,-50.76 1072.21,-41.59"/>
<polygon fill="midnightblue" stroke="midnightblue" points="1036.86,-68.7 1032.24,-78.23 1041.8,-73.67 1036.86,-68.7"/>
</g>
<!-- Node11 -->
<g id="node11" class="node">
<title>Node11</title>
<g id="a_node11"><a xlink:href="matrix__view_8hpp.html" target="_top" xlink:title=" ">
<polygon fill="white" stroke="black" points="1180.5,-0.5 1180.5,-41.5 1305.5,-41.5 1305.5,-0.5 1180.5,-0.5"/>
<text text-anchor="start" x="1188.5" y="-29.5" font-family="Helvetica,sans-Serif" font-size="10.00">include/experimental</text>
<text text-anchor="start" x="1188.5" y="-18.5" font-family="Helvetica,sans-Serif" font-size="10.00">/linear_algebra/matrix</text>
<text text-anchor="middle" x="1243" y="-7.5" font-family="Helvetica,sans-Serif" font-size="10.00">_view.hpp</text>
</a>
</g>
</g>
<!-- Node2&#45;&gt;Node11 -->
<g id="edge19" class="edge">
<title>Node2&#45;&gt;Node11</title>
<path fill="none" stroke="midnightblue" d="M1070.08,-75.28C1102.37,-64.63 1145.18,-50.96 1180.16,-40.14"/>
<polygon fill="midnightblue" stroke="midnightblue" points="1068.8,-72.02 1060.41,-78.49 1071.01,-78.66 1068.8,-72.02"/>
</g>
<!-- Node12 -->
<g id="node12" class="node">
<title>Node12</title>
<g id="a_node12"><a xlink:href="private__support_8hpp.html" target="_top" xlink:title=" ">
<polygon fill="white" stroke="black" points="1323.5,-0.5 1323.5,-41.5 1450.5,-41.5 1450.5,-0.5 1323.5,-0.5"/>
<text text-anchor="start" x="1331.5" y="-29.5" font-family="Helvetica,sans-Serif" font-size="10.00">include/experimental</text>
<text text-anchor="start" x="1331.5" y="-18.5" font-family="Helvetica,sans-Serif" font-size="10.00">/linear_algebra/private</text>
<text text-anchor="middle" x="1387" y="-7.5" font-family="Helvetica,sans-Serif" font-size="10.00">_support.hpp</text>
</a>
</g>
</g>
<!-- Node2&#45;&gt;Node12 -->
<g id="edge21" class="edge">
<title>Node2&#45;&gt;Node12</title>
<path fill="none" stroke="midnightblue" d="M1092.3,-81.28C1149.99,-72.2 1233.54,-58.26 1306,-42 1311.57,-40.75 1317.35,-39.34 1323.15,-37.86"/>
<polygon fill="midnightblue" stroke="midnightblue" points="1091.53,-77.86 1082.19,-82.87 1092.61,-84.77 1091.53,-77.86"/>
</g>
<!-- Node13 -->
<g id="node13" class="node">
<title>Node13</title>
<g id="a_node13"><a xlink:href="tensor__concepts_8hpp.html" target="_top" xlink:title=" ">
<polygon fill="white" stroke="black" points="1468.5,-0.5 1468.5,-41.5 1591.5,-41.5 1591.5,-0.5 1468.5,-0.5"/>
<text text-anchor="start" x="1476.5" y="-29.5" font-family="Helvetica,sans-Serif" font-size="10.00">include/experimental</text>
<text text-anchor="start" x="1476.5" y="-18.5" font-family="Helvetica,sans-Serif" font-size="10.00">/linear_algebra/tensor</text>
<text text-anchor="middle" x="1530" y="-7.5" font-family="Helvetica,sans-Serif" font-size="10.00">_concepts.hpp</text>
</a>
</g>
</g>
<!-- Node2&#45;&gt;Node13 -->
<g id="edge23" class="edge">
<title>Node2&#45;&gt;Node13</title>
<path fill="none" stroke="midnightblue" d="M1092.1,-87.48C1177.5,-80.84 1325.66,-66.96 1451,-42 1456.58,-40.89 1462.36,-39.55 1468.15,-38.1"/>
<polygon fill="midnightblue" stroke="midnightblue" points="1091.71,-84 1082.01,-88.25 1092.25,-90.98 1091.71,-84"/>
</g>
<!-- Node14 -->
<g id="node14" class="node">
<title>Node14</title>
<g id="a_node14"><a xlink:href="tensor__view_8hpp.html" target="_top" xlink:title=" ">
<polygon fill="white" stroke="black" points="1609.5,-0.5 1609.5,-41.5 1732.5,-41.5 1732.5,-0.5 1609.5,-0.5"/>
<text text-anchor="start" x="1617.5" y="-29.5" font-family="Helvetica,sans-Serif" font-size="10.00">include/experimental</text>
<text text-anchor="start" x="1617.5" y="-18.5" font-family="Helvetica,sans-Serif" font-size="10.00">/linear_algebra/tensor</text>
<text text-anchor="middle" x="1671" y="-7.5" font-family="Helvetica,sans-Serif" font-size="10.00">_view.hpp</text>
</a>
</g>
</g>
<!-- Node2&#45;&gt;Node14 -->
<g id="edge25" class="edge">
<title>Node2&#45;&gt;Node14</title>
<path fill="none" stroke="midnightblue" d="M1092.23,-90.49C1200.41,-86.52 1413.69,-74.94 1592,-42 1597.59,-40.97 1603.38,-39.68 1609.18,-38.26"/>
<polygon fill="midnightblue" stroke="midnightblue" points="1091.96,-87 1082.1,-90.85 1092.21,-94 1091.96,-87"/>
</g>
<!-- Node15 -->
<g id="node15" class="node">
<title>Node15</title>
<g id="a_node15"><a xlink:href="vector__concepts_8hpp.html" target="_top" xlink:title=" ">
<polygon fill="white" stroke="black" points="1750.5,-0.5 1750.5,-41.5 1873.5,-41.5 1873.5,-0.5 1750.5,-0.5"/>
<text text-anchor="start" x="1758.5" y="-29.5" font-family="Helvetica,sans-Serif" font-size="10.00">include/experimental</text>
<text text-anchor="start" x="1758.5" y="-18.5" font-family="Helvetica,sans-Serif" font-size="10.00">/linear_algebra/vector</text>
<text text-anchor="middle" x="1812" y="-7.5" font-family="Helvetica,sans-Serif" font-size="10.00">_concepts.hpp</text>
</a>
</g>
</g>
<!-- Node2&#45;&gt;Node15 -->
<g id="edge27" class="edge">
<title>Node2&#45;&gt;Node15</title>
<path fill="none" stroke="midnightblue" d="M1092.55,-92.35C1220.98,-90.93 1500.8,-82.86 1733,-42 1738.6,-41.01 1744.4,-39.76 1750.19,-38.35"/>
<polygon fill="midnightblue" stroke="midnightblue" points="1092.42,-88.85 1082.45,-92.45 1092.49,-95.85 1092.42,-88.85"/>
</g>
<!-- Node16 -->
<g id="node16" class="node">
<title>Node16</title>
<g id="a_node16"><a xlink:href="vector__view_8hpp.html" target="_top" xlink:title=" ">
<polygon fill="white" stroke="black" points="1891.5,-0.5 1891.5,-41.5 2014.5,-41.5 2014.5,-0.5 1891.5,-0.5"/>
<text text-anchor="start" x="1899.5" y="-29.5" font-family="Helvetica,sans-Serif" font-size="10.00">include/experimental</text>
<text text-anchor="start" x="1899.5" y="-18.5" font-family="Helvetica,sans-Serif" font-size="10.00">/linear_algebra/vector</text>
<text text-anchor="middle" x="1953" y="-7.5" font-family="Helvetica,sans-Serif" font-size="10.00">_view.hpp</text>
</a>
</g>
</g>
<!-- Node2&#45;&gt;Node16 -->
<g id="edge29" class="edge">
<title>Node2&#45;&gt;Node16</title>
<path fill="none" stroke="midnightblue" d="M1092.49,-90.22C1268.56,-84.38 1723.84,-67.54 1874,-42 1879.61,-41.05 1885.41,-39.81 1891.2,-38.42"/>
<polygon fill="midnightblue" stroke="midnightblue" points="1092.18,-86.73 1082.3,-90.55 1092.41,-93.72 1092.18,-86.73"/>
</g>
<!-- Node3&#45;&gt;Node2 -->
<g id="edge4" class="edge">
<title>Node3&#45;&gt;Node2</title>
<path fill="none" stroke="midnightblue" d="M144.02,-40.6C146.71,-41.11 149.37,-41.58 152,-42 453.56,-89.85 819.68,-93.77 961.74,-93.19"/>
<polygon fill="midnightblue" stroke="midnightblue" points="144.71,-37.17 134.21,-38.59 143.3,-44.03 144.71,-37.17"/>
</g>
<!-- Node4&#45;&gt;Node2 -->
<g id="edge6" class="edge">
<title>Node4&#45;&gt;Node2</title>
<path fill="none" stroke="midnightblue" d="M296.03,-40.56C298.71,-41.09 301.38,-41.57 304,-42 545.87,-81.86 838.05,-90.31 961.95,-92.07"/>
<polygon fill="midnightblue" stroke="midnightblue" points="296.73,-37.13 286.22,-38.52 295.3,-43.99 296.73,-37.13"/>
</g>
<!-- Node5&#45;&gt;Node2 -->
<g id="edge8" class="edge">
<title>Node5&#45;&gt;Node2</title>
<path fill="none" stroke="midnightblue" d="M448.04,-40.5C450.72,-41.04 453.38,-41.54 456,-42 638.64,-73.81 857.59,-86.02 961.6,-90.34"/>
<polygon fill="midnightblue" stroke="midnightblue" points="448.75,-37.08 438.24,-38.41 447.29,-43.92 448.75,-37.08"/>
</g>
<!-- Node6&#45;&gt;Node2 -->
<g id="edge10" class="edge">
<title>Node6&#45;&gt;Node2</title>
<path fill="none" stroke="midnightblue" d="M586.08,-40.29C588.75,-40.9 591.4,-41.48 594,-42 723.9,-68.14 878.45,-82.04 961.77,-88.29"/>
<polygon fill="midnightblue" stroke="midnightblue" points="586.87,-36.88 576.33,-37.91 585.22,-43.68 586.87,-36.88"/>
</g>
<!-- Node7&#45;&gt;Node2 -->
<g id="edge12" class="edge">
<title>Node7&#45;&gt;Node2</title>
<path fill="none" stroke="midnightblue" d="M723.94,-40.07C726.66,-40.75 729.36,-41.4 732,-42 810.91,-60.04 902.88,-74.62 961.82,-83.4"/>
<polygon fill="midnightblue" stroke="midnightblue" points="724.57,-36.62 714.01,-37.51 722.82,-43.4 724.57,-36.62"/>
</g>
<!-- Node8&#45;&gt;Node2 -->
<g id="edge14" class="edge">
<title>Node8&#45;&gt;Node2</title>
<path fill="none" stroke="midnightblue" d="M862.16,-41.63C901.37,-53.34 948.79,-67.94 981.8,-78.49"/>
<polygon fill="midnightblue" stroke="midnightblue" points="862.96,-38.21 852.38,-38.72 860.96,-44.92 862.96,-38.21"/>
</g>
<!-- Node9&#45;&gt;Node2 -->
<g id="edge16" class="edge">
<title>Node9&#45;&gt;Node2</title>
<path fill="none" stroke="midnightblue" d="M980.37,-48.38C991.88,-58.5 1003.73,-69.67 1011.97,-78.23"/>
<polygon fill="midnightblue" stroke="midnightblue" points="982.37,-45.48 972.51,-41.59 977.79,-50.78 982.37,-45.48"/>
</g>
<!-- Node10&#45;&gt;Node2 -->
<g id="edge18" class="edge">
<title>Node10&#45;&gt;Node2</title>
<path fill="none" stroke="midnightblue" d="M1077.06,-48.68C1066.38,-58.72 1053.83,-69.75 1043.33,-78.23"/>
<polygon fill="midnightblue" stroke="midnightblue" points="1079.65,-51.04 1084.45,-41.59 1074.81,-45.98 1079.65,-51.04"/>
</g>
<!-- Node11&#45;&gt;Node2 -->
<g id="edge20" class="edge">
<title>Node11&#45;&gt;Node2</title>
<path fill="none" stroke="midnightblue" d="M1177.84,-44.82C1143.8,-55.9 1102.86,-68.87 1071.44,-78.49"/>
<polygon fill="midnightblue" stroke="midnightblue" points="1179.29,-48.03 1187.7,-41.59 1177.11,-41.37 1179.29,-48.03"/>
</g>
<!-- Node12&#45;&gt;Node2 -->
<g id="edge22" class="edge">
<title>Node12&#45;&gt;Node2</title>
<path fill="none" stroke="midnightblue" d="M1315.9,-43.78C1233.46,-61.83 1141.1,-76.53 1082.12,-84.92"/>
<polygon fill="midnightblue" stroke="midnightblue" points="1316.9,-47.15 1325.91,-41.57 1315.39,-40.31 1316.9,-47.15"/>
</g>
<!-- Node13&#45;&gt;Node2 -->
<g id="edge24" class="edge">
<title>Node13&#45;&gt;Node2</title>
<path fill="none" stroke="midnightblue" d="M1461.03,-43.55C1324.42,-69.89 1166.52,-83.4 1082.15,-89.1"/>
<polygon fill="midnightblue" stroke="midnightblue" points="1462.1,-46.9 1471.24,-41.54 1460.75,-40.03 1462.1,-46.9"/>
</g>
<!-- Node14&#45;&gt;Node2 -->
<g id="edge26" class="edge">
<title>Node14&#45;&gt;Node2</title>
<path fill="none" stroke="midnightblue" d="M1602.35,-43.38C1411.91,-77.51 1187.82,-88.03 1082.37,-91.19"/>
<polygon fill="midnightblue" stroke="midnightblue" points="1603.04,-46.81 1612.25,-41.57 1601.78,-39.92 1603.04,-46.81"/>
</g>
<!-- Node15&#45;&gt;Node2 -->
<g id="edge28" class="edge">
<title>Node15&#45;&gt;Node2</title>
<path fill="none" stroke="midnightblue" d="M1743.44,-43.29C1497.91,-85.28 1206.35,-91.74 1082.38,-92.52"/>
<polygon fill="midnightblue" stroke="midnightblue" points="1744.37,-46.68 1753.63,-41.52 1743.18,-39.78 1744.37,-46.68"/>
</g>
<!-- Node16&#45;&gt;Node2 -->
<g id="edge30" class="edge">
<title>Node16&#45;&gt;Node2</title>
<path fill="none" stroke="midnightblue" d="M1884.74,-43.14C1717.13,-69.15 1249.5,-85.7 1082.29,-90.81"/>
<polygon fill="midnightblue" stroke="midnightblue" points="1885.32,-46.59 1894.63,-41.53 1884.2,-39.68 1885.32,-46.59"/>
</g>
</g>
</svg>
