<?xml version="1.0" encoding="UTF-8" standalone="no"?>
<!DOCTYPE svg PUBLIC "-//W3C//DTD SVG 1.1//EN"
 "http://www.w3.org/Graphics/SVG/1.1/DTD/svg11.dtd">
<!-- Generated by graphviz version 8.0.1 (20230327.1645)
 -->
<!-- Title: include/experimental/linear_algebra/arithmetic_operators.hpp Pages: 1 -->
<svg width="2085pt" height="192pt"
 viewBox="0.00 0.00 2084.50 192.00" xmlns="http://www.w3.org/2000/svg" xmlns:xlink="http://www.w3.org/1999/xlink">
<g id="graph0" class="graph" transform="scale(1 1) rotate(0) translate(4 188)">
<title>include/experimental/linear_algebra/arithmetic_operators.hpp</title>
<!-- Node1 -->
<g id="node1" class="node">
<title>Node1</title>
<g id="a_node1"><a xlink:title=" ">
<polygon fill="#999999" stroke="#666666" points="1116,-184 991,-184 991,-143 1116,-143 1116,-184"/>
<text text-anchor="start" x="999" y="-172" font-family="Helvetica,sans-Serif" font-size="10.00">include/experimental</text>
<text text-anchor="start" x="999" y="-161" font-family="Helvetica,sans-Serif" font-size="10.00">/linear_algebra/arithmetic</text>
<text text-anchor="middle" x="1053.5" y="-150" font-family="Helvetica,sans-Serif" font-size="10.00">_operators.hpp</text>
</a>
</g>
</g>
<!-- Node2 -->
<g id="node2" class="node">
<title>Node2</title>
<g id="a_node2"><a xlink:href="linear__algebra_8hpp.html" target="_top" xlink:title=" ">
<polygon fill="white" stroke="#666666" points="1106.5,-107 1000.5,-107 1000.5,-77 1106.5,-77 1106.5,-107"/>
<text text-anchor="start" x="1008.5" y="-95" font-family="Helvetica,sans-Serif" font-size="10.00">include/experimental</text>
<text text-anchor="middle" x="1053.5" y="-84" font-family="Helvetica,sans-Serif" font-size="10.00">/linear_algebra.hpp</text>
</a>
</g>
</g>
<!-- Node1&#45;&gt;Node2 -->
<g id="edge1" class="edge">
<title>Node1&#45;&gt;Node2</title>
<path fill="none" stroke="#63b8ff" d="M1046.79,-131.95C1046.61,-123.44 1046.98,-114.59 1047.9,-107.47"/>
<polygon fill="#63b8ff" stroke="#63b8ff" points="1043.34,-131.96 1047.34,-141.77 1050.33,-131.6 1043.34,-131.96"/>
</g>
<!-- Node2&#45;&gt;Node1 -->
<g id="edge2" class="edge">
<title>Node2&#45;&gt;Node1</title>
<path fill="none" stroke="#63b8ff" d="M1060.02,-118.21C1060.42,-126.3 1060.3,-135.13 1059.66,-142.77"/>
<polygon fill="#63b8ff" stroke="#63b8ff" points="1063.44,-118.14 1059.1,-108.47 1056.47,-118.74 1063.44,-118.14"/>
</g>
<!-- Node3 -->
<g id="node3" class="node">
<title>Node3</title>
<g id="a_node3"><a xlink:href="dynamic__matrix_8hpp.html" target="_top" xlink:title=" ">
<polygon fill="white" stroke="#666666" points="119,-41 0,-41 0,0 119,0 119,-41"/>
<text text-anchor="start" x="8" y="-29" font-family="Helvetica,sans-Serif" font-size="10.00">include/experimental</text>
<text text-anchor="start" x="8" y="-18" font-family="Helvetica,sans-Serif" font-size="10.00">/linear_algebra/dynamic</text>
<text text-anchor="middle" x="59.5" y="-7" font-family="Helvetica,sans-Serif" font-size="10.00">_matrix.hpp</text>
</a>
</g>
</g>
<!-- Node2&#45;&gt;Node3 -->
<g id="edge3" class="edge">
<title>Node2&#45;&gt;Node3</title>
<path fill="none" stroke="#63b8ff" d="M989.47,-89.52C807.07,-84.89 287.61,-69.22 119.25,-41.13"/>
<polygon fill="#63b8ff" stroke="#63b8ff" points="989.13,-93.04 999.22,-89.79 989.31,-86.04 989.13,-93.04"/>
</g>
<!-- Node4 -->
<g id="node4" class="node">
<title>Node4</title>
<g id="a_node4"><a xlink:href="dynamic__tensor_8hpp.html" target="_top" xlink:title=" ">
<polygon fill="white" stroke="#666666" points="256,-41 137,-41 137,0 256,0 256,-41"/>
<text text-anchor="start" x="145" y="-29" font-family="Helvetica,sans-Serif" font-size="10.00">include/experimental</text>
<text text-anchor="start" x="145" y="-18" font-family="Helvetica,sans-Serif" font-size="10.00">/linear_algebra/dynamic</text>
<text text-anchor="middle" x="196.5" y="-7" font-family="Helvetica,sans-Serif" font-size="10.00">_tensor.hpp</text>
</a>
</g>
</g>
<!-- Node2&#45;&gt;Node4 -->
<g id="edge5" class="edge">
<title>Node2&#45;&gt;Node4</title>
<path fill="none" stroke="#63b8ff" d="M989.56,-91.59C853.43,-91.96 525.78,-87.65 256.31,-41.14"/>
<polygon fill="#63b8ff" stroke="#63b8ff" points="989.21,-95.09 999.2,-91.55 989.18,-88.09 989.21,-95.09"/>
</g>
<!-- Node5 -->
<g id="node5" class="node">
<title>Node5</title>
<g id="a_node5"><a xlink:href="dynamic__vector_8hpp.html" target="_top" xlink:title=" ">
<polygon fill="white" stroke="#666666" points="393,-41 274,-41 274,0 393,0 393,-41"/>
<text text-anchor="start" x="282" y="-29" font-family="Helvetica,sans-Serif" font-size="10.00">include/experimental</text>
<text text-anchor="start" x="282" y="-18" font-family="Helvetica,sans-Serif" font-size="10.00">/linear_algebra/dynamic</text>
<text text-anchor="middle" x="333.5" y="-7" font-family="Helvetica,sans-Serif" font-size="10.00">_vector.hpp</text>
</a>
</g>
</g>
<!-- Node2&#45;&gt;Node5 -->
<g id="edge7" class="edge">
<title>Node2&#45;&gt;Node5</title>
<path fill="none" stroke="#63b8ff" d="M989.47,-90.38C870.84,-88.32 609.67,-79.42 393.83,-41.06"/>
<polygon fill="#63b8ff" stroke="#63b8ff" points="989.11,-93.89 999.16,-90.56 989.22,-86.89 989.11,-93.89"/>
</g>
<!-- Node6 -->
<g id="node6" class="node">
<title>Node6</title>
<g id="a_node6"><a xlink:href="fixed__size__matrix_8hpp.html" target="_top" xlink:title=" ">
<polygon fill="white" stroke="#666666" points="517.5,-41 411.5,-41 411.5,0 517.5,0 517.5,-41"/>
<text text-anchor="start" x="419.5" y="-29" font-family="Helvetica,sans-Serif" font-size="10.00">include/experimental</text>
<text text-anchor="start" x="419.5" y="-18" font-family="Helvetica,sans-Serif" font-size="10.00">/linear_algebra/fixed</text>
<text text-anchor="middle" x="464.5" y="-7" font-family="Helvetica,sans-Serif" font-size="10.00">_size_matrix.hpp</text>
</a>
</g>
</g>
<!-- Node2&#45;&gt;Node6 -->
<g id="edge9" class="edge">
<title>Node2&#45;&gt;Node6</title>
<path fill="none" stroke="#63b8ff" d="M989.32,-89.45C887.97,-85.97 685.49,-74.96 517.76,-41.05"/>
<polygon fill="#63b8ff" stroke="#63b8ff" points="989.17,-92.98 999.28,-89.81 989.4,-85.98 989.17,-92.98"/>
</g>
<!-- Node7 -->
<g id="node7" class="node">
<title>Node7</title>
<g id="a_node7"><a xlink:href="fixed__size__tensor_8hpp.html" target="_top" xlink:title=" ">
<polygon fill="white" stroke="#666666" points="641.5,-41 535.5,-41 535.5,0 641.5,0 641.5,-41"/>
<text text-anchor="start" x="543.5" y="-29" font-family="Helvetica,sans-Serif" font-size="10.00">include/experimental</text>
<text text-anchor="start" x="543.5" y="-18" font-family="Helvetica,sans-Serif" font-size="10.00">/linear_algebra/fixed</text>
<text text-anchor="middle" x="588.5" y="-7" font-family="Helvetica,sans-Serif" font-size="10.00">_size_tensor.hpp</text>
</a>
</g>
</g>
<!-- Node2&#45;&gt;Node7 -->
<g id="edge11" class="edge">
<title>Node2&#45;&gt;Node7</title>
<path fill="none" stroke="#63b8ff" d="M989.37,-87.12C907.72,-81.1 762.99,-67.38 641.87,-41.08"/>
<polygon fill="#63b8ff" stroke="#63b8ff" points="988.99,-90.67 999.22,-87.9 989.5,-83.69 988.99,-90.67"/>
</g>
<!-- Node8 -->
<g id="node8" class="node">
<title>Node8</title>
<g id="a_node8"><a xlink:href="fixed__size__vector_8hpp.html" target="_top" xlink:title=" ">
<polygon fill="white" stroke="#666666" points="765.5,-41 659.5,-41 659.5,0 765.5,0 765.5,-41"/>
<text text-anchor="start" x="667.5" y="-29" font-family="Helvetica,sans-Serif" font-size="10.00">include/experimental</text>
<text text-anchor="start" x="667.5" y="-18" font-family="Helvetica,sans-Serif" font-size="10.00">/linear_algebra/fixed</text>
<text text-anchor="middle" x="712.5" y="-7" font-family="Helvetica,sans-Serif" font-size="10.00">_size_vector.hpp</text>
</a>
</g>
</g>
<!-- Node2&#45;&gt;Node8 -->
<g id="edge13" class="edge">
<title>Node2&#45;&gt;Node8</title>
<path fill="none" stroke="#63b8ff" d="M989.44,-82.93C930.69,-74.44 841.79,-59.72 765.97,-41.12"/>
<polygon fill="#63b8ff" stroke="#63b8ff" points="988.65,-86.5 999.05,-84.44 989.64,-79.57 988.65,-86.5"/>
</g>
<!-- Node9 -->
<g id="node9" class="node">
<title>Node9</title>
<g id="a_node9"><a xlink:href="forward__declarations_8hpp.html" target="_top" xlink:title=" ">
<polygon fill="white" stroke="#666666" points="899,-41 784,-41 784,0 899,0 899,-41"/>
<text text-anchor="start" x="792" y="-29" font-family="Helvetica,sans-Serif" font-size="10.00">include/experimental</text>
<text text-anchor="start" x="792" y="-18" font-family="Helvetica,sans-Serif" font-size="10.00">/linear_algebra/forward</text>
<text text-anchor="middle" x="841.5" y="-7" font-family="Helvetica,sans-Serif" font-size="10.00">_declarations.hpp</text>
</a>
</g>
</g>
<!-- Node2&#45;&gt;Node9 -->
<g id="edge15" class="edge">
<title>Node2&#45;&gt;Node9</title>
<path fill="none" stroke="#63b8ff" d="M993.57,-73.31C962.87,-63.56 925.82,-51.44 895.94,-41.37"/>
<polygon fill="#63b8ff" stroke="#63b8ff" points="992.12,-76.84 1002.71,-76.52 994.23,-70.16 992.12,-76.84"/>
</g>
<!-- Node10 -->
<g id="node10" class="node">
<title>Node10</title>
<g id="a_node10"><a xlink:href="instant__evaluated__operations_8hpp.html" target="_top" xlink:title=" ">
<polygon fill="white" stroke="#666666" points="1050,-41 917,-41 917,0 1050,0 1050,-41"/>
<text text-anchor="start" x="925" y="-29" font-family="Helvetica,sans-Serif" font-size="10.00">include/experimental</text>
<text text-anchor="start" x="925" y="-18" font-family="Helvetica,sans-Serif" font-size="10.00">/linear_algebra/instant</text>
<text text-anchor="middle" x="983.5" y="-7" font-family="Helvetica,sans-Serif" font-size="10.00">_evaluated_operations.hpp</text>
</a>
</g>
</g>
<!-- Node2&#45;&gt;Node10 -->
<g id="edge17" class="edge">
<title>Node2&#45;&gt;Node10</title>
<path fill="none" stroke="#63b8ff" d="M1025.52,-69.47C1015.86,-60.52 1005.5,-50.19 997.39,-41.42"/>
<polygon fill="#63b8ff" stroke="#63b8ff" points="1022.64,-71.49 1032.4,-75.6 1027.33,-66.3 1022.64,-71.49"/>
</g>
<!-- Node11 -->
<g id="node11" class="node">
<title>Node11</title>
<g id="a_node11"><a xlink:href="matrix__concepts_8hpp.html" target="_top" xlink:title=" ">
<polygon fill="white" stroke="#666666" points="1178.5,-41 1068.5,-41 1068.5,0 1178.5,0 1178.5,-41"/>
<text text-anchor="start" x="1076.5" y="-29" font-family="Helvetica,sans-Serif" font-size="10.00">include/experimental</text>
<text text-anchor="start" x="1076.5" y="-18" font-family="Helvetica,sans-Serif" font-size="10.00">/linear_algebra/matrix</text>
<text text-anchor="middle" x="1123.5" y="-7" font-family="Helvetica,sans-Serif" font-size="10.00">_concepts.hpp</text>
</a>
</g>
</g>
<!-- Node2&#45;&gt;Node11 -->
<g id="edge19" class="edge">
<title>Node2&#45;&gt;Node11</title>
<path fill="none" stroke="#63b8ff" d="M1069.65,-68.66C1077.89,-59.9 1087.99,-49.93 1097.27,-41.42"/>
<polygon fill="#63b8ff" stroke="#63b8ff" points="1067.56,-65.85 1063.41,-75.6 1072.73,-70.57 1067.56,-65.85"/>
</g>
<!-- Node12 -->
<g id="node12" class="node">
<title>Node12</title>
<g id="a_node12"><a xlink:href="matrix__view_8hpp.html" target="_top" xlink:title=" ">
<polygon fill="white" stroke="#666666" points="1306.5,-41 1196.5,-41 1196.5,0 1306.5,0 1306.5,-41"/>
<text text-anchor="start" x="1204.5" y="-29" font-family="Helvetica,sans-Serif" font-size="10.00">include/experimental</text>
<text text-anchor="start" x="1204.5" y="-18" font-family="Helvetica,sans-Serif" font-size="10.00">/linear_algebra/matrix</text>
<text text-anchor="middle" x="1251.5" y="-7" font-family="Helvetica,sans-Serif" font-size="10.00">_view.hpp</text>
</a>
</g>
</g>
<!-- Node2&#45;&gt;Node12 -->
<g id="edge21" class="edge">
<title>Node2&#45;&gt;Node12</title>
<path fill="none" stroke="#63b8ff" d="M1099.17,-72.86C1128.09,-62.35 1165.59,-49.2 1196.19,-38.83"/>
<polygon fill="#63b8ff" stroke="#63b8ff" points="1098.12,-69.88 1089.93,-76.6 1100.53,-76.46 1098.12,-69.88"/>
</g>
<!-- Node13 -->
<g id="node13" class="node">
<title>Node13</title>
<g id="a_node13"><a xlink:href="private__support_8hpp.html" target="_top" xlink:title=" ">
<polygon fill="white" stroke="#666666" points="1436.5,-41 1324.5,-41 1324.5,0 1436.5,0 1436.5,-41"/>
<text text-anchor="start" x="1332.5" y="-29" font-family="Helvetica,sans-Serif" font-size="10.00">include/experimental</text>
<text text-anchor="start" x="1332.5" y="-18" font-family="Helvetica,sans-Serif" font-size="10.00">/linear_algebra/private</text>
<text text-anchor="middle" x="1380.5" y="-7" font-family="Helvetica,sans-Serif" font-size="10.00">_support.hpp</text>
</a>
</g>
</g>
<!-- Node2&#45;&gt;Node13 -->
<g id="edge23" class="edge">
<title>Node2&#45;&gt;Node13</title>
<path fill="none" stroke="#63b8ff" d="M1117.48,-79.41C1168.86,-70.33 1242.57,-56.65 1306.5,-41 1312.22,-39.6 1318.19,-38 1324.15,-36.34"/>
<polygon fill="#63b8ff" stroke="#63b8ff" points="1117.11,-76.1 1107.87,-81.28 1118.32,-82.99 1117.11,-76.1"/>
</g>
<!-- Node14 -->
<g id="node14" class="node">
<title>Node14</title>
<g id="a_node14"><a xlink:href="tensor__concepts_8hpp.html" target="_top" xlink:title=" ">
<polygon fill="white" stroke="#666666" points="1564.5,-41 1454.5,-41 1454.5,0 1564.5,0 1564.5,-41"/>
<text text-anchor="start" x="1462.5" y="-29" font-family="Helvetica,sans-Serif" font-size="10.00">include/experimental</text>
<text text-anchor="start" x="1462.5" y="-18" font-family="Helvetica,sans-Serif" font-size="10.00">/linear_algebra/tensor</text>
<text text-anchor="middle" x="1509.5" y="-7" font-family="Helvetica,sans-Serif" font-size="10.00">_concepts.hpp</text>
</a>
</g>
</g>
<!-- Node2&#45;&gt;Node14 -->
<g id="edge25" class="edge">
<title>Node2&#45;&gt;Node14</title>
<path fill="none" stroke="#63b8ff" d="M1117.82,-85.58C1194.38,-78.71 1325.57,-64.8 1436.5,-41 1442.29,-39.76 1448.32,-38.24 1454.32,-36.6"/>
<polygon fill="#63b8ff" stroke="#63b8ff" points="1117.59,-82.18 1107.93,-86.55 1118.2,-89.15 1117.59,-82.18"/>
</g>
<!-- Node15 -->
<g id="node15" class="node">
<title>Node15</title>
<g id="a_node15"><a xlink:href="tensor__view_8hpp.html" target="_top" xlink:title=" ">
<polygon fill="white" stroke="#666666" points="1692.5,-41 1582.5,-41 1582.5,0 1692.5,0 1692.5,-41"/>
<text text-anchor="start" x="1590.5" y="-29" font-family="Helvetica,sans-Serif" font-size="10.00">include/experimental</text>
<text text-anchor="start" x="1590.5" y="-18" font-family="Helvetica,sans-Serif" font-size="10.00">/linear_algebra/tensor</text>
<text text-anchor="middle" x="1637.5" y="-7" font-family="Helvetica,sans-Serif" font-size="10.00">_view.hpp</text>
</a>
</g>
</g>
<!-- Node2&#45;&gt;Node15 -->
<g id="edge27" class="edge">
<title>Node2&#45;&gt;Node15</title>
<path fill="none" stroke="#63b8ff" d="M1117.82,-88.7C1215.29,-84.39 1405.6,-72.52 1564.5,-41 1570.2,-39.87 1576.11,-38.44 1582,-36.86"/>
<polygon fill="#63b8ff" stroke="#63b8ff" points="1117.81,-85.24 1107.97,-89.16 1118.11,-92.23 1117.81,-85.24"/>
</g>
<!-- Node16 -->
<g id="node16" class="node">
<title>Node16</title>
<g id="a_node16"><a xlink:href="tensor__view__impl_8hpp.html" target="_top" xlink:title=" ">
<polygon fill="white" stroke="#666666" points="1820.5,-41 1710.5,-41 1710.5,0 1820.5,0 1820.5,-41"/>
<text text-anchor="start" x="1718.5" y="-29" font-family="Helvetica,sans-Serif" font-size="10.00">include/experimental</text>
<text text-anchor="start" x="1718.5" y="-18" font-family="Helvetica,sans-Serif" font-size="10.00">/linear_algebra/tensor</text>
<text text-anchor="middle" x="1765.5" y="-7" font-family="Helvetica,sans-Serif" font-size="10.00">_view_impl.hpp</text>
</a>
</g>
</g>
<!-- Node2&#45;&gt;Node16 -->
<g id="edge29" class="edge">
<title>Node2&#45;&gt;Node16</title>
<path fill="none" stroke="#63b8ff" d="M1117.38,-90.6C1233.1,-88.82 1484.38,-80.24 1692.5,-41 1698.21,-39.92 1704.13,-38.52 1710.02,-36.97"/>
<polygon fill="#63b8ff" stroke="#63b8ff" points="1117.56,-87.11 1107.61,-90.75 1117.65,-94.11 1117.56,-87.11"/>
</g>
<!-- Node17 -->
<g id="node17" class="node">
<title>Node17</title>
<g id="a_node17"><a xlink:href="vector__concepts_8hpp.html" target="_top" xlink:title=" ">
<polygon fill="white" stroke="#666666" points="1948.5,-41 1838.5,-41 1838.5,0 1948.5,0 1948.5,-41"/>
<text text-anchor="start" x="1846.5" y="-29" font-family="Helvetica,sans-Serif" font-size="10.00">include/experimental</text>
<text text-anchor="start" x="1846.5" y="-18" font-family="Helvetica,sans-Serif" font-size="10.00">/linear_algebra/vector</text>
<text text-anchor="middle" x="1893.5" y="-7" font-family="Helvetica,sans-Serif" font-size="10.00">_concepts.hpp</text>
</a>
</g>
</g>
<!-- Node2&#45;&gt;Node17 -->
<g id="edge31" class="edge">
<title>Node2&#45;&gt;Node17</title>
<path fill="none" stroke="#63b8ff" d="M1117.49,-91.87C1249.91,-92.43 1562.77,-87.91 1820.5,-41 1826.21,-39.96 1832.14,-38.58 1838.04,-37.04"/>
<polygon fill="#63b8ff" stroke="#63b8ff" points="1117.77,-88.37 1107.75,-91.82 1117.73,-95.37 1117.77,-88.37"/>
</g>
<!-- Node18 -->
<g id="node18" class="node">
<title>Node18</title>
<g id="a_node18"><a xlink:href="vector__view_8hpp.html" target="_top" xlink:title=" ">
<polygon fill="white" stroke="#666666" points="2076.5,-41 1966.5,-41 1966.5,0 2076.5,0 2076.5,-41"/>
<text text-anchor="start" x="1974.5" y="-29" font-family="Helvetica,sans-Serif" font-size="10.00">include/experimental</text>
<text text-anchor="start" x="1974.5" y="-18" font-family="Helvetica,sans-Serif" font-size="10.00">/linear_algebra/vector</text>
<text text-anchor="middle" x="2021.5" y="-7" font-family="Helvetica,sans-Serif" font-size="10.00">_view.hpp</text>
</a>
</g>
</g>
<!-- Node2&#45;&gt;Node18 -->
<g id="edge33" class="edge">
<title>Node2&#45;&gt;Node18</title>
<path fill="none" stroke="#63b8ff" d="M1117.86,-89.34C1295.26,-84.59 1788.17,-69.43 1948.5,-41 1954.22,-39.99 1960.14,-38.62 1966.05,-37.09"/>
<polygon fill="#63b8ff" stroke="#63b8ff" points="1117.8,-85.87 1107.89,-89.63 1117.98,-92.86 1117.8,-85.87"/>
</g>
<!-- Node3&#45;&gt;Node2 -->
<g id="edge4" class="edge">
<title>Node3&#45;&gt;Node2</title>
<path fill="none" stroke="#63b8ff" d="M129.89,-39.78C132.12,-40.22 134.32,-40.63 136.5,-41 304.99,-69.33 830.63,-85.06 1000.24,-89.6"/>
<polygon fill="#63b8ff" stroke="#63b8ff" points="130.92,-36.2 120.4,-37.45 129.41,-43.03 130.92,-36.2"/>
</g>
<!-- Node4&#45;&gt;Node2 -->
<g id="edge6" class="edge">
<title>Node4&#45;&gt;Node2</title>
<path fill="none" stroke="#63b8ff" d="M266.9,-39.75C269.12,-40.2 271.33,-40.62 273.5,-41 543.99,-87.79 873.41,-91.99 1000.29,-91.59"/>
<polygon fill="#63b8ff" stroke="#63b8ff" points="267.94,-36.17 257.41,-37.39 266.4,-43 267.94,-36.17"/>
</g>
<!-- Node5&#45;&gt;Node2 -->
<g id="edge8" class="edge">
<title>Node5&#45;&gt;Node2</title>
<path fill="none" stroke="#63b8ff" d="M403.95,-39.53C406.5,-40.06 409.02,-40.56 411.5,-41 627.73,-79.46 889.55,-88.35 1000.2,-90.39"/>
<polygon fill="#63b8ff" stroke="#63b8ff" points="404.95,-35.94 394.42,-37.13 403.39,-42.76 404.95,-35.94"/>
</g>
<!-- Node6&#45;&gt;Node2 -->
<g id="edge10" class="edge">
<title>Node6&#45;&gt;Node2</title>
<path fill="none" stroke="#63b8ff" d="M528.4,-39.43C530.79,-40 533.16,-40.53 535.5,-41 703.27,-74.95 905.87,-85.97 1000.35,-89.45"/>
<polygon fill="#63b8ff" stroke="#63b8ff" points="529.39,-35.81 518.83,-36.7 527.64,-42.59 529.39,-35.81"/>
</g>
<!-- Node7&#45;&gt;Node2 -->
<g id="edge12" class="edge">
<title>Node7&#45;&gt;Node2</title>
<path fill="none" stroke="#63b8ff" d="M652.42,-39.34C654.8,-39.94 657.17,-40.49 659.5,-41 779.89,-67.17 923.7,-80.91 1000,-87"/>
<polygon fill="#63b8ff" stroke="#63b8ff" points="653.43,-35.73 642.87,-36.54 651.63,-42.49 653.43,-35.73"/>
</g>
<!-- Node8&#45;&gt;Node2 -->
<g id="edge14" class="edge">
<title>Node8&#45;&gt;Node2</title>
<path fill="none" stroke="#63b8ff" d="M776.45,-39.19C778.83,-39.82 781.19,-40.43 783.5,-41 858.05,-59.32 945.34,-73.88 1000.13,-82.46"/>
<polygon fill="#63b8ff" stroke="#63b8ff" points="777.51,-35.57 766.93,-36.25 775.62,-42.31 777.51,-35.57"/>
</g>
<!-- Node9&#45;&gt;Node2 -->
<g id="edge16" class="edge">
<title>Node9&#45;&gt;Node2</title>
<path fill="none" stroke="#63b8ff" d="M909.27,-41.69C944.28,-52.87 985.68,-66.5 1015.17,-76.6"/>
<polygon fill="#63b8ff" stroke="#63b8ff" points="910.7,-38.15 900.11,-38.46 908.58,-44.82 910.7,-38.15"/>
</g>
<!-- Node10&#45;&gt;Node2 -->
<g id="edge18" class="edge">
<title>Node10&#45;&gt;Node2</title>
<path fill="none" stroke="#63b8ff" d="M1017.61,-48.8C1027.53,-58.3 1037.54,-68.57 1044.59,-76.6"/>
<polygon fill="#63b8ff" stroke="#63b8ff" points="1020.42,-46.7 1010.73,-42.42 1015.63,-51.81 1020.42,-46.7"/>
</g>
<!-- Node11&#45;&gt;Node2 -->
<g id="edge20" class="edge">
<title>Node11&#45;&gt;Node2</title>
<path fill="none" stroke="#63b8ff" d="M1102.06,-49.37C1092.99,-58.7 1082.54,-68.73 1073.6,-76.6"/>
<polygon fill="#63b8ff" stroke="#63b8ff" points="1104.26,-52.08 1108.61,-42.42 1099.19,-47.26 1104.26,-52.08"/>
</g>
<!-- Node12&#45;&gt;Node2 -->
<g id="edge22" class="edge">
<title>Node12&#45;&gt;Node2</title>
<path fill="none" stroke="#63b8ff" d="M1190.99,-44.99C1161.86,-55.44 1127.5,-67.41 1100.37,-76.52"/>
<polygon fill="#63b8ff" stroke="#63b8ff" points="1191.84,-48.05 1200.06,-41.37 1189.47,-41.46 1191.84,-48.05"/>
</g>
<!-- Node13&#45;&gt;Node2 -->
<g id="edge24" class="edge">
<title>Node13&#45;&gt;Node2</title>
<path fill="none" stroke="#63b8ff" d="M1313.51,-43.65C1241.46,-60.75 1159.42,-75.25 1106.99,-83.54"/>
<polygon fill="#63b8ff" stroke="#63b8ff" points="1314.16,-46.85 1323.06,-41.11 1312.52,-40.05 1314.16,-46.85"/>
</g>
<!-- Node14&#45;&gt;Node2 -->
<g id="edge26" class="edge">
<title>Node14&#45;&gt;Node2</title>
<path fill="none" stroke="#63b8ff" d="M1443.66,-43.28C1323.16,-68.16 1181.91,-81.74 1106.71,-87.55"/>
<polygon fill="#63b8ff" stroke="#63b8ff" points="1444.07,-46.56 1453.14,-41.08 1442.63,-39.71 1444.07,-46.56"/>
</g>
<!-- Node15&#45;&gt;Node2 -->
<g id="edge28" class="edge">
<title>Node15&#45;&gt;Node2</title>
<path fill="none" stroke="#63b8ff" d="M1571.66,-43.11C1402.34,-75.48 1200.96,-86.22 1106.8,-89.58"/>
<polygon fill="#63b8ff" stroke="#63b8ff" points="1572.1,-46.4 1581.25,-41.05 1570.76,-39.52 1572.1,-46.4"/>
</g>
<!-- Node16&#45;&gt;Node2 -->
<g id="edge30" class="edge">
<title>Node16&#45;&gt;Node2</title>
<path fill="none" stroke="#63b8ff" d="M1699.45,-43.05C1480.38,-82.95 1217.46,-89.8 1106.68,-90.86"/>
<polygon fill="#63b8ff" stroke="#63b8ff" points="1699.98,-46.32 1709.18,-41.06 1698.71,-39.44 1699.98,-46.32"/>
</g>
<!-- Node17&#45;&gt;Node2 -->
<g id="edge32" class="edge">
<title>Node17&#45;&gt;Node2</title>
<path fill="none" stroke="#63b8ff" d="M1827.34,-43C1558.17,-90.44 1233.1,-92.78 1106.98,-91.75"/>
<polygon fill="#63b8ff" stroke="#63b8ff" points="1827.88,-46.28 1837.1,-41.07 1826.64,-39.39 1827.88,-46.28"/>
</g>
<!-- Node18&#45;&gt;Node2 -->
<g id="edge34" class="edge">
<title>Node18&#45;&gt;Node2</title>
<path fill="none" stroke="#63b8ff" d="M1955.31,-42.88C1777.89,-71.13 1272.56,-85.79 1106.8,-89.83"/>
<polygon fill="#63b8ff" stroke="#63b8ff" points="1955.73,-46.19 1965.01,-41.09 1954.57,-39.29 1955.73,-46.19"/>
</g>
</g>
</svg>
