<?xml version="1.0" encoding="UTF-8" standalone="no"?>
<!DOCTYPE svg PUBLIC "-//W3C//DTD SVG 1.1//EN"
 "http://www.w3.org/Graphics/SVG/1.1/DTD/svg11.dtd">
<!-- Generated by graphviz version 2.43.0 (0)
 -->
<!-- Title: include/experimental Pages: 1 -->
<svg width="142pt" height="183pt"
 viewBox="0.00 0.00 142.00 183.00" xmlns="http://www.w3.org/2000/svg" xmlns:xlink="http://www.w3.org/1999/xlink">
<g id="graph0" class="graph" transform="scale(1 1) rotate(0) translate(4 179)">
<title>include/experimental</title>
<polygon fill="white" stroke="transparent" points="-4,4 -4,-179 138,-179 138,4 -4,4"/>
<g id="clust1" class="cluster">
<title>clusterdir_d44c64559bbebec7f509842c48db8b23</title>
<g id="a_clust1"><a xlink:href="dir_d44c64559bbebec7f509842c48db8b23.html" target="_top" xlink:title="include">
<polygon fill="#ddddee" stroke="black" points="8,-8 8,-167 126,-167 126,-8 8,-8"/>
<text text-anchor="middle" x="67" y="-155" font-family="Helvetica,sans-Serif" font-size="10.00">include</text>
</a>
</g>
</g>
<g id="clust2" class="cluster">
<title>clusterdir_8966848d4591654ab1db845bb311f08b</title>
<g id="a_clust2"><a xlink:href="dir_8966848d4591654ab1db845bb311f08b.html" target="_top">
<polygon fill="#eeeeff" stroke="black" points="16,-16 16,-140 118,-140 118,-16 16,-16"/>
</a>
</g>
</g>
<!-- dir_8966848d4591654ab1db845bb311f08b -->
<g id="node1" class="node">
<title>dir_8966848d4591654ab1db845bb311f08b</title>
<text text-anchor="middle" x="67" y="-111.5" font-family="Helvetica,sans-Serif" font-size="10.00">experimental</text>
</g>
<!-- dir_902588da707152c0dd61dc39624b0364 -->
<g id="node2" class="node">
<title>dir_902588da707152c0dd61dc39624b0364</title>
<g id="a_node2"><a xlink:href="dir_902588da707152c0dd61dc39624b0364.html" target="_top" xlink:title="linear_algebra">
<polygon fill="white" stroke="black" points="110,-60 24,-60 24,-24 110,-24 110,-60"/>
<text text-anchor="middle" x="67" y="-39.5" font-family="Helvetica,sans-Serif" font-size="10.00">linear_algebra</text>
</a>
</g>
</g>
<!-- dir_8966848d4591654ab1db845bb311f08b&#45;&gt;dir_902588da707152c0dd61dc39624b0364 -->
<g id="edge1" class="edge">
<title>dir_8966848d4591654ab1db845bb311f08b&#45;&gt;dir_902588da707152c0dd61dc39624b0364</title>
<path fill="none" stroke="black" d="M67,-95.7C67,-87.98 67,-78.71 67,-70.11"/>
<polygon fill="black" stroke="black" points="70.5,-70.1 67,-60.1 63.5,-70.1 70.5,-70.1"/>
<g id="a_edge1&#45;headlabel"><a xlink:href="dir_000001_000002.html" target="_top" xlink:title="15">
<text text-anchor="middle" x="73.34" y="-71.2" font-family="Helvetica,sans-Serif" font-size="10.00">15</text>
</a>
</g>
</g>
</g>
</svg>
