<?xml version="1.0" encoding="UTF-8" standalone="no"?>
<!DOCTYPE svg PUBLIC "-//W3C//DTD SVG 1.1//EN"
 "http://www.w3.org/Graphics/SVG/1.1/DTD/svg11.dtd">
<!-- Generated by graphviz version 8.0.1 (20230327.1645)
 -->
<!-- Title: include/experimental/linear_algebra/dynamic_tensor.hpp Pages: 1 -->
<svg width="2091pt" height="192pt"
 viewBox="0.00 0.00 2090.50 192.00" xmlns="http://www.w3.org/2000/svg" xmlns:xlink="http://www.w3.org/1999/xlink">
<g id="graph0" class="graph" transform="scale(1 1) rotate(0) translate(4 188)">
<title>include/experimental/linear_algebra/dynamic_tensor.hpp</title>
<!-- Node1 -->
<g id="node1" class="node">
<title>Node1</title>
<g id="a_node1"><a xlink:title=" ">
<polygon fill="#999999" stroke="#666666" points="1119,-184 1000,-184 1000,-143 1119,-143 1119,-184"/>
<text text-anchor="start" x="1008" y="-172" font-family="Helvetica,sans-Serif" font-size="10.00">include/experimental</text>
<text text-anchor="start" x="1008" y="-161" font-family="Helvetica,sans-Serif" font-size="10.00">/linear_algebra/dynamic</text>
<text text-anchor="middle" x="1059.5" y="-150" font-family="Helvetica,sans-Serif" font-size="10.00">_tensor.hpp</text>
</a>
</g>
</g>
<!-- Node2 -->
<g id="node2" class="node">
<title>Node2</title>
<g id="a_node2"><a xlink:href="linear__algebra_8hpp.html" target="_top" xlink:title=" ">
<polygon fill="white" stroke="#666666" points="1112.5,-107 1006.5,-107 1006.5,-77 1112.5,-77 1112.5,-107"/>
<text text-anchor="start" x="1014.5" y="-95" font-family="Helvetica,sans-Serif" font-size="10.00">include/experimental</text>
<text text-anchor="middle" x="1059.5" y="-84" font-family="Helvetica,sans-Serif" font-size="10.00">/linear_algebra.hpp</text>
</a>
</g>
</g>
<!-- Node1&#45;&gt;Node2 -->
<g id="edge1" class="edge">
<title>Node1&#45;&gt;Node2</title>
<path fill="none" stroke="#63b8ff" d="M1052.79,-131.95C1052.61,-123.44 1052.98,-114.59 1053.9,-107.47"/>
<polygon fill="#63b8ff" stroke="#63b8ff" points="1049.34,-131.96 1053.34,-141.77 1056.33,-131.6 1049.34,-131.96"/>
</g>
<!-- Node2&#45;&gt;Node1 -->
<g id="edge6" class="edge">
<title>Node2&#45;&gt;Node1</title>
<path fill="none" stroke="#63b8ff" d="M1066.02,-118.21C1066.42,-126.3 1066.3,-135.13 1065.66,-142.77"/>
<polygon fill="#63b8ff" stroke="#63b8ff" points="1069.44,-118.14 1065.1,-108.47 1062.47,-118.74 1069.44,-118.14"/>
</g>
<!-- Node3 -->
<g id="node3" class="node">
<title>Node3</title>
<g id="a_node3"><a xlink:href="arithmetic__operators_8hpp.html" target="_top" xlink:title=" ">
<polygon fill="white" stroke="#666666" points="125,-41 0,-41 0,0 125,0 125,-41"/>
<text text-anchor="start" x="8" y="-29" font-family="Helvetica,sans-Serif" font-size="10.00">include/experimental</text>
<text text-anchor="start" x="8" y="-18" font-family="Helvetica,sans-Serif" font-size="10.00">/linear_algebra/arithmetic</text>
<text text-anchor="middle" x="62.5" y="-7" font-family="Helvetica,sans-Serif" font-size="10.00">_operators.hpp</text>
</a>
</g>
</g>
<!-- Node2&#45;&gt;Node3 -->
<g id="edge2" class="edge">
<title>Node2&#45;&gt;Node3</title>
<path fill="none" stroke="#63b8ff" d="M995.48,-89.44C813.12,-84.56 293.77,-68.28 125.25,-41.12"/>
<polygon fill="#63b8ff" stroke="#63b8ff" points="995.14,-92.96 1005.23,-89.72 995.33,-85.96 995.14,-92.96"/>
</g>
<!-- Node4 -->
<g id="node4" class="node">
<title>Node4</title>
<g id="a_node4"><a xlink:href="dynamic__matrix_8hpp.html" target="_top" xlink:title=" ">
<polygon fill="white" stroke="#666666" points="262,-41 143,-41 143,0 262,0 262,-41"/>
<text text-anchor="start" x="151" y="-29" font-family="Helvetica,sans-Serif" font-size="10.00">include/experimental</text>
<text text-anchor="start" x="151" y="-18" font-family="Helvetica,sans-Serif" font-size="10.00">/linear_algebra/dynamic</text>
<text text-anchor="middle" x="202.5" y="-7" font-family="Helvetica,sans-Serif" font-size="10.00">_matrix.hpp</text>
</a>
</g>
</g>
<!-- Node2&#45;&gt;Node4 -->
<g id="edge4" class="edge">
<title>Node2&#45;&gt;Node4</title>
<path fill="none" stroke="#63b8ff" d="M995.56,-91.59C859.43,-91.96 531.78,-87.65 262.31,-41.14"/>
<polygon fill="#63b8ff" stroke="#63b8ff" points="995.21,-95.09 1005.2,-91.55 995.18,-88.09 995.21,-95.09"/>
</g>
<!-- Node5 -->
<g id="node5" class="node">
<title>Node5</title>
<g id="a_node5"><a xlink:href="dynamic__vector_8hpp.html" target="_top" xlink:title=" ">
<polygon fill="white" stroke="#666666" points="399,-41 280,-41 280,0 399,0 399,-41"/>
<text text-anchor="start" x="288" y="-29" font-family="Helvetica,sans-Serif" font-size="10.00">include/experimental</text>
<text text-anchor="start" x="288" y="-18" font-family="Helvetica,sans-Serif" font-size="10.00">/linear_algebra/dynamic</text>
<text text-anchor="middle" x="339.5" y="-7" font-family="Helvetica,sans-Serif" font-size="10.00">_vector.hpp</text>
</a>
</g>
</g>
<!-- Node2&#45;&gt;Node5 -->
<g id="edge7" class="edge">
<title>Node2&#45;&gt;Node5</title>
<path fill="none" stroke="#63b8ff" d="M995.47,-90.38C876.84,-88.32 615.67,-79.42 399.83,-41.06"/>
<polygon fill="#63b8ff" stroke="#63b8ff" points="995.11,-93.89 1005.16,-90.56 995.22,-86.89 995.11,-93.89"/>
</g>
<!-- Node6 -->
<g id="node6" class="node">
<title>Node6</title>
<g id="a_node6"><a xlink:href="fixed__size__matrix_8hpp.html" target="_top" xlink:title=" ">
<polygon fill="white" stroke="#666666" points="523.5,-41 417.5,-41 417.5,0 523.5,0 523.5,-41"/>
<text text-anchor="start" x="425.5" y="-29" font-family="Helvetica,sans-Serif" font-size="10.00">include/experimental</text>
<text text-anchor="start" x="425.5" y="-18" font-family="Helvetica,sans-Serif" font-size="10.00">/linear_algebra/fixed</text>
<text text-anchor="middle" x="470.5" y="-7" font-family="Helvetica,sans-Serif" font-size="10.00">_size_matrix.hpp</text>
</a>
</g>
</g>
<!-- Node2&#45;&gt;Node6 -->
<g id="edge9" class="edge">
<title>Node2&#45;&gt;Node6</title>
<path fill="none" stroke="#63b8ff" d="M995.32,-89.45C893.97,-85.97 691.49,-74.96 523.76,-41.05"/>
<polygon fill="#63b8ff" stroke="#63b8ff" points="995.17,-92.98 1005.28,-89.81 995.4,-85.98 995.17,-92.98"/>
</g>
<!-- Node7 -->
<g id="node7" class="node">
<title>Node7</title>
<g id="a_node7"><a xlink:href="fixed__size__tensor_8hpp.html" target="_top" xlink:title=" ">
<polygon fill="white" stroke="#666666" points="647.5,-41 541.5,-41 541.5,0 647.5,0 647.5,-41"/>
<text text-anchor="start" x="549.5" y="-29" font-family="Helvetica,sans-Serif" font-size="10.00">include/experimental</text>
<text text-anchor="start" x="549.5" y="-18" font-family="Helvetica,sans-Serif" font-size="10.00">/linear_algebra/fixed</text>
<text text-anchor="middle" x="594.5" y="-7" font-family="Helvetica,sans-Serif" font-size="10.00">_size_tensor.hpp</text>
</a>
</g>
</g>
<!-- Node2&#45;&gt;Node7 -->
<g id="edge11" class="edge">
<title>Node2&#45;&gt;Node7</title>
<path fill="none" stroke="#63b8ff" d="M995.37,-87.12C913.72,-81.1 768.99,-67.38 647.87,-41.08"/>
<polygon fill="#63b8ff" stroke="#63b8ff" points="994.99,-90.67 1005.22,-87.9 995.5,-83.69 994.99,-90.67"/>
</g>
<!-- Node8 -->
<g id="node8" class="node">
<title>Node8</title>
<g id="a_node8"><a xlink:href="fixed__size__vector_8hpp.html" target="_top" xlink:title=" ">
<polygon fill="white" stroke="#666666" points="771.5,-41 665.5,-41 665.5,0 771.5,0 771.5,-41"/>
<text text-anchor="start" x="673.5" y="-29" font-family="Helvetica,sans-Serif" font-size="10.00">include/experimental</text>
<text text-anchor="start" x="673.5" y="-18" font-family="Helvetica,sans-Serif" font-size="10.00">/linear_algebra/fixed</text>
<text text-anchor="middle" x="718.5" y="-7" font-family="Helvetica,sans-Serif" font-size="10.00">_size_vector.hpp</text>
</a>
</g>
</g>
<!-- Node2&#45;&gt;Node8 -->
<g id="edge13" class="edge">
<title>Node2&#45;&gt;Node8</title>
<path fill="none" stroke="#63b8ff" d="M995.44,-82.93C936.69,-74.44 847.79,-59.72 771.97,-41.12"/>
<polygon fill="#63b8ff" stroke="#63b8ff" points="994.65,-86.5 1005.05,-84.44 995.64,-79.57 994.65,-86.5"/>
</g>
<!-- Node9 -->
<g id="node9" class="node">
<title>Node9</title>
<g id="a_node9"><a xlink:href="forward__declarations_8hpp.html" target="_top" xlink:title=" ">
<polygon fill="white" stroke="#666666" points="905,-41 790,-41 790,0 905,0 905,-41"/>
<text text-anchor="start" x="798" y="-29" font-family="Helvetica,sans-Serif" font-size="10.00">include/experimental</text>
<text text-anchor="start" x="798" y="-18" font-family="Helvetica,sans-Serif" font-size="10.00">/linear_algebra/forward</text>
<text text-anchor="middle" x="847.5" y="-7" font-family="Helvetica,sans-Serif" font-size="10.00">_declarations.hpp</text>
</a>
</g>
</g>
<!-- Node2&#45;&gt;Node9 -->
<g id="edge15" class="edge">
<title>Node2&#45;&gt;Node9</title>
<path fill="none" stroke="#63b8ff" d="M999.57,-73.31C968.87,-63.56 931.82,-51.44 901.94,-41.37"/>
<polygon fill="#63b8ff" stroke="#63b8ff" points="998.12,-76.84 1008.71,-76.52 1000.23,-70.16 998.12,-76.84"/>
</g>
<!-- Node10 -->
<g id="node10" class="node">
<title>Node10</title>
<g id="a_node10"><a xlink:href="instant__evaluated__operations_8hpp.html" target="_top" xlink:title=" ">
<polygon fill="white" stroke="#666666" points="1056,-41 923,-41 923,0 1056,0 1056,-41"/>
<text text-anchor="start" x="931" y="-29" font-family="Helvetica,sans-Serif" font-size="10.00">include/experimental</text>
<text text-anchor="start" x="931" y="-18" font-family="Helvetica,sans-Serif" font-size="10.00">/linear_algebra/instant</text>
<text text-anchor="middle" x="989.5" y="-7" font-family="Helvetica,sans-Serif" font-size="10.00">_evaluated_operations.hpp</text>
</a>
</g>
</g>
<!-- Node2&#45;&gt;Node10 -->
<g id="edge17" class="edge">
<title>Node2&#45;&gt;Node10</title>
<path fill="none" stroke="#63b8ff" d="M1031.52,-69.47C1021.86,-60.52 1011.5,-50.19 1003.39,-41.42"/>
<polygon fill="#63b8ff" stroke="#63b8ff" points="1028.64,-71.49 1038.4,-75.6 1033.33,-66.3 1028.64,-71.49"/>
</g>
<!-- Node11 -->
<g id="node11" class="node">
<title>Node11</title>
<g id="a_node11"><a xlink:href="matrix__concepts_8hpp.html" target="_top" xlink:title=" ">
<polygon fill="white" stroke="#666666" points="1184.5,-41 1074.5,-41 1074.5,0 1184.5,0 1184.5,-41"/>
<text text-anchor="start" x="1082.5" y="-29" font-family="Helvetica,sans-Serif" font-size="10.00">include/experimental</text>
<text text-anchor="start" x="1082.5" y="-18" font-family="Helvetica,sans-Serif" font-size="10.00">/linear_algebra/matrix</text>
<text text-anchor="middle" x="1129.5" y="-7" font-family="Helvetica,sans-Serif" font-size="10.00">_concepts.hpp</text>
</a>
</g>
</g>
<!-- Node2&#45;&gt;Node11 -->
<g id="edge19" class="edge">
<title>Node2&#45;&gt;Node11</title>
<path fill="none" stroke="#63b8ff" d="M1075.65,-68.66C1083.89,-59.9 1093.99,-49.93 1103.27,-41.42"/>
<polygon fill="#63b8ff" stroke="#63b8ff" points="1073.56,-65.85 1069.41,-75.6 1078.73,-70.57 1073.56,-65.85"/>
</g>
<!-- Node12 -->
<g id="node12" class="node">
<title>Node12</title>
<g id="a_node12"><a xlink:href="matrix__view_8hpp.html" target="_top" xlink:title=" ">
<polygon fill="white" stroke="#666666" points="1312.5,-41 1202.5,-41 1202.5,0 1312.5,0 1312.5,-41"/>
<text text-anchor="start" x="1210.5" y="-29" font-family="Helvetica,sans-Serif" font-size="10.00">include/experimental</text>
<text text-anchor="start" x="1210.5" y="-18" font-family="Helvetica,sans-Serif" font-size="10.00">/linear_algebra/matrix</text>
<text text-anchor="middle" x="1257.5" y="-7" font-family="Helvetica,sans-Serif" font-size="10.00">_view.hpp</text>
</a>
</g>
</g>
<!-- Node2&#45;&gt;Node12 -->
<g id="edge21" class="edge">
<title>Node2&#45;&gt;Node12</title>
<path fill="none" stroke="#63b8ff" d="M1105.17,-72.86C1134.09,-62.35 1171.59,-49.2 1202.19,-38.83"/>
<polygon fill="#63b8ff" stroke="#63b8ff" points="1104.12,-69.88 1095.93,-76.6 1106.53,-76.46 1104.12,-69.88"/>
</g>
<!-- Node13 -->
<g id="node13" class="node">
<title>Node13</title>
<g id="a_node13"><a xlink:href="private__support_8hpp.html" target="_top" xlink:title=" ">
<polygon fill="white" stroke="#666666" points="1442.5,-41 1330.5,-41 1330.5,0 1442.5,0 1442.5,-41"/>
<text text-anchor="start" x="1338.5" y="-29" font-family="Helvetica,sans-Serif" font-size="10.00">include/experimental</text>
<text text-anchor="start" x="1338.5" y="-18" font-family="Helvetica,sans-Serif" font-size="10.00">/linear_algebra/private</text>
<text text-anchor="middle" x="1386.5" y="-7" font-family="Helvetica,sans-Serif" font-size="10.00">_support.hpp</text>
</a>
</g>
</g>
<!-- Node2&#45;&gt;Node13 -->
<g id="edge23" class="edge">
<title>Node2&#45;&gt;Node13</title>
<path fill="none" stroke="#63b8ff" d="M1123.48,-79.41C1174.86,-70.33 1248.57,-56.65 1312.5,-41 1318.22,-39.6 1324.19,-38 1330.15,-36.34"/>
<polygon fill="#63b8ff" stroke="#63b8ff" points="1123.11,-76.1 1113.87,-81.28 1124.32,-82.99 1123.11,-76.1"/>
</g>
<!-- Node14 -->
<g id="node14" class="node">
<title>Node14</title>
<g id="a_node14"><a xlink:href="tensor__concepts_8hpp.html" target="_top" xlink:title=" ">
<polygon fill="white" stroke="#666666" points="1570.5,-41 1460.5,-41 1460.5,0 1570.5,0 1570.5,-41"/>
<text text-anchor="start" x="1468.5" y="-29" font-family="Helvetica,sans-Serif" font-size="10.00">include/experimental</text>
<text text-anchor="start" x="1468.5" y="-18" font-family="Helvetica,sans-Serif" font-size="10.00">/linear_algebra/tensor</text>
<text text-anchor="middle" x="1515.5" y="-7" font-family="Helvetica,sans-Serif" font-size="10.00">_concepts.hpp</text>
</a>
</g>
</g>
<!-- Node2&#45;&gt;Node14 -->
<g id="edge25" class="edge">
<title>Node2&#45;&gt;Node14</title>
<path fill="none" stroke="#63b8ff" d="M1123.82,-85.58C1200.38,-78.71 1331.57,-64.8 1442.5,-41 1448.29,-39.76 1454.32,-38.24 1460.32,-36.6"/>
<polygon fill="#63b8ff" stroke="#63b8ff" points="1123.59,-82.18 1113.93,-86.55 1124.2,-89.15 1123.59,-82.18"/>
</g>
<!-- Node15 -->
<g id="node15" class="node">
<title>Node15</title>
<g id="a_node15"><a xlink:href="tensor__view_8hpp.html" target="_top" xlink:title=" ">
<polygon fill="white" stroke="#666666" points="1698.5,-41 1588.5,-41 1588.5,0 1698.5,0 1698.5,-41"/>
<text text-anchor="start" x="1596.5" y="-29" font-family="Helvetica,sans-Serif" font-size="10.00">include/experimental</text>
<text text-anchor="start" x="1596.5" y="-18" font-family="Helvetica,sans-Serif" font-size="10.00">/linear_algebra/tensor</text>
<text text-anchor="middle" x="1643.5" y="-7" font-family="Helvetica,sans-Serif" font-size="10.00">_view.hpp</text>
</a>
</g>
</g>
<!-- Node2&#45;&gt;Node15 -->
<g id="edge27" class="edge">
<title>Node2&#45;&gt;Node15</title>
<path fill="none" stroke="#63b8ff" d="M1123.82,-88.7C1221.29,-84.39 1411.6,-72.52 1570.5,-41 1576.2,-39.87 1582.11,-38.44 1588,-36.86"/>
<polygon fill="#63b8ff" stroke="#63b8ff" points="1123.81,-85.24 1113.97,-89.16 1124.11,-92.23 1123.81,-85.24"/>
</g>
<!-- Node16 -->
<g id="node16" class="node">
<title>Node16</title>
<g id="a_node16"><a xlink:href="tensor__view__impl_8hpp.html" target="_top" xlink:title=" ">
<polygon fill="white" stroke="#666666" points="1826.5,-41 1716.5,-41 1716.5,0 1826.5,0 1826.5,-41"/>
<text text-anchor="start" x="1724.5" y="-29" font-family="Helvetica,sans-Serif" font-size="10.00">include/experimental</text>
<text text-anchor="start" x="1724.5" y="-18" font-family="Helvetica,sans-Serif" font-size="10.00">/linear_algebra/tensor</text>
<text text-anchor="middle" x="1771.5" y="-7" font-family="Helvetica,sans-Serif" font-size="10.00">_view_impl.hpp</text>
</a>
</g>
</g>
<!-- Node2&#45;&gt;Node16 -->
<g id="edge29" class="edge">
<title>Node2&#45;&gt;Node16</title>
<path fill="none" stroke="#63b8ff" d="M1123.38,-90.6C1239.1,-88.82 1490.38,-80.24 1698.5,-41 1704.21,-39.92 1710.13,-38.52 1716.02,-36.97"/>
<polygon fill="#63b8ff" stroke="#63b8ff" points="1123.56,-87.11 1113.61,-90.75 1123.65,-94.11 1123.56,-87.11"/>
</g>
<!-- Node17 -->
<g id="node17" class="node">
<title>Node17</title>
<g id="a_node17"><a xlink:href="vector__concepts_8hpp.html" target="_top" xlink:title=" ">
<polygon fill="white" stroke="#666666" points="1954.5,-41 1844.5,-41 1844.5,0 1954.5,0 1954.5,-41"/>
<text text-anchor="start" x="1852.5" y="-29" font-family="Helvetica,sans-Serif" font-size="10.00">include/experimental</text>
<text text-anchor="start" x="1852.5" y="-18" font-family="Helvetica,sans-Serif" font-size="10.00">/linear_algebra/vector</text>
<text text-anchor="middle" x="1899.5" y="-7" font-family="Helvetica,sans-Serif" font-size="10.00">_concepts.hpp</text>
</a>
</g>
</g>
<!-- Node2&#45;&gt;Node17 -->
<g id="edge31" class="edge">
<title>Node2&#45;&gt;Node17</title>
<path fill="none" stroke="#63b8ff" d="M1123.49,-91.87C1255.91,-92.43 1568.77,-87.91 1826.5,-41 1832.21,-39.96 1838.14,-38.58 1844.04,-37.04"/>
<polygon fill="#63b8ff" stroke="#63b8ff" points="1123.77,-88.37 1113.75,-91.82 1123.73,-95.37 1123.77,-88.37"/>
</g>
<!-- Node18 -->
<g id="node18" class="node">
<title>Node18</title>
<g id="a_node18"><a xlink:href="vector__view_8hpp.html" target="_top" xlink:title=" ">
<polygon fill="white" stroke="#666666" points="2082.5,-41 1972.5,-41 1972.5,0 2082.5,0 2082.5,-41"/>
<text text-anchor="start" x="1980.5" y="-29" font-family="Helvetica,sans-Serif" font-size="10.00">include/experimental</text>
<text text-anchor="start" x="1980.5" y="-18" font-family="Helvetica,sans-Serif" font-size="10.00">/linear_algebra/vector</text>
<text text-anchor="middle" x="2027.5" y="-7" font-family="Helvetica,sans-Serif" font-size="10.00">_view.hpp</text>
</a>
</g>
</g>
<!-- Node2&#45;&gt;Node18 -->
<g id="edge33" class="edge">
<title>Node2&#45;&gt;Node18</title>
<path fill="none" stroke="#63b8ff" d="M1123.86,-89.34C1301.26,-84.59 1794.17,-69.43 1954.5,-41 1960.22,-39.99 1966.14,-38.62 1972.05,-37.09"/>
<polygon fill="#63b8ff" stroke="#63b8ff" points="1123.8,-85.87 1113.89,-89.63 1123.98,-92.86 1123.8,-85.87"/>
</g>
<!-- Node3&#45;&gt;Node2 -->
<g id="edge3" class="edge">
<title>Node3&#45;&gt;Node2</title>
<path fill="none" stroke="#63b8ff" d="M136.18,-39.88C138.31,-40.29 140.42,-40.66 142.5,-41 311.15,-68.39 836.69,-84.73 1006.26,-89.52"/>
<polygon fill="#63b8ff" stroke="#63b8ff" points="136.97,-36.26 126.46,-37.61 135.52,-43.11 136.97,-36.26"/>
</g>
<!-- Node4&#45;&gt;Node2 -->
<g id="edge5" class="edge">
<title>Node4&#45;&gt;Node2</title>
<path fill="none" stroke="#63b8ff" d="M272.9,-39.75C275.12,-40.2 277.33,-40.62 279.5,-41 549.99,-87.79 879.41,-91.99 1006.29,-91.59"/>
<polygon fill="#63b8ff" stroke="#63b8ff" points="273.94,-36.17 263.41,-37.39 272.4,-43 273.94,-36.17"/>
</g>
<!-- Node5&#45;&gt;Node2 -->
<g id="edge8" class="edge">
<title>Node5&#45;&gt;Node2</title>
<path fill="none" stroke="#63b8ff" d="M409.95,-39.53C412.5,-40.06 415.02,-40.56 417.5,-41 633.73,-79.46 895.55,-88.35 1006.2,-90.39"/>
<polygon fill="#63b8ff" stroke="#63b8ff" points="410.95,-35.94 400.42,-37.13 409.39,-42.76 410.95,-35.94"/>
</g>
<!-- Node6&#45;&gt;Node2 -->
<g id="edge10" class="edge">
<title>Node6&#45;&gt;Node2</title>
<path fill="none" stroke="#63b8ff" d="M534.4,-39.43C536.79,-40 539.16,-40.53 541.5,-41 709.27,-74.95 911.87,-85.97 1006.35,-89.45"/>
<polygon fill="#63b8ff" stroke="#63b8ff" points="535.39,-35.81 524.83,-36.7 533.64,-42.59 535.39,-35.81"/>
</g>
<!-- Node7&#45;&gt;Node2 -->
<g id="edge12" class="edge">
<title>Node7&#45;&gt;Node2</title>
<path fill="none" stroke="#63b8ff" d="M658.42,-39.34C660.8,-39.94 663.17,-40.49 665.5,-41 785.89,-67.17 929.7,-80.91 1006,-87"/>
<polygon fill="#63b8ff" stroke="#63b8ff" points="659.43,-35.73 648.87,-36.54 657.63,-42.49 659.43,-35.73"/>
</g>
<!-- Node8&#45;&gt;Node2 -->
<g id="edge14" class="edge">
<title>Node8&#45;&gt;Node2</title>
<path fill="none" stroke="#63b8ff" d="M782.45,-39.19C784.83,-39.82 787.19,-40.43 789.5,-41 864.05,-59.32 951.34,-73.88 1006.13,-82.46"/>
<polygon fill="#63b8ff" stroke="#63b8ff" points="783.51,-35.57 772.93,-36.25 781.62,-42.31 783.51,-35.57"/>
</g>
<!-- Node9&#45;&gt;Node2 -->
<g id="edge16" class="edge">
<title>Node9&#45;&gt;Node2</title>
<path fill="none" stroke="#63b8ff" d="M915.27,-41.69C950.28,-52.87 991.68,-66.5 1021.17,-76.6"/>
<polygon fill="#63b8ff" stroke="#63b8ff" points="916.7,-38.15 906.11,-38.46 914.58,-44.82 916.7,-38.15"/>
</g>
<!-- Node10&#45;&gt;Node2 -->
<g id="edge18" class="edge">
<title>Node10&#45;&gt;Node2</title>
<path fill="none" stroke="#63b8ff" d="M1023.61,-48.8C1033.53,-58.3 1043.54,-68.57 1050.59,-76.6"/>
<polygon fill="#63b8ff" stroke="#63b8ff" points="1026.42,-46.7 1016.73,-42.42 1021.63,-51.81 1026.42,-46.7"/>
</g>
<!-- Node11&#45;&gt;Node2 -->
<g id="edge20" class="edge">
<title>Node11&#45;&gt;Node2</title>
<path fill="none" stroke="#63b8ff" d="M1108.06,-49.37C1098.99,-58.7 1088.54,-68.73 1079.6,-76.6"/>
<polygon fill="#63b8ff" stroke="#63b8ff" points="1110.26,-52.08 1114.61,-42.42 1105.19,-47.26 1110.26,-52.08"/>
</g>
<!-- Node12&#45;&gt;Node2 -->
<g id="edge22" class="edge">
<title>Node12&#45;&gt;Node2</title>
<path fill="none" stroke="#63b8ff" d="M1196.99,-44.99C1167.86,-55.44 1133.5,-67.41 1106.37,-76.52"/>
<polygon fill="#63b8ff" stroke="#63b8ff" points="1197.84,-48.05 1206.06,-41.37 1195.47,-41.46 1197.84,-48.05"/>
</g>
<!-- Node13&#45;&gt;Node2 -->
<g id="edge24" class="edge">
<title>Node13&#45;&gt;Node2</title>
<path fill="none" stroke="#63b8ff" d="M1319.51,-43.65C1247.46,-60.75 1165.42,-75.25 1112.99,-83.54"/>
<polygon fill="#63b8ff" stroke="#63b8ff" points="1320.16,-46.85 1329.06,-41.11 1318.52,-40.05 1320.16,-46.85"/>
</g>
<!-- Node14&#45;&gt;Node2 -->
<g id="edge26" class="edge">
<title>Node14&#45;&gt;Node2</title>
<path fill="none" stroke="#63b8ff" d="M1449.66,-43.28C1329.16,-68.16 1187.91,-81.74 1112.71,-87.55"/>
<polygon fill="#63b8ff" stroke="#63b8ff" points="1450.07,-46.56 1459.14,-41.08 1448.63,-39.71 1450.07,-46.56"/>
</g>
<!-- Node15&#45;&gt;Node2 -->
<g id="edge28" class="edge">
<title>Node15&#45;&gt;Node2</title>
<path fill="none" stroke="#63b8ff" d="M1577.66,-43.11C1408.34,-75.48 1206.96,-86.22 1112.8,-89.58"/>
<polygon fill="#63b8ff" stroke="#63b8ff" points="1578.1,-46.4 1587.25,-41.05 1576.76,-39.52 1578.1,-46.4"/>
</g>
<!-- Node16&#45;&gt;Node2 -->
<g id="edge30" class="edge">
<title>Node16&#45;&gt;Node2</title>
<path fill="none" stroke="#63b8ff" d="M1705.45,-43.05C1486.38,-82.95 1223.46,-89.8 1112.68,-90.86"/>
<polygon fill="#63b8ff" stroke="#63b8ff" points="1705.98,-46.32 1715.18,-41.06 1704.71,-39.44 1705.98,-46.32"/>
</g>
<!-- Node17&#45;&gt;Node2 -->
<g id="edge32" class="edge">
<title>Node17&#45;&gt;Node2</title>
<path fill="none" stroke="#63b8ff" d="M1833.34,-43C1564.17,-90.44 1239.1,-92.78 1112.98,-91.75"/>
<polygon fill="#63b8ff" stroke="#63b8ff" points="1833.88,-46.28 1843.1,-41.07 1832.64,-39.39 1833.88,-46.28"/>
</g>
<!-- Node18&#45;&gt;Node2 -->
<g id="edge34" class="edge">
<title>Node18&#45;&gt;Node2</title>
<path fill="none" stroke="#63b8ff" d="M1961.31,-42.88C1783.89,-71.13 1278.56,-85.79 1112.8,-89.83"/>
<polygon fill="#63b8ff" stroke="#63b8ff" points="1961.73,-46.19 1971.01,-41.09 1960.57,-39.29 1961.73,-46.19"/>
</g>
</g>
</svg>
