<?xml version="1.0" encoding="UTF-8" standalone="no"?>
<!DOCTYPE svg PUBLIC "-//W3C//DTD SVG 1.1//EN"
 "http://www.w3.org/Graphics/SVG/1.1/DTD/svg11.dtd">
<!-- Generated by graphviz version 2.43.0 (0)
 -->
<!-- Title: include/experimental/linear_algebra/dynamic_tensor.hpp Pages: 1 -->
<svg width="2032pt" height="195pt"
 viewBox="0.00 0.00 2032.00 195.00" xmlns="http://www.w3.org/2000/svg" xmlns:xlink="http://www.w3.org/1999/xlink">
<g id="graph0" class="graph" transform="scale(1 1) rotate(0) translate(4 191)">
<title>include/experimental/linear_algebra/dynamic_tensor.hpp</title>
<polygon fill="white" stroke="transparent" points="-4,4 -4,-191 2028,-191 2028,4 -4,4"/>
<!-- Node1 -->
<g id="node1" class="node">
<title>Node1</title>
<g id="a_node1"><a xlink:title=" ">
<polygon fill="#bfbfbf" stroke="black" points="964.5,-145.5 964.5,-186.5 1098.5,-186.5 1098.5,-145.5 964.5,-145.5"/>
<text text-anchor="start" x="972.5" y="-174.5" font-family="Helvetica,sans-Serif" font-size="10.00">include/experimental</text>
<text text-anchor="start" x="972.5" y="-163.5" font-family="Helvetica,sans-Serif" font-size="10.00">/linear_algebra/dynamic</text>
<text text-anchor="middle" x="1031.5" y="-152.5" font-family="Helvetica,sans-Serif" font-size="10.00">_tensor.hpp</text>
</a>
</g>
</g>
<!-- Node2 -->
<g id="node2" class="node">
<title>Node2</title>
<g id="a_node2"><a xlink:href="linear__algebra_8hpp.html" target="_top" xlink:title=" ">
<polygon fill="white" stroke="black" points="971.5,-78.5 971.5,-108.5 1091.5,-108.5 1091.5,-78.5 971.5,-78.5"/>
<text text-anchor="start" x="979.5" y="-96.5" font-family="Helvetica,sans-Serif" font-size="10.00">include/experimental</text>
<text text-anchor="middle" x="1031.5" y="-85.5" font-family="Helvetica,sans-Serif" font-size="10.00">/linear_algebra.hpp</text>
</a>
</g>
</g>
<!-- Node1&#45;&gt;Node2 -->
<g id="edge1" class="edge">
<title>Node1&#45;&gt;Node2</title>
<path fill="none" stroke="midnightblue" d="M1024.83,-135.38C1024.57,-126.21 1024.94,-116.53 1025.94,-108.89"/>
<polygon fill="midnightblue" stroke="midnightblue" points="1021.33,-135.57 1025.38,-145.36 1028.32,-135.18 1021.33,-135.57"/>
</g>
<!-- Node2&#45;&gt;Node1 -->
<g id="edge6" class="edge">
<title>Node2&#45;&gt;Node1</title>
<path fill="none" stroke="midnightblue" d="M1037.97,-119.11C1038.44,-127.7 1038.32,-137.23 1037.62,-145.36"/>
<polygon fill="midnightblue" stroke="midnightblue" points="1041.43,-118.54 1037.06,-108.89 1034.46,-119.16 1041.43,-118.54"/>
</g>
<!-- Node3 -->
<g id="node3" class="node">
<title>Node3</title>
<g id="a_node3"><a xlink:href="arithmetic__operators_8hpp.html" target="_top" xlink:title=" ">
<polygon fill="white" stroke="black" points="0,-0.5 0,-41.5 143,-41.5 143,-0.5 0,-0.5"/>
<text text-anchor="start" x="8" y="-29.5" font-family="Helvetica,sans-Serif" font-size="10.00">include/experimental</text>
<text text-anchor="start" x="8" y="-18.5" font-family="Helvetica,sans-Serif" font-size="10.00">/linear_algebra/arithmetic</text>
<text text-anchor="middle" x="71.5" y="-7.5" font-family="Helvetica,sans-Serif" font-size="10.00">_operators.hpp</text>
</a>
</g>
</g>
<!-- Node2&#45;&gt;Node3 -->
<g id="edge2" class="edge">
<title>Node2&#45;&gt;Node3</title>
<path fill="none" stroke="midnightblue" d="M961.37,-92.85C810.57,-92.75 445.1,-87.5 143.5,-42 142.5,-41.85 141.49,-41.69 140.48,-41.53"/>
<polygon fill="midnightblue" stroke="midnightblue" points="961.42,-96.35 971.42,-92.85 961.42,-89.35 961.42,-96.35"/>
</g>
<!-- Node4 -->
<g id="node4" class="node">
<title>Node4</title>
<g id="a_node4"><a xlink:href="dynamic__matrix_8hpp.html" target="_top" xlink:title=" ">
<polygon fill="white" stroke="black" points="161.5,-0.5 161.5,-41.5 295.5,-41.5 295.5,-0.5 161.5,-0.5"/>
<text text-anchor="start" x="169.5" y="-29.5" font-family="Helvetica,sans-Serif" font-size="10.00">include/experimental</text>
<text text-anchor="start" x="169.5" y="-18.5" font-family="Helvetica,sans-Serif" font-size="10.00">/linear_algebra/dynamic</text>
<text text-anchor="middle" x="228.5" y="-7.5" font-family="Helvetica,sans-Serif" font-size="10.00">_matrix.hpp</text>
</a>
</g>
</g>
<!-- Node2&#45;&gt;Node4 -->
<g id="edge4" class="edge">
<title>Node2&#45;&gt;Node4</title>
<path fill="none" stroke="midnightblue" d="M960.76,-92.06C828.83,-90.29 537.07,-81.81 295.5,-42 294.56,-41.84 293.61,-41.68 292.66,-41.52"/>
<polygon fill="midnightblue" stroke="midnightblue" points="961.08,-95.56 971.12,-92.19 961.17,-88.56 961.08,-95.56"/>
</g>
<!-- Node5 -->
<g id="node5" class="node">
<title>Node5</title>
<g id="a_node5"><a xlink:href="dynamic__vector_8hpp.html" target="_top" xlink:title=" ">
<polygon fill="white" stroke="black" points="313.5,-0.5 313.5,-41.5 447.5,-41.5 447.5,-0.5 313.5,-0.5"/>
<text text-anchor="start" x="321.5" y="-29.5" font-family="Helvetica,sans-Serif" font-size="10.00">include/experimental</text>
<text text-anchor="start" x="321.5" y="-18.5" font-family="Helvetica,sans-Serif" font-size="10.00">/linear_algebra/dynamic</text>
<text text-anchor="middle" x="380.5" y="-7.5" font-family="Helvetica,sans-Serif" font-size="10.00">_vector.hpp</text>
</a>
</g>
</g>
<!-- Node2&#45;&gt;Node5 -->
<g id="edge7" class="edge">
<title>Node2&#45;&gt;Node5</title>
<path fill="none" stroke="midnightblue" d="M961.15,-90.39C850.75,-86.11 630.83,-73.94 447.5,-42 446.69,-41.86 445.88,-41.71 445.07,-41.57"/>
<polygon fill="midnightblue" stroke="midnightblue" points="961.04,-93.89 971.16,-90.77 961.3,-86.89 961.04,-93.89"/>
</g>
<!-- Node6 -->
<g id="node6" class="node">
<title>Node6</title>
<g id="a_node6"><a xlink:href="fixed__size__matrix_8hpp.html" target="_top" xlink:title=" ">
<polygon fill="white" stroke="black" points="465.5,-0.5 465.5,-41.5 585.5,-41.5 585.5,-0.5 465.5,-0.5"/>
<text text-anchor="start" x="473.5" y="-29.5" font-family="Helvetica,sans-Serif" font-size="10.00">include/experimental</text>
<text text-anchor="start" x="473.5" y="-18.5" font-family="Helvetica,sans-Serif" font-size="10.00">/linear_algebra/fixed</text>
<text text-anchor="middle" x="525.5" y="-7.5" font-family="Helvetica,sans-Serif" font-size="10.00">_size_matrix.hpp</text>
</a>
</g>
</g>
<!-- Node2&#45;&gt;Node6 -->
<g id="edge9" class="edge">
<title>Node2&#45;&gt;Node6</title>
<path fill="none" stroke="midnightblue" d="M961.27,-88.46C872.75,-82.3 716.58,-68.38 585.5,-42 584.77,-41.85 584.03,-41.7 583.29,-41.55"/>
<polygon fill="midnightblue" stroke="midnightblue" points="961.24,-91.97 971.46,-89.15 961.72,-84.98 961.24,-91.97"/>
</g>
<!-- Node7 -->
<g id="node7" class="node">
<title>Node7</title>
<g id="a_node7"><a xlink:href="fixed__size__tensor_8hpp.html" target="_top" xlink:title=" ">
<polygon fill="white" stroke="black" points="603.5,-0.5 603.5,-41.5 723.5,-41.5 723.5,-0.5 603.5,-0.5"/>
<text text-anchor="start" x="611.5" y="-29.5" font-family="Helvetica,sans-Serif" font-size="10.00">include/experimental</text>
<text text-anchor="start" x="611.5" y="-18.5" font-family="Helvetica,sans-Serif" font-size="10.00">/linear_algebra/fixed</text>
<text text-anchor="middle" x="663.5" y="-7.5" font-family="Helvetica,sans-Serif" font-size="10.00">_size_tensor.hpp</text>
</a>
</g>
</g>
<!-- Node2&#45;&gt;Node7 -->
<g id="edge11" class="edge">
<title>Node2&#45;&gt;Node7</title>
<path fill="none" stroke="midnightblue" d="M961.17,-83.95C898.29,-75.24 804.08,-60.42 723.5,-42 722.89,-41.86 722.28,-41.72 721.67,-41.58"/>
<polygon fill="midnightblue" stroke="midnightblue" points="961,-87.46 971.38,-85.35 961.95,-80.52 961,-87.46"/>
</g>
<!-- Node8 -->
<g id="node8" class="node">
<title>Node8</title>
<g id="a_node8"><a xlink:href="fixed__size__vector_8hpp.html" target="_top" xlink:title=" ">
<polygon fill="white" stroke="black" points="741.5,-0.5 741.5,-41.5 861.5,-41.5 861.5,-0.5 741.5,-0.5"/>
<text text-anchor="start" x="749.5" y="-29.5" font-family="Helvetica,sans-Serif" font-size="10.00">include/experimental</text>
<text text-anchor="start" x="749.5" y="-18.5" font-family="Helvetica,sans-Serif" font-size="10.00">/linear_algebra/fixed</text>
<text text-anchor="middle" x="801.5" y="-7.5" font-family="Helvetica,sans-Serif" font-size="10.00">_size_vector.hpp</text>
</a>
</g>
</g>
<!-- Node2&#45;&gt;Node8 -->
<g id="edge13" class="edge">
<title>Node2&#45;&gt;Node8</title>
<path fill="none" stroke="midnightblue" d="M970.33,-75.55C935.89,-65.32 893.17,-52.26 859.3,-41.59"/>
<polygon fill="midnightblue" stroke="midnightblue" points="969.69,-79.01 980.27,-78.49 971.67,-72.3 969.69,-79.01"/>
</g>
<!-- Node9 -->
<g id="node9" class="node">
<title>Node9</title>
<g id="a_node9"><a xlink:href="instant__evaluated__operations_8hpp.html" target="_top" xlink:title=" ">
<polygon fill="white" stroke="black" points="880,-0.5 880,-41.5 1029,-41.5 1029,-0.5 880,-0.5"/>
<text text-anchor="start" x="888" y="-29.5" font-family="Helvetica,sans-Serif" font-size="10.00">include/experimental</text>
<text text-anchor="start" x="888" y="-18.5" font-family="Helvetica,sans-Serif" font-size="10.00">/linear_algebra/instant</text>
<text text-anchor="middle" x="954.5" y="-7.5" font-family="Helvetica,sans-Serif" font-size="10.00">_evaluated_operations.hpp</text>
</a>
</g>
</g>
<!-- Node2&#45;&gt;Node9 -->
<g id="edge15" class="edge">
<title>Node2&#45;&gt;Node9</title>
<path fill="none" stroke="midnightblue" d="M1002.51,-71.66C991.39,-62.15 979.19,-50.94 969.78,-41.59"/>
<polygon fill="midnightblue" stroke="midnightblue" points="1000.45,-74.5 1010.37,-78.23 1004.95,-69.13 1000.45,-74.5"/>
</g>
<!-- Node10 -->
<g id="node10" class="node">
<title>Node10</title>
<g id="a_node10"><a xlink:href="matrix__concepts_8hpp.html" target="_top" xlink:title=" ">
<polygon fill="white" stroke="black" points="1047,-0.5 1047,-41.5 1172,-41.5 1172,-0.5 1047,-0.5"/>
<text text-anchor="start" x="1055" y="-29.5" font-family="Helvetica,sans-Serif" font-size="10.00">include/experimental</text>
<text text-anchor="start" x="1055" y="-18.5" font-family="Helvetica,sans-Serif" font-size="10.00">/linear_algebra/matrix</text>
<text text-anchor="middle" x="1109.5" y="-7.5" font-family="Helvetica,sans-Serif" font-size="10.00">_concepts.hpp</text>
</a>
</g>
</g>
<!-- Node2&#45;&gt;Node10 -->
<g id="edge17" class="edge">
<title>Node2&#45;&gt;Node10</title>
<path fill="none" stroke="midnightblue" d="M1048.91,-71.1C1058.61,-61.71 1070.77,-50.76 1081.71,-41.59"/>
<polygon fill="midnightblue" stroke="midnightblue" points="1046.36,-68.7 1041.74,-78.23 1051.3,-73.67 1046.36,-68.7"/>
</g>
<!-- Node11 -->
<g id="node11" class="node">
<title>Node11</title>
<g id="a_node11"><a xlink:href="matrix__view_8hpp.html" target="_top" xlink:title=" ">
<polygon fill="white" stroke="black" points="1190,-0.5 1190,-41.5 1315,-41.5 1315,-0.5 1190,-0.5"/>
<text text-anchor="start" x="1198" y="-29.5" font-family="Helvetica,sans-Serif" font-size="10.00">include/experimental</text>
<text text-anchor="start" x="1198" y="-18.5" font-family="Helvetica,sans-Serif" font-size="10.00">/linear_algebra/matrix</text>
<text text-anchor="middle" x="1252.5" y="-7.5" font-family="Helvetica,sans-Serif" font-size="10.00">_view.hpp</text>
</a>
</g>
</g>
<!-- Node2&#45;&gt;Node11 -->
<g id="edge19" class="edge">
<title>Node2&#45;&gt;Node11</title>
<path fill="none" stroke="midnightblue" d="M1079.58,-75.28C1111.87,-64.63 1154.68,-50.96 1189.66,-40.14"/>
<polygon fill="midnightblue" stroke="midnightblue" points="1078.3,-72.02 1069.91,-78.49 1080.51,-78.66 1078.3,-72.02"/>
</g>
<!-- Node12 -->
<g id="node12" class="node">
<title>Node12</title>
<g id="a_node12"><a xlink:href="private__support_8hpp.html" target="_top" xlink:title=" ">
<polygon fill="white" stroke="black" points="1333,-0.5 1333,-41.5 1460,-41.5 1460,-0.5 1333,-0.5"/>
<text text-anchor="start" x="1341" y="-29.5" font-family="Helvetica,sans-Serif" font-size="10.00">include/experimental</text>
<text text-anchor="start" x="1341" y="-18.5" font-family="Helvetica,sans-Serif" font-size="10.00">/linear_algebra/private</text>
<text text-anchor="middle" x="1396.5" y="-7.5" font-family="Helvetica,sans-Serif" font-size="10.00">_support.hpp</text>
</a>
</g>
</g>
<!-- Node2&#45;&gt;Node12 -->
<g id="edge21" class="edge">
<title>Node2&#45;&gt;Node12</title>
<path fill="none" stroke="midnightblue" d="M1101.8,-81.28C1159.49,-72.2 1243.04,-58.26 1315.5,-42 1321.07,-40.75 1326.85,-39.34 1332.65,-37.86"/>
<polygon fill="midnightblue" stroke="midnightblue" points="1101.03,-77.86 1091.69,-82.87 1102.11,-84.77 1101.03,-77.86"/>
</g>
<!-- Node13 -->
<g id="node13" class="node">
<title>Node13</title>
<g id="a_node13"><a xlink:href="tensor__concepts_8hpp.html" target="_top" xlink:title=" ">
<polygon fill="white" stroke="black" points="1478,-0.5 1478,-41.5 1601,-41.5 1601,-0.5 1478,-0.5"/>
<text text-anchor="start" x="1486" y="-29.5" font-family="Helvetica,sans-Serif" font-size="10.00">include/experimental</text>
<text text-anchor="start" x="1486" y="-18.5" font-family="Helvetica,sans-Serif" font-size="10.00">/linear_algebra/tensor</text>
<text text-anchor="middle" x="1539.5" y="-7.5" font-family="Helvetica,sans-Serif" font-size="10.00">_concepts.hpp</text>
</a>
</g>
</g>
<!-- Node2&#45;&gt;Node13 -->
<g id="edge23" class="edge">
<title>Node2&#45;&gt;Node13</title>
<path fill="none" stroke="midnightblue" d="M1101.6,-87.48C1187,-80.84 1335.16,-66.96 1460.5,-42 1466.08,-40.89 1471.86,-39.55 1477.65,-38.1"/>
<polygon fill="midnightblue" stroke="midnightblue" points="1101.21,-84 1091.51,-88.25 1101.75,-90.98 1101.21,-84"/>
</g>
<!-- Node14 -->
<g id="node14" class="node">
<title>Node14</title>
<g id="a_node14"><a xlink:href="tensor__view_8hpp.html" target="_top" xlink:title=" ">
<polygon fill="white" stroke="black" points="1619,-0.5 1619,-41.5 1742,-41.5 1742,-0.5 1619,-0.5"/>
<text text-anchor="start" x="1627" y="-29.5" font-family="Helvetica,sans-Serif" font-size="10.00">include/experimental</text>
<text text-anchor="start" x="1627" y="-18.5" font-family="Helvetica,sans-Serif" font-size="10.00">/linear_algebra/tensor</text>
<text text-anchor="middle" x="1680.5" y="-7.5" font-family="Helvetica,sans-Serif" font-size="10.00">_view.hpp</text>
</a>
</g>
</g>
<!-- Node2&#45;&gt;Node14 -->
<g id="edge25" class="edge">
<title>Node2&#45;&gt;Node14</title>
<path fill="none" stroke="midnightblue" d="M1101.73,-90.49C1209.91,-86.52 1423.19,-74.94 1601.5,-42 1607.09,-40.97 1612.88,-39.68 1618.68,-38.26"/>
<polygon fill="midnightblue" stroke="midnightblue" points="1101.46,-87 1091.6,-90.85 1101.71,-94 1101.46,-87"/>
</g>
<!-- Node15 -->
<g id="node15" class="node">
<title>Node15</title>
<g id="a_node15"><a xlink:href="vector__concepts_8hpp.html" target="_top" xlink:title=" ">
<polygon fill="white" stroke="black" points="1760,-0.5 1760,-41.5 1883,-41.5 1883,-0.5 1760,-0.5"/>
<text text-anchor="start" x="1768" y="-29.5" font-family="Helvetica,sans-Serif" font-size="10.00">include/experimental</text>
<text text-anchor="start" x="1768" y="-18.5" font-family="Helvetica,sans-Serif" font-size="10.00">/linear_algebra/vector</text>
<text text-anchor="middle" x="1821.5" y="-7.5" font-family="Helvetica,sans-Serif" font-size="10.00">_concepts.hpp</text>
</a>
</g>
</g>
<!-- Node2&#45;&gt;Node15 -->
<g id="edge27" class="edge">
<title>Node2&#45;&gt;Node15</title>
<path fill="none" stroke="midnightblue" d="M1102.05,-92.35C1230.48,-90.93 1510.3,-82.86 1742.5,-42 1748.1,-41.01 1753.9,-39.76 1759.69,-38.35"/>
<polygon fill="midnightblue" stroke="midnightblue" points="1101.92,-88.85 1091.95,-92.45 1101.99,-95.85 1101.92,-88.85"/>
</g>
<!-- Node16 -->
<g id="node16" class="node">
<title>Node16</title>
<g id="a_node16"><a xlink:href="vector__view_8hpp.html" target="_top" xlink:title=" ">
<polygon fill="white" stroke="black" points="1901,-0.5 1901,-41.5 2024,-41.5 2024,-0.5 1901,-0.5"/>
<text text-anchor="start" x="1909" y="-29.5" font-family="Helvetica,sans-Serif" font-size="10.00">include/experimental</text>
<text text-anchor="start" x="1909" y="-18.5" font-family="Helvetica,sans-Serif" font-size="10.00">/linear_algebra/vector</text>
<text text-anchor="middle" x="1962.5" y="-7.5" font-family="Helvetica,sans-Serif" font-size="10.00">_view.hpp</text>
</a>
</g>
</g>
<!-- Node2&#45;&gt;Node16 -->
<g id="edge29" class="edge">
<title>Node2&#45;&gt;Node16</title>
<path fill="none" stroke="midnightblue" d="M1101.99,-90.22C1278.06,-84.38 1733.34,-67.54 1883.5,-42 1889.11,-41.05 1894.91,-39.81 1900.7,-38.42"/>
<polygon fill="midnightblue" stroke="midnightblue" points="1101.68,-86.73 1091.8,-90.55 1101.91,-93.72 1101.68,-86.73"/>
</g>
<!-- Node3&#45;&gt;Node2 -->
<g id="edge3" class="edge">
<title>Node3&#45;&gt;Node2</title>
<path fill="none" stroke="midnightblue" d="M152.92,-40.58C155.82,-41.1 158.68,-41.57 161.5,-42 463.41,-87.55 829.34,-92.76 971.29,-92.85"/>
<polygon fill="midnightblue" stroke="midnightblue" points="153.51,-37.12 143.02,-38.66 152.18,-44 153.51,-37.12"/>
</g>
<!-- Node4&#45;&gt;Node2 -->
<g id="edge5" class="edge">
<title>Node4&#45;&gt;Node2</title>
<path fill="none" stroke="midnightblue" d="M305.53,-40.56C308.21,-41.09 310.88,-41.57 313.5,-42 555.37,-81.86 847.55,-90.31 971.45,-92.07"/>
<polygon fill="midnightblue" stroke="midnightblue" points="306.23,-37.13 295.72,-38.52 304.8,-43.99 306.23,-37.13"/>
</g>
<!-- Node5&#45;&gt;Node2 -->
<g id="edge8" class="edge">
<title>Node5&#45;&gt;Node2</title>
<path fill="none" stroke="midnightblue" d="M457.54,-40.5C460.22,-41.04 462.88,-41.54 465.5,-42 648.14,-73.81 867.09,-86.02 971.1,-90.34"/>
<polygon fill="midnightblue" stroke="midnightblue" points="458.25,-37.08 447.74,-38.41 456.79,-43.92 458.25,-37.08"/>
</g>
<!-- Node6&#45;&gt;Node2 -->
<g id="edge10" class="edge">
<title>Node6&#45;&gt;Node2</title>
<path fill="none" stroke="midnightblue" d="M595.58,-40.29C598.25,-40.9 600.9,-41.48 603.5,-42 733.4,-68.14 887.95,-82.04 971.27,-88.29"/>
<polygon fill="midnightblue" stroke="midnightblue" points="596.37,-36.88 585.83,-37.91 594.72,-43.68 596.37,-36.88"/>
</g>
<!-- Node7&#45;&gt;Node2 -->
<g id="edge12" class="edge">
<title>Node7&#45;&gt;Node2</title>
<path fill="none" stroke="midnightblue" d="M733.44,-40.07C736.16,-40.75 738.86,-41.4 741.5,-42 820.41,-60.04 912.38,-74.62 971.32,-83.4"/>
<polygon fill="midnightblue" stroke="midnightblue" points="734.07,-36.62 723.51,-37.51 732.32,-43.4 734.07,-36.62"/>
</g>
<!-- Node8&#45;&gt;Node2 -->
<g id="edge14" class="edge">
<title>Node8&#45;&gt;Node2</title>
<path fill="none" stroke="midnightblue" d="M871.66,-41.63C910.87,-53.34 958.29,-67.94 991.3,-78.49"/>
<polygon fill="midnightblue" stroke="midnightblue" points="872.46,-38.21 861.88,-38.72 870.46,-44.92 872.46,-38.21"/>
</g>
<!-- Node9&#45;&gt;Node2 -->
<g id="edge16" class="edge">
<title>Node9&#45;&gt;Node2</title>
<path fill="none" stroke="midnightblue" d="M989.87,-48.38C1001.38,-58.5 1013.23,-69.67 1021.47,-78.23"/>
<polygon fill="midnightblue" stroke="midnightblue" points="991.87,-45.48 982.01,-41.59 987.29,-50.78 991.87,-45.48"/>
</g>
<!-- Node10&#45;&gt;Node2 -->
<g id="edge18" class="edge">
<title>Node10&#45;&gt;Node2</title>
<path fill="none" stroke="midnightblue" d="M1086.56,-48.68C1075.88,-58.72 1063.33,-69.75 1052.83,-78.23"/>
<polygon fill="midnightblue" stroke="midnightblue" points="1089.15,-51.04 1093.95,-41.59 1084.31,-45.98 1089.15,-51.04"/>
</g>
<!-- Node11&#45;&gt;Node2 -->
<g id="edge20" class="edge">
<title>Node11&#45;&gt;Node2</title>
<path fill="none" stroke="midnightblue" d="M1187.34,-44.82C1153.3,-55.9 1112.36,-68.87 1080.94,-78.49"/>
<polygon fill="midnightblue" stroke="midnightblue" points="1188.79,-48.03 1197.2,-41.59 1186.61,-41.37 1188.79,-48.03"/>
</g>
<!-- Node12&#45;&gt;Node2 -->
<g id="edge22" class="edge">
<title>Node12&#45;&gt;Node2</title>
<path fill="none" stroke="midnightblue" d="M1325.4,-43.78C1242.96,-61.83 1150.6,-76.53 1091.62,-84.92"/>
<polygon fill="midnightblue" stroke="midnightblue" points="1326.4,-47.15 1335.41,-41.57 1324.89,-40.31 1326.4,-47.15"/>
</g>
<!-- Node13&#45;&gt;Node2 -->
<g id="edge24" class="edge">
<title>Node13&#45;&gt;Node2</title>
<path fill="none" stroke="midnightblue" d="M1470.53,-43.55C1333.92,-69.89 1176.02,-83.4 1091.65,-89.1"/>
<polygon fill="midnightblue" stroke="midnightblue" points="1471.6,-46.9 1480.74,-41.54 1470.25,-40.03 1471.6,-46.9"/>
</g>
<!-- Node14&#45;&gt;Node2 -->
<g id="edge26" class="edge">
<title>Node14&#45;&gt;Node2</title>
<path fill="none" stroke="midnightblue" d="M1611.85,-43.38C1421.41,-77.51 1197.32,-88.03 1091.87,-91.19"/>
<polygon fill="midnightblue" stroke="midnightblue" points="1612.54,-46.81 1621.75,-41.57 1611.28,-39.92 1612.54,-46.81"/>
</g>
<!-- Node15&#45;&gt;Node2 -->
<g id="edge28" class="edge">
<title>Node15&#45;&gt;Node2</title>
<path fill="none" stroke="midnightblue" d="M1752.94,-43.29C1507.41,-85.28 1215.85,-91.74 1091.88,-92.52"/>
<polygon fill="midnightblue" stroke="midnightblue" points="1753.87,-46.68 1763.13,-41.52 1752.68,-39.78 1753.87,-46.68"/>
</g>
<!-- Node16&#45;&gt;Node2 -->
<g id="edge30" class="edge">
<title>Node16&#45;&gt;Node2</title>
<path fill="none" stroke="midnightblue" d="M1894.24,-43.14C1726.63,-69.15 1259,-85.7 1091.79,-90.81"/>
<polygon fill="midnightblue" stroke="midnightblue" points="1894.82,-46.59 1904.13,-41.53 1893.7,-39.68 1894.82,-46.59"/>
</g>
</g>
</svg>
