<?xml version="1.0" encoding="UTF-8" standalone="no"?>
<!DOCTYPE svg PUBLIC "-//W3C//DTD SVG 1.1//EN"
 "http://www.w3.org/Graphics/SVG/1.1/DTD/svg11.dtd">
<!-- Generated by graphviz version 8.0.1 (20230327.1645)
 -->
<!-- Title: include/experimental/linear_algebra/dynamic_vector.hpp Pages: 1 -->
<!--zoomable 236 -->
<svg id="main" version="1.1" xmlns="http://www.w3.org/2000/svg" xmlns:xlink="http://www.w3.org/1999/xlink" xml:space="preserve" onload="init(evt)">
<style type="text/css"><![CDATA[
.edge:hover path { stroke: red; }
.edge:hover polygon { stroke: red; fill: red; }
]]></style>
<script type="text/javascript"><![CDATA[
var edges = document.getElementsByTagName('g');
if (edges && edges.length) {
  for (var i=0;i<edges.length;i++) {
    if (edges[i].id.substr(0,4)=='edge') {
      edges[i].setAttribute('class','edge');
    }
  }
}
]]></script>
        <defs>
                <circle id="rim" cx="0" cy="0" r="7"/>
                <circle id="rim2" cx="0" cy="0" r="3.5"/>
                <g id="zoomPlus">
                        <use xlink:href="#rim" fill="#404040">
                                <set attributeName="fill" to="#808080" begin="zoomplus.mouseover" end="zoomplus.mouseout"/>
                        </use>
                        <path d="M-4,0h8M0,-4v8" fill="none" stroke="white" stroke-width="1.5" pointer-events="none"/>
                </g>
                <g id="zoomMin">
                        <use xlink:href="#rim" fill="#404040">
                                <set attributeName="fill" to="#808080" begin="zoomminus.mouseover" end="zoomminus.mouseout"/>
                        </use>
                        <path d="M-4,0h8" fill="none" stroke="white" stroke-width="1.5" pointer-events="none"/>
                </g>
                <g id="dirArrow">
                        <path fill="none" stroke="white" stroke-width="1.5" d="M0,-3.0v7 M-2.5,-0.5L0,-3.0L2.5,-0.5"/>
                </g>
               <g id="resetDef">
                       <use xlink:href="#rim2" fill="#404040">
                               <set attributeName="fill" to="#808080" begin="reset.mouseover" end="reset.mouseout"/>
                       </use>
               </g>
        </defs>

<script type="text/javascript">
var viewWidth = 2866;
var viewHeight = 236;
var sectionId = 'dynsection-0';
</script>
<script xlink:href="svgpan.js"/>
<svg id="graph" class="graph">
<g id="viewport">
<title>include/experimental/linear_algebra/dynamic_vector.hpp</title>
<!-- Node1 -->
<g id="node1" class="node">
<title>Node1</title>
<g id="a_node1"><a xlink:title=" ">
<polygon fill="#999999" stroke="#666666" points="1570.5,-228 1451.5,-228 1451.5,-187 1570.5,-187 1570.5,-228"/>
<text text-anchor="start" x="1459.5" y="-216" font-family="Helvetica,sans-Serif" font-size="10.00">include/experimental</text>
<text text-anchor="start" x="1459.5" y="-205" font-family="Helvetica,sans-Serif" font-size="10.00">/linear_algebra/dynamic</text>
<text text-anchor="middle" x="1511" y="-194" font-family="Helvetica,sans-Serif" font-size="10.00">_vector.hpp</text>
</a>
</g>
</g>
<!-- Node2 -->
<g id="node2" class="node">
<title>Node2</title>
<g id="a_node2"><a xlink:href="linear__algebra_8hpp.html" target="_top" xlink:title=" ">
<polygon fill="white" stroke="#666666" points="1560,-151 1462,-151 1462,-121 1560,-121 1560,-151"/>
<text text-anchor="start" x="1470" y="-139" font-family="Helvetica,sans-Serif" font-size="10.00">experimental/linear</text>
<text text-anchor="middle" x="1511" y="-128" font-family="Helvetica,sans-Serif" font-size="10.00">_algebra.hpp</text>
</a>
</g>
</g>
<!-- Node1&#45;&gt;Node2 -->
<g id="edge1" class="edge">
<title>Node1&#45;&gt;Node2</title>
<path fill="none" stroke="#63b8ff" d="M1504.84,-186.77C1504.2,-179.13 1504.08,-170.3 1504.48,-162.21"/>
<polygon fill="#63b8ff" stroke="#63b8ff" points="1508.03,-162.74 1505.4,-152.47 1501.06,-162.14 1508.03,-162.74"/>
</g>
<!-- Node2&#45;&gt;Node1 -->
<g id="edge42" class="edge">
<title>Node2&#45;&gt;Node1</title>
<path fill="none" stroke="#63b8ff" d="M1516.6,-151.47C1517.52,-158.59 1517.89,-167.44 1517.71,-175.95"/>
<polygon fill="#63b8ff" stroke="#63b8ff" points="1514.17,-175.6 1517.16,-185.77 1521.16,-175.96 1514.17,-175.6"/>
</g>
<!-- Node3 -->
<g id="node3" class="node">
<title>Node3</title>
<g id="a_node3"><a xlink:title=" ">
<polygon fill="#e0e0e0" stroke="#999999" points="56,-79.5 0,-79.5 0,-60.5 56,-60.5 56,-79.5"/>
<text text-anchor="middle" x="28" y="-67.5" font-family="Helvetica,sans-Serif" font-size="10.00">algorithm</text>
</a>
</g>
</g>
<!-- Node2&#45;&gt;Node3 -->
<g id="edge2" class="edge">
<title>Node2&#45;&gt;Node3</title>
<path fill="none" stroke="#63b8ff" d="M1461.81,-134.25C1224.56,-130.52 204.15,-112.94 65,-85 62.79,-84.56 60.54,-84 58.29,-83.36"/>
<polygon fill="#63b8ff" stroke="#63b8ff" points="59.6,-79.77 49,-79.93 57.38,-86.41 59.6,-79.77"/>
</g>
<!-- Node4 -->
<g id="node4" class="node">
<title>Node4</title>
<g id="a_node4"><a xlink:title=" ">
<polygon fill="#e0e0e0" stroke="#999999" points="112,-79.5 74,-79.5 74,-60.5 112,-60.5 112,-79.5"/>
<text text-anchor="middle" x="93" y="-67.5" font-family="Helvetica,sans-Serif" font-size="10.00">array</text>
</a>
</g>
</g>
<!-- Node2&#45;&gt;Node4 -->
<g id="edge3" class="edge">
<title>Node2&#45;&gt;Node4</title>
<path fill="none" stroke="#63b8ff" d="M1461.74,-134.47C1229.87,-131.8 252.83,-118.63 121,-85 120.03,-84.75 119.06,-84.47 118.09,-84.16"/>
<polygon fill="#63b8ff" stroke="#63b8ff" points="119.52,-80.55 108.94,-79.94 116.83,-87.01 119.52,-80.55"/>
</g>
<!-- Node5 -->
<g id="node5" class="node">
<title>Node5</title>
<g id="a_node5"><a xlink:title=" ">
<polygon fill="#e0e0e0" stroke="#999999" points="186,-79.5 130,-79.5 130,-60.5 186,-60.5 186,-79.5"/>
<text text-anchor="middle" x="158" y="-67.5" font-family="Helvetica,sans-Serif" font-size="10.00">concepts</text>
</a>
</g>
</g>
<!-- Node2&#45;&gt;Node5 -->
<g id="edge4" class="edge">
<title>Node2&#45;&gt;Node5</title>
<path fill="none" stroke="#63b8ff" d="M1461.8,-135.19C1253.7,-135.69 445.18,-134.35 196,-85 193.65,-84.53 191.25,-83.94 188.85,-83.27"/>
<polygon fill="#63b8ff" stroke="#63b8ff" points="190.16,-79.69 179.57,-79.91 187.99,-86.34 190.16,-79.69"/>
</g>
<!-- Node6 -->
<g id="node6" class="node">
<title>Node6</title>
<g id="a_node6"><a xlink:title=" ">
<polygon fill="#e0e0e0" stroke="#999999" points="257.5,-79.5 204.5,-79.5 204.5,-60.5 257.5,-60.5 257.5,-79.5"/>
<text text-anchor="middle" x="231" y="-67.5" font-family="Helvetica,sans-Serif" font-size="10.00">complex</text>
</a>
</g>
</g>
<!-- Node2&#45;&gt;Node6 -->
<g id="edge5" class="edge">
<title>Node2&#45;&gt;Node6</title>
<path fill="none" stroke="#63b8ff" d="M1461.74,-135.18C1260.6,-135.6 501.21,-133.83 267,-85 264.93,-84.57 262.83,-84.03 260.73,-83.42"/>
<polygon fill="#63b8ff" stroke="#63b8ff" points="262.04,-79.83 251.45,-79.91 259.78,-86.45 262.04,-79.83"/>
</g>
<!-- Node7 -->
<g id="node7" class="node">
<title>Node7</title>
<g id="a_node7"><a xlink:title=" ">
<polygon fill="#e0e0e0" stroke="#999999" points="324.5,-79.5 275.5,-79.5 275.5,-60.5 324.5,-60.5 324.5,-79.5"/>
<text text-anchor="middle" x="300" y="-67.5" font-family="Helvetica,sans-Serif" font-size="10.00">cstddef</text>
</a>
</g>
</g>
<!-- Node2&#45;&gt;Node7 -->
<g id="edge6" class="edge">
<title>Node2&#45;&gt;Node7</title>
<path fill="none" stroke="#63b8ff" d="M1461.75,-135.18C1267.47,-135.53 554.1,-133.42 334,-85 332.2,-84.6 330.37,-84.12 328.55,-83.57"/>
<polygon fill="#63b8ff" stroke="#63b8ff" points="329.92,-79.99 319.33,-79.91 327.56,-86.58 329.92,-79.99"/>
</g>
<!-- Node8 -->
<g id="node8" class="node">
<title>Node8</title>
<g id="a_node8"><a xlink:title=" ">
<polygon fill="#e0e0e0" stroke="#999999" points="401.5,-79.5 342.5,-79.5 342.5,-60.5 401.5,-60.5 401.5,-79.5"/>
<text text-anchor="middle" x="372" y="-67.5" font-family="Helvetica,sans-Serif" font-size="10.00">execution</text>
</a>
</g>
</g>
<!-- Node2&#45;&gt;Node8 -->
<g id="edge7" class="edge">
<title>Node2&#45;&gt;Node8</title>
<path fill="none" stroke="#63b8ff" d="M1461.58,-134.71C1275.37,-133.32 616.36,-125.57 411,-85 408.5,-84.51 405.94,-83.88 403.4,-83.17"/>
<polygon fill="#63b8ff" stroke="#63b8ff" points="404.72,-79.6 394.13,-79.88 402.59,-86.26 404.72,-79.6"/>
</g>
<!-- Node9 -->
<g id="node9" class="node">
<title>Node9</title>
<g id="a_node9"><a xlink:title=" ">
<polygon fill="#e0e0e0" stroke="#999999" points="478.5,-79.5 419.5,-79.5 419.5,-60.5 478.5,-60.5 478.5,-79.5"/>
<text text-anchor="middle" x="449" y="-67.5" font-family="Helvetica,sans-Serif" font-size="10.00">exception</text>
</a>
</g>
</g>
<!-- Node2&#45;&gt;Node9 -->
<g id="edge8" class="edge">
<title>Node2&#45;&gt;Node9</title>
<path fill="none" stroke="#63b8ff" d="M1461.72,-134.52C1284.18,-132.47 677.75,-122.82 488,-85 485.5,-84.5 482.94,-83.87 480.4,-83.16"/>
<polygon fill="#63b8ff" stroke="#63b8ff" points="481.72,-79.59 471.13,-79.87 479.59,-86.25 481.72,-79.59"/>
</g>
<!-- Node10 -->
<g id="node10" class="node">
<title>Node10</title>
<g id="a_node10"><a xlink:title=" ">
<polygon fill="#e0e0e0" stroke="#999999" points="555.5,-79.5 496.5,-79.5 496.5,-60.5 555.5,-60.5 555.5,-79.5"/>
<text text-anchor="middle" x="526" y="-67.5" font-family="Helvetica,sans-Serif" font-size="10.00">functional</text>
</a>
</g>
</g>
<!-- Node2&#45;&gt;Node10 -->
<g id="edge9" class="edge">
<title>Node2&#45;&gt;Node10</title>
<path fill="none" stroke="#63b8ff" d="M1461.68,-134.29C1292.89,-131.55 739.13,-120.07 565,-85 562.65,-84.53 560.25,-83.94 557.86,-83.28"/>
<polygon fill="#63b8ff" stroke="#63b8ff" points="559.14,-79.69 548.54,-80 557.01,-86.36 559.14,-79.69"/>
</g>
<!-- Node11 -->
<g id="node11" class="node">
<title>Node11</title>
<g id="a_node11"><a xlink:title=" ">
<polygon fill="#e0e0e0" stroke="#999999" points="626,-79.5 574,-79.5 574,-60.5 626,-60.5 626,-79.5"/>
<text text-anchor="middle" x="600" y="-67.5" font-family="Helvetica,sans-Serif" font-size="10.00">memory</text>
</a>
</g>
</g>
<!-- Node2&#45;&gt;Node11 -->
<g id="edge10" class="edge">
<title>Node2&#45;&gt;Node11</title>
<path fill="none" stroke="#63b8ff" d="M1461.69,-134.27C1301.12,-131.59 794.39,-120.44 635,-85 633.2,-84.6 631.37,-84.12 629.54,-83.58"/>
<polygon fill="#63b8ff" stroke="#63b8ff" points="630.86,-79.98 620.27,-80 628.56,-86.59 630.86,-79.98"/>
</g>
<!-- Node12 -->
<g id="node12" class="node">
<title>Node12</title>
<g id="a_node12"><a xlink:title=" ">
<polygon fill="#e0e0e0" stroke="#999999" points="682,-79.5 644,-79.5 644,-60.5 682,-60.5 682,-79.5"/>
<text text-anchor="middle" x="663" y="-67.5" font-family="Helvetica,sans-Serif" font-size="10.00">span</text>
</a>
</g>
</g>
<!-- Node2&#45;&gt;Node12 -->
<g id="edge11" class="edge">
<title>Node2&#45;&gt;Node12</title>
<path fill="none" stroke="#63b8ff" d="M1461.6,-134.48C1307.74,-132.48 838.71,-123.3 692,-85 690.86,-84.7 689.72,-84.36 688.57,-83.98"/>
<polygon fill="#63b8ff" stroke="#63b8ff" points="690.11,-80.42 679.53,-79.86 687.45,-86.89 690.11,-80.42"/>
</g>
<!-- Node13 -->
<g id="node13" class="node">
<title>Node13</title>
<g id="a_node13"><a xlink:title=" ">
<polygon fill="#e0e0e0" stroke="#999999" points="759.5,-79.5 700.5,-79.5 700.5,-60.5 759.5,-60.5 759.5,-79.5"/>
<text text-anchor="middle" x="730" y="-67.5" font-family="Helvetica,sans-Serif" font-size="10.00">stdexcept</text>
</a>
</g>
</g>
<!-- Node2&#45;&gt;Node13 -->
<g id="edge12" class="edge">
<title>Node2&#45;&gt;Node13</title>
<path fill="none" stroke="#63b8ff" d="M1461.62,-133.46C1317.97,-128.68 902.02,-112.79 769,-85 766.65,-84.51 764.26,-83.91 761.87,-83.24"/>
<polygon fill="#63b8ff" stroke="#63b8ff" points="763.15,-79.65 752.56,-79.94 761.01,-86.32 763.15,-79.65"/>
</g>
<!-- Node14 -->
<g id="node14" class="node">
<title>Node14</title>
<g id="a_node14"><a xlink:title=" ">
<polygon fill="#e0e0e0" stroke="#999999" points="816,-79.5 778,-79.5 778,-60.5 816,-60.5 816,-79.5"/>
<text text-anchor="middle" x="797" y="-67.5" font-family="Helvetica,sans-Serif" font-size="10.00">tuple</text>
</a>
</g>
</g>
<!-- Node2&#45;&gt;Node14 -->
<g id="edge13" class="edge">
<title>Node2&#45;&gt;Node14</title>
<path fill="none" stroke="#63b8ff" d="M1461.8,-133.89C1325.5,-130.44 945.18,-118.03 825,-85 824.06,-84.74 823.11,-84.45 822.17,-84.13"/>
<polygon fill="#63b8ff" stroke="#63b8ff" points="823.84,-80.62 813.27,-79.97 821.13,-87.07 823.84,-80.62"/>
</g>
<!-- Node15 -->
<g id="node15" class="node">
<title>Node15</title>
<g id="a_node15"><a xlink:title=" ">
<polygon fill="#e0e0e0" stroke="#999999" points="896,-79.5 834,-79.5 834,-60.5 896,-60.5 896,-79.5"/>
<text text-anchor="middle" x="865" y="-67.5" font-family="Helvetica,sans-Serif" font-size="10.00">type_traits</text>
</a>
</g>
</g>
<!-- Node2&#45;&gt;Node15 -->
<g id="edge14" class="edge">
<title>Node2&#45;&gt;Node15</title>
<path fill="none" stroke="#63b8ff" d="M1461.81,-134.53C1358.59,-132.76 1112.2,-124.37 910,-85 906.99,-84.41 903.89,-83.7 900.8,-82.91"/>
<polygon fill="#63b8ff" stroke="#63b8ff" points="902.03,-79.33 891.45,-79.98 900.12,-86.07 902.03,-79.33"/>
</g>
<!-- Node16 -->
<g id="node16" class="node">
<title>Node16</title>
<g id="a_node16"><a xlink:title=" ">
<polygon fill="#e0e0e0" stroke="#999999" points="1020,-19 910,-19 910,0 1020,0 1020,-19"/>
<text text-anchor="middle" x="965" y="-7" font-family="Helvetica,sans-Serif" font-size="10.00">experimental/mdspan</text>
</a>
</g>
</g>
<!-- Node2&#45;&gt;Node16 -->
<g id="edge15" class="edge">
<title>Node2&#45;&gt;Node16</title>
<path fill="none" stroke="#63b8ff" d="M1461.77,-134.38C1330.16,-132.22 977.72,-122.92 943,-85 928.53,-69.2 940.49,-44.33 951.64,-27.73"/>
<polygon fill="#63b8ff" stroke="#63b8ff" points="954.9,-30.19 957.92,-20.03 949.23,-26.09 954.9,-30.19"/>
</g>
<!-- Node17 -->
<g id="node17" class="node">
<title>Node17</title>
<g id="a_node17"><a xlink:href="mdspan__improvements_8hpp.html" target="_top" xlink:title=" ">
<polygon fill="white" stroke="#666666" points="1062,-85 952,-85 952,-55 1062,-55 1062,-85"/>
<text text-anchor="start" x="960" y="-73" font-family="Helvetica,sans-Serif" font-size="10.00">experimental/mdspan</text>
<text text-anchor="middle" x="1007" y="-62" font-family="Helvetica,sans-Serif" font-size="10.00">_improvements.hpp</text>
</a>
</g>
</g>
<!-- Node2&#45;&gt;Node17 -->
<g id="edge16" class="edge">
<title>Node2&#45;&gt;Node17</title>
<path fill="none" stroke="#63b8ff" d="M1461.73,-130.99C1382.2,-124.16 1220.41,-108.83 1072.85,-85.02"/>
<polygon fill="#63b8ff" stroke="#63b8ff" points="1073.68,-81.44 1063.25,-83.29 1072.55,-88.35 1073.68,-81.44"/>
</g>
<!-- Node18 -->
<g id="node18" class="node">
<title>Node18</title>
<g id="a_node18"><a xlink:href="private__support_8hpp.html" target="_top" xlink:title=" ">
<polygon fill="white" stroke="#666666" points="1189.5,-85 1080.5,-85 1080.5,-55 1189.5,-55 1189.5,-85"/>
<text text-anchor="start" x="1088.5" y="-73" font-family="Helvetica,sans-Serif" font-size="10.00">linear_algebra/private</text>
<text text-anchor="middle" x="1135" y="-62" font-family="Helvetica,sans-Serif" font-size="10.00">_support.hpp</text>
</a>
</g>
</g>
<!-- Node2&#45;&gt;Node18 -->
<g id="edge18" class="edge">
<title>Node2&#45;&gt;Node18</title>
<path fill="none" stroke="#63b8ff" d="M1461.7,-128.85C1400.76,-120.43 1294.05,-104.37 1200.98,-87.06"/>
<polygon fill="#63b8ff" stroke="#63b8ff" points="1201.75,-83.46 1191.28,-85.05 1200.46,-90.34 1201.75,-83.46"/>
</g>
<!-- Node19 -->
<g id="node19" class="node">
<title>Node19</title>
<g id="a_node19"><a xlink:href="tensor__concepts_8hpp.html" target="_top" xlink:title=" ">
<polygon fill="white" stroke="#666666" points="1314.5,-85 1207.5,-85 1207.5,-55 1314.5,-55 1314.5,-85"/>
<text text-anchor="start" x="1215.5" y="-73" font-family="Helvetica,sans-Serif" font-size="10.00">linear_algebra/tensor</text>
<text text-anchor="middle" x="1261" y="-62" font-family="Helvetica,sans-Serif" font-size="10.00">_concepts.hpp</text>
</a>
</g>
</g>
<!-- Node2&#45;&gt;Node19 -->
<g id="edge20" class="edge">
<title>Node2&#45;&gt;Node19</title>
<path fill="none" stroke="#63b8ff" d="M1461.59,-123.71C1421.57,-113.88 1365.11,-99.49 1322.24,-88.23"/>
<polygon fill="#63b8ff" stroke="#63b8ff" points="1323.21,-84.6 1312.65,-85.44 1321.43,-91.37 1323.21,-84.6"/>
</g>
<!-- Node20 -->
<g id="node20" class="node">
<title>Node20</title>
<g id="a_node20"><a xlink:href="vector__concepts_8hpp.html" target="_top" xlink:title=" ">
<polygon fill="white" stroke="#666666" points="1439.5,-85 1332.5,-85 1332.5,-55 1439.5,-55 1439.5,-85"/>
<text text-anchor="start" x="1340.5" y="-73" font-family="Helvetica,sans-Serif" font-size="10.00">linear_algebra/vector</text>
<text text-anchor="middle" x="1386" y="-62" font-family="Helvetica,sans-Serif" font-size="10.00">_concepts.hpp</text>
</a>
</g>
</g>
<!-- Node2&#45;&gt;Node20 -->
<g id="edge22" class="edge">
<title>Node2&#45;&gt;Node20</title>
<path fill="none" stroke="#63b8ff" d="M1477.21,-120.64C1458.7,-111.74 1435.99,-100.21 1417.81,-90.49"/>
<polygon fill="#63b8ff" stroke="#63b8ff" points="1419.69,-86.99 1409.22,-85.31 1416.36,-93.15 1419.69,-86.99"/>
</g>
<!-- Node21 -->
<g id="node21" class="node">
<title>Node21</title>
<g id="a_node21"><a xlink:href="matrix__concepts_8hpp.html" target="_top" xlink:title=" ">
<polygon fill="white" stroke="#666666" points="1564.5,-85 1457.5,-85 1457.5,-55 1564.5,-55 1564.5,-85"/>
<text text-anchor="start" x="1465.5" y="-73" font-family="Helvetica,sans-Serif" font-size="10.00">linear_algebra/matrix</text>
<text text-anchor="middle" x="1511" y="-62" font-family="Helvetica,sans-Serif" font-size="10.00">_concepts.hpp</text>
</a>
</g>
</g>
<!-- Node2&#45;&gt;Node21 -->
<g id="edge24" class="edge">
<title>Node2&#45;&gt;Node21</title>
<path fill="none" stroke="#63b8ff" d="M1505.28,-120.8C1504.33,-113.5 1504.04,-104.41 1504.4,-95.99"/>
<polygon fill="#63b8ff" stroke="#63b8ff" points="1507.95,-96.42 1505.29,-86.16 1500.98,-95.84 1507.95,-96.42"/>
</g>
<!-- Node22 -->
<g id="node22" class="node">
<title>Node22</title>
<g id="a_node22"><a xlink:href="tensor__view_8hpp.html" target="_top" xlink:title=" ">
<polygon fill="white" stroke="#666666" points="1689.5,-85 1582.5,-85 1582.5,-55 1689.5,-55 1689.5,-85"/>
<text text-anchor="start" x="1590.5" y="-73" font-family="Helvetica,sans-Serif" font-size="10.00">linear_algebra/tensor</text>
<text text-anchor="middle" x="1636" y="-62" font-family="Helvetica,sans-Serif" font-size="10.00">_view.hpp</text>
</a>
</g>
</g>
<!-- Node2&#45;&gt;Node22 -->
<g id="edge26" class="edge">
<title>Node2&#45;&gt;Node22</title>
<path fill="none" stroke="#63b8ff" d="M1533.31,-120.64C1549.77,-111.62 1572.52,-99.89 1592.48,-90.09"/>
<polygon fill="#63b8ff" stroke="#63b8ff" points="1593.84,-92.83 1601.31,-85.31 1590.78,-86.54 1593.84,-92.83"/>
</g>
<!-- Node23 -->
<g id="node23" class="node">
<title>Node23</title>
<g id="a_node23"><a xlink:href="vector__view_8hpp.html" target="_top" xlink:title=" ">
<polygon fill="white" stroke="#666666" points="1814.5,-85 1707.5,-85 1707.5,-55 1814.5,-55 1814.5,-85"/>
<text text-anchor="start" x="1715.5" y="-73" font-family="Helvetica,sans-Serif" font-size="10.00">linear_algebra/vector</text>
<text text-anchor="middle" x="1761" y="-62" font-family="Helvetica,sans-Serif" font-size="10.00">_view.hpp</text>
</a>
</g>
</g>
<!-- Node2&#45;&gt;Node23 -->
<g id="edge28" class="edge">
<title>Node2&#45;&gt;Node23</title>
<path fill="none" stroke="#63b8ff" d="M1560.46,-120.88C1599.54,-110.53 1654.29,-96.5 1696.75,-85.96"/>
<polygon fill="#63b8ff" stroke="#63b8ff" points="1697.39,-89.16 1706.26,-83.36 1695.71,-82.36 1697.39,-89.16"/>
</g>
<!-- Node24 -->
<g id="node24" class="node">
<title>Node24</title>
<g id="a_node24"><a xlink:href="matrix__view_8hpp.html" target="_top" xlink:title=" ">
<polygon fill="white" stroke="#666666" points="1939.5,-85 1832.5,-85 1832.5,-55 1939.5,-55 1939.5,-85"/>
<text text-anchor="start" x="1840.5" y="-73" font-family="Helvetica,sans-Serif" font-size="10.00">linear_algebra/matrix</text>
<text text-anchor="middle" x="1886" y="-62" font-family="Helvetica,sans-Serif" font-size="10.00">_view.hpp</text>
</a>
</g>
</g>
<!-- Node2&#45;&gt;Node24 -->
<g id="edge30" class="edge">
<title>Node2&#45;&gt;Node24</title>
<path fill="none" stroke="#63b8ff" d="M1560.32,-127.17C1620.64,-118.12 1725.43,-102.25 1815,-85 1817.16,-84.58 1819.36,-84.15 1821.58,-83.7"/>
<polygon fill="#63b8ff" stroke="#63b8ff" points="1822.03,-86.97 1831.1,-81.51 1820.6,-80.12 1822.03,-86.97"/>
</g>
<!-- Node25 -->
<g id="node25" class="node">
<title>Node25</title>
<g id="a_node25"><a xlink:href="fixed__size__tensor_8hpp.html" target="_top" xlink:title=" ">
<polygon fill="white" stroke="#666666" points="2058.5,-85 1957.5,-85 1957.5,-55 2058.5,-55 2058.5,-85"/>
<text text-anchor="start" x="1965.5" y="-73" font-family="Helvetica,sans-Serif" font-size="10.00">linear_algebra/fixed</text>
<text text-anchor="middle" x="2008" y="-62" font-family="Helvetica,sans-Serif" font-size="10.00">_size_tensor.hpp</text>
</a>
</g>
</g>
<!-- Node2&#45;&gt;Node25 -->
<g id="edge32" class="edge">
<title>Node2&#45;&gt;Node25</title>
<path fill="none" stroke="#63b8ff" d="M1560.47,-130.82C1640.64,-124.03 1803.36,-108.92 1940,-85 1942.19,-84.62 1944.41,-84.2 1946.67,-83.76"/>
<polygon fill="#63b8ff" stroke="#63b8ff" points="1947.23,-87.01 1956.31,-81.56 1945.81,-80.16 1947.23,-87.01"/>
</g>
<!-- Node26 -->
<g id="node26" class="node">
<title>Node26</title>
<g id="a_node26"><a xlink:href="dynamic__tensor_8hpp.html" target="_top" xlink:title=" ">
<polygon fill="white" stroke="#666666" points="2193,-85 2077,-85 2077,-55 2193,-55 2193,-85"/>
<text text-anchor="start" x="2085" y="-73" font-family="Helvetica,sans-Serif" font-size="10.00">linear_algebra/dynamic</text>
<text text-anchor="middle" x="2135" y="-62" font-family="Helvetica,sans-Serif" font-size="10.00">_tensor.hpp</text>
</a>
</g>
</g>
<!-- Node2&#45;&gt;Node26 -->
<g id="edge34" class="edge">
<title>Node2&#45;&gt;Node26</title>
<path fill="none" stroke="#63b8ff" d="M1560.13,-132.22C1656.37,-126.66 1875.82,-112.27 2059,-85 2061.34,-84.65 2063.72,-84.27 2066.13,-83.87"/>
<polygon fill="#63b8ff" stroke="#63b8ff" points="2066.55,-87.17 2075.78,-81.98 2065.33,-80.28 2066.55,-87.17"/>
</g>
<!-- Node27 -->
<g id="node27" class="node">
<title>Node27</title>
<g id="a_node27"><a xlink:href="fixed__size__matrix_8hpp.html" target="_top" xlink:title=" ">
<polygon fill="white" stroke="#666666" points="2312.5,-85 2211.5,-85 2211.5,-55 2312.5,-55 2312.5,-85"/>
<text text-anchor="start" x="2219.5" y="-73" font-family="Helvetica,sans-Serif" font-size="10.00">linear_algebra/fixed</text>
<text text-anchor="middle" x="2262" y="-62" font-family="Helvetica,sans-Serif" font-size="10.00">_size_matrix.hpp</text>
</a>
</g>
</g>
<!-- Node2&#45;&gt;Node27 -->
<g id="edge36" class="edge">
<title>Node2&#45;&gt;Node27</title>
<path fill="none" stroke="#63b8ff" d="M1560.24,-133.97C1672.95,-131.11 1957.55,-120.76 2193,-85 2195.5,-84.62 2198.05,-84.19 2200.62,-83.73"/>
<polygon fill="#63b8ff" stroke="#63b8ff" points="2201.15,-86.99 2210.3,-81.64 2199.81,-80.12 2201.15,-86.99"/>
</g>
<!-- Node28 -->
<g id="node28" class="node">
<title>Node28</title>
<g id="a_node28"><a xlink:href="dynamic__matrix_8hpp.html" target="_top" xlink:title=" ">
<polygon fill="white" stroke="#666666" points="2447,-85 2331,-85 2331,-55 2447,-55 2447,-85"/>
<text text-anchor="start" x="2339" y="-73" font-family="Helvetica,sans-Serif" font-size="10.00">linear_algebra/dynamic</text>
<text text-anchor="middle" x="2389" y="-62" font-family="Helvetica,sans-Serif" font-size="10.00">_matrix.hpp</text>
</a>
</g>
</g>
<!-- Node2&#45;&gt;Node28 -->
<g id="edge38" class="edge">
<title>Node2&#45;&gt;Node28</title>
<path fill="none" stroke="#63b8ff" d="M1560.35,-134.36C1686.38,-132.23 2029.54,-123.15 2313,-85 2315.34,-84.68 2317.73,-84.33 2320.14,-83.95"/>
<polygon fill="#63b8ff" stroke="#63b8ff" points="2320.54,-87.27 2329.81,-82.13 2319.36,-80.37 2320.54,-87.27"/>
</g>
<!-- Node29 -->
<g id="node29" class="node">
<title>Node29</title>
<g id="a_node29"><a xlink:href="fixed__size__vector_8hpp.html" target="_top" xlink:title=" ">
<polygon fill="white" stroke="#666666" points="2566.5,-85 2465.5,-85 2465.5,-55 2566.5,-55 2566.5,-85"/>
<text text-anchor="start" x="2473.5" y="-73" font-family="Helvetica,sans-Serif" font-size="10.00">linear_algebra/fixed</text>
<text text-anchor="middle" x="2516" y="-62" font-family="Helvetica,sans-Serif" font-size="10.00">_size_vector.hpp</text>
</a>
</g>
</g>
<!-- Node2&#45;&gt;Node29 -->
<g id="edge40" class="edge">
<title>Node2&#45;&gt;Node29</title>
<path fill="none" stroke="#63b8ff" d="M1560.36,-135.46C1700.24,-135.99 2110.29,-132.81 2447,-85 2449.5,-84.64 2452.05,-84.24 2454.63,-83.79"/>
<polygon fill="#63b8ff" stroke="#63b8ff" points="2455.15,-87.06 2464.31,-81.74 2453.83,-80.18 2455.15,-87.06"/>
</g>
<!-- Node30 -->
<g id="node30" class="node">
<title>Node30</title>
<g id="a_node30"><a xlink:href="instant__evaluated__operations_8hpp.html" target="_top" xlink:title=" ">
<polygon fill="white" stroke="#666666" points="2717.5,-85 2584.5,-85 2584.5,-55 2717.5,-55 2717.5,-85"/>
<text text-anchor="start" x="2592.5" y="-73" font-family="Helvetica,sans-Serif" font-size="10.00">linear_algebra/instant</text>
<text text-anchor="middle" x="2651" y="-62" font-family="Helvetica,sans-Serif" font-size="10.00">_evaluated_operations.hpp</text>
</a>
</g>
</g>
<!-- Node2&#45;&gt;Node30 -->
<g id="edge43" class="edge">
<title>Node2&#45;&gt;Node30</title>
<path fill="none" stroke="#63b8ff" d="M1560.37,-135.08C1711.59,-134.78 2180.89,-129.88 2567,-85 2569.07,-84.76 2571.17,-84.49 2573.29,-84.21"/>
<polygon fill="#63b8ff" stroke="#63b8ff" points="2573.63,-87.55 2583.02,-82.65 2572.62,-80.63 2573.63,-87.55"/>
</g>
<!-- Node31 -->
<g id="node31" class="node">
<title>Node31</title>
<g id="a_node31"><a xlink:href="arithmetic__operators_8hpp.html" target="_top" xlink:title=" ">
<polygon fill="white" stroke="#666666" points="2858,-85 2736,-85 2736,-55 2858,-55 2858,-85"/>
<text text-anchor="start" x="2744" y="-73" font-family="Helvetica,sans-Serif" font-size="10.00">linear_algebra/arithmetic</text>
<text text-anchor="middle" x="2797" y="-62" font-family="Helvetica,sans-Serif" font-size="10.00">_operators.hpp</text>
</a>
</g>
</g>
<!-- Node2&#45;&gt;Node31 -->
<g id="edge45" class="edge">
<title>Node2&#45;&gt;Node31</title>
<path fill="none" stroke="#63b8ff" d="M1560.4,-133.93C1757.54,-129.64 2487.63,-112.6 2718,-85 2720.35,-84.72 2722.74,-84.4 2725.15,-84.05"/>
<polygon fill="#63b8ff" stroke="#63b8ff" points="2725.5,-87.39 2734.83,-82.37 2724.41,-80.47 2725.5,-87.39"/>
</g>
<!-- Node17&#45;&gt;Node16 -->
<g id="edge17" class="edge">
<title>Node17&#45;&gt;Node16</title>
<path fill="none" stroke="#63b8ff" d="M996.62,-54.54C990.83,-46.48 983.58,-36.38 977.48,-27.89"/>
<polygon fill="#63b8ff" stroke="#63b8ff" points="979.9,-26.26 971.23,-20.18 974.22,-30.34 979.9,-26.26"/>
</g>
<!-- Node18&#45;&gt;Node2 -->
<g id="edge19" class="edge">
<title>Node18&#45;&gt;Node2</title>
<path fill="none" stroke="#63b8ff" d="M1189.65,-81.33C1195.86,-82.62 1202.08,-83.88 1208,-85 1292.15,-100.93 1389.71,-116.03 1450.97,-125.38"/>
<polygon fill="#63b8ff" stroke="#63b8ff" points="1450.19,-128.96 1460.61,-127 1451.25,-122.04 1450.19,-128.96"/>
</g>
<!-- Node19&#45;&gt;Node2 -->
<g id="edge21" class="edge">
<title>Node19&#45;&gt;Node2</title>
<path fill="none" stroke="#63b8ff" d="M1314.74,-83.36C1354.83,-93.24 1409.51,-107.19 1451.02,-118.1"/>
<polygon fill="#63b8ff" stroke="#63b8ff" points="1449.97,-121.71 1460.54,-120.88 1451.76,-114.94 1449.97,-121.71"/>
</g>
<!-- Node20&#45;&gt;Node2 -->
<g id="edge23" class="edge">
<title>Node20&#45;&gt;Node2</title>
<path fill="none" stroke="#63b8ff" d="M1419.69,-85.31C1438.19,-94.2 1460.89,-105.73 1479.1,-115.45"/>
<polygon fill="#63b8ff" stroke="#63b8ff" points="1477.23,-118.96 1487.69,-120.64 1480.55,-112.8 1477.23,-118.96"/>
</g>
<!-- Node21&#45;&gt;Node2 -->
<g id="edge25" class="edge">
<title>Node21&#45;&gt;Node2</title>
<path fill="none" stroke="#63b8ff" d="M1516.71,-85.16C1517.66,-92.45 1517.96,-101.55 1517.61,-109.97"/>
<polygon fill="#63b8ff" stroke="#63b8ff" points="1514.05,-109.54 1516.72,-119.8 1521.02,-110.11 1514.05,-109.54"/>
</g>
<!-- Node22&#45;&gt;Node2 -->
<g id="edge27" class="edge">
<title>Node22&#45;&gt;Node2</title>
<path fill="none" stroke="#63b8ff" d="M1613.78,-85.31C1597.34,-94.32 1574.59,-106.05 1554.63,-115.86"/>
<polygon fill="#63b8ff" stroke="#63b8ff" points="1553.26,-113.12 1545.79,-120.64 1556.32,-119.41 1553.26,-113.12"/>
</g>
<!-- Node23&#45;&gt;Node2 -->
<g id="edge29" class="edge">
<title>Node23&#45;&gt;Node2</title>
<path fill="none" stroke="#63b8ff" d="M1710.35,-85.44C1670,-96.11 1613.51,-110.57 1570.92,-121.11"/>
<polygon fill="#63b8ff" stroke="#63b8ff" points="1570.28,-117.91 1561.41,-123.71 1571.96,-124.71 1570.28,-117.91"/>
</g>
<!-- Node24&#45;&gt;Node2 -->
<g id="edge31" class="edge">
<title>Node24&#45;&gt;Node2</title>
<path fill="none" stroke="#63b8ff" d="M1832.16,-85.16C1741.79,-102.54 1636.11,-118.5 1571.29,-127.47"/>
<polygon fill="#63b8ff" stroke="#63b8ff" points="1570.89,-124.13 1561.46,-128.95 1571.84,-131.06 1570.89,-124.13"/>
</g>
<!-- Node25&#45;&gt;Node2 -->
<g id="edge33" class="edge">
<title>Node25&#45;&gt;Node2</title>
<path fill="none" stroke="#63b8ff" d="M1957.16,-85.15C1820.28,-109.06 1657.49,-124.14 1571.3,-130.88"/>
<polygon fill="#63b8ff" stroke="#63b8ff" points="1571.11,-127.46 1561.41,-131.72 1571.65,-134.44 1571.11,-127.46"/>
</g>
<!-- Node26&#45;&gt;Node2 -->
<g id="edge35" class="edge">
<title>Node26&#45;&gt;Node2</title>
<path fill="none" stroke="#63b8ff" d="M2076.72,-85.04C1894.01,-112.22 1675.31,-126.6 1571.39,-132.19"/>
<polygon fill="#63b8ff" stroke="#63b8ff" points="1571.3,-128.74 1561.5,-132.76 1571.67,-135.73 1571.3,-128.74"/>
</g>
<!-- Node27&#45;&gt;Node2 -->
<g id="edge37" class="edge">
<title>Node27&#45;&gt;Node2</title>
<path fill="none" stroke="#63b8ff" d="M2210.65,-85.05C1976.04,-120.65 1692.78,-131.05 1571.13,-133.94"/>
<polygon fill="#63b8ff" stroke="#63b8ff" points="1571.13,-130.46 1561.21,-134.19 1571.29,-137.46 1571.13,-130.46"/>
</g>
<!-- Node28&#45;&gt;Node2 -->
<g id="edge39" class="edge">
<title>Node28&#45;&gt;Node2</title>
<path fill="none" stroke="#63b8ff" d="M2330.58,-85.06C2048.49,-122.99 1707.43,-132.15 1571.26,-134.33"/>
<polygon fill="#63b8ff" stroke="#63b8ff" points="1571.21,-130.85 1561.27,-134.5 1571.32,-137.85 1571.21,-130.85"/>
</g>
<!-- Node29&#45;&gt;Node2 -->
<g id="edge41" class="edge">
<title>Node29&#45;&gt;Node2</title>
<path fill="none" stroke="#63b8ff" d="M2464.75,-85.04C2129.96,-132.54 1722.76,-135.96 1571.36,-135.47"/>
<polygon fill="#63b8ff" stroke="#63b8ff" points="1571.49,-131.97 1561.48,-135.43 1571.47,-138.97 1571.49,-131.97"/>
</g>
<!-- Node30&#45;&gt;Node2 -->
<g id="edge44" class="edge">
<title>Node30&#45;&gt;Node2</title>
<path fill="none" stroke="#63b8ff" d="M2584.14,-85.1C2200.34,-129.64 1734.69,-134.72 1571.16,-135.08"/>
<polygon fill="#63b8ff" stroke="#63b8ff" points="1571.36,-131.58 1561.37,-135.1 1571.37,-138.58 1571.36,-131.58"/>
</g>
<!-- Node31&#45;&gt;Node2 -->
<g id="edge46" class="edge">
<title>Node31&#45;&gt;Node2</title>
<path fill="none" stroke="#63b8ff" d="M2735.66,-85.04C2506.39,-112.44 1784.84,-129.43 1571.14,-133.85"/>
<polygon fill="#63b8ff" stroke="#63b8ff" points="1571.38,-130.36 1561.46,-134.06 1571.53,-137.36 1571.38,-130.36"/>
</g>
</g>
</svg>
        <g id="navigator" transform="translate(0 0)" fill="#404254">
                <rect fill="#f2f5e9" fill-opacity="0.5" stroke="#606060" stroke-width=".5" x="0" y="0" width="60" height="60"/>
                <use id="zoomplus" xlink:href="#zoomPlus" x="17" y="9" onmousedown="handleZoom(evt,'in')"/>
                <use id="zoomminus" xlink:href="#zoomMin" x="42" y="9" onmousedown="handleZoom(evt,'out')"/>
                <use id="reset" xlink:href="#resetDef" x="30" y="36" onmousedown="handleReset()"/>
                <g id="arrowUp" xlink:href="#dirArrow" transform="translate(30 24)" onmousedown="handlePan(0,-1)">
                  <use xlink:href="#rim" fill="#404040">
                        <set attributeName="fill" to="#808080" begin="arrowUp.mouseover" end="arrowUp.mouseout"/>
                  </use>
                  <path fill="none" stroke="white" stroke-width="1.5" d="M0,-3.0v7 M-2.5,-0.5L0,-3.0L2.5,-0.5"/>
                </g>
                <g id="arrowRight" xlink:href="#dirArrow" transform="rotate(90) translate(36 -43)" onmousedown="handlePan(1,0)">
                  <use xlink:href="#rim" fill="#404040">
                        <set attributeName="fill" to="#808080" begin="arrowRight.mouseover" end="arrowRight.mouseout"/>
                  </use>
                  <path fill="none" stroke="white" stroke-width="1.5" d="M0,-3.0v7 M-2.5,-0.5L0,-3.0L2.5,-0.5"/>
                </g>
                <g id="arrowDown" xlink:href="#dirArrow" transform="rotate(180) translate(-30 -48)" onmousedown="handlePan(0,1)">
                  <use xlink:href="#rim" fill="#404040">
                        <set attributeName="fill" to="#808080" begin="arrowDown.mouseover" end="arrowDown.mouseout"/>
                  </use>
                  <path fill="none" stroke="white" stroke-width="1.5" d="M0,-3.0v7 M-2.5,-0.5L0,-3.0L2.5,-0.5"/>
                </g>
                <g id="arrowLeft" xlink:href="#dirArrow" transform="rotate(270) translate(-36 17)" onmousedown="handlePan(-1,0)">
                  <use xlink:href="#rim" fill="#404040">
                        <set attributeName="fill" to="#808080" begin="arrowLeft.mouseover" end="arrowLeft.mouseout"/>
                  </use>
                  <path fill="none" stroke="white" stroke-width="1.5" d="M0,-3.0v7 M-2.5,-0.5L0,-3.0L2.5,-0.5"/>
                </g>
        </g>
        <svg viewBox="0 0 15 15" width="100%" height="30px" preserveAspectRatio="xMaxYMin meet">
         <g id="arrow_out" transform="scale(0.3 0.3)">
          <a xlink:href="dynamic__vector_8hpp__incl_org.svg" target="_base">
           <rect id="button" ry="5" rx="5" y="6" x="6" height="38" width="38"
                fill="#f2f5e9" fill-opacity="0.5" stroke="#606060" stroke-width="1.0"/>
           <path id="arrow"
             d="M 11.500037,31.436501 C 11.940474,20.09759 22.043105,11.32322 32.158766,21.979434 L 37.068811,17.246167 C 37.068811,17.246167 37.088388,32 37.088388,32 L 22.160133,31.978069 C 22.160133,31.978069 26.997745,27.140456 26.997745,27.140456 C 18.528582,18.264221 13.291696,25.230495 11.500037,31.436501 z"
             style="fill:#404040;"/>
          </a>
         </g>
        </svg>
</svg>
