<?xml version="1.0" encoding="UTF-8" standalone="no"?>
<!DOCTYPE svg PUBLIC "-//W3C//DTD SVG 1.1//EN"
 "http://www.w3.org/Graphics/SVG/1.1/DTD/svg11.dtd">
<!-- Generated by graphviz version 8.0.1 (20230327.1645)
 -->
<!-- Title: include/experimental/linear_algebra/dynamic_tensor.hpp Pages: 1 -->
<!--zoomable 236 -->
<svg id="main" version="1.1" xmlns="http://www.w3.org/2000/svg" xmlns:xlink="http://www.w3.org/1999/xlink" xml:space="preserve" onload="init(evt)">
<style type="text/css"><![CDATA[
.edge:hover path { stroke: red; }
.edge:hover polygon { stroke: red; fill: red; }
]]></style>
<script type="text/javascript"><![CDATA[
var edges = document.getElementsByTagName('g');
if (edges && edges.length) {
  for (var i=0;i<edges.length;i++) {
    if (edges[i].id.substr(0,4)=='edge') {
      edges[i].setAttribute('class','edge');
    }
  }
}
]]></script>
        <defs>
                <circle id="rim" cx="0" cy="0" r="7"/>
                <circle id="rim2" cx="0" cy="0" r="3.5"/>
                <g id="zoomPlus">
                        <use xlink:href="#rim" fill="#404040">
                                <set attributeName="fill" to="#808080" begin="zoomplus.mouseover" end="zoomplus.mouseout"/>
                        </use>
                        <path d="M-4,0h8M0,-4v8" fill="none" stroke="white" stroke-width="1.5" pointer-events="none"/>
                </g>
                <g id="zoomMin">
                        <use xlink:href="#rim" fill="#404040">
                                <set attributeName="fill" to="#808080" begin="zoomminus.mouseover" end="zoomminus.mouseout"/>
                        </use>
                        <path d="M-4,0h8" fill="none" stroke="white" stroke-width="1.5" pointer-events="none"/>
                </g>
                <g id="dirArrow">
                        <path fill="none" stroke="white" stroke-width="1.5" d="M0,-3.0v7 M-2.5,-0.5L0,-3.0L2.5,-0.5"/>
                </g>
               <g id="resetDef">
                       <use xlink:href="#rim2" fill="#404040">
                               <set attributeName="fill" to="#808080" begin="reset.mouseover" end="reset.mouseout"/>
                       </use>
               </g>
        </defs>

<script type="text/javascript">
var viewWidth = 3372;
var viewHeight = 236;
var sectionId = 'dynsection-0';
</script>
<script xlink:href="svgpan.js"/>
<svg id="graph" class="graph">
<g id="viewport">
<title>include/experimental/linear_algebra/dynamic_tensor.hpp</title>
<!-- Node1 -->
<g id="node1" class="node">
<title>Node1</title>
<g id="a_node1"><a xlink:title=" ">
<polygon fill="#999999" stroke="#666666" points="1826.5,-228 1707.5,-228 1707.5,-187 1826.5,-187 1826.5,-228"/>
<text text-anchor="start" x="1715.5" y="-216" font-family="Helvetica,sans-Serif" font-size="10.00">include/experimental</text>
<text text-anchor="start" x="1715.5" y="-205" font-family="Helvetica,sans-Serif" font-size="10.00">/linear_algebra/dynamic</text>
<text text-anchor="middle" x="1767" y="-194" font-family="Helvetica,sans-Serif" font-size="10.00">_tensor.hpp</text>
</a>
</g>
</g>
<!-- Node2 -->
<g id="node2" class="node">
<title>Node2</title>
<g id="a_node2"><a xlink:href="linear__algebra_8hpp.html" target="_top" xlink:title=" ">
<polygon fill="white" stroke="#666666" points="1816,-151 1718,-151 1718,-121 1816,-121 1816,-151"/>
<text text-anchor="start" x="1726" y="-139" font-family="Helvetica,sans-Serif" font-size="10.00">experimental/linear</text>
<text text-anchor="middle" x="1767" y="-128" font-family="Helvetica,sans-Serif" font-size="10.00">_algebra.hpp</text>
</a>
</g>
</g>
<!-- Node1&#45;&gt;Node2 -->
<g id="edge1" class="edge">
<title>Node1&#45;&gt;Node2</title>
<path fill="none" stroke="#63b8ff" d="M1760.84,-186.77C1760.2,-179.13 1760.08,-170.3 1760.48,-162.21"/>
<polygon fill="#63b8ff" stroke="#63b8ff" points="1764.03,-162.74 1761.4,-152.47 1757.06,-162.14 1764.03,-162.74"/>
</g>
<!-- Node2&#45;&gt;Node1 -->
<g id="edge42" class="edge">
<title>Node2&#45;&gt;Node1</title>
<path fill="none" stroke="#63b8ff" d="M1772.6,-151.47C1773.52,-158.59 1773.89,-167.44 1773.71,-175.95"/>
<polygon fill="#63b8ff" stroke="#63b8ff" points="1770.17,-175.6 1773.16,-185.77 1777.16,-175.96 1770.17,-175.6"/>
</g>
<!-- Node3 -->
<g id="node3" class="node">
<title>Node3</title>
<g id="a_node3"><a xlink:title=" ">
<polygon fill="#e0e0e0" stroke="#999999" points="56,-79.5 0,-79.5 0,-60.5 56,-60.5 56,-79.5"/>
<text text-anchor="middle" x="28" y="-67.5" font-family="Helvetica,sans-Serif" font-size="10.00">algorithm</text>
</a>
</g>
</g>
<!-- Node2&#45;&gt;Node3 -->
<g id="edge2" class="edge">
<title>Node2&#45;&gt;Node3</title>
<path fill="none" stroke="#63b8ff" d="M1717.6,-134.52C1455.22,-131.87 230.56,-117.79 65,-85 62.79,-84.56 60.54,-84.01 58.29,-83.37"/>
<polygon fill="#63b8ff" stroke="#63b8ff" points="59.59,-79.78 49,-79.95 57.38,-86.43 59.59,-79.78"/>
</g>
<!-- Node4 -->
<g id="node4" class="node">
<title>Node4</title>
<g id="a_node4"><a xlink:title=" ">
<polygon fill="#e0e0e0" stroke="#999999" points="112,-79.5 74,-79.5 74,-60.5 112,-60.5 112,-79.5"/>
<text text-anchor="middle" x="93" y="-67.5" font-family="Helvetica,sans-Serif" font-size="10.00">array</text>
</a>
</g>
</g>
<!-- Node2&#45;&gt;Node4 -->
<g id="edge3" class="edge">
<title>Node2&#45;&gt;Node4</title>
<path fill="none" stroke="#63b8ff" d="M1717.91,-134.77C1461.19,-133.38 279.01,-124.84 121,-85 120.03,-84.76 119.06,-84.47 118.08,-84.16"/>
<polygon fill="#63b8ff" stroke="#63b8ff" points="119.52,-80.55 108.94,-79.96 116.84,-87.02 119.52,-80.55"/>
</g>
<!-- Node5 -->
<g id="node5" class="node">
<title>Node5</title>
<g id="a_node5"><a xlink:title=" ">
<polygon fill="#e0e0e0" stroke="#999999" points="186,-79.5 130,-79.5 130,-60.5 186,-60.5 186,-79.5"/>
<text text-anchor="middle" x="158" y="-67.5" font-family="Helvetica,sans-Serif" font-size="10.00">concepts</text>
</a>
</g>
</g>
<!-- Node2&#45;&gt;Node5 -->
<g id="edge4" class="edge">
<title>Node2&#45;&gt;Node5</title>
<path fill="none" stroke="#63b8ff" d="M1717.73,-134.4C1467.91,-131.21 347.14,-115.33 195,-85 192.79,-84.56 190.54,-84 188.29,-83.36"/>
<polygon fill="#63b8ff" stroke="#63b8ff" points="189.59,-79.78 179,-79.94 187.38,-86.42 189.59,-79.78"/>
</g>
<!-- Node6 -->
<g id="node6" class="node">
<title>Node6</title>
<g id="a_node6"><a xlink:title=" ">
<polygon fill="#e0e0e0" stroke="#999999" points="257.5,-79.5 204.5,-79.5 204.5,-60.5 257.5,-60.5 257.5,-79.5"/>
<text text-anchor="middle" x="231" y="-67.5" font-family="Helvetica,sans-Serif" font-size="10.00">complex</text>
</a>
</g>
</g>
<!-- Node2&#45;&gt;Node6 -->
<g id="edge5" class="edge">
<title>Node2&#45;&gt;Node6</title>
<path fill="none" stroke="#63b8ff" d="M1717.55,-134.37C1474.3,-131.13 410.49,-115.33 266,-85 264.07,-84.59 262.1,-84.09 260.14,-83.51"/>
<polygon fill="#63b8ff" stroke="#63b8ff" points="261.48,-79.92 250.88,-79.94 259.17,-86.53 261.48,-79.92"/>
</g>
<!-- Node7 -->
<g id="node7" class="node">
<title>Node7</title>
<g id="a_node7"><a xlink:title=" ">
<polygon fill="#e0e0e0" stroke="#999999" points="324.5,-79.5 275.5,-79.5 275.5,-60.5 324.5,-60.5 324.5,-79.5"/>
<text text-anchor="middle" x="300" y="-67.5" font-family="Helvetica,sans-Serif" font-size="10.00">cstddef</text>
</a>
</g>
</g>
<!-- Node2&#45;&gt;Node7 -->
<g id="edge6" class="edge">
<title>Node2&#45;&gt;Node7</title>
<path fill="none" stroke="#63b8ff" d="M1717.81,-134.35C1481.69,-131.09 470.34,-115.43 333,-85 331.25,-84.61 329.47,-84.13 327.69,-83.59"/>
<polygon fill="#63b8ff" stroke="#63b8ff" points="329.35,-80.1 318.76,-79.94 326.94,-86.67 329.35,-80.1"/>
</g>
<!-- Node8 -->
<g id="node8" class="node">
<title>Node8</title>
<g id="a_node8"><a xlink:title=" ">
<polygon fill="#e0e0e0" stroke="#999999" points="401.5,-79.5 342.5,-79.5 342.5,-60.5 401.5,-60.5 401.5,-79.5"/>
<text text-anchor="middle" x="372" y="-67.5" font-family="Helvetica,sans-Serif" font-size="10.00">execution</text>
</a>
</g>
</g>
<!-- Node2&#45;&gt;Node8 -->
<g id="edge7" class="edge">
<title>Node2&#45;&gt;Node8</title>
<path fill="none" stroke="#63b8ff" d="M1717.67,-135.26C1505.24,-136.07 667.74,-135.88 410,-85 407.65,-84.54 405.24,-83.95 402.85,-83.27"/>
<polygon fill="#63b8ff" stroke="#63b8ff" points="404.16,-79.69 393.56,-79.92 401.99,-86.35 404.16,-79.69"/>
</g>
<!-- Node9 -->
<g id="node9" class="node">
<title>Node9</title>
<g id="a_node9"><a xlink:title=" ">
<polygon fill="#e0e0e0" stroke="#999999" points="478.5,-79.5 419.5,-79.5 419.5,-60.5 478.5,-60.5 478.5,-79.5"/>
<text text-anchor="middle" x="449" y="-67.5" font-family="Helvetica,sans-Serif" font-size="10.00">exception</text>
</a>
</g>
</g>
<!-- Node2&#45;&gt;Node9 -->
<g id="edge8" class="edge">
<title>Node2&#45;&gt;Node9</title>
<path fill="none" stroke="#63b8ff" d="M1717.73,-135.13C1513.01,-135.37 728.99,-133.05 487,-85 484.65,-84.53 482.25,-83.94 479.85,-83.27"/>
<polygon fill="#63b8ff" stroke="#63b8ff" points="481.16,-79.69 470.57,-79.91 478.99,-86.34 481.16,-79.69"/>
</g>
<!-- Node10 -->
<g id="node10" class="node">
<title>Node10</title>
<g id="a_node10"><a xlink:title=" ">
<polygon fill="#e0e0e0" stroke="#999999" points="555.5,-79.5 496.5,-79.5 496.5,-60.5 555.5,-60.5 555.5,-79.5"/>
<text text-anchor="middle" x="526" y="-67.5" font-family="Helvetica,sans-Serif" font-size="10.00">functional</text>
</a>
</g>
</g>
<!-- Node2&#45;&gt;Node10 -->
<g id="edge9" class="edge">
<title>Node2&#45;&gt;Node10</title>
<path fill="none" stroke="#63b8ff" d="M1717.78,-134.93C1521.08,-134.36 791.25,-129.24 565,-85 562.5,-84.51 559.94,-83.89 557.39,-83.18"/>
<polygon fill="#63b8ff" stroke="#63b8ff" points="558.72,-79.61 548.13,-79.9 556.59,-86.28 558.72,-79.61"/>
</g>
<!-- Node11 -->
<g id="node11" class="node">
<title>Node11</title>
<g id="a_node11"><a xlink:title=" ">
<polygon fill="#e0e0e0" stroke="#999999" points="626,-79.5 574,-79.5 574,-60.5 626,-60.5 626,-79.5"/>
<text text-anchor="middle" x="600" y="-67.5" font-family="Helvetica,sans-Serif" font-size="10.00">memory</text>
</a>
</g>
</g>
<!-- Node2&#45;&gt;Node11 -->
<g id="edge10" class="edge">
<title>Node2&#45;&gt;Node11</title>
<path fill="none" stroke="#63b8ff" d="M1717.72,-135.02C1528.17,-134.74 846.17,-130.52 635,-85 633.07,-84.58 631.11,-84.07 629.15,-83.49"/>
<polygon fill="#63b8ff" stroke="#63b8ff" points="630.49,-79.9 619.89,-79.9 628.17,-86.51 630.49,-79.9"/>
</g>
<!-- Node12 -->
<g id="node12" class="node">
<title>Node12</title>
<g id="a_node12"><a xlink:title=" ">
<polygon fill="#e0e0e0" stroke="#999999" points="682,-79.5 644,-79.5 644,-60.5 682,-60.5 682,-79.5"/>
<text text-anchor="middle" x="663" y="-67.5" font-family="Helvetica,sans-Serif" font-size="10.00">span</text>
</a>
</g>
</g>
<!-- Node2&#45;&gt;Node12 -->
<g id="edge11" class="edge">
<title>Node2&#45;&gt;Node12</title>
<path fill="none" stroke="#63b8ff" d="M1717.54,-135.41C1533.51,-136.52 888.81,-136.57 691,-85 690.03,-84.75 689.06,-84.46 688.09,-84.14"/>
<polygon fill="#63b8ff" stroke="#63b8ff" points="689.53,-80.53 678.95,-79.91 686.83,-86.99 689.53,-80.53"/>
</g>
<!-- Node13 -->
<g id="node13" class="node">
<title>Node13</title>
<g id="a_node13"><a xlink:title=" ">
<polygon fill="#e0e0e0" stroke="#999999" points="759.5,-79.5 700.5,-79.5 700.5,-60.5 759.5,-60.5 759.5,-79.5"/>
<text text-anchor="middle" x="730" y="-67.5" font-family="Helvetica,sans-Serif" font-size="10.00">stdexcept</text>
</a>
</g>
</g>
<!-- Node2&#45;&gt;Node13 -->
<g id="edge12" class="edge">
<title>Node2&#45;&gt;Node13</title>
<path fill="none" stroke="#63b8ff" d="M1717.72,-134.45C1543,-132.18 953.68,-121.93 769,-85 766.5,-84.5 763.95,-83.87 761.4,-83.16"/>
<polygon fill="#63b8ff" stroke="#63b8ff" points="762.73,-79.59 752.13,-79.86 760.59,-86.25 762.73,-79.59"/>
</g>
<!-- Node14 -->
<g id="node14" class="node">
<title>Node14</title>
<g id="a_node14"><a xlink:title=" ">
<polygon fill="#e0e0e0" stroke="#999999" points="816,-79.5 778,-79.5 778,-60.5 816,-60.5 816,-79.5"/>
<text text-anchor="middle" x="797" y="-67.5" font-family="Helvetica,sans-Serif" font-size="10.00">tuple</text>
</a>
</g>
</g>
<!-- Node2&#45;&gt;Node14 -->
<g id="edge13" class="edge">
<title>Node2&#45;&gt;Node14</title>
<path fill="none" stroke="#63b8ff" d="M1717.78,-134.62C1549.99,-132.97 1001.31,-124.62 830,-85 828.25,-84.6 826.47,-84.1 824.7,-83.55"/>
<polygon fill="#63b8ff" stroke="#63b8ff" points="826.37,-80.06 815.78,-79.87 823.94,-86.63 826.37,-80.06"/>
</g>
<!-- Node15 -->
<g id="node15" class="node">
<title>Node15</title>
<g id="a_node15"><a xlink:title=" ">
<polygon fill="#e0e0e0" stroke="#999999" points="1052,-19 990,-19 990,0 1052,0 1052,-19"/>
<text text-anchor="middle" x="1021" y="-7" font-family="Helvetica,sans-Serif" font-size="10.00">type_traits</text>
</a>
</g>
</g>
<!-- Node2&#45;&gt;Node15 -->
<g id="edge14" class="edge">
<title>Node2&#45;&gt;Node15</title>
<path fill="none" stroke="#63b8ff" d="M1717.65,-135.25C1560.4,-135.56 1078.5,-132.59 1029,-85 1014.52,-71.08 1014.6,-46.86 1016.94,-29.82"/>
<polygon fill="#63b8ff" stroke="#63b8ff" points="1020.49,-30.84 1018.77,-20.39 1013.59,-29.63 1020.49,-30.84"/>
</g>
<!-- Node16 -->
<g id="node16" class="node">
<title>Node16</title>
<g id="a_node16"><a xlink:title=" ">
<polygon fill="#e0e0e0" stroke="#999999" points="941,-19 831,-19 831,0 941,0 941,-19"/>
<text text-anchor="middle" x="886" y="-7" font-family="Helvetica,sans-Serif" font-size="10.00">experimental/mdspan</text>
</a>
</g>
</g>
<!-- Node2&#45;&gt;Node16 -->
<g id="edge15" class="edge">
<title>Node2&#45;&gt;Node16</title>
<path fill="none" stroke="#63b8ff" d="M1717.66,-134.13C1533.12,-130.63 892.57,-116.26 863,-85 848.22,-69.38 860.64,-44.47 872.19,-27.8"/>
<polygon fill="#63b8ff" stroke="#63b8ff" points="875.52,-30.19 878.68,-20.08 869.9,-26.01 875.52,-30.19"/>
</g>
<!-- Node17 -->
<g id="node17" class="node">
<title>Node17</title>
<g id="a_node17"><a xlink:href="mdspan__improvements_8hpp.html" target="_top" xlink:title=" ">
<polygon fill="white" stroke="#666666" points="982,-85 872,-85 872,-55 982,-55 982,-85"/>
<text text-anchor="start" x="880" y="-73" font-family="Helvetica,sans-Serif" font-size="10.00">experimental/mdspan</text>
<text text-anchor="middle" x="927" y="-62" font-family="Helvetica,sans-Serif" font-size="10.00">_improvements.hpp</text>
</a>
</g>
</g>
<!-- Node2&#45;&gt;Node17 -->
<g id="edge16" class="edge">
<title>Node2&#45;&gt;Node17</title>
<path fill="none" stroke="#63b8ff" d="M1717.61,-134.11C1594.98,-131.41 1266.91,-121.1 996,-85 995.02,-84.87 994.03,-84.73 993.04,-84.59"/>
<polygon fill="#63b8ff" stroke="#63b8ff" points="993.67,-80.99 983.25,-82.9 992.59,-87.91 993.67,-80.99"/>
</g>
<!-- Node18 -->
<g id="node18" class="node">
<title>Node18</title>
<g id="a_node18"><a xlink:href="config_8hpp.html" target="_top" xlink:title=" ">
<polygon fill="white" stroke="#666666" points="1163.5,-79.5 1038.5,-79.5 1038.5,-60.5 1163.5,-60.5 1163.5,-79.5"/>
<text text-anchor="middle" x="1101" y="-67.5" font-family="Helvetica,sans-Serif" font-size="10.00">linear_algebra/config.hpp</text>
</a>
</g>
</g>
<!-- Node2&#45;&gt;Node18 -->
<g id="edge18" class="edge">
<title>Node2&#45;&gt;Node18</title>
<path fill="none" stroke="#63b8ff" d="M1717.52,-132.65C1615.37,-127.39 1373.91,-112.91 1173,-85 1166.78,-84.14 1160.28,-83.08 1153.85,-81.95"/>
<polygon fill="#63b8ff" stroke="#63b8ff" points="1154.6,-78.35 1144.13,-79.98 1153.34,-85.23 1154.6,-78.35"/>
</g>
<!-- Node20 -->
<g id="node20" class="node">
<title>Node20</title>
<g id="a_node20"><a xlink:href="macros_8hpp.html" target="_top" xlink:title=" ">
<polygon fill="white" stroke="#666666" points="1312.5,-79.5 1181.5,-79.5 1181.5,-60.5 1312.5,-60.5 1312.5,-79.5"/>
<text text-anchor="middle" x="1247" y="-67.5" font-family="Helvetica,sans-Serif" font-size="10.00">linear_algebra/macros.hpp</text>
</a>
</g>
</g>
<!-- Node2&#45;&gt;Node20 -->
<g id="edge21" class="edge">
<title>Node2&#45;&gt;Node20</title>
<path fill="none" stroke="#63b8ff" d="M1717.79,-130.65C1635.58,-123.12 1465.21,-106.38 1322,-85 1315.79,-84.07 1309.31,-83.01 1302.87,-81.89"/>
<polygon fill="#63b8ff" stroke="#63b8ff" points="1303.58,-78.28 1293.12,-79.97 1302.35,-85.18 1303.58,-78.28"/>
</g>
<!-- Node21 -->
<g id="node21" class="node">
<title>Node21</title>
<g id="a_node21"><a xlink:href="private__support_8hpp.html" target="_top" xlink:title=" ">
<polygon fill="white" stroke="#666666" points="1439.5,-85 1330.5,-85 1330.5,-55 1439.5,-55 1439.5,-85"/>
<text text-anchor="start" x="1338.5" y="-73" font-family="Helvetica,sans-Serif" font-size="10.00">linear_algebra/private</text>
<text text-anchor="middle" x="1385" y="-62" font-family="Helvetica,sans-Serif" font-size="10.00">_support.hpp</text>
</a>
</g>
</g>
<!-- Node2&#45;&gt;Node21 -->
<g id="edge22" class="edge">
<title>Node2&#45;&gt;Node21</title>
<path fill="none" stroke="#63b8ff" d="M1717.68,-129.02C1655.7,-120.68 1546.27,-104.61 1450.94,-87.04"/>
<polygon fill="#63b8ff" stroke="#63b8ff" points="1451.76,-83.44 1441.29,-85.05 1450.48,-90.32 1451.76,-83.44"/>
</g>
<!-- Node22 -->
<g id="node22" class="node">
<title>Node22</title>
<g id="a_node22"><a xlink:href="forward__declarations_8hpp.html" target="_top" xlink:title=" ">
<polygon fill="white" stroke="#666666" points="1570,-85 1458,-85 1458,-55 1570,-55 1570,-85"/>
<text text-anchor="start" x="1466" y="-73" font-family="Helvetica,sans-Serif" font-size="10.00">linear_algebra/forward</text>
<text text-anchor="middle" x="1514" y="-62" font-family="Helvetica,sans-Serif" font-size="10.00">_declarations.hpp</text>
</a>
</g>
</g>
<!-- Node2&#45;&gt;Node22 -->
<g id="edge24" class="edge">
<title>Node2&#45;&gt;Node22</title>
<path fill="none" stroke="#63b8ff" d="M1717.66,-123.85C1677.02,-113.99 1619.29,-99.46 1575.63,-88.12"/>
<polygon fill="#63b8ff" stroke="#63b8ff" points="1576.69,-84.52 1566.13,-85.39 1574.93,-91.3 1576.69,-84.52"/>
</g>
<!-- Node23 -->
<g id="node23" class="node">
<title>Node23</title>
<g id="a_node23"><a xlink:href="tensor__concepts_8hpp.html" target="_top" xlink:title=" ">
<polygon fill="white" stroke="#666666" points="1695.5,-85 1588.5,-85 1588.5,-55 1695.5,-55 1695.5,-85"/>
<text text-anchor="start" x="1596.5" y="-73" font-family="Helvetica,sans-Serif" font-size="10.00">linear_algebra/tensor</text>
<text text-anchor="middle" x="1642" y="-62" font-family="Helvetica,sans-Serif" font-size="10.00">_concepts.hpp</text>
</a>
</g>
</g>
<!-- Node2&#45;&gt;Node23 -->
<g id="edge26" class="edge">
<title>Node2&#45;&gt;Node23</title>
<path fill="none" stroke="#63b8ff" d="M1733.21,-120.64C1714.7,-111.74 1691.99,-100.21 1673.81,-90.49"/>
<polygon fill="#63b8ff" stroke="#63b8ff" points="1675.69,-86.99 1665.22,-85.31 1672.36,-93.15 1675.69,-86.99"/>
</g>
<!-- Node24 -->
<g id="node24" class="node">
<title>Node24</title>
<g id="a_node24"><a xlink:href="vector__concepts_8hpp.html" target="_top" xlink:title=" ">
<polygon fill="white" stroke="#666666" points="1820.5,-85 1713.5,-85 1713.5,-55 1820.5,-55 1820.5,-85"/>
<text text-anchor="start" x="1721.5" y="-73" font-family="Helvetica,sans-Serif" font-size="10.00">linear_algebra/vector</text>
<text text-anchor="middle" x="1767" y="-62" font-family="Helvetica,sans-Serif" font-size="10.00">_concepts.hpp</text>
</a>
</g>
</g>
<!-- Node2&#45;&gt;Node24 -->
<g id="edge28" class="edge">
<title>Node2&#45;&gt;Node24</title>
<path fill="none" stroke="#63b8ff" d="M1761.28,-120.8C1760.33,-113.5 1760.04,-104.41 1760.4,-95.99"/>
<polygon fill="#63b8ff" stroke="#63b8ff" points="1763.95,-96.42 1761.29,-86.16 1756.98,-95.84 1763.95,-96.42"/>
</g>
<!-- Node25 -->
<g id="node25" class="node">
<title>Node25</title>
<g id="a_node25"><a xlink:href="matrix__concepts_8hpp.html" target="_top" xlink:title=" ">
<polygon fill="white" stroke="#666666" points="1945.5,-85 1838.5,-85 1838.5,-55 1945.5,-55 1945.5,-85"/>
<text text-anchor="start" x="1846.5" y="-73" font-family="Helvetica,sans-Serif" font-size="10.00">linear_algebra/matrix</text>
<text text-anchor="middle" x="1892" y="-62" font-family="Helvetica,sans-Serif" font-size="10.00">_concepts.hpp</text>
</a>
</g>
</g>
<!-- Node2&#45;&gt;Node25 -->
<g id="edge30" class="edge">
<title>Node2&#45;&gt;Node25</title>
<path fill="none" stroke="#63b8ff" d="M1789.31,-120.64C1805.77,-111.62 1828.52,-99.89 1848.48,-90.09"/>
<polygon fill="#63b8ff" stroke="#63b8ff" points="1849.84,-92.83 1857.31,-85.31 1846.78,-86.54 1849.84,-92.83"/>
</g>
<!-- Node26 -->
<g id="node26" class="node">
<title>Node26</title>
<g id="a_node26"><a xlink:href="tensor__view_8hpp.html" target="_top" xlink:title=" ">
<polygon fill="white" stroke="#666666" points="2070.5,-85 1963.5,-85 1963.5,-55 2070.5,-55 2070.5,-85"/>
<text text-anchor="start" x="1971.5" y="-73" font-family="Helvetica,sans-Serif" font-size="10.00">linear_algebra/tensor</text>
<text text-anchor="middle" x="2017" y="-62" font-family="Helvetica,sans-Serif" font-size="10.00">_view.hpp</text>
</a>
</g>
</g>
<!-- Node2&#45;&gt;Node26 -->
<g id="edge32" class="edge">
<title>Node2&#45;&gt;Node26</title>
<path fill="none" stroke="#63b8ff" d="M1816.46,-120.88C1855.54,-110.53 1910.29,-96.5 1952.75,-85.96"/>
<polygon fill="#63b8ff" stroke="#63b8ff" points="1953.39,-89.16 1962.26,-83.36 1951.71,-82.36 1953.39,-89.16"/>
</g>
<!-- Node27 -->
<g id="node27" class="node">
<title>Node27</title>
<g id="a_node27"><a xlink:href="vector__view_8hpp.html" target="_top" xlink:title=" ">
<polygon fill="white" stroke="#666666" points="2195.5,-85 2088.5,-85 2088.5,-55 2195.5,-55 2195.5,-85"/>
<text text-anchor="start" x="2096.5" y="-73" font-family="Helvetica,sans-Serif" font-size="10.00">linear_algebra/vector</text>
<text text-anchor="middle" x="2142" y="-62" font-family="Helvetica,sans-Serif" font-size="10.00">_view.hpp</text>
</a>
</g>
</g>
<!-- Node2&#45;&gt;Node27 -->
<g id="edge34" class="edge">
<title>Node2&#45;&gt;Node27</title>
<path fill="none" stroke="#63b8ff" d="M1816.32,-127.17C1876.64,-118.12 1981.43,-102.25 2071,-85 2073.16,-84.58 2075.36,-84.15 2077.58,-83.7"/>
<polygon fill="#63b8ff" stroke="#63b8ff" points="2078.03,-86.97 2087.1,-81.51 2076.6,-80.12 2078.03,-86.97"/>
</g>
<!-- Node28 -->
<g id="node28" class="node">
<title>Node28</title>
<g id="a_node28"><a xlink:href="matrix__view_8hpp.html" target="_top" xlink:title=" ">
<polygon fill="white" stroke="#666666" points="2320.5,-85 2213.5,-85 2213.5,-55 2320.5,-55 2320.5,-85"/>
<text text-anchor="start" x="2221.5" y="-73" font-family="Helvetica,sans-Serif" font-size="10.00">linear_algebra/matrix</text>
<text text-anchor="middle" x="2267" y="-62" font-family="Helvetica,sans-Serif" font-size="10.00">_view.hpp</text>
</a>
</g>
</g>
<!-- Node2&#45;&gt;Node28 -->
<g id="edge36" class="edge">
<title>Node2&#45;&gt;Node28</title>
<path fill="none" stroke="#63b8ff" d="M1816.43,-130.63C1896.57,-123.6 2059.23,-108.18 2196,-85 2198.17,-84.63 2200.37,-84.24 2202.6,-83.82"/>
<polygon fill="#63b8ff" stroke="#63b8ff" points="2203.01,-87.11 2212.15,-81.75 2201.66,-80.24 2203.01,-87.11"/>
</g>
<!-- Node29 -->
<g id="node29" class="node">
<title>Node29</title>
<g id="a_node29"><a xlink:href="tensor__view__impl_8hpp.html" target="_top" xlink:title=" ">
<polygon fill="white" stroke="#666666" points="2445.5,-85 2338.5,-85 2338.5,-55 2445.5,-55 2445.5,-85"/>
<text text-anchor="start" x="2346.5" y="-73" font-family="Helvetica,sans-Serif" font-size="10.00">linear_algebra/tensor</text>
<text text-anchor="middle" x="2392" y="-62" font-family="Helvetica,sans-Serif" font-size="10.00">_view_impl.hpp</text>
</a>
</g>
</g>
<!-- Node2&#45;&gt;Node29 -->
<g id="edge38" class="edge">
<title>Node2&#45;&gt;Node29</title>
<path fill="none" stroke="#63b8ff" d="M1816.38,-132.57C1913.57,-127.56 2135.83,-114 2321,-85 2323.17,-84.66 2325.38,-84.29 2327.61,-83.89"/>
<polygon fill="#63b8ff" stroke="#63b8ff" points="2328,-87.19 2337.17,-81.88 2326.69,-80.31 2328,-87.19"/>
</g>
<!-- Node30 -->
<g id="node30" class="node">
<title>Node30</title>
<g id="a_node30"><a xlink:href="fixed__size__tensor_8hpp.html" target="_top" xlink:title=" ">
<polygon fill="white" stroke="#666666" points="2564.5,-85 2463.5,-85 2463.5,-55 2564.5,-55 2564.5,-85"/>
<text text-anchor="start" x="2471.5" y="-73" font-family="Helvetica,sans-Serif" font-size="10.00">linear_algebra/fixed</text>
<text text-anchor="middle" x="2514" y="-62" font-family="Helvetica,sans-Serif" font-size="10.00">_size_tensor.hpp</text>
</a>
</g>
</g>
<!-- Node2&#45;&gt;Node30 -->
<g id="edge40" class="edge">
<title>Node2&#45;&gt;Node30</title>
<path fill="none" stroke="#63b8ff" d="M1816.44,-134.01C1928.95,-131.23 2211.93,-121.04 2446,-85 2448.07,-84.68 2450.17,-84.33 2452.29,-83.95"/>
<polygon fill="#63b8ff" stroke="#63b8ff" points="2452.88,-87.2 2462.02,-81.85 2451.54,-80.33 2452.88,-87.2"/>
</g>
<!-- Node31 -->
<g id="node31" class="node">
<title>Node31</title>
<g id="a_node31"><a xlink:href="fixed__size__matrix_8hpp.html" target="_top" xlink:title=" ">
<polygon fill="white" stroke="#666666" points="2683.5,-85 2582.5,-85 2582.5,-55 2683.5,-55 2683.5,-85"/>
<text text-anchor="start" x="2590.5" y="-73" font-family="Helvetica,sans-Serif" font-size="10.00">linear_algebra/fixed</text>
<text text-anchor="middle" x="2633" y="-62" font-family="Helvetica,sans-Serif" font-size="10.00">_size_matrix.hpp</text>
</a>
</g>
</g>
<!-- Node2&#45;&gt;Node31 -->
<g id="edge43" class="edge">
<title>Node2&#45;&gt;Node31</title>
<path fill="none" stroke="#63b8ff" d="M1816.15,-134.84C1941.69,-133.76 2283.48,-126.81 2565,-85 2567.07,-84.69 2569.17,-84.35 2571.3,-83.98"/>
<polygon fill="#63b8ff" stroke="#63b8ff" points="2571.88,-87.24 2581.03,-81.9 2570.55,-80.36 2571.88,-87.24"/>
</g>
<!-- Node32 -->
<g id="node32" class="node">
<title>Node32</title>
<g id="a_node32"><a xlink:href="dynamic__matrix_8hpp.html" target="_top" xlink:title=" ">
<polygon fill="white" stroke="#666666" points="2818,-85 2702,-85 2702,-55 2818,-55 2818,-85"/>
<text text-anchor="start" x="2710" y="-73" font-family="Helvetica,sans-Serif" font-size="10.00">linear_algebra/dynamic</text>
<text text-anchor="middle" x="2760" y="-62" font-family="Helvetica,sans-Serif" font-size="10.00">_matrix.hpp</text>
</a>
</g>
</g>
<!-- Node2&#45;&gt;Node32 -->
<g id="edge45" class="edge">
<title>Node2&#45;&gt;Node32</title>
<path fill="none" stroke="#63b8ff" d="M1816.47,-134.95C1954.48,-134.19 2354.54,-128.06 2684,-85 2686.35,-84.69 2688.73,-84.35 2691.14,-83.98"/>
<polygon fill="#63b8ff" stroke="#63b8ff" points="2691.53,-87.29 2700.81,-82.18 2690.37,-80.39 2691.53,-87.29"/>
</g>
<!-- Node33 -->
<g id="node33" class="node">
<title>Node33</title>
<g id="a_node33"><a xlink:href="fixed__size__vector_8hpp.html" target="_top" xlink:title=" ">
<polygon fill="white" stroke="#666666" points="2937.5,-85 2836.5,-85 2836.5,-55 2937.5,-55 2937.5,-85"/>
<text text-anchor="start" x="2844.5" y="-73" font-family="Helvetica,sans-Serif" font-size="10.00">linear_algebra/fixed</text>
<text text-anchor="middle" x="2887" y="-62" font-family="Helvetica,sans-Serif" font-size="10.00">_size_vector.hpp</text>
</a>
</g>
</g>
<!-- Node2&#45;&gt;Node33 -->
<g id="edge47" class="edge">
<title>Node2&#45;&gt;Node33</title>
<path fill="none" stroke="#63b8ff" d="M1816.32,-133.78C1996.76,-129.3 2620.13,-112.52 2818,-85 2820.5,-84.65 2823.05,-84.25 2825.63,-83.8"/>
<polygon fill="#63b8ff" stroke="#63b8ff" points="2826.14,-87.08 2835.31,-81.77 2824.84,-80.2 2826.14,-87.08"/>
</g>
<!-- Node34 -->
<g id="node34" class="node">
<title>Node34</title>
<g id="a_node34"><a xlink:href="dynamic__vector_8hpp.html" target="_top" xlink:title=" ">
<polygon fill="white" stroke="#666666" points="3072,-85 2956,-85 2956,-55 3072,-55 3072,-85"/>
<text text-anchor="start" x="2964" y="-73" font-family="Helvetica,sans-Serif" font-size="10.00">linear_algebra/dynamic</text>
<text text-anchor="middle" x="3014" y="-62" font-family="Helvetica,sans-Serif" font-size="10.00">_vector.hpp</text>
</a>
</g>
</g>
<!-- Node2&#45;&gt;Node34 -->
<g id="edge49" class="edge">
<title>Node2&#45;&gt;Node34</title>
<path fill="none" stroke="#63b8ff" d="M1816.5,-133.91C2010.04,-129.63 2715.2,-112.81 2938,-85 2940.35,-84.71 2942.73,-84.37 2945.15,-84.01"/>
<polygon fill="#63b8ff" stroke="#63b8ff" points="2945.53,-87.33 2954.82,-82.24 2944.38,-80.42 2945.53,-87.33"/>
</g>
<!-- Node35 -->
<g id="node35" class="node">
<title>Node35</title>
<g id="a_node35"><a xlink:href="instant__evaluated__operations_8hpp.html" target="_top" xlink:title=" ">
<polygon fill="white" stroke="#666666" points="3223.5,-85 3090.5,-85 3090.5,-55 3223.5,-55 3223.5,-85"/>
<text text-anchor="start" x="3098.5" y="-73" font-family="Helvetica,sans-Serif" font-size="10.00">linear_algebra/instant</text>
<text text-anchor="middle" x="3157" y="-62" font-family="Helvetica,sans-Serif" font-size="10.00">_evaluated_operations.hpp</text>
</a>
</g>
</g>
<!-- Node2&#45;&gt;Node35 -->
<g id="edge51" class="edge">
<title>Node2&#45;&gt;Node35</title>
<path fill="none" stroke="#63b8ff" d="M1816.35,-134.01C2023.27,-129.86 2821.13,-112.73 3072,-85 3074.38,-84.74 3076.8,-84.44 3079.25,-84.12"/>
<polygon fill="#63b8ff" stroke="#63b8ff" points="3079.68,-87.45 3089.08,-82.57 3078.69,-80.52 3079.68,-87.45"/>
</g>
<!-- Node36 -->
<g id="node36" class="node">
<title>Node36</title>
<g id="a_node36"><a xlink:href="arithmetic__operators_8hpp.html" target="_top" xlink:title=" ">
<polygon fill="white" stroke="#666666" points="3364,-85 3242,-85 3242,-55 3364,-55 3364,-85"/>
<text text-anchor="start" x="3250" y="-73" font-family="Helvetica,sans-Serif" font-size="10.00">linear_algebra/arithmetic</text>
<text text-anchor="middle" x="3303" y="-62" font-family="Helvetica,sans-Serif" font-size="10.00">_operators.hpp</text>
</a>
</g>
</g>
<!-- Node2&#45;&gt;Node36 -->
<g id="edge53" class="edge">
<title>Node2&#45;&gt;Node36</title>
<path fill="none" stroke="#63b8ff" d="M1816.32,-134.36C2037.86,-131.41 2941.79,-117.81 3224,-85 3226.35,-84.73 3228.74,-84.42 3231.15,-84.08"/>
<polygon fill="#63b8ff" stroke="#63b8ff" points="3231.49,-87.41 3240.84,-82.41 3230.42,-80.49 3231.49,-87.41"/>
</g>
<!-- Node17&#45;&gt;Node16 -->
<g id="edge17" class="edge">
<title>Node17&#45;&gt;Node16</title>
<path fill="none" stroke="#63b8ff" d="M916.87,-54.54C911.27,-46.56 904.29,-36.59 898.38,-28.16"/>
<polygon fill="#63b8ff" stroke="#63b8ff" points="900.69,-26.36 892.08,-20.18 894.95,-30.37 900.69,-26.36"/>
</g>
<!-- Node18&#45;&gt;Node15 -->
<g id="edge19" class="edge">
<title>Node18&#45;&gt;Node15</title>
<path fill="none" stroke="#63b8ff" d="M1088.85,-60.12C1076.4,-51.01 1056.8,-36.68 1041.86,-25.75"/>
<polygon fill="#63b8ff" stroke="#63b8ff" points="1044.4,-22.55 1034.26,-19.47 1040.27,-28.2 1044.4,-22.55"/>
</g>
<!-- Node19 -->
<g id="node19" class="node">
<title>Node19</title>
<g id="a_node19"><a xlink:title=" ">
<polygon fill="#e0e0e0" stroke="#999999" points="1121,-19 1081,-19 1081,0 1121,0 1121,-19"/>
<text text-anchor="middle" x="1101" y="-7" font-family="Helvetica,sans-Serif" font-size="10.00">utility</text>
</a>
</g>
</g>
<!-- Node18&#45;&gt;Node19 -->
<g id="edge20" class="edge">
<title>Node18&#45;&gt;Node19</title>
<path fill="none" stroke="#63b8ff" d="M1101,-60.37C1101,-52.42 1101,-40.33 1101,-30.05"/>
<polygon fill="#63b8ff" stroke="#63b8ff" points="1104.5,-30.17 1101,-20.17 1097.5,-30.17 1104.5,-30.17"/>
</g>
<!-- Node21&#45;&gt;Node2 -->
<g id="edge23" class="edge">
<title>Node21&#45;&gt;Node2</title>
<path fill="none" stroke="#63b8ff" d="M1439.65,-81.35C1445.86,-82.64 1452.08,-83.89 1458,-85 1544.27,-101.2 1644.39,-116.35 1706.81,-125.63"/>
<polygon fill="#63b8ff" stroke="#63b8ff" points="1706.22,-129.23 1716.63,-127.24 1707.25,-122.31 1706.22,-129.23"/>
</g>
<!-- Node22&#45;&gt;Node2 -->
<g id="edge25" class="edge">
<title>Node22&#45;&gt;Node2</title>
<path fill="none" stroke="#63b8ff" d="M1570.45,-83.88C1611.14,-93.81 1665.88,-107.61 1707.29,-118.38"/>
<polygon fill="#63b8ff" stroke="#63b8ff" points="1706.22,-121.98 1716.78,-121.11 1707.99,-115.2 1706.22,-121.98"/>
</g>
<!-- Node23&#45;&gt;Node2 -->
<g id="edge27" class="edge">
<title>Node23&#45;&gt;Node2</title>
<path fill="none" stroke="#63b8ff" d="M1675.69,-85.31C1694.19,-94.2 1716.89,-105.73 1735.1,-115.45"/>
<polygon fill="#63b8ff" stroke="#63b8ff" points="1733.23,-118.96 1743.69,-120.64 1736.55,-112.8 1733.23,-118.96"/>
</g>
<!-- Node24&#45;&gt;Node2 -->
<g id="edge29" class="edge">
<title>Node24&#45;&gt;Node2</title>
<path fill="none" stroke="#63b8ff" d="M1772.71,-85.16C1773.66,-92.45 1773.96,-101.55 1773.61,-109.97"/>
<polygon fill="#63b8ff" stroke="#63b8ff" points="1770.05,-109.54 1772.72,-119.8 1777.02,-110.11 1770.05,-109.54"/>
</g>
<!-- Node25&#45;&gt;Node2 -->
<g id="edge31" class="edge">
<title>Node25&#45;&gt;Node2</title>
<path fill="none" stroke="#63b8ff" d="M1869.78,-85.31C1853.34,-94.32 1830.59,-106.05 1810.63,-115.86"/>
<polygon fill="#63b8ff" stroke="#63b8ff" points="1809.26,-113.12 1801.79,-120.64 1812.32,-119.41 1809.26,-113.12"/>
</g>
<!-- Node26&#45;&gt;Node2 -->
<g id="edge33" class="edge">
<title>Node26&#45;&gt;Node2</title>
<path fill="none" stroke="#63b8ff" d="M1966.35,-85.44C1926,-96.11 1869.51,-110.57 1826.92,-121.11"/>
<polygon fill="#63b8ff" stroke="#63b8ff" points="1826.28,-117.91 1817.41,-123.71 1827.96,-124.71 1826.28,-117.91"/>
</g>
<!-- Node27&#45;&gt;Node2 -->
<g id="edge35" class="edge">
<title>Node27&#45;&gt;Node2</title>
<path fill="none" stroke="#63b8ff" d="M2088.16,-85.16C1997.79,-102.54 1892.11,-118.5 1827.29,-127.47"/>
<polygon fill="#63b8ff" stroke="#63b8ff" points="1826.89,-124.13 1817.46,-128.95 1827.84,-131.06 1826.89,-124.13"/>
</g>
<!-- Node28&#45;&gt;Node2 -->
<g id="edge37" class="edge">
<title>Node28&#45;&gt;Node2</title>
<path fill="none" stroke="#63b8ff" d="M2213.16,-85.14C2076.15,-108.31 1913.41,-123.71 1827.26,-130.69"/>
<polygon fill="#63b8ff" stroke="#63b8ff" points="1827.07,-127.28 1817.39,-131.56 1827.63,-134.25 1827.07,-127.28"/>
</g>
<!-- Node29&#45;&gt;Node2 -->
<g id="edge39" class="edge">
<title>Node29&#45;&gt;Node2</title>
<path fill="none" stroke="#63b8ff" d="M2338.16,-85.13C2153.34,-114.01 1931.86,-127.54 1827.22,-132.56"/>
<polygon fill="#63b8ff" stroke="#63b8ff" points="1827.08,-129.11 1817.26,-133.07 1827.41,-136.1 1827.08,-129.11"/>
</g>
<!-- Node30&#45;&gt;Node2 -->
<g id="edge41" class="edge">
<title>Node30&#45;&gt;Node2</title>
<path fill="none" stroke="#63b8ff" d="M2463.3,-85.11C2230.13,-120.94 1948.68,-131.17 1827.34,-133.98"/>
<polygon fill="#63b8ff" stroke="#63b8ff" points="1827.37,-130.5 1817.45,-134.22 1827.52,-137.5 1827.37,-130.5"/>
</g>
<!-- Node31&#45;&gt;Node2 -->
<g id="edge44" class="edge">
<title>Node31&#45;&gt;Node2</title>
<path fill="none" stroke="#63b8ff" d="M2582.16,-85.13C2302.07,-126.63 1962.65,-133.69 1827.05,-134.82"/>
<polygon fill="#63b8ff" stroke="#63b8ff" points="1827.08,-131.33 1817.1,-134.9 1827.13,-138.33 1827.08,-131.33"/>
</g>
<!-- Node32&#45;&gt;Node2 -->
<g id="edge46" class="edge">
<title>Node32&#45;&gt;Node2</title>
<path fill="none" stroke="#63b8ff" d="M2701.51,-85.06C2373.37,-127.91 1975.38,-134.14 1826.7,-134.94"/>
<polygon fill="#63b8ff" stroke="#63b8ff" points="1826.99,-131.44 1817.01,-134.99 1827.03,-138.44 1826.99,-131.44"/>
</g>
<!-- Node33&#45;&gt;Node2 -->
<g id="edge48" class="edge">
<title>Node33&#45;&gt;Node2</title>
<path fill="none" stroke="#63b8ff" d="M2835.71,-85.04C2638.82,-112.35 2022.87,-129.08 1827.21,-133.69"/>
<polygon fill="#63b8ff" stroke="#63b8ff" points="1827.22,-130.21 1817.3,-133.95 1827.38,-137.21 1827.22,-130.21"/>
</g>
<!-- Node34&#45;&gt;Node2 -->
<g id="edge50" class="edge">
<title>Node34&#45;&gt;Node2</title>
<path fill="none" stroke="#63b8ff" d="M2955.67,-85.04C2733.93,-112.65 2036.88,-129.42 1827.19,-133.83"/>
<polygon fill="#63b8ff" stroke="#63b8ff" points="1827.33,-130.35 1817.41,-134.05 1827.48,-137.34 1827.33,-130.35"/>
</g>
<!-- Node35&#45;&gt;Node2 -->
<g id="edge52" class="edge">
<title>Node35&#45;&gt;Node2</title>
<path fill="none" stroke="#63b8ff" d="M3089.63,-85.04C2839.99,-112.57 2051.65,-129.64 1827.14,-133.93"/>
<polygon fill="#63b8ff" stroke="#63b8ff" points="1827.19,-130.45 1817.26,-134.14 1827.32,-137.45 1827.19,-130.45"/>
</g>
<!-- Node36&#45;&gt;Node2 -->
<g id="edge54" class="edge">
<title>Node36&#45;&gt;Node2</title>
<path fill="none" stroke="#63b8ff" d="M3241.58,-85.05C2960.82,-117.6 2068,-131.23 1827.25,-134.3"/>
<polygon fill="#63b8ff" stroke="#63b8ff" points="1827.24,-130.81 1817.28,-134.44 1827.33,-137.81 1827.24,-130.81"/>
</g>
</g>
</svg>
        <g id="navigator" transform="translate(0 0)" fill="#404254">
                <rect fill="#f2f5e9" fill-opacity="0.5" stroke="#606060" stroke-width=".5" x="0" y="0" width="60" height="60"/>
                <use id="zoomplus" xlink:href="#zoomPlus" x="17" y="9" onmousedown="handleZoom(evt,'in')"/>
                <use id="zoomminus" xlink:href="#zoomMin" x="42" y="9" onmousedown="handleZoom(evt,'out')"/>
                <use id="reset" xlink:href="#resetDef" x="30" y="36" onmousedown="handleReset()"/>
                <g id="arrowUp" xlink:href="#dirArrow" transform="translate(30 24)" onmousedown="handlePan(0,-1)">
                  <use xlink:href="#rim" fill="#404040">
                        <set attributeName="fill" to="#808080" begin="arrowUp.mouseover" end="arrowUp.mouseout"/>
                  </use>
                  <path fill="none" stroke="white" stroke-width="1.5" d="M0,-3.0v7 M-2.5,-0.5L0,-3.0L2.5,-0.5"/>
                </g>
                <g id="arrowRight" xlink:href="#dirArrow" transform="rotate(90) translate(36 -43)" onmousedown="handlePan(1,0)">
                  <use xlink:href="#rim" fill="#404040">
                        <set attributeName="fill" to="#808080" begin="arrowRight.mouseover" end="arrowRight.mouseout"/>
                  </use>
                  <path fill="none" stroke="white" stroke-width="1.5" d="M0,-3.0v7 M-2.5,-0.5L0,-3.0L2.5,-0.5"/>
                </g>
                <g id="arrowDown" xlink:href="#dirArrow" transform="rotate(180) translate(-30 -48)" onmousedown="handlePan(0,1)">
                  <use xlink:href="#rim" fill="#404040">
                        <set attributeName="fill" to="#808080" begin="arrowDown.mouseover" end="arrowDown.mouseout"/>
                  </use>
                  <path fill="none" stroke="white" stroke-width="1.5" d="M0,-3.0v7 M-2.5,-0.5L0,-3.0L2.5,-0.5"/>
                </g>
                <g id="arrowLeft" xlink:href="#dirArrow" transform="rotate(270) translate(-36 17)" onmousedown="handlePan(-1,0)">
                  <use xlink:href="#rim" fill="#404040">
                        <set attributeName="fill" to="#808080" begin="arrowLeft.mouseover" end="arrowLeft.mouseout"/>
                  </use>
                  <path fill="none" stroke="white" stroke-width="1.5" d="M0,-3.0v7 M-2.5,-0.5L0,-3.0L2.5,-0.5"/>
                </g>
        </g>
        <svg viewBox="0 0 15 15" width="100%" height="30px" preserveAspectRatio="xMaxYMin meet">
         <g id="arrow_out" transform="scale(0.3 0.3)">
          <a xlink:href="dynamic__tensor_8hpp__incl_org.svg" target="_base">
           <rect id="button" ry="5" rx="5" y="6" x="6" height="38" width="38"
                fill="#f2f5e9" fill-opacity="0.5" stroke="#606060" stroke-width="1.0"/>
           <path id="arrow"
             d="M 11.500037,31.436501 C 11.940474,20.09759 22.043105,11.32322 32.158766,21.979434 L 37.068811,17.246167 C 37.068811,17.246167 37.088388,32 37.088388,32 L 22.160133,31.978069 C 22.160133,31.978069 26.997745,27.140456 26.997745,27.140456 C 18.528582,18.264221 13.291696,25.230495 11.500037,31.436501 z"
             style="fill:#404040;"/>
          </a>
         </g>
        </svg>
</svg>
