<?xml version="1.0" encoding="UTF-8" standalone="no"?>
<!DOCTYPE svg PUBLIC "-//W3C//DTD SVG 1.1//EN"
 "http://www.w3.org/Graphics/SVG/1.1/DTD/svg11.dtd">
<!-- Generated by graphviz version 8.0.1 (20230327.1645)
 -->
<!-- Title: include/experimental/linear_algebra/fixed_size_matrix.hpp Pages: 1 -->
<svg width="1843pt" height="192pt"
 viewBox="0.00 0.00 1842.50 192.00" xmlns="http://www.w3.org/2000/svg" xmlns:xlink="http://www.w3.org/1999/xlink">
<g id="graph0" class="graph" transform="scale(1 1) rotate(0) translate(4 188)">
<title>include/experimental/linear_algebra/fixed_size_matrix.hpp</title>
<!-- Node1 -->
<g id="node1" class="node">
<title>Node1</title>
<g id="a_node1"><a xlink:title=" ">
<polygon fill="#999999" stroke="#666666" points="992.5,-184 886.5,-184 886.5,-143 992.5,-143 992.5,-184"/>
<text text-anchor="start" x="894.5" y="-172" font-family="Helvetica,sans-Serif" font-size="10.00">include/experimental</text>
<text text-anchor="start" x="894.5" y="-161" font-family="Helvetica,sans-Serif" font-size="10.00">/linear_algebra/fixed</text>
<text text-anchor="middle" x="939.5" y="-150" font-family="Helvetica,sans-Serif" font-size="10.00">_size_matrix.hpp</text>
</a>
</g>
</g>
<!-- Node2 -->
<g id="node2" class="node">
<title>Node2</title>
<g id="a_node2"><a xlink:href="linear__algebra_8hpp.html" target="_top" xlink:title=" ">
<polygon fill="white" stroke="#666666" points="992.5,-107 886.5,-107 886.5,-77 992.5,-77 992.5,-107"/>
<text text-anchor="start" x="894.5" y="-95" font-family="Helvetica,sans-Serif" font-size="10.00">include/experimental</text>
<text text-anchor="middle" x="939.5" y="-84" font-family="Helvetica,sans-Serif" font-size="10.00">/linear_algebra.hpp</text>
</a>
</g>
</g>
<!-- Node1&#45;&gt;Node2 -->
<g id="edge1" class="edge">
<title>Node1&#45;&gt;Node2</title>
<path fill="none" stroke="#63b8ff" d="M932.79,-131.95C932.61,-123.44 932.98,-114.59 933.9,-107.47"/>
<polygon fill="#63b8ff" stroke="#63b8ff" points="929.34,-131.96 933.34,-141.77 936.33,-131.6 929.34,-131.96"/>
</g>
<!-- Node2&#45;&gt;Node1 -->
<g id="edge10" class="edge">
<title>Node2&#45;&gt;Node1</title>
<path fill="none" stroke="#63b8ff" d="M946.02,-118.21C946.42,-126.3 946.3,-135.13 945.66,-142.77"/>
<polygon fill="#63b8ff" stroke="#63b8ff" points="949.44,-118.14 945.1,-108.47 942.47,-118.74 949.44,-118.14"/>
</g>
<!-- Node3 -->
<g id="node3" class="node">
<title>Node3</title>
<g id="a_node3"><a xlink:href="arithmetic__operators_8hpp.html" target="_top" xlink:title=" ">
<polygon fill="white" stroke="#666666" points="125,-41 0,-41 0,0 125,0 125,-41"/>
<text text-anchor="start" x="8" y="-29" font-family="Helvetica,sans-Serif" font-size="10.00">include/experimental</text>
<text text-anchor="start" x="8" y="-18" font-family="Helvetica,sans-Serif" font-size="10.00">/linear_algebra/arithmetic</text>
<text text-anchor="middle" x="62.5" y="-7" font-family="Helvetica,sans-Serif" font-size="10.00">_operators.hpp</text>
</a>
</g>
</g>
<!-- Node2&#45;&gt;Node3 -->
<g id="edge2" class="edge">
<title>Node2&#45;&gt;Node3</title>
<path fill="none" stroke="#63b8ff" d="M875.34,-91.48C737.06,-91.66 401.55,-87.03 125.33,-41.14"/>
<polygon fill="#63b8ff" stroke="#63b8ff" points="875.14,-94.98 885.14,-91.46 875.13,-87.98 875.14,-94.98"/>
</g>
<!-- Node4 -->
<g id="node4" class="node">
<title>Node4</title>
<g id="a_node4"><a xlink:href="dynamic__matrix_8hpp.html" target="_top" xlink:title=" ">
<polygon fill="white" stroke="#666666" points="262,-41 143,-41 143,0 262,0 262,-41"/>
<text text-anchor="start" x="151" y="-29" font-family="Helvetica,sans-Serif" font-size="10.00">include/experimental</text>
<text text-anchor="start" x="151" y="-18" font-family="Helvetica,sans-Serif" font-size="10.00">/linear_algebra/dynamic</text>
<text text-anchor="middle" x="202.5" y="-7" font-family="Helvetica,sans-Serif" font-size="10.00">_matrix.hpp</text>
</a>
</g>
</g>
<!-- Node2&#45;&gt;Node4 -->
<g id="edge4" class="edge">
<title>Node2&#45;&gt;Node4</title>
<path fill="none" stroke="#63b8ff" d="M875.21,-90.63C754.09,-89 484.69,-80.83 262.17,-41.12"/>
<polygon fill="#63b8ff" stroke="#63b8ff" points="875.07,-94.14 885.11,-90.76 875.15,-87.14 875.07,-94.14"/>
</g>
<!-- Node5 -->
<g id="node5" class="node">
<title>Node5</title>
<g id="a_node5"><a xlink:href="dynamic__tensor_8hpp.html" target="_top" xlink:title=" ">
<polygon fill="white" stroke="#666666" points="399,-41 280,-41 280,0 399,0 399,-41"/>
<text text-anchor="start" x="288" y="-29" font-family="Helvetica,sans-Serif" font-size="10.00">include/experimental</text>
<text text-anchor="start" x="288" y="-18" font-family="Helvetica,sans-Serif" font-size="10.00">/linear_algebra/dynamic</text>
<text text-anchor="middle" x="339.5" y="-7" font-family="Helvetica,sans-Serif" font-size="10.00">_tensor.hpp</text>
</a>
</g>
</g>
<!-- Node2&#45;&gt;Node5 -->
<g id="edge6" class="edge">
<title>Node2&#45;&gt;Node5</title>
<path fill="none" stroke="#63b8ff" d="M875.57,-89.05C773.77,-84.99 569.32,-73.15 399.28,-41.15"/>
<polygon fill="#63b8ff" stroke="#63b8ff" points="875.15,-92.58 885.28,-89.47 875.43,-85.58 875.15,-92.58"/>
</g>
<!-- Node6 -->
<g id="node6" class="node">
<title>Node6</title>
<g id="a_node6"><a xlink:href="dynamic__vector_8hpp.html" target="_top" xlink:title=" ">
<polygon fill="white" stroke="#666666" points="536,-41 417,-41 417,0 536,0 536,-41"/>
<text text-anchor="start" x="425" y="-29" font-family="Helvetica,sans-Serif" font-size="10.00">include/experimental</text>
<text text-anchor="start" x="425" y="-18" font-family="Helvetica,sans-Serif" font-size="10.00">/linear_algebra/dynamic</text>
<text text-anchor="middle" x="476.5" y="-7" font-family="Helvetica,sans-Serif" font-size="10.00">_vector.hpp</text>
</a>
</g>
</g>
<!-- Node2&#45;&gt;Node6 -->
<g id="edge8" class="edge">
<title>Node2&#45;&gt;Node6</title>
<path fill="none" stroke="#63b8ff" d="M875.22,-86.36C795.18,-79.57 654.88,-65.07 536.86,-41.07"/>
<polygon fill="#63b8ff" stroke="#63b8ff" points="874.85,-89.92 885.11,-87.26 875.43,-82.94 874.85,-89.92"/>
</g>
<!-- Node7 -->
<g id="node7" class="node">
<title>Node7</title>
<g id="a_node7"><a xlink:href="fixed__size__tensor_8hpp.html" target="_top" xlink:title=" ">
<polygon fill="white" stroke="#666666" points="660.5,-41 554.5,-41 554.5,0 660.5,0 660.5,-41"/>
<text text-anchor="start" x="562.5" y="-29" font-family="Helvetica,sans-Serif" font-size="10.00">include/experimental</text>
<text text-anchor="start" x="562.5" y="-18" font-family="Helvetica,sans-Serif" font-size="10.00">/linear_algebra/fixed</text>
<text text-anchor="middle" x="607.5" y="-7" font-family="Helvetica,sans-Serif" font-size="10.00">_size_tensor.hpp</text>
</a>
</g>
</g>
<!-- Node2&#45;&gt;Node7 -->
<g id="edge11" class="edge">
<title>Node2&#45;&gt;Node7</title>
<path fill="none" stroke="#63b8ff" d="M875.41,-82.48C818.5,-73.83 733.55,-59.15 660.95,-41.11"/>
<polygon fill="#63b8ff" stroke="#63b8ff" points="874.65,-86.06 885.06,-84.08 875.69,-79.14 874.65,-86.06"/>
</g>
<!-- Node8 -->
<g id="node8" class="node">
<title>Node8</title>
<g id="a_node8"><a xlink:href="fixed__size__vector_8hpp.html" target="_top" xlink:title=" ">
<polygon fill="white" stroke="#666666" points="784.5,-41 678.5,-41 678.5,0 784.5,0 784.5,-41"/>
<text text-anchor="start" x="686.5" y="-29" font-family="Helvetica,sans-Serif" font-size="10.00">include/experimental</text>
<text text-anchor="start" x="686.5" y="-18" font-family="Helvetica,sans-Serif" font-size="10.00">/linear_algebra/fixed</text>
<text text-anchor="middle" x="731.5" y="-7" font-family="Helvetica,sans-Serif" font-size="10.00">_size_vector.hpp</text>
</a>
</g>
</g>
<!-- Node2&#45;&gt;Node8 -->
<g id="edge13" class="edge">
<title>Node2&#45;&gt;Node8</title>
<path fill="none" stroke="#63b8ff" d="M880.19,-73.18C850.13,-63.46 813.97,-51.4 784.8,-41.37"/>
<polygon fill="#63b8ff" stroke="#63b8ff" points="878.95,-76.78 889.55,-76.52 881.1,-70.12 878.95,-76.78"/>
</g>
<!-- Node9 -->
<g id="node9" class="node">
<title>Node9</title>
<g id="a_node9"><a xlink:href="instant__evaluated__operations_8hpp.html" target="_top" xlink:title=" ">
<polygon fill="white" stroke="#666666" points="936,-41 803,-41 803,0 936,0 936,-41"/>
<text text-anchor="start" x="811" y="-29" font-family="Helvetica,sans-Serif" font-size="10.00">include/experimental</text>
<text text-anchor="start" x="811" y="-18" font-family="Helvetica,sans-Serif" font-size="10.00">/linear_algebra/instant</text>
<text text-anchor="middle" x="869.5" y="-7" font-family="Helvetica,sans-Serif" font-size="10.00">_evaluated_operations.hpp</text>
</a>
</g>
</g>
<!-- Node2&#45;&gt;Node9 -->
<g id="edge15" class="edge">
<title>Node2&#45;&gt;Node9</title>
<path fill="none" stroke="#63b8ff" d="M911.52,-69.47C901.86,-60.52 891.5,-50.19 883.39,-41.42"/>
<polygon fill="#63b8ff" stroke="#63b8ff" points="908.64,-71.49 918.4,-75.6 913.33,-66.3 908.64,-71.49"/>
</g>
<!-- Node10 -->
<g id="node10" class="node">
<title>Node10</title>
<g id="a_node10"><a xlink:href="matrix__concepts_8hpp.html" target="_top" xlink:title=" ">
<polygon fill="white" stroke="#666666" points="1064.5,-41 954.5,-41 954.5,0 1064.5,0 1064.5,-41"/>
<text text-anchor="start" x="962.5" y="-29" font-family="Helvetica,sans-Serif" font-size="10.00">include/experimental</text>
<text text-anchor="start" x="962.5" y="-18" font-family="Helvetica,sans-Serif" font-size="10.00">/linear_algebra/matrix</text>
<text text-anchor="middle" x="1009.5" y="-7" font-family="Helvetica,sans-Serif" font-size="10.00">_concepts.hpp</text>
</a>
</g>
</g>
<!-- Node2&#45;&gt;Node10 -->
<g id="edge17" class="edge">
<title>Node2&#45;&gt;Node10</title>
<path fill="none" stroke="#63b8ff" d="M955.65,-68.66C963.89,-59.9 973.99,-49.93 983.27,-41.42"/>
<polygon fill="#63b8ff" stroke="#63b8ff" points="953.56,-65.85 949.41,-75.6 958.73,-70.57 953.56,-65.85"/>
</g>
<!-- Node11 -->
<g id="node11" class="node">
<title>Node11</title>
<g id="a_node11"><a xlink:href="matrix__view_8hpp.html" target="_top" xlink:title=" ">
<polygon fill="white" stroke="#666666" points="1192.5,-41 1082.5,-41 1082.5,0 1192.5,0 1192.5,-41"/>
<text text-anchor="start" x="1090.5" y="-29" font-family="Helvetica,sans-Serif" font-size="10.00">include/experimental</text>
<text text-anchor="start" x="1090.5" y="-18" font-family="Helvetica,sans-Serif" font-size="10.00">/linear_algebra/matrix</text>
<text text-anchor="middle" x="1137.5" y="-7" font-family="Helvetica,sans-Serif" font-size="10.00">_view.hpp</text>
</a>
</g>
</g>
<!-- Node2&#45;&gt;Node11 -->
<g id="edge19" class="edge">
<title>Node2&#45;&gt;Node11</title>
<path fill="none" stroke="#63b8ff" d="M985.17,-72.86C1014.09,-62.35 1051.59,-49.2 1082.19,-38.83"/>
<polygon fill="#63b8ff" stroke="#63b8ff" points="984.12,-69.88 975.93,-76.6 986.53,-76.46 984.12,-69.88"/>
</g>
<!-- Node12 -->
<g id="node12" class="node">
<title>Node12</title>
<g id="a_node12"><a xlink:href="private__support_8hpp.html" target="_top" xlink:title=" ">
<polygon fill="white" stroke="#666666" points="1322.5,-41 1210.5,-41 1210.5,0 1322.5,0 1322.5,-41"/>
<text text-anchor="start" x="1218.5" y="-29" font-family="Helvetica,sans-Serif" font-size="10.00">include/experimental</text>
<text text-anchor="start" x="1218.5" y="-18" font-family="Helvetica,sans-Serif" font-size="10.00">/linear_algebra/private</text>
<text text-anchor="middle" x="1266.5" y="-7" font-family="Helvetica,sans-Serif" font-size="10.00">_support.hpp</text>
</a>
</g>
</g>
<!-- Node2&#45;&gt;Node12 -->
<g id="edge21" class="edge">
<title>Node2&#45;&gt;Node12</title>
<path fill="none" stroke="#63b8ff" d="M1003.48,-79.41C1054.86,-70.33 1128.57,-56.65 1192.5,-41 1198.22,-39.6 1204.19,-38 1210.15,-36.34"/>
<polygon fill="#63b8ff" stroke="#63b8ff" points="1003.11,-76.1 993.87,-81.28 1004.32,-82.99 1003.11,-76.1"/>
</g>
<!-- Node13 -->
<g id="node13" class="node">
<title>Node13</title>
<g id="a_node13"><a xlink:href="tensor__concepts_8hpp.html" target="_top" xlink:title=" ">
<polygon fill="white" stroke="#666666" points="1450.5,-41 1340.5,-41 1340.5,0 1450.5,0 1450.5,-41"/>
<text text-anchor="start" x="1348.5" y="-29" font-family="Helvetica,sans-Serif" font-size="10.00">include/experimental</text>
<text text-anchor="start" x="1348.5" y="-18" font-family="Helvetica,sans-Serif" font-size="10.00">/linear_algebra/tensor</text>
<text text-anchor="middle" x="1395.5" y="-7" font-family="Helvetica,sans-Serif" font-size="10.00">_concepts.hpp</text>
</a>
</g>
</g>
<!-- Node2&#45;&gt;Node13 -->
<g id="edge23" class="edge">
<title>Node2&#45;&gt;Node13</title>
<path fill="none" stroke="#63b8ff" d="M1003.82,-85.58C1080.38,-78.71 1211.57,-64.8 1322.5,-41 1328.29,-39.76 1334.32,-38.24 1340.32,-36.6"/>
<polygon fill="#63b8ff" stroke="#63b8ff" points="1003.59,-82.18 993.93,-86.55 1004.2,-89.15 1003.59,-82.18"/>
</g>
<!-- Node14 -->
<g id="node14" class="node">
<title>Node14</title>
<g id="a_node14"><a xlink:href="tensor__view_8hpp.html" target="_top" xlink:title=" ">
<polygon fill="white" stroke="#666666" points="1578.5,-41 1468.5,-41 1468.5,0 1578.5,0 1578.5,-41"/>
<text text-anchor="start" x="1476.5" y="-29" font-family="Helvetica,sans-Serif" font-size="10.00">include/experimental</text>
<text text-anchor="start" x="1476.5" y="-18" font-family="Helvetica,sans-Serif" font-size="10.00">/linear_algebra/tensor</text>
<text text-anchor="middle" x="1523.5" y="-7" font-family="Helvetica,sans-Serif" font-size="10.00">_view.hpp</text>
</a>
</g>
</g>
<!-- Node2&#45;&gt;Node14 -->
<g id="edge25" class="edge">
<title>Node2&#45;&gt;Node14</title>
<path fill="none" stroke="#63b8ff" d="M1003.82,-88.7C1101.29,-84.39 1291.6,-72.52 1450.5,-41 1456.2,-39.87 1462.11,-38.44 1468,-36.86"/>
<polygon fill="#63b8ff" stroke="#63b8ff" points="1003.81,-85.24 993.97,-89.16 1004.11,-92.23 1003.81,-85.24"/>
</g>
<!-- Node15 -->
<g id="node15" class="node">
<title>Node15</title>
<g id="a_node15"><a xlink:href="vector__concepts_8hpp.html" target="_top" xlink:title=" ">
<polygon fill="white" stroke="#666666" points="1706.5,-41 1596.5,-41 1596.5,0 1706.5,0 1706.5,-41"/>
<text text-anchor="start" x="1604.5" y="-29" font-family="Helvetica,sans-Serif" font-size="10.00">include/experimental</text>
<text text-anchor="start" x="1604.5" y="-18" font-family="Helvetica,sans-Serif" font-size="10.00">/linear_algebra/vector</text>
<text text-anchor="middle" x="1651.5" y="-7" font-family="Helvetica,sans-Serif" font-size="10.00">_concepts.hpp</text>
</a>
</g>
</g>
<!-- Node2&#45;&gt;Node15 -->
<g id="edge27" class="edge">
<title>Node2&#45;&gt;Node15</title>
<path fill="none" stroke="#63b8ff" d="M1003.38,-90.6C1119.1,-88.82 1370.38,-80.24 1578.5,-41 1584.21,-39.92 1590.13,-38.52 1596.02,-36.97"/>
<polygon fill="#63b8ff" stroke="#63b8ff" points="1003.56,-87.11 993.61,-90.75 1003.65,-94.11 1003.56,-87.11"/>
</g>
<!-- Node16 -->
<g id="node16" class="node">
<title>Node16</title>
<g id="a_node16"><a xlink:href="vector__view_8hpp.html" target="_top" xlink:title=" ">
<polygon fill="white" stroke="#666666" points="1834.5,-41 1724.5,-41 1724.5,0 1834.5,0 1834.5,-41"/>
<text text-anchor="start" x="1732.5" y="-29" font-family="Helvetica,sans-Serif" font-size="10.00">include/experimental</text>
<text text-anchor="start" x="1732.5" y="-18" font-family="Helvetica,sans-Serif" font-size="10.00">/linear_algebra/vector</text>
<text text-anchor="middle" x="1779.5" y="-7" font-family="Helvetica,sans-Serif" font-size="10.00">_view.hpp</text>
</a>
</g>
</g>
<!-- Node2&#45;&gt;Node16 -->
<g id="edge29" class="edge">
<title>Node2&#45;&gt;Node16</title>
<path fill="none" stroke="#63b8ff" d="M1003.49,-91.87C1135.91,-92.43 1448.77,-87.91 1706.5,-41 1712.21,-39.96 1718.14,-38.58 1724.04,-37.04"/>
<polygon fill="#63b8ff" stroke="#63b8ff" points="1003.77,-88.37 993.75,-91.82 1003.73,-95.37 1003.77,-88.37"/>
</g>
<!-- Node3&#45;&gt;Node2 -->
<g id="edge3" class="edge">
<title>Node3&#45;&gt;Node2</title>
<path fill="none" stroke="#63b8ff" d="M136.19,-39.86C138.31,-40.27 140.42,-40.65 142.5,-41 419.78,-87.17 757.13,-91.69 886.05,-91.48"/>
<polygon fill="#63b8ff" stroke="#63b8ff" points="136.98,-36.23 126.47,-37.57 135.52,-43.08 136.98,-36.23"/>
</g>
<!-- Node4&#45;&gt;Node2 -->
<g id="edge5" class="edge">
<title>Node4&#45;&gt;Node2</title>
<path fill="none" stroke="#63b8ff" d="M272.9,-39.72C275.13,-40.18 277.33,-40.61 279.5,-41 502.78,-80.92 773.51,-89.04 886.32,-90.64"/>
<polygon fill="#63b8ff" stroke="#63b8ff" points="273.95,-36.14 263.42,-37.33 272.4,-42.96 273.95,-36.14"/>
</g>
<!-- Node5&#45;&gt;Node2 -->
<g id="edge7" class="edge">
<title>Node5&#45;&gt;Node2</title>
<path fill="none" stroke="#63b8ff" d="M409.91,-39.66C412.13,-40.14 414.33,-40.59 416.5,-41 586.51,-73.08 791.16,-84.95 886.27,-89.04"/>
<polygon fill="#63b8ff" stroke="#63b8ff" points="410.98,-36.08 400.44,-37.22 409.39,-42.9 410.98,-36.08"/>
</g>
<!-- Node6&#45;&gt;Node2 -->
<g id="edge9" class="edge">
<title>Node6&#45;&gt;Node2</title>
<path fill="none" stroke="#63b8ff" d="M546.98,-39.37C549.52,-39.95 552.03,-40.5 554.5,-41 671.9,-64.9 811.43,-79.39 886.16,-86.23"/>
<polygon fill="#63b8ff" stroke="#63b8ff" points="548.02,-35.78 537.48,-36.84 546.38,-42.59 548.02,-35.78"/>
</g>
<!-- Node7&#45;&gt;Node2 -->
<g id="edge12" class="edge">
<title>Node7&#45;&gt;Node2</title>
<path fill="none" stroke="#63b8ff" d="M671.46,-39.17C673.83,-39.81 676.19,-40.42 678.5,-41 749.74,-58.73 832.98,-73.22 886.04,-81.96"/>
<polygon fill="#63b8ff" stroke="#63b8ff" points="672.52,-35.55 661.94,-36.21 670.62,-42.29 672.52,-35.55"/>
</g>
<!-- Node8&#45;&gt;Node2 -->
<g id="edge14" class="edge">
<title>Node8&#45;&gt;Node2</title>
<path fill="none" stroke="#63b8ff" d="M794.81,-40.61C829.85,-51.98 872.15,-66.18 901.99,-76.6"/>
<polygon fill="#63b8ff" stroke="#63b8ff" points="796.25,-37.08 785.66,-37.34 794.1,-43.74 796.25,-37.08"/>
</g>
<!-- Node9&#45;&gt;Node2 -->
<g id="edge16" class="edge">
<title>Node9&#45;&gt;Node2</title>
<path fill="none" stroke="#63b8ff" d="M903.61,-48.8C913.53,-58.3 923.54,-68.57 930.59,-76.6"/>
<polygon fill="#63b8ff" stroke="#63b8ff" points="906.42,-46.7 896.73,-42.42 901.63,-51.81 906.42,-46.7"/>
</g>
<!-- Node10&#45;&gt;Node2 -->
<g id="edge18" class="edge">
<title>Node10&#45;&gt;Node2</title>
<path fill="none" stroke="#63b8ff" d="M988.06,-49.37C978.99,-58.7 968.54,-68.73 959.6,-76.6"/>
<polygon fill="#63b8ff" stroke="#63b8ff" points="990.26,-52.08 994.61,-42.42 985.19,-47.26 990.26,-52.08"/>
</g>
<!-- Node11&#45;&gt;Node2 -->
<g id="edge20" class="edge">
<title>Node11&#45;&gt;Node2</title>
<path fill="none" stroke="#63b8ff" d="M1076.99,-44.99C1047.86,-55.44 1013.5,-67.41 986.37,-76.52"/>
<polygon fill="#63b8ff" stroke="#63b8ff" points="1077.84,-48.05 1086.06,-41.37 1075.47,-41.46 1077.84,-48.05"/>
</g>
<!-- Node12&#45;&gt;Node2 -->
<g id="edge22" class="edge">
<title>Node12&#45;&gt;Node2</title>
<path fill="none" stroke="#63b8ff" d="M1199.51,-43.65C1127.46,-60.75 1045.42,-75.25 992.99,-83.54"/>
<polygon fill="#63b8ff" stroke="#63b8ff" points="1200.16,-46.85 1209.06,-41.11 1198.52,-40.05 1200.16,-46.85"/>
</g>
<!-- Node13&#45;&gt;Node2 -->
<g id="edge24" class="edge">
<title>Node13&#45;&gt;Node2</title>
<path fill="none" stroke="#63b8ff" d="M1329.66,-43.28C1209.16,-68.16 1067.91,-81.74 992.71,-87.55"/>
<polygon fill="#63b8ff" stroke="#63b8ff" points="1330.07,-46.56 1339.14,-41.08 1328.63,-39.71 1330.07,-46.56"/>
</g>
<!-- Node14&#45;&gt;Node2 -->
<g id="edge26" class="edge">
<title>Node14&#45;&gt;Node2</title>
<path fill="none" stroke="#63b8ff" d="M1457.66,-43.11C1288.34,-75.48 1086.96,-86.22 992.8,-89.58"/>
<polygon fill="#63b8ff" stroke="#63b8ff" points="1458.1,-46.4 1467.25,-41.05 1456.76,-39.52 1458.1,-46.4"/>
</g>
<!-- Node15&#45;&gt;Node2 -->
<g id="edge28" class="edge">
<title>Node15&#45;&gt;Node2</title>
<path fill="none" stroke="#63b8ff" d="M1585.45,-43.05C1366.38,-82.95 1103.46,-89.8 992.68,-90.86"/>
<polygon fill="#63b8ff" stroke="#63b8ff" points="1585.98,-46.32 1595.18,-41.06 1584.71,-39.44 1585.98,-46.32"/>
</g>
<!-- Node16&#45;&gt;Node2 -->
<g id="edge30" class="edge">
<title>Node16&#45;&gt;Node2</title>
<path fill="none" stroke="#63b8ff" d="M1713.34,-43C1444.17,-90.44 1119.1,-92.78 992.98,-91.75"/>
<polygon fill="#63b8ff" stroke="#63b8ff" points="1713.88,-46.28 1723.1,-41.07 1712.64,-39.39 1713.88,-46.28"/>
</g>
</g>
</svg>
