<?xml version="1.0" encoding="UTF-8" standalone="no"?>
<!DOCTYPE svg PUBLIC "-//W3C//DTD SVG 1.1//EN"
 "http://www.w3.org/Graphics/SVG/1.1/DTD/svg11.dtd">
<!-- Generated by graphviz version 2.43.0 (0)
 -->
<!-- Title: include/experimental/linear_algebra/fixed_size_matrix.hpp Pages: 1 -->
<!--zoomable 195 -->
<svg id="main" version="1.1" xmlns="http://www.w3.org/2000/svg" xmlns:xlink="http://www.w3.org/1999/xlink" xml:space="preserve" onload="init(evt)">
<style type="text/css"><![CDATA[
.edge:hover path { stroke: red; }
.edge:hover polygon { stroke: red; fill: red; }
]]></style>
<script type="text/javascript"><![CDATA[
var edges = document.getElementsByTagName('g');
if (edges && edges.length) {
  for (var i=0;i<edges.length;i++) {
    if (edges[i].id.substr(0,4)=='edge') {
      edges[i].setAttribute('class','edge');
    }
  }
}
]]></script>
        <defs>
                <circle id="rim" cx="0" cy="0" r="7"/>
                <circle id="rim2" cx="0" cy="0" r="3.5"/>
                <g id="zoomPlus">
                        <use xlink:href="#rim" fill="#404040">
                                <set attributeName="fill" to="#808080" begin="zoomplus.mouseover" end="zoomplus.mouseout"/>
                        </use>
                        <path d="M-4,0h8M0,-4v8" fill="none" stroke="white" stroke-width="1.5" pointer-events="none"/>
                </g>
                <g id="zoomMin">
                        <use xlink:href="#rim" fill="#404040">
                                <set attributeName="fill" to="#808080" begin="zoomminus.mouseover" end="zoomminus.mouseout"/>
                        </use>
                        <path d="M-4,0h8" fill="none" stroke="white" stroke-width="1.5" pointer-events="none"/>
                </g>
                <g id="dirArrow">
                        <path fill="none" stroke="white" stroke-width="1.5" d="M0,-3.0v7 M-2.5,-0.5L0,-3.0L2.5,-0.5"/>
                </g>
               <g id="resetDef">
                       <use xlink:href="#rim2" fill="#404040">
                               <set attributeName="fill" to="#808080" begin="reset.mouseover" end="reset.mouseout"/>
                       </use>
               </g>
        </defs>

<script type="text/javascript">
var viewWidth = 2046;
var viewHeight = 195;
var sectionId = 'dynsection-1';
</script>
<script xlink:href="svgpan.js"/>
<svg id="graph" class="graph">
<g id="viewport">
<title>include/experimental/linear_algebra/fixed_size_matrix.hpp</title>
<polygon fill="white" stroke="transparent" points="-4,4 -4,-191 2042,-191 2042,4 -4,4"/>
<!-- Node1 -->
<g id="node1" class="node">
<title>Node1</title>
<g id="a_node1"><a xlink:title=" ">
<polygon fill="#bfbfbf" stroke="black" points="985.5,-145.5 985.5,-186.5 1105.5,-186.5 1105.5,-145.5 985.5,-145.5"/>
<text text-anchor="start" x="993.5" y="-174.5" font-family="Helvetica,sans-Serif" font-size="10.00">include/experimental</text>
<text text-anchor="start" x="993.5" y="-163.5" font-family="Helvetica,sans-Serif" font-size="10.00">/linear_algebra/fixed</text>
<text text-anchor="middle" x="1045.5" y="-152.5" font-family="Helvetica,sans-Serif" font-size="10.00">_size_matrix.hpp</text>
</a>
</g>
</g>
<!-- Node2 -->
<g id="node2" class="node">
<title>Node2</title>
<g id="a_node2"><a xlink:href="linear__algebra_8hpp.html" target="_top" xlink:title=" ">
<polygon fill="white" stroke="black" points="985.5,-78.5 985.5,-108.5 1105.5,-108.5 1105.5,-78.5 985.5,-78.5"/>
<text text-anchor="start" x="993.5" y="-96.5" font-family="Helvetica,sans-Serif" font-size="10.00">include/experimental</text>
<text text-anchor="middle" x="1045.5" y="-85.5" font-family="Helvetica,sans-Serif" font-size="10.00">/linear_algebra.hpp</text>
</a>
</g>
</g>
<!-- Node1&#45;&gt;Node2 -->
<g id="edge1" class="edge">
<title>Node1&#45;&gt;Node2</title>
<path fill="none" stroke="midnightblue" d="M1038.83,-135.38C1038.57,-126.21 1038.94,-116.53 1039.94,-108.89"/>
<polygon fill="midnightblue" stroke="midnightblue" points="1035.33,-135.57 1039.38,-145.36 1042.32,-135.18 1035.33,-135.57"/>
</g>
<!-- Node2&#45;&gt;Node1 -->
<g id="edge10" class="edge">
<title>Node2&#45;&gt;Node1</title>
<path fill="none" stroke="midnightblue" d="M1051.97,-119.11C1052.44,-127.7 1052.32,-137.23 1051.62,-145.36"/>
<polygon fill="midnightblue" stroke="midnightblue" points="1055.43,-118.54 1051.06,-108.89 1048.46,-119.16 1055.43,-118.54"/>
</g>
<!-- Node3 -->
<g id="node3" class="node">
<title>Node3</title>
<g id="a_node3"><a xlink:href="arithmetic__operators_8hpp.html" target="_top" xlink:title=" ">
<polygon fill="white" stroke="black" points="0,-0.5 0,-41.5 143,-41.5 143,-0.5 0,-0.5"/>
<text text-anchor="start" x="8" y="-29.5" font-family="Helvetica,sans-Serif" font-size="10.00">include/experimental</text>
<text text-anchor="start" x="8" y="-18.5" font-family="Helvetica,sans-Serif" font-size="10.00">/linear_algebra/arithmetic</text>
<text text-anchor="middle" x="71.5" y="-7.5" font-family="Helvetica,sans-Serif" font-size="10.00">_operators.hpp</text>
</a>
</g>
</g>
<!-- Node2&#45;&gt;Node3 -->
<g id="edge2" class="edge">
<title>Node2&#45;&gt;Node3</title>
<path fill="none" stroke="midnightblue" d="M975.17,-92.94C822.56,-93.03 450.47,-88.17 143.5,-42 142.5,-41.85 141.49,-41.69 140.48,-41.53"/>
<polygon fill="midnightblue" stroke="midnightblue" points="975.34,-96.44 985.33,-92.93 975.33,-89.44 975.34,-96.44"/>
</g>
<!-- Node4 -->
<g id="node4" class="node">
<title>Node4</title>
<g id="a_node4"><a xlink:href="dynamic__matrix_8hpp.html" target="_top" xlink:title=" ">
<polygon fill="white" stroke="black" points="161.5,-0.5 161.5,-41.5 295.5,-41.5 295.5,-0.5 161.5,-0.5"/>
<text text-anchor="start" x="169.5" y="-29.5" font-family="Helvetica,sans-Serif" font-size="10.00">include/experimental</text>
<text text-anchor="start" x="169.5" y="-18.5" font-family="Helvetica,sans-Serif" font-size="10.00">/linear_algebra/dynamic</text>
<text text-anchor="middle" x="228.5" y="-7.5" font-family="Helvetica,sans-Serif" font-size="10.00">_matrix.hpp</text>
</a>
</g>
</g>
<!-- Node2&#45;&gt;Node4 -->
<g id="edge4" class="edge">
<title>Node2&#45;&gt;Node4</title>
<path fill="none" stroke="midnightblue" d="M974.91,-92.18C841.2,-90.64 542.59,-82.56 295.5,-42 294.56,-41.85 293.61,-41.68 292.66,-41.52"/>
<polygon fill="midnightblue" stroke="midnightblue" points="974.99,-95.68 985.02,-92.29 975.06,-88.68 974.99,-95.68"/>
</g>
<!-- Node5 -->
<g id="node5" class="node">
<title>Node5</title>
<g id="a_node5"><a xlink:href="dynamic__tensor_8hpp.html" target="_top" xlink:title=" ">
<polygon fill="white" stroke="black" points="313.5,-0.5 313.5,-41.5 447.5,-41.5 447.5,-0.5 313.5,-0.5"/>
<text text-anchor="start" x="321.5" y="-29.5" font-family="Helvetica,sans-Serif" font-size="10.00">include/experimental</text>
<text text-anchor="start" x="321.5" y="-18.5" font-family="Helvetica,sans-Serif" font-size="10.00">/linear_algebra/dynamic</text>
<text text-anchor="middle" x="380.5" y="-7.5" font-family="Helvetica,sans-Serif" font-size="10.00">_tensor.hpp</text>
</a>
</g>
</g>
<!-- Node2&#45;&gt;Node5 -->
<g id="edge6" class="edge">
<title>Node2&#45;&gt;Node5</title>
<path fill="none" stroke="midnightblue" d="M974.89,-90.57C862.34,-86.52 636.03,-74.64 447.5,-42 446.69,-41.86 445.88,-41.72 445.07,-41.57"/>
<polygon fill="midnightblue" stroke="midnightblue" points="974.98,-94.08 985.1,-90.93 975.22,-87.08 974.98,-94.08"/>
</g>
<!-- Node6 -->
<g id="node6" class="node">
<title>Node6</title>
<g id="a_node6"><a xlink:href="dynamic__vector_8hpp.html" target="_top" xlink:title=" ">
<polygon fill="white" stroke="black" points="465.5,-0.5 465.5,-41.5 599.5,-41.5 599.5,-0.5 465.5,-0.5"/>
<text text-anchor="start" x="473.5" y="-29.5" font-family="Helvetica,sans-Serif" font-size="10.00">include/experimental</text>
<text text-anchor="start" x="473.5" y="-18.5" font-family="Helvetica,sans-Serif" font-size="10.00">/linear_algebra/dynamic</text>
<text text-anchor="middle" x="532.5" y="-7.5" font-family="Helvetica,sans-Serif" font-size="10.00">_vector.hpp</text>
</a>
</g>
</g>
<!-- Node2&#45;&gt;Node6 -->
<g id="edge8" class="edge">
<title>Node2&#45;&gt;Node6</title>
<path fill="none" stroke="midnightblue" d="M975,-87.94C886.52,-81.23 730.71,-66.72 599.5,-42 598.7,-41.85 597.89,-41.69 597.08,-41.53"/>
<polygon fill="midnightblue" stroke="midnightblue" points="974.95,-91.45 985.19,-88.7 975.47,-84.47 974.95,-91.45"/>
</g>
<!-- Node7 -->
<g id="node7" class="node">
<title>Node7</title>
<g id="a_node7"><a xlink:href="fixed__size__tensor_8hpp.html" target="_top" xlink:title=" ">
<polygon fill="white" stroke="black" points="617.5,-0.5 617.5,-41.5 737.5,-41.5 737.5,-0.5 617.5,-0.5"/>
<text text-anchor="start" x="625.5" y="-29.5" font-family="Helvetica,sans-Serif" font-size="10.00">include/experimental</text>
<text text-anchor="start" x="625.5" y="-18.5" font-family="Helvetica,sans-Serif" font-size="10.00">/linear_algebra/fixed</text>
<text text-anchor="middle" x="677.5" y="-7.5" font-family="Helvetica,sans-Serif" font-size="10.00">_size_tensor.hpp</text>
</a>
</g>
</g>
<!-- Node2&#45;&gt;Node7 -->
<g id="edge11" class="edge">
<title>Node2&#45;&gt;Node7</title>
<path fill="none" stroke="midnightblue" d="M975.17,-83.95C912.29,-75.24 818.08,-60.42 737.5,-42 736.89,-41.86 736.28,-41.72 735.67,-41.58"/>
<polygon fill="midnightblue" stroke="midnightblue" points="975,-87.46 985.38,-85.35 975.95,-80.52 975,-87.46"/>
</g>
<!-- Node8 -->
<g id="node8" class="node">
<title>Node8</title>
<g id="a_node8"><a xlink:href="fixed__size__vector_8hpp.html" target="_top" xlink:title=" ">
<polygon fill="white" stroke="black" points="755.5,-0.5 755.5,-41.5 875.5,-41.5 875.5,-0.5 755.5,-0.5"/>
<text text-anchor="start" x="763.5" y="-29.5" font-family="Helvetica,sans-Serif" font-size="10.00">include/experimental</text>
<text text-anchor="start" x="763.5" y="-18.5" font-family="Helvetica,sans-Serif" font-size="10.00">/linear_algebra/fixed</text>
<text text-anchor="middle" x="815.5" y="-7.5" font-family="Helvetica,sans-Serif" font-size="10.00">_size_vector.hpp</text>
</a>
</g>
</g>
<!-- Node2&#45;&gt;Node8 -->
<g id="edge13" class="edge">
<title>Node2&#45;&gt;Node8</title>
<path fill="none" stroke="midnightblue" d="M984.33,-75.55C949.89,-65.32 907.17,-52.26 873.3,-41.59"/>
<polygon fill="midnightblue" stroke="midnightblue" points="983.69,-79.01 994.27,-78.49 985.67,-72.3 983.69,-79.01"/>
</g>
<!-- Node9 -->
<g id="node9" class="node">
<title>Node9</title>
<g id="a_node9"><a xlink:href="instant__evaluated__operations_8hpp.html" target="_top" xlink:title=" ">
<polygon fill="white" stroke="black" points="894,-0.5 894,-41.5 1043,-41.5 1043,-0.5 894,-0.5"/>
<text text-anchor="start" x="902" y="-29.5" font-family="Helvetica,sans-Serif" font-size="10.00">include/experimental</text>
<text text-anchor="start" x="902" y="-18.5" font-family="Helvetica,sans-Serif" font-size="10.00">/linear_algebra/instant</text>
<text text-anchor="middle" x="968.5" y="-7.5" font-family="Helvetica,sans-Serif" font-size="10.00">_evaluated_operations.hpp</text>
</a>
</g>
</g>
<!-- Node2&#45;&gt;Node9 -->
<g id="edge15" class="edge">
<title>Node2&#45;&gt;Node9</title>
<path fill="none" stroke="midnightblue" d="M1016.51,-71.66C1005.39,-62.15 993.19,-50.94 983.78,-41.59"/>
<polygon fill="midnightblue" stroke="midnightblue" points="1014.45,-74.5 1024.37,-78.23 1018.95,-69.13 1014.45,-74.5"/>
</g>
<!-- Node10 -->
<g id="node10" class="node">
<title>Node10</title>
<g id="a_node10"><a xlink:href="matrix__concepts_8hpp.html" target="_top" xlink:title=" ">
<polygon fill="white" stroke="black" points="1061,-0.5 1061,-41.5 1186,-41.5 1186,-0.5 1061,-0.5"/>
<text text-anchor="start" x="1069" y="-29.5" font-family="Helvetica,sans-Serif" font-size="10.00">include/experimental</text>
<text text-anchor="start" x="1069" y="-18.5" font-family="Helvetica,sans-Serif" font-size="10.00">/linear_algebra/matrix</text>
<text text-anchor="middle" x="1123.5" y="-7.5" font-family="Helvetica,sans-Serif" font-size="10.00">_concepts.hpp</text>
</a>
</g>
</g>
<!-- Node2&#45;&gt;Node10 -->
<g id="edge17" class="edge">
<title>Node2&#45;&gt;Node10</title>
<path fill="none" stroke="midnightblue" d="M1062.91,-71.1C1072.61,-61.71 1084.77,-50.76 1095.71,-41.59"/>
<polygon fill="midnightblue" stroke="midnightblue" points="1060.36,-68.7 1055.74,-78.23 1065.3,-73.67 1060.36,-68.7"/>
</g>
<!-- Node11 -->
<g id="node11" class="node">
<title>Node11</title>
<g id="a_node11"><a xlink:href="matrix__view_8hpp.html" target="_top" xlink:title=" ">
<polygon fill="white" stroke="black" points="1204,-0.5 1204,-41.5 1329,-41.5 1329,-0.5 1204,-0.5"/>
<text text-anchor="start" x="1212" y="-29.5" font-family="Helvetica,sans-Serif" font-size="10.00">include/experimental</text>
<text text-anchor="start" x="1212" y="-18.5" font-family="Helvetica,sans-Serif" font-size="10.00">/linear_algebra/matrix</text>
<text text-anchor="middle" x="1266.5" y="-7.5" font-family="Helvetica,sans-Serif" font-size="10.00">_view.hpp</text>
</a>
</g>
</g>
<!-- Node2&#45;&gt;Node11 -->
<g id="edge19" class="edge">
<title>Node2&#45;&gt;Node11</title>
<path fill="none" stroke="midnightblue" d="M1093.58,-75.28C1125.87,-64.63 1168.68,-50.96 1203.66,-40.14"/>
<polygon fill="midnightblue" stroke="midnightblue" points="1092.3,-72.02 1083.91,-78.49 1094.51,-78.66 1092.3,-72.02"/>
</g>
<!-- Node12 -->
<g id="node12" class="node">
<title>Node12</title>
<g id="a_node12"><a xlink:href="private__support_8hpp.html" target="_top" xlink:title=" ">
<polygon fill="white" stroke="black" points="1347,-0.5 1347,-41.5 1474,-41.5 1474,-0.5 1347,-0.5"/>
<text text-anchor="start" x="1355" y="-29.5" font-family="Helvetica,sans-Serif" font-size="10.00">include/experimental</text>
<text text-anchor="start" x="1355" y="-18.5" font-family="Helvetica,sans-Serif" font-size="10.00">/linear_algebra/private</text>
<text text-anchor="middle" x="1410.5" y="-7.5" font-family="Helvetica,sans-Serif" font-size="10.00">_support.hpp</text>
</a>
</g>
</g>
<!-- Node2&#45;&gt;Node12 -->
<g id="edge21" class="edge">
<title>Node2&#45;&gt;Node12</title>
<path fill="none" stroke="midnightblue" d="M1115.8,-81.28C1173.49,-72.2 1257.04,-58.26 1329.5,-42 1335.07,-40.75 1340.85,-39.34 1346.65,-37.86"/>
<polygon fill="midnightblue" stroke="midnightblue" points="1115.03,-77.86 1105.69,-82.87 1116.11,-84.77 1115.03,-77.86"/>
</g>
<!-- Node13 -->
<g id="node13" class="node">
<title>Node13</title>
<g id="a_node13"><a xlink:href="tensor__concepts_8hpp.html" target="_top" xlink:title=" ">
<polygon fill="white" stroke="black" points="1492,-0.5 1492,-41.5 1615,-41.5 1615,-0.5 1492,-0.5"/>
<text text-anchor="start" x="1500" y="-29.5" font-family="Helvetica,sans-Serif" font-size="10.00">include/experimental</text>
<text text-anchor="start" x="1500" y="-18.5" font-family="Helvetica,sans-Serif" font-size="10.00">/linear_algebra/tensor</text>
<text text-anchor="middle" x="1553.5" y="-7.5" font-family="Helvetica,sans-Serif" font-size="10.00">_concepts.hpp</text>
</a>
</g>
</g>
<!-- Node2&#45;&gt;Node13 -->
<g id="edge23" class="edge">
<title>Node2&#45;&gt;Node13</title>
<path fill="none" stroke="midnightblue" d="M1115.6,-87.48C1201,-80.84 1349.16,-66.96 1474.5,-42 1480.08,-40.89 1485.86,-39.55 1491.65,-38.1"/>
<polygon fill="midnightblue" stroke="midnightblue" points="1115.21,-84 1105.51,-88.25 1115.75,-90.98 1115.21,-84"/>
</g>
<!-- Node14 -->
<g id="node14" class="node">
<title>Node14</title>
<g id="a_node14"><a xlink:href="tensor__view_8hpp.html" target="_top" xlink:title=" ">
<polygon fill="white" stroke="black" points="1633,-0.5 1633,-41.5 1756,-41.5 1756,-0.5 1633,-0.5"/>
<text text-anchor="start" x="1641" y="-29.5" font-family="Helvetica,sans-Serif" font-size="10.00">include/experimental</text>
<text text-anchor="start" x="1641" y="-18.5" font-family="Helvetica,sans-Serif" font-size="10.00">/linear_algebra/tensor</text>
<text text-anchor="middle" x="1694.5" y="-7.5" font-family="Helvetica,sans-Serif" font-size="10.00">_view.hpp</text>
</a>
</g>
</g>
<!-- Node2&#45;&gt;Node14 -->
<g id="edge25" class="edge">
<title>Node2&#45;&gt;Node14</title>
<path fill="none" stroke="midnightblue" d="M1115.73,-90.49C1223.91,-86.52 1437.19,-74.94 1615.5,-42 1621.09,-40.97 1626.88,-39.68 1632.68,-38.26"/>
<polygon fill="midnightblue" stroke="midnightblue" points="1115.46,-87 1105.6,-90.85 1115.71,-94 1115.46,-87"/>
</g>
<!-- Node15 -->
<g id="node15" class="node">
<title>Node15</title>
<g id="a_node15"><a xlink:href="vector__concepts_8hpp.html" target="_top" xlink:title=" ">
<polygon fill="white" stroke="black" points="1774,-0.5 1774,-41.5 1897,-41.5 1897,-0.5 1774,-0.5"/>
<text text-anchor="start" x="1782" y="-29.5" font-family="Helvetica,sans-Serif" font-size="10.00">include/experimental</text>
<text text-anchor="start" x="1782" y="-18.5" font-family="Helvetica,sans-Serif" font-size="10.00">/linear_algebra/vector</text>
<text text-anchor="middle" x="1835.5" y="-7.5" font-family="Helvetica,sans-Serif" font-size="10.00">_concepts.hpp</text>
</a>
</g>
</g>
<!-- Node2&#45;&gt;Node15 -->
<g id="edge27" class="edge">
<title>Node2&#45;&gt;Node15</title>
<path fill="none" stroke="midnightblue" d="M1116.05,-92.35C1244.48,-90.93 1524.3,-82.86 1756.5,-42 1762.1,-41.01 1767.9,-39.76 1773.69,-38.35"/>
<polygon fill="midnightblue" stroke="midnightblue" points="1115.92,-88.85 1105.95,-92.45 1115.99,-95.85 1115.92,-88.85"/>
</g>
<!-- Node16 -->
<g id="node16" class="node">
<title>Node16</title>
<g id="a_node16"><a xlink:href="vector__view_8hpp.html" target="_top" xlink:title=" ">
<polygon fill="white" stroke="black" points="1915,-0.5 1915,-41.5 2038,-41.5 2038,-0.5 1915,-0.5"/>
<text text-anchor="start" x="1923" y="-29.5" font-family="Helvetica,sans-Serif" font-size="10.00">include/experimental</text>
<text text-anchor="start" x="1923" y="-18.5" font-family="Helvetica,sans-Serif" font-size="10.00">/linear_algebra/vector</text>
<text text-anchor="middle" x="1976.5" y="-7.5" font-family="Helvetica,sans-Serif" font-size="10.00">_view.hpp</text>
</a>
</g>
</g>
<!-- Node2&#45;&gt;Node16 -->
<g id="edge29" class="edge">
<title>Node2&#45;&gt;Node16</title>
<path fill="none" stroke="midnightblue" d="M1115.99,-90.22C1292.06,-84.38 1747.34,-67.54 1897.5,-42 1903.11,-41.05 1908.91,-39.81 1914.7,-38.42"/>
<polygon fill="midnightblue" stroke="midnightblue" points="1115.68,-86.73 1105.8,-90.55 1115.91,-93.72 1115.68,-86.73"/>
</g>
<!-- Node3&#45;&gt;Node2 -->
<g id="edge3" class="edge">
<title>Node3&#45;&gt;Node2</title>
<path fill="none" stroke="midnightblue" d="M152.92,-40.58C155.81,-41.1 158.68,-41.58 161.5,-42 468.99,-88.25 841.84,-93.04 985.33,-92.94"/>
<polygon fill="midnightblue" stroke="midnightblue" points="153.51,-37.13 143.02,-38.66 152.18,-44 153.51,-37.13"/>
</g>
<!-- Node4&#45;&gt;Node2 -->
<g id="edge5" class="edge">
<title>Node4&#45;&gt;Node2</title>
<path fill="none" stroke="midnightblue" d="M305.52,-40.57C308.21,-41.09 310.88,-41.57 313.5,-42 560.67,-82.57 859.38,-90.65 985.17,-92.18"/>
<polygon fill="midnightblue" stroke="midnightblue" points="306.23,-37.14 295.72,-38.52 304.8,-43.99 306.23,-37.14"/>
</g>
<!-- Node5&#45;&gt;Node2 -->
<g id="edge7" class="edge">
<title>Node5&#45;&gt;Node2</title>
<path fill="none" stroke="midnightblue" d="M457.53,-40.51C460.22,-41.05 462.88,-41.55 465.5,-42 653.6,-74.56 879.29,-86.47 985.21,-90.54"/>
<polygon fill="midnightblue" stroke="midnightblue" points="458.25,-37.08 447.74,-38.42 456.79,-43.93 458.25,-37.08"/>
</g>
<!-- Node6&#45;&gt;Node2 -->
<g id="edge9" class="edge">
<title>Node6&#45;&gt;Node2</title>
<path fill="none" stroke="midnightblue" d="M609.55,-40.41C612.23,-40.97 614.89,-41.51 617.5,-42 747.72,-66.53 902.15,-81.01 985.37,-87.79"/>
<polygon fill="midnightblue" stroke="midnightblue" points="610.29,-36.99 599.77,-38.24 608.78,-43.82 610.29,-36.99"/>
</g>
<!-- Node7&#45;&gt;Node2 -->
<g id="edge12" class="edge">
<title>Node7&#45;&gt;Node2</title>
<path fill="none" stroke="midnightblue" d="M747.44,-40.07C750.16,-40.75 752.86,-41.4 755.5,-42 834.41,-60.04 926.38,-74.62 985.32,-83.4"/>
<polygon fill="midnightblue" stroke="midnightblue" points="748.07,-36.62 737.51,-37.51 746.32,-43.4 748.07,-36.62"/>
</g>
<!-- Node8&#45;&gt;Node2 -->
<g id="edge14" class="edge">
<title>Node8&#45;&gt;Node2</title>
<path fill="none" stroke="midnightblue" d="M885.66,-41.63C924.87,-53.34 972.29,-67.94 1005.3,-78.49"/>
<polygon fill="midnightblue" stroke="midnightblue" points="886.46,-38.21 875.88,-38.72 884.46,-44.92 886.46,-38.21"/>
</g>
<!-- Node9&#45;&gt;Node2 -->
<g id="edge16" class="edge">
<title>Node9&#45;&gt;Node2</title>
<path fill="none" stroke="midnightblue" d="M1003.87,-48.38C1015.38,-58.5 1027.23,-69.67 1035.47,-78.23"/>
<polygon fill="midnightblue" stroke="midnightblue" points="1005.87,-45.48 996.01,-41.59 1001.29,-50.78 1005.87,-45.48"/>
</g>
<!-- Node10&#45;&gt;Node2 -->
<g id="edge18" class="edge">
<title>Node10&#45;&gt;Node2</title>
<path fill="none" stroke="midnightblue" d="M1100.56,-48.68C1089.88,-58.72 1077.33,-69.75 1066.83,-78.23"/>
<polygon fill="midnightblue" stroke="midnightblue" points="1103.15,-51.04 1107.95,-41.59 1098.31,-45.98 1103.15,-51.04"/>
</g>
<!-- Node11&#45;&gt;Node2 -->
<g id="edge20" class="edge">
<title>Node11&#45;&gt;Node2</title>
<path fill="none" stroke="midnightblue" d="M1201.34,-44.82C1167.3,-55.9 1126.36,-68.87 1094.94,-78.49"/>
<polygon fill="midnightblue" stroke="midnightblue" points="1202.79,-48.03 1211.2,-41.59 1200.61,-41.37 1202.79,-48.03"/>
</g>
<!-- Node12&#45;&gt;Node2 -->
<g id="edge22" class="edge">
<title>Node12&#45;&gt;Node2</title>
<path fill="none" stroke="midnightblue" d="M1339.4,-43.78C1256.96,-61.83 1164.6,-76.53 1105.62,-84.92"/>
<polygon fill="midnightblue" stroke="midnightblue" points="1340.4,-47.15 1349.41,-41.57 1338.89,-40.31 1340.4,-47.15"/>
</g>
<!-- Node13&#45;&gt;Node2 -->
<g id="edge24" class="edge">
<title>Node13&#45;&gt;Node2</title>
<path fill="none" stroke="midnightblue" d="M1484.53,-43.55C1347.92,-69.89 1190.02,-83.4 1105.65,-89.1"/>
<polygon fill="midnightblue" stroke="midnightblue" points="1485.6,-46.9 1494.74,-41.54 1484.25,-40.03 1485.6,-46.9"/>
</g>
<!-- Node14&#45;&gt;Node2 -->
<g id="edge26" class="edge">
<title>Node14&#45;&gt;Node2</title>
<path fill="none" stroke="midnightblue" d="M1625.85,-43.38C1435.41,-77.51 1211.32,-88.03 1105.87,-91.19"/>
<polygon fill="midnightblue" stroke="midnightblue" points="1626.54,-46.81 1635.75,-41.57 1625.28,-39.92 1626.54,-46.81"/>
</g>
<!-- Node15&#45;&gt;Node2 -->
<g id="edge28" class="edge">
<title>Node15&#45;&gt;Node2</title>
<path fill="none" stroke="midnightblue" d="M1766.94,-43.29C1521.41,-85.28 1229.85,-91.74 1105.88,-92.52"/>
<polygon fill="midnightblue" stroke="midnightblue" points="1767.87,-46.68 1777.13,-41.52 1766.68,-39.78 1767.87,-46.68"/>
</g>
<!-- Node16&#45;&gt;Node2 -->
<g id="edge30" class="edge">
<title>Node16&#45;&gt;Node2</title>
<path fill="none" stroke="midnightblue" d="M1908.24,-43.14C1740.63,-69.15 1273,-85.7 1105.79,-90.81"/>
<polygon fill="midnightblue" stroke="midnightblue" points="1908.82,-46.59 1918.13,-41.53 1907.7,-39.68 1908.82,-46.59"/>
</g>
</g>
</svg>
        <g id="navigator" transform="translate(0 0)" fill="#404254">
                <rect fill="#f2f5e9" fill-opacity="0.5" stroke="#606060" stroke-width=".5" x="0" y="0" width="60" height="60"/>
                <use id="zoomplus" xlink:href="#zoomPlus" x="17" y="9" onmousedown="handleZoom(evt,'in')"/>
                <use id="zoomminus" xlink:href="#zoomMin" x="42" y="9" onmousedown="handleZoom(evt,'out')"/>
                <use id="reset" xlink:href="#resetDef" x="30" y="36" onmousedown="handleReset()"/>
                <g id="arrowUp" xlink:href="#dirArrow" transform="translate(30 24)" onmousedown="handlePan(0,-1)">
                  <use xlink:href="#rim" fill="#404040">
                        <set attributeName="fill" to="#808080" begin="arrowUp.mouseover" end="arrowUp.mouseout"/>
                  </use>
                  <path fill="none" stroke="white" stroke-width="1.5" d="M0,-3.0v7 M-2.5,-0.5L0,-3.0L2.5,-0.5"/>
                </g>
                <g id="arrowRight" xlink:href="#dirArrow" transform="rotate(90) translate(36 -43)" onmousedown="handlePan(1,0)">
                  <use xlink:href="#rim" fill="#404040">
                        <set attributeName="fill" to="#808080" begin="arrowRight.mouseover" end="arrowRight.mouseout"/>
                  </use>
                  <path fill="none" stroke="white" stroke-width="1.5" d="M0,-3.0v7 M-2.5,-0.5L0,-3.0L2.5,-0.5"/>
                </g>
                <g id="arrowDown" xlink:href="#dirArrow" transform="rotate(180) translate(-30 -48)" onmousedown="handlePan(0,1)">
                  <use xlink:href="#rim" fill="#404040">
                        <set attributeName="fill" to="#808080" begin="arrowDown.mouseover" end="arrowDown.mouseout"/>
                  </use>
                  <path fill="none" stroke="white" stroke-width="1.5" d="M0,-3.0v7 M-2.5,-0.5L0,-3.0L2.5,-0.5"/>
                </g>
                <g id="arrowLeft" xlink:href="#dirArrow" transform="rotate(270) translate(-36 17)" onmousedown="handlePan(-1,0)">
                  <use xlink:href="#rim" fill="#404040">
                        <set attributeName="fill" to="#808080" begin="arrowLeft.mouseover" end="arrowLeft.mouseout"/>
                  </use>
                  <path fill="none" stroke="white" stroke-width="1.5" d="M0,-3.0v7 M-2.5,-0.5L0,-3.0L2.5,-0.5"/>
                </g>
        </g>
        <svg viewBox="0 0 15 15" width="100%" height="30px" preserveAspectRatio="xMaxYMin meet">
         <g id="arrow_out" transform="scale(0.3 0.3)">
          <a xlink:href="fixed__size__matrix_8hpp__dep__incl_org.svg" target="_base">
           <rect id="button" ry="5" rx="5" y="6" x="6" height="38" width="38"
                fill="#f2f5e9" fill-opacity="0.5" stroke="#606060" stroke-width="1.0"/>
           <path id="arrow"
             d="M 11.500037,31.436501 C 11.940474,20.09759 22.043105,11.32322 32.158766,21.979434 L 37.068811,17.246167 C 37.068811,17.246167 37.088388,32 37.088388,32 L 22.160133,31.978069 C 22.160133,31.978069 26.997745,27.140456 26.997745,27.140456 C 18.528582,18.264221 13.291696,25.230495 11.500037,31.436501 z"
             style="fill:#404040;"/>
          </a>
         </g>
        </svg>
</svg>
