<?xml version="1.0" encoding="UTF-8" standalone="no"?>
<!DOCTYPE svg PUBLIC "-//W3C//DTD SVG 1.1//EN"
 "http://www.w3.org/Graphics/SVG/1.1/DTD/svg11.dtd">
<!-- Generated by graphviz version 8.0.1 (20230327.1645)
 -->
<!-- Title: include/experimental/linear_algebra/forward_declarations.hpp Pages: 1 -->
<svg width="3376pt" height="236pt"
 viewBox="0.00 0.00 3376.00 236.00" xmlns="http://www.w3.org/2000/svg" xmlns:xlink="http://www.w3.org/1999/xlink">
<g id="graph0" class="graph" transform="scale(1 1) rotate(0) translate(4 232)">
<title>include/experimental/linear_algebra/forward_declarations.hpp</title>
<!-- Node1 -->
<g id="node1" class="node">
<title>Node1</title>
<g id="a_node1"><a xlink:title=" ">
<polygon fill="#999999" stroke="#666666" points="1818.5,-228 1703.5,-228 1703.5,-187 1818.5,-187 1818.5,-228"/>
<text text-anchor="start" x="1711.5" y="-216" font-family="Helvetica,sans-Serif" font-size="10.00">include/experimental</text>
<text text-anchor="start" x="1711.5" y="-205" font-family="Helvetica,sans-Serif" font-size="10.00">/linear_algebra/forward</text>
<text text-anchor="middle" x="1761" y="-194" font-family="Helvetica,sans-Serif" font-size="10.00">_declarations.hpp</text>
</a>
</g>
</g>
<!-- Node2 -->
<g id="node2" class="node">
<title>Node2</title>
<g id="a_node2"><a xlink:href="linear__algebra_8hpp.html" target="_top" xlink:title=" ">
<polygon fill="white" stroke="#666666" points="1810,-151 1712,-151 1712,-121 1810,-121 1810,-151"/>
<text text-anchor="start" x="1720" y="-139" font-family="Helvetica,sans-Serif" font-size="10.00">experimental/linear</text>
<text text-anchor="middle" x="1761" y="-128" font-family="Helvetica,sans-Serif" font-size="10.00">_algebra.hpp</text>
</a>
</g>
</g>
<!-- Node1&#45;&gt;Node2 -->
<g id="edge1" class="edge">
<title>Node1&#45;&gt;Node2</title>
<path fill="none" stroke="#63b8ff" d="M1754.84,-186.77C1754.2,-179.13 1754.08,-170.3 1754.48,-162.21"/>
<polygon fill="#63b8ff" stroke="#63b8ff" points="1758.03,-162.74 1755.4,-152.47 1751.06,-162.14 1758.03,-162.74"/>
</g>
<!-- Node2&#45;&gt;Node1 -->
<g id="edge24" class="edge">
<title>Node2&#45;&gt;Node1</title>
<path fill="none" stroke="#63b8ff" d="M1766.6,-151.47C1767.52,-158.59 1767.89,-167.44 1767.71,-175.95"/>
<polygon fill="#63b8ff" stroke="#63b8ff" points="1764.17,-175.6 1767.16,-185.77 1771.16,-175.96 1764.17,-175.6"/>
</g>
<!-- Node3 -->
<g id="node3" class="node">
<title>Node3</title>
<g id="a_node3"><a xlink:title=" ">
<polygon fill="#e0e0e0" stroke="#999999" points="56,-79.5 0,-79.5 0,-60.5 56,-60.5 56,-79.5"/>
<text text-anchor="middle" x="28" y="-67.5" font-family="Helvetica,sans-Serif" font-size="10.00">algorithm</text>
</a>
</g>
</g>
<!-- Node2&#45;&gt;Node3 -->
<g id="edge2" class="edge">
<title>Node2&#45;&gt;Node3</title>
<path fill="none" stroke="#63b8ff" d="M1711.78,-134.52C1450.32,-131.85 229.98,-117.69 65,-85 62.79,-84.56 60.54,-84.01 58.29,-83.37"/>
<polygon fill="#63b8ff" stroke="#63b8ff" points="59.59,-79.78 49,-79.95 57.38,-86.42 59.59,-79.78"/>
</g>
<!-- Node4 -->
<g id="node4" class="node">
<title>Node4</title>
<g id="a_node4"><a xlink:title=" ">
<polygon fill="#e0e0e0" stroke="#999999" points="112,-79.5 74,-79.5 74,-60.5 112,-60.5 112,-79.5"/>
<text text-anchor="middle" x="93" y="-67.5" font-family="Helvetica,sans-Serif" font-size="10.00">array</text>
</a>
</g>
</g>
<!-- Node2&#45;&gt;Node4 -->
<g id="edge3" class="edge">
<title>Node2&#45;&gt;Node4</title>
<path fill="none" stroke="#63b8ff" d="M1711.66,-134.76C1455.02,-133.34 278.35,-124.69 121,-85 120.03,-84.76 119.06,-84.47 118.08,-84.16"/>
<polygon fill="#63b8ff" stroke="#63b8ff" points="119.52,-80.55 108.94,-79.96 116.84,-87.02 119.52,-80.55"/>
</g>
<!-- Node5 -->
<g id="node5" class="node">
<title>Node5</title>
<g id="a_node5"><a xlink:title=" ">
<polygon fill="#e0e0e0" stroke="#999999" points="186,-79.5 130,-79.5 130,-60.5 186,-60.5 186,-79.5"/>
<text text-anchor="middle" x="158" y="-67.5" font-family="Helvetica,sans-Serif" font-size="10.00">concepts</text>
</a>
</g>
</g>
<!-- Node2&#45;&gt;Node5 -->
<g id="edge4" class="edge">
<title>Node2&#45;&gt;Node5</title>
<path fill="none" stroke="#63b8ff" d="M1711.51,-134.39C1461.83,-131.17 346.47,-115.2 195,-85 192.79,-84.56 190.54,-84 188.29,-83.36"/>
<polygon fill="#63b8ff" stroke="#63b8ff" points="189.59,-79.78 179,-79.94 187.38,-86.42 189.59,-79.78"/>
</g>
<!-- Node6 -->
<g id="node6" class="node">
<title>Node6</title>
<g id="a_node6"><a xlink:title=" ">
<polygon fill="#e0e0e0" stroke="#999999" points="257.5,-79.5 204.5,-79.5 204.5,-60.5 257.5,-60.5 257.5,-79.5"/>
<text text-anchor="middle" x="231" y="-67.5" font-family="Helvetica,sans-Serif" font-size="10.00">complex</text>
</a>
</g>
</g>
<!-- Node2&#45;&gt;Node6 -->
<g id="edge5" class="edge">
<title>Node2&#45;&gt;Node6</title>
<path fill="none" stroke="#63b8ff" d="M1711.75,-134.36C1469.47,-131.1 409.91,-115.22 266,-85 264.07,-84.59 262.1,-84.09 260.14,-83.51"/>
<polygon fill="#63b8ff" stroke="#63b8ff" points="261.48,-79.92 250.88,-79.94 259.17,-86.53 261.48,-79.92"/>
</g>
<!-- Node7 -->
<g id="node7" class="node">
<title>Node7</title>
<g id="a_node7"><a xlink:title=" ">
<polygon fill="#e0e0e0" stroke="#999999" points="324.5,-79.5 275.5,-79.5 275.5,-60.5 324.5,-60.5 324.5,-79.5"/>
<text text-anchor="middle" x="300" y="-67.5" font-family="Helvetica,sans-Serif" font-size="10.00">cstddef</text>
</a>
</g>
</g>
<!-- Node2&#45;&gt;Node7 -->
<g id="edge6" class="edge">
<title>Node2&#45;&gt;Node7</title>
<path fill="none" stroke="#63b8ff" d="M1711.62,-134.34C1475.77,-131.04 469.69,-115.3 333,-85 331.25,-84.61 329.47,-84.13 327.69,-83.59"/>
<polygon fill="#63b8ff" stroke="#63b8ff" points="329.35,-80.1 318.76,-79.94 326.94,-86.67 329.35,-80.1"/>
</g>
<!-- Node8 -->
<g id="node8" class="node">
<title>Node8</title>
<g id="a_node8"><a xlink:title=" ">
<polygon fill="#e0e0e0" stroke="#999999" points="401.5,-79.5 342.5,-79.5 342.5,-60.5 401.5,-60.5 401.5,-79.5"/>
<text text-anchor="middle" x="372" y="-67.5" font-family="Helvetica,sans-Serif" font-size="10.00">execution</text>
</a>
</g>
</g>
<!-- Node2&#45;&gt;Node8 -->
<g id="edge7" class="edge">
<title>Node2&#45;&gt;Node8</title>
<path fill="none" stroke="#63b8ff" d="M1711.53,-135.25C1499.47,-136.01 666.45,-135.65 410,-85 407.65,-84.54 405.24,-83.95 402.85,-83.27"/>
<polygon fill="#63b8ff" stroke="#63b8ff" points="404.16,-79.69 393.56,-79.92 401.99,-86.35 404.16,-79.69"/>
</g>
<!-- Node9 -->
<g id="node9" class="node">
<title>Node9</title>
<g id="a_node9"><a xlink:title=" ">
<polygon fill="#e0e0e0" stroke="#999999" points="478.5,-79.5 419.5,-79.5 419.5,-60.5 478.5,-60.5 478.5,-79.5"/>
<text text-anchor="middle" x="449" y="-67.5" font-family="Helvetica,sans-Serif" font-size="10.00">exception</text>
</a>
</g>
</g>
<!-- Node2&#45;&gt;Node9 -->
<g id="edge8" class="edge">
<title>Node2&#45;&gt;Node9</title>
<path fill="none" stroke="#63b8ff" d="M1711.62,-135.12C1507.32,-135.31 727.72,-132.82 487,-85 484.65,-84.53 482.25,-83.94 479.85,-83.27"/>
<polygon fill="#63b8ff" stroke="#63b8ff" points="481.16,-79.69 470.57,-79.91 478.99,-86.34 481.16,-79.69"/>
</g>
<!-- Node10 -->
<g id="node10" class="node">
<title>Node10</title>
<g id="a_node10"><a xlink:title=" ">
<polygon fill="#e0e0e0" stroke="#999999" points="555.5,-79.5 496.5,-79.5 496.5,-60.5 555.5,-60.5 555.5,-79.5"/>
<text text-anchor="middle" x="526" y="-67.5" font-family="Helvetica,sans-Serif" font-size="10.00">functional</text>
</a>
</g>
</g>
<!-- Node2&#45;&gt;Node10 -->
<g id="edge9" class="edge">
<title>Node2&#45;&gt;Node10</title>
<path fill="none" stroke="#63b8ff" d="M1711.69,-134.92C1515.48,-134.3 789.99,-129.02 565,-85 562.5,-84.51 559.94,-83.89 557.39,-83.18"/>
<polygon fill="#63b8ff" stroke="#63b8ff" points="558.72,-79.61 548.13,-79.9 556.59,-86.28 558.72,-79.61"/>
</g>
<!-- Node11 -->
<g id="node11" class="node">
<title>Node11</title>
<g id="a_node11"><a xlink:title=" ">
<polygon fill="#e0e0e0" stroke="#999999" points="626,-79.5 574,-79.5 574,-60.5 626,-60.5 626,-79.5"/>
<text text-anchor="middle" x="600" y="-67.5" font-family="Helvetica,sans-Serif" font-size="10.00">memory</text>
</a>
</g>
</g>
<!-- Node2&#45;&gt;Node11 -->
<g id="edge10" class="edge">
<title>Node2&#45;&gt;Node11</title>
<path fill="none" stroke="#63b8ff" d="M1711.66,-135C1522.67,-134.67 844.93,-130.28 635,-85 633.07,-84.58 631.11,-84.07 629.15,-83.49"/>
<polygon fill="#63b8ff" stroke="#63b8ff" points="630.49,-79.9 619.89,-79.9 628.17,-86.51 630.49,-79.9"/>
</g>
<!-- Node12 -->
<g id="node12" class="node">
<title>Node12</title>
<g id="a_node12"><a xlink:title=" ">
<polygon fill="#e0e0e0" stroke="#999999" points="682,-79.5 644,-79.5 644,-60.5 682,-60.5 682,-79.5"/>
<text text-anchor="middle" x="663" y="-67.5" font-family="Helvetica,sans-Serif" font-size="10.00">span</text>
</a>
</g>
</g>
<!-- Node2&#45;&gt;Node12 -->
<g id="edge11" class="edge">
<title>Node2&#45;&gt;Node12</title>
<path fill="none" stroke="#63b8ff" d="M1711.5,-135.4C1528.08,-136.45 887.59,-136.28 691,-85 690.03,-84.75 689.06,-84.46 688.09,-84.14"/>
<polygon fill="#63b8ff" stroke="#63b8ff" points="689.53,-80.53 678.95,-79.91 686.83,-86.99 689.53,-80.53"/>
</g>
<!-- Node13 -->
<g id="node13" class="node">
<title>Node13</title>
<g id="a_node13"><a xlink:title=" ">
<polygon fill="#e0e0e0" stroke="#999999" points="759.5,-79.5 700.5,-79.5 700.5,-60.5 759.5,-60.5 759.5,-79.5"/>
<text text-anchor="middle" x="730" y="-67.5" font-family="Helvetica,sans-Serif" font-size="10.00">stdexcept</text>
</a>
</g>
</g>
<!-- Node2&#45;&gt;Node13 -->
<g id="edge12" class="edge">
<title>Node2&#45;&gt;Node13</title>
<path fill="none" stroke="#63b8ff" d="M1711.72,-134.43C1537.67,-132.11 952.46,-121.71 769,-85 766.5,-84.5 763.95,-83.87 761.4,-83.16"/>
<polygon fill="#63b8ff" stroke="#63b8ff" points="762.73,-79.58 752.13,-79.86 760.59,-86.25 762.73,-79.58"/>
</g>
<!-- Node14 -->
<g id="node14" class="node">
<title>Node14</title>
<g id="a_node14"><a xlink:title=" ">
<polygon fill="#e0e0e0" stroke="#999999" points="816,-79.5 778,-79.5 778,-60.5 816,-60.5 816,-79.5"/>
<text text-anchor="middle" x="797" y="-67.5" font-family="Helvetica,sans-Serif" font-size="10.00">tuple</text>
</a>
</g>
</g>
<!-- Node2&#45;&gt;Node14 -->
<g id="edge13" class="edge">
<title>Node2&#45;&gt;Node14</title>
<path fill="none" stroke="#63b8ff" d="M1711.52,-134.6C1544.12,-132.88 1000.02,-124.35 830,-85 828.25,-84.59 826.47,-84.1 824.7,-83.55"/>
<polygon fill="#63b8ff" stroke="#63b8ff" points="826.37,-80.06 815.78,-79.87 823.94,-86.63 826.37,-80.06"/>
</g>
<!-- Node15 -->
<g id="node15" class="node">
<title>Node15</title>
<g id="a_node15"><a xlink:title=" ">
<polygon fill="#e0e0e0" stroke="#999999" points="1052,-19 990,-19 990,0 1052,0 1052,-19"/>
<text text-anchor="middle" x="1021" y="-7" font-family="Helvetica,sans-Serif" font-size="10.00">type_traits</text>
</a>
</g>
</g>
<!-- Node2&#45;&gt;Node15 -->
<g id="edge14" class="edge">
<title>Node2&#45;&gt;Node15</title>
<path fill="none" stroke="#63b8ff" d="M1711.5,-135.22C1554.95,-135.43 1078.03,-132.16 1029,-85 1014.53,-71.08 1014.6,-46.86 1016.94,-29.82"/>
<polygon fill="#63b8ff" stroke="#63b8ff" points="1020.49,-30.84 1018.77,-20.39 1013.59,-29.63 1020.49,-30.84"/>
</g>
<!-- Node16 -->
<g id="node16" class="node">
<title>Node16</title>
<g id="a_node16"><a xlink:title=" ">
<polygon fill="#e0e0e0" stroke="#999999" points="941,-19 831,-19 831,0 941,0 941,-19"/>
<text text-anchor="middle" x="886" y="-7" font-family="Helvetica,sans-Serif" font-size="10.00">experimental/mdspan</text>
</a>
</g>
</g>
<!-- Node2&#45;&gt;Node16 -->
<g id="edge15" class="edge">
<title>Node2&#45;&gt;Node16</title>
<path fill="none" stroke="#63b8ff" d="M1711.67,-134.11C1527.94,-130.55 892.36,-116.04 863,-85 848.23,-69.38 860.64,-44.47 872.19,-27.8"/>
<polygon fill="#63b8ff" stroke="#63b8ff" points="875.52,-30.19 878.68,-20.08 869.9,-26.01 875.52,-30.19"/>
</g>
<!-- Node17 -->
<g id="node17" class="node">
<title>Node17</title>
<g id="a_node17"><a xlink:href="mdspan__improvements_8hpp.html" target="_top" xlink:title=" ">
<polygon fill="white" stroke="#666666" points="982,-85 872,-85 872,-55 982,-55 982,-85"/>
<text text-anchor="start" x="880" y="-73" font-family="Helvetica,sans-Serif" font-size="10.00">experimental/mdspan</text>
<text text-anchor="middle" x="927" y="-62" font-family="Helvetica,sans-Serif" font-size="10.00">_improvements.hpp</text>
</a>
</g>
</g>
<!-- Node2&#45;&gt;Node17 -->
<g id="edge16" class="edge">
<title>Node2&#45;&gt;Node17</title>
<path fill="none" stroke="#63b8ff" d="M1711.55,-134.08C1589.52,-131.3 1264.47,-120.84 996,-85 995.02,-84.87 994.03,-84.73 993.04,-84.59"/>
<polygon fill="#63b8ff" stroke="#63b8ff" points="993.67,-80.99 983.25,-82.89 992.59,-87.91 993.67,-80.99"/>
</g>
<!-- Node18 -->
<g id="node18" class="node">
<title>Node18</title>
<g id="a_node18"><a xlink:href="config_8hpp.html" target="_top" xlink:title=" ">
<polygon fill="white" stroke="#666666" points="1163.5,-79.5 1038.5,-79.5 1038.5,-60.5 1163.5,-60.5 1163.5,-79.5"/>
<text text-anchor="middle" x="1101" y="-67.5" font-family="Helvetica,sans-Serif" font-size="10.00">linear_algebra/config.hpp</text>
</a>
</g>
</g>
<!-- Node2&#45;&gt;Node18 -->
<g id="edge18" class="edge">
<title>Node2&#45;&gt;Node18</title>
<path fill="none" stroke="#63b8ff" d="M1711.63,-132.59C1610.29,-127.26 1371.63,-112.68 1173,-85 1166.78,-84.13 1160.28,-83.08 1153.85,-81.95"/>
<polygon fill="#63b8ff" stroke="#63b8ff" points="1154.6,-78.34 1144.13,-79.98 1153.34,-85.23 1154.6,-78.34"/>
</g>
<!-- Node20 -->
<g id="node20" class="node">
<title>Node20</title>
<g id="a_node20"><a xlink:href="macros_8hpp.html" target="_top" xlink:title=" ">
<polygon fill="white" stroke="#666666" points="1312.5,-79.5 1181.5,-79.5 1181.5,-60.5 1312.5,-60.5 1312.5,-79.5"/>
<text text-anchor="middle" x="1247" y="-67.5" font-family="Helvetica,sans-Serif" font-size="10.00">linear_algebra/macros.hpp</text>
</a>
</g>
</g>
<!-- Node2&#45;&gt;Node20 -->
<g id="edge21" class="edge">
<title>Node2&#45;&gt;Node20</title>
<path fill="none" stroke="#63b8ff" d="M1711.8,-130.55C1630.46,-122.93 1462.91,-106.15 1322,-85 1315.79,-84.07 1309.31,-83 1302.87,-81.88"/>
<polygon fill="#63b8ff" stroke="#63b8ff" points="1303.58,-78.28 1293.12,-79.96 1302.35,-85.17 1303.58,-78.28"/>
</g>
<!-- Node21 -->
<g id="node21" class="node">
<title>Node21</title>
<g id="a_node21"><a xlink:href="private__support_8hpp.html" target="_top" xlink:title=" ">
<polygon fill="white" stroke="#666666" points="1439.5,-85 1330.5,-85 1330.5,-55 1439.5,-55 1439.5,-85"/>
<text text-anchor="start" x="1338.5" y="-73" font-family="Helvetica,sans-Serif" font-size="10.00">linear_algebra/private</text>
<text text-anchor="middle" x="1385" y="-62" font-family="Helvetica,sans-Serif" font-size="10.00">_support.hpp</text>
</a>
</g>
</g>
<!-- Node2&#45;&gt;Node21 -->
<g id="edge22" class="edge">
<title>Node2&#45;&gt;Node21</title>
<path fill="none" stroke="#63b8ff" d="M1711.7,-128.85C1650.76,-120.43 1544.05,-104.37 1450.98,-87.06"/>
<polygon fill="#63b8ff" stroke="#63b8ff" points="1451.75,-83.46 1441.28,-85.05 1450.46,-90.34 1451.75,-83.46"/>
</g>
<!-- Node22 -->
<g id="node22" class="node">
<title>Node22</title>
<g id="a_node22"><a xlink:href="tensor__concepts_8hpp.html" target="_top" xlink:title=" ">
<polygon fill="white" stroke="#666666" points="1564.5,-85 1457.5,-85 1457.5,-55 1564.5,-55 1564.5,-85"/>
<text text-anchor="start" x="1465.5" y="-73" font-family="Helvetica,sans-Serif" font-size="10.00">linear_algebra/tensor</text>
<text text-anchor="middle" x="1511" y="-62" font-family="Helvetica,sans-Serif" font-size="10.00">_concepts.hpp</text>
</a>
</g>
</g>
<!-- Node2&#45;&gt;Node22 -->
<g id="edge25" class="edge">
<title>Node2&#45;&gt;Node22</title>
<path fill="none" stroke="#63b8ff" d="M1711.59,-123.71C1671.57,-113.88 1615.11,-99.49 1572.24,-88.23"/>
<polygon fill="#63b8ff" stroke="#63b8ff" points="1573.21,-84.6 1562.65,-85.44 1571.43,-91.37 1573.21,-84.6"/>
</g>
<!-- Node23 -->
<g id="node23" class="node">
<title>Node23</title>
<g id="a_node23"><a xlink:href="vector__concepts_8hpp.html" target="_top" xlink:title=" ">
<polygon fill="white" stroke="#666666" points="1689.5,-85 1582.5,-85 1582.5,-55 1689.5,-55 1689.5,-85"/>
<text text-anchor="start" x="1590.5" y="-73" font-family="Helvetica,sans-Serif" font-size="10.00">linear_algebra/vector</text>
<text text-anchor="middle" x="1636" y="-62" font-family="Helvetica,sans-Serif" font-size="10.00">_concepts.hpp</text>
</a>
</g>
</g>
<!-- Node2&#45;&gt;Node23 -->
<g id="edge27" class="edge">
<title>Node2&#45;&gt;Node23</title>
<path fill="none" stroke="#63b8ff" d="M1727.21,-120.64C1708.7,-111.74 1685.99,-100.21 1667.81,-90.49"/>
<polygon fill="#63b8ff" stroke="#63b8ff" points="1669.69,-86.99 1659.22,-85.31 1666.36,-93.15 1669.69,-86.99"/>
</g>
<!-- Node24 -->
<g id="node24" class="node">
<title>Node24</title>
<g id="a_node24"><a xlink:href="matrix__concepts_8hpp.html" target="_top" xlink:title=" ">
<polygon fill="white" stroke="#666666" points="1814.5,-85 1707.5,-85 1707.5,-55 1814.5,-55 1814.5,-85"/>
<text text-anchor="start" x="1715.5" y="-73" font-family="Helvetica,sans-Serif" font-size="10.00">linear_algebra/matrix</text>
<text text-anchor="middle" x="1761" y="-62" font-family="Helvetica,sans-Serif" font-size="10.00">_concepts.hpp</text>
</a>
</g>
</g>
<!-- Node2&#45;&gt;Node24 -->
<g id="edge29" class="edge">
<title>Node2&#45;&gt;Node24</title>
<path fill="none" stroke="#63b8ff" d="M1755.28,-120.8C1754.33,-113.5 1754.04,-104.41 1754.4,-95.99"/>
<polygon fill="#63b8ff" stroke="#63b8ff" points="1757.95,-96.42 1755.29,-86.16 1750.98,-95.84 1757.95,-96.42"/>
</g>
<!-- Node25 -->
<g id="node25" class="node">
<title>Node25</title>
<g id="a_node25"><a xlink:href="tensor__view_8hpp.html" target="_top" xlink:title=" ">
<polygon fill="white" stroke="#666666" points="1939.5,-85 1832.5,-85 1832.5,-55 1939.5,-55 1939.5,-85"/>
<text text-anchor="start" x="1840.5" y="-73" font-family="Helvetica,sans-Serif" font-size="10.00">linear_algebra/tensor</text>
<text text-anchor="middle" x="1886" y="-62" font-family="Helvetica,sans-Serif" font-size="10.00">_view.hpp</text>
</a>
</g>
</g>
<!-- Node2&#45;&gt;Node25 -->
<g id="edge31" class="edge">
<title>Node2&#45;&gt;Node25</title>
<path fill="none" stroke="#63b8ff" d="M1783.31,-120.64C1799.77,-111.62 1822.52,-99.89 1842.48,-90.09"/>
<polygon fill="#63b8ff" stroke="#63b8ff" points="1843.84,-92.83 1851.31,-85.31 1840.78,-86.54 1843.84,-92.83"/>
</g>
<!-- Node26 -->
<g id="node26" class="node">
<title>Node26</title>
<g id="a_node26"><a xlink:href="vector__view_8hpp.html" target="_top" xlink:title=" ">
<polygon fill="white" stroke="#666666" points="2064.5,-85 1957.5,-85 1957.5,-55 2064.5,-55 2064.5,-85"/>
<text text-anchor="start" x="1965.5" y="-73" font-family="Helvetica,sans-Serif" font-size="10.00">linear_algebra/vector</text>
<text text-anchor="middle" x="2011" y="-62" font-family="Helvetica,sans-Serif" font-size="10.00">_view.hpp</text>
</a>
</g>
</g>
<!-- Node2&#45;&gt;Node26 -->
<g id="edge33" class="edge">
<title>Node2&#45;&gt;Node26</title>
<path fill="none" stroke="#63b8ff" d="M1810.46,-120.88C1849.54,-110.53 1904.29,-96.5 1946.75,-85.96"/>
<polygon fill="#63b8ff" stroke="#63b8ff" points="1947.39,-89.16 1956.26,-83.36 1945.71,-82.36 1947.39,-89.16"/>
</g>
<!-- Node27 -->
<g id="node27" class="node">
<title>Node27</title>
<g id="a_node27"><a xlink:href="matrix__view_8hpp.html" target="_top" xlink:title=" ">
<polygon fill="white" stroke="#666666" points="2189.5,-85 2082.5,-85 2082.5,-55 2189.5,-55 2189.5,-85"/>
<text text-anchor="start" x="2090.5" y="-73" font-family="Helvetica,sans-Serif" font-size="10.00">linear_algebra/matrix</text>
<text text-anchor="middle" x="2136" y="-62" font-family="Helvetica,sans-Serif" font-size="10.00">_view.hpp</text>
</a>
</g>
</g>
<!-- Node2&#45;&gt;Node27 -->
<g id="edge35" class="edge">
<title>Node2&#45;&gt;Node27</title>
<path fill="none" stroke="#63b8ff" d="M1810.32,-127.17C1870.64,-118.12 1975.43,-102.25 2065,-85 2067.16,-84.58 2069.36,-84.15 2071.58,-83.7"/>
<polygon fill="#63b8ff" stroke="#63b8ff" points="2072.03,-86.97 2081.1,-81.51 2070.6,-80.12 2072.03,-86.97"/>
</g>
<!-- Node28 -->
<g id="node28" class="node">
<title>Node28</title>
<g id="a_node28"><a xlink:href="tensor__view__impl_8hpp.html" target="_top" xlink:title=" ">
<polygon fill="white" stroke="#666666" points="2314.5,-85 2207.5,-85 2207.5,-55 2314.5,-55 2314.5,-85"/>
<text text-anchor="start" x="2215.5" y="-73" font-family="Helvetica,sans-Serif" font-size="10.00">linear_algebra/tensor</text>
<text text-anchor="middle" x="2261" y="-62" font-family="Helvetica,sans-Serif" font-size="10.00">_view_impl.hpp</text>
</a>
</g>
</g>
<!-- Node2&#45;&gt;Node28 -->
<g id="edge37" class="edge">
<title>Node2&#45;&gt;Node28</title>
<path fill="none" stroke="#63b8ff" d="M1810.43,-130.63C1890.57,-123.6 2053.23,-108.18 2190,-85 2192.17,-84.63 2194.37,-84.24 2196.6,-83.82"/>
<polygon fill="#63b8ff" stroke="#63b8ff" points="2197.01,-87.11 2206.15,-81.75 2195.66,-80.24 2197.01,-87.11"/>
</g>
<!-- Node29 -->
<g id="node29" class="node">
<title>Node29</title>
<g id="a_node29"><a xlink:href="fixed__size__tensor_8hpp.html" target="_top" xlink:title=" ">
<polygon fill="white" stroke="#666666" points="2433.5,-85 2332.5,-85 2332.5,-55 2433.5,-55 2433.5,-85"/>
<text text-anchor="start" x="2340.5" y="-73" font-family="Helvetica,sans-Serif" font-size="10.00">linear_algebra/fixed</text>
<text text-anchor="middle" x="2383" y="-62" font-family="Helvetica,sans-Serif" font-size="10.00">_size_tensor.hpp</text>
</a>
</g>
</g>
<!-- Node2&#45;&gt;Node29 -->
<g id="edge39" class="edge">
<title>Node2&#45;&gt;Node29</title>
<path fill="none" stroke="#63b8ff" d="M1810.41,-132.77C1907.65,-128.07 2129.99,-115 2315,-85 2317.07,-84.67 2319.17,-84.3 2321.29,-83.91"/>
<polygon fill="#63b8ff" stroke="#63b8ff" points="2321.89,-87.15 2331.01,-81.76 2320.52,-80.29 2321.89,-87.15"/>
</g>
<!-- Node30 -->
<g id="node30" class="node">
<title>Node30</title>
<g id="a_node30"><a xlink:href="dynamic__tensor_8hpp.html" target="_top" xlink:title=" ">
<polygon fill="white" stroke="#666666" points="2568,-85 2452,-85 2452,-55 2568,-55 2568,-85"/>
<text text-anchor="start" x="2460" y="-73" font-family="Helvetica,sans-Serif" font-size="10.00">linear_algebra/dynamic</text>
<text text-anchor="middle" x="2510" y="-62" font-family="Helvetica,sans-Serif" font-size="10.00">_tensor.hpp</text>
</a>
</g>
</g>
<!-- Node2&#45;&gt;Node30 -->
<g id="edge41" class="edge">
<title>Node2&#45;&gt;Node30</title>
<path fill="none" stroke="#63b8ff" d="M1810.32,-133.47C1921.96,-129.67 2201.81,-117.62 2434,-85 2436.34,-84.67 2438.73,-84.31 2441.13,-83.92"/>
<polygon fill="#63b8ff" stroke="#63b8ff" points="2441.54,-87.23 2450.8,-82.07 2440.35,-80.33 2441.54,-87.23"/>
</g>
<!-- Node31 -->
<g id="node31" class="node">
<title>Node31</title>
<g id="a_node31"><a xlink:href="fixed__size__matrix_8hpp.html" target="_top" xlink:title=" ">
<polygon fill="white" stroke="#666666" points="2687.5,-85 2586.5,-85 2586.5,-55 2687.5,-55 2687.5,-85"/>
<text text-anchor="start" x="2594.5" y="-73" font-family="Helvetica,sans-Serif" font-size="10.00">linear_algebra/fixed</text>
<text text-anchor="middle" x="2637" y="-62" font-family="Helvetica,sans-Serif" font-size="10.00">_size_matrix.hpp</text>
</a>
</g>
</g>
<!-- Node2&#45;&gt;Node31 -->
<g id="edge43" class="edge">
<title>Node2&#45;&gt;Node31</title>
<path fill="none" stroke="#63b8ff" d="M1810.27,-134.82C1936.85,-133.7 2282.91,-126.69 2568,-85 2570.5,-84.63 2573.05,-84.22 2575.63,-83.76"/>
<polygon fill="#63b8ff" stroke="#63b8ff" points="2576.15,-87.03 2585.3,-81.7 2574.82,-80.16 2576.15,-87.03"/>
</g>
<!-- Node32 -->
<g id="node32" class="node">
<title>Node32</title>
<g id="a_node32"><a xlink:href="dynamic__matrix_8hpp.html" target="_top" xlink:title=" ">
<polygon fill="white" stroke="#666666" points="2822,-85 2706,-85 2706,-55 2822,-55 2822,-85"/>
<text text-anchor="start" x="2714" y="-73" font-family="Helvetica,sans-Serif" font-size="10.00">linear_algebra/dynamic</text>
<text text-anchor="middle" x="2764" y="-62" font-family="Helvetica,sans-Serif" font-size="10.00">_matrix.hpp</text>
</a>
</g>
</g>
<!-- Node2&#45;&gt;Node32 -->
<g id="edge45" class="edge">
<title>Node2&#45;&gt;Node32</title>
<path fill="none" stroke="#63b8ff" d="M1810.3,-134.99C1949.13,-134.35 2354.38,-128.51 2688,-85 2690.35,-84.69 2692.73,-84.35 2695.14,-83.98"/>
<polygon fill="#63b8ff" stroke="#63b8ff" points="2695.53,-87.29 2704.81,-82.18 2694.37,-80.39 2695.53,-87.29"/>
</g>
<!-- Node33 -->
<g id="node33" class="node">
<title>Node33</title>
<g id="a_node33"><a xlink:href="fixed__size__vector_8hpp.html" target="_top" xlink:title=" ">
<polygon fill="white" stroke="#666666" points="2941.5,-85 2840.5,-85 2840.5,-55 2941.5,-55 2941.5,-85"/>
<text text-anchor="start" x="2848.5" y="-73" font-family="Helvetica,sans-Serif" font-size="10.00">linear_algebra/fixed</text>
<text text-anchor="middle" x="2891" y="-62" font-family="Helvetica,sans-Serif" font-size="10.00">_size_vector.hpp</text>
</a>
</g>
</g>
<!-- Node2&#45;&gt;Node33 -->
<g id="edge47" class="edge">
<title>Node2&#45;&gt;Node33</title>
<path fill="none" stroke="#63b8ff" d="M1810.5,-133.8C1992.29,-129.38 2622.14,-112.75 2822,-85 2824.5,-84.65 2827.06,-84.25 2829.63,-83.81"/>
<polygon fill="#63b8ff" stroke="#63b8ff" points="2830.14,-87.08 2839.32,-81.77 2828.84,-80.2 2830.14,-87.08"/>
</g>
<!-- Node34 -->
<g id="node34" class="node">
<title>Node34</title>
<g id="a_node34"><a xlink:href="dynamic__vector_8hpp.html" target="_top" xlink:title=" ">
<polygon fill="white" stroke="#666666" points="3076,-85 2960,-85 2960,-55 3076,-55 3076,-85"/>
<text text-anchor="start" x="2968" y="-73" font-family="Helvetica,sans-Serif" font-size="10.00">linear_algebra/dynamic</text>
<text text-anchor="middle" x="3018" y="-62" font-family="Helvetica,sans-Serif" font-size="10.00">_vector.hpp</text>
</a>
</g>
</g>
<!-- Node2&#45;&gt;Node34 -->
<g id="edge49" class="edge">
<title>Node2&#45;&gt;Node34</title>
<path fill="none" stroke="#63b8ff" d="M1810.28,-133.94C2004.55,-129.72 2717.06,-113.03 2942,-85 2944.35,-84.71 2946.73,-84.38 2949.15,-84.01"/>
<polygon fill="#63b8ff" stroke="#63b8ff" points="2949.53,-87.33 2958.82,-82.25 2948.38,-80.43 2949.53,-87.33"/>
</g>
<!-- Node35 -->
<g id="node35" class="node">
<title>Node35</title>
<g id="a_node35"><a xlink:href="instant__evaluated__operations_8hpp.html" target="_top" xlink:title=" ">
<polygon fill="white" stroke="#666666" points="3227.5,-85 3094.5,-85 3094.5,-55 3227.5,-55 3227.5,-85"/>
<text text-anchor="start" x="3102.5" y="-73" font-family="Helvetica,sans-Serif" font-size="10.00">linear_algebra/instant</text>
<text text-anchor="middle" x="3161" y="-62" font-family="Helvetica,sans-Serif" font-size="10.00">_evaluated_operations.hpp</text>
</a>
</g>
</g>
<!-- Node2&#45;&gt;Node35 -->
<g id="edge51" class="edge">
<title>Node2&#45;&gt;Node35</title>
<path fill="none" stroke="#63b8ff" d="M1810.39,-134.03C2018.38,-129.93 2823.07,-112.92 3076,-85 3078.38,-84.74 3080.81,-84.44 3083.25,-84.12"/>
<polygon fill="#63b8ff" stroke="#63b8ff" points="3083.68,-87.45 3093.08,-82.57 3082.69,-80.52 3083.68,-87.45"/>
</g>
<!-- Node36 -->
<g id="node36" class="node">
<title>Node36</title>
<g id="a_node36"><a xlink:href="arithmetic__operators_8hpp.html" target="_top" xlink:title=" ">
<polygon fill="white" stroke="#666666" points="3368,-85 3246,-85 3246,-55 3368,-55 3368,-85"/>
<text text-anchor="start" x="3254" y="-73" font-family="Helvetica,sans-Serif" font-size="10.00">linear_algebra/arithmetic</text>
<text text-anchor="middle" x="3307" y="-62" font-family="Helvetica,sans-Serif" font-size="10.00">_operators.hpp</text>
</a>
</g>
</g>
<!-- Node2&#45;&gt;Node36 -->
<g id="edge53" class="edge">
<title>Node2&#45;&gt;Node36</title>
<path fill="none" stroke="#63b8ff" d="M1810.3,-134.38C2032.75,-131.47 2943.71,-118.02 3228,-85 3230.35,-84.73 3232.74,-84.42 3235.15,-84.08"/>
<polygon fill="#63b8ff" stroke="#63b8ff" points="3235.49,-87.41 3244.84,-82.41 3234.42,-80.49 3235.49,-87.41"/>
</g>
<!-- Node17&#45;&gt;Node16 -->
<g id="edge17" class="edge">
<title>Node17&#45;&gt;Node16</title>
<path fill="none" stroke="#63b8ff" d="M916.87,-54.54C911.27,-46.56 904.29,-36.59 898.38,-28.16"/>
<polygon fill="#63b8ff" stroke="#63b8ff" points="900.69,-26.36 892.08,-20.18 894.95,-30.37 900.69,-26.36"/>
</g>
<!-- Node18&#45;&gt;Node15 -->
<g id="edge19" class="edge">
<title>Node18&#45;&gt;Node15</title>
<path fill="none" stroke="#63b8ff" d="M1088.85,-60.12C1076.4,-51.01 1056.8,-36.68 1041.86,-25.75"/>
<polygon fill="#63b8ff" stroke="#63b8ff" points="1044.4,-22.55 1034.26,-19.47 1040.27,-28.2 1044.4,-22.55"/>
</g>
<!-- Node19 -->
<g id="node19" class="node">
<title>Node19</title>
<g id="a_node19"><a xlink:title=" ">
<polygon fill="#e0e0e0" stroke="#999999" points="1121,-19 1081,-19 1081,0 1121,0 1121,-19"/>
<text text-anchor="middle" x="1101" y="-7" font-family="Helvetica,sans-Serif" font-size="10.00">utility</text>
</a>
</g>
</g>
<!-- Node18&#45;&gt;Node19 -->
<g id="edge20" class="edge">
<title>Node18&#45;&gt;Node19</title>
<path fill="none" stroke="#63b8ff" d="M1101,-60.37C1101,-52.42 1101,-40.33 1101,-30.05"/>
<polygon fill="#63b8ff" stroke="#63b8ff" points="1104.5,-30.17 1101,-20.17 1097.5,-30.17 1104.5,-30.17"/>
</g>
<!-- Node21&#45;&gt;Node2 -->
<g id="edge23" class="edge">
<title>Node21&#45;&gt;Node2</title>
<path fill="none" stroke="#63b8ff" d="M1439.65,-81.33C1445.86,-82.62 1452.08,-83.88 1458,-85 1542.15,-100.93 1639.71,-116.03 1700.97,-125.38"/>
<polygon fill="#63b8ff" stroke="#63b8ff" points="1700.19,-128.96 1710.61,-127 1701.25,-122.04 1700.19,-128.96"/>
</g>
<!-- Node22&#45;&gt;Node2 -->
<g id="edge26" class="edge">
<title>Node22&#45;&gt;Node2</title>
<path fill="none" stroke="#63b8ff" d="M1564.74,-83.36C1604.83,-93.24 1659.51,-107.19 1701.02,-118.1"/>
<polygon fill="#63b8ff" stroke="#63b8ff" points="1699.97,-121.71 1710.54,-120.88 1701.76,-114.94 1699.97,-121.71"/>
</g>
<!-- Node23&#45;&gt;Node2 -->
<g id="edge28" class="edge">
<title>Node23&#45;&gt;Node2</title>
<path fill="none" stroke="#63b8ff" d="M1669.69,-85.31C1688.19,-94.2 1710.89,-105.73 1729.1,-115.45"/>
<polygon fill="#63b8ff" stroke="#63b8ff" points="1727.23,-118.96 1737.69,-120.64 1730.55,-112.8 1727.23,-118.96"/>
</g>
<!-- Node24&#45;&gt;Node2 -->
<g id="edge30" class="edge">
<title>Node24&#45;&gt;Node2</title>
<path fill="none" stroke="#63b8ff" d="M1766.71,-85.16C1767.66,-92.45 1767.96,-101.55 1767.61,-109.97"/>
<polygon fill="#63b8ff" stroke="#63b8ff" points="1764.05,-109.54 1766.72,-119.8 1771.02,-110.11 1764.05,-109.54"/>
</g>
<!-- Node25&#45;&gt;Node2 -->
<g id="edge32" class="edge">
<title>Node25&#45;&gt;Node2</title>
<path fill="none" stroke="#63b8ff" d="M1863.78,-85.31C1847.34,-94.32 1824.59,-106.05 1804.63,-115.86"/>
<polygon fill="#63b8ff" stroke="#63b8ff" points="1803.26,-113.12 1795.79,-120.64 1806.32,-119.41 1803.26,-113.12"/>
</g>
<!-- Node26&#45;&gt;Node2 -->
<g id="edge34" class="edge">
<title>Node26&#45;&gt;Node2</title>
<path fill="none" stroke="#63b8ff" d="M1960.35,-85.44C1920,-96.11 1863.51,-110.57 1820.92,-121.11"/>
<polygon fill="#63b8ff" stroke="#63b8ff" points="1820.28,-117.91 1811.41,-123.71 1821.96,-124.71 1820.28,-117.91"/>
</g>
<!-- Node27&#45;&gt;Node2 -->
<g id="edge36" class="edge">
<title>Node27&#45;&gt;Node2</title>
<path fill="none" stroke="#63b8ff" d="M2082.16,-85.16C1991.79,-102.54 1886.11,-118.5 1821.29,-127.47"/>
<polygon fill="#63b8ff" stroke="#63b8ff" points="1820.89,-124.13 1811.46,-128.95 1821.84,-131.06 1820.89,-124.13"/>
</g>
<!-- Node28&#45;&gt;Node2 -->
<g id="edge38" class="edge">
<title>Node28&#45;&gt;Node2</title>
<path fill="none" stroke="#63b8ff" d="M2207.16,-85.14C2070.15,-108.31 1907.41,-123.71 1821.26,-130.69"/>
<polygon fill="#63b8ff" stroke="#63b8ff" points="1821.07,-127.28 1811.39,-131.56 1821.63,-134.25 1821.07,-127.28"/>
</g>
<!-- Node29&#45;&gt;Node2 -->
<g id="edge40" class="edge">
<title>Node29&#45;&gt;Node2</title>
<path fill="none" stroke="#63b8ff" d="M2332.16,-85.14C2147.51,-115.01 1925.94,-128.05 1821.25,-132.76"/>
<polygon fill="#63b8ff" stroke="#63b8ff" points="1821.12,-129.3 1811.28,-133.24 1821.43,-136.29 1821.12,-129.3"/>
</g>
<!-- Node30&#45;&gt;Node2 -->
<g id="edge42" class="edge">
<title>Node30&#45;&gt;Node2</title>
<path fill="none" stroke="#63b8ff" d="M2451.65,-85.05C2220.28,-117.53 1941.72,-129.59 1821.23,-133.43"/>
<polygon fill="#63b8ff" stroke="#63b8ff" points="1821.3,-129.96 1811.42,-133.77 1821.52,-136.96 1821.3,-129.96"/>
</g>
<!-- Node31&#45;&gt;Node2 -->
<g id="edge44" class="edge">
<title>Node31&#45;&gt;Node2</title>
<path fill="none" stroke="#63b8ff" d="M2585.57,-85.06C2301.58,-126.55 1957.26,-133.65 1820.76,-134.81"/>
<polygon fill="#63b8ff" stroke="#63b8ff" points="1821.1,-131.31 1811.13,-134.89 1821.16,-138.31 1821.1,-131.31"/>
</g>
<!-- Node32&#45;&gt;Node2 -->
<g id="edge46" class="edge">
<title>Node32&#45;&gt;Node2</title>
<path fill="none" stroke="#63b8ff" d="M2705.5,-85.06C2373.82,-128.27 1971.53,-134.29 1821.3,-134.98"/>
<polygon fill="#63b8ff" stroke="#63b8ff" points="1821.48,-131.48 1811.5,-135.02 1821.51,-138.48 1821.48,-131.48"/>
</g>
<!-- Node33&#45;&gt;Node2 -->
<g id="edge48" class="edge">
<title>Node33&#45;&gt;Node2</title>
<path fill="none" stroke="#63b8ff" d="M2839.7,-85.04C2640.84,-112.58 2018.49,-129.16 1821.41,-133.72"/>
<polygon fill="#63b8ff" stroke="#63b8ff" points="1821.34,-130.24 1811.42,-133.97 1821.5,-137.24 1821.34,-130.24"/>
</g>
<!-- Node34&#45;&gt;Node2 -->
<g id="edge50" class="edge">
<title>Node34&#45;&gt;Node2</title>
<path fill="none" stroke="#63b8ff" d="M2959.67,-85.04C2735.92,-112.86 2032.3,-129.49 1821.31,-133.85"/>
<polygon fill="#63b8ff" stroke="#63b8ff" points="1821.39,-130.37 1811.47,-134.07 1821.54,-137.37 1821.39,-130.37"/>
</g>
<!-- Node35&#45;&gt;Node2 -->
<g id="edge52" class="edge">
<title>Node35&#45;&gt;Node2</title>
<path fill="none" stroke="#63b8ff" d="M3093.63,-85.04C2841.95,-112.76 2046.86,-129.71 1821.19,-133.95"/>
<polygon fill="#63b8ff" stroke="#63b8ff" points="1821.19,-130.47 1811.26,-134.15 1821.32,-137.46 1821.19,-130.47"/>
</g>
<!-- Node36&#45;&gt;Node2 -->
<g id="edge54" class="edge">
<title>Node36&#45;&gt;Node2</title>
<path fill="none" stroke="#63b8ff" d="M3245.58,-85.05C2962.61,-117.82 2062.1,-131.3 1820.88,-134.32"/>
<polygon fill="#63b8ff" stroke="#63b8ff" points="1821.18,-130.83 1811.23,-134.45 1821.27,-137.83 1821.18,-130.83"/>
</g>
</g>
</svg>
