<?xml version="1.0" encoding="UTF-8" standalone="no"?>
<!DOCTYPE svg PUBLIC "-//W3C//DTD SVG 1.1//EN"
 "http://www.w3.org/Graphics/SVG/1.1/DTD/svg11.dtd">
<!-- Generated by graphviz version 8.0.1 (20230327.1645)
 -->
<!-- Title: include/experimental/linear_algebra/forward_declarations.hpp Pages: 1 -->
<svg width="2095pt" height="192pt"
 viewBox="0.00 0.00 2094.50 192.00" xmlns="http://www.w3.org/2000/svg" xmlns:xlink="http://www.w3.org/1999/xlink">
<g id="graph0" class="graph" transform="scale(1 1) rotate(0) translate(4 188)">
<title>include/experimental/linear_algebra/forward_declarations.hpp</title>
<!-- Node1 -->
<g id="node1" class="node">
<title>Node1</title>
<g id="a_node1"><a xlink:title=" ">
<polygon fill="#999999" stroke="#666666" points="1121,-184 1006,-184 1006,-143 1121,-143 1121,-184"/>
<text text-anchor="start" x="1014" y="-172" font-family="Helvetica,sans-Serif" font-size="10.00">include/experimental</text>
<text text-anchor="start" x="1014" y="-161" font-family="Helvetica,sans-Serif" font-size="10.00">/linear_algebra/forward</text>
<text text-anchor="middle" x="1063.5" y="-150" font-family="Helvetica,sans-Serif" font-size="10.00">_declarations.hpp</text>
</a>
</g>
</g>
<!-- Node2 -->
<g id="node2" class="node">
<title>Node2</title>
<g id="a_node2"><a xlink:href="linear__algebra_8hpp.html" target="_top" xlink:title=" ">
<polygon fill="white" stroke="#666666" points="1116.5,-107 1010.5,-107 1010.5,-77 1116.5,-77 1116.5,-107"/>
<text text-anchor="start" x="1018.5" y="-95" font-family="Helvetica,sans-Serif" font-size="10.00">include/experimental</text>
<text text-anchor="middle" x="1063.5" y="-84" font-family="Helvetica,sans-Serif" font-size="10.00">/linear_algebra.hpp</text>
</a>
</g>
</g>
<!-- Node1&#45;&gt;Node2 -->
<g id="edge1" class="edge">
<title>Node1&#45;&gt;Node2</title>
<path fill="none" stroke="#63b8ff" d="M1056.79,-131.95C1056.61,-123.44 1056.98,-114.59 1057.9,-107.47"/>
<polygon fill="#63b8ff" stroke="#63b8ff" points="1053.34,-131.96 1057.34,-141.77 1060.33,-131.6 1053.34,-131.96"/>
</g>
<!-- Node2&#45;&gt;Node1 -->
<g id="edge16" class="edge">
<title>Node2&#45;&gt;Node1</title>
<path fill="none" stroke="#63b8ff" d="M1070.02,-118.21C1070.42,-126.3 1070.3,-135.13 1069.66,-142.77"/>
<polygon fill="#63b8ff" stroke="#63b8ff" points="1073.44,-118.14 1069.1,-108.47 1066.47,-118.74 1073.44,-118.14"/>
</g>
<!-- Node3 -->
<g id="node3" class="node">
<title>Node3</title>
<g id="a_node3"><a xlink:href="arithmetic__operators_8hpp.html" target="_top" xlink:title=" ">
<polygon fill="white" stroke="#666666" points="125,-41 0,-41 0,0 125,0 125,-41"/>
<text text-anchor="start" x="8" y="-29" font-family="Helvetica,sans-Serif" font-size="10.00">include/experimental</text>
<text text-anchor="start" x="8" y="-18" font-family="Helvetica,sans-Serif" font-size="10.00">/linear_algebra/arithmetic</text>
<text text-anchor="middle" x="62.5" y="-7" font-family="Helvetica,sans-Serif" font-size="10.00">_operators.hpp</text>
</a>
</g>
</g>
<!-- Node2&#45;&gt;Node3 -->
<g id="edge2" class="edge">
<title>Node2&#45;&gt;Node3</title>
<path fill="none" stroke="#63b8ff" d="M999.22,-89.45C816.1,-84.59 294.5,-68.38 125.26,-41.12"/>
<polygon fill="#63b8ff" stroke="#63b8ff" points="998.93,-92.97 1009.02,-89.73 999.11,-85.97 998.93,-92.97"/>
</g>
<!-- Node4 -->
<g id="node4" class="node">
<title>Node4</title>
<g id="a_node4"><a xlink:href="dynamic__matrix_8hpp.html" target="_top" xlink:title=" ">
<polygon fill="white" stroke="#666666" points="262,-41 143,-41 143,0 262,0 262,-41"/>
<text text-anchor="start" x="151" y="-29" font-family="Helvetica,sans-Serif" font-size="10.00">include/experimental</text>
<text text-anchor="start" x="151" y="-18" font-family="Helvetica,sans-Serif" font-size="10.00">/linear_algebra/dynamic</text>
<text text-anchor="middle" x="202.5" y="-7" font-family="Helvetica,sans-Serif" font-size="10.00">_matrix.hpp</text>
</a>
</g>
</g>
<!-- Node2&#45;&gt;Node4 -->
<g id="edge4" class="edge">
<title>Node2&#45;&gt;Node4</title>
<path fill="none" stroke="#63b8ff" d="M999.76,-91.62C863.26,-92.05 533.48,-87.9 262.32,-41.14"/>
<polygon fill="#63b8ff" stroke="#63b8ff" points="999.44,-95.11 1009.42,-91.57 999.41,-88.11 999.44,-95.11"/>
</g>
<!-- Node5 -->
<g id="node5" class="node">
<title>Node5</title>
<g id="a_node5"><a xlink:href="dynamic__tensor_8hpp.html" target="_top" xlink:title=" ">
<polygon fill="white" stroke="#666666" points="399,-41 280,-41 280,0 399,0 399,-41"/>
<text text-anchor="start" x="288" y="-29" font-family="Helvetica,sans-Serif" font-size="10.00">include/experimental</text>
<text text-anchor="start" x="288" y="-18" font-family="Helvetica,sans-Serif" font-size="10.00">/linear_algebra/dynamic</text>
<text text-anchor="middle" x="339.5" y="-7" font-family="Helvetica,sans-Serif" font-size="10.00">_tensor.hpp</text>
</a>
</g>
</g>
<!-- Node2&#45;&gt;Node5 -->
<g id="edge6" class="edge">
<title>Node2&#45;&gt;Node5</title>
<path fill="none" stroke="#63b8ff" d="M999.47,-90.51C880.26,-88.66 617.07,-80.13 399.49,-41.18"/>
<polygon fill="#63b8ff" stroke="#63b8ff" points="999.16,-94.02 1009.2,-90.66 999.26,-87.02 999.16,-94.02"/>
</g>
<!-- Node6 -->
<g id="node6" class="node">
<title>Node6</title>
<g id="a_node6"><a xlink:href="dynamic__vector_8hpp.html" target="_top" xlink:title=" ">
<polygon fill="white" stroke="#666666" points="536,-41 417,-41 417,0 536,0 536,-41"/>
<text text-anchor="start" x="425" y="-29" font-family="Helvetica,sans-Serif" font-size="10.00">include/experimental</text>
<text text-anchor="start" x="425" y="-18" font-family="Helvetica,sans-Serif" font-size="10.00">/linear_algebra/dynamic</text>
<text text-anchor="middle" x="476.5" y="-7" font-family="Helvetica,sans-Serif" font-size="10.00">_vector.hpp</text>
</a>
</g>
</g>
<!-- Node2&#45;&gt;Node6 -->
<g id="edge8" class="edge">
<title>Node2&#45;&gt;Node6</title>
<path fill="none" stroke="#63b8ff" d="M999.26,-88.76C899.35,-84.32 701.45,-71.99 536.75,-41.05"/>
<polygon fill="#63b8ff" stroke="#63b8ff" points="998.93,-92.29 1009.07,-89.23 999.23,-85.3 998.93,-92.29"/>
</g>
<!-- Node7 -->
<g id="node7" class="node">
<title>Node7</title>
<g id="a_node7"><a xlink:href="fixed__size__matrix_8hpp.html" target="_top" xlink:title=" ">
<polygon fill="white" stroke="#666666" points="660.5,-41 554.5,-41 554.5,0 660.5,0 660.5,-41"/>
<text text-anchor="start" x="562.5" y="-29" font-family="Helvetica,sans-Serif" font-size="10.00">include/experimental</text>
<text text-anchor="start" x="562.5" y="-18" font-family="Helvetica,sans-Serif" font-size="10.00">/linear_algebra/fixed</text>
<text text-anchor="middle" x="607.5" y="-7" font-family="Helvetica,sans-Serif" font-size="10.00">_size_matrix.hpp</text>
</a>
</g>
</g>
<!-- Node2&#45;&gt;Node7 -->
<g id="edge10" class="edge">
<title>Node2&#45;&gt;Node7</title>
<path fill="none" stroke="#63b8ff" d="M999.11,-86.88C918.95,-80.66 778.52,-66.8 660.86,-41.08"/>
<polygon fill="#63b8ff" stroke="#63b8ff" points="998.78,-90.44 1009.01,-87.7 999.31,-83.46 998.78,-90.44"/>
</g>
<!-- Node8 -->
<g id="node8" class="node">
<title>Node8</title>
<g id="a_node8"><a xlink:href="fixed__size__tensor_8hpp.html" target="_top" xlink:title=" ">
<polygon fill="white" stroke="#666666" points="784.5,-41 678.5,-41 678.5,0 784.5,0 784.5,-41"/>
<text text-anchor="start" x="686.5" y="-29" font-family="Helvetica,sans-Serif" font-size="10.00">include/experimental</text>
<text text-anchor="start" x="686.5" y="-18" font-family="Helvetica,sans-Serif" font-size="10.00">/linear_algebra/fixed</text>
<text text-anchor="middle" x="731.5" y="-7" font-family="Helvetica,sans-Serif" font-size="10.00">_size_tensor.hpp</text>
</a>
</g>
</g>
<!-- Node2&#45;&gt;Node8 -->
<g id="edge12" class="edge">
<title>Node2&#45;&gt;Node8</title>
<path fill="none" stroke="#63b8ff" d="M999.41,-82.48C942.5,-73.83 857.55,-59.15 784.95,-41.11"/>
<polygon fill="#63b8ff" stroke="#63b8ff" points="998.65,-86.06 1009.06,-84.08 999.69,-79.14 998.65,-86.06"/>
</g>
<!-- Node9 -->
<g id="node9" class="node">
<title>Node9</title>
<g id="a_node9"><a xlink:href="fixed__size__vector_8hpp.html" target="_top" xlink:title=" ">
<polygon fill="white" stroke="#666666" points="908.5,-41 802.5,-41 802.5,0 908.5,0 908.5,-41"/>
<text text-anchor="start" x="810.5" y="-29" font-family="Helvetica,sans-Serif" font-size="10.00">include/experimental</text>
<text text-anchor="start" x="810.5" y="-18" font-family="Helvetica,sans-Serif" font-size="10.00">/linear_algebra/fixed</text>
<text text-anchor="middle" x="855.5" y="-7" font-family="Helvetica,sans-Serif" font-size="10.00">_size_vector.hpp</text>
</a>
</g>
</g>
<!-- Node2&#45;&gt;Node9 -->
<g id="edge14" class="edge">
<title>Node2&#45;&gt;Node9</title>
<path fill="none" stroke="#63b8ff" d="M1004.19,-73.18C974.13,-63.46 937.97,-51.4 908.8,-41.37"/>
<polygon fill="#63b8ff" stroke="#63b8ff" points="1002.95,-76.78 1013.55,-76.52 1005.1,-70.12 1002.95,-76.78"/>
</g>
<!-- Node10 -->
<g id="node10" class="node">
<title>Node10</title>
<g id="a_node10"><a xlink:href="instant__evaluated__operations_8hpp.html" target="_top" xlink:title=" ">
<polygon fill="white" stroke="#666666" points="1060,-41 927,-41 927,0 1060,0 1060,-41"/>
<text text-anchor="start" x="935" y="-29" font-family="Helvetica,sans-Serif" font-size="10.00">include/experimental</text>
<text text-anchor="start" x="935" y="-18" font-family="Helvetica,sans-Serif" font-size="10.00">/linear_algebra/instant</text>
<text text-anchor="middle" x="993.5" y="-7" font-family="Helvetica,sans-Serif" font-size="10.00">_evaluated_operations.hpp</text>
</a>
</g>
</g>
<!-- Node2&#45;&gt;Node10 -->
<g id="edge17" class="edge">
<title>Node2&#45;&gt;Node10</title>
<path fill="none" stroke="#63b8ff" d="M1035.52,-69.47C1025.86,-60.52 1015.5,-50.19 1007.39,-41.42"/>
<polygon fill="#63b8ff" stroke="#63b8ff" points="1032.64,-71.49 1042.4,-75.6 1037.33,-66.3 1032.64,-71.49"/>
</g>
<!-- Node11 -->
<g id="node11" class="node">
<title>Node11</title>
<g id="a_node11"><a xlink:href="matrix__concepts_8hpp.html" target="_top" xlink:title=" ">
<polygon fill="white" stroke="#666666" points="1188.5,-41 1078.5,-41 1078.5,0 1188.5,0 1188.5,-41"/>
<text text-anchor="start" x="1086.5" y="-29" font-family="Helvetica,sans-Serif" font-size="10.00">include/experimental</text>
<text text-anchor="start" x="1086.5" y="-18" font-family="Helvetica,sans-Serif" font-size="10.00">/linear_algebra/matrix</text>
<text text-anchor="middle" x="1133.5" y="-7" font-family="Helvetica,sans-Serif" font-size="10.00">_concepts.hpp</text>
</a>
</g>
</g>
<!-- Node2&#45;&gt;Node11 -->
<g id="edge19" class="edge">
<title>Node2&#45;&gt;Node11</title>
<path fill="none" stroke="#63b8ff" d="M1079.65,-68.66C1087.89,-59.9 1097.99,-49.93 1107.27,-41.42"/>
<polygon fill="#63b8ff" stroke="#63b8ff" points="1077.56,-65.85 1073.41,-75.6 1082.73,-70.57 1077.56,-65.85"/>
</g>
<!-- Node12 -->
<g id="node12" class="node">
<title>Node12</title>
<g id="a_node12"><a xlink:href="matrix__view_8hpp.html" target="_top" xlink:title=" ">
<polygon fill="white" stroke="#666666" points="1316.5,-41 1206.5,-41 1206.5,0 1316.5,0 1316.5,-41"/>
<text text-anchor="start" x="1214.5" y="-29" font-family="Helvetica,sans-Serif" font-size="10.00">include/experimental</text>
<text text-anchor="start" x="1214.5" y="-18" font-family="Helvetica,sans-Serif" font-size="10.00">/linear_algebra/matrix</text>
<text text-anchor="middle" x="1261.5" y="-7" font-family="Helvetica,sans-Serif" font-size="10.00">_view.hpp</text>
</a>
</g>
</g>
<!-- Node2&#45;&gt;Node12 -->
<g id="edge21" class="edge">
<title>Node2&#45;&gt;Node12</title>
<path fill="none" stroke="#63b8ff" d="M1109.17,-72.86C1138.09,-62.35 1175.59,-49.2 1206.19,-38.83"/>
<polygon fill="#63b8ff" stroke="#63b8ff" points="1108.12,-69.88 1099.93,-76.6 1110.53,-76.46 1108.12,-69.88"/>
</g>
<!-- Node13 -->
<g id="node13" class="node">
<title>Node13</title>
<g id="a_node13"><a xlink:href="private__support_8hpp.html" target="_top" xlink:title=" ">
<polygon fill="white" stroke="#666666" points="1446.5,-41 1334.5,-41 1334.5,0 1446.5,0 1446.5,-41"/>
<text text-anchor="start" x="1342.5" y="-29" font-family="Helvetica,sans-Serif" font-size="10.00">include/experimental</text>
<text text-anchor="start" x="1342.5" y="-18" font-family="Helvetica,sans-Serif" font-size="10.00">/linear_algebra/private</text>
<text text-anchor="middle" x="1390.5" y="-7" font-family="Helvetica,sans-Serif" font-size="10.00">_support.hpp</text>
</a>
</g>
</g>
<!-- Node2&#45;&gt;Node13 -->
<g id="edge23" class="edge">
<title>Node2&#45;&gt;Node13</title>
<path fill="none" stroke="#63b8ff" d="M1127.48,-79.41C1178.86,-70.33 1252.57,-56.65 1316.5,-41 1322.22,-39.6 1328.19,-38 1334.15,-36.34"/>
<polygon fill="#63b8ff" stroke="#63b8ff" points="1127.11,-76.1 1117.87,-81.28 1128.32,-82.99 1127.11,-76.1"/>
</g>
<!-- Node14 -->
<g id="node14" class="node">
<title>Node14</title>
<g id="a_node14"><a xlink:href="tensor__concepts_8hpp.html" target="_top" xlink:title=" ">
<polygon fill="white" stroke="#666666" points="1574.5,-41 1464.5,-41 1464.5,0 1574.5,0 1574.5,-41"/>
<text text-anchor="start" x="1472.5" y="-29" font-family="Helvetica,sans-Serif" font-size="10.00">include/experimental</text>
<text text-anchor="start" x="1472.5" y="-18" font-family="Helvetica,sans-Serif" font-size="10.00">/linear_algebra/tensor</text>
<text text-anchor="middle" x="1519.5" y="-7" font-family="Helvetica,sans-Serif" font-size="10.00">_concepts.hpp</text>
</a>
</g>
</g>
<!-- Node2&#45;&gt;Node14 -->
<g id="edge25" class="edge">
<title>Node2&#45;&gt;Node14</title>
<path fill="none" stroke="#63b8ff" d="M1127.82,-85.58C1204.38,-78.71 1335.57,-64.8 1446.5,-41 1452.29,-39.76 1458.32,-38.24 1464.32,-36.6"/>
<polygon fill="#63b8ff" stroke="#63b8ff" points="1127.59,-82.18 1117.93,-86.55 1128.2,-89.15 1127.59,-82.18"/>
</g>
<!-- Node15 -->
<g id="node15" class="node">
<title>Node15</title>
<g id="a_node15"><a xlink:href="tensor__view_8hpp.html" target="_top" xlink:title=" ">
<polygon fill="white" stroke="#666666" points="1702.5,-41 1592.5,-41 1592.5,0 1702.5,0 1702.5,-41"/>
<text text-anchor="start" x="1600.5" y="-29" font-family="Helvetica,sans-Serif" font-size="10.00">include/experimental</text>
<text text-anchor="start" x="1600.5" y="-18" font-family="Helvetica,sans-Serif" font-size="10.00">/linear_algebra/tensor</text>
<text text-anchor="middle" x="1647.5" y="-7" font-family="Helvetica,sans-Serif" font-size="10.00">_view.hpp</text>
</a>
</g>
</g>
<!-- Node2&#45;&gt;Node15 -->
<g id="edge27" class="edge">
<title>Node2&#45;&gt;Node15</title>
<path fill="none" stroke="#63b8ff" d="M1127.82,-88.7C1225.29,-84.39 1415.6,-72.52 1574.5,-41 1580.2,-39.87 1586.11,-38.44 1592,-36.86"/>
<polygon fill="#63b8ff" stroke="#63b8ff" points="1127.81,-85.24 1117.97,-89.16 1128.11,-92.23 1127.81,-85.24"/>
</g>
<!-- Node16 -->
<g id="node16" class="node">
<title>Node16</title>
<g id="a_node16"><a xlink:href="tensor__view__impl_8hpp.html" target="_top" xlink:title=" ">
<polygon fill="white" stroke="#666666" points="1830.5,-41 1720.5,-41 1720.5,0 1830.5,0 1830.5,-41"/>
<text text-anchor="start" x="1728.5" y="-29" font-family="Helvetica,sans-Serif" font-size="10.00">include/experimental</text>
<text text-anchor="start" x="1728.5" y="-18" font-family="Helvetica,sans-Serif" font-size="10.00">/linear_algebra/tensor</text>
<text text-anchor="middle" x="1775.5" y="-7" font-family="Helvetica,sans-Serif" font-size="10.00">_view_impl.hpp</text>
</a>
</g>
</g>
<!-- Node2&#45;&gt;Node16 -->
<g id="edge29" class="edge">
<title>Node2&#45;&gt;Node16</title>
<path fill="none" stroke="#63b8ff" d="M1127.38,-90.6C1243.1,-88.82 1494.38,-80.24 1702.5,-41 1708.21,-39.92 1714.13,-38.52 1720.02,-36.97"/>
<polygon fill="#63b8ff" stroke="#63b8ff" points="1127.56,-87.11 1117.61,-90.75 1127.65,-94.11 1127.56,-87.11"/>
</g>
<!-- Node17 -->
<g id="node17" class="node">
<title>Node17</title>
<g id="a_node17"><a xlink:href="vector__concepts_8hpp.html" target="_top" xlink:title=" ">
<polygon fill="white" stroke="#666666" points="1958.5,-41 1848.5,-41 1848.5,0 1958.5,0 1958.5,-41"/>
<text text-anchor="start" x="1856.5" y="-29" font-family="Helvetica,sans-Serif" font-size="10.00">include/experimental</text>
<text text-anchor="start" x="1856.5" y="-18" font-family="Helvetica,sans-Serif" font-size="10.00">/linear_algebra/vector</text>
<text text-anchor="middle" x="1903.5" y="-7" font-family="Helvetica,sans-Serif" font-size="10.00">_concepts.hpp</text>
</a>
</g>
</g>
<!-- Node2&#45;&gt;Node17 -->
<g id="edge31" class="edge">
<title>Node2&#45;&gt;Node17</title>
<path fill="none" stroke="#63b8ff" d="M1127.49,-91.87C1259.91,-92.43 1572.77,-87.91 1830.5,-41 1836.21,-39.96 1842.14,-38.58 1848.04,-37.04"/>
<polygon fill="#63b8ff" stroke="#63b8ff" points="1127.77,-88.37 1117.75,-91.82 1127.73,-95.37 1127.77,-88.37"/>
</g>
<!-- Node18 -->
<g id="node18" class="node">
<title>Node18</title>
<g id="a_node18"><a xlink:href="vector__view_8hpp.html" target="_top" xlink:title=" ">
<polygon fill="white" stroke="#666666" points="2086.5,-41 1976.5,-41 1976.5,0 2086.5,0 2086.5,-41"/>
<text text-anchor="start" x="1984.5" y="-29" font-family="Helvetica,sans-Serif" font-size="10.00">include/experimental</text>
<text text-anchor="start" x="1984.5" y="-18" font-family="Helvetica,sans-Serif" font-size="10.00">/linear_algebra/vector</text>
<text text-anchor="middle" x="2031.5" y="-7" font-family="Helvetica,sans-Serif" font-size="10.00">_view.hpp</text>
</a>
</g>
</g>
<!-- Node2&#45;&gt;Node18 -->
<g id="edge33" class="edge">
<title>Node2&#45;&gt;Node18</title>
<path fill="none" stroke="#63b8ff" d="M1127.86,-89.34C1305.26,-84.59 1798.17,-69.43 1958.5,-41 1964.22,-39.99 1970.14,-38.62 1976.05,-37.09"/>
<polygon fill="#63b8ff" stroke="#63b8ff" points="1127.8,-85.87 1117.89,-89.63 1127.98,-92.86 1127.8,-85.87"/>
</g>
<!-- Node3&#45;&gt;Node2 -->
<g id="edge3" class="edge">
<title>Node3&#45;&gt;Node2</title>
<path fill="none" stroke="#63b8ff" d="M136.18,-39.88C138.31,-40.29 140.42,-40.66 142.5,-41 311.88,-68.49 839.68,-84.77 1010.01,-89.53"/>
<polygon fill="#63b8ff" stroke="#63b8ff" points="136.97,-36.26 126.46,-37.62 135.52,-43.11 136.97,-36.26"/>
</g>
<!-- Node4&#45;&gt;Node2 -->
<g id="edge5" class="edge">
<title>Node4&#45;&gt;Node2</title>
<path fill="none" stroke="#63b8ff" d="M272.9,-39.75C275.12,-40.21 277.33,-40.62 279.5,-41 551.7,-88.04 883.28,-92.08 1010.48,-91.61"/>
<polygon fill="#63b8ff" stroke="#63b8ff" points="273.94,-36.17 263.41,-37.4 272.4,-43 273.94,-36.17"/>
</g>
<!-- Node5&#45;&gt;Node2 -->
<g id="edge7" class="edge">
<title>Node5&#45;&gt;Node2</title>
<path fill="none" stroke="#63b8ff" d="M409.91,-39.71C412.13,-40.18 414.33,-40.61 416.5,-41 634.6,-80.16 898.87,-88.68 1010.17,-90.51"/>
<polygon fill="#63b8ff" stroke="#63b8ff" points="410.95,-36.13 400.42,-37.32 409.4,-42.96 410.95,-36.13"/>
</g>
<!-- Node6&#45;&gt;Node2 -->
<g id="edge9" class="edge">
<title>Node6&#45;&gt;Node2</title>
<path fill="none" stroke="#63b8ff" d="M546.97,-39.47C549.51,-40.02 552.02,-40.53 554.5,-41 719.21,-71.96 917.2,-84.31 1010.33,-88.76"/>
<polygon fill="#63b8ff" stroke="#63b8ff" points="547.98,-35.88 537.44,-37.01 546.39,-42.69 547.98,-35.88"/>
</g>
<!-- Node7&#45;&gt;Node2 -->
<g id="edge11" class="edge">
<title>Node7&#45;&gt;Node2</title>
<path fill="none" stroke="#63b8ff" d="M671.42,-39.34C673.8,-39.93 676.17,-40.49 678.5,-41 795.53,-66.62 935.2,-80.49 1010.05,-86.77"/>
<polygon fill="#63b8ff" stroke="#63b8ff" points="672.43,-35.72 661.87,-36.52 670.63,-42.48 672.43,-35.72"/>
</g>
<!-- Node8&#45;&gt;Node2 -->
<g id="edge13" class="edge">
<title>Node8&#45;&gt;Node2</title>
<path fill="none" stroke="#63b8ff" d="M795.46,-39.17C797.83,-39.81 800.19,-40.42 802.5,-41 873.74,-58.73 956.98,-73.22 1010.04,-81.96"/>
<polygon fill="#63b8ff" stroke="#63b8ff" points="796.52,-35.55 785.94,-36.21 794.62,-42.29 796.52,-35.55"/>
</g>
<!-- Node9&#45;&gt;Node2 -->
<g id="edge15" class="edge">
<title>Node9&#45;&gt;Node2</title>
<path fill="none" stroke="#63b8ff" d="M918.81,-40.61C953.85,-51.98 996.15,-66.18 1025.99,-76.6"/>
<polygon fill="#63b8ff" stroke="#63b8ff" points="920.25,-37.08 909.66,-37.34 918.1,-43.74 920.25,-37.08"/>
</g>
<!-- Node10&#45;&gt;Node2 -->
<g id="edge18" class="edge">
<title>Node10&#45;&gt;Node2</title>
<path fill="none" stroke="#63b8ff" d="M1027.61,-48.8C1037.53,-58.3 1047.54,-68.57 1054.59,-76.6"/>
<polygon fill="#63b8ff" stroke="#63b8ff" points="1030.42,-46.7 1020.73,-42.42 1025.63,-51.81 1030.42,-46.7"/>
</g>
<!-- Node11&#45;&gt;Node2 -->
<g id="edge20" class="edge">
<title>Node11&#45;&gt;Node2</title>
<path fill="none" stroke="#63b8ff" d="M1112.06,-49.37C1102.99,-58.7 1092.54,-68.73 1083.6,-76.6"/>
<polygon fill="#63b8ff" stroke="#63b8ff" points="1114.26,-52.08 1118.61,-42.42 1109.19,-47.26 1114.26,-52.08"/>
</g>
<!-- Node12&#45;&gt;Node2 -->
<g id="edge22" class="edge">
<title>Node12&#45;&gt;Node2</title>
<path fill="none" stroke="#63b8ff" d="M1200.99,-44.99C1171.86,-55.44 1137.5,-67.41 1110.37,-76.52"/>
<polygon fill="#63b8ff" stroke="#63b8ff" points="1201.84,-48.05 1210.06,-41.37 1199.47,-41.46 1201.84,-48.05"/>
</g>
<!-- Node13&#45;&gt;Node2 -->
<g id="edge24" class="edge">
<title>Node13&#45;&gt;Node2</title>
<path fill="none" stroke="#63b8ff" d="M1323.51,-43.65C1251.46,-60.75 1169.42,-75.25 1116.99,-83.54"/>
<polygon fill="#63b8ff" stroke="#63b8ff" points="1324.16,-46.85 1333.06,-41.11 1322.52,-40.05 1324.16,-46.85"/>
</g>
<!-- Node14&#45;&gt;Node2 -->
<g id="edge26" class="edge">
<title>Node14&#45;&gt;Node2</title>
<path fill="none" stroke="#63b8ff" d="M1453.66,-43.28C1333.16,-68.16 1191.91,-81.74 1116.71,-87.55"/>
<polygon fill="#63b8ff" stroke="#63b8ff" points="1454.07,-46.56 1463.14,-41.08 1452.63,-39.71 1454.07,-46.56"/>
</g>
<!-- Node15&#45;&gt;Node2 -->
<g id="edge28" class="edge">
<title>Node15&#45;&gt;Node2</title>
<path fill="none" stroke="#63b8ff" d="M1581.66,-43.11C1412.34,-75.48 1210.96,-86.22 1116.8,-89.58"/>
<polygon fill="#63b8ff" stroke="#63b8ff" points="1582.1,-46.4 1591.25,-41.05 1580.76,-39.52 1582.1,-46.4"/>
</g>
<!-- Node16&#45;&gt;Node2 -->
<g id="edge30" class="edge">
<title>Node16&#45;&gt;Node2</title>
<path fill="none" stroke="#63b8ff" d="M1709.45,-43.05C1490.38,-82.95 1227.46,-89.8 1116.68,-90.86"/>
<polygon fill="#63b8ff" stroke="#63b8ff" points="1709.98,-46.32 1719.18,-41.06 1708.71,-39.44 1709.98,-46.32"/>
</g>
<!-- Node17&#45;&gt;Node2 -->
<g id="edge32" class="edge">
<title>Node17&#45;&gt;Node2</title>
<path fill="none" stroke="#63b8ff" d="M1837.34,-43C1568.17,-90.44 1243.1,-92.78 1116.98,-91.75"/>
<polygon fill="#63b8ff" stroke="#63b8ff" points="1837.88,-46.28 1847.1,-41.07 1836.64,-39.39 1837.88,-46.28"/>
</g>
<!-- Node18&#45;&gt;Node2 -->
<g id="edge34" class="edge">
<title>Node18&#45;&gt;Node2</title>
<path fill="none" stroke="#63b8ff" d="M1965.31,-42.88C1787.89,-71.13 1282.56,-85.79 1116.8,-89.83"/>
<polygon fill="#63b8ff" stroke="#63b8ff" points="1965.73,-46.19 1975.01,-41.09 1964.57,-39.29 1965.73,-46.19"/>
</g>
</g>
</svg>
