<?xml version="1.0" encoding="UTF-8" standalone="no"?>
<!DOCTYPE svg PUBLIC "-//W3C//DTD SVG 1.1//EN"
 "http://www.w3.org/Graphics/SVG/1.1/DTD/svg11.dtd">
<!-- Generated by graphviz version 8.0.1 (20230327.1645)
 -->
<!-- Title: Graphical Class Hierarchy Pages: 1 -->
<svg width="296pt" height="294pt"
 viewBox="0.00 0.00 296.00 293.50" xmlns="http://www.w3.org/2000/svg" xmlns:xlink="http://www.w3.org/1999/xlink">
<g id="graph0" class="graph" transform="scale(1 1) rotate(0) translate(4 289.5)">
<title>Graphical Class Hierarchy</title>
<!-- Node0 -->
<g id="node1" class="node">
<title>Node0</title>
<g id="a_node1"><a xlink:title=" ">
<polygon fill="#e0e0e0" stroke="#999999" points="71,-188 0,-188 0,-169 71,-169 71,-188"/>
<text text-anchor="middle" x="35.5" y="-176" font-family="Helvetica,sans-Serif" font-size="10.00">conditional_t</text>
</a>
</g>
</g>
<!-- Node1 -->
<g id="node2" class="node">
<title>Node1</title>
<g id="a_node2"><a xlink:href="structstd_1_1math_1_1detail_1_1extents__is__equal.html" target="_top" xlink:title=" ">
<polygon fill="white" stroke="#666666" points="260.5,-285.5 134.5,-285.5 134.5,-255.5 260.5,-255.5 260.5,-285.5"/>
<text text-anchor="start" x="142.5" y="-273.5" font-family="Helvetica,sans-Serif" font-size="10.00">std::math::detail::</text>
<text text-anchor="middle" x="197.5" y="-262.5" font-family="Helvetica,sans-Serif" font-size="10.00">extents_is_equal&lt; T, U &gt;</text>
</a>
</g>
</g>
<!-- Node0&#45;&gt;Node1 -->
<g id="edge1" class="edge">
<title>Node0&#45;&gt;Node1</title>
<path fill="none" stroke="#63b8ff" d="M50.78,-196.71C63.83,-212.15 84.48,-233.76 107,-246.5 115.4,-251.25 124.78,-255.09 134.22,-258.19"/>
<polygon fill="#63b8ff" stroke="#63b8ff" points="53.05,-194.97 44.01,-189.44 47.64,-199.4 53.05,-194.97"/>
</g>
<!-- Node2 -->
<g id="node3" class="node">
<title>Node2</title>
<g id="a_node3"><a xlink:href="structstd_1_1math_1_1detail_1_1extents__is__static_3_01experimental_1_1extents_3_01_size_type_00_01_extents_8_8_8_01_4_01_4.html" target="_top" xlink:title=" ">
<polygon fill="white" stroke="#666666" points="283,-237 112,-237 112,-196 283,-196 283,-237"/>
<text text-anchor="start" x="120" y="-225" font-family="Helvetica,sans-Serif" font-size="10.00">std::math::detail::</text>
<text text-anchor="start" x="120" y="-214" font-family="Helvetica,sans-Serif" font-size="10.00">extents_is_static&lt; experimental</text>
<text text-anchor="middle" x="197.5" y="-203" font-family="Helvetica,sans-Serif" font-size="10.00">::extents&lt; SizeType, Extents... &gt; &gt;</text>
</a>
</g>
</g>
<!-- Node0&#45;&gt;Node2 -->
<g id="edge2" class="edge">
<title>Node0&#45;&gt;Node2</title>
<path fill="none" stroke="#63b8ff" d="M81.82,-189.26C91.19,-191.49 101.36,-193.9 111.63,-196.34"/>
<polygon fill="#63b8ff" stroke="#63b8ff" points="82.76,-185.65 72.22,-186.75 81.14,-192.46 82.76,-185.65"/>
</g>
<!-- Node3 -->
<g id="node4" class="node">
<title>Node3</title>
<g id="a_node4"><a xlink:href="structstd_1_1math_1_1detail_1_1extents__may__be__equal_3_01experimental_1_1extents_3_01_size_typ8f6397dee7148faae9339cda58de8af0.html" target="_top" xlink:title=" ">
<polygon fill="white" stroke="#666666" points="288,-177.5 107,-177.5 107,-103.5 288,-103.5 288,-177.5"/>
<text text-anchor="start" x="115" y="-165.5" font-family="Helvetica,sans-Serif" font-size="10.00">std::math::detail::</text>
<text text-anchor="start" x="115" y="-154.5" font-family="Helvetica,sans-Serif" font-size="10.00">extents_may_be_equal</text>
<text text-anchor="start" x="115" y="-143.5" font-family="Helvetica,sans-Serif" font-size="10.00">&lt; experimental::extents</text>
<text text-anchor="start" x="115" y="-132.5" font-family="Helvetica,sans-Serif" font-size="10.00">&lt; SizeType, Extents...</text>
<text text-anchor="start" x="115" y="-121.5" font-family="Helvetica,sans-Serif" font-size="10.00"> &gt;, experimental::extents</text>
<text text-anchor="middle" x="197.5" y="-110.5" font-family="Helvetica,sans-Serif" font-size="10.00">&lt; OtherSizeType, OtherExtents... &gt; &gt;</text>
</a>
</g>
</g>
<!-- Node0&#45;&gt;Node3 -->
<g id="edge3" class="edge">
<title>Node0&#45;&gt;Node3</title>
<path fill="none" stroke="#63b8ff" d="M81.91,-167.71C89.77,-165.85 98.17,-163.85 106.73,-161.82"/>
<polygon fill="#63b8ff" stroke="#63b8ff" points="81.14,-164.54 72.22,-170.25 82.76,-171.35 81.14,-164.54"/>
</g>
<!-- Node4 -->
<g id="node5" class="node">
<title>Node4</title>
<g id="a_node5"><a xlink:href="structstd_1_1math_1_1detail_1_1extents__may__be__equal__impl_3_01experimental_1_1extents_3_01_sia22c23b624faf4ba6292a8be984ea02d.html" target="_top" xlink:title=" ">
<polygon fill="white" stroke="#666666" points="282.5,-85 112.5,-85 112.5,0 282.5,0 282.5,-85"/>
<text text-anchor="start" x="120.5" y="-73" font-family="Helvetica,sans-Serif" font-size="10.00">std::math::detail::</text>
<text text-anchor="start" x="120.5" y="-62" font-family="Helvetica,sans-Serif" font-size="10.00">extents_may_be_equal</text>
<text text-anchor="start" x="120.5" y="-51" font-family="Helvetica,sans-Serif" font-size="10.00">_impl&lt; experimental::</text>
<text text-anchor="start" x="120.5" y="-40" font-family="Helvetica,sans-Serif" font-size="10.00">extents&lt; SizeType, Extents...</text>
<text text-anchor="start" x="120.5" y="-29" font-family="Helvetica,sans-Serif" font-size="10.00"> &gt;, experimental::extents&lt;</text>
<text text-anchor="start" x="120.5" y="-18" font-family="Helvetica,sans-Serif" font-size="10.00"> OtherSizeType, OtherExtents...</text>
<text text-anchor="middle" x="197.5" y="-7" font-family="Helvetica,sans-Serif" font-size="10.00"> &gt;, index_sequence&lt; Indices... &gt; &gt;</text>
</a>
</g>
</g>
<!-- Node0&#45;&gt;Node4 -->
<g id="edge4" class="edge">
<title>Node0&#45;&gt;Node4</title>
<path fill="none" stroke="#63b8ff" d="M48.95,-160.23C61.95,-142.05 83.68,-114.12 107,-94.5 110.71,-91.38 114.64,-88.33 118.69,-85.39"/>
<polygon fill="#63b8ff" stroke="#63b8ff" points="45.85,-157.55 42.98,-167.75 51.59,-161.56 45.85,-157.55"/>
</g>
</g>
</svg>
