<?xml version="1.0" encoding="UTF-8" standalone="no"?>
<!DOCTYPE svg PUBLIC "-//W3C//DTD SVG 1.1//EN"
 "http://www.w3.org/Graphics/SVG/1.1/DTD/svg11.dtd">
<!-- Generated by graphviz version 2.43.0 (0)
 -->
<!-- Title: Graphical Class Hierarchy Pages: 1 -->
<svg width="323pt" height="297pt"
 viewBox="0.00 0.00 323.00 296.50" xmlns="http://www.w3.org/2000/svg" xmlns:xlink="http://www.w3.org/1999/xlink">
<g id="graph0" class="graph" transform="scale(1 1) rotate(0) translate(4 292.5)">
<title>Graphical Class Hierarchy</title>
<polygon fill="white" stroke="transparent" points="-4,4 -4,-292.5 319,-292.5 319,4 -4,4"/>
<!-- Node6 -->
<g id="node1" class="node">
<title>Node6</title>
<g id="a_node1"><a xlink:title=" ">
<polygon fill="white" stroke="#bfbfbf" points="0,-170.5 0,-189.5 80,-189.5 80,-170.5 0,-170.5"/>
<text text-anchor="middle" x="40" y="-177.5" font-family="Helvetica,sans-Serif" font-size="10.00">conditional_t</text>
</a>
</g>
</g>
<!-- Node0 -->
<g id="node2" class="node">
<title>Node0</title>
<g id="a_node2"><a xlink:href="structstd_1_1math_1_1detail_1_1extents__is__equal.html" target="_top" xlink:title=" ">
<polygon fill="white" stroke="black" points="145,-258 145,-288 286,-288 286,-258 145,-258"/>
<text text-anchor="start" x="153" y="-276" font-family="Helvetica,sans-Serif" font-size="10.00">std::math::detail::</text>
<text text-anchor="middle" x="215.5" y="-265" font-family="Helvetica,sans-Serif" font-size="10.00">extents_is_equal&lt; T, U &gt;</text>
</a>
</g>
</g>
<!-- Node6&#45;&gt;Node0 -->
<g id="edge1" class="edge">
<title>Node6&#45;&gt;Node0</title>
<path fill="none" stroke="midnightblue" d="M55.99,-197.82C69.98,-213.32 92.22,-235.24 116,-248 124.94,-252.8 134.83,-256.7 144.8,-259.87"/>
<polygon fill="midnightblue" stroke="midnightblue" points="58.34,-195.18 49.11,-189.97 53.07,-199.8 58.34,-195.18"/>
</g>
<!-- Node8 -->
<g id="node3" class="node">
<title>Node8</title>
<g id="a_node3"><a xlink:href="structstd_1_1math_1_1detail_1_1extents__is__static_3_01experimental_1_1extents_3_01_size_type_00_01_extents_8_8_8_01_4_01_4.html" target="_top" xlink:title=" ">
<polygon fill="white" stroke="black" points="121.5,-197.5 121.5,-238.5 309.5,-238.5 309.5,-197.5 121.5,-197.5"/>
<text text-anchor="start" x="129.5" y="-226.5" font-family="Helvetica,sans-Serif" font-size="10.00">std::math::detail::</text>
<text text-anchor="start" x="129.5" y="-215.5" font-family="Helvetica,sans-Serif" font-size="10.00">extents_is_static&lt; experimental</text>
<text text-anchor="middle" x="215.5" y="-204.5" font-family="Helvetica,sans-Serif" font-size="10.00">::extents&lt; SizeType, Extents... &gt; &gt;</text>
</a>
</g>
</g>
<!-- Node6&#45;&gt;Node8 -->
<g id="edge2" class="edge">
<title>Node6&#45;&gt;Node8</title>
<path fill="none" stroke="midnightblue" d="M90.22,-190.78C99.97,-192.92 110.5,-195.22 121.17,-197.56"/>
<polygon fill="midnightblue" stroke="midnightblue" points="90.89,-187.34 80.37,-188.62 89.39,-194.18 90.89,-187.34"/>
</g>
<!-- Node9 -->
<g id="node4" class="node">
<title>Node9</title>
<g id="a_node4"><a xlink:href="structstd_1_1math_1_1detail_1_1extents__may__be__equal_3_01experimental_1_1extents_3_01_size_typ8f6397dee7148faae9339cda58de8af0.html" target="_top" xlink:title=" ">
<polygon fill="white" stroke="black" points="116,-105 116,-179 315,-179 315,-105 116,-105"/>
<text text-anchor="start" x="124" y="-167" font-family="Helvetica,sans-Serif" font-size="10.00">std::math::detail::</text>
<text text-anchor="start" x="124" y="-156" font-family="Helvetica,sans-Serif" font-size="10.00">extents_may_be_equal</text>
<text text-anchor="start" x="124" y="-145" font-family="Helvetica,sans-Serif" font-size="10.00">&lt; experimental::extents</text>
<text text-anchor="start" x="124" y="-134" font-family="Helvetica,sans-Serif" font-size="10.00">&lt; SizeType, Extents...</text>
<text text-anchor="start" x="124" y="-123" font-family="Helvetica,sans-Serif" font-size="10.00"> &gt;, experimental::extents</text>
<text text-anchor="middle" x="215.5" y="-112" font-family="Helvetica,sans-Serif" font-size="10.00">&lt; OtherSizeType, OtherExtents... &gt; &gt;</text>
</a>
</g>
</g>
<!-- Node6&#45;&gt;Node9 -->
<g id="edge3" class="edge">
<title>Node6&#45;&gt;Node9</title>
<path fill="none" stroke="midnightblue" d="M90.33,-169.2C98.45,-167.42 107.1,-165.52 115.93,-163.59"/>
<polygon fill="midnightblue" stroke="midnightblue" points="89.39,-165.82 80.37,-171.38 90.89,-172.66 89.39,-165.82"/>
</g>
<!-- Node10 -->
<g id="node5" class="node">
<title>Node10</title>
<g id="a_node5"><a xlink:href="structstd_1_1math_1_1detail_1_1extents__may__be__equal__impl_3_01experimental_1_1extents_3_01_sia22c23b624faf4ba6292a8be984ea02d.html" target="_top" xlink:title=" ">
<polygon fill="white" stroke="black" points="120.5,-0.5 120.5,-85.5 310.5,-85.5 310.5,-0.5 120.5,-0.5"/>
<text text-anchor="start" x="128.5" y="-73.5" font-family="Helvetica,sans-Serif" font-size="10.00">std::math::detail::</text>
<text text-anchor="start" x="128.5" y="-62.5" font-family="Helvetica,sans-Serif" font-size="10.00">extents_may_be_equal</text>
<text text-anchor="start" x="128.5" y="-51.5" font-family="Helvetica,sans-Serif" font-size="10.00">_impl&lt; experimental::</text>
<text text-anchor="start" x="128.5" y="-40.5" font-family="Helvetica,sans-Serif" font-size="10.00">extents&lt; SizeType, Extents...</text>
<text text-anchor="start" x="128.5" y="-29.5" font-family="Helvetica,sans-Serif" font-size="10.00"> &gt;, experimental::extents&lt;</text>
<text text-anchor="start" x="128.5" y="-18.5" font-family="Helvetica,sans-Serif" font-size="10.00"> OtherSizeType, OtherExtents...</text>
<text text-anchor="middle" x="215.5" y="-7.5" font-family="Helvetica,sans-Serif" font-size="10.00"> &gt;, index_sequence&lt; Indices... &gt; &gt;</text>
</a>
</g>
</g>
<!-- Node6&#45;&gt;Node10 -->
<g id="edge4" class="edge">
<title>Node6&#45;&gt;Node10</title>
<path fill="none" stroke="midnightblue" d="M53.74,-162.42C67.58,-144.19 91.07,-115.66 116,-96 120.57,-92.39 125.43,-88.9 130.44,-85.55"/>
<polygon fill="midnightblue" stroke="midnightblue" points="50.92,-160.34 47.76,-170.45 56.54,-164.52 50.92,-160.34"/>
</g>
</g>
</svg>
