<?xml version="1.0" encoding="UTF-8" standalone="no"?>
<!DOCTYPE svg PUBLIC "-//W3C//DTD SVG 1.1//EN"
 "http://www.w3.org/Graphics/SVG/1.1/DTD/svg11.dtd">
<!-- Generated by graphviz version 2.43.0 (0)
 -->
<!-- Title: Graphical Class Hierarchy Pages: 1 -->
<svg width="321pt" height="423pt"
 viewBox="0.00 0.00 321.00 422.50" xmlns="http://www.w3.org/2000/svg" xmlns:xlink="http://www.w3.org/1999/xlink">
<g id="graph0" class="graph" transform="scale(1 1) rotate(0) translate(4 418.5)">
<title>Graphical Class Hierarchy</title>
<polygon fill="white" stroke="transparent" points="-4,4 -4,-418.5 317,-418.5 317,4 -4,4"/>
<!-- Node57 -->
<g id="node1" class="node">
<title>Node57</title>
<g id="a_node1"><a xlink:title=" ">
<polygon fill="white" stroke="#bfbfbf" points="0,-186.5 0,-205.5 84,-205.5 84,-186.5 0,-186.5"/>
<text text-anchor="middle" x="42" y="-193.5" font-family="Helvetica,sans-Serif" font-size="10.00">std::true_type</text>
</a>
</g>
</g>
<!-- Node0 -->
<g id="node2" class="node">
<title>Node0</title>
<g id="a_node2"><a xlink:href="structstd_1_1math_1_1detail_1_1is__defined_3_01_t_00_01typename_01make__void_3_01decltype_07size0306f93568ba9f9aae46e26e90028881.html" target="_top" xlink:title=" ">
<polygon fill="white" stroke="black" points="137,-362 137,-414 296,-414 296,-362 137,-362"/>
<text text-anchor="start" x="145" y="-402" font-family="Helvetica,sans-Serif" font-size="10.00">std::math::detail::</text>
<text text-anchor="start" x="145" y="-391" font-family="Helvetica,sans-Serif" font-size="10.00">is_defined&lt; T, typename</text>
<text text-anchor="start" x="145" y="-380" font-family="Helvetica,sans-Serif" font-size="10.00"> make_void&lt; decltype(sizeof</text>
<text text-anchor="middle" x="216.5" y="-369" font-family="Helvetica,sans-Serif" font-size="10.00">(T) !=0) &gt;::type &gt;</text>
</a>
</g>
</g>
<!-- Node57&#45;&gt;Node0 -->
<g id="edge1" class="edge">
<title>Node57&#45;&gt;Node0</title>
<path fill="none" stroke="midnightblue" d="M47.65,-215.65C56.37,-248.34 78.16,-314.08 120,-352 124.99,-356.52 130.6,-360.49 136.54,-363.98"/>
<polygon fill="midnightblue" stroke="midnightblue" points="50.95,-214.4 45.1,-205.56 44.16,-216.11 50.95,-214.4"/>
</g>
<!-- Node59 -->
<g id="node3" class="node">
<title>Node59</title>
<g id="a_node3"><a xlink:href="structstd_1_1math_1_1detail_1_1is__extents_3_01experimental_1_1extents_3_01size__type_00_01_extents_8_8_8_01_4_01_4.html" target="_top" xlink:title=" ">
<polygon fill="white" stroke="black" points="121,-301.5 121,-342.5 312,-342.5 312,-301.5 121,-301.5"/>
<text text-anchor="start" x="129" y="-330.5" font-family="Helvetica,sans-Serif" font-size="10.00">std::math::detail::</text>
<text text-anchor="start" x="129" y="-319.5" font-family="Helvetica,sans-Serif" font-size="10.00">is_extents&lt; experimental</text>
<text text-anchor="middle" x="216.5" y="-308.5" font-family="Helvetica,sans-Serif" font-size="10.00">::extents&lt; size_type, Extents... &gt; &gt;</text>
</a>
</g>
</g>
<!-- Node57&#45;&gt;Node59 -->
<g id="edge2" class="edge">
<title>Node57&#45;&gt;Node59</title>
<path fill="none" stroke="midnightblue" d="M53.28,-214.63C66.15,-236.27 90.17,-271.61 120,-292 125.17,-295.53 130.77,-298.66 136.58,-301.43"/>
<polygon fill="midnightblue" stroke="midnightblue" points="56.2,-212.67 48.17,-205.75 50.13,-216.16 56.2,-212.67"/>
</g>
<!-- Node60 -->
<g id="node4" class="node">
<title>Node60</title>
<g id="a_node4"><a xlink:href="structstd_1_1math_1_1detail_1_1is__homogeneous__tuple_3_01tuple_3_01size__type_8_8_8_01_4_01_4.html" target="_top" xlink:title=" ">
<polygon fill="white" stroke="black" points="145.5,-241.5 145.5,-282.5 287.5,-282.5 287.5,-241.5 145.5,-241.5"/>
<text text-anchor="start" x="153.5" y="-270.5" font-family="Helvetica,sans-Serif" font-size="10.00">std::math::detail::</text>
<text text-anchor="start" x="153.5" y="-259.5" font-family="Helvetica,sans-Serif" font-size="10.00">is_homogeneous_tuple</text>
<text text-anchor="middle" x="216.5" y="-248.5" font-family="Helvetica,sans-Serif" font-size="10.00">&lt; tuple&lt; size_type... &gt; &gt;</text>
</a>
</g>
</g>
<!-- Node57&#45;&gt;Node60 -->
<g id="edge3" class="edge">
<title>Node57&#45;&gt;Node60</title>
<path fill="none" stroke="midnightblue" d="M71.04,-210.21C85.47,-217.24 103.46,-225.57 120,-232 128.42,-235.28 137.36,-238.46 146.27,-241.45"/>
<polygon fill="midnightblue" stroke="midnightblue" points="72.2,-206.88 61.68,-205.59 69.1,-213.15 72.2,-206.88"/>
</g>
<!-- Node61 -->
<g id="node5" class="node">
<title>Node61</title>
<g id="a_node5"><a xlink:href="structstd_1_1math_1_1detail_1_1is__mdspan_3_01std_1_1experimental_1_1mdspan_3_01_t_00_01_extents4a6905ebec5b1e53a706cf7a41d20225.html" target="_top" xlink:title=" ">
<polygon fill="white" stroke="black" points="120,-170 120,-222 313,-222 313,-170 120,-170"/>
<text text-anchor="start" x="128" y="-210" font-family="Helvetica,sans-Serif" font-size="10.00">std::math::detail::</text>
<text text-anchor="start" x="128" y="-199" font-family="Helvetica,sans-Serif" font-size="10.00">is_mdspan&lt; std::experimental</text>
<text text-anchor="start" x="128" y="-188" font-family="Helvetica,sans-Serif" font-size="10.00">::mdspan&lt; T, Extents, LayoutPolicy,</text>
<text text-anchor="middle" x="216.5" y="-177" font-family="Helvetica,sans-Serif" font-size="10.00"> AccessorPolicy &gt; &gt;</text>
</a>
</g>
</g>
<!-- Node57&#45;&gt;Node61 -->
<g id="edge4" class="edge">
<title>Node57&#45;&gt;Node61</title>
<path fill="none" stroke="midnightblue" d="M94.59,-196C102.63,-196 111.16,-196 119.82,-196"/>
<polygon fill="midnightblue" stroke="midnightblue" points="94.32,-192.5 84.32,-196 94.32,-199.5 94.32,-192.5"/>
</g>
<!-- Node62 -->
<g id="node6" class="node">
<title>Node62</title>
<g id="a_node6"><a xlink:href="structstd_1_1math_1_1detail_1_1is__span_3_01span_3_01_t_00_01_extents_01_4_01_4.html" target="_top" xlink:title=" ">
<polygon fill="white" stroke="black" points="131.5,-121 131.5,-151 301.5,-151 301.5,-121 131.5,-121"/>
<text text-anchor="start" x="139.5" y="-139" font-family="Helvetica,sans-Serif" font-size="10.00">std::math::detail::</text>
<text text-anchor="middle" x="216.5" y="-128" font-family="Helvetica,sans-Serif" font-size="10.00">is_span&lt; span&lt; T, Extents &gt; &gt;</text>
</a>
</g>
</g>
<!-- Node57&#45;&gt;Node62 -->
<g id="edge5" class="edge">
<title>Node57&#45;&gt;Node62</title>
<path fill="none" stroke="midnightblue" d="M70.96,-181.9C85.36,-174.99 103.36,-166.91 120,-161 130.17,-157.39 141.12,-154.04 151.85,-151.04"/>
<polygon fill="midnightblue" stroke="midnightblue" points="69.07,-178.92 61.62,-186.45 72.14,-185.22 69.07,-178.92"/>
</g>
<!-- Node63 -->
<g id="node7" class="node">
<title>Node63</title>
<g id="a_node7"><a xlink:href="structstd_1_1math_1_1detail_1_1is__unsequenced_3_01execution_1_1parallel__unsequenced__policy_01_4.html" target="_top" xlink:title=" ">
<polygon fill="white" stroke="black" points="129,-60.5 129,-101.5 304,-101.5 304,-60.5 129,-60.5"/>
<text text-anchor="start" x="137" y="-89.5" font-family="Helvetica,sans-Serif" font-size="10.00">std::math::detail::</text>
<text text-anchor="start" x="137" y="-78.5" font-family="Helvetica,sans-Serif" font-size="10.00">is_unsequenced&lt; execution</text>
<text text-anchor="middle" x="216.5" y="-67.5" font-family="Helvetica,sans-Serif" font-size="10.00">::parallel_unsequenced_policy &gt;</text>
</a>
</g>
</g>
<!-- Node57&#45;&gt;Node63 -->
<g id="edge6" class="edge">
<title>Node57&#45;&gt;Node63</title>
<path fill="none" stroke="midnightblue" d="M55.08,-178.1C68.74,-159.14 92.69,-129.56 120,-112 126.01,-108.14 132.55,-104.71 139.29,-101.69"/>
<polygon fill="midnightblue" stroke="midnightblue" points="52.09,-176.26 49.22,-186.46 57.83,-180.27 52.09,-176.26"/>
</g>
<!-- Node64 -->
<g id="node8" class="node">
<title>Node64</title>
<g id="a_node8"><a xlink:href="structstd_1_1math_1_1detail_1_1is__unsequenced_3_01execution_1_1unsequenced__policy_01_4.html" target="_top" xlink:title=" ">
<polygon fill="white" stroke="black" points="140,-0.5 140,-41.5 293,-41.5 293,-0.5 140,-0.5"/>
<text text-anchor="start" x="148" y="-29.5" font-family="Helvetica,sans-Serif" font-size="10.00">std::math::detail::</text>
<text text-anchor="start" x="148" y="-18.5" font-family="Helvetica,sans-Serif" font-size="10.00">is_unsequenced&lt; execution</text>
<text text-anchor="middle" x="216.5" y="-7.5" font-family="Helvetica,sans-Serif" font-size="10.00">::unsequenced_policy &gt;</text>
</a>
</g>
</g>
<!-- Node57&#45;&gt;Node64 -->
<g id="edge7" class="edge">
<title>Node57&#45;&gt;Node64</title>
<path fill="none" stroke="midnightblue" d="M48.1,-176.59C57.26,-145.53 79.41,-84.74 120,-51 125.88,-46.11 132.56,-42.02 139.59,-38.59"/>
<polygon fill="midnightblue" stroke="midnightblue" points="44.72,-175.67 45.4,-186.24 51.46,-177.56 44.72,-175.67"/>
</g>
</g>
</svg>
