<?xml version="1.0" encoding="UTF-8" standalone="no"?>
<!DOCTYPE svg PUBLIC "-//W3C//DTD SVG 1.1//EN"
 "http://www.w3.org/Graphics/SVG/1.1/DTD/svg11.dtd">
<!-- Generated by graphviz version 8.0.1 (20230327.1645)
 -->
<!-- Title: Graphical Class Hierarchy Pages: 1 -->
<svg width="330pt" height="1780pt"
 viewBox="0.00 0.00 330.00 1779.50" xmlns="http://www.w3.org/2000/svg" xmlns:xlink="http://www.w3.org/1999/xlink">
<g id="graph0" class="graph" transform="scale(1 1) rotate(0) translate(4 1775.5)">
<title>Graphical Class Hierarchy</title>
<!-- Node0 -->
<g id="node1" class="node">
<title>Node0</title>
<g id="a_node1"><a xlink:title=" ">
<polygon fill="#e0e0e0" stroke="#999999" points="91,-938 0,-938 0,-919 91,-919 91,-938"/>
<text text-anchor="middle" x="45.5" y="-926" font-family="Helvetica,sans-Serif" font-size="10.00">std::conditional_t</text>
</a>
</g>
</g>
<!-- Node1 -->
<g id="node2" class="node">
<title>Node1</title>
<g id="a_node2"><a xlink:href="structstd_1_1math_1_1concepts_1_1dynamic__matrix.html" target="_top" xlink:title=" ">
<polygon fill="white" stroke="#666666" points="283.5,-1771.5 165.5,-1771.5 165.5,-1741.5 283.5,-1741.5 283.5,-1771.5"/>
<text text-anchor="start" x="173.5" y="-1759.5" font-family="Helvetica,sans-Serif" font-size="10.00">std::math::concepts</text>
<text text-anchor="middle" x="224.5" y="-1748.5" font-family="Helvetica,sans-Serif" font-size="10.00">::dynamic_matrix&lt; M &gt;</text>
</a>
</g>
</g>
<!-- Node0&#45;&gt;Node1 -->
<g id="edge1" class="edge">
<title>Node0&#45;&gt;Node1</title>
<path fill="none" stroke="#63b8ff" d="M47.17,-949.26C51.23,-1069.31 74.13,-1671.42 127,-1732.5 136.72,-1743.73 150.79,-1750.12 165.21,-1753.66"/>
<polygon fill="#63b8ff" stroke="#63b8ff" points="50.64,-949.25 46.81,-939.37 43.64,-949.48 50.64,-949.25"/>
</g>
<!-- Node2 -->
<g id="node3" class="node">
<title>Node2</title>
<g id="a_node3"><a xlink:href="structstd_1_1math_1_1concepts_1_1dynamic__matrix__data.html" target="_top" xlink:title=" ">
<polygon fill="white" stroke="#666666" points="295.5,-1723.5 153.5,-1723.5 153.5,-1693.5 295.5,-1693.5 295.5,-1723.5"/>
<text text-anchor="start" x="161.5" y="-1711.5" font-family="Helvetica,sans-Serif" font-size="10.00">std::math::concepts</text>
<text text-anchor="middle" x="224.5" y="-1700.5" font-family="Helvetica,sans-Serif" font-size="10.00">::dynamic_matrix_data&lt; M &gt;</text>
</a>
</g>
</g>
<!-- Node0&#45;&gt;Node2 -->
<g id="edge2" class="edge">
<title>Node0&#45;&gt;Node2</title>
<path fill="none" stroke="#63b8ff" d="M47.3,-949.09C51.98,-1064.44 77.23,-1627.36 127,-1684.5 134.03,-1692.57 143.32,-1698.14 153.35,-1701.95"/>
<polygon fill="#63b8ff" stroke="#63b8ff" points="50.77,-949.16 46.87,-939.31 43.77,-949.44 50.77,-949.16"/>
</g>
<!-- Node3 -->
<g id="node4" class="node">
<title>Node3</title>
<g id="a_node4"><a xlink:href="structstd_1_1math_1_1concepts_1_1dynamic__tensor.html" target="_top" xlink:title=" ">
<polygon fill="white" stroke="#666666" points="282.5,-1675.5 166.5,-1675.5 166.5,-1645.5 282.5,-1645.5 282.5,-1675.5"/>
<text text-anchor="start" x="174.5" y="-1663.5" font-family="Helvetica,sans-Serif" font-size="10.00">std::math::concepts</text>
<text text-anchor="middle" x="224.5" y="-1652.5" font-family="Helvetica,sans-Serif" font-size="10.00">::dynamic_tensor&lt; T &gt;</text>
</a>
</g>
</g>
<!-- Node0&#45;&gt;Node3 -->
<g id="edge3" class="edge">
<title>Node0&#45;&gt;Node3</title>
<path fill="none" stroke="#63b8ff" d="M47.46,-949.16C52.81,-1060.21 80.36,-1583.34 127,-1636.5 136.96,-1647.86 151.39,-1654.25 166.06,-1657.75"/>
<polygon fill="#63b8ff" stroke="#63b8ff" points="50.92,-949.27 46.95,-939.45 43.93,-949.6 50.92,-949.27"/>
</g>
<!-- Node4 -->
<g id="node5" class="node">
<title>Node4</title>
<g id="a_node5"><a xlink:href="structstd_1_1math_1_1concepts_1_1dynamic__tensor__data.html" target="_top" xlink:title=" ">
<polygon fill="white" stroke="#666666" points="294.5,-1627.5 154.5,-1627.5 154.5,-1597.5 294.5,-1597.5 294.5,-1627.5"/>
<text text-anchor="start" x="162.5" y="-1615.5" font-family="Helvetica,sans-Serif" font-size="10.00">std::math::concepts</text>
<text text-anchor="middle" x="224.5" y="-1604.5" font-family="Helvetica,sans-Serif" font-size="10.00">::dynamic_tensor_data&lt; T &gt;</text>
</a>
</g>
</g>
<!-- Node0&#45;&gt;Node4 -->
<g id="edge4" class="edge">
<title>Node0&#45;&gt;Node4</title>
<path fill="none" stroke="#63b8ff" d="M47.62,-948.73C53.62,-1054.31 83.41,-1539.22 127,-1588.5 134.32,-1596.78 144.01,-1602.41 154.43,-1606.22"/>
<polygon fill="#63b8ff" stroke="#63b8ff" points="51.07,-948.81 47.02,-939.02 44.08,-949.2 51.07,-948.81"/>
</g>
<!-- Node5 -->
<g id="node6" class="node">
<title>Node5</title>
<g id="a_node6"><a xlink:href="structstd_1_1math_1_1concepts_1_1dynamic__vector.html" target="_top" xlink:title=" ">
<polygon fill="white" stroke="#666666" points="282.5,-1579.5 166.5,-1579.5 166.5,-1549.5 282.5,-1549.5 282.5,-1579.5"/>
<text text-anchor="start" x="174.5" y="-1567.5" font-family="Helvetica,sans-Serif" font-size="10.00">std::math::concepts</text>
<text text-anchor="middle" x="224.5" y="-1556.5" font-family="Helvetica,sans-Serif" font-size="10.00">::dynamic_vector&lt; V &gt;</text>
</a>
</g>
</g>
<!-- Node0&#45;&gt;Node5 -->
<g id="edge5" class="edge">
<title>Node0&#45;&gt;Node5</title>
<path fill="none" stroke="#63b8ff" d="M46.22,-949.12C45.37,-1045.49 46.65,-1450.52 127,-1540.5 137.06,-1551.77 151.52,-1558.14 166.19,-1561.64"/>
<polygon fill="#63b8ff" stroke="#63b8ff" points="49.73,-949.32 46.34,-939.28 42.73,-949.24 49.73,-949.32"/>
</g>
<!-- Node6 -->
<g id="node7" class="node">
<title>Node6</title>
<g id="a_node7"><a xlink:href="structstd_1_1math_1_1concepts_1_1dynamic__vector__data.html" target="_top" xlink:title=" ">
<polygon fill="white" stroke="#666666" points="294.5,-1531.5 154.5,-1531.5 154.5,-1501.5 294.5,-1501.5 294.5,-1531.5"/>
<text text-anchor="start" x="162.5" y="-1519.5" font-family="Helvetica,sans-Serif" font-size="10.00">std::math::concepts</text>
<text text-anchor="middle" x="224.5" y="-1508.5" font-family="Helvetica,sans-Serif" font-size="10.00">::dynamic_vector_data&lt; V &gt;</text>
</a>
</g>
</g>
<!-- Node0&#45;&gt;Node6 -->
<g id="edge6" class="edge">
<title>Node0&#45;&gt;Node6</title>
<path fill="none" stroke="#63b8ff" d="M46.48,-949.23C46.82,-1041.07 52.86,-1410.38 127,-1492.5 134.29,-1500.57 143.83,-1506.13 154.08,-1509.91"/>
<polygon fill="#63b8ff" stroke="#63b8ff" points="49.98,-949.37 46.46,-939.38 42.98,-949.38 49.98,-949.37"/>
</g>
<!-- Node7 -->
<g id="node8" class="node">
<title>Node7</title>
<g id="a_node8"><a xlink:href="structstd_1_1math_1_1concepts_1_1fixed__size__matrix.html" target="_top" xlink:title=" ">
<polygon fill="white" stroke="#666666" points="287,-1483.5 162,-1483.5 162,-1453.5 287,-1453.5 287,-1483.5"/>
<text text-anchor="start" x="170" y="-1471.5" font-family="Helvetica,sans-Serif" font-size="10.00">std::math::concepts</text>
<text text-anchor="middle" x="224.5" y="-1460.5" font-family="Helvetica,sans-Serif" font-size="10.00">::fixed_size_matrix&lt; M &gt;</text>
</a>
</g>
</g>
<!-- Node0&#45;&gt;Node7 -->
<g id="edge7" class="edge">
<title>Node0&#45;&gt;Node7</title>
<path fill="none" stroke="#63b8ff" d="M46.78,-949.1C48.39,-1035.82 58.98,-1370.14 127,-1444.5 136.09,-1454.44 148.6,-1460.55 161.6,-1464.24"/>
<polygon fill="#63b8ff" stroke="#63b8ff" points="50.27,-949.3 46.61,-939.36 43.27,-949.42 50.27,-949.3"/>
</g>
<!-- Node8 -->
<g id="node9" class="node">
<title>Node8</title>
<g id="a_node9"><a xlink:href="structstd_1_1math_1_1concepts_1_1fixed__size__matrix__data.html" target="_top" xlink:title=" ">
<polygon fill="white" stroke="#666666" points="276.5,-1435 172.5,-1435 172.5,-1394 276.5,-1394 276.5,-1435"/>
<text text-anchor="start" x="180.5" y="-1423" font-family="Helvetica,sans-Serif" font-size="10.00">std::math::concepts</text>
<text text-anchor="start" x="180.5" y="-1412" font-family="Helvetica,sans-Serif" font-size="10.00">::fixed_size_matrix</text>
<text text-anchor="middle" x="224.5" y="-1401" font-family="Helvetica,sans-Serif" font-size="10.00">_data&lt; M &gt;</text>
</a>
</g>
</g>
<!-- Node0&#45;&gt;Node8 -->
<g id="edge8" class="edge">
<title>Node0&#45;&gt;Node8</title>
<path fill="none" stroke="#63b8ff" d="M47.35,-948.87C51.08,-1028.55 68.5,-1318.08 127,-1384.5 138.48,-1397.53 155.51,-1404.97 172.09,-1409.2"/>
<polygon fill="#63b8ff" stroke="#63b8ff" points="50.82,-949.15 46.88,-939.31 43.83,-949.46 50.82,-949.15"/>
</g>
<!-- Node9 -->
<g id="node10" class="node">
<title>Node9</title>
<g id="a_node10"><a xlink:href="structstd_1_1math_1_1concepts_1_1fixed__size__tensor.html" target="_top" xlink:title=" ">
<polygon fill="white" stroke="#666666" points="286,-1375.5 163,-1375.5 163,-1345.5 286,-1345.5 286,-1375.5"/>
<text text-anchor="start" x="171" y="-1363.5" font-family="Helvetica,sans-Serif" font-size="10.00">std::math::concepts</text>
<text text-anchor="middle" x="224.5" y="-1352.5" font-family="Helvetica,sans-Serif" font-size="10.00">::fixed_size_tensor&lt; T &gt;</text>
</a>
</g>
</g>
<!-- Node0&#45;&gt;Node9 -->
<g id="edge9" class="edge">
<title>Node0&#45;&gt;Node9</title>
<path fill="none" stroke="#63b8ff" d="M47.72,-949.17C52.54,-1024.02 72.76,-1279.54 127,-1336.5 136.46,-1346.44 149.36,-1352.52 162.64,-1356.18"/>
<polygon fill="#63b8ff" stroke="#63b8ff" points="51.16,-949.17 47.05,-939.41 44.17,-949.61 51.16,-949.17"/>
</g>
<!-- Node10 -->
<g id="node11" class="node">
<title>Node10</title>
<g id="a_node11"><a xlink:href="structstd_1_1math_1_1concepts_1_1fixed__size__tensor__data.html" target="_top" xlink:title=" ">
<polygon fill="white" stroke="#666666" points="276.5,-1327 172.5,-1327 172.5,-1286 276.5,-1286 276.5,-1327"/>
<text text-anchor="start" x="180.5" y="-1315" font-family="Helvetica,sans-Serif" font-size="10.00">std::math::concepts</text>
<text text-anchor="start" x="180.5" y="-1304" font-family="Helvetica,sans-Serif" font-size="10.00">::fixed_size_tensor</text>
<text text-anchor="middle" x="224.5" y="-1293" font-family="Helvetica,sans-Serif" font-size="10.00">_data&lt; T &gt;</text>
</a>
</g>
</g>
<!-- Node0&#45;&gt;Node10 -->
<g id="edge10" class="edge">
<title>Node0&#45;&gt;Node10</title>
<path fill="none" stroke="#63b8ff" d="M48.58,-949C55.78,-1016.1 81.72,-1227.73 127,-1276.5 138.76,-1289.16 155.76,-1296.52 172.22,-1300.79"/>
<polygon fill="#63b8ff" stroke="#63b8ff" points="51.97,-948.8 47.45,-939.22 45.01,-949.53 51.97,-948.8"/>
</g>
<!-- Node11 -->
<g id="node12" class="node">
<title>Node11</title>
<g id="a_node12"><a xlink:href="structstd_1_1math_1_1concepts_1_1fixed__size__vector.html" target="_top" xlink:title=" ">
<polygon fill="white" stroke="#666666" points="286.5,-1267.5 162.5,-1267.5 162.5,-1237.5 286.5,-1237.5 286.5,-1267.5"/>
<text text-anchor="start" x="170.5" y="-1255.5" font-family="Helvetica,sans-Serif" font-size="10.00">std::math::concepts</text>
<text text-anchor="middle" x="224.5" y="-1244.5" font-family="Helvetica,sans-Serif" font-size="10.00">::fixed_size_vector&lt; V &gt;</text>
</a>
</g>
</g>
<!-- Node0&#45;&gt;Node11 -->
<g id="edge11" class="edge">
<title>Node0&#45;&gt;Node11</title>
<path fill="none" stroke="#63b8ff" d="M49.27,-949C57.93,-1010 86.32,-1188.57 127,-1228.5 136.55,-1237.87 149.16,-1243.77 162.1,-1247.44"/>
<polygon fill="#63b8ff" stroke="#63b8ff" points="52.65,-948.87 47.81,-939.45 45.72,-949.83 52.65,-948.87"/>
</g>
<!-- Node12 -->
<g id="node13" class="node">
<title>Node12</title>
<g id="a_node13"><a xlink:href="structstd_1_1math_1_1concepts_1_1fixed__size__vector__data.html" target="_top" xlink:title=" ">
<polygon fill="white" stroke="#666666" points="276.5,-1219 172.5,-1219 172.5,-1178 276.5,-1178 276.5,-1219"/>
<text text-anchor="start" x="180.5" y="-1207" font-family="Helvetica,sans-Serif" font-size="10.00">std::math::concepts</text>
<text text-anchor="start" x="180.5" y="-1196" font-family="Helvetica,sans-Serif" font-size="10.00">::fixed_size_vector</text>
<text text-anchor="middle" x="224.5" y="-1185" font-family="Helvetica,sans-Serif" font-size="10.00">_data&lt; V &gt;</text>
</a>
</g>
</g>
<!-- Node0&#45;&gt;Node12 -->
<g id="edge12" class="edge">
<title>Node0&#45;&gt;Node12</title>
<path fill="none" stroke="#63b8ff" d="M47.36,-949.32C50.42,-995.47 64.26,-1107.14 127,-1168.5 139.17,-1180.4 155.97,-1187.59 172.14,-1191.93"/>
<polygon fill="#63b8ff" stroke="#63b8ff" points="50.81,-949.16 46.77,-939.37 43.82,-949.54 50.81,-949.16"/>
</g>
<!-- Node13 -->
<g id="node14" class="node">
<title>Node13</title>
<g id="a_node14"><a xlink:href="structstd_1_1math_1_1concepts_1_1matrix.html" target="_top" xlink:title=" ">
<polygon fill="white" stroke="#666666" points="276.5,-1159.5 172.5,-1159.5 172.5,-1129.5 276.5,-1129.5 276.5,-1159.5"/>
<text text-anchor="start" x="180.5" y="-1147.5" font-family="Helvetica,sans-Serif" font-size="10.00">std::math::concepts</text>
<text text-anchor="middle" x="224.5" y="-1136.5" font-family="Helvetica,sans-Serif" font-size="10.00">::matrix&lt; M &gt;</text>
</a>
</g>
</g>
<!-- Node0&#45;&gt;Node13 -->
<g id="edge13" class="edge">
<title>Node0&#45;&gt;Node13</title>
<path fill="none" stroke="#63b8ff" d="M49.06,-949.09C55.08,-988.56 73.9,-1074.97 127,-1120.5 139.52,-1131.23 156.12,-1137.3 172.03,-1140.68"/>
<polygon fill="#63b8ff" stroke="#63b8ff" points="52.39,-948.67 47.55,-939.24 45.46,-949.63 52.39,-948.67"/>
</g>
<!-- Node14 -->
<g id="node15" class="node">
<title>Node14</title>
<g id="a_node15"><a xlink:href="structstd_1_1math_1_1concepts_1_1matrix__data.html" target="_top" xlink:title=" ">
<polygon fill="white" stroke="#666666" points="276.5,-1111.5 172.5,-1111.5 172.5,-1081.5 276.5,-1081.5 276.5,-1111.5"/>
<text text-anchor="start" x="180.5" y="-1099.5" font-family="Helvetica,sans-Serif" font-size="10.00">std::math::concepts</text>
<text text-anchor="middle" x="224.5" y="-1088.5" font-family="Helvetica,sans-Serif" font-size="10.00">::matrix_data&lt; M &gt;</text>
</a>
</g>
</g>
<!-- Node0&#45;&gt;Node14 -->
<g id="edge14" class="edge">
<title>Node0&#45;&gt;Node14</title>
<path fill="none" stroke="#63b8ff" d="M52.03,-948.49C61.77,-979.88 85.04,-1040.44 127,-1072.5 140.03,-1082.46 156.68,-1088.33 172.47,-1091.78"/>
<polygon fill="#63b8ff" stroke="#63b8ff" points="55.22,-947.95 49.04,-939.35 48.51,-949.93 55.22,-947.95"/>
</g>
<!-- Node15 -->
<g id="node16" class="node">
<title>Node15</title>
<g id="a_node16"><a xlink:href="structstd_1_1math_1_1concepts_1_1readable__matrix.html" target="_top" xlink:title=" ">
<polygon fill="white" stroke="#666666" points="283.5,-1063.5 165.5,-1063.5 165.5,-1033.5 283.5,-1033.5 283.5,-1063.5"/>
<text text-anchor="start" x="173.5" y="-1051.5" font-family="Helvetica,sans-Serif" font-size="10.00">std::math::concepts</text>
<text text-anchor="middle" x="224.5" y="-1040.5" font-family="Helvetica,sans-Serif" font-size="10.00">::readable_matrix&lt; M &gt;</text>
</a>
</g>
</g>
<!-- Node0&#45;&gt;Node15 -->
<g id="edge15" class="edge">
<title>Node0&#45;&gt;Node15</title>
<path fill="none" stroke="#63b8ff" d="M57.43,-947.74C70.92,-969.7 95.95,-1005.1 127,-1024.5 138.49,-1031.68 152.01,-1036.71 165.23,-1040.24"/>
<polygon fill="#63b8ff" stroke="#63b8ff" points="60.02,-946.24 51.91,-939.43 54,-949.81 60.02,-946.24"/>
</g>
<!-- Node16 -->
<g id="node17" class="node">
<title>Node16</title>
<g id="a_node17"><a xlink:href="structstd_1_1math_1_1concepts_1_1readable__matrix__data.html" target="_top" xlink:title=" ">
<polygon fill="white" stroke="#666666" points="295.5,-1015.5 153.5,-1015.5 153.5,-985.5 295.5,-985.5 295.5,-1015.5"/>
<text text-anchor="start" x="161.5" y="-1003.5" font-family="Helvetica,sans-Serif" font-size="10.00">std::math::concepts</text>
<text text-anchor="middle" x="224.5" y="-992.5" font-family="Helvetica,sans-Serif" font-size="10.00">::readable_matrix_data&lt; M &gt;</text>
</a>
</g>
</g>
<!-- Node0&#45;&gt;Node16 -->
<g id="edge16" class="edge">
<title>Node0&#45;&gt;Node16</title>
<path fill="none" stroke="#63b8ff" d="M68.99,-944.36C84.63,-954.77 106.32,-967.98 127,-976.5 135.3,-979.92 144.21,-982.94 153.14,-985.58"/>
<polygon fill="#63b8ff" stroke="#63b8ff" points="71.33,-941.04 61.09,-938.31 67.39,-946.83 71.33,-941.04"/>
</g>
<!-- Node17 -->
<g id="node18" class="node">
<title>Node17</title>
<g id="a_node18"><a xlink:href="structstd_1_1math_1_1concepts_1_1readable__tensor.html" target="_top" xlink:title=" ">
<polygon fill="white" stroke="#666666" points="282.5,-967.5 166.5,-967.5 166.5,-937.5 282.5,-937.5 282.5,-967.5"/>
<text text-anchor="start" x="174.5" y="-955.5" font-family="Helvetica,sans-Serif" font-size="10.00">std::math::concepts</text>
<text text-anchor="middle" x="224.5" y="-944.5" font-family="Helvetica,sans-Serif" font-size="10.00">::readable_tensor&lt; T &gt;</text>
</a>
</g>
</g>
<!-- Node0&#45;&gt;Node17 -->
<g id="edge17" class="edge">
<title>Node0&#45;&gt;Node17</title>
<path fill="none" stroke="#63b8ff" d="M101.88,-936.01C122.32,-938.78 145.5,-941.92 166.11,-944.72"/>
<polygon fill="#63b8ff" stroke="#63b8ff" points="102.54,-932.43 92.16,-934.56 101.6,-939.37 102.54,-932.43"/>
</g>
<!-- Node18 -->
<g id="node19" class="node">
<title>Node18</title>
<g id="a_node19"><a xlink:href="structstd_1_1math_1_1concepts_1_1readable__tensor__data.html" target="_top" xlink:title=" ">
<polygon fill="white" stroke="#666666" points="294.5,-919.5 154.5,-919.5 154.5,-889.5 294.5,-889.5 294.5,-919.5"/>
<text text-anchor="start" x="162.5" y="-907.5" font-family="Helvetica,sans-Serif" font-size="10.00">std::math::concepts</text>
<text text-anchor="middle" x="224.5" y="-896.5" font-family="Helvetica,sans-Serif" font-size="10.00">::readable_tensor_data&lt; T &gt;</text>
</a>
</g>
</g>
<!-- Node0&#45;&gt;Node18 -->
<g id="edge18" class="edge">
<title>Node0&#45;&gt;Node18</title>
<path fill="none" stroke="#63b8ff" d="M101.75,-921.01C118.31,-918.76 136.69,-916.27 154.04,-913.92"/>
<polygon fill="#63b8ff" stroke="#63b8ff" points="101.6,-917.63 92.16,-922.44 102.54,-924.57 101.6,-917.63"/>
</g>
<!-- Node19 -->
<g id="node20" class="node">
<title>Node19</title>
<g id="a_node20"><a xlink:href="structstd_1_1math_1_1concepts_1_1readable__vector.html" target="_top" xlink:title=" ">
<polygon fill="white" stroke="#666666" points="282.5,-871.5 166.5,-871.5 166.5,-841.5 282.5,-841.5 282.5,-871.5"/>
<text text-anchor="start" x="174.5" y="-859.5" font-family="Helvetica,sans-Serif" font-size="10.00">std::math::concepts</text>
<text text-anchor="middle" x="224.5" y="-848.5" font-family="Helvetica,sans-Serif" font-size="10.00">::readable_vector&lt; V &gt;</text>
</a>
</g>
</g>
<!-- Node0&#45;&gt;Node19 -->
<g id="edge19" class="edge">
<title>Node0&#45;&gt;Node19</title>
<path fill="none" stroke="#63b8ff" d="M68.99,-912.64C84.63,-902.23 106.32,-889.02 127,-880.5 139.37,-875.4 153.1,-871.19 166.22,-867.8"/>
<polygon fill="#63b8ff" stroke="#63b8ff" points="67.39,-910.17 61.09,-918.69 71.33,-915.96 67.39,-910.17"/>
</g>
<!-- Node20 -->
<g id="node21" class="node">
<title>Node20</title>
<g id="a_node21"><a xlink:href="structstd_1_1math_1_1concepts_1_1readable__vector__data.html" target="_top" xlink:title=" ">
<polygon fill="white" stroke="#666666" points="294.5,-823.5 154.5,-823.5 154.5,-793.5 294.5,-793.5 294.5,-823.5"/>
<text text-anchor="start" x="162.5" y="-811.5" font-family="Helvetica,sans-Serif" font-size="10.00">std::math::concepts</text>
<text text-anchor="middle" x="224.5" y="-800.5" font-family="Helvetica,sans-Serif" font-size="10.00">::readable_vector_data&lt; V &gt;</text>
</a>
</g>
</g>
<!-- Node0&#45;&gt;Node20 -->
<g id="edge20" class="edge">
<title>Node0&#45;&gt;Node20</title>
<path fill="none" stroke="#63b8ff" d="M57.43,-909.26C70.92,-887.3 95.95,-851.9 127,-832.5 135.27,-827.33 144.59,-823.28 154.1,-820.09"/>
<polygon fill="#63b8ff" stroke="#63b8ff" points="54,-907.19 51.91,-917.57 60.02,-910.76 54,-907.19"/>
</g>
<!-- Node21 -->
<g id="node22" class="node">
<title>Node21</title>
<g id="a_node22"><a xlink:href="structstd_1_1math_1_1concepts_1_1tensor.html" target="_top" xlink:title=" ">
<polygon fill="white" stroke="#666666" points="276.5,-775.5 172.5,-775.5 172.5,-745.5 276.5,-745.5 276.5,-775.5"/>
<text text-anchor="start" x="180.5" y="-763.5" font-family="Helvetica,sans-Serif" font-size="10.00">std::math::concepts</text>
<text text-anchor="middle" x="224.5" y="-752.5" font-family="Helvetica,sans-Serif" font-size="10.00">::tensor&lt; T &gt;</text>
</a>
</g>
</g>
<!-- Node0&#45;&gt;Node21 -->
<g id="edge21" class="edge">
<title>Node0&#45;&gt;Node21</title>
<path fill="none" stroke="#63b8ff" d="M52.03,-908.51C61.77,-877.12 85.04,-816.56 127,-784.5 140.03,-774.54 156.68,-768.67 172.47,-765.22"/>
<polygon fill="#63b8ff" stroke="#63b8ff" points="48.51,-907.07 49.04,-917.65 55.22,-909.05 48.51,-907.07"/>
</g>
<!-- Node22 -->
<g id="node23" class="node">
<title>Node22</title>
<g id="a_node23"><a xlink:href="structstd_1_1math_1_1concepts_1_1tensor__data.html" target="_top" xlink:title=" ">
<polygon fill="white" stroke="#666666" points="276.5,-727.5 172.5,-727.5 172.5,-697.5 276.5,-697.5 276.5,-727.5"/>
<text text-anchor="start" x="180.5" y="-715.5" font-family="Helvetica,sans-Serif" font-size="10.00">std::math::concepts</text>
<text text-anchor="middle" x="224.5" y="-704.5" font-family="Helvetica,sans-Serif" font-size="10.00">::tensor_data&lt; T &gt;</text>
</a>
</g>
</g>
<!-- Node0&#45;&gt;Node22 -->
<g id="edge22" class="edge">
<title>Node0&#45;&gt;Node22</title>
<path fill="none" stroke="#63b8ff" d="M49.06,-907.91C55.08,-868.44 73.9,-782.03 127,-736.5 139.52,-725.77 156.12,-719.7 172.03,-716.32"/>
<polygon fill="#63b8ff" stroke="#63b8ff" points="45.46,-907.37 47.55,-917.76 52.39,-908.33 45.46,-907.37"/>
</g>
<!-- Node23 -->
<g id="node24" class="node">
<title>Node23</title>
<g id="a_node24"><a xlink:href="structstd_1_1math_1_1concepts_1_1vector.html" target="_top" xlink:title=" ">
<polygon fill="white" stroke="#666666" points="276.5,-679.5 172.5,-679.5 172.5,-649.5 276.5,-649.5 276.5,-679.5"/>
<text text-anchor="start" x="180.5" y="-667.5" font-family="Helvetica,sans-Serif" font-size="10.00">std::math::concepts</text>
<text text-anchor="middle" x="224.5" y="-656.5" font-family="Helvetica,sans-Serif" font-size="10.00">::vector&lt; V &gt;</text>
</a>
</g>
</g>
<!-- Node0&#45;&gt;Node23 -->
<g id="edge23" class="edge">
<title>Node0&#45;&gt;Node23</title>
<path fill="none" stroke="#63b8ff" d="M47.1,-907.71C49.6,-861.2 62.38,-748.16 127,-688.5 139.3,-677.14 156.14,-670.94 172.3,-667.63"/>
<polygon fill="#63b8ff" stroke="#63b8ff" points="43.56,-907.36 46.64,-917.5 50.56,-907.66 43.56,-907.36"/>
</g>
<!-- Node24 -->
<g id="node25" class="node">
<title>Node24</title>
<g id="a_node25"><a xlink:href="structstd_1_1math_1_1concepts_1_1vector__data.html" target="_top" xlink:title=" ">
<polygon fill="white" stroke="#666666" points="276.5,-631.5 172.5,-631.5 172.5,-601.5 276.5,-601.5 276.5,-631.5"/>
<text text-anchor="start" x="180.5" y="-619.5" font-family="Helvetica,sans-Serif" font-size="10.00">std::math::concepts</text>
<text text-anchor="middle" x="224.5" y="-608.5" font-family="Helvetica,sans-Serif" font-size="10.00">::vector_data&lt; V &gt;</text>
</a>
</g>
</g>
<!-- Node0&#45;&gt;Node24 -->
<g id="edge24" class="edge">
<title>Node0&#45;&gt;Node24</title>
<path fill="none" stroke="#63b8ff" d="M45.72,-907.64C44.96,-854.81 50.65,-714.69 127,-640.5 139.07,-628.77 155.95,-622.49 172.21,-619.22"/>
<polygon fill="#63b8ff" stroke="#63b8ff" points="42.25,-907.68 46,-917.58 49.25,-907.5 42.25,-907.68"/>
</g>
<!-- Node25 -->
<g id="node26" class="node">
<title>Node25</title>
<g id="a_node26"><a xlink:href="structstd_1_1math_1_1concepts_1_1writable__matrix.html" target="_top" xlink:title=" ">
<polygon fill="white" stroke="#666666" points="282,-583.5 167,-583.5 167,-553.5 282,-553.5 282,-583.5"/>
<text text-anchor="start" x="175" y="-571.5" font-family="Helvetica,sans-Serif" font-size="10.00">std::math::concepts</text>
<text text-anchor="middle" x="224.5" y="-560.5" font-family="Helvetica,sans-Serif" font-size="10.00">::writable_matrix&lt; M &gt;</text>
</a>
</g>
</g>
<!-- Node0&#45;&gt;Node25 -->
<g id="edge25" class="edge">
<title>Node0&#45;&gt;Node25</title>
<path fill="none" stroke="#63b8ff" d="M48.62,-908.17C55.88,-842.57 81.78,-638.12 127,-592.5 137.57,-581.83 152.11,-575.65 166.69,-572.12"/>
<polygon fill="#63b8ff" stroke="#63b8ff" points="45.08,-907.42 47.48,-917.74 52.04,-908.17 45.08,-907.42"/>
</g>
<!-- Node26 -->
<g id="node27" class="node">
<title>Node26</title>
<g id="a_node27"><a xlink:href="structstd_1_1math_1_1concepts_1_1writable__matrix__data.html" target="_top" xlink:title=" ">
<polygon fill="white" stroke="#666666" points="294,-535.5 155,-535.5 155,-505.5 294,-505.5 294,-535.5"/>
<text text-anchor="start" x="163" y="-523.5" font-family="Helvetica,sans-Serif" font-size="10.00">std::math::concepts</text>
<text text-anchor="middle" x="224.5" y="-512.5" font-family="Helvetica,sans-Serif" font-size="10.00">::writable_matrix_data&lt; M &gt;</text>
</a>
</g>
</g>
<!-- Node0&#45;&gt;Node26 -->
<g id="edge26" class="edge">
<title>Node0&#45;&gt;Node26</title>
<path fill="none" stroke="#63b8ff" d="M47.97,-908.13C53.54,-836.52 75.73,-597.71 127,-544.5 134.55,-536.67 144.22,-531.24 154.52,-527.5"/>
<polygon fill="#63b8ff" stroke="#63b8ff" points="44.43,-907.58 47.17,-917.82 51.41,-908.11 44.43,-907.58"/>
</g>
<!-- Node27 -->
<g id="node28" class="node">
<title>Node27</title>
<g id="a_node28"><a xlink:href="structstd_1_1math_1_1concepts_1_1writable__tensor.html" target="_top" xlink:title=" ">
<polygon fill="white" stroke="#666666" points="281,-487.5 168,-487.5 168,-457.5 281,-457.5 281,-487.5"/>
<text text-anchor="start" x="176" y="-475.5" font-family="Helvetica,sans-Serif" font-size="10.00">std::math::concepts</text>
<text text-anchor="middle" x="224.5" y="-464.5" font-family="Helvetica,sans-Serif" font-size="10.00">::writable_tensor&lt; T &gt;</text>
</a>
</g>
</g>
<!-- Node0&#45;&gt;Node27 -->
<g id="edge27" class="edge">
<title>Node0&#45;&gt;Node27</title>
<path fill="none" stroke="#63b8ff" d="M47.45,-908.13C51.48,-830.9 69.64,-557.38 127,-496.5 137.6,-485.25 152.58,-478.94 167.58,-475.48"/>
<polygon fill="#63b8ff" stroke="#63b8ff" points="43.93,-907.62 46.92,-917.78 50.92,-907.97 43.93,-907.62"/>
</g>
<!-- Node28 -->
<g id="node29" class="node">
<title>Node28</title>
<g id="a_node29"><a xlink:href="structstd_1_1math_1_1concepts_1_1writable__tensor__data.html" target="_top" xlink:title=" ">
<polygon fill="white" stroke="#666666" points="293,-439.5 156,-439.5 156,-409.5 293,-409.5 293,-439.5"/>
<text text-anchor="start" x="164" y="-427.5" font-family="Helvetica,sans-Serif" font-size="10.00">std::math::concepts</text>
<text text-anchor="middle" x="224.5" y="-416.5" font-family="Helvetica,sans-Serif" font-size="10.00">::writable_tensor_data&lt; T &gt;</text>
</a>
</g>
</g>
<!-- Node0&#45;&gt;Node28 -->
<g id="edge28" class="edge">
<title>Node0&#45;&gt;Node28</title>
<path fill="none" stroke="#63b8ff" d="M47.05,-907.77C49.68,-824.68 63.62,-517 127,-448.5 134.74,-440.14 144.9,-434.49 155.72,-430.72"/>
<polygon fill="#63b8ff" stroke="#63b8ff" points="43.53,-907.43 46.73,-917.53 50.53,-907.64 43.53,-907.43"/>
</g>
<!-- Node29 -->
<g id="node30" class="node">
<title>Node29</title>
<g id="a_node30"><a xlink:href="structstd_1_1math_1_1concepts_1_1writable__vector.html" target="_top" xlink:title=" ">
<polygon fill="white" stroke="#666666" points="281,-391.5 168,-391.5 168,-361.5 281,-361.5 281,-391.5"/>
<text text-anchor="start" x="176" y="-379.5" font-family="Helvetica,sans-Serif" font-size="10.00">std::math::concepts</text>
<text text-anchor="middle" x="224.5" y="-368.5" font-family="Helvetica,sans-Serif" font-size="10.00">::writable_vector&lt; V &gt;</text>
</a>
</g>
</g>
<!-- Node0&#45;&gt;Node29 -->
<g id="edge29" class="edge">
<title>Node0&#45;&gt;Node29</title>
<path fill="none" stroke="#63b8ff" d="M46.7,-907.99C47.98,-820.18 57.42,-476.83 127,-400.5 137.47,-389.02 152.5,-382.64 167.6,-379.2"/>
<polygon fill="#63b8ff" stroke="#63b8ff" points="43.19,-907.79 46.57,-917.84 50.19,-907.88 43.19,-907.79"/>
</g>
<!-- Node30 -->
<g id="node31" class="node">
<title>Node30</title>
<g id="a_node31"><a xlink:href="structstd_1_1math_1_1concepts_1_1writable__vector__data.html" target="_top" xlink:title=" ">
<polygon fill="white" stroke="#666666" points="293,-343.5 156,-343.5 156,-313.5 293,-313.5 293,-343.5"/>
<text text-anchor="start" x="164" y="-331.5" font-family="Helvetica,sans-Serif" font-size="10.00">std::math::concepts</text>
<text text-anchor="middle" x="224.5" y="-320.5" font-family="Helvetica,sans-Serif" font-size="10.00">::writable_vector_data&lt; V &gt;</text>
</a>
</g>
</g>
<!-- Node0&#45;&gt;Node30 -->
<g id="edge30" class="edge">
<title>Node0&#45;&gt;Node30</title>
<path fill="none" stroke="#63b8ff" d="M46.41,-907.93C46.44,-815.17 51.27,-436.62 127,-352.5 134.62,-344.03 144.73,-338.33 155.53,-334.54"/>
<polygon fill="#63b8ff" stroke="#63b8ff" points="42.91,-907.86 46.43,-917.86 49.91,-907.85 42.91,-907.86"/>
</g>
<!-- Node31 -->
<g id="node32" class="node">
<title>Node31</title>
<g id="a_node32"><a xlink:href="structstd_1_1math_1_1detail_1_1extents__are__equal.html" target="_top" xlink:title=" ">
<polygon fill="white" stroke="#666666" points="290.5,-295.5 158.5,-295.5 158.5,-265.5 290.5,-265.5 290.5,-295.5"/>
<text text-anchor="start" x="166.5" y="-283.5" font-family="Helvetica,sans-Serif" font-size="10.00">std::math::detail::</text>
<text text-anchor="middle" x="224.5" y="-272.5" font-family="Helvetica,sans-Serif" font-size="10.00">extents_are_equal&lt; T, U &gt;</text>
</a>
</g>
</g>
<!-- Node0&#45;&gt;Node31 -->
<g id="edge31" class="edge">
<title>Node0&#45;&gt;Node31</title>
<path fill="none" stroke="#63b8ff" d="M46.17,-907.77C45.02,-810.07 45.13,-396.41 127,-304.5 135.27,-295.22 146.52,-289.26 158.42,-285.49"/>
<polygon fill="#63b8ff" stroke="#63b8ff" points="42.68,-907.58 46.31,-917.53 49.68,-907.48 42.68,-907.58"/>
</g>
<!-- Node32 -->
<g id="node33" class="node">
<title>Node32</title>
<g id="a_node33"><a xlink:href="structstd_1_1math_1_1detail_1_1extents__is__static_3_01_1_1std_1_1experimental_1_1extents_3_01_s533f3536fec0908177d23b8f342ca9d0.html" target="_top" xlink:title=" ">
<polygon fill="white" stroke="#666666" points="307,-247.5 142,-247.5 142,-195.5 307,-195.5 307,-247.5"/>
<text text-anchor="start" x="150" y="-235.5" font-family="Helvetica,sans-Serif" font-size="10.00">std::math::detail::</text>
<text text-anchor="start" x="150" y="-224.5" font-family="Helvetica,sans-Serif" font-size="10.00">extents_is_static&lt; </text>
<text text-anchor="start" x="150" y="-213.5" font-family="Helvetica,sans-Serif" font-size="10.00">::std::experimental::</text>
<text text-anchor="middle" x="224.5" y="-202.5" font-family="Helvetica,sans-Serif" font-size="10.00">extents&lt; SizeType, Extents... &gt; &gt;</text>
</a>
</g>
</g>
<!-- Node0&#45;&gt;Node32 -->
<g id="edge32" class="edge">
<title>Node0&#45;&gt;Node32</title>
<path fill="none" stroke="#63b8ff" d="M46.17,-908.01C44.91,-806.77 44.24,-360.74 127,-256.5 131.21,-251.2 136.3,-246.7 141.91,-242.88"/>
<polygon fill="#63b8ff" stroke="#63b8ff" points="42.68,-907.88 46.32,-917.82 49.68,-907.78 42.68,-907.88"/>
</g>
<!-- Node33 -->
<g id="node34" class="node">
<title>Node33</title>
<g id="a_node34"><a xlink:href="structstd_1_1math_1_1detail_1_1extents__may__be__equal_3_01_1_1std_1_1experimental_1_1extents_3_259ca96780b9600f744875fffcf315fa.html" target="_top" xlink:title=" ">
<polygon fill="white" stroke="#666666" points="315,-177.5 134,-177.5 134,-103.5 315,-103.5 315,-177.5"/>
<text text-anchor="start" x="142" y="-165.5" font-family="Helvetica,sans-Serif" font-size="10.00">std::math::detail::</text>
<text text-anchor="start" x="142" y="-154.5" font-family="Helvetica,sans-Serif" font-size="10.00">extents_may_be_equal</text>
<text text-anchor="start" x="142" y="-143.5" font-family="Helvetica,sans-Serif" font-size="10.00">&lt; ::std::experimental</text>
<text text-anchor="start" x="142" y="-132.5" font-family="Helvetica,sans-Serif" font-size="10.00">::extents&lt; SizeType, Extents...</text>
<text text-anchor="start" x="142" y="-121.5" font-family="Helvetica,sans-Serif" font-size="10.00"> &gt;, ::std::experimental::extents</text>
<text text-anchor="middle" x="224.5" y="-110.5" font-family="Helvetica,sans-Serif" font-size="10.00">&lt; OtherSizeType, OtherExtents... &gt; &gt;</text>
</a>
</g>
</g>
<!-- Node0&#45;&gt;Node33 -->
<g id="edge33" class="edge">
<title>Node0&#45;&gt;Node33</title>
<path fill="none" stroke="#63b8ff" d="M46.11,-908.1C44.45,-801.3 41.54,-306.96 127,-186.5 129.15,-183.47 131.55,-180.64 134.15,-177.98"/>
<polygon fill="#63b8ff" stroke="#63b8ff" points="42.62,-907.98 46.3,-917.91 49.62,-907.86 42.62,-907.98"/>
</g>
<!-- Node34 -->
<g id="node35" class="node">
<title>Node34</title>
<g id="a_node35"><a xlink:href="structstd_1_1math_1_1detail_1_1extents__may__be__equal__impl_3_01_1_1std_1_1experimental_1_1exte562db5e631ee1ff0d9d8a1622ab2ff58.html" target="_top" xlink:title=" ">
<polygon fill="white" stroke="#666666" points="322,-85 127,-85 127,0 322,0 322,-85"/>
<text text-anchor="start" x="135" y="-73" font-family="Helvetica,sans-Serif" font-size="10.00">std::math::detail::</text>
<text text-anchor="start" x="135" y="-62" font-family="Helvetica,sans-Serif" font-size="10.00">extents_may_be_equal</text>
<text text-anchor="start" x="135" y="-51" font-family="Helvetica,sans-Serif" font-size="10.00">_impl&lt; ::std::experimental</text>
<text text-anchor="start" x="135" y="-40" font-family="Helvetica,sans-Serif" font-size="10.00">::extents&lt; SizeType, Extents...</text>
<text text-anchor="start" x="135" y="-29" font-family="Helvetica,sans-Serif" font-size="10.00"> &gt;, ::std::experimental::extents</text>
<text text-anchor="start" x="135" y="-18" font-family="Helvetica,sans-Serif" font-size="10.00">&lt; OtherSizeType, OtherExtents...</text>
<text text-anchor="middle" x="224.5" y="-7" font-family="Helvetica,sans-Serif" font-size="10.00"> &gt;, ::std::index_sequence&lt; Indices... &gt; &gt;</text>
</a>
</g>
</g>
<!-- Node0&#45;&gt;Node34 -->
<g id="edge34" class="edge">
<title>Node0&#45;&gt;Node34</title>
<path fill="none" stroke="#63b8ff" d="M47.33,-907.92C52.42,-786.27 80.55,-164.42 127,-94.5 129.21,-91.17 131.71,-88.04 134.43,-85.09"/>
<polygon fill="#63b8ff" stroke="#63b8ff" points="43.81,-907.5 46.89,-917.64 50.8,-907.79 43.81,-907.5"/>
</g>
</g>
</svg>
