<?xml version="1.0" encoding="UTF-8" standalone="no"?>
<!DOCTYPE svg PUBLIC "-//W3C//DTD SVG 1.1//EN"
 "http://www.w3.org/Graphics/SVG/1.1/DTD/svg11.dtd">
<!-- Generated by graphviz version 8.0.1 (20230327.1645)
 -->
<!-- Title: Graphical Class Hierarchy Pages: 1 -->
<svg width="223pt" height="146pt"
 viewBox="0.00 0.00 223.00 146.00" xmlns="http://www.w3.org/2000/svg" xmlns:xlink="http://www.w3.org/1999/xlink">
<g id="graph0" class="graph" transform="scale(1 1) rotate(0) translate(4 142)">
<title>Graphical Class Hierarchy</title>
<!-- Node0 -->
<g id="node1" class="node">
<title>Node0</title>
<g id="a_node1"><a xlink:title=" ">
<polygon fill="#e0e0e0" stroke="#999999" points="62,-78.5 0,-78.5 0,-59.5 62,-59.5 62,-78.5"/>
<text text-anchor="middle" x="31" y="-66.5" font-family="Helvetica,sans-Serif" font-size="10.00">false_type</text>
</a>
</g>
</g>
<!-- Node1 -->
<g id="node2" class="node">
<title>Node1</title>
<g id="a_node2"><a xlink:href="structstd_1_1math_1_1detail_1_1extents__is__static.html" target="_top" xlink:title=" ">
<polygon fill="white" stroke="#666666" points="214,-138 99,-138 99,-108 214,-108 214,-138"/>
<text text-anchor="start" x="107" y="-126" font-family="Helvetica,sans-Serif" font-size="10.00">std::math::detail::</text>
<text text-anchor="middle" x="156.5" y="-115" font-family="Helvetica,sans-Serif" font-size="10.00">extents_is_static&lt; T &gt;</text>
</a>
</g>
</g>
<!-- Node0&#45;&gt;Node1 -->
<g id="edge1" class="edge">
<title>Node0&#45;&gt;Node1</title>
<path fill="none" stroke="#63b8ff" d="M63.3,-83.47C74.24,-88.46 86.63,-94.05 98,-99 104.45,-101.81 111.33,-104.74 118,-107.55"/>
<polygon fill="#63b8ff" stroke="#63b8ff" points="64.87,-79.88 54.33,-78.9 61.96,-86.25 64.87,-79.88"/>
</g>
<!-- Node2 -->
<g id="node3" class="node">
<title>Node2</title>
<g id="a_node3"><a xlink:href="structstd_1_1math_1_1detail_1_1extents__may__be__equal.html" target="_top" xlink:title=" ">
<polygon fill="white" stroke="#666666" points="215,-89.5 98,-89.5 98,-48.5 215,-48.5 215,-89.5"/>
<text text-anchor="start" x="106" y="-77.5" font-family="Helvetica,sans-Serif" font-size="10.00">std::math::detail::</text>
<text text-anchor="start" x="106" y="-66.5" font-family="Helvetica,sans-Serif" font-size="10.00">extents_may_be_equal</text>
<text text-anchor="middle" x="156.5" y="-55.5" font-family="Helvetica,sans-Serif" font-size="10.00">&lt; T, U &gt;</text>
</a>
</g>
</g>
<!-- Node0&#45;&gt;Node2 -->
<g id="edge2" class="edge">
<title>Node0&#45;&gt;Node2</title>
<path fill="none" stroke="#63b8ff" d="M72.97,-69C80.87,-69 89.29,-69 97.6,-69"/>
<polygon fill="#63b8ff" stroke="#63b8ff" points="73.21,-65.5 63.21,-69 73.21,-72.5 73.21,-65.5"/>
</g>
<!-- Node3 -->
<g id="node4" class="node">
<title>Node3</title>
<g id="a_node4"><a xlink:href="structstd_1_1math_1_1detail_1_1is__complex.html" target="_top" xlink:title=" ">
<polygon fill="white" stroke="#666666" points="203,-30 110,-30 110,0 203,0 203,-30"/>
<text text-anchor="start" x="118" y="-18" font-family="Helvetica,sans-Serif" font-size="10.00">std::math::detail::</text>
<text text-anchor="middle" x="156.5" y="-7" font-family="Helvetica,sans-Serif" font-size="10.00">is_complex&lt; T &gt;</text>
</a>
</g>
</g>
<!-- Node0&#45;&gt;Node3 -->
<g id="edge3" class="edge">
<title>Node0&#45;&gt;Node3</title>
<path fill="none" stroke="#63b8ff" d="M64.39,-54.74C75.09,-50.04 87.05,-44.79 98,-40 105.08,-36.9 112.66,-33.6 119.91,-30.45"/>
<polygon fill="#63b8ff" stroke="#63b8ff" points="63.34,-51.82 55.59,-59.05 66.16,-58.22 63.34,-51.82"/>
</g>
</g>
</svg>
