<?xml version="1.0" encoding="UTF-8" standalone="no"?>
<!DOCTYPE svg PUBLIC "-//W3C//DTD SVG 1.1//EN"
 "http://www.w3.org/Graphics/SVG/1.1/DTD/svg11.dtd">
<!-- Generated by graphviz version 8.0.1 (20230327.1645)
 -->
<!-- Title: Graphical Class Hierarchy Pages: 1 -->
<svg width="265pt" height="278pt"
 viewBox="0.00 0.00 265.00 278.00" xmlns="http://www.w3.org/2000/svg" xmlns:xlink="http://www.w3.org/1999/xlink">
<g id="graph0" class="graph" transform="scale(1 1) rotate(0) translate(4 274)">
<title>Graphical Class Hierarchy</title>
<!-- Node0 -->
<g id="node1" class="node">
<title>Node0</title>
<g id="a_node1"><a xlink:title=" ">
<polygon fill="#e0e0e0" stroke="#999999" points="81,-144.5 0,-144.5 0,-125.5 81,-125.5 81,-144.5"/>
<text text-anchor="middle" x="40.5" y="-132.5" font-family="Helvetica,sans-Serif" font-size="10.00">std::false_type</text>
</a>
</g>
</g>
<!-- Node1 -->
<g id="node2" class="node">
<title>Node1</title>
<g id="a_node2"><a xlink:href="structstd_1_1math_1_1detail_1_1is__defined.html" target="_top" xlink:title=" ">
<polygon fill="white" stroke="#666666" points="248,-270 126,-270 126,-240 248,-240 248,-270"/>
<text text-anchor="start" x="134" y="-258" font-family="Helvetica,sans-Serif" font-size="10.00">std::math::detail::</text>
<text text-anchor="middle" x="187" y="-247" font-family="Helvetica,sans-Serif" font-size="10.00">is_defined&lt; T, Enabler &gt;</text>
</a>
</g>
</g>
<!-- Node0&#45;&gt;Node1 -->
<g id="edge1" class="edge">
<title>Node0&#45;&gt;Node1</title>
<path fill="none" stroke="#63b8ff" d="M52.14,-154.39C64.9,-175.97 88.22,-210.47 117,-231 121.54,-234.24 126.56,-237.08 131.76,-239.55"/>
<polygon fill="#63b8ff" stroke="#63b8ff" points="54.75,-152.9 46.75,-145.96 48.67,-156.38 54.75,-152.9"/>
</g>
<!-- Node2 -->
<g id="node3" class="node">
<title>Node2</title>
<g id="a_node3"><a xlink:href="structstd_1_1math_1_1detail_1_1is__extents.html" target="_top" xlink:title=" ">
<polygon fill="white" stroke="#666666" points="233.5,-222 140.5,-222 140.5,-192 233.5,-192 233.5,-222"/>
<text text-anchor="start" x="148.5" y="-210" font-family="Helvetica,sans-Serif" font-size="10.00">std::math::detail::</text>
<text text-anchor="middle" x="187" y="-199" font-family="Helvetica,sans-Serif" font-size="10.00">is_extents&lt; T &gt;</text>
</a>
</g>
</g>
<!-- Node0&#45;&gt;Node2 -->
<g id="edge2" class="edge">
<title>Node0&#45;&gt;Node2</title>
<path fill="none" stroke="#63b8ff" d="M63.66,-151.02C78.3,-161.11 98.19,-173.9 117,-183 124.31,-186.53 132.27,-189.8 140.11,-192.71"/>
<polygon fill="#63b8ff" stroke="#63b8ff" points="66.06,-147.72 55.86,-144.84 62.03,-153.45 66.06,-147.72"/>
</g>
<!-- Node3 -->
<g id="node4" class="node">
<title>Node3</title>
<g id="a_node4"><a xlink:href="structstd_1_1math_1_1detail_1_1is__homogeneous__tuple.html" target="_top" xlink:title=" ">
<polygon fill="white" stroke="#666666" points="257,-174 117,-174 117,-144 257,-144 257,-174"/>
<text text-anchor="start" x="125" y="-162" font-family="Helvetica,sans-Serif" font-size="10.00">std::math::detail::</text>
<text text-anchor="middle" x="187" y="-151" font-family="Helvetica,sans-Serif" font-size="10.00">is_homogeneous_tuple&lt; T &gt;</text>
</a>
</g>
</g>
<!-- Node0&#45;&gt;Node3 -->
<g id="edge3" class="edge">
<title>Node0&#45;&gt;Node3</title>
<path fill="none" stroke="#63b8ff" d="M91.95,-143.38C99.92,-144.7 108.28,-146.09 116.59,-147.47"/>
<polygon fill="#63b8ff" stroke="#63b8ff" points="92.81,-139.81 82.37,-141.62 91.66,-146.71 92.81,-139.81"/>
</g>
<!-- Node4 -->
<g id="node5" class="node">
<title>Node4</title>
<g id="a_node5"><a xlink:href="structstd_1_1math_1_1detail_1_1is__mdspan.html" target="_top" xlink:title=" ">
<polygon fill="white" stroke="#666666" points="233.5,-126 140.5,-126 140.5,-96 233.5,-96 233.5,-126"/>
<text text-anchor="start" x="148.5" y="-114" font-family="Helvetica,sans-Serif" font-size="10.00">std::math::detail::</text>
<text text-anchor="middle" x="187" y="-103" font-family="Helvetica,sans-Serif" font-size="10.00">is_mdspan&lt; T &gt;</text>
</a>
</g>
</g>
<!-- Node0&#45;&gt;Node4 -->
<g id="edge4" class="edge">
<title>Node0&#45;&gt;Node4</title>
<path fill="none" stroke="#63b8ff" d="M91.94,-126.62C107.61,-124.02 124.79,-121.17 140.14,-118.62"/>
<polygon fill="#63b8ff" stroke="#63b8ff" points="91.66,-123.29 82.37,-128.38 92.81,-130.19 91.66,-123.29"/>
</g>
<!-- Node5 -->
<g id="node6" class="node">
<title>Node5</title>
<g id="a_node6"><a xlink:href="structstd_1_1math_1_1detail_1_1is__span.html" target="_top" xlink:title=" ">
<polygon fill="white" stroke="#666666" points="233.5,-78 140.5,-78 140.5,-48 233.5,-48 233.5,-78"/>
<text text-anchor="start" x="148.5" y="-66" font-family="Helvetica,sans-Serif" font-size="10.00">std::math::detail::</text>
<text text-anchor="middle" x="187" y="-55" font-family="Helvetica,sans-Serif" font-size="10.00">is_span&lt; T &gt;</text>
</a>
</g>
</g>
<!-- Node0&#45;&gt;Node5 -->
<g id="edge5" class="edge">
<title>Node0&#45;&gt;Node5</title>
<path fill="none" stroke="#63b8ff" d="M63.66,-118.98C78.3,-108.89 98.19,-96.1 117,-87 124.31,-83.47 132.27,-80.2 140.11,-77.29"/>
<polygon fill="#63b8ff" stroke="#63b8ff" points="62.03,-116.55 55.86,-125.16 66.06,-122.28 62.03,-116.55"/>
</g>
<!-- Node6 -->
<g id="node7" class="node">
<title>Node6</title>
<g id="a_node7"><a xlink:href="structstd_1_1math_1_1detail_1_1is__unsequenced.html" target="_top" xlink:title=" ">
<polygon fill="white" stroke="#666666" points="242.5,-30 131.5,-30 131.5,0 242.5,0 242.5,-30"/>
<text text-anchor="start" x="139.5" y="-18" font-family="Helvetica,sans-Serif" font-size="10.00">std::math::detail::</text>
<text text-anchor="middle" x="187" y="-7" font-family="Helvetica,sans-Serif" font-size="10.00">is_unsequenced&lt; T &gt;</text>
</a>
</g>
</g>
<!-- Node0&#45;&gt;Node6 -->
<g id="edge6" class="edge">
<title>Node0&#45;&gt;Node6</title>
<path fill="none" stroke="#63b8ff" d="M52.14,-115.61C64.9,-94.03 88.22,-59.53 117,-39 121.54,-35.76 126.56,-32.92 131.76,-30.45"/>
<polygon fill="#63b8ff" stroke="#63b8ff" points="48.67,-113.62 46.75,-124.04 54.75,-117.1 48.67,-113.62"/>
</g>
</g>
</svg>
