<?xml version="1.0" encoding="UTF-8" standalone="no"?>
<!DOCTYPE svg PUBLIC "-//W3C//DTD SVG 1.1//EN"
 "http://www.w3.org/Graphics/SVG/1.1/DTD/svg11.dtd">
<!-- Generated by graphviz version 2.43.0 (0)
 -->
<!-- Title: Graphical Class Hierarchy Pages: 1 -->
<svg width="242pt" height="149pt"
 viewBox="0.00 0.00 242.00 149.00" xmlns="http://www.w3.org/2000/svg" xmlns:xlink="http://www.w3.org/1999/xlink">
<g id="graph0" class="graph" transform="scale(1 1) rotate(0) translate(4 145)">
<title>Graphical Class Hierarchy</title>
<polygon fill="white" stroke="transparent" points="-4,4 -4,-145 238,-145 238,4 -4,4"/>
<!-- Node22 -->
<g id="node1" class="node">
<title>Node22</title>
<g id="a_node1"><a xlink:title=" ">
<polygon fill="white" stroke="#bfbfbf" points="0,-61 0,-80 68,-80 68,-61 0,-61"/>
<text text-anchor="middle" x="34" y="-68" font-family="Helvetica,sans-Serif" font-size="10.00">false_type</text>
</a>
</g>
</g>
<!-- Node0 -->
<g id="node2" class="node">
<title>Node0</title>
<g id="a_node2"><a xlink:href="structstd_1_1math_1_1detail_1_1extents__is__static.html" target="_top" xlink:title=" ">
<polygon fill="white" stroke="black" points="105,-110.5 105,-140.5 233,-140.5 233,-110.5 105,-110.5"/>
<text text-anchor="start" x="113" y="-128.5" font-family="Helvetica,sans-Serif" font-size="10.00">std::math::detail::</text>
<text text-anchor="middle" x="169" y="-117.5" font-family="Helvetica,sans-Serif" font-size="10.00">extents_is_static&lt; T &gt;</text>
</a>
</g>
</g>
<!-- Node22&#45;&gt;Node0 -->
<g id="edge1" class="edge">
<title>Node22&#45;&gt;Node0</title>
<path fill="none" stroke="midnightblue" d="M65.84,-84.2C77.72,-89.41 91.45,-95.32 104,-100.5 111.94,-103.78 120.48,-107.19 128.64,-110.4"/>
<polygon fill="midnightblue" stroke="midnightblue" points="66.92,-80.86 56.36,-80.03 64.1,-87.26 66.92,-80.86"/>
</g>
<!-- Node24 -->
<g id="node3" class="node">
<title>Node24</title>
<g id="a_node3"><a xlink:href="structstd_1_1math_1_1detail_1_1extents__may__be__equal.html" target="_top" xlink:title=" ">
<polygon fill="white" stroke="black" points="104,-50 104,-91 234,-91 234,-50 104,-50"/>
<text text-anchor="start" x="112" y="-79" font-family="Helvetica,sans-Serif" font-size="10.00">std::math::detail::</text>
<text text-anchor="start" x="112" y="-68" font-family="Helvetica,sans-Serif" font-size="10.00">extents_may_be_equal</text>
<text text-anchor="middle" x="169" y="-57" font-family="Helvetica,sans-Serif" font-size="10.00">&lt; T, U &gt;</text>
</a>
</g>
</g>
<!-- Node22&#45;&gt;Node24 -->
<g id="edge2" class="edge">
<title>Node22&#45;&gt;Node24</title>
<path fill="none" stroke="midnightblue" d="M78.26,-70.5C86.44,-70.5 95.17,-70.5 103.84,-70.5"/>
<polygon fill="midnightblue" stroke="midnightblue" points="78.22,-67 68.22,-70.5 78.22,-74 78.22,-67"/>
</g>
<!-- Node25 -->
<g id="node4" class="node">
<title>Node25</title>
<g id="a_node4"><a xlink:href="structstd_1_1math_1_1detail_1_1is__complex.html" target="_top" xlink:title=" ">
<polygon fill="white" stroke="black" points="117.5,-0.5 117.5,-30.5 220.5,-30.5 220.5,-0.5 117.5,-0.5"/>
<text text-anchor="start" x="125.5" y="-18.5" font-family="Helvetica,sans-Serif" font-size="10.00">std::math::detail::</text>
<text text-anchor="middle" x="169" y="-7.5" font-family="Helvetica,sans-Serif" font-size="10.00">is_complex&lt; T &gt;</text>
</a>
</g>
</g>
<!-- Node22&#45;&gt;Node25 -->
<g id="edge3" class="edge">
<title>Node22&#45;&gt;Node25</title>
<path fill="none" stroke="midnightblue" d="M65.84,-56.8C77.72,-51.59 91.45,-45.68 104,-40.5 111.94,-37.22 120.48,-33.81 128.64,-30.6"/>
<polygon fill="midnightblue" stroke="midnightblue" points="64.1,-53.74 56.36,-60.97 66.92,-60.14 64.1,-53.74"/>
</g>
</g>
</svg>
