<?xml version="1.0" encoding="UTF-8" standalone="no"?>
<!DOCTYPE svg PUBLIC "-//W3C//DTD SVG 1.1//EN"
 "http://www.w3.org/Graphics/SVG/1.1/DTD/svg11.dtd">
<!-- Generated by graphviz version 2.43.0 (0)
 -->
<!-- Title: Graphical Class Hierarchy Pages: 1 -->
<svg width="291pt" height="284pt"
 viewBox="0.00 0.00 291.00 284.00" xmlns="http://www.w3.org/2000/svg" xmlns:xlink="http://www.w3.org/1999/xlink">
<g id="graph0" class="graph" transform="scale(1 1) rotate(0) translate(4 280)">
<title>Graphical Class Hierarchy</title>
<polygon fill="white" stroke="transparent" points="-4,4 -4,-280 287,-280 287,4 -4,4"/>
<!-- Node26 -->
<g id="node1" class="node">
<title>Node26</title>
<g id="a_node1"><a xlink:title=" ">
<polygon fill="white" stroke="#bfbfbf" points="0,-128 0,-147 89,-147 89,-128 0,-128"/>
<text text-anchor="middle" x="44.5" y="-135" font-family="Helvetica,sans-Serif" font-size="10.00">std::false_type</text>
</a>
</g>
</g>
<!-- Node0 -->
<g id="node2" class="node">
<title>Node0</title>
<g id="a_node2"><a xlink:href="structstd_1_1math_1_1detail_1_1is__defined.html" target="_top" xlink:title=" ">
<polygon fill="white" stroke="black" points="135.5,-245.5 135.5,-275.5 272.5,-275.5 272.5,-245.5 135.5,-245.5"/>
<text text-anchor="start" x="143.5" y="-263.5" font-family="Helvetica,sans-Serif" font-size="10.00">std::math::detail::</text>
<text text-anchor="middle" x="204" y="-252.5" font-family="Helvetica,sans-Serif" font-size="10.00">is_defined&lt; T, Enabler &gt;</text>
</a>
</g>
</g>
<!-- Node26&#45;&gt;Node0 -->
<g id="edge1" class="edge">
<title>Node26&#45;&gt;Node0</title>
<path fill="none" stroke="midnightblue" d="M55.72,-156.1C68.9,-178.38 93.86,-215.36 125,-236.5 130.04,-239.92 135.59,-242.87 141.33,-245.41"/>
<polygon fill="midnightblue" stroke="midnightblue" points="58.67,-154.21 50.66,-147.27 52.6,-157.68 58.67,-154.21"/>
</g>
<!-- Node28 -->
<g id="node3" class="node">
<title>Node28</title>
<g id="a_node3"><a xlink:href="structstd_1_1math_1_1detail_1_1is__extents.html" target="_top" xlink:title=" ">
<polygon fill="white" stroke="black" points="152.5,-196.5 152.5,-226.5 255.5,-226.5 255.5,-196.5 152.5,-196.5"/>
<text text-anchor="start" x="160.5" y="-214.5" font-family="Helvetica,sans-Serif" font-size="10.00">std::math::detail::</text>
<text text-anchor="middle" x="204" y="-203.5" font-family="Helvetica,sans-Serif" font-size="10.00">is_extents&lt; T &gt;</text>
</a>
</g>
</g>
<!-- Node26&#45;&gt;Node28 -->
<g id="edge2" class="edge">
<title>Node26&#45;&gt;Node28</title>
<path fill="none" stroke="midnightblue" d="M66.75,-153.03C82.28,-163.84 104.19,-177.96 125,-187.5 133.63,-191.46 143.08,-194.99 152.34,-198.04"/>
<polygon fill="midnightblue" stroke="midnightblue" points="68.58,-150.04 58.4,-147.12 64.53,-155.75 68.58,-150.04"/>
</g>
<!-- Node29 -->
<g id="node4" class="node">
<title>Node29</title>
<g id="a_node4"><a xlink:href="structstd_1_1math_1_1detail_1_1is__homogeneous__tuple.html" target="_top" xlink:title=" ">
<polygon fill="white" stroke="black" points="125,-147.5 125,-177.5 283,-177.5 283,-147.5 125,-147.5"/>
<text text-anchor="start" x="133" y="-165.5" font-family="Helvetica,sans-Serif" font-size="10.00">std::math::detail::</text>
<text text-anchor="middle" x="204" y="-154.5" font-family="Helvetica,sans-Serif" font-size="10.00">is_homogeneous_tuple&lt; T &gt;</text>
</a>
</g>
</g>
<!-- Node26&#45;&gt;Node29 -->
<g id="edge3" class="edge">
<title>Node26&#45;&gt;Node29</title>
<path fill="none" stroke="midnightblue" d="M99.26,-146.03C107.57,-147.35 116.28,-148.73 124.98,-150.12"/>
<polygon fill="midnightblue" stroke="midnightblue" points="99.8,-142.57 89.37,-144.46 98.7,-149.49 99.8,-142.57"/>
</g>
<!-- Node30 -->
<g id="node5" class="node">
<title>Node30</title>
<g id="a_node5"><a xlink:href="structstd_1_1math_1_1detail_1_1is__mdspan.html" target="_top" xlink:title=" ">
<polygon fill="white" stroke="black" points="152.5,-98.5 152.5,-128.5 255.5,-128.5 255.5,-98.5 152.5,-98.5"/>
<text text-anchor="start" x="160.5" y="-116.5" font-family="Helvetica,sans-Serif" font-size="10.00">std::math::detail::</text>
<text text-anchor="middle" x="204" y="-105.5" font-family="Helvetica,sans-Serif" font-size="10.00">is_mdspan&lt; T &gt;</text>
</a>
</g>
</g>
<!-- Node26&#45;&gt;Node30 -->
<g id="edge4" class="edge">
<title>Node26&#45;&gt;Node30</title>
<path fill="none" stroke="midnightblue" d="M99.27,-129.31C116.47,-126.69 135.44,-123.79 152.41,-121.21"/>
<polygon fill="midnightblue" stroke="midnightblue" points="98.73,-125.85 89.37,-130.81 99.79,-132.77 98.73,-125.85"/>
</g>
<!-- Node31 -->
<g id="node6" class="node">
<title>Node31</title>
<g id="a_node6"><a xlink:href="structstd_1_1math_1_1detail_1_1is__span.html" target="_top" xlink:title=" ">
<polygon fill="white" stroke="black" points="152.5,-49.5 152.5,-79.5 255.5,-79.5 255.5,-49.5 152.5,-49.5"/>
<text text-anchor="start" x="160.5" y="-67.5" font-family="Helvetica,sans-Serif" font-size="10.00">std::math::detail::</text>
<text text-anchor="middle" x="204" y="-56.5" font-family="Helvetica,sans-Serif" font-size="10.00">is_span&lt; T &gt;</text>
</a>
</g>
</g>
<!-- Node26&#45;&gt;Node31 -->
<g id="edge5" class="edge">
<title>Node26&#45;&gt;Node31</title>
<path fill="none" stroke="midnightblue" d="M67.43,-122.35C82.99,-112.08 104.63,-98.76 125,-89.5 133.67,-85.56 143.15,-81.97 152.41,-78.81"/>
<polygon fill="midnightblue" stroke="midnightblue" points="65.39,-119.5 59.03,-127.98 69.29,-125.32 65.39,-119.5"/>
</g>
<!-- Node32 -->
<g id="node7" class="node">
<title>Node32</title>
<g id="a_node7"><a xlink:href="structstd_1_1math_1_1detail_1_1is__unsequenced.html" target="_top" xlink:title=" ">
<polygon fill="white" stroke="black" points="142.5,-0.5 142.5,-30.5 265.5,-30.5 265.5,-0.5 142.5,-0.5"/>
<text text-anchor="start" x="150.5" y="-18.5" font-family="Helvetica,sans-Serif" font-size="10.00">std::math::detail::</text>
<text text-anchor="middle" x="204" y="-7.5" font-family="Helvetica,sans-Serif" font-size="10.00">is_unsequenced&lt; T &gt;</text>
</a>
</g>
</g>
<!-- Node26&#45;&gt;Node32 -->
<g id="edge6" class="edge">
<title>Node26&#45;&gt;Node32</title>
<path fill="none" stroke="midnightblue" d="M55.85,-119.34C69.16,-97.57 94.26,-61.4 125,-40.5 130.64,-36.66 136.91,-33.38 143.38,-30.59"/>
<polygon fill="midnightblue" stroke="midnightblue" points="52.83,-117.58 50.74,-127.97 58.85,-121.15 52.83,-117.58"/>
</g>
</g>
</svg>
