<?xml version="1.0" encoding="UTF-8" standalone="no"?>
<!DOCTYPE svg PUBLIC "-//W3C//DTD SVG 1.1//EN"
 "http://www.w3.org/Graphics/SVG/1.1/DTD/svg11.dtd">
<!-- Generated by graphviz version 8.0.1 (20230327.1645)
 -->
<!-- Title: Graphical Class Hierarchy Pages: 1 -->
<svg width="295pt" height="416pt"
 viewBox="0.00 0.00 295.00 415.50" xmlns="http://www.w3.org/2000/svg" xmlns:xlink="http://www.w3.org/1999/xlink">
<g id="graph0" class="graph" transform="scale(1 1) rotate(0) translate(4 411.5)">
<title>Graphical Class Hierarchy</title>
<!-- Node0 -->
<g id="node1" class="node">
<title>Node0</title>
<g id="a_node1"><a xlink:title=" ">
<polygon fill="#e0e0e0" stroke="#999999" points="77,-202 0,-202 0,-183 77,-183 77,-202"/>
<text text-anchor="middle" x="38.5" y="-190" font-family="Helvetica,sans-Serif" font-size="10.00">std::true_type</text>
</a>
</g>
</g>
<!-- Node1 -->
<g id="node2" class="node">
<title>Node1</title>
<g id="a_node2"><a xlink:href="structstd_1_1math_1_1detail_1_1is__defined_3_01_t_00_01typename_01make__void_3_01decltype_07size0306f93568ba9f9aae46e26e90028881.html" target="_top" xlink:title=" ">
<polygon fill="white" stroke="#666666" points="271,-407.5 129,-407.5 129,-355.5 271,-355.5 271,-407.5"/>
<text text-anchor="start" x="137" y="-395.5" font-family="Helvetica,sans-Serif" font-size="10.00">std::math::detail::</text>
<text text-anchor="start" x="137" y="-384.5" font-family="Helvetica,sans-Serif" font-size="10.00">is_defined&lt; T, typename</text>
<text text-anchor="start" x="137" y="-373.5" font-family="Helvetica,sans-Serif" font-size="10.00"> make_void&lt; decltype(sizeof</text>
<text text-anchor="middle" x="200" y="-362.5" font-family="Helvetica,sans-Serif" font-size="10.00">(T) !=0) &gt;::type &gt;</text>
</a>
</g>
</g>
<!-- Node0&#45;&gt;Node1 -->
<g id="edge1" class="edge">
<title>Node0&#45;&gt;Node1</title>
<path fill="none" stroke="#63b8ff" d="M44.09,-212.66C52.44,-245.05 73.07,-308.85 113,-346.5 117.69,-350.92 123.02,-354.82 128.66,-358.24"/>
<polygon fill="#63b8ff" stroke="#63b8ff" points="47.32,-212.14 41.55,-203.25 40.52,-213.8 47.32,-212.14"/>
</g>
<!-- Node2 -->
<g id="node3" class="node">
<title>Node2</title>
<g id="a_node3"><a xlink:href="structstd_1_1math_1_1detail_1_1is__extents_3_01experimental_1_1extents_3_01size__type_00_01_extents_8_8_8_01_4_01_4.html" target="_top" xlink:title=" ">
<polygon fill="white" stroke="#666666" points="286.5,-337 113.5,-337 113.5,-296 286.5,-296 286.5,-337"/>
<text text-anchor="start" x="121.5" y="-325" font-family="Helvetica,sans-Serif" font-size="10.00">std::math::detail::</text>
<text text-anchor="start" x="121.5" y="-314" font-family="Helvetica,sans-Serif" font-size="10.00">is_extents&lt; experimental</text>
<text text-anchor="middle" x="200" y="-303" font-family="Helvetica,sans-Serif" font-size="10.00">::extents&lt; size_type, Extents... &gt; &gt;</text>
</a>
</g>
</g>
<!-- Node0&#45;&gt;Node2 -->
<g id="edge2" class="edge">
<title>Node0&#45;&gt;Node2</title>
<path fill="none" stroke="#63b8ff" d="M49.75,-211.75C62.07,-233.14 84.68,-267.33 113,-287.5 117.24,-290.52 121.81,-293.24 126.56,-295.69"/>
<polygon fill="#63b8ff" stroke="#63b8ff" points="52.47,-210.43 44.55,-203.39 46.35,-213.83 52.47,-210.43"/>
</g>
<!-- Node3 -->
<g id="node4" class="node">
<title>Node3</title>
<g id="a_node4"><a xlink:href="structstd_1_1math_1_1detail_1_1is__homogeneous__tuple_3_01tuple_3_01size__type_8_8_8_01_4_01_4.html" target="_top" xlink:title=" ">
<polygon fill="white" stroke="#666666" points="262.5,-278 137.5,-278 137.5,-237 262.5,-237 262.5,-278"/>
<text text-anchor="start" x="145.5" y="-266" font-family="Helvetica,sans-Serif" font-size="10.00">std::math::detail::</text>
<text text-anchor="start" x="145.5" y="-255" font-family="Helvetica,sans-Serif" font-size="10.00">is_homogeneous_tuple</text>
<text text-anchor="middle" x="200" y="-244" font-family="Helvetica,sans-Serif" font-size="10.00">&lt; tuple&lt; size_type... &gt; &gt;</text>
</a>
</g>
</g>
<!-- Node0&#45;&gt;Node3 -->
<g id="edge3" class="edge">
<title>Node0&#45;&gt;Node3</title>
<path fill="none" stroke="#63b8ff" d="M68.52,-207.21C81.91,-213.77 98.1,-221.38 113,-227.5 120.75,-230.69 128.98,-233.84 137.15,-236.84"/>
<polygon fill="#63b8ff" stroke="#63b8ff" points="70.41,-203.75 59.89,-202.45 67.3,-210.02 70.41,-203.75"/>
</g>
<!-- Node4 -->
<g id="node5" class="node">
<title>Node4</title>
<g id="a_node5"><a xlink:href="structstd_1_1math_1_1detail_1_1is__mdspan_3_01std_1_1experimental_1_1mdspan_3_01_t_00_01_extents4a6905ebec5b1e53a706cf7a41d20225.html" target="_top" xlink:title=" ">
<polygon fill="white" stroke="#666666" points="287,-218.5 113,-218.5 113,-166.5 287,-166.5 287,-218.5"/>
<text text-anchor="start" x="121" y="-206.5" font-family="Helvetica,sans-Serif" font-size="10.00">std::math::detail::</text>
<text text-anchor="start" x="121" y="-195.5" font-family="Helvetica,sans-Serif" font-size="10.00">is_mdspan&lt; std::experimental</text>
<text text-anchor="start" x="121" y="-184.5" font-family="Helvetica,sans-Serif" font-size="10.00">::mdspan&lt; T, Extents, LayoutPolicy,</text>
<text text-anchor="middle" x="200" y="-173.5" font-family="Helvetica,sans-Serif" font-size="10.00"> AccessorPolicy &gt; &gt;</text>
</a>
</g>
</g>
<!-- Node0&#45;&gt;Node4 -->
<g id="edge4" class="edge">
<title>Node0&#45;&gt;Node4</title>
<path fill="none" stroke="#63b8ff" d="M88.06,-192.5C95.92,-192.5 104.26,-192.5 112.71,-192.5"/>
<polygon fill="#63b8ff" stroke="#63b8ff" points="88.3,-189 78.3,-192.5 88.3,-196 88.3,-189"/>
</g>
<!-- Node5 -->
<g id="node6" class="node">
<title>Node5</title>
<g id="a_node6"><a xlink:href="structstd_1_1math_1_1detail_1_1is__span_3_01span_3_01_t_00_01_extents_01_4_01_4.html" target="_top" xlink:title=" ">
<polygon fill="white" stroke="#666666" points="276,-148.5 124,-148.5 124,-118.5 276,-118.5 276,-148.5"/>
<text text-anchor="start" x="132" y="-136.5" font-family="Helvetica,sans-Serif" font-size="10.00">std::math::detail::</text>
<text text-anchor="middle" x="200" y="-125.5" font-family="Helvetica,sans-Serif" font-size="10.00">is_span&lt; span&lt; T, Extents &gt; &gt;</text>
</a>
</g>
</g>
<!-- Node0&#45;&gt;Node5 -->
<g id="edge5" class="edge">
<title>Node0&#45;&gt;Node5</title>
<path fill="none" stroke="#63b8ff" d="M67.79,-177.63C81.24,-170.91 97.71,-163.23 113,-157.5 121.13,-154.46 129.82,-151.6 138.43,-148.98"/>
<polygon fill="#63b8ff" stroke="#63b8ff" points="66.48,-174.87 59.15,-182.52 69.65,-181.11 66.48,-174.87"/>
</g>
<!-- Node6 -->
<g id="node7" class="node">
<title>Node6</title>
<g id="a_node7"><a xlink:href="structstd_1_1math_1_1detail_1_1is__unsequenced_3_01execution_1_1parallel__unsequenced__policy_01_4.html" target="_top" xlink:title=" ">
<polygon fill="white" stroke="#666666" points="278,-100 122,-100 122,-59 278,-59 278,-100"/>
<text text-anchor="start" x="130" y="-88" font-family="Helvetica,sans-Serif" font-size="10.00">std::math::detail::</text>
<text text-anchor="start" x="130" y="-77" font-family="Helvetica,sans-Serif" font-size="10.00">is_unsequenced&lt; execution</text>
<text text-anchor="middle" x="200" y="-66" font-family="Helvetica,sans-Serif" font-size="10.00">::parallel_unsequenced_policy &gt;</text>
</a>
</g>
</g>
<!-- Node0&#45;&gt;Node6 -->
<g id="edge6" class="edge">
<title>Node0&#45;&gt;Node6</title>
<path fill="none" stroke="#63b8ff" d="M51.92,-173.55C65.05,-154.86 87.39,-126.68 113,-109.5 117.99,-106.15 123.39,-103.14 128.98,-100.43"/>
<polygon fill="#63b8ff" stroke="#63b8ff" points="48.5,-171.35 45.76,-181.58 54.28,-175.29 48.5,-171.35"/>
</g>
<!-- Node7 -->
<g id="node8" class="node">
<title>Node7</title>
<g id="a_node8"><a xlink:href="structstd_1_1math_1_1detail_1_1is__unsequenced_3_01execution_1_1unsequenced__policy_01_4.html" target="_top" xlink:title=" ">
<polygon fill="white" stroke="#666666" points="269,-41 131,-41 131,0 269,0 269,-41"/>
<text text-anchor="start" x="139" y="-29" font-family="Helvetica,sans-Serif" font-size="10.00">std::math::detail::</text>
<text text-anchor="start" x="139" y="-18" font-family="Helvetica,sans-Serif" font-size="10.00">is_unsequenced&lt; execution</text>
<text text-anchor="middle" x="200" y="-7" font-family="Helvetica,sans-Serif" font-size="10.00">::unsequenced_policy &gt;</text>
</a>
</g>
</g>
<!-- Node0&#45;&gt;Node7 -->
<g id="edge7" class="edge">
<title>Node0&#45;&gt;Node7</title>
<path fill="none" stroke="#63b8ff" d="M44.71,-172.4C53.63,-141.83 74.69,-83.72 113,-50.5 118.26,-45.94 124.25,-42.06 130.56,-38.77"/>
<polygon fill="#63b8ff" stroke="#63b8ff" points="41.16,-171.08 41.87,-181.65 47.91,-172.95 41.16,-171.08"/>
</g>
</g>
</svg>
