<?xml version="1.0" encoding="UTF-8" standalone="no"?>
<!DOCTYPE svg PUBLIC "-//W3C//DTD SVG 1.1//EN"
 "http://www.w3.org/Graphics/SVG/1.1/DTD/svg11.dtd">
<!-- Generated by graphviz version 8.0.1 (20230327.1645)
 -->
<!-- Title: Graphical Class Hierarchy Pages: 1 -->
<svg width="289pt" height="86pt"
 viewBox="0.00 0.00 289.00 86.00" xmlns="http://www.w3.org/2000/svg" xmlns:xlink="http://www.w3.org/1999/xlink">
<g id="graph0" class="graph" transform="scale(1 1) rotate(0) translate(4 82)">
<title>Graphical Class Hierarchy</title>
<!-- Node0 -->
<g id="node1" class="node">
<title>Node0</title>
<g id="a_node1"><a xlink:href="classstd_1_1math_1_1dr__tensor.html" target="_top" xlink:title="Dynamic&#45;size, dynamic&#45;capacity tensor.">
<polygon fill="white" stroke="#666666" points="129,-54 0,-54 0,-24 129,-24 129,-54"/>
<text text-anchor="start" x="8" y="-42" font-family="Helvetica,sans-Serif" font-size="10.00">std::math::dr_tensor</text>
<text text-anchor="middle" x="64.5" y="-31" font-family="Helvetica,sans-Serif" font-size="10.00">&lt; T, R, Alloc, L, Access &gt;</text>
</a>
</g>
</g>
<!-- Node1 -->
<g id="node2" class="node">
<title>Node1</title>
<g id="a_node2"><a xlink:href="classstd_1_1math_1_1dr__matrix.html" target="_top" xlink:title="Dynamic&#45;size, dynamic&#45;capacity matrix.">
<polygon fill="white" stroke="#666666" points="281,-78 165,-78 165,-48 281,-48 281,-78"/>
<text text-anchor="start" x="173" y="-66" font-family="Helvetica,sans-Serif" font-size="10.00">std::math::dr_matrix</text>
<text text-anchor="middle" x="223" y="-55" font-family="Helvetica,sans-Serif" font-size="10.00">&lt; T, Alloc, L, Access &gt;</text>
</a>
</g>
</g>
<!-- Node0&#45;&gt;Node1 -->
<g id="edge1" class="edge">
<title>Node0&#45;&gt;Node1</title>
<path fill="none" stroke="#63b8ff" d="M139.8,-50.39C148.25,-51.69 156.77,-53 164.95,-54.25"/>
<polygon fill="#63b8ff" stroke="#63b8ff" points="140.57,-46.82 130.15,-48.76 139.51,-53.74 140.57,-46.82"/>
</g>
<!-- Node2 -->
<g id="node3" class="node">
<title>Node2</title>
<g id="a_node3"><a xlink:href="classstd_1_1math_1_1dr__vector.html" target="_top" xlink:title="Dynamic&#45;size, dynamic&#45;capacity vector.">
<polygon fill="white" stroke="#666666" points="281,-30 165,-30 165,0 281,0 281,-30"/>
<text text-anchor="start" x="173" y="-18" font-family="Helvetica,sans-Serif" font-size="10.00">std::math::dr_vector</text>
<text text-anchor="middle" x="223" y="-7" font-family="Helvetica,sans-Serif" font-size="10.00">&lt; T, Alloc, L, Access &gt;</text>
</a>
</g>
</g>
<!-- Node0&#45;&gt;Node2 -->
<g id="edge2" class="edge">
<title>Node0&#45;&gt;Node2</title>
<path fill="none" stroke="#63b8ff" d="M139.8,-27.61C148.25,-26.31 156.77,-25 164.95,-23.75"/>
<polygon fill="#63b8ff" stroke="#63b8ff" points="139.51,-24.26 130.15,-29.24 140.57,-31.18 139.51,-24.26"/>
</g>
</g>
</svg>
