<?xml version="1.0" encoding="UTF-8" standalone="no"?>
<!DOCTYPE svg PUBLIC "-//W3C//DTD SVG 1.1//EN"
 "http://www.w3.org/Graphics/SVG/1.1/DTD/svg11.dtd">
<!-- Generated by graphviz version 8.0.1 (20230327.1645)
 -->
<!-- Title: Graphical Class Hierarchy Pages: 1 -->
<svg width="252pt" height="86pt"
 viewBox="0.00 0.00 252.00 86.00" xmlns="http://www.w3.org/2000/svg" xmlns:xlink="http://www.w3.org/1999/xlink">
<g id="graph0" class="graph" transform="scale(1 1) rotate(0) translate(4 82)">
<title>Graphical Class Hierarchy</title>
<!-- Node0 -->
<g id="node1" class="node">
<title>Node0</title>
<g id="a_node1"><a xlink:href="classstd_1_1math_1_1fs__tensor.html" target="_top" xlink:title="Fixed&#45;size, fixed&#45;capacity tensor.">
<polygon fill="white" stroke="#666666" points="104,-54 0,-54 0,-24 104,-24 104,-54"/>
<text text-anchor="start" x="8" y="-42" font-family="Helvetica,sans-Serif" font-size="10.00">std::math::fs_tensor</text>
<text text-anchor="middle" x="52" y="-31" font-family="Helvetica,sans-Serif" font-size="10.00">&lt; T, L, A, Ds &gt;</text>
</a>
</g>
</g>
<!-- Node1 -->
<g id="node2" class="node">
<title>Node1</title>
<g id="a_node2"><a xlink:href="classstd_1_1math_1_1fs__matrix.html" target="_top" xlink:title="Fixed&#45;size, fixed&#45;capacity matrix.">
<polygon fill="white" stroke="#666666" points="244,-78 140,-78 140,-48 244,-48 244,-78"/>
<text text-anchor="start" x="148" y="-66" font-family="Helvetica,sans-Serif" font-size="10.00">std::math::fs_matrix</text>
<text text-anchor="middle" x="192" y="-55" font-family="Helvetica,sans-Serif" font-size="10.00">&lt; T, R, C, L, A &gt;</text>
</a>
</g>
</g>
<!-- Node0&#45;&gt;Node1 -->
<g id="edge1" class="edge">
<title>Node0&#45;&gt;Node1</title>
<path fill="none" stroke="#63b8ff" d="M115.05,-49.79C123.25,-51.22 131.58,-52.67 139.57,-54.06"/>
<polygon fill="#63b8ff" stroke="#63b8ff" points="115.84,-46.2 105.39,-47.94 114.64,-53.1 115.84,-46.2"/>
</g>
<!-- Node2 -->
<g id="node3" class="node">
<title>Node2</title>
<g id="a_node3"><a xlink:href="classstd_1_1math_1_1fs__vector.html" target="_top" xlink:title="Fixed&#45;size, fixed&#45;capacity vector.">
<polygon fill="white" stroke="#666666" points="244,-30 140,-30 140,0 244,0 244,-30"/>
<text text-anchor="start" x="148" y="-18" font-family="Helvetica,sans-Serif" font-size="10.00">std::math::fs_vector</text>
<text text-anchor="middle" x="192" y="-7" font-family="Helvetica,sans-Serif" font-size="10.00">&lt; T, N, L, A &gt;</text>
</a>
</g>
</g>
<!-- Node0&#45;&gt;Node2 -->
<g id="edge2" class="edge">
<title>Node0&#45;&gt;Node2</title>
<path fill="none" stroke="#63b8ff" d="M115.05,-28.21C123.25,-26.78 131.58,-25.33 139.57,-23.94"/>
<polygon fill="#63b8ff" stroke="#63b8ff" points="114.64,-24.9 105.39,-30.06 115.84,-31.8 114.64,-24.9"/>
</g>
</g>
</svg>
