<?xml version="1.0" encoding="UTF-8" standalone="no"?>
<!DOCTYPE svg PUBLIC "-//W3C//DTD SVG 1.1//EN"
 "http://www.w3.org/Graphics/SVG/1.1/DTD/svg11.dtd">
<!-- Generated by graphviz version 2.43.0 (0)
 -->
<!-- Title: include/experimental/linear_algebra/instant_evaluated_operations.hpp Pages: 1 -->
<svg width="2017pt" height="195pt"
 viewBox="0.00 0.00 2017.00 195.00" xmlns="http://www.w3.org/2000/svg" xmlns:xlink="http://www.w3.org/1999/xlink">
<g id="graph0" class="graph" transform="scale(1 1) rotate(0) translate(4 191)">
<title>include/experimental/linear_algebra/instant_evaluated_operations.hpp</title>
<polygon fill="white" stroke="transparent" points="-4,4 -4,-191 2013,-191 2013,4 -4,4"/>
<!-- Node1 -->
<g id="node1" class="node">
<title>Node1</title>
<g id="a_node1"><a xlink:title=" ">
<polygon fill="#bfbfbf" stroke="black" points="949,-145.5 949,-186.5 1098,-186.5 1098,-145.5 949,-145.5"/>
<text text-anchor="start" x="957" y="-174.5" font-family="Helvetica,sans-Serif" font-size="10.00">include/experimental</text>
<text text-anchor="start" x="957" y="-163.5" font-family="Helvetica,sans-Serif" font-size="10.00">/linear_algebra/instant</text>
<text text-anchor="middle" x="1023.5" y="-152.5" font-family="Helvetica,sans-Serif" font-size="10.00">_evaluated_operations.hpp</text>
</a>
</g>
</g>
<!-- Node2 -->
<g id="node2" class="node">
<title>Node2</title>
<g id="a_node2"><a xlink:href="linear__algebra_8hpp.html" target="_top" xlink:title=" ">
<polygon fill="white" stroke="black" points="963.5,-78.5 963.5,-108.5 1083.5,-108.5 1083.5,-78.5 963.5,-78.5"/>
<text text-anchor="start" x="971.5" y="-96.5" font-family="Helvetica,sans-Serif" font-size="10.00">include/experimental</text>
<text text-anchor="middle" x="1023.5" y="-85.5" font-family="Helvetica,sans-Serif" font-size="10.00">/linear_algebra.hpp</text>
</a>
</g>
</g>
<!-- Node1&#45;&gt;Node2 -->
<g id="edge1" class="edge">
<title>Node1&#45;&gt;Node2</title>
<path fill="none" stroke="midnightblue" d="M1016.83,-135.38C1016.57,-126.21 1016.94,-116.53 1017.94,-108.89"/>
<polygon fill="midnightblue" stroke="midnightblue" points="1013.33,-135.57 1017.38,-145.36 1020.32,-135.18 1013.33,-135.57"/>
</g>
<!-- Node2&#45;&gt;Node1 -->
<g id="edge16" class="edge">
<title>Node2&#45;&gt;Node1</title>
<path fill="none" stroke="midnightblue" d="M1029.97,-119.11C1030.44,-127.7 1030.32,-137.23 1029.62,-145.36"/>
<polygon fill="midnightblue" stroke="midnightblue" points="1033.43,-118.54 1029.06,-108.89 1026.46,-119.16 1033.43,-118.54"/>
</g>
<!-- Node3 -->
<g id="node3" class="node">
<title>Node3</title>
<g id="a_node3"><a xlink:href="arithmetic__operators_8hpp.html" target="_top" xlink:title=" ">
<polygon fill="white" stroke="black" points="0,-0.5 0,-41.5 143,-41.5 143,-0.5 0,-0.5"/>
<text text-anchor="start" x="8" y="-29.5" font-family="Helvetica,sans-Serif" font-size="10.00">include/experimental</text>
<text text-anchor="start" x="8" y="-18.5" font-family="Helvetica,sans-Serif" font-size="10.00">/linear_algebra/arithmetic</text>
<text text-anchor="middle" x="71.5" y="-7.5" font-family="Helvetica,sans-Serif" font-size="10.00">_operators.hpp</text>
</a>
</g>
</g>
<!-- Node2&#45;&gt;Node3 -->
<g id="edge2" class="edge">
<title>Node2&#45;&gt;Node3</title>
<path fill="none" stroke="midnightblue" d="M952.96,-92.8C802.88,-92.58 441.68,-87.06 143.5,-42 142.5,-41.85 141.49,-41.69 140.48,-41.53"/>
<polygon fill="midnightblue" stroke="midnightblue" points="953.39,-96.3 963.4,-92.81 953.4,-89.3 953.39,-96.3"/>
</g>
<!-- Node4 -->
<g id="node4" class="node">
<title>Node4</title>
<g id="a_node4"><a xlink:href="dynamic__matrix_8hpp.html" target="_top" xlink:title=" ">
<polygon fill="white" stroke="black" points="161.5,-0.5 161.5,-41.5 295.5,-41.5 295.5,-0.5 161.5,-0.5"/>
<text text-anchor="start" x="169.5" y="-29.5" font-family="Helvetica,sans-Serif" font-size="10.00">include/experimental</text>
<text text-anchor="start" x="169.5" y="-18.5" font-family="Helvetica,sans-Serif" font-size="10.00">/linear_algebra/dynamic</text>
<text text-anchor="middle" x="228.5" y="-7.5" font-family="Helvetica,sans-Serif" font-size="10.00">_matrix.hpp</text>
</a>
</g>
</g>
<!-- Node2&#45;&gt;Node4 -->
<g id="edge4" class="edge">
<title>Node2&#45;&gt;Node4</title>
<path fill="none" stroke="midnightblue" d="M952.99,-91.99C822.23,-90.1 534.11,-81.42 295.5,-42 294.56,-41.84 293.61,-41.68 292.66,-41.51"/>
<polygon fill="midnightblue" stroke="midnightblue" points="953.22,-95.49 963.26,-92.13 953.31,-88.49 953.22,-95.49"/>
</g>
<!-- Node5 -->
<g id="node5" class="node">
<title>Node5</title>
<g id="a_node5"><a xlink:href="dynamic__tensor_8hpp.html" target="_top" xlink:title=" ">
<polygon fill="white" stroke="black" points="313.5,-0.5 313.5,-41.5 447.5,-41.5 447.5,-0.5 313.5,-0.5"/>
<text text-anchor="start" x="321.5" y="-29.5" font-family="Helvetica,sans-Serif" font-size="10.00">include/experimental</text>
<text text-anchor="start" x="321.5" y="-18.5" font-family="Helvetica,sans-Serif" font-size="10.00">/linear_algebra/dynamic</text>
<text text-anchor="middle" x="380.5" y="-7.5" font-family="Helvetica,sans-Serif" font-size="10.00">_tensor.hpp</text>
</a>
</g>
</g>
<!-- Node2&#45;&gt;Node5 -->
<g id="edge6" class="edge">
<title>Node2&#45;&gt;Node5</title>
<path fill="none" stroke="midnightblue" d="M952.86,-90.27C843.58,-85.84 627.63,-73.49 447.5,-42 446.69,-41.86 445.88,-41.71 445.07,-41.56"/>
<polygon fill="midnightblue" stroke="midnightblue" points="952.97,-93.78 963.1,-90.67 953.25,-86.78 952.97,-93.78"/>
</g>
<!-- Node6 -->
<g id="node6" class="node">
<title>Node6</title>
<g id="a_node6"><a xlink:href="dynamic__vector_8hpp.html" target="_top" xlink:title=" ">
<polygon fill="white" stroke="black" points="465.5,-0.5 465.5,-41.5 599.5,-41.5 599.5,-0.5 465.5,-0.5"/>
<text text-anchor="start" x="473.5" y="-29.5" font-family="Helvetica,sans-Serif" font-size="10.00">include/experimental</text>
<text text-anchor="start" x="473.5" y="-18.5" font-family="Helvetica,sans-Serif" font-size="10.00">/linear_algebra/dynamic</text>
<text text-anchor="middle" x="532.5" y="-7.5" font-family="Helvetica,sans-Serif" font-size="10.00">_vector.hpp</text>
</a>
</g>
</g>
<!-- Node2&#45;&gt;Node6 -->
<g id="edge8" class="edge">
<title>Node2&#45;&gt;Node6</title>
<path fill="none" stroke="midnightblue" d="M953.18,-87.43C868.53,-80.33 722.63,-65.58 599.5,-42 598.7,-41.85 597.89,-41.69 597.08,-41.53"/>
<polygon fill="midnightblue" stroke="midnightblue" points="952.94,-90.92 963.2,-88.26 953.52,-83.95 952.94,-90.92"/>
</g>
<!-- Node7 -->
<g id="node7" class="node">
<title>Node7</title>
<g id="a_node7"><a xlink:href="fixed__size__matrix_8hpp.html" target="_top" xlink:title=" ">
<polygon fill="white" stroke="black" points="617.5,-0.5 617.5,-41.5 737.5,-41.5 737.5,-0.5 617.5,-0.5"/>
<text text-anchor="start" x="625.5" y="-29.5" font-family="Helvetica,sans-Serif" font-size="10.00">include/experimental</text>
<text text-anchor="start" x="625.5" y="-18.5" font-family="Helvetica,sans-Serif" font-size="10.00">/linear_algebra/fixed</text>
<text text-anchor="middle" x="677.5" y="-7.5" font-family="Helvetica,sans-Serif" font-size="10.00">_size_matrix.hpp</text>
</a>
</g>
</g>
<!-- Node2&#45;&gt;Node7 -->
<g id="edge10" class="edge">
<title>Node2&#45;&gt;Node7</title>
<path fill="none" stroke="midnightblue" d="M953.14,-82.85C894.83,-73.8 810.22,-59.12 737.5,-42 736.89,-41.86 736.28,-41.71 735.67,-41.57"/>
<polygon fill="midnightblue" stroke="midnightblue" points="952.93,-86.36 963.34,-84.41 953.99,-79.44 952.93,-86.36"/>
</g>
<!-- Node8 -->
<g id="node8" class="node">
<title>Node8</title>
<g id="a_node8"><a xlink:href="fixed__size__tensor_8hpp.html" target="_top" xlink:title=" ">
<polygon fill="white" stroke="black" points="755.5,-0.5 755.5,-41.5 875.5,-41.5 875.5,-0.5 755.5,-0.5"/>
<text text-anchor="start" x="763.5" y="-29.5" font-family="Helvetica,sans-Serif" font-size="10.00">include/experimental</text>
<text text-anchor="start" x="763.5" y="-18.5" font-family="Helvetica,sans-Serif" font-size="10.00">/linear_algebra/fixed</text>
<text text-anchor="middle" x="815.5" y="-7.5" font-family="Helvetica,sans-Serif" font-size="10.00">_size_tensor.hpp</text>
</a>
</g>
</g>
<!-- Node2&#45;&gt;Node8 -->
<g id="edge12" class="edge">
<title>Node2&#45;&gt;Node8</title>
<path fill="none" stroke="midnightblue" d="M966.81,-75.28C935.7,-65.1 897.47,-52.17 867.18,-41.59"/>
<polygon fill="midnightblue" stroke="midnightblue" points="966.05,-78.72 976.64,-78.49 968.22,-72.06 966.05,-78.72"/>
</g>
<!-- Node9 -->
<g id="node9" class="node">
<title>Node9</title>
<g id="a_node9"><a xlink:href="fixed__size__vector_8hpp.html" target="_top" xlink:title=" ">
<polygon fill="white" stroke="black" points="893.5,-0.5 893.5,-41.5 1013.5,-41.5 1013.5,-0.5 893.5,-0.5"/>
<text text-anchor="start" x="901.5" y="-29.5" font-family="Helvetica,sans-Serif" font-size="10.00">include/experimental</text>
<text text-anchor="start" x="901.5" y="-18.5" font-family="Helvetica,sans-Serif" font-size="10.00">/linear_algebra/fixed</text>
<text text-anchor="middle" x="953.5" y="-7.5" font-family="Helvetica,sans-Serif" font-size="10.00">_size_vector.hpp</text>
</a>
</g>
</g>
<!-- Node2&#45;&gt;Node9 -->
<g id="edge14" class="edge">
<title>Node2&#45;&gt;Node9</title>
<path fill="none" stroke="midnightblue" d="M996.29,-71.38C986.19,-61.93 975.23,-50.85 966.83,-41.59"/>
<polygon fill="midnightblue" stroke="midnightblue" points="994.04,-74.07 1003.79,-78.23 998.77,-68.9 994.04,-74.07"/>
</g>
<!-- Node10 -->
<g id="node10" class="node">
<title>Node10</title>
<g id="a_node10"><a xlink:href="matrix__concepts_8hpp.html" target="_top" xlink:title=" ">
<polygon fill="white" stroke="black" points="1032,-0.5 1032,-41.5 1157,-41.5 1157,-0.5 1032,-0.5"/>
<text text-anchor="start" x="1040" y="-29.5" font-family="Helvetica,sans-Serif" font-size="10.00">include/experimental</text>
<text text-anchor="start" x="1040" y="-18.5" font-family="Helvetica,sans-Serif" font-size="10.00">/linear_algebra/matrix</text>
<text text-anchor="middle" x="1094.5" y="-7.5" font-family="Helvetica,sans-Serif" font-size="10.00">_concepts.hpp</text>
</a>
</g>
</g>
<!-- Node2&#45;&gt;Node10 -->
<g id="edge17" class="edge">
<title>Node2&#45;&gt;Node10</title>
<path fill="none" stroke="midnightblue" d="M1039.05,-70.82C1047.77,-61.49 1058.72,-50.67 1068.65,-41.59"/>
<polygon fill="midnightblue" stroke="midnightblue" points="1036.45,-68.48 1032.32,-78.23 1041.63,-73.18 1036.45,-68.48"/>
</g>
<!-- Node11 -->
<g id="node11" class="node">
<title>Node11</title>
<g id="a_node11"><a xlink:href="matrix__view_8hpp.html" target="_top" xlink:title=" ">
<polygon fill="white" stroke="black" points="1175,-0.5 1175,-41.5 1300,-41.5 1300,-0.5 1175,-0.5"/>
<text text-anchor="start" x="1183" y="-29.5" font-family="Helvetica,sans-Serif" font-size="10.00">include/experimental</text>
<text text-anchor="start" x="1183" y="-18.5" font-family="Helvetica,sans-Serif" font-size="10.00">/linear_algebra/matrix</text>
<text text-anchor="middle" x="1237.5" y="-7.5" font-family="Helvetica,sans-Serif" font-size="10.00">_view.hpp</text>
</a>
</g>
</g>
<!-- Node2&#45;&gt;Node11 -->
<g id="edge19" class="edge">
<title>Node2&#45;&gt;Node11</title>
<path fill="none" stroke="midnightblue" d="M1070.38,-75.11C1101.09,-64.64 1141.52,-51.31 1174.95,-40.62"/>
<polygon fill="midnightblue" stroke="midnightblue" points="1069.09,-71.85 1060.77,-78.4 1071.36,-78.47 1069.09,-71.85"/>
</g>
<!-- Node12 -->
<g id="node12" class="node">
<title>Node12</title>
<g id="a_node12"><a xlink:href="private__support_8hpp.html" target="_top" xlink:title=" ">
<polygon fill="white" stroke="black" points="1318,-0.5 1318,-41.5 1445,-41.5 1445,-0.5 1318,-0.5"/>
<text text-anchor="start" x="1326" y="-29.5" font-family="Helvetica,sans-Serif" font-size="10.00">include/experimental</text>
<text text-anchor="start" x="1326" y="-18.5" font-family="Helvetica,sans-Serif" font-size="10.00">/linear_algebra/private</text>
<text text-anchor="middle" x="1381.5" y="-7.5" font-family="Helvetica,sans-Serif" font-size="10.00">_support.hpp</text>
</a>
</g>
</g>
<!-- Node2&#45;&gt;Node12 -->
<g id="edge21" class="edge">
<title>Node2&#45;&gt;Node12</title>
<path fill="none" stroke="midnightblue" d="M1093.95,-80.82C1150.14,-71.66 1230.6,-57.84 1300.5,-42 1306.07,-40.74 1311.85,-39.32 1317.65,-37.83"/>
<polygon fill="midnightblue" stroke="midnightblue" points="1093.05,-77.42 1083.74,-82.47 1094.18,-84.33 1093.05,-77.42"/>
</g>
<!-- Node13 -->
<g id="node13" class="node">
<title>Node13</title>
<g id="a_node13"><a xlink:href="tensor__concepts_8hpp.html" target="_top" xlink:title=" ">
<polygon fill="white" stroke="black" points="1463,-0.5 1463,-41.5 1586,-41.5 1586,-0.5 1463,-0.5"/>
<text text-anchor="start" x="1471" y="-29.5" font-family="Helvetica,sans-Serif" font-size="10.00">include/experimental</text>
<text text-anchor="start" x="1471" y="-18.5" font-family="Helvetica,sans-Serif" font-size="10.00">/linear_algebra/tensor</text>
<text text-anchor="middle" x="1524.5" y="-7.5" font-family="Helvetica,sans-Serif" font-size="10.00">_concepts.hpp</text>
</a>
</g>
</g>
<!-- Node2&#45;&gt;Node13 -->
<g id="edge23" class="edge">
<title>Node2&#45;&gt;Node13</title>
<path fill="none" stroke="midnightblue" d="M1093.73,-87.27C1177.92,-80.5 1322.81,-66.55 1445.5,-42 1451.08,-40.88 1456.86,-39.54 1462.64,-38.09"/>
<polygon fill="midnightblue" stroke="midnightblue" points="1093.21,-83.8 1083.51,-88.08 1093.76,-90.78 1093.21,-83.8"/>
</g>
<!-- Node14 -->
<g id="node14" class="node">
<title>Node14</title>
<g id="a_node14"><a xlink:href="tensor__view_8hpp.html" target="_top" xlink:title=" ">
<polygon fill="white" stroke="black" points="1604,-0.5 1604,-41.5 1727,-41.5 1727,-0.5 1604,-0.5"/>
<text text-anchor="start" x="1612" y="-29.5" font-family="Helvetica,sans-Serif" font-size="10.00">include/experimental</text>
<text text-anchor="start" x="1612" y="-18.5" font-family="Helvetica,sans-Serif" font-size="10.00">/linear_algebra/tensor</text>
<text text-anchor="middle" x="1665.5" y="-7.5" font-family="Helvetica,sans-Serif" font-size="10.00">_view.hpp</text>
</a>
</g>
</g>
<!-- Node2&#45;&gt;Node14 -->
<g id="edge25" class="edge">
<title>Node2&#45;&gt;Node14</title>
<path fill="none" stroke="midnightblue" d="M1093.68,-90.38C1200.78,-86.27 1410.82,-74.55 1586.5,-42 1592.09,-40.96 1597.88,-39.67 1603.67,-38.25"/>
<polygon fill="midnightblue" stroke="midnightblue" points="1093.5,-86.88 1083.64,-90.75 1093.76,-93.88 1093.5,-86.88"/>
</g>
<!-- Node15 -->
<g id="node15" class="node">
<title>Node15</title>
<g id="a_node15"><a xlink:href="vector__concepts_8hpp.html" target="_top" xlink:title=" ">
<polygon fill="white" stroke="black" points="1745,-0.5 1745,-41.5 1868,-41.5 1868,-0.5 1745,-0.5"/>
<text text-anchor="start" x="1753" y="-29.5" font-family="Helvetica,sans-Serif" font-size="10.00">include/experimental</text>
<text text-anchor="start" x="1753" y="-18.5" font-family="Helvetica,sans-Serif" font-size="10.00">/linear_algebra/vector</text>
<text text-anchor="middle" x="1806.5" y="-7.5" font-family="Helvetica,sans-Serif" font-size="10.00">_concepts.hpp</text>
</a>
</g>
</g>
<!-- Node2&#45;&gt;Node15 -->
<g id="edge27" class="edge">
<title>Node2&#45;&gt;Node15</title>
<path fill="none" stroke="midnightblue" d="M1093.81,-92.28C1221.18,-90.75 1497.85,-82.49 1727.5,-42 1733.1,-41.01 1738.9,-39.75 1744.69,-38.35"/>
<polygon fill="midnightblue" stroke="midnightblue" points="1093.75,-88.78 1083.79,-92.39 1093.83,-95.78 1093.75,-88.78"/>
</g>
<!-- Node16 -->
<g id="node16" class="node">
<title>Node16</title>
<g id="a_node16"><a xlink:href="vector__view_8hpp.html" target="_top" xlink:title=" ">
<polygon fill="white" stroke="black" points="1886,-0.5 1886,-41.5 2009,-41.5 2009,-0.5 1886,-0.5"/>
<text text-anchor="start" x="1894" y="-29.5" font-family="Helvetica,sans-Serif" font-size="10.00">include/experimental</text>
<text text-anchor="start" x="1894" y="-18.5" font-family="Helvetica,sans-Serif" font-size="10.00">/linear_algebra/vector</text>
<text text-anchor="middle" x="1947.5" y="-7.5" font-family="Helvetica,sans-Serif" font-size="10.00">_view.hpp</text>
</a>
</g>
</g>
<!-- Node2&#45;&gt;Node16 -->
<g id="edge29" class="edge">
<title>Node2&#45;&gt;Node16</title>
<path fill="none" stroke="midnightblue" d="M1093.69,-90.19C1268.53,-84.29 1719.65,-67.35 1868.5,-42 1874.11,-41.05 1879.91,-39.81 1885.7,-38.42"/>
<polygon fill="midnightblue" stroke="midnightblue" points="1093.46,-86.69 1083.58,-90.52 1093.69,-93.69 1093.46,-86.69"/>
</g>
<!-- Node3&#45;&gt;Node2 -->
<g id="edge3" class="edge">
<title>Node3&#45;&gt;Node2</title>
<path fill="none" stroke="midnightblue" d="M152.92,-40.57C155.82,-41.09 158.68,-41.57 161.5,-42 460.29,-87.16 822.35,-92.6 963.35,-92.8"/>
<polygon fill="midnightblue" stroke="midnightblue" points="153.51,-37.12 143.02,-38.66 152.18,-43.99 153.51,-37.12"/>
</g>
<!-- Node4&#45;&gt;Node2 -->
<g id="edge5" class="edge">
<title>Node4&#45;&gt;Node2</title>
<path fill="none" stroke="midnightblue" d="M305.53,-40.56C308.21,-41.08 310.88,-41.57 313.5,-42 552.09,-81.41 840.18,-90.1 963.21,-91.99"/>
<polygon fill="midnightblue" stroke="midnightblue" points="306.23,-37.13 295.72,-38.51 304.8,-43.98 306.23,-37.13"/>
</g>
<!-- Node5&#45;&gt;Node2 -->
<g id="edge7" class="edge">
<title>Node5&#45;&gt;Node2</title>
<path fill="none" stroke="midnightblue" d="M457.54,-40.5C460.22,-41.04 462.88,-41.54 465.5,-42 645.11,-73.4 860.34,-85.77 963.18,-90.23"/>
<polygon fill="midnightblue" stroke="midnightblue" points="458.25,-37.07 447.74,-38.4 456.79,-43.92 458.25,-37.07"/>
</g>
<!-- Node6&#45;&gt;Node2 -->
<g id="edge9" class="edge">
<title>Node6&#45;&gt;Node2</title>
<path fill="none" stroke="midnightblue" d="M609.56,-40.39C612.24,-40.96 614.89,-41.5 617.5,-42 739.4,-65.34 883.61,-80.03 963.26,-87.22"/>
<polygon fill="midnightblue" stroke="midnightblue" points="610.3,-36.97 599.78,-38.21 608.77,-43.8 610.3,-36.97"/>
</g>
<!-- Node7&#45;&gt;Node2 -->
<g id="edge11" class="edge">
<title>Node7&#45;&gt;Node2</title>
<path fill="none" stroke="midnightblue" d="M747.45,-40.03C750.17,-40.72 752.86,-41.38 755.5,-42 826.52,-58.72 908.88,-73.11 963.43,-82.2"/>
<polygon fill="midnightblue" stroke="midnightblue" points="748.09,-36.58 737.53,-37.44 746.32,-43.35 748.09,-36.58"/>
</g>
<!-- Node8&#45;&gt;Node2 -->
<g id="edge13" class="edge">
<title>Node8&#45;&gt;Node2</title>
<path fill="none" stroke="midnightblue" d="M885.17,-43.49C919.44,-54.82 959.29,-68.41 987.43,-78.4"/>
<polygon fill="midnightblue" stroke="midnightblue" points="886.26,-40.16 875.66,-40.36 884.07,-46.81 886.26,-40.16"/>
</g>
<!-- Node9&#45;&gt;Node2 -->
<g id="edge15" class="edge">
<title>Node9&#45;&gt;Node2</title>
<path fill="none" stroke="midnightblue" d="M986.56,-48.68C996.96,-58.72 1007.57,-69.75 1014.88,-78.23"/>
<polygon fill="midnightblue" stroke="midnightblue" points="988.74,-45.92 979.07,-41.59 983.92,-51 988.74,-45.92"/>
</g>
<!-- Node10&#45;&gt;Node2 -->
<g id="edge18" class="edge">
<title>Node10&#45;&gt;Node2</title>
<path fill="none" stroke="midnightblue" d="M1073.92,-48.97C1064.3,-58.93 1052.98,-69.83 1043.42,-78.23"/>
<polygon fill="midnightblue" stroke="midnightblue" points="1076.57,-51.26 1080.89,-41.59 1071.48,-46.46 1076.57,-51.26"/>
</g>
<!-- Node11&#45;&gt;Node2 -->
<g id="edge20" class="edge">
<title>Node11&#45;&gt;Node2</title>
<path fill="none" stroke="midnightblue" d="M1174.61,-44.82C1141.67,-55.9 1102.01,-68.87 1071.55,-78.49"/>
<polygon fill="midnightblue" stroke="midnightblue" points="1175.8,-48.11 1184.15,-41.59 1173.55,-41.48 1175.8,-48.11"/>
</g>
<!-- Node12&#45;&gt;Node2 -->
<g id="edge22" class="edge">
<title>Node12&#45;&gt;Node2</title>
<path fill="none" stroke="midnightblue" d="M1310.22,-43.84C1230.42,-61.48 1141.28,-76.13 1083.7,-84.62"/>
<polygon fill="midnightblue" stroke="midnightblue" points="1311.41,-47.16 1320.41,-41.56 1309.88,-40.33 1311.41,-47.16"/>
</g>
<!-- Node13&#45;&gt;Node2 -->
<g id="edge24" class="edge">
<title>Node13&#45;&gt;Node2</title>
<path fill="none" stroke="midnightblue" d="M1455.73,-43.51C1321.82,-69.48 1167.17,-83.11 1083.84,-88.95"/>
<polygon fill="midnightblue" stroke="midnightblue" points="1456.61,-46.91 1465.74,-41.54 1455.25,-40.04 1456.61,-46.91"/>
</g>
<!-- Node14&#45;&gt;Node2 -->
<g id="edge26" class="edge">
<title>Node14&#45;&gt;Node2</title>
<path fill="none" stroke="midnightblue" d="M1596.7,-43.41C1408.84,-77.16 1187.97,-87.84 1083.62,-91.12"/>
<polygon fill="midnightblue" stroke="midnightblue" points="1597.54,-46.81 1606.75,-41.57 1596.28,-39.92 1597.54,-46.81"/>
</g>
<!-- Node15&#45;&gt;Node2 -->
<g id="edge28" class="edge">
<title>Node15&#45;&gt;Node2</title>
<path fill="none" stroke="midnightblue" d="M1738.05,-43.27C1495.19,-84.9 1206.89,-91.57 1083.81,-92.47"/>
<polygon fill="midnightblue" stroke="midnightblue" points="1738.87,-46.68 1748.13,-41.52 1737.68,-39.78 1738.87,-46.68"/>
</g>
<!-- Node16&#45;&gt;Node2 -->
<g id="edge30" class="edge">
<title>Node16&#45;&gt;Node2</title>
<path fill="none" stroke="midnightblue" d="M1879.07,-43.17C1712.7,-68.98 1249.7,-85.62 1083.63,-90.79"/>
<polygon fill="midnightblue" stroke="midnightblue" points="1879.82,-46.59 1889.13,-41.53 1878.7,-39.68 1879.82,-46.59"/>
</g>
</g>
</svg>
