<?xml version="1.0" encoding="UTF-8" standalone="no"?>
<!DOCTYPE svg PUBLIC "-//W3C//DTD SVG 1.1//EN"
 "http://www.w3.org/Graphics/SVG/1.1/DTD/svg11.dtd">
<!-- Generated by graphviz version 8.0.1 (20230327.1645)
 -->
<!-- Title: include/experimental/linear_algebra/instant_evaluated_operations.hpp Pages: 1 -->
<!--zoomable 192 -->
<svg id="main" version="1.1" xmlns="http://www.w3.org/2000/svg" xmlns:xlink="http://www.w3.org/1999/xlink" xml:space="preserve" onload="init(evt)">
<style type="text/css"><![CDATA[
.edge:hover path { stroke: red; }
.edge:hover polygon { stroke: red; fill: red; }
]]></style>
<script type="text/javascript"><![CDATA[
var edges = document.getElementsByTagName('g');
if (edges && edges.length) {
  for (var i=0;i<edges.length;i++) {
    if (edges[i].id.substr(0,4)=='edge') {
      edges[i].setAttribute('class','edge');
    }
  }
}
]]></script>
        <defs>
                <circle id="rim" cx="0" cy="0" r="7"/>
                <circle id="rim2" cx="0" cy="0" r="3.5"/>
                <g id="zoomPlus">
                        <use xlink:href="#rim" fill="#404040">
                                <set attributeName="fill" to="#808080" begin="zoomplus.mouseover" end="zoomplus.mouseout"/>
                        </use>
                        <path d="M-4,0h8M0,-4v8" fill="none" stroke="white" stroke-width="1.5" pointer-events="none"/>
                </g>
                <g id="zoomMin">
                        <use xlink:href="#rim" fill="#404040">
                                <set attributeName="fill" to="#808080" begin="zoomminus.mouseover" end="zoomminus.mouseout"/>
                        </use>
                        <path d="M-4,0h8" fill="none" stroke="white" stroke-width="1.5" pointer-events="none"/>
                </g>
                <g id="dirArrow">
                        <path fill="none" stroke="white" stroke-width="1.5" d="M0,-3.0v7 M-2.5,-0.5L0,-3.0L2.5,-0.5"/>
                </g>
               <g id="resetDef">
                       <use xlink:href="#rim2" fill="#404040">
                               <set attributeName="fill" to="#808080" begin="reset.mouseover" end="reset.mouseout"/>
                       </use>
               </g>
        </defs>

<script type="text/javascript">
var viewWidth = 1815;
var viewHeight = 192;
var sectionId = 'dynsection-1';
</script>
<script xlink:href="svgpan.js"/>
<svg id="graph" class="graph">
<g id="viewport">
<title>include/experimental/linear_algebra/instant_evaluated_operations.hpp</title>
<!-- Node1 -->
<g id="node1" class="node">
<title>Node1</title>
<g id="a_node1"><a xlink:title=" ">
<polygon fill="#999999" stroke="#666666" points="985,-184 852,-184 852,-143 985,-143 985,-184"/>
<text text-anchor="start" x="860" y="-172" font-family="Helvetica,sans-Serif" font-size="10.00">include/experimental</text>
<text text-anchor="start" x="860" y="-161" font-family="Helvetica,sans-Serif" font-size="10.00">/linear_algebra/instant</text>
<text text-anchor="middle" x="918.5" y="-150" font-family="Helvetica,sans-Serif" font-size="10.00">_evaluated_operations.hpp</text>
</a>
</g>
</g>
<!-- Node2 -->
<g id="node2" class="node">
<title>Node2</title>
<g id="a_node2"><a xlink:href="linear__algebra_8hpp.html" target="_top" xlink:title=" ">
<polygon fill="white" stroke="#666666" points="971.5,-107 865.5,-107 865.5,-77 971.5,-77 971.5,-107"/>
<text text-anchor="start" x="873.5" y="-95" font-family="Helvetica,sans-Serif" font-size="10.00">include/experimental</text>
<text text-anchor="middle" x="918.5" y="-84" font-family="Helvetica,sans-Serif" font-size="10.00">/linear_algebra.hpp</text>
</a>
</g>
</g>
<!-- Node1&#45;&gt;Node2 -->
<g id="edge1" class="edge">
<title>Node1&#45;&gt;Node2</title>
<path fill="none" stroke="#63b8ff" d="M911.79,-131.95C911.61,-123.44 911.98,-114.59 912.9,-107.47"/>
<polygon fill="#63b8ff" stroke="#63b8ff" points="908.34,-131.96 912.34,-141.77 915.33,-131.6 908.34,-131.96"/>
</g>
<!-- Node2&#45;&gt;Node1 -->
<g id="edge16" class="edge">
<title>Node2&#45;&gt;Node1</title>
<path fill="none" stroke="#63b8ff" d="M925.02,-118.21C925.42,-126.3 925.3,-135.13 924.66,-142.77"/>
<polygon fill="#63b8ff" stroke="#63b8ff" points="928.44,-118.14 924.1,-108.47 921.47,-118.74 928.44,-118.14"/>
</g>
<!-- Node3 -->
<g id="node3" class="node">
<title>Node3</title>
<g id="a_node3"><a xlink:href="arithmetic__operators_8hpp.html" target="_top" xlink:title=" ">
<polygon fill="white" stroke="#666666" points="125,-41 0,-41 0,0 125,0 125,-41"/>
<text text-anchor="start" x="8" y="-29" font-family="Helvetica,sans-Serif" font-size="10.00">include/experimental</text>
<text text-anchor="start" x="8" y="-18" font-family="Helvetica,sans-Serif" font-size="10.00">/linear_algebra/arithmetic</text>
<text text-anchor="middle" x="62.5" y="-7" font-family="Helvetica,sans-Serif" font-size="10.00">_operators.hpp</text>
</a>
</g>
</g>
<!-- Node2&#45;&gt;Node3 -->
<g id="edge2" class="edge">
<title>Node2&#45;&gt;Node3</title>
<path fill="none" stroke="#63b8ff" d="M854.4,-91.34C718.71,-91.19 393.33,-85.89 125.31,-41.13"/>
<polygon fill="#63b8ff" stroke="#63b8ff" points="854,-94.84 864,-91.34 854,-87.84 854,-94.84"/>
</g>
<!-- Node4 -->
<g id="node4" class="node">
<title>Node4</title>
<g id="a_node4"><a xlink:href="dynamic__matrix_8hpp.html" target="_top" xlink:title=" ">
<polygon fill="white" stroke="#666666" points="262,-41 143,-41 143,0 262,0 262,-41"/>
<text text-anchor="start" x="151" y="-29" font-family="Helvetica,sans-Serif" font-size="10.00">include/experimental</text>
<text text-anchor="start" x="151" y="-18" font-family="Helvetica,sans-Serif" font-size="10.00">/linear_algebra/dynamic</text>
<text text-anchor="middle" x="202.5" y="-7" font-family="Helvetica,sans-Serif" font-size="10.00">_matrix.hpp</text>
</a>
</g>
</g>
<!-- Node2&#45;&gt;Node4 -->
<g id="edge4" class="edge">
<title>Node2&#45;&gt;Node4</title>
<path fill="none" stroke="#63b8ff" d="M854.38,-90.43C736.21,-88.44 476.91,-79.67 262.47,-41.18"/>
<polygon fill="#63b8ff" stroke="#63b8ff" points="854.32,-93.94 864.37,-90.6 854.43,-86.94 854.32,-93.94"/>
</g>
<!-- Node5 -->
<g id="node5" class="node">
<title>Node5</title>
<g id="a_node5"><a xlink:href="dynamic__tensor_8hpp.html" target="_top" xlink:title=" ">
<polygon fill="white" stroke="#666666" points="399,-41 280,-41 280,0 399,0 399,-41"/>
<text text-anchor="start" x="288" y="-29" font-family="Helvetica,sans-Serif" font-size="10.00">include/experimental</text>
<text text-anchor="start" x="288" y="-18" font-family="Helvetica,sans-Serif" font-size="10.00">/linear_algebra/dynamic</text>
<text text-anchor="middle" x="339.5" y="-7" font-family="Helvetica,sans-Serif" font-size="10.00">_tensor.hpp</text>
</a>
</g>
</g>
<!-- Node2&#45;&gt;Node5 -->
<g id="edge6" class="edge">
<title>Node2&#45;&gt;Node5</title>
<path fill="none" stroke="#63b8ff" d="M854.37,-88.73C755.69,-84.27 561.39,-71.96 399.49,-41.19"/>
<polygon fill="#63b8ff" stroke="#63b8ff" points="854.2,-92.27 864.35,-89.21 854.51,-85.28 854.2,-92.27"/>
</g>
<!-- Node6 -->
<g id="node6" class="node">
<title>Node6</title>
<g id="a_node6"><a xlink:href="dynamic__vector_8hpp.html" target="_top" xlink:title=" ">
<polygon fill="white" stroke="#666666" points="536,-41 417,-41 417,0 536,0 536,-41"/>
<text text-anchor="start" x="425" y="-29" font-family="Helvetica,sans-Serif" font-size="10.00">include/experimental</text>
<text text-anchor="start" x="425" y="-18" font-family="Helvetica,sans-Serif" font-size="10.00">/linear_algebra/dynamic</text>
<text text-anchor="middle" x="476.5" y="-7" font-family="Helvetica,sans-Serif" font-size="10.00">_vector.hpp</text>
</a>
</g>
</g>
<!-- Node2&#45;&gt;Node6 -->
<g id="edge8" class="edge">
<title>Node2&#45;&gt;Node6</title>
<path fill="none" stroke="#63b8ff" d="M854.35,-85.81C777.97,-78.63 647.14,-63.9 536.84,-41.07"/>
<polygon fill="#63b8ff" stroke="#63b8ff" points="853.93,-89.38 864.21,-86.82 854.58,-82.41 853.93,-89.38"/>
</g>
<!-- Node7 -->
<g id="node7" class="node">
<title>Node7</title>
<g id="a_node7"><a xlink:href="fixed__size__matrix_8hpp.html" target="_top" xlink:title=" ">
<polygon fill="white" stroke="#666666" points="660.5,-41 554.5,-41 554.5,0 660.5,0 660.5,-41"/>
<text text-anchor="start" x="562.5" y="-29" font-family="Helvetica,sans-Serif" font-size="10.00">include/experimental</text>
<text text-anchor="start" x="562.5" y="-18" font-family="Helvetica,sans-Serif" font-size="10.00">/linear_algebra/fixed</text>
<text text-anchor="middle" x="607.5" y="-7" font-family="Helvetica,sans-Serif" font-size="10.00">_size_matrix.hpp</text>
</a>
</g>
</g>
<!-- Node2&#45;&gt;Node7 -->
<g id="edge10" class="edge">
<title>Node2&#45;&gt;Node7</title>
<path fill="none" stroke="#63b8ff" d="M854.32,-81.32C801.79,-72.32 726.01,-57.81 660.91,-41.11"/>
<polygon fill="#63b8ff" stroke="#63b8ff" points="853.71,-84.94 864.16,-83.16 854.88,-78.04 853.71,-84.94"/>
</g>
<!-- Node8 -->
<g id="node8" class="node">
<title>Node8</title>
<g id="a_node8"><a xlink:href="fixed__size__tensor_8hpp.html" target="_top" xlink:title=" ">
<polygon fill="white" stroke="#666666" points="784.5,-41 678.5,-41 678.5,0 784.5,0 784.5,-41"/>
<text text-anchor="start" x="686.5" y="-29" font-family="Helvetica,sans-Serif" font-size="10.00">include/experimental</text>
<text text-anchor="start" x="686.5" y="-18" font-family="Helvetica,sans-Serif" font-size="10.00">/linear_algebra/fixed</text>
<text text-anchor="middle" x="731.5" y="-7" font-family="Helvetica,sans-Serif" font-size="10.00">_size_tensor.hpp</text>
</a>
</g>
</g>
<!-- Node2&#45;&gt;Node8 -->
<g id="edge12" class="edge">
<title>Node2&#45;&gt;Node8</title>
<path fill="none" stroke="#63b8ff" d="M864.1,-73.01C837.12,-63.33 804.88,-51.37 778.92,-41.42"/>
<polygon fill="#63b8ff" stroke="#63b8ff" points="862.57,-76.54 873.16,-76.6 864.92,-69.94 862.57,-76.54"/>
</g>
<!-- Node9 -->
<g id="node9" class="node">
<title>Node9</title>
<g id="a_node9"><a xlink:href="fixed__size__vector_8hpp.html" target="_top" xlink:title=" ">
<polygon fill="white" stroke="#666666" points="908.5,-41 802.5,-41 802.5,0 908.5,0 908.5,-41"/>
<text text-anchor="start" x="810.5" y="-29" font-family="Helvetica,sans-Serif" font-size="10.00">include/experimental</text>
<text text-anchor="start" x="810.5" y="-18" font-family="Helvetica,sans-Serif" font-size="10.00">/linear_algebra/fixed</text>
<text text-anchor="middle" x="855.5" y="-7" font-family="Helvetica,sans-Serif" font-size="10.00">_size_vector.hpp</text>
</a>
</g>
</g>
<!-- Node2&#45;&gt;Node9 -->
<g id="edge14" class="edge">
<title>Node2&#45;&gt;Node9</title>
<path fill="none" stroke="#63b8ff" d="M892.16,-68.93C883.55,-60.1 874.46,-50.01 867.38,-41.42"/>
<polygon fill="#63b8ff" stroke="#63b8ff" points="889.3,-71.02 898.85,-75.6 894.24,-66.06 889.3,-71.02"/>
</g>
<!-- Node10 -->
<g id="node10" class="node">
<title>Node10</title>
<g id="a_node10"><a xlink:href="matrix__concepts_8hpp.html" target="_top" xlink:title=" ">
<polygon fill="white" stroke="#666666" points="1036.5,-41 926.5,-41 926.5,0 1036.5,0 1036.5,-41"/>
<text text-anchor="start" x="934.5" y="-29" font-family="Helvetica,sans-Serif" font-size="10.00">include/experimental</text>
<text text-anchor="start" x="934.5" y="-18" font-family="Helvetica,sans-Serif" font-size="10.00">/linear_algebra/matrix</text>
<text text-anchor="middle" x="981.5" y="-7" font-family="Helvetica,sans-Serif" font-size="10.00">_concepts.hpp</text>
</a>
</g>
</g>
<!-- Node2&#45;&gt;Node10 -->
<g id="edge17" class="edge">
<title>Node2&#45;&gt;Node10</title>
<path fill="none" stroke="#63b8ff" d="M932.86,-68.12C940.13,-59.49 949.03,-49.75 957.28,-41.42"/>
<polygon fill="#63b8ff" stroke="#63b8ff" points="929.55,-65.63 925.96,-75.6 934.98,-70.05 929.55,-65.63"/>
</g>
<!-- Node11 -->
<g id="node11" class="node">
<title>Node11</title>
<g id="a_node11"><a xlink:href="matrix__view_8hpp.html" target="_top" xlink:title=" ">
<polygon fill="white" stroke="#666666" points="1164.5,-41 1054.5,-41 1054.5,0 1164.5,0 1164.5,-41"/>
<text text-anchor="start" x="1062.5" y="-29" font-family="Helvetica,sans-Serif" font-size="10.00">include/experimental</text>
<text text-anchor="start" x="1062.5" y="-18" font-family="Helvetica,sans-Serif" font-size="10.00">/linear_algebra/matrix</text>
<text text-anchor="middle" x="1109.5" y="-7" font-family="Helvetica,sans-Serif" font-size="10.00">_view.hpp</text>
</a>
</g>
</g>
<!-- Node2&#45;&gt;Node11 -->
<g id="edge19" class="edge">
<title>Node2&#45;&gt;Node11</title>
<path fill="none" stroke="#63b8ff" d="M962.52,-72.79C989.79,-62.51 1024.98,-49.71 1054.12,-39.47"/>
<polygon fill="#63b8ff" stroke="#63b8ff" points="961.59,-69.78 953.48,-76.6 964.07,-76.33 961.59,-69.78"/>
</g>
<!-- Node12 -->
<g id="node12" class="node">
<title>Node12</title>
<g id="a_node12"><a xlink:href="private__support_8hpp.html" target="_top" xlink:title=" ">
<polygon fill="white" stroke="#666666" points="1294.5,-41 1182.5,-41 1182.5,0 1294.5,0 1294.5,-41"/>
<text text-anchor="start" x="1190.5" y="-29" font-family="Helvetica,sans-Serif" font-size="10.00">include/experimental</text>
<text text-anchor="start" x="1190.5" y="-18" font-family="Helvetica,sans-Serif" font-size="10.00">/linear_algebra/private</text>
<text text-anchor="middle" x="1238.5" y="-7" font-family="Helvetica,sans-Serif" font-size="10.00">_support.hpp</text>
</a>
</g>
</g>
<!-- Node2&#45;&gt;Node12 -->
<g id="edge21" class="edge">
<title>Node2&#45;&gt;Node12</title>
<path fill="none" stroke="#63b8ff" d="M982.6,-78.89C1032.46,-69.74 1103.1,-56.19 1164.5,-41 1170.22,-39.59 1176.18,-37.98 1182.15,-36.31"/>
<polygon fill="#63b8ff" stroke="#63b8ff" points="982.18,-75.59 972.98,-80.83 983.44,-82.48 982.18,-75.59"/>
</g>
<!-- Node13 -->
<g id="node13" class="node">
<title>Node13</title>
<g id="a_node13"><a xlink:href="tensor__concepts_8hpp.html" target="_top" xlink:title=" ">
<polygon fill="white" stroke="#666666" points="1422.5,-41 1312.5,-41 1312.5,0 1422.5,0 1422.5,-41"/>
<text text-anchor="start" x="1320.5" y="-29" font-family="Helvetica,sans-Serif" font-size="10.00">include/experimental</text>
<text text-anchor="start" x="1320.5" y="-18" font-family="Helvetica,sans-Serif" font-size="10.00">/linear_algebra/tensor</text>
<text text-anchor="middle" x="1367.5" y="-7" font-family="Helvetica,sans-Serif" font-size="10.00">_concepts.hpp</text>
</a>
</g>
</g>
<!-- Node2&#45;&gt;Node13 -->
<g id="edge23" class="edge">
<title>Node2&#45;&gt;Node13</title>
<path fill="none" stroke="#63b8ff" d="M982.53,-85.38C1057.82,-78.38 1186.02,-64.4 1294.5,-41 1300.29,-39.75 1306.31,-38.23 1312.32,-36.58"/>
<polygon fill="#63b8ff" stroke="#63b8ff" points="982.46,-81.97 972.82,-86.37 983.1,-88.94 982.46,-81.97"/>
</g>
<!-- Node14 -->
<g id="node14" class="node">
<title>Node14</title>
<g id="a_node14"><a xlink:href="tensor__view_8hpp.html" target="_top" xlink:title=" ">
<polygon fill="white" stroke="#666666" points="1550.5,-41 1440.5,-41 1440.5,0 1550.5,0 1550.5,-41"/>
<text text-anchor="start" x="1448.5" y="-29" font-family="Helvetica,sans-Serif" font-size="10.00">include/experimental</text>
<text text-anchor="start" x="1448.5" y="-18" font-family="Helvetica,sans-Serif" font-size="10.00">/linear_algebra/tensor</text>
<text text-anchor="middle" x="1495.5" y="-7" font-family="Helvetica,sans-Serif" font-size="10.00">_view.hpp</text>
</a>
</g>
</g>
<!-- Node2&#45;&gt;Node14 -->
<g id="edge25" class="edge">
<title>Node2&#45;&gt;Node14</title>
<path fill="none" stroke="#63b8ff" d="M982.65,-88.57C1079.01,-84.14 1266.16,-72.11 1422.5,-41 1428.2,-39.87 1434.11,-38.43 1440,-36.86"/>
<polygon fill="#63b8ff" stroke="#63b8ff" points="982.76,-85.11 972.92,-89.05 983.07,-92.1 982.76,-85.11"/>
</g>
<!-- Node15 -->
<g id="node15" class="node">
<title>Node15</title>
<g id="a_node15"><a xlink:href="vector__concepts_8hpp.html" target="_top" xlink:title=" ">
<polygon fill="white" stroke="#666666" points="1678.5,-41 1568.5,-41 1568.5,0 1678.5,0 1678.5,-41"/>
<text text-anchor="start" x="1576.5" y="-29" font-family="Helvetica,sans-Serif" font-size="10.00">include/experimental</text>
<text text-anchor="start" x="1576.5" y="-18" font-family="Helvetica,sans-Serif" font-size="10.00">/linear_algebra/vector</text>
<text text-anchor="middle" x="1623.5" y="-7" font-family="Helvetica,sans-Serif" font-size="10.00">_concepts.hpp</text>
</a>
</g>
</g>
<!-- Node2&#45;&gt;Node15 -->
<g id="edge27" class="edge">
<title>Node2&#45;&gt;Node15</title>
<path fill="none" stroke="#63b8ff" d="M982.52,-90.52C1097.35,-88.6 1345.17,-79.81 1550.5,-41 1556.21,-39.92 1562.13,-38.52 1568.02,-36.96"/>
<polygon fill="#63b8ff" stroke="#63b8ff" points="982.77,-87.03 972.82,-90.68 982.88,-94.03 982.77,-87.03"/>
</g>
<!-- Node16 -->
<g id="node16" class="node">
<title>Node16</title>
<g id="a_node16"><a xlink:href="vector__view_8hpp.html" target="_top" xlink:title=" ">
<polygon fill="white" stroke="#666666" points="1806.5,-41 1696.5,-41 1696.5,0 1806.5,0 1806.5,-41"/>
<text text-anchor="start" x="1704.5" y="-29" font-family="Helvetica,sans-Serif" font-size="10.00">include/experimental</text>
<text text-anchor="start" x="1704.5" y="-18" font-family="Helvetica,sans-Serif" font-size="10.00">/linear_algebra/vector</text>
<text text-anchor="middle" x="1751.5" y="-7" font-family="Helvetica,sans-Serif" font-size="10.00">_view.hpp</text>
</a>
</g>
</g>
<!-- Node2&#45;&gt;Node16 -->
<g id="edge29" class="edge">
<title>Node2&#45;&gt;Node16</title>
<path fill="none" stroke="#63b8ff" d="M982.36,-91.82C1113.83,-92.25 1423.42,-87.51 1678.5,-41 1684.21,-39.96 1690.14,-38.58 1696.04,-37.04"/>
<polygon fill="#63b8ff" stroke="#63b8ff" points="982.71,-88.31 972.7,-91.77 982.68,-95.31 982.71,-88.31"/>
</g>
<!-- Node3&#45;&gt;Node2 -->
<g id="edge3" class="edge">
<title>Node3&#45;&gt;Node2</title>
<path fill="none" stroke="#63b8ff" d="M136.19,-39.85C138.31,-40.27 140.42,-40.65 142.5,-41 411.54,-86.03 738.66,-91.23 865.15,-91.34"/>
<polygon fill="#63b8ff" stroke="#63b8ff" points="136.98,-36.23 126.47,-37.56 135.52,-43.07 136.98,-36.23"/>
</g>
<!-- Node4&#45;&gt;Node2 -->
<g id="edge5" class="edge">
<title>Node4&#45;&gt;Node2</title>
<path fill="none" stroke="#63b8ff" d="M272.91,-39.71C275.13,-40.18 277.33,-40.61 279.5,-41 494.38,-79.69 754.64,-88.46 865.02,-90.43"/>
<polygon fill="#63b8ff" stroke="#63b8ff" points="273.95,-36.13 263.43,-37.32 272.4,-42.96 273.95,-36.13"/>
</g>
<!-- Node5&#45;&gt;Node2 -->
<g id="edge7" class="edge">
<title>Node5&#45;&gt;Node2</title>
<path fill="none" stroke="#63b8ff" d="M409.92,-39.65C412.13,-40.14 414.33,-40.59 416.5,-41 578.49,-71.89 773.21,-84.24 865.37,-88.72"/>
<polygon fill="#63b8ff" stroke="#63b8ff" points="410.98,-36.07 400.45,-37.2 409.39,-42.89 410.98,-36.07"/>
</g>
<!-- Node6&#45;&gt;Node2 -->
<g id="edge9" class="edge">
<title>Node6&#45;&gt;Node2</title>
<path fill="none" stroke="#63b8ff" d="M546.99,-39.35C549.52,-39.94 552.03,-40.49 554.5,-41 664.06,-63.7 793.95,-78.41 865.26,-85.65"/>
<polygon fill="#63b8ff" stroke="#63b8ff" points="548.03,-35.76 537.49,-36.8 546.38,-42.56 548.03,-35.76"/>
</g>
<!-- Node7&#45;&gt;Node2 -->
<g id="edge11" class="edge">
<title>Node7&#45;&gt;Node2</title>
<path fill="none" stroke="#63b8ff" d="M671.47,-39.13C673.84,-39.78 676.19,-40.41 678.5,-41 742.34,-57.4 816.54,-71.7 865.43,-80.75"/>
<polygon fill="#63b8ff" stroke="#63b8ff" points="672.54,-35.51 661.96,-36.13 670.62,-42.24 672.54,-35.51"/>
</g>
<!-- Node8&#45;&gt;Node2 -->
<g id="edge13" class="edge">
<title>Node8&#45;&gt;Node2</title>
<path fill="none" stroke="#63b8ff" d="M794.87,-42.72C825.22,-53.7 860.28,-66.81 885.35,-76.6"/>
<polygon fill="#63b8ff" stroke="#63b8ff" points="796.37,-39.18 785.78,-39.09 794,-45.77 796.37,-39.18"/>
</g>
<!-- Node9&#45;&gt;Node2 -->
<g id="edge15" class="edge">
<title>Node9&#45;&gt;Node2</title>
<path fill="none" stroke="#63b8ff" d="M887.13,-49.09C896,-58.5 904.86,-68.65 911.04,-76.6"/>
<polygon fill="#63b8ff" stroke="#63b8ff" points="890.19,-47.18 880.72,-42.42 885.15,-52.04 890.19,-47.18"/>
</g>
<!-- Node10&#45;&gt;Node2 -->
<g id="edge18" class="edge">
<title>Node10&#45;&gt;Node2</title>
<path fill="none" stroke="#63b8ff" d="M962.62,-49.65C954.54,-58.91 945.22,-68.81 937.15,-76.6"/>
<polygon fill="#63b8ff" stroke="#63b8ff" points="965.81,-52.3 969.62,-42.42 960.48,-47.77 965.81,-52.3"/>
</g>
<!-- Node11&#45;&gt;Node2 -->
<g id="edge20" class="edge">
<title>Node11&#45;&gt;Node2</title>
<path fill="none" stroke="#63b8ff" d="M1050.85,-45.18C1022.79,-55.62 989.75,-67.53 963.67,-76.6"/>
<polygon fill="#63b8ff" stroke="#63b8ff" points="1051.79,-48.19 1059.94,-41.42 1049.35,-41.64 1051.79,-48.19"/>
</g>
<!-- Node12&#45;&gt;Node2 -->
<g id="edge22" class="edge">
<title>Node12&#45;&gt;Node2</title>
<path fill="none" stroke="#63b8ff" d="M1171.45,-43.69C1101.95,-60.38 1022.99,-74.83 971.94,-83.23"/>
<polygon fill="#63b8ff" stroke="#63b8ff" points="1172.19,-46.87 1181.08,-41.1 1170.53,-40.07 1172.19,-46.87"/>
</g>
<!-- Node13&#45;&gt;Node2 -->
<g id="edge24" class="edge">
<title>Node13&#45;&gt;Node2</title>
<path fill="none" stroke="#63b8ff" d="M1301.54,-43.32C1183.76,-67.76 1045.88,-81.45 971.8,-87.39"/>
<polygon fill="#63b8ff" stroke="#63b8ff" points="1302.09,-46.57 1311.15,-41.08 1300.64,-39.72 1302.09,-46.57"/>
</g>
<!-- Node14&#45;&gt;Node2 -->
<g id="edge26" class="edge">
<title>Node14&#45;&gt;Node2</title>
<path fill="none" stroke="#63b8ff" d="M1429.59,-43.13C1263.04,-75.06 1065.11,-86 971.89,-89.49"/>
<polygon fill="#63b8ff" stroke="#63b8ff" points="1429.86,-46.45 1439.01,-41.1 1428.52,-39.58 1429.86,-46.45"/>
</g>
<!-- Node15&#45;&gt;Node2 -->
<g id="edge28" class="edge">
<title>Node15&#45;&gt;Node2</title>
<path fill="none" stroke="#63b8ff" d="M1557.6,-43.03C1341.44,-82.49 1082.11,-89.6 971.99,-90.8"/>
<polygon fill="#63b8ff" stroke="#63b8ff" points="1557.99,-46.33 1567.18,-41.06 1556.71,-39.44 1557.99,-46.33"/>
</g>
<!-- Node16&#45;&gt;Node2 -->
<g id="edge30" class="edge">
<title>Node16&#45;&gt;Node2</title>
<path fill="none" stroke="#63b8ff" d="M1685.45,-42.98C1418.7,-90.08 1096.56,-92.63 971.54,-91.71"/>
<polygon fill="#63b8ff" stroke="#63b8ff" points="1685.88,-46.28 1695.11,-41.07 1684.65,-39.39 1685.88,-46.28"/>
</g>
</g>
</svg>
        <g id="navigator" transform="translate(0 0)" fill="#404254">
                <rect fill="#f2f5e9" fill-opacity="0.5" stroke="#606060" stroke-width=".5" x="0" y="0" width="60" height="60"/>
                <use id="zoomplus" xlink:href="#zoomPlus" x="17" y="9" onmousedown="handleZoom(evt,'in')"/>
                <use id="zoomminus" xlink:href="#zoomMin" x="42" y="9" onmousedown="handleZoom(evt,'out')"/>
                <use id="reset" xlink:href="#resetDef" x="30" y="36" onmousedown="handleReset()"/>
                <g id="arrowUp" xlink:href="#dirArrow" transform="translate(30 24)" onmousedown="handlePan(0,-1)">
                  <use xlink:href="#rim" fill="#404040">
                        <set attributeName="fill" to="#808080" begin="arrowUp.mouseover" end="arrowUp.mouseout"/>
                  </use>
                  <path fill="none" stroke="white" stroke-width="1.5" d="M0,-3.0v7 M-2.5,-0.5L0,-3.0L2.5,-0.5"/>
                </g>
                <g id="arrowRight" xlink:href="#dirArrow" transform="rotate(90) translate(36 -43)" onmousedown="handlePan(1,0)">
                  <use xlink:href="#rim" fill="#404040">
                        <set attributeName="fill" to="#808080" begin="arrowRight.mouseover" end="arrowRight.mouseout"/>
                  </use>
                  <path fill="none" stroke="white" stroke-width="1.5" d="M0,-3.0v7 M-2.5,-0.5L0,-3.0L2.5,-0.5"/>
                </g>
                <g id="arrowDown" xlink:href="#dirArrow" transform="rotate(180) translate(-30 -48)" onmousedown="handlePan(0,1)">
                  <use xlink:href="#rim" fill="#404040">
                        <set attributeName="fill" to="#808080" begin="arrowDown.mouseover" end="arrowDown.mouseout"/>
                  </use>
                  <path fill="none" stroke="white" stroke-width="1.5" d="M0,-3.0v7 M-2.5,-0.5L0,-3.0L2.5,-0.5"/>
                </g>
                <g id="arrowLeft" xlink:href="#dirArrow" transform="rotate(270) translate(-36 17)" onmousedown="handlePan(-1,0)">
                  <use xlink:href="#rim" fill="#404040">
                        <set attributeName="fill" to="#808080" begin="arrowLeft.mouseover" end="arrowLeft.mouseout"/>
                  </use>
                  <path fill="none" stroke="white" stroke-width="1.5" d="M0,-3.0v7 M-2.5,-0.5L0,-3.0L2.5,-0.5"/>
                </g>
        </g>
        <svg viewBox="0 0 15 15" width="100%" height="30px" preserveAspectRatio="xMaxYMin meet">
         <g id="arrow_out" transform="scale(0.3 0.3)">
          <a xlink:href="instant__evaluated__operations_8hpp__dep__incl_org.svg" target="_base">
           <rect id="button" ry="5" rx="5" y="6" x="6" height="38" width="38"
                fill="#f2f5e9" fill-opacity="0.5" stroke="#606060" stroke-width="1.0"/>
           <path id="arrow"
             d="M 11.500037,31.436501 C 11.940474,20.09759 22.043105,11.32322 32.158766,21.979434 L 37.068811,17.246167 C 37.068811,17.246167 37.088388,32 37.088388,32 L 22.160133,31.978069 C 22.160133,31.978069 26.997745,27.140456 26.997745,27.140456 C 18.528582,18.264221 13.291696,25.230495 11.500037,31.436501 z"
             style="fill:#404040;"/>
          </a>
         </g>
        </svg>
</svg>
