<?xml version="1.0" encoding="UTF-8" standalone="no"?>
<!DOCTYPE svg PUBLIC "-//W3C//DTD SVG 1.1//EN"
 "http://www.w3.org/Graphics/SVG/1.1/DTD/svg11.dtd">
<!-- Generated by graphviz version 8.0.1 (20230327.1645)
 -->
<!-- Title: include/experimental/linear_algebra/instant_evaluated_operations.hpp Pages: 1 -->
<svg width="2077pt" height="192pt"
 viewBox="0.00 0.00 2076.50 192.00" xmlns="http://www.w3.org/2000/svg" xmlns:xlink="http://www.w3.org/1999/xlink">
<g id="graph0" class="graph" transform="scale(1 1) rotate(0) translate(4 188)">
<title>include/experimental/linear_algebra/instant_evaluated_operations.hpp</title>
<!-- Node1 -->
<g id="node1" class="node">
<title>Node1</title>
<g id="a_node1"><a xlink:title=" ">
<polygon fill="#999999" stroke="#666666" points="1116,-184 983,-184 983,-143 1116,-143 1116,-184"/>
<text text-anchor="start" x="991" y="-172" font-family="Helvetica,sans-Serif" font-size="10.00">include/experimental</text>
<text text-anchor="start" x="991" y="-161" font-family="Helvetica,sans-Serif" font-size="10.00">/linear_algebra/instant</text>
<text text-anchor="middle" x="1049.5" y="-150" font-family="Helvetica,sans-Serif" font-size="10.00">_evaluated_operations.hpp</text>
</a>
</g>
</g>
<!-- Node2 -->
<g id="node2" class="node">
<title>Node2</title>
<g id="a_node2"><a xlink:href="linear__algebra_8hpp.html" target="_top" xlink:title=" ">
<polygon fill="white" stroke="#666666" points="1102.5,-107 996.5,-107 996.5,-77 1102.5,-77 1102.5,-107"/>
<text text-anchor="start" x="1004.5" y="-95" font-family="Helvetica,sans-Serif" font-size="10.00">include/experimental</text>
<text text-anchor="middle" x="1049.5" y="-84" font-family="Helvetica,sans-Serif" font-size="10.00">/linear_algebra.hpp</text>
</a>
</g>
</g>
<!-- Node1&#45;&gt;Node2 -->
<g id="edge1" class="edge">
<title>Node1&#45;&gt;Node2</title>
<path fill="none" stroke="#63b8ff" d="M1042.79,-131.95C1042.61,-123.44 1042.98,-114.59 1043.9,-107.47"/>
<polygon fill="#63b8ff" stroke="#63b8ff" points="1039.34,-131.96 1043.34,-141.77 1046.33,-131.6 1039.34,-131.96"/>
</g>
<!-- Node2&#45;&gt;Node1 -->
<g id="edge18" class="edge">
<title>Node2&#45;&gt;Node1</title>
<path fill="none" stroke="#63b8ff" d="M1056.02,-118.21C1056.42,-126.3 1056.3,-135.13 1055.66,-142.77"/>
<polygon fill="#63b8ff" stroke="#63b8ff" points="1059.44,-118.14 1055.1,-108.47 1052.47,-118.74 1059.44,-118.14"/>
</g>
<!-- Node3 -->
<g id="node3" class="node">
<title>Node3</title>
<g id="a_node3"><a xlink:href="arithmetic__operators_8hpp.html" target="_top" xlink:title=" ">
<polygon fill="white" stroke="#666666" points="125,-41 0,-41 0,0 125,0 125,-41"/>
<text text-anchor="start" x="8" y="-29" font-family="Helvetica,sans-Serif" font-size="10.00">include/experimental</text>
<text text-anchor="start" x="8" y="-18" font-family="Helvetica,sans-Serif" font-size="10.00">/linear_algebra/arithmetic</text>
<text text-anchor="middle" x="62.5" y="-7" font-family="Helvetica,sans-Serif" font-size="10.00">_operators.hpp</text>
</a>
</g>
</g>
<!-- Node2&#45;&gt;Node3 -->
<g id="edge2" class="edge">
<title>Node2&#45;&gt;Node3</title>
<path fill="none" stroke="#63b8ff" d="M985.24,-89.39C804.08,-84.42 292.17,-68.01 125.49,-41.16"/>
<polygon fill="#63b8ff" stroke="#63b8ff" points="985.08,-92.91 995.17,-89.69 985.27,-85.92 985.08,-92.91"/>
</g>
<!-- Node4 -->
<g id="node4" class="node">
<title>Node4</title>
<g id="a_node4"><a xlink:href="dynamic__matrix_8hpp.html" target="_top" xlink:title=" ">
<polygon fill="white" stroke="#666666" points="262,-41 143,-41 143,0 262,0 262,-41"/>
<text text-anchor="start" x="151" y="-29" font-family="Helvetica,sans-Serif" font-size="10.00">include/experimental</text>
<text text-anchor="start" x="151" y="-18" font-family="Helvetica,sans-Serif" font-size="10.00">/linear_algebra/dynamic</text>
<text text-anchor="middle" x="202.5" y="-7" font-family="Helvetica,sans-Serif" font-size="10.00">_matrix.hpp</text>
</a>
</g>
</g>
<!-- Node2&#45;&gt;Node4 -->
<g id="edge4" class="edge">
<title>Node2&#45;&gt;Node4</title>
<path fill="none" stroke="#63b8ff" d="M985.41,-91.52C850.41,-91.73 527.76,-87.06 262.3,-41.14"/>
<polygon fill="#63b8ff" stroke="#63b8ff" points="985.36,-95.02 995.35,-91.49 985.34,-88.02 985.36,-95.02"/>
</g>
<!-- Node5 -->
<g id="node5" class="node">
<title>Node5</title>
<g id="a_node5"><a xlink:href="dynamic__tensor_8hpp.html" target="_top" xlink:title=" ">
<polygon fill="white" stroke="#666666" points="399,-41 280,-41 280,0 399,0 399,-41"/>
<text text-anchor="start" x="288" y="-29" font-family="Helvetica,sans-Serif" font-size="10.00">include/experimental</text>
<text text-anchor="start" x="288" y="-18" font-family="Helvetica,sans-Serif" font-size="10.00">/linear_algebra/dynamic</text>
<text text-anchor="middle" x="339.5" y="-7" font-family="Helvetica,sans-Serif" font-size="10.00">_tensor.hpp</text>
</a>
</g>
</g>
<!-- Node2&#45;&gt;Node5 -->
<g id="edge6" class="edge">
<title>Node2&#45;&gt;Node5</title>
<path fill="none" stroke="#63b8ff" d="M985.49,-90.37C868.17,-88.28 611.65,-79.34 399.46,-41.17"/>
<polygon fill="#63b8ff" stroke="#63b8ff" points="985.34,-93.88 995.4,-90.55 985.46,-86.88 985.34,-93.88"/>
</g>
<!-- Node6 -->
<g id="node6" class="node">
<title>Node6</title>
<g id="a_node6"><a xlink:href="dynamic__vector_8hpp.html" target="_top" xlink:title=" ">
<polygon fill="white" stroke="#666666" points="536,-41 417,-41 417,0 536,0 536,-41"/>
<text text-anchor="start" x="425" y="-29" font-family="Helvetica,sans-Serif" font-size="10.00">include/experimental</text>
<text text-anchor="start" x="425" y="-18" font-family="Helvetica,sans-Serif" font-size="10.00">/linear_algebra/dynamic</text>
<text text-anchor="middle" x="476.5" y="-7" font-family="Helvetica,sans-Serif" font-size="10.00">_vector.hpp</text>
</a>
</g>
</g>
<!-- Node2&#45;&gt;Node6 -->
<g id="edge8" class="edge">
<title>Node2&#45;&gt;Node6</title>
<path fill="none" stroke="#63b8ff" d="M985.41,-88.55C887.71,-83.86 696.41,-71.23 536.99,-41.09"/>
<polygon fill="#63b8ff" stroke="#63b8ff" points="985.13,-92.09 995.28,-89.06 985.46,-85.1 985.13,-92.09"/>
</g>
<!-- Node7 -->
<g id="node7" class="node">
<title>Node7</title>
<g id="a_node7"><a xlink:href="fixed__size__matrix_8hpp.html" target="_top" xlink:title=" ">
<polygon fill="white" stroke="#666666" points="660.5,-41 554.5,-41 554.5,0 660.5,0 660.5,-41"/>
<text text-anchor="start" x="562.5" y="-29" font-family="Helvetica,sans-Serif" font-size="10.00">include/experimental</text>
<text text-anchor="start" x="562.5" y="-18" font-family="Helvetica,sans-Serif" font-size="10.00">/linear_algebra/fixed</text>
<text text-anchor="middle" x="607.5" y="-7" font-family="Helvetica,sans-Serif" font-size="10.00">_size_matrix.hpp</text>
</a>
</g>
</g>
<!-- Node2&#45;&gt;Node7 -->
<g id="edge10" class="edge">
<title>Node2&#45;&gt;Node7</title>
<path fill="none" stroke="#63b8ff" d="M985.59,-86.55C907.92,-80.06 773.56,-65.99 660.85,-41.08"/>
<polygon fill="#63b8ff" stroke="#63b8ff" points="984.91,-90.09 995.16,-87.42 985.48,-83.11 984.91,-90.09"/>
</g>
<!-- Node8 -->
<g id="node8" class="node">
<title>Node8</title>
<g id="a_node8"><a xlink:href="fixed__size__tensor_8hpp.html" target="_top" xlink:title=" ">
<polygon fill="white" stroke="#666666" points="784.5,-41 678.5,-41 678.5,0 784.5,0 784.5,-41"/>
<text text-anchor="start" x="686.5" y="-29" font-family="Helvetica,sans-Serif" font-size="10.00">include/experimental</text>
<text text-anchor="start" x="686.5" y="-18" font-family="Helvetica,sans-Serif" font-size="10.00">/linear_algebra/fixed</text>
<text text-anchor="middle" x="731.5" y="-7" font-family="Helvetica,sans-Serif" font-size="10.00">_size_tensor.hpp</text>
</a>
</g>
</g>
<!-- Node2&#45;&gt;Node8 -->
<g id="edge12" class="edge">
<title>Node2&#45;&gt;Node8</title>
<path fill="none" stroke="#63b8ff" d="M985.52,-81.76C931.51,-72.87 852.59,-58.28 784.92,-41.11"/>
<polygon fill="#63b8ff" stroke="#63b8ff" points="984.88,-85.36 995.32,-83.51 986.01,-78.45 984.88,-85.36"/>
</g>
<!-- Node9 -->
<g id="node9" class="node">
<title>Node9</title>
<g id="a_node9"><a xlink:href="fixed__size__vector_8hpp.html" target="_top" xlink:title=" ">
<polygon fill="white" stroke="#666666" points="908.5,-41 802.5,-41 802.5,0 908.5,0 908.5,-41"/>
<text text-anchor="start" x="810.5" y="-29" font-family="Helvetica,sans-Serif" font-size="10.00">include/experimental</text>
<text text-anchor="start" x="810.5" y="-18" font-family="Helvetica,sans-Serif" font-size="10.00">/linear_algebra/fixed</text>
<text text-anchor="middle" x="855.5" y="-7" font-family="Helvetica,sans-Serif" font-size="10.00">_size_vector.hpp</text>
</a>
</g>
</g>
<!-- Node2&#45;&gt;Node9 -->
<g id="edge14" class="edge">
<title>Node2&#45;&gt;Node9</title>
<path fill="none" stroke="#63b8ff" d="M993.66,-73.14C965.63,-63.44 932.01,-51.42 904.92,-41.42"/>
<polygon fill="#63b8ff" stroke="#63b8ff" points="992.12,-76.65 1002.71,-76.6 994.39,-70.03 992.12,-76.65"/>
</g>
<!-- Node10 -->
<g id="node10" class="node">
<title>Node10</title>
<g id="a_node10"><a xlink:href="forward__declarations_8hpp.html" target="_top" xlink:title=" ">
<polygon fill="white" stroke="#666666" points="1042,-41 927,-41 927,0 1042,0 1042,-41"/>
<text text-anchor="start" x="935" y="-29" font-family="Helvetica,sans-Serif" font-size="10.00">include/experimental</text>
<text text-anchor="start" x="935" y="-18" font-family="Helvetica,sans-Serif" font-size="10.00">/linear_algebra/forward</text>
<text text-anchor="middle" x="984.5" y="-7" font-family="Helvetica,sans-Serif" font-size="10.00">_declarations.hpp</text>
</a>
</g>
</g>
<!-- Node2&#45;&gt;Node10 -->
<g id="edge16" class="edge">
<title>Node2&#45;&gt;Node10</title>
<path fill="none" stroke="#63b8ff" d="M1022.8,-69.2C1013.86,-60.31 1004.36,-50.1 996.96,-41.42"/>
<polygon fill="#63b8ff" stroke="#63b8ff" points="1019.82,-71.16 1029.44,-75.6 1024.69,-66.13 1019.82,-71.16"/>
</g>
<!-- Node11 -->
<g id="node11" class="node">
<title>Node11</title>
<g id="a_node11"><a xlink:href="matrix__concepts_8hpp.html" target="_top" xlink:title=" ">
<polygon fill="white" stroke="#666666" points="1170.5,-41 1060.5,-41 1060.5,0 1170.5,0 1170.5,-41"/>
<text text-anchor="start" x="1068.5" y="-29" font-family="Helvetica,sans-Serif" font-size="10.00">include/experimental</text>
<text text-anchor="start" x="1068.5" y="-18" font-family="Helvetica,sans-Serif" font-size="10.00">/linear_algebra/matrix</text>
<text text-anchor="middle" x="1115.5" y="-7" font-family="Helvetica,sans-Serif" font-size="10.00">_concepts.hpp</text>
</a>
</g>
</g>
<!-- Node2&#45;&gt;Node11 -->
<g id="edge19" class="edge">
<title>Node2&#45;&gt;Node11</title>
<path fill="none" stroke="#63b8ff" d="M1064.6,-68.39C1072.29,-59.69 1081.72,-49.84 1090.42,-41.42"/>
<polygon fill="#63b8ff" stroke="#63b8ff" points="1061.42,-65.72 1057.58,-75.6 1066.74,-70.27 1061.42,-65.72"/>
</g>
<!-- Node12 -->
<g id="node12" class="node">
<title>Node12</title>
<g id="a_node12"><a xlink:href="matrix__view_8hpp.html" target="_top" xlink:title=" ">
<polygon fill="white" stroke="#666666" points="1298.5,-41 1188.5,-41 1188.5,0 1298.5,0 1298.5,-41"/>
<text text-anchor="start" x="1196.5" y="-29" font-family="Helvetica,sans-Serif" font-size="10.00">include/experimental</text>
<text text-anchor="start" x="1196.5" y="-18" font-family="Helvetica,sans-Serif" font-size="10.00">/linear_algebra/matrix</text>
<text text-anchor="middle" x="1243.5" y="-7" font-family="Helvetica,sans-Serif" font-size="10.00">_view.hpp</text>
</a>
</g>
</g>
<!-- Node2&#45;&gt;Node12 -->
<g id="edge21" class="edge">
<title>Node2&#45;&gt;Node12</title>
<path fill="none" stroke="#63b8ff" d="M1094.38,-72.76C1122.32,-62.4 1158.38,-49.49 1188.08,-39.21"/>
<polygon fill="#63b8ff" stroke="#63b8ff" points="1093.25,-69.82 1085.1,-76.6 1095.7,-76.38 1093.25,-69.82"/>
</g>
<!-- Node13 -->
<g id="node13" class="node">
<title>Node13</title>
<g id="a_node13"><a xlink:href="private__support_8hpp.html" target="_top" xlink:title=" ">
<polygon fill="white" stroke="#666666" points="1428.5,-41 1316.5,-41 1316.5,0 1428.5,0 1428.5,-41"/>
<text text-anchor="start" x="1324.5" y="-29" font-family="Helvetica,sans-Serif" font-size="10.00">include/experimental</text>
<text text-anchor="start" x="1324.5" y="-18" font-family="Helvetica,sans-Serif" font-size="10.00">/linear_algebra/private</text>
<text text-anchor="middle" x="1372.5" y="-7" font-family="Helvetica,sans-Serif" font-size="10.00">_support.hpp</text>
</a>
</g>
</g>
<!-- Node2&#45;&gt;Node13 -->
<g id="edge23" class="edge">
<title>Node2&#45;&gt;Node13</title>
<path fill="none" stroke="#63b8ff" d="M1113.7,-79.09C1164.2,-69.97 1236.07,-56.37 1298.5,-41 1304.22,-39.59 1310.19,-37.99 1316.15,-36.32"/>
<polygon fill="#63b8ff" stroke="#63b8ff" points="1113.16,-75.81 1103.94,-81.02 1114.4,-82.7 1113.16,-75.81"/>
</g>
<!-- Node14 -->
<g id="node14" class="node">
<title>Node14</title>
<g id="a_node14"><a xlink:href="tensor__concepts_8hpp.html" target="_top" xlink:title=" ">
<polygon fill="white" stroke="#666666" points="1556.5,-41 1446.5,-41 1446.5,0 1556.5,0 1556.5,-41"/>
<text text-anchor="start" x="1454.5" y="-29" font-family="Helvetica,sans-Serif" font-size="10.00">include/experimental</text>
<text text-anchor="start" x="1454.5" y="-18" font-family="Helvetica,sans-Serif" font-size="10.00">/linear_algebra/tensor</text>
<text text-anchor="middle" x="1501.5" y="-7" font-family="Helvetica,sans-Serif" font-size="10.00">_concepts.hpp</text>
</a>
</g>
</g>
<!-- Node2&#45;&gt;Node14 -->
<g id="edge25" class="edge">
<title>Node2&#45;&gt;Node14</title>
<path fill="none" stroke="#63b8ff" d="M1113.76,-85.46C1189.6,-78.51 1319.02,-64.56 1428.5,-41 1434.29,-39.75 1440.32,-38.23 1446.32,-36.59"/>
<polygon fill="#63b8ff" stroke="#63b8ff" points="1113.61,-82.05 1103.96,-86.44 1114.24,-89.02 1113.61,-82.05"/>
</g>
<!-- Node15 -->
<g id="node15" class="node">
<title>Node15</title>
<g id="a_node15"><a xlink:href="tensor__view_8hpp.html" target="_top" xlink:title=" ">
<polygon fill="white" stroke="#666666" points="1684.5,-41 1574.5,-41 1574.5,0 1684.5,0 1684.5,-41"/>
<text text-anchor="start" x="1582.5" y="-29" font-family="Helvetica,sans-Serif" font-size="10.00">include/experimental</text>
<text text-anchor="start" x="1582.5" y="-18" font-family="Helvetica,sans-Serif" font-size="10.00">/linear_algebra/tensor</text>
<text text-anchor="middle" x="1629.5" y="-7" font-family="Helvetica,sans-Serif" font-size="10.00">_view.hpp</text>
</a>
</g>
</g>
<!-- Node2&#45;&gt;Node15 -->
<g id="edge27" class="edge">
<title>Node2&#45;&gt;Node15</title>
<path fill="none" stroke="#63b8ff" d="M1113.67,-88.63C1210.49,-84.25 1399.04,-72.29 1556.5,-41 1562.2,-39.87 1568.11,-38.43 1574,-36.86"/>
<polygon fill="#63b8ff" stroke="#63b8ff" points="1113.73,-85.17 1103.89,-89.1 1114.03,-92.16 1113.73,-85.17"/>
</g>
<!-- Node16 -->
<g id="node16" class="node">
<title>Node16</title>
<g id="a_node16"><a xlink:href="tensor__view__impl_8hpp.html" target="_top" xlink:title=" ">
<polygon fill="white" stroke="#666666" points="1812.5,-41 1702.5,-41 1702.5,0 1812.5,0 1812.5,-41"/>
<text text-anchor="start" x="1710.5" y="-29" font-family="Helvetica,sans-Serif" font-size="10.00">include/experimental</text>
<text text-anchor="start" x="1710.5" y="-18" font-family="Helvetica,sans-Serif" font-size="10.00">/linear_algebra/tensor</text>
<text text-anchor="middle" x="1757.5" y="-7" font-family="Helvetica,sans-Serif" font-size="10.00">_view_impl.hpp</text>
</a>
</g>
</g>
<!-- Node2&#45;&gt;Node16 -->
<g id="edge29" class="edge">
<title>Node2&#45;&gt;Node16</title>
<path fill="none" stroke="#63b8ff" d="M1113.39,-90.55C1228.58,-88.7 1477.94,-80 1684.5,-41 1690.21,-39.92 1696.13,-38.52 1702.02,-36.97"/>
<polygon fill="#63b8ff" stroke="#63b8ff" points="1113.62,-87.07 1103.67,-90.71 1113.72,-94.06 1113.62,-87.07"/>
</g>
<!-- Node17 -->
<g id="node17" class="node">
<title>Node17</title>
<g id="a_node17"><a xlink:href="vector__concepts_8hpp.html" target="_top" xlink:title=" ">
<polygon fill="white" stroke="#666666" points="1940.5,-41 1830.5,-41 1830.5,0 1940.5,0 1940.5,-41"/>
<text text-anchor="start" x="1838.5" y="-29" font-family="Helvetica,sans-Serif" font-size="10.00">include/experimental</text>
<text text-anchor="start" x="1838.5" y="-18" font-family="Helvetica,sans-Serif" font-size="10.00">/linear_algebra/vector</text>
<text text-anchor="middle" x="1885.5" y="-7" font-family="Helvetica,sans-Serif" font-size="10.00">_concepts.hpp</text>
</a>
</g>
</g>
<!-- Node2&#45;&gt;Node17 -->
<g id="edge31" class="edge">
<title>Node2&#45;&gt;Node17</title>
<path fill="none" stroke="#63b8ff" d="M1113.63,-91.84C1245.63,-92.33 1556.42,-87.65 1812.5,-41 1818.21,-39.96 1824.14,-38.58 1830.04,-37.04"/>
<polygon fill="#63b8ff" stroke="#63b8ff" points="1113.94,-88.34 1103.92,-91.79 1113.91,-95.34 1113.94,-88.34"/>
</g>
<!-- Node18 -->
<g id="node18" class="node">
<title>Node18</title>
<g id="a_node18"><a xlink:href="vector__view_8hpp.html" target="_top" xlink:title=" ">
<polygon fill="white" stroke="#666666" points="2068.5,-41 1958.5,-41 1958.5,0 2068.5,0 2068.5,-41"/>
<text text-anchor="start" x="1966.5" y="-29" font-family="Helvetica,sans-Serif" font-size="10.00">include/experimental</text>
<text text-anchor="start" x="1966.5" y="-18" font-family="Helvetica,sans-Serif" font-size="10.00">/linear_algebra/vector</text>
<text text-anchor="middle" x="2013.5" y="-7" font-family="Helvetica,sans-Serif" font-size="10.00">_view.hpp</text>
</a>
</g>
</g>
<!-- Node2&#45;&gt;Node18 -->
<g id="edge33" class="edge">
<title>Node2&#45;&gt;Node18</title>
<path fill="none" stroke="#63b8ff" d="M1113.87,-89.32C1290.73,-84.53 1780.98,-69.31 1940.5,-41 1946.22,-39.99 1952.14,-38.62 1958.05,-37.09"/>
<polygon fill="#63b8ff" stroke="#63b8ff" points="1113.84,-85.85 1103.93,-89.61 1114.02,-92.84 1113.84,-85.85"/>
</g>
<!-- Node3&#45;&gt;Node2 -->
<g id="edge3" class="edge">
<title>Node3&#45;&gt;Node2</title>
<path fill="none" stroke="#63b8ff" d="M136.18,-39.88C138.31,-40.29 140.42,-40.66 142.5,-41 309.13,-68.11 827.96,-84.61 996.28,-89.48"/>
<polygon fill="#63b8ff" stroke="#63b8ff" points="136.97,-36.26 126.46,-37.61 135.52,-43.1 136.97,-36.26"/>
</g>
<!-- Node4&#45;&gt;Node2 -->
<g id="edge5" class="edge">
<title>Node4&#45;&gt;Node2</title>
<path fill="none" stroke="#63b8ff" d="M272.9,-39.75C275.12,-40.2 277.33,-40.62 279.5,-41 545.89,-87.19 870.18,-91.75 996.08,-91.52"/>
<polygon fill="#63b8ff" stroke="#63b8ff" points="273.94,-36.17 263.41,-37.39 272.4,-43 273.94,-36.17"/>
</g>
<!-- Node5&#45;&gt;Node2 -->
<g id="edge7" class="edge">
<title>Node5&#45;&gt;Node2</title>
<path fill="none" stroke="#63b8ff" d="M409.91,-39.71C412.13,-40.18 414.33,-40.61 416.5,-41 629.11,-79.36 886.57,-88.3 996.14,-90.37"/>
<polygon fill="#63b8ff" stroke="#63b8ff" points="410.96,-36.13 400.43,-37.31 409.39,-42.95 410.96,-36.13"/>
</g>
<!-- Node6&#45;&gt;Node2 -->
<g id="edge9" class="edge">
<title>Node6&#45;&gt;Node2</title>
<path fill="none" stroke="#63b8ff" d="M546.97,-39.46C549.51,-40.01 552.02,-40.53 554.5,-41 713.68,-71.14 904.8,-83.8 996.08,-88.52"/>
<polygon fill="#63b8ff" stroke="#63b8ff" points="547.98,-35.87 537.45,-37 546.39,-42.68 547.98,-35.87"/>
</g>
<!-- Node7&#45;&gt;Node2 -->
<g id="edge11" class="edge">
<title>Node7&#45;&gt;Node2</title>
<path fill="none" stroke="#63b8ff" d="M671.42,-39.32C673.81,-39.92 676.17,-40.48 678.5,-41 790.41,-65.76 923.76,-79.84 996.29,-86.4"/>
<polygon fill="#63b8ff" stroke="#63b8ff" points="672.44,-35.71 661.88,-36.5 670.63,-42.47 672.44,-35.71"/>
</g>
<!-- Node8&#45;&gt;Node2 -->
<g id="edge13" class="edge">
<title>Node8&#45;&gt;Node2</title>
<path fill="none" stroke="#63b8ff" d="M795.46,-39.14C797.84,-39.79 800.19,-40.41 802.5,-41 868.77,-57.84 945.93,-72.21 996.23,-81.16"/>
<polygon fill="#63b8ff" stroke="#63b8ff" points="796.53,-35.52 785.96,-36.16 794.62,-42.26 796.53,-35.52"/>
</g>
<!-- Node9&#45;&gt;Node2 -->
<g id="edge15" class="edge">
<title>Node9&#45;&gt;Node2</title>
<path fill="none" stroke="#63b8ff" d="M918.87,-41.98C950.81,-53.1 988.25,-66.59 1014.9,-76.6"/>
<polygon fill="#63b8ff" stroke="#63b8ff" points="920.31,-38.43 909.72,-38.46 918.02,-45.04 920.31,-38.43"/>
</g>
<!-- Node10&#45;&gt;Node2 -->
<g id="edge17" class="edge">
<title>Node10&#45;&gt;Node2</title>
<path fill="none" stroke="#63b8ff" d="M1016.92,-49.09C1026.07,-58.5 1035.22,-68.65 1041.62,-76.6"/>
<polygon fill="#63b8ff" stroke="#63b8ff" points="1019.83,-47.04 1010.3,-42.42 1014.86,-51.98 1019.83,-47.04"/>
</g>
<!-- Node11&#45;&gt;Node2 -->
<g id="edge20" class="edge">
<title>Node11&#45;&gt;Node2</title>
<path fill="none" stroke="#63b8ff" d="M1095.67,-49.37C1087.13,-58.7 1077.26,-68.73 1068.77,-76.6"/>
<polygon fill="#63b8ff" stroke="#63b8ff" points="1097.71,-52.21 1101.76,-42.42 1092.49,-47.55 1097.71,-52.21"/>
</g>
<!-- Node12&#45;&gt;Node2 -->
<g id="edge22" class="edge">
<title>Node12&#45;&gt;Node2</title>
<path fill="none" stroke="#63b8ff" d="M1183.83,-45.18C1155.32,-55.62 1121.77,-67.53 1095.29,-76.6"/>
<polygon fill="#63b8ff" stroke="#63b8ff" points="1184.9,-48.15 1193.08,-41.42 1182.48,-41.58 1184.9,-48.15"/>
</g>
<!-- Node13&#45;&gt;Node2 -->
<g id="edge24" class="edge">
<title>Node13&#45;&gt;Node2</title>
<path fill="none" stroke="#63b8ff" d="M1305.69,-43.62C1234.84,-60.56 1154.18,-75.09 1102.51,-83.44"/>
<polygon fill="#63b8ff" stroke="#63b8ff" points="1306.18,-46.86 1315.07,-41.11 1304.53,-40.06 1306.18,-46.86"/>
</g>
<!-- Node14&#45;&gt;Node2 -->
<g id="edge26" class="edge">
<title>Node14&#45;&gt;Node2</title>
<path fill="none" stroke="#63b8ff" d="M1435.44,-43.33C1316.58,-67.93 1177.41,-81.57 1102.86,-87.45"/>
<polygon fill="#63b8ff" stroke="#63b8ff" points="1436.08,-46.56 1445.14,-41.08 1434.64,-39.72 1436.08,-46.56"/>
</g>
<!-- Node15&#45;&gt;Node2 -->
<g id="edge28" class="edge">
<title>Node15&#45;&gt;Node2</title>
<path fill="none" stroke="#63b8ff" d="M1563.26,-43.19C1395.57,-75.26 1196.33,-86.1 1102.8,-89.53"/>
<polygon fill="#63b8ff" stroke="#63b8ff" points="1563.86,-46.45 1573,-41.1 1562.52,-39.58 1563.86,-46.45"/>
</g>
<!-- Node16&#45;&gt;Node2 -->
<g id="edge30" class="edge">
<title>Node16&#45;&gt;Node2</title>
<path fill="none" stroke="#63b8ff" d="M1691.53,-43.04C1474.09,-82.69 1213.17,-89.69 1102.8,-90.83"/>
<polygon fill="#63b8ff" stroke="#63b8ff" points="1691.98,-46.33 1701.18,-41.06 1690.71,-39.44 1691.98,-46.33"/>
</g>
<!-- Node17&#45;&gt;Node2 -->
<g id="edge32" class="edge">
<title>Node17&#45;&gt;Node2</title>
<path fill="none" stroke="#63b8ff" d="M1819.4,-42.99C1551.62,-90.24 1228.22,-92.69 1102.73,-91.72"/>
<polygon fill="#63b8ff" stroke="#63b8ff" points="1819.88,-46.28 1829.1,-41.07 1818.64,-39.39 1819.88,-46.28"/>
</g>
<!-- Node18&#45;&gt;Node2 -->
<g id="edge34" class="edge">
<title>Node18&#45;&gt;Node2</title>
<path fill="none" stroke="#63b8ff" d="M1947.36,-42.87C1770.84,-71.01 1268.23,-85.74 1102.87,-89.81"/>
<polygon fill="#63b8ff" stroke="#63b8ff" points="1947.73,-46.19 1957.01,-41.09 1946.57,-39.29 1947.73,-46.19"/>
</g>
</g>
</svg>
