<?xml version="1.0" encoding="UTF-8" standalone="no"?>
<!DOCTYPE svg PUBLIC "-//W3C//DTD SVG 1.1//EN"
 "http://www.w3.org/Graphics/SVG/1.1/DTD/svg11.dtd">
<!-- Generated by graphviz version 8.0.1 (20230327.1645)
 -->
<!-- Title: include/experimental/linear_algebra.hpp Pages: 1 -->
<svg width="3507pt" height="159pt"
 viewBox="0.00 0.00 3507.00 159.00" xmlns="http://www.w3.org/2000/svg" xmlns:xlink="http://www.w3.org/1999/xlink">
<g id="graph0" class="graph" transform="scale(1 1) rotate(0) translate(4 155)">
<title>include/experimental/linear_algebra.hpp</title>
<!-- Node1 -->
<g id="node1" class="node">
<title>Node1</title>
<g id="a_node1"><a xlink:title=" ">
<polygon fill="#999999" stroke="#666666" points="1945,-151 1839,-151 1839,-121 1945,-121 1945,-151"/>
<text text-anchor="start" x="1847" y="-139" font-family="Helvetica,sans-Serif" font-size="10.00">include/experimental</text>
<text text-anchor="middle" x="1892" y="-128" font-family="Helvetica,sans-Serif" font-size="10.00">/linear_algebra.hpp</text>
</a>
</g>
</g>
<!-- Node2 -->
<g id="node2" class="node">
<title>Node2</title>
<g id="a_node2"><a xlink:title=" ">
<polygon fill="#e0e0e0" stroke="#999999" points="56,-79.5 0,-79.5 0,-60.5 56,-60.5 56,-79.5"/>
<text text-anchor="middle" x="28" y="-67.5" font-family="Helvetica,sans-Serif" font-size="10.00">algorithm</text>
</a>
</g>
</g>
<!-- Node1&#45;&gt;Node2 -->
<g id="edge1" class="edge">
<title>Node1&#45;&gt;Node2</title>
<path fill="none" stroke="#63b8ff" d="M1838.51,-134.6C1555.89,-132.34 242.65,-120 65,-85 62.79,-84.56 60.54,-84.01 58.29,-83.38"/>
<polygon fill="#63b8ff" stroke="#63b8ff" points="59.59,-79.79 49,-79.96 57.38,-86.43 59.59,-79.79"/>
</g>
<!-- Node3 -->
<g id="node3" class="node">
<title>Node3</title>
<g id="a_node3"><a xlink:title=" ">
<polygon fill="#e0e0e0" stroke="#999999" points="112,-79.5 74,-79.5 74,-60.5 112,-60.5 112,-79.5"/>
<text text-anchor="middle" x="93" y="-67.5" font-family="Helvetica,sans-Serif" font-size="10.00">array</text>
</a>
</g>
</g>
<!-- Node1&#45;&gt;Node3 -->
<g id="edge2" class="edge">
<title>Node1&#45;&gt;Node3</title>
<path fill="none" stroke="#63b8ff" d="M1838.72,-134.87C1561.58,-133.99 290.96,-127.66 121,-85 120.03,-84.76 119.06,-84.48 118.08,-84.17"/>
<polygon fill="#63b8ff" stroke="#63b8ff" points="119.52,-80.56 108.94,-79.96 116.84,-87.02 119.52,-80.56"/>
</g>
<!-- Node4 -->
<g id="node4" class="node">
<title>Node4</title>
<g id="a_node4"><a xlink:title=" ">
<polygon fill="#e0e0e0" stroke="#999999" points="186,-79.5 130,-79.5 130,-60.5 186,-60.5 186,-79.5"/>
<text text-anchor="middle" x="158" y="-67.5" font-family="Helvetica,sans-Serif" font-size="10.00">concepts</text>
</a>
</g>
</g>
<!-- Node1&#45;&gt;Node4 -->
<g id="edge3" class="edge">
<title>Node1&#45;&gt;Node4</title>
<path fill="none" stroke="#63b8ff" d="M1838.81,-134.48C1569.14,-131.71 359.26,-117.54 195,-85 192.79,-84.56 190.54,-84.01 188.29,-83.37"/>
<polygon fill="#63b8ff" stroke="#63b8ff" points="189.59,-79.78 179,-79.95 187.38,-86.42 189.59,-79.78"/>
</g>
<!-- Node5 -->
<g id="node5" class="node">
<title>Node5</title>
<g id="a_node5"><a xlink:title=" ">
<polygon fill="#e0e0e0" stroke="#999999" points="257.5,-79.5 204.5,-79.5 204.5,-60.5 257.5,-60.5 257.5,-79.5"/>
<text text-anchor="middle" x="231" y="-67.5" font-family="Helvetica,sans-Serif" font-size="10.00">complex</text>
</a>
</g>
</g>
<!-- Node1&#45;&gt;Node5 -->
<g id="edge4" class="edge">
<title>Node1&#45;&gt;Node5</title>
<path fill="none" stroke="#63b8ff" d="M1838.87,-134.47C1576.2,-131.68 422.64,-117.67 266,-85 264.07,-84.6 262.1,-84.09 260.14,-83.52"/>
<polygon fill="#63b8ff" stroke="#63b8ff" points="261.47,-79.93 250.88,-79.95 259.17,-86.54 261.47,-79.93"/>
</g>
<!-- Node6 -->
<g id="node6" class="node">
<title>Node6</title>
<g id="a_node6"><a xlink:title=" ">
<polygon fill="#e0e0e0" stroke="#999999" points="324.5,-79.5 275.5,-79.5 275.5,-60.5 324.5,-60.5 324.5,-79.5"/>
<text text-anchor="middle" x="300" y="-67.5" font-family="Helvetica,sans-Serif" font-size="10.00">cstddef</text>
</a>
</g>
</g>
<!-- Node1&#45;&gt;Node6 -->
<g id="edge5" class="edge">
<title>Node1&#45;&gt;Node6</title>
<path fill="none" stroke="#63b8ff" d="M1838.52,-134.45C1581.82,-131.66 482.34,-117.87 333,-85 331.24,-84.61 329.47,-84.14 327.69,-83.59"/>
<polygon fill="#63b8ff" stroke="#63b8ff" points="329.35,-80.11 318.76,-79.95 326.94,-86.68 329.35,-80.11"/>
</g>
<!-- Node7 -->
<g id="node7" class="node">
<title>Node7</title>
<g id="a_node7"><a xlink:title=" ">
<polygon fill="#e0e0e0" stroke="#999999" points="401.5,-79.5 342.5,-79.5 342.5,-60.5 401.5,-60.5 401.5,-79.5"/>
<text text-anchor="middle" x="372" y="-67.5" font-family="Helvetica,sans-Serif" font-size="10.00">execution</text>
</a>
</g>
</g>
<!-- Node1&#45;&gt;Node7 -->
<g id="edge6" class="edge">
<title>Node1&#45;&gt;Node7</title>
<path fill="none" stroke="#63b8ff" d="M1838.73,-134.21C1590.38,-130.38 552.19,-112.84 410,-85 407.65,-84.54 405.24,-83.95 402.85,-83.28"/>
<polygon fill="#63b8ff" stroke="#63b8ff" points="404.15,-79.7 393.56,-79.93 401.99,-86.36 404.15,-79.7"/>
</g>
<!-- Node8 -->
<g id="node8" class="node">
<title>Node8</title>
<g id="a_node8"><a xlink:title=" ">
<polygon fill="#e0e0e0" stroke="#999999" points="478.5,-79.5 419.5,-79.5 419.5,-60.5 478.5,-60.5 478.5,-79.5"/>
<text text-anchor="middle" x="449" y="-67.5" font-family="Helvetica,sans-Serif" font-size="10.00">exception</text>
</a>
</g>
</g>
<!-- Node1&#45;&gt;Node8 -->
<g id="edge7" class="edge">
<title>Node1&#45;&gt;Node8</title>
<path fill="none" stroke="#63b8ff" d="M1838.68,-135.35C1615.16,-136.49 752.98,-137.33 487,-85 484.65,-84.54 482.24,-83.95 479.85,-83.28"/>
<polygon fill="#63b8ff" stroke="#63b8ff" points="481.16,-79.69 470.56,-79.92 478.99,-86.35 481.16,-79.69"/>
</g>
<!-- Node9 -->
<g id="node9" class="node">
<title>Node9</title>
<g id="a_node9"><a xlink:title=" ">
<polygon fill="#e0e0e0" stroke="#999999" points="555.5,-79.5 496.5,-79.5 496.5,-60.5 555.5,-60.5 555.5,-79.5"/>
<text text-anchor="middle" x="526" y="-67.5" font-family="Helvetica,sans-Serif" font-size="10.00">functional</text>
</a>
</g>
</g>
<!-- Node1&#45;&gt;Node9 -->
<g id="edge8" class="edge">
<title>Node1&#45;&gt;Node9</title>
<path fill="none" stroke="#63b8ff" d="M1838.76,-135.17C1623.26,-135.5 815.25,-133.43 565,-85 562.5,-84.52 559.94,-83.9 557.39,-83.19"/>
<polygon fill="#63b8ff" stroke="#63b8ff" points="558.71,-79.62 548.12,-79.91 556.59,-86.29 558.71,-79.62"/>
</g>
<!-- Node10 -->
<g id="node10" class="node">
<title>Node10</title>
<g id="a_node10"><a xlink:title=" ">
<polygon fill="#e0e0e0" stroke="#999999" points="626,-79.5 574,-79.5 574,-60.5 626,-60.5 626,-79.5"/>
<text text-anchor="middle" x="600" y="-67.5" font-family="Helvetica,sans-Serif" font-size="10.00">memory</text>
</a>
</g>
</g>
<!-- Node1&#45;&gt;Node10 -->
<g id="edge9" class="edge">
<title>Node1&#45;&gt;Node10</title>
<path fill="none" stroke="#63b8ff" d="M1838.71,-135.28C1630.27,-136.02 870.09,-135.14 635,-85 633.07,-84.59 631.1,-84.08 629.14,-83.5"/>
<polygon fill="#63b8ff" stroke="#63b8ff" points="630.48,-79.91 619.89,-79.91 628.17,-86.52 630.48,-79.91"/>
</g>
<!-- Node11 -->
<g id="node11" class="node">
<title>Node11</title>
<g id="a_node11"><a xlink:title=" ">
<polygon fill="#e0e0e0" stroke="#999999" points="682,-79.5 644,-79.5 644,-60.5 682,-60.5 682,-79.5"/>
<text text-anchor="middle" x="663" y="-67.5" font-family="Helvetica,sans-Serif" font-size="10.00">span</text>
</a>
</g>
</g>
<!-- Node1&#45;&gt;Node11 -->
<g id="edge10" class="edge">
<title>Node1&#45;&gt;Node11</title>
<path fill="none" stroke="#63b8ff" d="M1838.54,-134.09C1620.26,-130.22 802.89,-113.88 691,-85 690.03,-84.75 689.06,-84.46 688.09,-84.15"/>
<polygon fill="#63b8ff" stroke="#63b8ff" points="689.52,-80.54 678.95,-79.92 686.83,-87 689.52,-80.54"/>
</g>
<!-- Node12 -->
<g id="node12" class="node">
<title>Node12</title>
<g id="a_node12"><a xlink:title=" ">
<polygon fill="#e0e0e0" stroke="#999999" points="759.5,-79.5 700.5,-79.5 700.5,-60.5 759.5,-60.5 759.5,-79.5"/>
<text text-anchor="middle" x="730" y="-67.5" font-family="Helvetica,sans-Serif" font-size="10.00">stdexcept</text>
</a>
</g>
</g>
<!-- Node1&#45;&gt;Node12 -->
<g id="edge11" class="edge">
<title>Node1&#45;&gt;Node12</title>
<path fill="none" stroke="#63b8ff" d="M1838.58,-134.74C1644.55,-133.46 977.59,-126.11 769,-85 766.5,-84.51 763.94,-83.88 761.39,-83.17"/>
<polygon fill="#63b8ff" stroke="#63b8ff" points="762.72,-79.6 752.13,-79.88 760.59,-86.27 762.72,-79.6"/>
</g>
<!-- Node13 -->
<g id="node13" class="node">
<title>Node13</title>
<g id="a_node13"><a xlink:title=" ">
<polygon fill="#e0e0e0" stroke="#999999" points="816,-79.5 778,-79.5 778,-60.5 816,-60.5 816,-79.5"/>
<text text-anchor="middle" x="797" y="-67.5" font-family="Helvetica,sans-Serif" font-size="10.00">tuple</text>
</a>
</g>
</g>
<!-- Node1&#45;&gt;Node13 -->
<g id="edge12" class="edge">
<title>Node1&#45;&gt;Node13</title>
<path fill="none" stroke="#63b8ff" d="M1838.52,-134.97C1651.12,-134.48 1025.03,-129.46 830,-85 828.25,-84.6 826.47,-84.11 824.7,-83.56"/>
<polygon fill="#63b8ff" stroke="#63b8ff" points="826.36,-80.08 815.77,-79.89 823.94,-86.64 826.36,-80.08"/>
</g>
<!-- Node14 -->
<g id="node14" class="node">
<title>Node14</title>
<g id="a_node14"><a xlink:title=" ">
<polygon fill="#e0e0e0" stroke="#999999" points="1052,-19 990,-19 990,0 1052,0 1052,-19"/>
<text text-anchor="middle" x="1021" y="-7" font-family="Helvetica,sans-Serif" font-size="10.00">type_traits</text>
</a>
</g>
</g>
<!-- Node1&#45;&gt;Node14 -->
<g id="edge13" class="edge">
<title>Node1&#45;&gt;Node14</title>
<path fill="none" stroke="#63b8ff" d="M1838.8,-133.8C1655.31,-129.4 1058.42,-113.01 1029,-85 1014.46,-71.15 1014.54,-46.91 1016.91,-29.85"/>
<polygon fill="#63b8ff" stroke="#63b8ff" points="1020.46,-30.86 1018.75,-20.4 1013.56,-29.64 1020.46,-30.86"/>
</g>
<!-- Node15 -->
<g id="node15" class="node">
<title>Node15</title>
<g id="a_node15"><a xlink:title=" ">
<polygon fill="#e0e0e0" stroke="#999999" points="941,-19 831,-19 831,0 941,0 941,-19"/>
<text text-anchor="middle" x="886" y="-7" font-family="Helvetica,sans-Serif" font-size="10.00">experimental/mdspan</text>
</a>
</g>
</g>
<!-- Node1&#45;&gt;Node15 -->
<g id="edge14" class="edge">
<title>Node1&#45;&gt;Node15</title>
<path fill="none" stroke="#63b8ff" d="M1838.69,-134.42C1632.48,-131.94 896.92,-120.61 863,-85 848.17,-69.43 860.6,-44.51 872.16,-27.82"/>
<polygon fill="#63b8ff" stroke="#63b8ff" points="875.5,-30.2 878.66,-20.09 869.89,-26.02 875.5,-30.2"/>
</g>
<!-- Node16 -->
<g id="node16" class="node">
<title>Node16</title>
<g id="a_node16"><a xlink:href="mdspan__improvements_8hpp.html" target="_top" xlink:title=" ">
<polygon fill="white" stroke="#666666" points="982,-85 872,-85 872,-55 982,-55 982,-85"/>
<text text-anchor="start" x="880" y="-73" font-family="Helvetica,sans-Serif" font-size="10.00">experimental/mdspan</text>
<text text-anchor="middle" x="927" y="-62" font-family="Helvetica,sans-Serif" font-size="10.00">_improvements.hpp</text>
</a>
</g>
</g>
<!-- Node1&#45;&gt;Node16 -->
<g id="edge15" class="edge">
<title>Node1&#45;&gt;Node16</title>
<path fill="none" stroke="#63b8ff" d="M1838.73,-134.71C1699.59,-133.36 1313.93,-125.91 996,-85 995.02,-84.87 994.03,-84.74 993.04,-84.6"/>
<polygon fill="#63b8ff" stroke="#63b8ff" points="993.66,-81 983.24,-82.94 992.59,-87.92 993.66,-81"/>
</g>
<!-- Node17 -->
<g id="node17" class="node">
<title>Node17</title>
<g id="a_node17"><a xlink:href="config_8hpp.html" target="_top" xlink:title=" ">
<polygon fill="white" stroke="#666666" points="1163.5,-79.5 1038.5,-79.5 1038.5,-60.5 1163.5,-60.5 1163.5,-79.5"/>
<text text-anchor="middle" x="1101" y="-67.5" font-family="Helvetica,sans-Serif" font-size="10.00">linear_algebra/config.hpp</text>
</a>
</g>
</g>
<!-- Node1&#45;&gt;Node17 -->
<g id="edge17" class="edge">
<title>Node1&#45;&gt;Node17</title>
<path fill="none" stroke="#63b8ff" d="M1838.56,-133.52C1718.9,-129.73 1420.5,-117.54 1173,-85 1166.45,-84.14 1159.61,-83.05 1152.85,-81.87"/>
<polygon fill="#63b8ff" stroke="#63b8ff" points="1153.83,-78.31 1143.36,-79.94 1152.56,-85.19 1153.83,-78.31"/>
</g>
<!-- Node19 -->
<g id="node19" class="node">
<title>Node19</title>
<g id="a_node19"><a xlink:href="macros_8hpp.html" target="_top" xlink:title=" ">
<polygon fill="white" stroke="#666666" points="1312.5,-79.5 1181.5,-79.5 1181.5,-60.5 1312.5,-60.5 1312.5,-79.5"/>
<text text-anchor="middle" x="1247" y="-67.5" font-family="Helvetica,sans-Serif" font-size="10.00">linear_algebra/macros.hpp</text>
</a>
</g>
</g>
<!-- Node1&#45;&gt;Node19 -->
<g id="edge20" class="edge">
<title>Node1&#45;&gt;Node19</title>
<path fill="none" stroke="#63b8ff" d="M1838.76,-132.06C1737.7,-126.1 1511.21,-110.9 1322,-85 1315.37,-84.09 1308.43,-83 1301.57,-81.82"/>
<polygon fill="#63b8ff" stroke="#63b8ff" points="1302.36,-78.23 1291.9,-79.93 1301.14,-85.13 1302.36,-78.23"/>
</g>
<!-- Node20 -->
<g id="node20" class="node">
<title>Node20</title>
<g id="a_node20"><a xlink:href="private__support_8hpp.html" target="_top" xlink:title=" ">
<polygon fill="white" stroke="#666666" points="1439.5,-85 1330.5,-85 1330.5,-55 1439.5,-55 1439.5,-85"/>
<text text-anchor="start" x="1338.5" y="-73" font-family="Helvetica,sans-Serif" font-size="10.00">linear_algebra/private</text>
<text text-anchor="middle" x="1385" y="-62" font-family="Helvetica,sans-Serif" font-size="10.00">_support.hpp</text>
</a>
</g>
</g>
<!-- Node1&#45;&gt;Node20 -->
<g id="edge21" class="edge">
<title>Node1&#45;&gt;Node20</title>
<path fill="none" stroke="#63b8ff" d="M1838.77,-131.23C1755.96,-124.62 1591.6,-109.44 1450.93,-86.78"/>
<polygon fill="#63b8ff" stroke="#63b8ff" points="1451.85,-83.22 1441.42,-85.07 1450.73,-90.13 1451.85,-83.22"/>
</g>
<!-- Node21 -->
<g id="node21" class="node">
<title>Node21</title>
<g id="a_node21"><a xlink:href="forward__declarations_8hpp.html" target="_top" xlink:title=" ">
<polygon fill="white" stroke="#666666" points="1570,-85 1458,-85 1458,-55 1570,-55 1570,-85"/>
<text text-anchor="start" x="1466" y="-73" font-family="Helvetica,sans-Serif" font-size="10.00">linear_algebra/forward</text>
<text text-anchor="middle" x="1514" y="-62" font-family="Helvetica,sans-Serif" font-size="10.00">_declarations.hpp</text>
</a>
</g>
</g>
<!-- Node1&#45;&gt;Node21 -->
<g id="edge23" class="edge">
<title>Node1&#45;&gt;Node21</title>
<path fill="none" stroke="#63b8ff" d="M1838.63,-128.19C1776.99,-119.52 1672.68,-103.65 1580.86,-86.82"/>
<polygon fill="#63b8ff" stroke="#63b8ff" points="1581.78,-83.24 1571.31,-84.87 1580.51,-90.13 1581.78,-83.24"/>
</g>
<!-- Node22 -->
<g id="node22" class="node">
<title>Node22</title>
<g id="a_node22"><a xlink:href="tensor__concepts_8hpp.html" target="_top" xlink:title=" ">
<polygon fill="white" stroke="#666666" points="1695.5,-85 1588.5,-85 1588.5,-55 1695.5,-55 1695.5,-85"/>
<text text-anchor="start" x="1596.5" y="-73" font-family="Helvetica,sans-Serif" font-size="10.00">linear_algebra/tensor</text>
<text text-anchor="middle" x="1642" y="-62" font-family="Helvetica,sans-Serif" font-size="10.00">_concepts.hpp</text>
</a>
</g>
</g>
<!-- Node1&#45;&gt;Node22 -->
<g id="edge25" class="edge">
<title>Node1&#45;&gt;Node22</title>
<path fill="none" stroke="#63b8ff" d="M1838.65,-122.74C1798.93,-112.95 1744.74,-99.13 1703.26,-88.24"/>
<polygon fill="#63b8ff" stroke="#63b8ff" points="1704.3,-84.63 1693.74,-85.46 1702.52,-91.4 1704.3,-84.63"/>
</g>
<!-- Node23 -->
<g id="node23" class="node">
<title>Node23</title>
<g id="a_node23"><a xlink:href="vector__concepts_8hpp.html" target="_top" xlink:title=" ">
<polygon fill="white" stroke="#666666" points="1820.5,-85 1713.5,-85 1713.5,-55 1820.5,-55 1820.5,-85"/>
<text text-anchor="start" x="1721.5" y="-73" font-family="Helvetica,sans-Serif" font-size="10.00">linear_algebra/vector</text>
<text text-anchor="middle" x="1767" y="-62" font-family="Helvetica,sans-Serif" font-size="10.00">_concepts.hpp</text>
</a>
</g>
</g>
<!-- Node1&#45;&gt;Node23 -->
<g id="edge27" class="edge">
<title>Node1&#45;&gt;Node23</title>
<path fill="none" stroke="#63b8ff" d="M1858.21,-120.64C1839.7,-111.74 1816.99,-100.21 1798.81,-90.49"/>
<polygon fill="#63b8ff" stroke="#63b8ff" points="1800.69,-86.99 1790.22,-85.31 1797.36,-93.15 1800.69,-86.99"/>
</g>
<!-- Node24 -->
<g id="node24" class="node">
<title>Node24</title>
<g id="a_node24"><a xlink:href="matrix__concepts_8hpp.html" target="_top" xlink:title=" ">
<polygon fill="white" stroke="#666666" points="1945.5,-85 1838.5,-85 1838.5,-55 1945.5,-55 1945.5,-85"/>
<text text-anchor="start" x="1846.5" y="-73" font-family="Helvetica,sans-Serif" font-size="10.00">linear_algebra/matrix</text>
<text text-anchor="middle" x="1892" y="-62" font-family="Helvetica,sans-Serif" font-size="10.00">_concepts.hpp</text>
</a>
</g>
</g>
<!-- Node1&#45;&gt;Node24 -->
<g id="edge29" class="edge">
<title>Node1&#45;&gt;Node24</title>
<path fill="none" stroke="#63b8ff" d="M1886.28,-120.8C1885.33,-113.5 1885.04,-104.41 1885.4,-95.99"/>
<polygon fill="#63b8ff" stroke="#63b8ff" points="1888.95,-96.42 1886.29,-86.16 1881.98,-95.84 1888.95,-96.42"/>
</g>
<!-- Node25 -->
<g id="node25" class="node">
<title>Node25</title>
<g id="a_node25"><a xlink:href="tensor__view_8hpp.html" target="_top" xlink:title=" ">
<polygon fill="white" stroke="#666666" points="2070.5,-85 1963.5,-85 1963.5,-55 2070.5,-55 2070.5,-85"/>
<text text-anchor="start" x="1971.5" y="-73" font-family="Helvetica,sans-Serif" font-size="10.00">linear_algebra/tensor</text>
<text text-anchor="middle" x="2017" y="-62" font-family="Helvetica,sans-Serif" font-size="10.00">_view.hpp</text>
</a>
</g>
</g>
<!-- Node1&#45;&gt;Node25 -->
<g id="edge31" class="edge">
<title>Node1&#45;&gt;Node25</title>
<path fill="none" stroke="#63b8ff" d="M1914.31,-120.64C1930.77,-111.62 1953.52,-99.89 1973.48,-90.09"/>
<polygon fill="#63b8ff" stroke="#63b8ff" points="1974.84,-92.83 1982.31,-85.31 1971.78,-86.54 1974.84,-92.83"/>
</g>
<!-- Node26 -->
<g id="node26" class="node">
<title>Node26</title>
<g id="a_node26"><a xlink:href="vector__view_8hpp.html" target="_top" xlink:title=" ">
<polygon fill="white" stroke="#666666" points="2195.5,-85 2088.5,-85 2088.5,-55 2195.5,-55 2195.5,-85"/>
<text text-anchor="start" x="2096.5" y="-73" font-family="Helvetica,sans-Serif" font-size="10.00">linear_algebra/vector</text>
<text text-anchor="middle" x="2142" y="-62" font-family="Helvetica,sans-Serif" font-size="10.00">_view.hpp</text>
</a>
</g>
</g>
<!-- Node1&#45;&gt;Node26 -->
<g id="edge33" class="edge">
<title>Node1&#45;&gt;Node26</title>
<path fill="none" stroke="#63b8ff" d="M1942.67,-120.56C1981.71,-110.23 2035.87,-96.36 2077.92,-85.92"/>
<polygon fill="#63b8ff" stroke="#63b8ff" points="2078.46,-89.14 2087.33,-83.34 2076.78,-82.35 2078.46,-89.14"/>
</g>
<!-- Node27 -->
<g id="node27" class="node">
<title>Node27</title>
<g id="a_node27"><a xlink:href="matrix__view_8hpp.html" target="_top" xlink:title=" ">
<polygon fill="white" stroke="#666666" points="2320.5,-85 2213.5,-85 2213.5,-55 2320.5,-55 2320.5,-85"/>
<text text-anchor="start" x="2221.5" y="-73" font-family="Helvetica,sans-Serif" font-size="10.00">linear_algebra/matrix</text>
<text text-anchor="middle" x="2267" y="-62" font-family="Helvetica,sans-Serif" font-size="10.00">_view.hpp</text>
</a>
</g>
</g>
<!-- Node1&#45;&gt;Node27 -->
<g id="edge35" class="edge">
<title>Node1&#45;&gt;Node27</title>
<path fill="none" stroke="#63b8ff" d="M1945.48,-126.55C2006.37,-117.4 2108.46,-101.86 2196,-85 2198.16,-84.58 2200.36,-84.15 2202.58,-83.7"/>
<polygon fill="#63b8ff" stroke="#63b8ff" points="2203.03,-86.97 2212.1,-81.51 2201.6,-80.12 2203.03,-86.97"/>
</g>
<!-- Node28 -->
<g id="node28" class="node">
<title>Node28</title>
<g id="a_node28"><a xlink:href="tensor__view__impl_8hpp.html" target="_top" xlink:title=" ">
<polygon fill="white" stroke="#666666" points="2445.5,-85 2338.5,-85 2338.5,-55 2445.5,-55 2445.5,-85"/>
<text text-anchor="start" x="2346.5" y="-73" font-family="Helvetica,sans-Serif" font-size="10.00">linear_algebra/tensor</text>
<text text-anchor="middle" x="2392" y="-62" font-family="Helvetica,sans-Serif" font-size="10.00">_view_impl.hpp</text>
</a>
</g>
</g>
<!-- Node1&#45;&gt;Node28 -->
<g id="edge37" class="edge">
<title>Node1&#45;&gt;Node28</title>
<path fill="none" stroke="#63b8ff" d="M1945.48,-130.27C2026.95,-123.09 2186.49,-107.79 2321,-85 2323.17,-84.63 2325.37,-84.24 2327.6,-83.82"/>
<polygon fill="#63b8ff" stroke="#63b8ff" points="2328.01,-87.11 2337.15,-81.75 2326.66,-80.24 2328.01,-87.11"/>
</g>
<!-- Node29 -->
<g id="node29" class="node">
<title>Node29</title>
<g id="a_node29"><a xlink:href="fixed__size__tensor_8hpp.html" target="_top" xlink:title=" ">
<polygon fill="white" stroke="#666666" points="2564.5,-85 2463.5,-85 2463.5,-55 2564.5,-55 2564.5,-85"/>
<text text-anchor="start" x="2471.5" y="-73" font-family="Helvetica,sans-Serif" font-size="10.00">linear_algebra/fixed</text>
<text text-anchor="middle" x="2514" y="-62" font-family="Helvetica,sans-Serif" font-size="10.00">_size_tensor.hpp</text>
</a>
</g>
</g>
<!-- Node1&#45;&gt;Node29 -->
<g id="edge39" class="edge">
<title>Node1&#45;&gt;Node29</title>
<path fill="none" stroke="#63b8ff" d="M1945.29,-132.58C2044.47,-127.72 2263.41,-114.61 2446,-85 2448.07,-84.67 2450.17,-84.3 2452.29,-83.91"/>
<polygon fill="#63b8ff" stroke="#63b8ff" points="2452.89,-87.15 2462.01,-81.76 2451.52,-80.29 2452.89,-87.15"/>
</g>
<!-- Node30 -->
<g id="node30" class="node">
<title>Node30</title>
<g id="a_node30"><a xlink:href="dynamic__tensor_8hpp.html" target="_top" xlink:title=" ">
<polygon fill="white" stroke="#666666" points="2699,-85 2583,-85 2583,-55 2699,-55 2699,-85"/>
<text text-anchor="start" x="2591" y="-73" font-family="Helvetica,sans-Serif" font-size="10.00">linear_algebra/dynamic</text>
<text text-anchor="middle" x="2641" y="-62" font-family="Helvetica,sans-Serif" font-size="10.00">_tensor.hpp</text>
</a>
</g>
</g>
<!-- Node1&#45;&gt;Node30 -->
<g id="edge41" class="edge">
<title>Node1&#45;&gt;Node30</title>
<path fill="none" stroke="#63b8ff" d="M1945.2,-133.34C2059.33,-129.39 2335.45,-117.25 2565,-85 2567.34,-84.67 2569.73,-84.31 2572.13,-83.92"/>
<polygon fill="#63b8ff" stroke="#63b8ff" points="2572.54,-87.23 2581.8,-82.07 2571.35,-80.33 2572.54,-87.23"/>
</g>
<!-- Node31 -->
<g id="node31" class="node">
<title>Node31</title>
<g id="a_node31"><a xlink:href="fixed__size__matrix_8hpp.html" target="_top" xlink:title=" ">
<polygon fill="white" stroke="#666666" points="2818.5,-85 2717.5,-85 2717.5,-55 2818.5,-55 2818.5,-85"/>
<text text-anchor="start" x="2725.5" y="-73" font-family="Helvetica,sans-Serif" font-size="10.00">linear_algebra/fixed</text>
<text text-anchor="middle" x="2768" y="-62" font-family="Helvetica,sans-Serif" font-size="10.00">_size_matrix.hpp</text>
</a>
</g>
</g>
<!-- Node1&#45;&gt;Node31 -->
<g id="edge43" class="edge">
<title>Node1&#45;&gt;Node31</title>
<path fill="none" stroke="#63b8ff" d="M1945.08,-134.78C2074.67,-133.56 2416.72,-126.28 2699,-85 2701.5,-84.63 2704.05,-84.22 2706.63,-83.76"/>
<polygon fill="#63b8ff" stroke="#63b8ff" points="2707.15,-87.03 2716.3,-81.7 2705.82,-80.16 2707.15,-87.03"/>
</g>
<!-- Node32 -->
<g id="node32" class="node">
<title>Node32</title>
<g id="a_node32"><a xlink:href="dynamic__matrix_8hpp.html" target="_top" xlink:title=" ">
<polygon fill="white" stroke="#666666" points="2953,-85 2837,-85 2837,-55 2953,-55 2953,-85"/>
<text text-anchor="start" x="2845" y="-73" font-family="Helvetica,sans-Serif" font-size="10.00">linear_algebra/dynamic</text>
<text text-anchor="middle" x="2895" y="-62" font-family="Helvetica,sans-Serif" font-size="10.00">_matrix.hpp</text>
</a>
</g>
</g>
<!-- Node1&#45;&gt;Node32 -->
<g id="edge45" class="edge">
<title>Node1&#45;&gt;Node32</title>
<path fill="none" stroke="#63b8ff" d="M1945.4,-134.97C2087.97,-134.24 2488.6,-128.09 2819,-85 2821.35,-84.69 2823.73,-84.35 2826.14,-83.98"/>
<polygon fill="#63b8ff" stroke="#63b8ff" points="2826.53,-87.29 2835.81,-82.18 2825.37,-80.39 2826.53,-87.29"/>
</g>
<!-- Node33 -->
<g id="node33" class="node">
<title>Node33</title>
<g id="a_node33"><a xlink:href="fixed__size__vector_8hpp.html" target="_top" xlink:title=" ">
<polygon fill="white" stroke="#666666" points="3072.5,-85 2971.5,-85 2971.5,-55 3072.5,-55 3072.5,-85"/>
<text text-anchor="start" x="2979.5" y="-73" font-family="Helvetica,sans-Serif" font-size="10.00">linear_algebra/fixed</text>
<text text-anchor="middle" x="3022" y="-62" font-family="Helvetica,sans-Serif" font-size="10.00">_size_vector.hpp</text>
</a>
</g>
</g>
<!-- Node1&#45;&gt;Node33 -->
<g id="edge47" class="edge">
<title>Node1&#45;&gt;Node33</title>
<path fill="none" stroke="#63b8ff" d="M1945.33,-133.71C2131.98,-129.15 2754.52,-112.56 2953,-85 2955.5,-84.65 2958.06,-84.25 2960.63,-83.81"/>
<polygon fill="#63b8ff" stroke="#63b8ff" points="2961.14,-87.08 2970.32,-81.77 2959.84,-80.2 2961.14,-87.08"/>
</g>
<!-- Node34 -->
<g id="node34" class="node">
<title>Node34</title>
<g id="a_node34"><a xlink:href="dynamic__vector_8hpp.html" target="_top" xlink:title=" ">
<polygon fill="white" stroke="#666666" points="3207,-85 3091,-85 3091,-55 3207,-55 3207,-85"/>
<text text-anchor="start" x="3099" y="-73" font-family="Helvetica,sans-Serif" font-size="10.00">linear_algebra/dynamic</text>
<text text-anchor="middle" x="3149" y="-62" font-family="Helvetica,sans-Serif" font-size="10.00">_vector.hpp</text>
</a>
</g>
</g>
<!-- Node1&#45;&gt;Node34 -->
<g id="edge49" class="edge">
<title>Node1&#45;&gt;Node34</title>
<path fill="none" stroke="#63b8ff" d="M1945.34,-133.85C2145.28,-129.5 2849.6,-112.84 3073,-85 3075.35,-84.71 3077.73,-84.38 3080.15,-84.01"/>
<polygon fill="#63b8ff" stroke="#63b8ff" points="3080.53,-87.33 3089.82,-82.25 3079.38,-80.43 3080.53,-87.33"/>
</g>
<!-- Node35 -->
<g id="node35" class="node">
<title>Node35</title>
<g id="a_node35"><a xlink:href="instant__evaluated__operations_8hpp.html" target="_top" xlink:title=" ">
<polygon fill="white" stroke="#666666" points="3358.5,-85 3225.5,-85 3225.5,-55 3358.5,-55 3358.5,-85"/>
<text text-anchor="start" x="3233.5" y="-73" font-family="Helvetica,sans-Serif" font-size="10.00">linear_algebra/instant</text>
<text text-anchor="middle" x="3292" y="-62" font-family="Helvetica,sans-Serif" font-size="10.00">_evaluated_operations.hpp</text>
</a>
</g>
</g>
<!-- Node1&#45;&gt;Node35 -->
<g id="edge51" class="edge">
<title>Node1&#45;&gt;Node35</title>
<path fill="none" stroke="#63b8ff" d="M1945.34,-133.95C2159.36,-129.72 2955.64,-112.75 3207,-85 3209.38,-84.74 3211.81,-84.44 3214.25,-84.12"/>
<polygon fill="#63b8ff" stroke="#63b8ff" points="3214.68,-87.45 3224.08,-82.57 3213.69,-80.52 3214.68,-87.45"/>
</g>
<!-- Node36 -->
<g id="node36" class="node">
<title>Node36</title>
<g id="a_node36"><a xlink:href="arithmetic__operators_8hpp.html" target="_top" xlink:title=" ">
<polygon fill="white" stroke="#666666" points="3499,-85 3377,-85 3377,-55 3499,-55 3499,-85"/>
<text text-anchor="start" x="3385" y="-73" font-family="Helvetica,sans-Serif" font-size="10.00">linear_algebra/arithmetic</text>
<text text-anchor="middle" x="3438" y="-62" font-family="Helvetica,sans-Serif" font-size="10.00">_operators.hpp</text>
</a>
</g>
</g>
<!-- Node1&#45;&gt;Node36 -->
<g id="edge53" class="edge">
<title>Node1&#45;&gt;Node36</title>
<path fill="none" stroke="#63b8ff" d="M1945.49,-134.32C2174.95,-131.31 3076.46,-117.82 3359,-85 3361.35,-84.73 3363.74,-84.42 3366.15,-84.08"/>
<polygon fill="#63b8ff" stroke="#63b8ff" points="3366.49,-87.41 3375.84,-82.41 3365.42,-80.49 3366.49,-87.41"/>
</g>
<!-- Node16&#45;&gt;Node15 -->
<g id="edge16" class="edge">
<title>Node16&#45;&gt;Node15</title>
<path fill="none" stroke="#63b8ff" d="M916.87,-54.54C911.27,-46.56 904.29,-36.59 898.38,-28.16"/>
<polygon fill="#63b8ff" stroke="#63b8ff" points="900.69,-26.36 892.08,-20.18 894.95,-30.37 900.69,-26.36"/>
</g>
<!-- Node17&#45;&gt;Node14 -->
<g id="edge18" class="edge">
<title>Node17&#45;&gt;Node14</title>
<path fill="none" stroke="#63b8ff" d="M1088.85,-60.12C1076.4,-51.01 1056.8,-36.68 1041.86,-25.75"/>
<polygon fill="#63b8ff" stroke="#63b8ff" points="1044.4,-22.55 1034.26,-19.47 1040.27,-28.2 1044.4,-22.55"/>
</g>
<!-- Node18 -->
<g id="node18" class="node">
<title>Node18</title>
<g id="a_node18"><a xlink:title=" ">
<polygon fill="#e0e0e0" stroke="#999999" points="1121,-19 1081,-19 1081,0 1121,0 1121,-19"/>
<text text-anchor="middle" x="1101" y="-7" font-family="Helvetica,sans-Serif" font-size="10.00">utility</text>
</a>
</g>
</g>
<!-- Node17&#45;&gt;Node18 -->
<g id="edge19" class="edge">
<title>Node17&#45;&gt;Node18</title>
<path fill="none" stroke="#63b8ff" d="M1101,-60.37C1101,-52.42 1101,-40.33 1101,-30.05"/>
<polygon fill="#63b8ff" stroke="#63b8ff" points="1104.5,-30.17 1101,-20.17 1097.5,-30.17 1104.5,-30.17"/>
</g>
<!-- Node20&#45;&gt;Node1 -->
<g id="edge22" class="edge">
<title>Node20&#45;&gt;Node1</title>
<path fill="none" stroke="#63b8ff" d="M1439.96,-81.66C1446.06,-82.88 1452.16,-84.04 1458,-85 1588.76,-106.62 1742.81,-121.69 1827.78,-129.3"/>
<polygon fill="#63b8ff" stroke="#63b8ff" points="1827.28,-132.86 1837.55,-130.25 1827.9,-125.88 1827.28,-132.86"/>
</g>
<!-- Node21&#45;&gt;Node1 -->
<g id="edge24" class="edge">
<title>Node21&#45;&gt;Node1</title>
<path fill="none" stroke="#63b8ff" d="M1570.45,-81.38C1576.73,-82.65 1583.01,-83.89 1589,-85 1671.42,-100.34 1766.62,-115.18 1828.06,-124.65"/>
<polygon fill="#63b8ff" stroke="#63b8ff" points="1827.34,-128.24 1837.75,-126.3 1828.4,-121.32 1827.34,-128.24"/>
</g>
<!-- Node22&#45;&gt;Node1 -->
<g id="edge26" class="edge">
<title>Node22&#45;&gt;Node1</title>
<path fill="none" stroke="#63b8ff" d="M1695.67,-83.34C1735.39,-93.13 1789.46,-106.92 1830.83,-117.79"/>
<polygon fill="#63b8ff" stroke="#63b8ff" points="1829.77,-121.39 1840.33,-120.56 1831.56,-114.62 1829.77,-121.39"/>
</g>
<!-- Node23&#45;&gt;Node1 -->
<g id="edge28" class="edge">
<title>Node23&#45;&gt;Node1</title>
<path fill="none" stroke="#63b8ff" d="M1800.69,-85.31C1819.19,-94.2 1841.89,-105.73 1860.1,-115.45"/>
<polygon fill="#63b8ff" stroke="#63b8ff" points="1858.23,-118.96 1868.69,-120.64 1861.55,-112.8 1858.23,-118.96"/>
</g>
<!-- Node24&#45;&gt;Node1 -->
<g id="edge30" class="edge">
<title>Node24&#45;&gt;Node1</title>
<path fill="none" stroke="#63b8ff" d="M1897.71,-85.16C1898.66,-92.45 1898.96,-101.55 1898.61,-109.97"/>
<polygon fill="#63b8ff" stroke="#63b8ff" points="1895.05,-109.54 1897.72,-119.8 1902.02,-110.11 1895.05,-109.54"/>
</g>
<!-- Node25&#45;&gt;Node1 -->
<g id="edge32" class="edge">
<title>Node25&#45;&gt;Node1</title>
<path fill="none" stroke="#63b8ff" d="M1994.78,-85.31C1978.34,-94.32 1955.59,-106.05 1935.63,-115.86"/>
<polygon fill="#63b8ff" stroke="#63b8ff" points="1934.26,-113.12 1926.79,-120.64 1937.32,-119.41 1934.26,-113.12"/>
</g>
<!-- Node26&#45;&gt;Node1 -->
<g id="edge34" class="edge">
<title>Node26&#45;&gt;Node1</title>
<path fill="none" stroke="#63b8ff" d="M2091.26,-85.46C2052.12,-95.82 1997.83,-109.72 1955.77,-120.16"/>
<polygon fill="#63b8ff" stroke="#63b8ff" points="1955.22,-116.94 1946.35,-122.74 1956.9,-123.73 1955.22,-116.94"/>
</g>
<!-- Node27&#45;&gt;Node1 -->
<g id="edge36" class="edge">
<title>Node27&#45;&gt;Node1</title>
<path fill="none" stroke="#63b8ff" d="M2213.17,-85.16C2124.41,-102.23 2020.87,-117.93 1955.78,-126.98"/>
<polygon fill="#63b8ff" stroke="#63b8ff" points="1955.71,-123.6 1946.28,-128.43 1956.66,-130.53 1955.71,-123.6"/>
</g>
<!-- Node28&#45;&gt;Node1 -->
<g id="edge38" class="edge">
<title>Node28&#45;&gt;Node1</title>
<path fill="none" stroke="#63b8ff" d="M2338.17,-85.14C2203.19,-107.97 2043.24,-123.25 1956.15,-130.38"/>
<polygon fill="#63b8ff" stroke="#63b8ff" points="1956.07,-126.95 1946.38,-131.25 1956.63,-133.93 1956.07,-126.95"/>
</g>
<!-- Node29&#45;&gt;Node1 -->
<g id="edge40" class="edge">
<title>Node29&#45;&gt;Node1</title>
<path fill="none" stroke="#63b8ff" d="M2463.17,-85.13C2280.67,-114.66 2062.11,-127.74 1955.96,-132.59"/>
<polygon fill="#63b8ff" stroke="#63b8ff" points="1955.96,-129.13 1946.12,-133.07 1956.27,-136.12 1955.96,-129.13"/>
</g>
<!-- Node30&#45;&gt;Node1 -->
<g id="edge42" class="edge">
<title>Node30&#45;&gt;Node1</title>
<path fill="none" stroke="#63b8ff" d="M2582.65,-85.05C2353.62,-117.2 2078.34,-129.35 1955.93,-133.31"/>
<polygon fill="#63b8ff" stroke="#63b8ff" points="1956.15,-129.84 1946.27,-133.65 1956.37,-136.83 1956.15,-129.84"/>
</g>
<!-- Node31&#45;&gt;Node1 -->
<g id="edge44" class="edge">
<title>Node31&#45;&gt;Node1</title>
<path fill="none" stroke="#63b8ff" d="M2716.58,-85.06C2435.66,-126.1 2095.71,-133.5 1956.27,-134.77"/>
<polygon fill="#63b8ff" stroke="#63b8ff" points="1956.36,-131.27 1946.39,-134.86 1956.41,-138.27 1956.36,-131.27"/>
</g>
<!-- Node32&#45;&gt;Node1 -->
<g id="edge46" class="edge">
<title>Node32&#45;&gt;Node1</title>
<path fill="none" stroke="#63b8ff" d="M2836.51,-85.06C2507.45,-127.93 2108.89,-134.19 1955.91,-134.96"/>
<polygon fill="#63b8ff" stroke="#63b8ff" points="1956.31,-131.47 1946.32,-135.01 1956.34,-138.47 1956.31,-131.47"/>
</g>
<!-- Node33&#45;&gt;Node1 -->
<g id="edge48" class="edge">
<title>Node33&#45;&gt;Node1</title>
<path fill="none" stroke="#63b8ff" d="M2970.71,-85.04C2773.11,-112.41 2157.36,-128.95 1956.21,-133.63"/>
<polygon fill="#63b8ff" stroke="#63b8ff" points="1956.17,-130.15 1946.25,-133.88 1956.33,-137.15 1956.17,-130.15"/>
</g>
<!-- Node34&#45;&gt;Node1 -->
<g id="edge50" class="edge">
<title>Node34&#45;&gt;Node1</title>
<path fill="none" stroke="#63b8ff" d="M3090.67,-85.04C2868.2,-112.7 2171.32,-129.3 1955.98,-133.77"/>
<polygon fill="#63b8ff" stroke="#63b8ff" points="1956.11,-130.29 1946.19,-133.99 1956.26,-137.29 1956.11,-130.29"/>
</g>
<!-- Node35&#45;&gt;Node1 -->
<g id="edge52" class="edge">
<title>Node35&#45;&gt;Node1</title>
<path fill="none" stroke="#63b8ff" d="M3224.63,-85.04C2974.38,-112.6 2186.84,-129.51 1956.08,-133.87"/>
<polygon fill="#63b8ff" stroke="#63b8ff" points="1956.13,-130.39 1946.2,-134.08 1956.26,-137.39 1956.13,-130.39"/>
</g>
<!-- Node36&#45;&gt;Node1 -->
<g id="edge54" class="edge">
<title>Node36&#45;&gt;Node1</title>
<path fill="none" stroke="#63b8ff" d="M3376.58,-85.05C3095.34,-117.62 2204.08,-131.14 1956.37,-134.26"/>
<polygon fill="#63b8ff" stroke="#63b8ff" points="1956.36,-130.78 1946.41,-134.4 1956.45,-137.77 1956.36,-130.78"/>
</g>
</g>
</svg>
