<?xml version="1.0" encoding="UTF-8" standalone="no"?>
<!DOCTYPE svg PUBLIC "-//W3C//DTD SVG 1.1//EN"
 "http://www.w3.org/Graphics/SVG/1.1/DTD/svg11.dtd">
<!-- Generated by graphviz version 8.0.1 (20230327.1645)
 -->
<!-- Title: include/experimental/linear_algebra.hpp Pages: 1 -->
<svg width="1967pt" height="115pt"
 viewBox="0.00 0.00 1966.50 115.00" xmlns="http://www.w3.org/2000/svg" xmlns:xlink="http://www.w3.org/1999/xlink">
<g id="graph0" class="graph" transform="scale(1 1) rotate(0) translate(4 111)">
<title>include/experimental/linear_algebra.hpp</title>
<!-- Node1 -->
<g id="node1" class="node">
<title>Node1</title>
<g id="a_node1"><a xlink:title=" ">
<polygon fill="#999999" stroke="#666666" points="1046.5,-107 940.5,-107 940.5,-77 1046.5,-77 1046.5,-107"/>
<text text-anchor="start" x="948.5" y="-95" font-family="Helvetica,sans-Serif" font-size="10.00">include/experimental</text>
<text text-anchor="middle" x="993.5" y="-84" font-family="Helvetica,sans-Serif" font-size="10.00">/linear_algebra.hpp</text>
</a>
</g>
</g>
<!-- Node2 -->
<g id="node2" class="node">
<title>Node2</title>
<g id="a_node2"><a xlink:href="arithmetic__operators_8hpp.html" target="_top" xlink:title=" ">
<polygon fill="white" stroke="#666666" points="125,-41 0,-41 0,0 125,0 125,-41"/>
<text text-anchor="start" x="8" y="-29" font-family="Helvetica,sans-Serif" font-size="10.00">include/experimental</text>
<text text-anchor="start" x="8" y="-18" font-family="Helvetica,sans-Serif" font-size="10.00">/linear_algebra/arithmetic</text>
<text text-anchor="middle" x="62.5" y="-7" font-family="Helvetica,sans-Serif" font-size="10.00">_operators.hpp</text>
</a>
</g>
</g>
<!-- Node1&#45;&gt;Node2 -->
<g id="edge1" class="edge">
<title>Node1&#45;&gt;Node2</title>
<path fill="none" stroke="#63b8ff" d="M929.52,-91.81C784.96,-92.81 422.96,-89.99 125.4,-41.15"/>
<polygon fill="#63b8ff" stroke="#63b8ff" points="929.4,-95.31 939.37,-91.73 929.35,-88.31 929.4,-95.31"/>
</g>
<!-- Node3 -->
<g id="node3" class="node">
<title>Node3</title>
<g id="a_node3"><a xlink:href="dynamic__matrix_8hpp.html" target="_top" xlink:title=" ">
<polygon fill="white" stroke="#666666" points="262,-41 143,-41 143,0 262,0 262,-41"/>
<text text-anchor="start" x="151" y="-29" font-family="Helvetica,sans-Serif" font-size="10.00">include/experimental</text>
<text text-anchor="start" x="151" y="-18" font-family="Helvetica,sans-Serif" font-size="10.00">/linear_algebra/dynamic</text>
<text text-anchor="middle" x="202.5" y="-7" font-family="Helvetica,sans-Serif" font-size="10.00">_matrix.hpp</text>
</a>
</g>
</g>
<!-- Node1&#45;&gt;Node3 -->
<g id="edge3" class="edge">
<title>Node1&#45;&gt;Node3</title>
<path fill="none" stroke="#63b8ff" d="M929.55,-91.1C801.61,-90.39 505.93,-83.91 262.24,-41.13"/>
<polygon fill="#63b8ff" stroke="#63b8ff" points="929.29,-94.6 939.3,-91.15 929.32,-87.6 929.29,-94.6"/>
</g>
<!-- Node4 -->
<g id="node4" class="node">
<title>Node4</title>
<g id="a_node4"><a xlink:href="dynamic__tensor_8hpp.html" target="_top" xlink:title=" ">
<polygon fill="white" stroke="#666666" points="399,-41 280,-41 280,0 399,0 399,-41"/>
<text text-anchor="start" x="288" y="-29" font-family="Helvetica,sans-Serif" font-size="10.00">include/experimental</text>
<text text-anchor="start" x="288" y="-18" font-family="Helvetica,sans-Serif" font-size="10.00">/linear_algebra/dynamic</text>
<text text-anchor="middle" x="339.5" y="-7" font-family="Helvetica,sans-Serif" font-size="10.00">_tensor.hpp</text>
</a>
</g>
</g>
<!-- Node1&#45;&gt;Node4 -->
<g id="edge5" class="edge">
<title>Node1&#45;&gt;Node4</title>
<path fill="none" stroke="#63b8ff" d="M929.43,-89.75C819.8,-86.67 589.97,-76.18 399.37,-41.16"/>
<polygon fill="#63b8ff" stroke="#63b8ff" points="929.2,-93.27 939.3,-90.04 929.39,-86.28 929.2,-93.27"/>
</g>
<!-- Node5 -->
<g id="node5" class="node">
<title>Node5</title>
<g id="a_node5"><a xlink:href="dynamic__vector_8hpp.html" target="_top" xlink:title=" ">
<polygon fill="white" stroke="#666666" points="536,-41 417,-41 417,0 536,0 536,-41"/>
<text text-anchor="start" x="425" y="-29" font-family="Helvetica,sans-Serif" font-size="10.00">include/experimental</text>
<text text-anchor="start" x="425" y="-18" font-family="Helvetica,sans-Serif" font-size="10.00">/linear_algebra/dynamic</text>
<text text-anchor="middle" x="476.5" y="-7" font-family="Helvetica,sans-Serif" font-size="10.00">_vector.hpp</text>
</a>
</g>
</g>
<!-- Node1&#45;&gt;Node5 -->
<g id="edge7" class="edge">
<title>Node1&#45;&gt;Node5</title>
<path fill="none" stroke="#63b8ff" d="M929.53,-87.57C840.6,-81.83 675.27,-68.12 536.92,-41.08"/>
<polygon fill="#63b8ff" stroke="#63b8ff" points="929.05,-91.11 939.25,-88.25 929.49,-84.13 929.05,-91.11"/>
</g>
<!-- Node6 -->
<g id="node6" class="node">
<title>Node6</title>
<g id="a_node6"><a xlink:href="fixed__size__matrix_8hpp.html" target="_top" xlink:title=" ">
<polygon fill="white" stroke="#666666" points="660.5,-41 554.5,-41 554.5,0 660.5,0 660.5,-41"/>
<text text-anchor="start" x="562.5" y="-29" font-family="Helvetica,sans-Serif" font-size="10.00">include/experimental</text>
<text text-anchor="start" x="562.5" y="-18" font-family="Helvetica,sans-Serif" font-size="10.00">/linear_algebra/fixed</text>
<text text-anchor="middle" x="607.5" y="-7" font-family="Helvetica,sans-Serif" font-size="10.00">_size_matrix.hpp</text>
</a>
</g>
</g>
<!-- Node1&#45;&gt;Node6 -->
<g id="edge9" class="edge">
<title>Node1&#45;&gt;Node6</title>
<path fill="none" stroke="#63b8ff" d="M929.11,-84.76C861.52,-77.11 752.75,-62.47 660.78,-41.07"/>
<polygon fill="#63b8ff" stroke="#63b8ff" points="928.68,-88.34 939.01,-85.97 929.46,-81.39 928.68,-88.34"/>
</g>
<!-- Node7 -->
<g id="node7" class="node">
<title>Node7</title>
<g id="a_node7"><a xlink:href="fixed__size__tensor_8hpp.html" target="_top" xlink:title=" ">
<polygon fill="white" stroke="#666666" points="784.5,-41 678.5,-41 678.5,0 784.5,0 784.5,-41"/>
<text text-anchor="start" x="686.5" y="-29" font-family="Helvetica,sans-Serif" font-size="10.00">include/experimental</text>
<text text-anchor="start" x="686.5" y="-18" font-family="Helvetica,sans-Serif" font-size="10.00">/linear_algebra/fixed</text>
<text text-anchor="middle" x="731.5" y="-7" font-family="Helvetica,sans-Serif" font-size="10.00">_size_tensor.hpp</text>
</a>
</g>
</g>
<!-- Node1&#45;&gt;Node7 -->
<g id="edge11" class="edge">
<title>Node1&#45;&gt;Node7</title>
<path fill="none" stroke="#63b8ff" d="M929.57,-77.85C887.99,-68.27 832.91,-54.64 784.81,-41.09"/>
<polygon fill="#63b8ff" stroke="#63b8ff" points="928.58,-81.44 939.1,-80.26 930.13,-74.62 928.58,-81.44"/>
</g>
<!-- Node8 -->
<g id="node8" class="node">
<title>Node8</title>
<g id="a_node8"><a xlink:href="fixed__size__vector_8hpp.html" target="_top" xlink:title=" ">
<polygon fill="white" stroke="#666666" points="908.5,-41 802.5,-41 802.5,0 908.5,0 908.5,-41"/>
<text text-anchor="start" x="810.5" y="-29" font-family="Helvetica,sans-Serif" font-size="10.00">include/experimental</text>
<text text-anchor="start" x="810.5" y="-18" font-family="Helvetica,sans-Serif" font-size="10.00">/linear_algebra/fixed</text>
<text text-anchor="middle" x="855.5" y="-7" font-family="Helvetica,sans-Serif" font-size="10.00">_size_vector.hpp</text>
</a>
</g>
</g>
<!-- Node1&#45;&gt;Node8 -->
<g id="edge13" class="edge">
<title>Node1&#45;&gt;Node8</title>
<path fill="none" stroke="#63b8ff" d="M949.64,-71.98C929.95,-62.49 907.15,-51.02 888.87,-41.42"/>
<polygon fill="#63b8ff" stroke="#63b8ff" points="947.78,-75.45 958.31,-76.6 950.8,-69.13 947.78,-75.45"/>
</g>
<!-- Node9 -->
<g id="node9" class="node">
<title>Node9</title>
<g id="a_node9"><a xlink:href="instant__evaluated__operations_8hpp.html" target="_top" xlink:title=" ">
<polygon fill="white" stroke="#666666" points="1060,-41 927,-41 927,0 1060,0 1060,-41"/>
<text text-anchor="start" x="935" y="-29" font-family="Helvetica,sans-Serif" font-size="10.00">include/experimental</text>
<text text-anchor="start" x="935" y="-18" font-family="Helvetica,sans-Serif" font-size="10.00">/linear_algebra/instant</text>
<text text-anchor="middle" x="993.5" y="-7" font-family="Helvetica,sans-Serif" font-size="10.00">_evaluated_operations.hpp</text>
</a>
</g>
</g>
<!-- Node1&#45;&gt;Node9 -->
<g id="edge15" class="edge">
<title>Node1&#45;&gt;Node9</title>
<path fill="none" stroke="#63b8ff" d="M986.99,-65.91C986.58,-57.86 986.7,-49.05 987.33,-41.42"/>
<polygon fill="#63b8ff" stroke="#63b8ff" points="983.56,-65.94 987.91,-75.6 990.54,-65.34 983.56,-65.94"/>
</g>
<!-- Node10 -->
<g id="node10" class="node">
<title>Node10</title>
<g id="a_node10"><a xlink:href="matrix__concepts_8hpp.html" target="_top" xlink:title=" ">
<polygon fill="white" stroke="#666666" points="1188.5,-41 1078.5,-41 1078.5,0 1188.5,0 1188.5,-41"/>
<text text-anchor="start" x="1086.5" y="-29" font-family="Helvetica,sans-Serif" font-size="10.00">include/experimental</text>
<text text-anchor="start" x="1086.5" y="-18" font-family="Helvetica,sans-Serif" font-size="10.00">/linear_algebra/matrix</text>
<text text-anchor="middle" x="1133.5" y="-7" font-family="Helvetica,sans-Serif" font-size="10.00">_concepts.hpp</text>
</a>
</g>
</g>
<!-- Node1&#45;&gt;Node10 -->
<g id="edge17" class="edge">
<title>Node1&#45;&gt;Node10</title>
<path fill="none" stroke="#63b8ff" d="M1026.47,-71.59C1044.61,-62.18 1067.34,-50.89 1087.21,-41.42"/>
<polygon fill="#63b8ff" stroke="#63b8ff" points="1025.15,-68.86 1017.92,-76.6 1028.4,-75.06 1025.15,-68.86"/>
</g>
<!-- Node11 -->
<g id="node11" class="node">
<title>Node11</title>
<g id="a_node11"><a xlink:href="matrix__view_8hpp.html" target="_top" xlink:title=" ">
<polygon fill="white" stroke="#666666" points="1316.5,-41 1206.5,-41 1206.5,0 1316.5,0 1316.5,-41"/>
<text text-anchor="start" x="1214.5" y="-29" font-family="Helvetica,sans-Serif" font-size="10.00">include/experimental</text>
<text text-anchor="start" x="1214.5" y="-18" font-family="Helvetica,sans-Serif" font-size="10.00">/linear_algebra/matrix</text>
<text text-anchor="middle" x="1261.5" y="-7" font-family="Helvetica,sans-Serif" font-size="10.00">_view.hpp</text>
</a>
</g>
</g>
<!-- Node1&#45;&gt;Node11 -->
<g id="edge19" class="edge">
<title>Node1&#45;&gt;Node11</title>
<path fill="none" stroke="#63b8ff" d="M1057.24,-74.45C1095.43,-65.14 1144.79,-53.01 1188.5,-41 1194.21,-39.43 1200.19,-37.71 1206.17,-35.97"/>
<polygon fill="#63b8ff" stroke="#63b8ff" points="1056.66,-71.23 1047.78,-77 1058.32,-78.03 1056.66,-71.23"/>
</g>
<!-- Node12 -->
<g id="node12" class="node">
<title>Node12</title>
<g id="a_node12"><a xlink:href="private__support_8hpp.html" target="_top" xlink:title=" ">
<polygon fill="white" stroke="#666666" points="1446.5,-41 1334.5,-41 1334.5,0 1446.5,0 1446.5,-41"/>
<text text-anchor="start" x="1342.5" y="-29" font-family="Helvetica,sans-Serif" font-size="10.00">include/experimental</text>
<text text-anchor="start" x="1342.5" y="-18" font-family="Helvetica,sans-Serif" font-size="10.00">/linear_algebra/private</text>
<text text-anchor="middle" x="1390.5" y="-7" font-family="Helvetica,sans-Serif" font-size="10.00">_support.hpp</text>
</a>
</g>
</g>
<!-- Node1&#45;&gt;Node12 -->
<g id="edge21" class="edge">
<title>Node1&#45;&gt;Node12</title>
<path fill="none" stroke="#63b8ff" d="M1057.35,-83.29C1122.87,-75.24 1227.33,-60.98 1316.5,-41 1322.25,-39.71 1328.23,-38.18 1334.2,-36.56"/>
<polygon fill="#63b8ff" stroke="#63b8ff" points="1057.28,-79.9 1047.78,-84.58 1058.13,-86.85 1057.28,-79.9"/>
</g>
<!-- Node13 -->
<g id="node13" class="node">
<title>Node13</title>
<g id="a_node13"><a xlink:href="tensor__concepts_8hpp.html" target="_top" xlink:title=" ">
<polygon fill="white" stroke="#666666" points="1574.5,-41 1464.5,-41 1464.5,0 1574.5,0 1574.5,-41"/>
<text text-anchor="start" x="1472.5" y="-29" font-family="Helvetica,sans-Serif" font-size="10.00">include/experimental</text>
<text text-anchor="start" x="1472.5" y="-18" font-family="Helvetica,sans-Serif" font-size="10.00">/linear_algebra/tensor</text>
<text text-anchor="middle" x="1519.5" y="-7" font-family="Helvetica,sans-Serif" font-size="10.00">_concepts.hpp</text>
</a>
</g>
</g>
<!-- Node1&#45;&gt;Node13 -->
<g id="edge23" class="edge">
<title>Node1&#45;&gt;Node13</title>
<path fill="none" stroke="#63b8ff" d="M1057.84,-87.49C1146.21,-82.02 1309.5,-69.03 1446.5,-41 1452.3,-39.81 1458.33,-38.32 1464.34,-36.7"/>
<polygon fill="#63b8ff" stroke="#63b8ff" points="1057.69,-84.06 1047.92,-88.15 1058.12,-91.04 1057.69,-84.06"/>
</g>
<!-- Node14 -->
<g id="node14" class="node">
<title>Node14</title>
<g id="a_node14"><a xlink:href="tensor__view_8hpp.html" target="_top" xlink:title=" ">
<polygon fill="white" stroke="#666666" points="1702.5,-41 1592.5,-41 1592.5,0 1702.5,0 1702.5,-41"/>
<text text-anchor="start" x="1600.5" y="-29" font-family="Helvetica,sans-Serif" font-size="10.00">include/experimental</text>
<text text-anchor="start" x="1600.5" y="-18" font-family="Helvetica,sans-Serif" font-size="10.00">/linear_algebra/tensor</text>
<text text-anchor="middle" x="1647.5" y="-7" font-family="Helvetica,sans-Serif" font-size="10.00">_view.hpp</text>
</a>
</g>
</g>
<!-- Node1&#45;&gt;Node14 -->
<g id="edge25" class="edge">
<title>Node1&#45;&gt;Node14</title>
<path fill="none" stroke="#63b8ff" d="M1057.64,-89.84C1165.39,-86.93 1388.83,-76.74 1574.5,-41 1580.2,-39.9 1586.12,-38.49 1592.02,-36.93"/>
<polygon fill="#63b8ff" stroke="#63b8ff" points="1057.86,-86.36 1047.95,-90.11 1058.04,-93.36 1057.86,-86.36"/>
</g>
<!-- Node15 -->
<g id="node15" class="node">
<title>Node15</title>
<g id="a_node15"><a xlink:href="vector__concepts_8hpp.html" target="_top" xlink:title=" ">
<polygon fill="white" stroke="#666666" points="1830.5,-41 1720.5,-41 1720.5,0 1830.5,0 1830.5,-41"/>
<text text-anchor="start" x="1728.5" y="-29" font-family="Helvetica,sans-Serif" font-size="10.00">include/experimental</text>
<text text-anchor="start" x="1728.5" y="-18" font-family="Helvetica,sans-Serif" font-size="10.00">/linear_algebra/vector</text>
<text text-anchor="middle" x="1775.5" y="-7" font-family="Helvetica,sans-Serif" font-size="10.00">_concepts.hpp</text>
</a>
</g>
</g>
<!-- Node1&#45;&gt;Node15 -->
<g id="edge27" class="edge">
<title>Node1&#45;&gt;Node15</title>
<path fill="none" stroke="#63b8ff" d="M1057.76,-91.35C1182.96,-90.86 1467.53,-84.4 1702.5,-41 1708.21,-39.95 1714.13,-38.56 1720.03,-37.01"/>
<polygon fill="#63b8ff" stroke="#63b8ff" points="1057.85,-87.85 1047.86,-91.38 1057.87,-94.85 1057.85,-87.85"/>
</g>
<!-- Node16 -->
<g id="node16" class="node">
<title>Node16</title>
<g id="a_node16"><a xlink:href="vector__view_8hpp.html" target="_top" xlink:title=" ">
<polygon fill="white" stroke="#666666" points="1958.5,-41 1848.5,-41 1848.5,0 1958.5,0 1958.5,-41"/>
<text text-anchor="start" x="1856.5" y="-29" font-family="Helvetica,sans-Serif" font-size="10.00">include/experimental</text>
<text text-anchor="start" x="1856.5" y="-18" font-family="Helvetica,sans-Serif" font-size="10.00">/linear_algebra/vector</text>
<text text-anchor="middle" x="1903.5" y="-7" font-family="Helvetica,sans-Serif" font-size="10.00">_view.hpp</text>
</a>
</g>
</g>
<!-- Node1&#45;&gt;Node16 -->
<g id="edge29" class="edge">
<title>Node1&#45;&gt;Node16</title>
<path fill="none" stroke="#63b8ff" d="M1057.84,-89.04C1227.15,-83.73 1681.78,-67.66 1830.5,-41 1836.22,-39.98 1842.14,-38.61 1848.04,-37.07"/>
<polygon fill="#63b8ff" stroke="#63b8ff" points="1057.75,-85.57 1047.87,-89.38 1057.97,-92.56 1057.75,-85.57"/>
</g>
<!-- Node2&#45;&gt;Node1 -->
<g id="edge2" class="edge">
<title>Node2&#45;&gt;Node1</title>
<path fill="none" stroke="#63b8ff" d="M136.19,-39.87C138.31,-40.28 140.42,-40.66 142.5,-41 441.34,-90.16 805.51,-92.83 940.22,-91.8"/>
<polygon fill="#63b8ff" stroke="#63b8ff" points="136.97,-36.25 126.46,-37.59 135.52,-43.09 136.97,-36.25"/>
</g>
<!-- Node3&#45;&gt;Node1 -->
<g id="edge4" class="edge">
<title>Node3&#45;&gt;Node1</title>
<path fill="none" stroke="#63b8ff" d="M272.9,-39.73C275.12,-40.19 277.33,-40.62 279.5,-41 523.93,-84 820.92,-90.42 940.25,-91.1"/>
<polygon fill="#63b8ff" stroke="#63b8ff" points="273.94,-36.15 263.42,-37.36 272.4,-42.98 273.94,-36.15"/>
</g>
<!-- Node4&#45;&gt;Node1 -->
<g id="edge6" class="edge">
<title>Node4&#45;&gt;Node1</title>
<path fill="none" stroke="#63b8ff" d="M409.91,-39.69C412.13,-40.16 414.33,-40.6 416.5,-41 607.29,-76.15 837.67,-86.67 940.1,-89.75"/>
<polygon fill="#63b8ff" stroke="#63b8ff" points="410.97,-36.11 400.43,-37.27 409.39,-42.93 410.97,-36.11"/>
</g>
<!-- Node5&#45;&gt;Node1 -->
<g id="edge8" class="edge">
<title>Node5&#45;&gt;Node1</title>
<path fill="none" stroke="#63b8ff" d="M546.97,-39.42C549.51,-39.99 552.03,-40.52 554.5,-41 692.36,-67.98 857.15,-81.71 940.22,-87.5"/>
<polygon fill="#63b8ff" stroke="#63b8ff" points="548,-35.83 537.46,-36.93 546.38,-42.64 548,-35.83"/>
</g>
<!-- Node6&#45;&gt;Node1 -->
<g id="edge10" class="edge">
<title>Node6&#45;&gt;Node1</title>
<path fill="none" stroke="#63b8ff" d="M671.44,-39.26C673.82,-39.87 676.18,-40.46 678.5,-41 769.55,-62.21 877.14,-76.79 940.19,-84.51"/>
<polygon fill="#63b8ff" stroke="#63b8ff" points="672.47,-35.64 661.9,-36.38 670.63,-42.39 672.47,-35.64"/>
</g>
<!-- Node7&#45;&gt;Node1 -->
<g id="edge12" class="edge">
<title>Node7&#45;&gt;Node1</title>
<path fill="none" stroke="#63b8ff" d="M795.09,-38.87C797.59,-39.6 800.07,-40.32 802.5,-41 848.83,-54.06 901.69,-67.2 940.11,-76.73"/>
<polygon fill="#63b8ff" stroke="#63b8ff" points="796.27,-35.27 785.69,-35.78 794.28,-41.98 796.27,-35.27"/>
</g>
<!-- Node8&#45;&gt;Node1 -->
<g id="edge14" class="edge">
<title>Node8&#45;&gt;Node1</title>
<path fill="none" stroke="#63b8ff" d="M910.93,-46.15C931.72,-56.35 954.19,-67.81 970.5,-76.6"/>
<polygon fill="#63b8ff" stroke="#63b8ff" points="912.74,-42.65 902.22,-41.42 909.67,-48.94 912.74,-42.65"/>
</g>
<!-- Node9&#45;&gt;Node1 -->
<g id="edge16" class="edge">
<title>Node9&#45;&gt;Node1</title>
<path fill="none" stroke="#63b8ff" d="M1000.21,-52.22C1000.38,-60.71 1000.01,-69.52 999.09,-76.6"/>
<polygon fill="#63b8ff" stroke="#63b8ff" points="1003.66,-52.23 999.67,-42.42 996.67,-52.58 1003.66,-52.23"/>
</g>
<!-- Node10&#45;&gt;Node1 -->
<g id="edge18" class="edge">
<title>Node10&#45;&gt;Node1</title>
<path fill="none" stroke="#63b8ff" d="M1089.79,-46.43C1069.91,-56.55 1046.77,-67.89 1028.1,-76.6"/>
<polygon fill="#63b8ff" stroke="#63b8ff" points="1091.25,-49.1 1098.55,-41.42 1088.06,-42.87 1091.25,-49.1"/>
</g>
<!-- Node11&#45;&gt;Node1 -->
<g id="edge20" class="edge">
<title>Node11&#45;&gt;Node1</title>
<path fill="none" stroke="#63b8ff" d="M1195.7,-43.94C1144.52,-57.74 1087.47,-71.39 1046.95,-80.41"/>
<polygon fill="#63b8ff" stroke="#63b8ff" points="1196.45,-47.09 1205.18,-41.09 1194.62,-40.33 1196.45,-47.09"/>
</g>
<!-- Node12&#45;&gt;Node1 -->
<g id="edge22" class="edge">
<title>Node12&#45;&gt;Node1</title>
<path fill="none" stroke="#63b8ff" d="M1323.57,-43.4C1225.69,-64.56 1112.23,-78.96 1046.96,-86.01"/>
<polygon fill="#63b8ff" stroke="#63b8ff" points="1324.19,-46.63 1333.21,-41.07 1322.69,-39.8 1324.19,-46.63"/>
</g>
<!-- Node13&#45;&gt;Node1 -->
<g id="edge24" class="edge">
<title>Node13&#45;&gt;Node1</title>
<path fill="none" stroke="#63b8ff" d="M1453.53,-43.2C1306.57,-72.13 1132.82,-84.33 1046.9,-88.78"/>
<polygon fill="#63b8ff" stroke="#63b8ff" points="1453.95,-46.49 1463.06,-41.09 1452.57,-39.62 1453.95,-46.49"/>
</g>
<!-- Node14&#45;&gt;Node1 -->
<g id="edge26" class="edge">
<title>Node14&#45;&gt;Node1</title>
<path fill="none" stroke="#63b8ff" d="M1581.41,-43.1C1384.97,-79.56 1150.11,-88.27 1046.68,-90.35"/>
<polygon fill="#63b8ff" stroke="#63b8ff" points="1582.03,-46.35 1591.21,-41.06 1580.73,-39.47 1582.03,-46.35"/>
</g>
<!-- Node15&#45;&gt;Node1 -->
<g id="edge28" class="edge">
<title>Node15&#45;&gt;Node1</title>
<path fill="none" stroke="#63b8ff" d="M1709.55,-42.99C1463.12,-87.03 1166.22,-91.48 1046.86,-91.38"/>
<polygon fill="#63b8ff" stroke="#63b8ff" points="1709.92,-46.3 1719.14,-41.07 1708.67,-39.41 1709.92,-46.3"/>
</g>
<!-- Node16&#45;&gt;Node1 -->
<g id="edge30" class="edge">
<title>Node16&#45;&gt;Node1</title>
<path fill="none" stroke="#63b8ff" d="M1837.61,-42.85C1672.4,-69.42 1205.68,-85.06 1046.99,-89.61"/>
<polygon fill="#63b8ff" stroke="#63b8ff" points="1837.77,-46.2 1847.05,-41.08 1836.6,-39.3 1837.77,-46.2"/>
</g>
</g>
</svg>
