<?xml version="1.0" encoding="UTF-8" standalone="no"?>
<!DOCTYPE svg PUBLIC "-//W3C//DTD SVG 1.1//EN"
 "http://www.w3.org/Graphics/SVG/1.1/DTD/svg11.dtd">
<!-- Generated by graphviz version 8.0.1 (20230327.1645)
 -->
<!-- Title: include/experimental/linear_algebra.hpp Pages: 1 -->
<!--zoomable 115 -->
<svg id="main" version="1.1" xmlns="http://www.w3.org/2000/svg" xmlns:xlink="http://www.w3.org/1999/xlink" xml:space="preserve" onload="init(evt)">
<style type="text/css"><![CDATA[
.edge:hover path { stroke: red; }
.edge:hover polygon { stroke: red; fill: red; }
]]></style>
<script type="text/javascript"><![CDATA[
var edges = document.getElementsByTagName('g');
if (edges && edges.length) {
  for (var i=0;i<edges.length;i++) {
    if (edges[i].id.substr(0,4)=='edge') {
      edges[i].setAttribute('class','edge');
    }
  }
}
]]></script>
        <defs>
                <circle id="rim" cx="0" cy="0" r="7"/>
                <circle id="rim2" cx="0" cy="0" r="3.5"/>
                <g id="zoomPlus">
                        <use xlink:href="#rim" fill="#404040">
                                <set attributeName="fill" to="#808080" begin="zoomplus.mouseover" end="zoomplus.mouseout"/>
                        </use>
                        <path d="M-4,0h8M0,-4v8" fill="none" stroke="white" stroke-width="1.5" pointer-events="none"/>
                </g>
                <g id="zoomMin">
                        <use xlink:href="#rim" fill="#404040">
                                <set attributeName="fill" to="#808080" begin="zoomminus.mouseover" end="zoomminus.mouseout"/>
                        </use>
                        <path d="M-4,0h8" fill="none" stroke="white" stroke-width="1.5" pointer-events="none"/>
                </g>
                <g id="dirArrow">
                        <path fill="none" stroke="white" stroke-width="1.5" d="M0,-3.0v7 M-2.5,-0.5L0,-3.0L2.5,-0.5"/>
                </g>
               <g id="resetDef">
                       <use xlink:href="#rim2" fill="#404040">
                               <set attributeName="fill" to="#808080" begin="reset.mouseover" end="reset.mouseout"/>
                       </use>
               </g>
        </defs>

<script type="text/javascript">
var viewWidth = 2228;
var viewHeight = 115;
var sectionId = 'dynsection-1';
</script>
<script xlink:href="svgpan.js"/>
<svg id="graph" class="graph">
<g id="viewport">
<title>include/experimental/linear_algebra.hpp</title>
<!-- Node1 -->
<g id="node1" class="node">
<title>Node1</title>
<g id="a_node1"><a xlink:title=" ">
<polygon fill="#999999" stroke="#666666" points="1179.5,-107 1073.5,-107 1073.5,-77 1179.5,-77 1179.5,-107"/>
<text text-anchor="start" x="1081.5" y="-95" font-family="Helvetica,sans-Serif" font-size="10.00">include/experimental</text>
<text text-anchor="middle" x="1126.5" y="-84" font-family="Helvetica,sans-Serif" font-size="10.00">/linear_algebra.hpp</text>
</a>
</g>
</g>
<!-- Node2 -->
<g id="node2" class="node">
<title>Node2</title>
<g id="a_node2"><a xlink:href="arithmetic__operators_8hpp.html" target="_top" xlink:title=" ">
<polygon fill="white" stroke="#666666" points="125,-41 0,-41 0,0 125,0 125,-41"/>
<text text-anchor="start" x="8" y="-29" font-family="Helvetica,sans-Serif" font-size="10.00">include/experimental</text>
<text text-anchor="start" x="8" y="-18" font-family="Helvetica,sans-Serif" font-size="10.00">/linear_algebra/arithmetic</text>
<text text-anchor="middle" x="62.5" y="-7" font-family="Helvetica,sans-Serif" font-size="10.00">_operators.hpp</text>
</a>
</g>
</g>
<!-- Node1&#45;&gt;Node2 -->
<g id="edge1" class="edge">
<title>Node1&#45;&gt;Node2</title>
<path fill="none" stroke="#63b8ff" d="M1062.12,-89.68C870.65,-85.34 307.29,-70.12 125.31,-41.13"/>
<polygon fill="#63b8ff" stroke="#63b8ff" points="1062.04,-93.2 1072.12,-89.93 1062.2,-86.2 1062.04,-93.2"/>
</g>
<!-- Node3 -->
<g id="node3" class="node">
<title>Node3</title>
<g id="a_node3"><a xlink:href="dynamic__matrix_8hpp.html" target="_top" xlink:title=" ">
<polygon fill="white" stroke="#666666" points="262,-41 143,-41 143,0 262,0 262,-41"/>
<text text-anchor="start" x="151" y="-29" font-family="Helvetica,sans-Serif" font-size="10.00">include/experimental</text>
<text text-anchor="start" x="151" y="-18" font-family="Helvetica,sans-Serif" font-size="10.00">/linear_algebra/dynamic</text>
<text text-anchor="middle" x="202.5" y="-7" font-family="Helvetica,sans-Serif" font-size="10.00">_matrix.hpp</text>
</a>
</g>
</g>
<!-- Node1&#45;&gt;Node3 -->
<g id="edge3" class="edge">
<title>Node1&#45;&gt;Node3</title>
<path fill="none" stroke="#63b8ff" d="M1062.05,-89.21C888.9,-83.94 416.77,-67.21 262.42,-41.16"/>
<polygon fill="#63b8ff" stroke="#63b8ff" points="1061.92,-92.74 1072.02,-89.54 1062.13,-85.74 1061.92,-92.74"/>
</g>
<!-- Node4 -->
<g id="node4" class="node">
<title>Node4</title>
<g id="a_node4"><a xlink:href="dynamic__tensor_8hpp.html" target="_top" xlink:title=" ">
<polygon fill="white" stroke="#666666" points="399,-41 280,-41 280,0 399,0 399,-41"/>
<text text-anchor="start" x="288" y="-29" font-family="Helvetica,sans-Serif" font-size="10.00">include/experimental</text>
<text text-anchor="start" x="288" y="-18" font-family="Helvetica,sans-Serif" font-size="10.00">/linear_algebra/dynamic</text>
<text text-anchor="middle" x="339.5" y="-7" font-family="Helvetica,sans-Serif" font-size="10.00">_tensor.hpp</text>
</a>
</g>
</g>
<!-- Node1&#45;&gt;Node4 -->
<g id="edge5" class="edge">
<title>Node1&#45;&gt;Node4</title>
<path fill="none" stroke="#63b8ff" d="M1062.4,-91.06C934.89,-90.29 641.27,-83.67 399.23,-41.13"/>
<polygon fill="#63b8ff" stroke="#63b8ff" points="1062.1,-94.57 1072.12,-91.12 1062.14,-87.57 1062.1,-94.57"/>
</g>
<!-- Node5 -->
<g id="node5" class="node">
<title>Node5</title>
<g id="a_node5"><a xlink:href="dynamic__vector_8hpp.html" target="_top" xlink:title=" ">
<polygon fill="white" stroke="#666666" points="536,-41 417,-41 417,0 536,0 536,-41"/>
<text text-anchor="start" x="425" y="-29" font-family="Helvetica,sans-Serif" font-size="10.00">include/experimental</text>
<text text-anchor="start" x="425" y="-18" font-family="Helvetica,sans-Serif" font-size="10.00">/linear_algebra/dynamic</text>
<text text-anchor="middle" x="476.5" y="-7" font-family="Helvetica,sans-Serif" font-size="10.00">_vector.hpp</text>
</a>
</g>
</g>
<!-- Node1&#45;&gt;Node5 -->
<g id="edge7" class="edge">
<title>Node1&#45;&gt;Node5</title>
<path fill="none" stroke="#63b8ff" d="M1062.52,-89.62C953.53,-86.33 725.7,-75.52 536.79,-41.05"/>
<polygon fill="#63b8ff" stroke="#63b8ff" points="1062.22,-93.14 1072.32,-89.93 1062.43,-86.15 1062.22,-93.14"/>
</g>
<!-- Node6 -->
<g id="node6" class="node">
<title>Node6</title>
<g id="a_node6"><a xlink:href="fixed__size__matrix_8hpp.html" target="_top" xlink:title=" ">
<polygon fill="white" stroke="#666666" points="660.5,-41 554.5,-41 554.5,0 660.5,0 660.5,-41"/>
<text text-anchor="start" x="562.5" y="-29" font-family="Helvetica,sans-Serif" font-size="10.00">include/experimental</text>
<text text-anchor="start" x="562.5" y="-18" font-family="Helvetica,sans-Serif" font-size="10.00">/linear_algebra/fixed</text>
<text text-anchor="middle" x="607.5" y="-7" font-family="Helvetica,sans-Serif" font-size="10.00">_size_matrix.hpp</text>
</a>
</g>
</g>
<!-- Node1&#45;&gt;Node6 -->
<g id="edge9" class="edge">
<title>Node1&#45;&gt;Node6</title>
<path fill="none" stroke="#63b8ff" d="M1062.34,-88.28C971.81,-83.38 802.2,-70.69 660.93,-41.09"/>
<polygon fill="#63b8ff" stroke="#63b8ff" points="1062.07,-91.82 1072.24,-88.85 1062.44,-84.83 1062.07,-91.82"/>
</g>
<!-- Node7 -->
<g id="node7" class="node">
<title>Node7</title>
<g id="a_node7"><a xlink:href="fixed__size__tensor_8hpp.html" target="_top" xlink:title=" ">
<polygon fill="white" stroke="#666666" points="784.5,-41 678.5,-41 678.5,0 784.5,0 784.5,-41"/>
<text text-anchor="start" x="686.5" y="-29" font-family="Helvetica,sans-Serif" font-size="10.00">include/experimental</text>
<text text-anchor="start" x="686.5" y="-18" font-family="Helvetica,sans-Serif" font-size="10.00">/linear_algebra/fixed</text>
<text text-anchor="middle" x="731.5" y="-7" font-family="Helvetica,sans-Serif" font-size="10.00">_size_tensor.hpp</text>
</a>
</g>
</g>
<!-- Node1&#45;&gt;Node7 -->
<g id="edge11" class="edge">
<title>Node1&#45;&gt;Node7</title>
<path fill="none" stroke="#63b8ff" d="M1062.41,-85.11C993.16,-77.65 880.17,-63.06 784.79,-41.07"/>
<polygon fill="#63b8ff" stroke="#63b8ff" points="1061.83,-88.67 1072.14,-86.24 1062.56,-81.71 1061.83,-88.67"/>
</g>
<!-- Node8 -->
<g id="node8" class="node">
<title>Node8</title>
<g id="a_node8"><a xlink:href="fixed__size__vector_8hpp.html" target="_top" xlink:title=" ">
<polygon fill="white" stroke="#666666" points="908.5,-41 802.5,-41 802.5,0 908.5,0 908.5,-41"/>
<text text-anchor="start" x="810.5" y="-29" font-family="Helvetica,sans-Serif" font-size="10.00">include/experimental</text>
<text text-anchor="start" x="810.5" y="-18" font-family="Helvetica,sans-Serif" font-size="10.00">/linear_algebra/fixed</text>
<text text-anchor="middle" x="855.5" y="-7" font-family="Helvetica,sans-Serif" font-size="10.00">_size_vector.hpp</text>
</a>
</g>
</g>
<!-- Node1&#45;&gt;Node8 -->
<g id="edge13" class="edge">
<title>Node1&#45;&gt;Node8</title>
<path fill="none" stroke="#63b8ff" d="M1062.68,-78.64C1019,-69.13 960.08,-55.25 908.83,-41.09"/>
<polygon fill="#63b8ff" stroke="#63b8ff" points="1061.65,-82.21 1072.17,-80.9 1063.13,-75.37 1061.65,-82.21"/>
</g>
<!-- Node9 -->
<g id="node9" class="node">
<title>Node9</title>
<g id="a_node9"><a xlink:href="forward__declarations_8hpp.html" target="_top" xlink:title=" ">
<polygon fill="white" stroke="#666666" points="1042,-41 927,-41 927,0 1042,0 1042,-41"/>
<text text-anchor="start" x="935" y="-29" font-family="Helvetica,sans-Serif" font-size="10.00">include/experimental</text>
<text text-anchor="start" x="935" y="-18" font-family="Helvetica,sans-Serif" font-size="10.00">/linear_algebra/forward</text>
<text text-anchor="middle" x="984.5" y="-7" font-family="Helvetica,sans-Serif" font-size="10.00">_declarations.hpp</text>
</a>
</g>
</g>
<!-- Node1&#45;&gt;Node9 -->
<g id="edge15" class="edge">
<title>Node1&#45;&gt;Node9</title>
<path fill="none" stroke="#63b8ff" d="M1081.54,-71.98C1061.31,-62.49 1037.85,-51.02 1019.02,-41.42"/>
<polygon fill="#63b8ff" stroke="#63b8ff" points="1079.94,-75.56 1090.48,-76.6 1082.89,-69.21 1079.94,-75.56"/>
</g>
<!-- Node10 -->
<g id="node10" class="node">
<title>Node10</title>
<g id="a_node10"><a xlink:href="instant__evaluated__operations_8hpp.html" target="_top" xlink:title=" ">
<polygon fill="white" stroke="#666666" points="1193,-41 1060,-41 1060,0 1193,0 1193,-41"/>
<text text-anchor="start" x="1068" y="-29" font-family="Helvetica,sans-Serif" font-size="10.00">include/experimental</text>
<text text-anchor="start" x="1068" y="-18" font-family="Helvetica,sans-Serif" font-size="10.00">/linear_algebra/instant</text>
<text text-anchor="middle" x="1126.5" y="-7" font-family="Helvetica,sans-Serif" font-size="10.00">_evaluated_operations.hpp</text>
</a>
</g>
</g>
<!-- Node1&#45;&gt;Node10 -->
<g id="edge17" class="edge">
<title>Node1&#45;&gt;Node10</title>
<path fill="none" stroke="#63b8ff" d="M1119.99,-65.91C1119.58,-57.86 1119.7,-49.05 1120.33,-41.42"/>
<polygon fill="#63b8ff" stroke="#63b8ff" points="1116.56,-65.94 1120.91,-75.6 1123.54,-65.34 1116.56,-65.94"/>
</g>
<!-- Node11 -->
<g id="node11" class="node">
<title>Node11</title>
<g id="a_node11"><a xlink:href="matrix__concepts_8hpp.html" target="_top" xlink:title=" ">
<polygon fill="white" stroke="#666666" points="1321.5,-41 1211.5,-41 1211.5,0 1321.5,0 1321.5,-41"/>
<text text-anchor="start" x="1219.5" y="-29" font-family="Helvetica,sans-Serif" font-size="10.00">include/experimental</text>
<text text-anchor="start" x="1219.5" y="-18" font-family="Helvetica,sans-Serif" font-size="10.00">/linear_algebra/matrix</text>
<text text-anchor="middle" x="1266.5" y="-7" font-family="Helvetica,sans-Serif" font-size="10.00">_concepts.hpp</text>
</a>
</g>
</g>
<!-- Node1&#45;&gt;Node11 -->
<g id="edge19" class="edge">
<title>Node1&#45;&gt;Node11</title>
<path fill="none" stroke="#63b8ff" d="M1159.47,-71.59C1177.61,-62.18 1200.34,-50.89 1220.21,-41.42"/>
<polygon fill="#63b8ff" stroke="#63b8ff" points="1158.15,-68.86 1150.92,-76.6 1161.4,-75.06 1158.15,-68.86"/>
</g>
<!-- Node12 -->
<g id="node12" class="node">
<title>Node12</title>
<g id="a_node12"><a xlink:href="matrix__view_8hpp.html" target="_top" xlink:title=" ">
<polygon fill="white" stroke="#666666" points="1449.5,-41 1339.5,-41 1339.5,0 1449.5,0 1449.5,-41"/>
<text text-anchor="start" x="1347.5" y="-29" font-family="Helvetica,sans-Serif" font-size="10.00">include/experimental</text>
<text text-anchor="start" x="1347.5" y="-18" font-family="Helvetica,sans-Serif" font-size="10.00">/linear_algebra/matrix</text>
<text text-anchor="middle" x="1394.5" y="-7" font-family="Helvetica,sans-Serif" font-size="10.00">_view.hpp</text>
</a>
</g>
</g>
<!-- Node1&#45;&gt;Node12 -->
<g id="edge21" class="edge">
<title>Node1&#45;&gt;Node12</title>
<path fill="none" stroke="#63b8ff" d="M1190.24,-74.45C1228.43,-65.14 1277.79,-53.01 1321.5,-41 1327.21,-39.43 1333.19,-37.71 1339.17,-35.97"/>
<polygon fill="#63b8ff" stroke="#63b8ff" points="1189.66,-71.23 1180.78,-77 1191.32,-78.03 1189.66,-71.23"/>
</g>
<!-- Node13 -->
<g id="node13" class="node">
<title>Node13</title>
<g id="a_node13"><a xlink:href="private__support_8hpp.html" target="_top" xlink:title=" ">
<polygon fill="white" stroke="#666666" points="1579.5,-41 1467.5,-41 1467.5,0 1579.5,0 1579.5,-41"/>
<text text-anchor="start" x="1475.5" y="-29" font-family="Helvetica,sans-Serif" font-size="10.00">include/experimental</text>
<text text-anchor="start" x="1475.5" y="-18" font-family="Helvetica,sans-Serif" font-size="10.00">/linear_algebra/private</text>
<text text-anchor="middle" x="1523.5" y="-7" font-family="Helvetica,sans-Serif" font-size="10.00">_support.hpp</text>
</a>
</g>
</g>
<!-- Node1&#45;&gt;Node13 -->
<g id="edge23" class="edge">
<title>Node1&#45;&gt;Node13</title>
<path fill="none" stroke="#63b8ff" d="M1190.35,-83.29C1255.87,-75.24 1360.33,-60.98 1449.5,-41 1455.25,-39.71 1461.23,-38.18 1467.2,-36.56"/>
<polygon fill="#63b8ff" stroke="#63b8ff" points="1190.28,-79.9 1180.78,-84.58 1191.13,-86.85 1190.28,-79.9"/>
</g>
<!-- Node14 -->
<g id="node14" class="node">
<title>Node14</title>
<g id="a_node14"><a xlink:href="tensor__concepts_8hpp.html" target="_top" xlink:title=" ">
<polygon fill="white" stroke="#666666" points="1707.5,-41 1597.5,-41 1597.5,0 1707.5,0 1707.5,-41"/>
<text text-anchor="start" x="1605.5" y="-29" font-family="Helvetica,sans-Serif" font-size="10.00">include/experimental</text>
<text text-anchor="start" x="1605.5" y="-18" font-family="Helvetica,sans-Serif" font-size="10.00">/linear_algebra/tensor</text>
<text text-anchor="middle" x="1652.5" y="-7" font-family="Helvetica,sans-Serif" font-size="10.00">_concepts.hpp</text>
</a>
</g>
</g>
<!-- Node1&#45;&gt;Node14 -->
<g id="edge25" class="edge">
<title>Node1&#45;&gt;Node14</title>
<path fill="none" stroke="#63b8ff" d="M1190.84,-87.49C1279.21,-82.02 1442.5,-69.03 1579.5,-41 1585.3,-39.81 1591.33,-38.32 1597.34,-36.7"/>
<polygon fill="#63b8ff" stroke="#63b8ff" points="1190.69,-84.06 1180.92,-88.15 1191.12,-91.04 1190.69,-84.06"/>
</g>
<!-- Node15 -->
<g id="node15" class="node">
<title>Node15</title>
<g id="a_node15"><a xlink:href="tensor__view_8hpp.html" target="_top" xlink:title=" ">
<polygon fill="white" stroke="#666666" points="1835.5,-41 1725.5,-41 1725.5,0 1835.5,0 1835.5,-41"/>
<text text-anchor="start" x="1733.5" y="-29" font-family="Helvetica,sans-Serif" font-size="10.00">include/experimental</text>
<text text-anchor="start" x="1733.5" y="-18" font-family="Helvetica,sans-Serif" font-size="10.00">/linear_algebra/tensor</text>
<text text-anchor="middle" x="1780.5" y="-7" font-family="Helvetica,sans-Serif" font-size="10.00">_view.hpp</text>
</a>
</g>
</g>
<!-- Node1&#45;&gt;Node15 -->
<g id="edge27" class="edge">
<title>Node1&#45;&gt;Node15</title>
<path fill="none" stroke="#63b8ff" d="M1190.64,-89.84C1298.39,-86.93 1521.83,-76.74 1707.5,-41 1713.2,-39.9 1719.12,-38.49 1725.02,-36.93"/>
<polygon fill="#63b8ff" stroke="#63b8ff" points="1190.86,-86.36 1180.95,-90.11 1191.04,-93.36 1190.86,-86.36"/>
</g>
<!-- Node16 -->
<g id="node16" class="node">
<title>Node16</title>
<g id="a_node16"><a xlink:href="tensor__view__impl_8hpp.html" target="_top" xlink:title=" ">
<polygon fill="white" stroke="#666666" points="1963.5,-41 1853.5,-41 1853.5,0 1963.5,0 1963.5,-41"/>
<text text-anchor="start" x="1861.5" y="-29" font-family="Helvetica,sans-Serif" font-size="10.00">include/experimental</text>
<text text-anchor="start" x="1861.5" y="-18" font-family="Helvetica,sans-Serif" font-size="10.00">/linear_algebra/tensor</text>
<text text-anchor="middle" x="1908.5" y="-7" font-family="Helvetica,sans-Serif" font-size="10.00">_view_impl.hpp</text>
</a>
</g>
</g>
<!-- Node1&#45;&gt;Node16 -->
<g id="edge29" class="edge">
<title>Node1&#45;&gt;Node16</title>
<path fill="none" stroke="#63b8ff" d="M1190.76,-91.35C1315.96,-90.86 1600.53,-84.4 1835.5,-41 1841.21,-39.95 1847.13,-38.56 1853.03,-37.01"/>
<polygon fill="#63b8ff" stroke="#63b8ff" points="1190.85,-87.85 1180.86,-91.38 1190.87,-94.85 1190.85,-87.85"/>
</g>
<!-- Node17 -->
<g id="node17" class="node">
<title>Node17</title>
<g id="a_node17"><a xlink:href="vector__concepts_8hpp.html" target="_top" xlink:title=" ">
<polygon fill="white" stroke="#666666" points="2091.5,-41 1981.5,-41 1981.5,0 2091.5,0 2091.5,-41"/>
<text text-anchor="start" x="1989.5" y="-29" font-family="Helvetica,sans-Serif" font-size="10.00">include/experimental</text>
<text text-anchor="start" x="1989.5" y="-18" font-family="Helvetica,sans-Serif" font-size="10.00">/linear_algebra/vector</text>
<text text-anchor="middle" x="2036.5" y="-7" font-family="Helvetica,sans-Serif" font-size="10.00">_concepts.hpp</text>
</a>
</g>
</g>
<!-- Node1&#45;&gt;Node17 -->
<g id="edge31" class="edge">
<title>Node1&#45;&gt;Node17</title>
<path fill="none" stroke="#63b8ff" d="M1190.84,-89.04C1360.15,-83.73 1814.78,-67.66 1963.5,-41 1969.22,-39.98 1975.14,-38.61 1981.04,-37.07"/>
<polygon fill="#63b8ff" stroke="#63b8ff" points="1190.75,-85.57 1180.87,-89.38 1190.97,-92.56 1190.75,-85.57"/>
</g>
<!-- Node18 -->
<g id="node18" class="node">
<title>Node18</title>
<g id="a_node18"><a xlink:href="vector__view_8hpp.html" target="_top" xlink:title=" ">
<polygon fill="white" stroke="#666666" points="2219.5,-41 2109.5,-41 2109.5,0 2219.5,0 2219.5,-41"/>
<text text-anchor="start" x="2117.5" y="-29" font-family="Helvetica,sans-Serif" font-size="10.00">include/experimental</text>
<text text-anchor="start" x="2117.5" y="-18" font-family="Helvetica,sans-Serif" font-size="10.00">/linear_algebra/vector</text>
<text text-anchor="middle" x="2164.5" y="-7" font-family="Helvetica,sans-Serif" font-size="10.00">_view.hpp</text>
</a>
</g>
</g>
<!-- Node1&#45;&gt;Node18 -->
<g id="edge33" class="edge">
<title>Node1&#45;&gt;Node18</title>
<path fill="none" stroke="#63b8ff" d="M1190.65,-89.66C1377.25,-85.57 1917.04,-71.58 2091.5,-41 2097.22,-40 2103.15,-38.64 2109.05,-37.11"/>
<polygon fill="#63b8ff" stroke="#63b8ff" points="1190.85,-86.18 1180.93,-89.9 1191,-93.18 1190.85,-86.18"/>
</g>
<!-- Node2&#45;&gt;Node1 -->
<g id="edge2" class="edge">
<title>Node2&#45;&gt;Node1</title>
<path fill="none" stroke="#63b8ff" d="M136.18,-39.89C138.31,-40.29 140.42,-40.67 142.5,-41 324.76,-70.26 895.57,-85.53 1073.24,-89.76"/>
<polygon fill="#63b8ff" stroke="#63b8ff" points="136.96,-36.27 126.46,-37.64 135.52,-43.12 136.96,-36.27"/>
</g>
<!-- Node3&#45;&gt;Node1 -->
<g id="edge4" class="edge">
<title>Node3&#45;&gt;Node1</title>
<path fill="none" stroke="#63b8ff" d="M272.9,-39.76C275.12,-40.21 277.32,-40.63 279.5,-41 433.77,-67.29 912.02,-84.12 1073.05,-89.3"/>
<polygon fill="#63b8ff" stroke="#63b8ff" points="273.93,-36.18 263.41,-37.42 272.4,-43.02 273.93,-36.18"/>
</g>
<!-- Node4&#45;&gt;Node1 -->
<g id="edge6" class="edge">
<title>Node4&#45;&gt;Node1</title>
<path fill="none" stroke="#63b8ff" d="M409.9,-39.73C412.12,-40.19 414.33,-40.62 416.5,-41 659.26,-83.76 954.18,-90.32 1073.12,-91.07"/>
<polygon fill="#63b8ff" stroke="#63b8ff" points="410.94,-36.15 400.42,-37.36 409.4,-42.98 410.94,-36.15"/>
</g>
<!-- Node5&#45;&gt;Node1 -->
<g id="edge8" class="edge">
<title>Node5&#45;&gt;Node1</title>
<path fill="none" stroke="#63b8ff" d="M546.96,-39.5C549.5,-40.04 552.02,-40.55 554.5,-41 743.48,-75.51 971.51,-86.33 1073.21,-89.62"/>
<polygon fill="#63b8ff" stroke="#63b8ff" points="547.96,-35.91 537.43,-37.07 546.39,-42.73 547.96,-35.91"/>
</g>
<!-- Node6&#45;&gt;Node1 -->
<g id="edge10" class="edge">
<title>Node6&#45;&gt;Node1</title>
<path fill="none" stroke="#63b8ff" d="M671.41,-39.39C673.8,-39.97 676.17,-40.51 678.5,-41 819.49,-70.59 988.85,-83.31 1073.33,-88.24"/>
<polygon fill="#63b8ff" stroke="#63b8ff" points="672.41,-35.77 661.85,-36.62 670.63,-42.54 672.41,-35.77"/>
</g>
<!-- Node7&#45;&gt;Node1 -->
<g id="edge12" class="edge">
<title>Node7&#45;&gt;Node1</title>
<path fill="none" stroke="#63b8ff" d="M795.43,-39.27C797.82,-39.88 800.18,-40.46 802.5,-41 896.92,-62.8 1008.67,-77.33 1073.28,-84.87"/>
<polygon fill="#63b8ff" stroke="#63b8ff" points="796.47,-35.65 785.9,-36.4 794.63,-42.4 796.47,-35.65"/>
</g>
<!-- Node8&#45;&gt;Node1 -->
<g id="edge14" class="edge">
<title>Node8&#45;&gt;Node1</title>
<path fill="none" stroke="#63b8ff" d="M919.08,-38.9C921.59,-39.62 924.07,-40.33 926.5,-41 975.94,-54.67 1032.57,-68.08 1073,-77.57"/>
<polygon fill="#63b8ff" stroke="#63b8ff" points="920.26,-35.3 909.67,-35.83 918.28,-42.02 920.26,-35.3"/>
</g>
<!-- Node9&#45;&gt;Node1 -->
<g id="edge16" class="edge">
<title>Node9&#45;&gt;Node1</title>
<path fill="none" stroke="#63b8ff" d="M1041.06,-46.01C1062.51,-56.24 1085.78,-67.77 1102.67,-76.6"/>
<polygon fill="#63b8ff" stroke="#63b8ff" points="1042.9,-42.53 1032.36,-41.42 1039.9,-48.86 1042.9,-42.53"/>
</g>
<!-- Node10&#45;&gt;Node1 -->
<g id="edge18" class="edge">
<title>Node10&#45;&gt;Node1</title>
<path fill="none" stroke="#63b8ff" d="M1133.21,-52.22C1133.38,-60.71 1133.01,-69.52 1132.09,-76.6"/>
<polygon fill="#63b8ff" stroke="#63b8ff" points="1136.66,-52.23 1132.67,-42.42 1129.67,-52.58 1136.66,-52.23"/>
</g>
<!-- Node11&#45;&gt;Node1 -->
<g id="edge20" class="edge">
<title>Node11&#45;&gt;Node1</title>
<path fill="none" stroke="#63b8ff" d="M1222.79,-46.43C1202.91,-56.55 1179.77,-67.89 1161.1,-76.6"/>
<polygon fill="#63b8ff" stroke="#63b8ff" points="1224.25,-49.1 1231.55,-41.42 1221.06,-42.87 1224.25,-49.1"/>
</g>
<!-- Node12&#45;&gt;Node1 -->
<g id="edge22" class="edge">
<title>Node12&#45;&gt;Node1</title>
<path fill="none" stroke="#63b8ff" d="M1328.7,-43.94C1277.52,-57.74 1220.47,-71.39 1179.95,-80.41"/>
<polygon fill="#63b8ff" stroke="#63b8ff" points="1329.45,-47.09 1338.18,-41.09 1327.62,-40.33 1329.45,-47.09"/>
</g>
<!-- Node13&#45;&gt;Node1 -->
<g id="edge24" class="edge">
<title>Node13&#45;&gt;Node1</title>
<path fill="none" stroke="#63b8ff" d="M1456.57,-43.4C1358.69,-64.56 1245.23,-78.96 1179.96,-86.01"/>
<polygon fill="#63b8ff" stroke="#63b8ff" points="1457.19,-46.63 1466.21,-41.07 1455.69,-39.8 1457.19,-46.63"/>
</g>
<!-- Node14&#45;&gt;Node1 -->
<g id="edge26" class="edge">
<title>Node14&#45;&gt;Node1</title>
<path fill="none" stroke="#63b8ff" d="M1586.53,-43.2C1439.57,-72.13 1265.82,-84.33 1179.9,-88.78"/>
<polygon fill="#63b8ff" stroke="#63b8ff" points="1586.95,-46.49 1596.06,-41.09 1585.57,-39.62 1586.95,-46.49"/>
</g>
<!-- Node15&#45;&gt;Node1 -->
<g id="edge28" class="edge">
<title>Node15&#45;&gt;Node1</title>
<path fill="none" stroke="#63b8ff" d="M1714.41,-43.1C1517.97,-79.56 1283.11,-88.27 1179.68,-90.35"/>
<polygon fill="#63b8ff" stroke="#63b8ff" points="1715.03,-46.35 1724.21,-41.06 1713.73,-39.47 1715.03,-46.35"/>
</g>
<!-- Node16&#45;&gt;Node1 -->
<g id="edge30" class="edge">
<title>Node16&#45;&gt;Node1</title>
<path fill="none" stroke="#63b8ff" d="M1842.55,-42.99C1596.12,-87.03 1299.22,-91.48 1179.86,-91.38"/>
<polygon fill="#63b8ff" stroke="#63b8ff" points="1842.92,-46.3 1852.14,-41.07 1841.67,-39.41 1842.92,-46.3"/>
</g>
<!-- Node17&#45;&gt;Node1 -->
<g id="edge32" class="edge">
<title>Node17&#45;&gt;Node1</title>
<path fill="none" stroke="#63b8ff" d="M1970.61,-42.85C1805.4,-69.42 1338.68,-85.06 1179.99,-89.61"/>
<polygon fill="#63b8ff" stroke="#63b8ff" points="1970.77,-46.2 1980.05,-41.08 1969.6,-39.3 1970.77,-46.2"/>
</g>
<!-- Node18&#45;&gt;Node1 -->
<g id="edge34" class="edge">
<title>Node18&#45;&gt;Node1</title>
<path fill="none" stroke="#63b8ff" d="M2098.49,-42.83C1906.91,-73.16 1354.36,-86.58 1179.88,-90.05"/>
<polygon fill="#63b8ff" stroke="#63b8ff" points="2098.94,-46.14 2108.24,-41.05 2097.8,-39.23 2098.94,-46.14"/>
</g>
</g>
</svg>
        <g id="navigator" transform="translate(0 0)" fill="#404254">
                <rect fill="#f2f5e9" fill-opacity="0.5" stroke="#606060" stroke-width=".5" x="0" y="0" width="60" height="60"/>
                <use id="zoomplus" xlink:href="#zoomPlus" x="17" y="9" onmousedown="handleZoom(evt,'in')"/>
                <use id="zoomminus" xlink:href="#zoomMin" x="42" y="9" onmousedown="handleZoom(evt,'out')"/>
                <use id="reset" xlink:href="#resetDef" x="30" y="36" onmousedown="handleReset()"/>
                <g id="arrowUp" xlink:href="#dirArrow" transform="translate(30 24)" onmousedown="handlePan(0,-1)">
                  <use xlink:href="#rim" fill="#404040">
                        <set attributeName="fill" to="#808080" begin="arrowUp.mouseover" end="arrowUp.mouseout"/>
                  </use>
                  <path fill="none" stroke="white" stroke-width="1.5" d="M0,-3.0v7 M-2.5,-0.5L0,-3.0L2.5,-0.5"/>
                </g>
                <g id="arrowRight" xlink:href="#dirArrow" transform="rotate(90) translate(36 -43)" onmousedown="handlePan(1,0)">
                  <use xlink:href="#rim" fill="#404040">
                        <set attributeName="fill" to="#808080" begin="arrowRight.mouseover" end="arrowRight.mouseout"/>
                  </use>
                  <path fill="none" stroke="white" stroke-width="1.5" d="M0,-3.0v7 M-2.5,-0.5L0,-3.0L2.5,-0.5"/>
                </g>
                <g id="arrowDown" xlink:href="#dirArrow" transform="rotate(180) translate(-30 -48)" onmousedown="handlePan(0,1)">
                  <use xlink:href="#rim" fill="#404040">
                        <set attributeName="fill" to="#808080" begin="arrowDown.mouseover" end="arrowDown.mouseout"/>
                  </use>
                  <path fill="none" stroke="white" stroke-width="1.5" d="M0,-3.0v7 M-2.5,-0.5L0,-3.0L2.5,-0.5"/>
                </g>
                <g id="arrowLeft" xlink:href="#dirArrow" transform="rotate(270) translate(-36 17)" onmousedown="handlePan(-1,0)">
                  <use xlink:href="#rim" fill="#404040">
                        <set attributeName="fill" to="#808080" begin="arrowLeft.mouseover" end="arrowLeft.mouseout"/>
                  </use>
                  <path fill="none" stroke="white" stroke-width="1.5" d="M0,-3.0v7 M-2.5,-0.5L0,-3.0L2.5,-0.5"/>
                </g>
        </g>
        <svg viewBox="0 0 15 15" width="100%" height="30px" preserveAspectRatio="xMaxYMin meet">
         <g id="arrow_out" transform="scale(0.3 0.3)">
          <a xlink:href="linear__algebra_8hpp__dep__incl_org.svg" target="_base">
           <rect id="button" ry="5" rx="5" y="6" x="6" height="38" width="38"
                fill="#f2f5e9" fill-opacity="0.5" stroke="#606060" stroke-width="1.0"/>
           <path id="arrow"
             d="M 11.500037,31.436501 C 11.940474,20.09759 22.043105,11.32322 32.158766,21.979434 L 37.068811,17.246167 C 37.068811,17.246167 37.088388,32 37.088388,32 L 22.160133,31.978069 C 22.160133,31.978069 26.997745,27.140456 26.997745,27.140456 C 18.528582,18.264221 13.291696,25.230495 11.500037,31.436501 z"
             style="fill:#404040;"/>
          </a>
         </g>
        </svg>
</svg>
