<?xml version="1.0" encoding="UTF-8" standalone="no"?>
<!DOCTYPE svg PUBLIC "-//W3C//DTD SVG 1.1//EN"
 "http://www.w3.org/Graphics/SVG/1.1/DTD/svg11.dtd">
<!-- Generated by graphviz version 2.43.0 (0)
 -->
<!-- Title: include/experimental/linear_algebra.hpp Pages: 1 -->
<svg width="2184pt" height="117pt"
 viewBox="0.00 0.00 2184.00 117.00" xmlns="http://www.w3.org/2000/svg" xmlns:xlink="http://www.w3.org/1999/xlink">
<g id="graph0" class="graph" transform="scale(1 1) rotate(0) translate(4 113)">
<title>include/experimental/linear_algebra.hpp</title>
<polygon fill="white" stroke="transparent" points="-4,4 -4,-113 2180,-113 2180,4 -4,4"/>
<!-- Node1 -->
<g id="node1" class="node">
<title>Node1</title>
<g id="a_node1"><a xlink:title=" ">
<polygon fill="#bfbfbf" stroke="black" points="1046.5,-78.5 1046.5,-108.5 1166.5,-108.5 1166.5,-78.5 1046.5,-78.5"/>
<text text-anchor="start" x="1054.5" y="-96.5" font-family="Helvetica,sans-Serif" font-size="10.00">include/experimental</text>
<text text-anchor="middle" x="1106.5" y="-85.5" font-family="Helvetica,sans-Serif" font-size="10.00">/linear_algebra.hpp</text>
</a>
</g>
</g>
<!-- Node2 -->
<g id="node2" class="node">
<title>Node2</title>
<g id="a_node2"><a xlink:href="arithmetic__operators_8hpp.html" target="_top" xlink:title=" ">
<polygon fill="white" stroke="black" points="0,-0.5 0,-41.5 143,-41.5 143,-0.5 0,-0.5"/>
<text text-anchor="start" x="8" y="-29.5" font-family="Helvetica,sans-Serif" font-size="10.00">include/experimental</text>
<text text-anchor="start" x="8" y="-18.5" font-family="Helvetica,sans-Serif" font-size="10.00">/linear_algebra/arithmetic</text>
<text text-anchor="middle" x="71.5" y="-7.5" font-family="Helvetica,sans-Serif" font-size="10.00">_operators.hpp</text>
</a>
</g>
</g>
<!-- Node1&#45;&gt;Node2 -->
<g id="edge1" class="edge">
<title>Node1&#45;&gt;Node2</title>
<path fill="none" stroke="midnightblue" d="M1036.29,-93.28C876.56,-94.21 474.6,-91.19 143.5,-42 142.5,-41.85 141.49,-41.7 140.48,-41.53"/>
<polygon fill="midnightblue" stroke="midnightblue" points="1036.48,-96.78 1046.46,-93.21 1036.44,-89.78 1036.48,-96.78"/>
</g>
<!-- Node3 -->
<g id="node3" class="node">
<title>Node3</title>
<g id="a_node3"><a xlink:href="dynamic__matrix_8hpp.html" target="_top" xlink:title=" ">
<polygon fill="white" stroke="black" points="161.5,-0.5 161.5,-41.5 295.5,-41.5 295.5,-0.5 161.5,-0.5"/>
<text text-anchor="start" x="169.5" y="-29.5" font-family="Helvetica,sans-Serif" font-size="10.00">include/experimental</text>
<text text-anchor="start" x="169.5" y="-18.5" font-family="Helvetica,sans-Serif" font-size="10.00">/linear_algebra/dynamic</text>
<text text-anchor="middle" x="228.5" y="-7.5" font-family="Helvetica,sans-Serif" font-size="10.00">_matrix.hpp</text>
</a>
</g>
</g>
<!-- Node1&#45;&gt;Node3 -->
<g id="edge3" class="edge">
<title>Node1&#45;&gt;Node3</title>
<path fill="none" stroke="midnightblue" d="M1036.03,-92.67C894.5,-92.08 566.41,-85.75 295.5,-42 294.56,-41.85 293.61,-41.69 292.66,-41.52"/>
<polygon fill="midnightblue" stroke="midnightblue" points="1036.29,-96.17 1046.31,-92.7 1036.32,-89.17 1036.29,-96.17"/>
</g>
<!-- Node4 -->
<g id="node4" class="node">
<title>Node4</title>
<g id="a_node4"><a xlink:href="dynamic__tensor_8hpp.html" target="_top" xlink:title=" ">
<polygon fill="white" stroke="black" points="313.5,-0.5 313.5,-41.5 447.5,-41.5 447.5,-0.5 313.5,-0.5"/>
<text text-anchor="start" x="321.5" y="-29.5" font-family="Helvetica,sans-Serif" font-size="10.00">include/experimental</text>
<text text-anchor="start" x="321.5" y="-18.5" font-family="Helvetica,sans-Serif" font-size="10.00">/linear_algebra/dynamic</text>
<text text-anchor="middle" x="380.5" y="-7.5" font-family="Helvetica,sans-Serif" font-size="10.00">_tensor.hpp</text>
</a>
</g>
</g>
<!-- Node1&#45;&gt;Node4 -->
<g id="edge5" class="edge">
<title>Node1&#45;&gt;Node4</title>
<path fill="none" stroke="midnightblue" d="M1036.06,-91.31C914.79,-88.29 659.51,-77.83 447.5,-42 446.56,-41.84 445.61,-41.68 444.66,-41.5"/>
<polygon fill="midnightblue" stroke="midnightblue" points="1036.23,-94.81 1046.32,-91.55 1036.4,-87.81 1036.23,-94.81"/>
</g>
<!-- Node5 -->
<g id="node5" class="node">
<title>Node5</title>
<g id="a_node5"><a xlink:href="dynamic__vector_8hpp.html" target="_top" xlink:title=" ">
<polygon fill="white" stroke="black" points="465.5,-0.5 465.5,-41.5 599.5,-41.5 599.5,-0.5 465.5,-0.5"/>
<text text-anchor="start" x="473.5" y="-29.5" font-family="Helvetica,sans-Serif" font-size="10.00">include/experimental</text>
<text text-anchor="start" x="473.5" y="-18.5" font-family="Helvetica,sans-Serif" font-size="10.00">/linear_algebra/dynamic</text>
<text text-anchor="middle" x="532.5" y="-7.5" font-family="Helvetica,sans-Serif" font-size="10.00">_vector.hpp</text>
</a>
</g>
</g>
<!-- Node1&#45;&gt;Node5 -->
<g id="edge7" class="edge">
<title>Node1&#45;&gt;Node5</title>
<path fill="none" stroke="midnightblue" d="M1036.31,-89.2C937.84,-83.58 753.73,-69.94 599.5,-42 598.69,-41.85 597.88,-41.7 597.07,-41.55"/>
<polygon fill="midnightblue" stroke="midnightblue" points="1036.26,-92.7 1046.44,-89.76 1036.65,-85.71 1036.26,-92.7"/>
</g>
<!-- Node6 -->
<g id="node6" class="node">
<title>Node6</title>
<g id="a_node6"><a xlink:href="fixed__size__matrix_8hpp.html" target="_top" xlink:title=" ">
<polygon fill="white" stroke="black" points="617.5,-0.5 617.5,-41.5 737.5,-41.5 737.5,-0.5 617.5,-0.5"/>
<text text-anchor="start" x="625.5" y="-29.5" font-family="Helvetica,sans-Serif" font-size="10.00">include/experimental</text>
<text text-anchor="start" x="625.5" y="-18.5" font-family="Helvetica,sans-Serif" font-size="10.00">/linear_algebra/fixed</text>
<text text-anchor="middle" x="677.5" y="-7.5" font-family="Helvetica,sans-Serif" font-size="10.00">_size_matrix.hpp</text>
</a>
</g>
</g>
<!-- Node1&#45;&gt;Node6 -->
<g id="edge9" class="edge">
<title>Node1&#45;&gt;Node6</title>
<path fill="none" stroke="midnightblue" d="M1035.99,-86.32C961.17,-78.68 840.06,-63.94 737.5,-42 736.77,-41.84 736.03,-41.68 735.29,-41.52"/>
<polygon fill="midnightblue" stroke="midnightblue" points="1035.93,-89.83 1046.23,-87.35 1036.63,-82.86 1035.93,-89.83"/>
</g>
<!-- Node7 -->
<g id="node7" class="node">
<title>Node7</title>
<g id="a_node7"><a xlink:href="fixed__size__tensor_8hpp.html" target="_top" xlink:title=" ">
<polygon fill="white" stroke="black" points="755.5,-0.5 755.5,-41.5 875.5,-41.5 875.5,-0.5 755.5,-0.5"/>
<text text-anchor="start" x="763.5" y="-29.5" font-family="Helvetica,sans-Serif" font-size="10.00">include/experimental</text>
<text text-anchor="start" x="763.5" y="-18.5" font-family="Helvetica,sans-Serif" font-size="10.00">/linear_algebra/fixed</text>
<text text-anchor="middle" x="815.5" y="-7.5" font-family="Helvetica,sans-Serif" font-size="10.00">_size_tensor.hpp</text>
</a>
</g>
</g>
<!-- Node1&#45;&gt;Node7 -->
<g id="edge11" class="edge">
<title>Node1&#45;&gt;Node7</title>
<path fill="none" stroke="midnightblue" d="M1036.29,-79.27C990.23,-69.6 928.98,-55.82 875.5,-42 874.9,-41.84 874.29,-41.69 873.68,-41.53"/>
<polygon fill="midnightblue" stroke="midnightblue" points="1035.67,-82.71 1046.17,-81.33 1037.1,-75.86 1035.67,-82.71"/>
</g>
<!-- Node8 -->
<g id="node8" class="node">
<title>Node8</title>
<g id="a_node8"><a xlink:href="fixed__size__vector_8hpp.html" target="_top" xlink:title=" ">
<polygon fill="white" stroke="black" points="893.5,-0.5 893.5,-41.5 1013.5,-41.5 1013.5,-0.5 893.5,-0.5"/>
<text text-anchor="start" x="901.5" y="-29.5" font-family="Helvetica,sans-Serif" font-size="10.00">include/experimental</text>
<text text-anchor="start" x="901.5" y="-18.5" font-family="Helvetica,sans-Serif" font-size="10.00">/linear_algebra/fixed</text>
<text text-anchor="middle" x="953.5" y="-7.5" font-family="Helvetica,sans-Serif" font-size="10.00">_size_vector.hpp</text>
</a>
</g>
</g>
<!-- Node1&#45;&gt;Node8 -->
<g id="edge13" class="edge">
<title>Node1&#45;&gt;Node8</title>
<path fill="none" stroke="midnightblue" d="M1060.93,-74.26C1038.19,-64.23 1011.13,-51.78 989.8,-41.55"/>
<polygon fill="midnightblue" stroke="midnightblue" points="1059.82,-77.6 1070.38,-78.4 1062.62,-71.19 1059.82,-77.6"/>
</g>
<!-- Node9 -->
<g id="node9" class="node">
<title>Node9</title>
<g id="a_node9"><a xlink:href="instant__evaluated__operations_8hpp.html" target="_top" xlink:title=" ">
<polygon fill="white" stroke="black" points="1032,-0.5 1032,-41.5 1181,-41.5 1181,-0.5 1032,-0.5"/>
<text text-anchor="start" x="1040" y="-29.5" font-family="Helvetica,sans-Serif" font-size="10.00">include/experimental</text>
<text text-anchor="start" x="1040" y="-18.5" font-family="Helvetica,sans-Serif" font-size="10.00">/linear_algebra/instant</text>
<text text-anchor="middle" x="1106.5" y="-7.5" font-family="Helvetica,sans-Serif" font-size="10.00">_evaluated_operations.hpp</text>
</a>
</g>
</g>
<!-- Node1&#45;&gt;Node9 -->
<g id="edge15" class="edge">
<title>Node1&#45;&gt;Node9</title>
<path fill="none" stroke="midnightblue" d="M1100.05,-68.27C1099.56,-59.56 1099.67,-49.85 1100.38,-41.59"/>
<polygon fill="midnightblue" stroke="midnightblue" points="1096.57,-68.59 1100.95,-78.23 1103.54,-67.96 1096.57,-68.59"/>
</g>
<!-- Node10 -->
<g id="node10" class="node">
<title>Node10</title>
<g id="a_node10"><a xlink:href="matrix__concepts_8hpp.html" target="_top" xlink:title=" ">
<polygon fill="white" stroke="black" points="1199,-0.5 1199,-41.5 1324,-41.5 1324,-0.5 1199,-0.5"/>
<text text-anchor="start" x="1207" y="-29.5" font-family="Helvetica,sans-Serif" font-size="10.00">include/experimental</text>
<text text-anchor="start" x="1207" y="-18.5" font-family="Helvetica,sans-Serif" font-size="10.00">/linear_algebra/matrix</text>
<text text-anchor="middle" x="1261.5" y="-7.5" font-family="Helvetica,sans-Serif" font-size="10.00">_concepts.hpp</text>
</a>
</g>
</g>
<!-- Node1&#45;&gt;Node10 -->
<g id="edge17" class="edge">
<title>Node1&#45;&gt;Node10</title>
<path fill="none" stroke="midnightblue" d="M1141.16,-74C1162.18,-64.01 1189.24,-51.69 1212.41,-41.55"/>
<polygon fill="midnightblue" stroke="midnightblue" points="1139.47,-70.92 1131.97,-78.4 1142.5,-77.24 1139.47,-70.92"/>
</g>
<!-- Node11 -->
<g id="node11" class="node">
<title>Node11</title>
<g id="a_node11"><a xlink:href="matrix__view_8hpp.html" target="_top" xlink:title=" ">
<polygon fill="white" stroke="black" points="1342,-0.5 1342,-41.5 1467,-41.5 1467,-0.5 1342,-0.5"/>
<text text-anchor="start" x="1350" y="-29.5" font-family="Helvetica,sans-Serif" font-size="10.00">include/experimental</text>
<text text-anchor="start" x="1350" y="-18.5" font-family="Helvetica,sans-Serif" font-size="10.00">/linear_algebra/matrix</text>
<text text-anchor="middle" x="1404.5" y="-7.5" font-family="Helvetica,sans-Serif" font-size="10.00">_view.hpp</text>
</a>
</g>
</g>
<!-- Node1&#45;&gt;Node11 -->
<g id="edge19" class="edge">
<title>Node1&#45;&gt;Node11</title>
<path fill="none" stroke="midnightblue" d="M1176.4,-76.31C1219.26,-66.89 1275.1,-54.44 1324.5,-42 1330.09,-40.59 1335.91,-39.06 1341.75,-37.49"/>
<polygon fill="midnightblue" stroke="midnightblue" points="1175.64,-72.89 1166.62,-78.45 1177.14,-79.73 1175.64,-72.89"/>
</g>
<!-- Node12 -->
<g id="node12" class="node">
<title>Node12</title>
<g id="a_node12"><a xlink:href="private__support_8hpp.html" target="_top" xlink:title=" ">
<polygon fill="white" stroke="black" points="1485,-0.5 1485,-41.5 1612,-41.5 1612,-0.5 1485,-0.5"/>
<text text-anchor="start" x="1493" y="-29.5" font-family="Helvetica,sans-Serif" font-size="10.00">include/experimental</text>
<text text-anchor="start" x="1493" y="-18.5" font-family="Helvetica,sans-Serif" font-size="10.00">/linear_algebra/private</text>
<text text-anchor="middle" x="1548.5" y="-7.5" font-family="Helvetica,sans-Serif" font-size="10.00">_support.hpp</text>
</a>
</g>
</g>
<!-- Node1&#45;&gt;Node12 -->
<g id="edge21" class="edge">
<title>Node1&#45;&gt;Node12</title>
<path fill="none" stroke="midnightblue" d="M1176.57,-85.07C1249.65,-77.08 1367.13,-62.69 1467.5,-42 1473.09,-40.85 1478.89,-39.5 1484.7,-38.06"/>
<polygon fill="midnightblue" stroke="midnightblue" points="1176.12,-81.59 1166.56,-86.15 1176.88,-88.55 1176.12,-81.59"/>
</g>
<!-- Node13 -->
<g id="node13" class="node">
<title>Node13</title>
<g id="a_node13"><a xlink:href="tensor__concepts_8hpp.html" target="_top" xlink:title=" ">
<polygon fill="white" stroke="black" points="1630,-0.5 1630,-41.5 1753,-41.5 1753,-0.5 1630,-0.5"/>
<text text-anchor="start" x="1638" y="-29.5" font-family="Helvetica,sans-Serif" font-size="10.00">include/experimental</text>
<text text-anchor="start" x="1638" y="-18.5" font-family="Helvetica,sans-Serif" font-size="10.00">/linear_algebra/tensor</text>
<text text-anchor="middle" x="1691.5" y="-7.5" font-family="Helvetica,sans-Serif" font-size="10.00">_concepts.hpp</text>
</a>
</g>
</g>
<!-- Node1&#45;&gt;Node13 -->
<g id="edge23" class="edge">
<title>Node1&#45;&gt;Node13</title>
<path fill="none" stroke="midnightblue" d="M1176.76,-89.32C1275,-84.13 1458.43,-71.31 1612.5,-42 1618.09,-40.94 1623.87,-39.63 1629.66,-38.2"/>
<polygon fill="midnightblue" stroke="midnightblue" points="1176.46,-85.83 1166.65,-89.84 1176.82,-92.82 1176.46,-85.83"/>
</g>
<!-- Node14 -->
<g id="node14" class="node">
<title>Node14</title>
<g id="a_node14"><a xlink:href="tensor__view_8hpp.html" target="_top" xlink:title=" ">
<polygon fill="white" stroke="black" points="1771,-0.5 1771,-41.5 1894,-41.5 1894,-0.5 1771,-0.5"/>
<text text-anchor="start" x="1779" y="-29.5" font-family="Helvetica,sans-Serif" font-size="10.00">include/experimental</text>
<text text-anchor="start" x="1779" y="-18.5" font-family="Helvetica,sans-Serif" font-size="10.00">/linear_algebra/tensor</text>
<text text-anchor="middle" x="1832.5" y="-7.5" font-family="Helvetica,sans-Serif" font-size="10.00">_view.hpp</text>
</a>
</g>
</g>
<!-- Node1&#45;&gt;Node14 -->
<g id="edge25" class="edge">
<title>Node1&#45;&gt;Node14</title>
<path fill="none" stroke="midnightblue" d="M1177.03,-91.6C1296.57,-89.04 1545.93,-79.25 1753.5,-42 1759.1,-41 1764.89,-39.73 1770.69,-38.32"/>
<polygon fill="midnightblue" stroke="midnightblue" points="1176.84,-88.1 1166.91,-91.8 1176.98,-95.1 1176.84,-88.1"/>
</g>
<!-- Node15 -->
<g id="node15" class="node">
<title>Node15</title>
<g id="a_node15"><a xlink:href="vector__concepts_8hpp.html" target="_top" xlink:title=" ">
<polygon fill="white" stroke="black" points="1912,-0.5 1912,-41.5 2035,-41.5 2035,-0.5 1912,-0.5"/>
<text text-anchor="start" x="1920" y="-29.5" font-family="Helvetica,sans-Serif" font-size="10.00">include/experimental</text>
<text text-anchor="start" x="1920" y="-18.5" font-family="Helvetica,sans-Serif" font-size="10.00">/linear_algebra/vector</text>
<text text-anchor="middle" x="1973.5" y="-7.5" font-family="Helvetica,sans-Serif" font-size="10.00">_concepts.hpp</text>
</a>
</g>
</g>
<!-- Node1&#45;&gt;Node15 -->
<g id="edge27" class="edge">
<title>Node1&#45;&gt;Node15</title>
<path fill="none" stroke="midnightblue" d="M1176.76,-93.09C1315.2,-93.02 1632.25,-87.23 1894.5,-42 1900.1,-41.03 1905.9,-39.79 1911.7,-38.39"/>
<polygon fill="midnightblue" stroke="midnightblue" points="1176.7,-89.59 1166.7,-93.09 1176.7,-96.59 1176.7,-89.59"/>
</g>
<!-- Node16 -->
<g id="node16" class="node">
<title>Node16</title>
<g id="a_node16"><a xlink:href="vector__view_8hpp.html" target="_top" xlink:title=" ">
<polygon fill="white" stroke="black" points="2053,-0.5 2053,-41.5 2176,-41.5 2176,-0.5 2053,-0.5"/>
<text text-anchor="start" x="2061" y="-29.5" font-family="Helvetica,sans-Serif" font-size="10.00">include/experimental</text>
<text text-anchor="start" x="2061" y="-18.5" font-family="Helvetica,sans-Serif" font-size="10.00">/linear_algebra/vector</text>
<text text-anchor="middle" x="2114.5" y="-7.5" font-family="Helvetica,sans-Serif" font-size="10.00">_view.hpp</text>
</a>
</g>
</g>
<!-- Node1&#45;&gt;Node16 -->
<g id="edge29" class="edge">
<title>Node1&#45;&gt;Node16</title>
<path fill="none" stroke="midnightblue" d="M1176.99,-90.64C1364.11,-85.52 1869.95,-69.74 2035.5,-42 2041.11,-41.06 2046.91,-39.83 2052.71,-38.45"/>
<polygon fill="midnightblue" stroke="midnightblue" points="1176.62,-87.15 1166.72,-90.92 1176.81,-94.15 1176.62,-87.15"/>
</g>
<!-- Node2&#45;&gt;Node1 -->
<g id="edge2" class="edge">
<title>Node2&#45;&gt;Node1</title>
<path fill="none" stroke="midnightblue" d="M152.92,-40.59C155.81,-41.11 158.68,-41.58 161.5,-42 493.3,-91.29 896.28,-94.22 1046.44,-93.28"/>
<polygon fill="midnightblue" stroke="midnightblue" points="153.5,-37.14 143.02,-38.69 152.18,-44.01 153.5,-37.14"/>
</g>
<!-- Node3&#45;&gt;Node1 -->
<g id="edge4" class="edge">
<title>Node3&#45;&gt;Node1</title>
<path fill="none" stroke="midnightblue" d="M305.52,-40.58C308.21,-41.1 310.88,-41.58 313.5,-42 584.82,-85.82 913.49,-92.1 1046.47,-92.67"/>
<polygon fill="midnightblue" stroke="midnightblue" points="306.22,-37.15 295.72,-38.55 304.8,-44.01 306.22,-37.15"/>
</g>
<!-- Node4&#45;&gt;Node1 -->
<g id="edge6" class="edge">
<title>Node4&#45;&gt;Node1</title>
<path fill="none" stroke="midnightblue" d="M457.53,-40.54C460.22,-41.07 462.88,-41.56 465.5,-42 677.27,-77.79 932.21,-88.27 1046.32,-91.3"/>
<polygon fill="midnightblue" stroke="midnightblue" points="458.24,-37.11 447.73,-38.47 456.79,-43.96 458.24,-37.11"/>
</g>
<!-- Node5&#45;&gt;Node1 -->
<g id="edge8" class="edge">
<title>Node5&#45;&gt;Node1</title>
<path fill="none" stroke="midnightblue" d="M609.54,-40.46C612.23,-41.01 614.88,-41.53 617.5,-42 770.78,-69.76 953.56,-83.41 1046.3,-89.09"/>
<polygon fill="midnightblue" stroke="midnightblue" points="610.27,-37.03 599.76,-38.33 608.78,-43.87 610.27,-37.03"/>
</g>
<!-- Node6&#45;&gt;Node1 -->
<g id="edge10" class="edge">
<title>Node6&#45;&gt;Node1</title>
<path fill="none" stroke="midnightblue" d="M747.59,-40.21C750.26,-40.84 752.9,-41.44 755.5,-42 856.71,-63.65 975.99,-78.29 1046.28,-86.01"/>
<polygon fill="midnightblue" stroke="midnightblue" points="748.41,-36.8 737.86,-37.77 746.71,-43.59 748.41,-36.8"/>
</g>
<!-- Node7&#45;&gt;Node1 -->
<g id="edge12" class="edge">
<title>Node7&#45;&gt;Node1</title>
<path fill="none" stroke="midnightblue" d="M885.49,-39.89C888.2,-40.61 890.87,-41.32 893.5,-42 945.55,-55.45 1004.95,-68.86 1047.85,-78.48"/>
<polygon fill="midnightblue" stroke="midnightblue" points="886.16,-36.44 875.59,-37.19 884.32,-43.2 886.16,-36.44"/>
</g>
<!-- Node8&#45;&gt;Node1 -->
<g id="edge14" class="edge">
<title>Node8&#45;&gt;Node1</title>
<path fill="none" stroke="midnightblue" d="M1011.18,-45.62C1035.43,-56.5 1062.34,-69.03 1081.43,-78.4"/>
<polygon fill="midnightblue" stroke="midnightblue" points="1012.59,-42.42 1002.04,-41.55 1009.74,-48.82 1012.59,-42.42"/>
</g>
<!-- Node9&#45;&gt;Node1 -->
<g id="edge16" class="edge">
<title>Node9&#45;&gt;Node1</title>
<path fill="none" stroke="midnightblue" d="M1113.17,-51.63C1113.43,-60.84 1113.05,-70.57 1112.05,-78.23"/>
<polygon fill="midnightblue" stroke="midnightblue" points="1116.66,-51.38 1112.62,-41.59 1109.68,-51.77 1116.66,-51.38"/>
</g>
<!-- Node10&#45;&gt;Node1 -->
<g id="edge18" class="edge">
<title>Node10&#45;&gt;Node1</title>
<path fill="none" stroke="midnightblue" d="M1215.36,-45.91C1192.23,-56.72 1164.67,-69.11 1143.02,-78.4"/>
<polygon fill="midnightblue" stroke="midnightblue" points="1217.08,-48.97 1224.64,-41.55 1214.1,-42.63 1217.08,-48.97"/>
</g>
<!-- Node11&#45;&gt;Node1 -->
<g id="edge20" class="edge">
<title>Node11&#45;&gt;Node1</title>
<path fill="none" stroke="midnightblue" d="M1334.63,-43.96C1276.01,-58.5 1212.04,-72.39 1166.58,-81.59"/>
<polygon fill="midnightblue" stroke="midnightblue" points="1335.52,-47.35 1344.37,-41.53 1333.82,-40.56 1335.52,-47.35"/>
</g>
<!-- Node12&#45;&gt;Node1 -->
<g id="edge22" class="edge">
<title>Node12&#45;&gt;Node1</title>
<path fill="none" stroke="midnightblue" d="M1477.77,-43.56C1366.52,-65.82 1239.7,-80.35 1166.61,-87.44"/>
<polygon fill="midnightblue" stroke="midnightblue" points="1478.69,-46.94 1487.8,-41.52 1477.3,-40.08 1478.69,-46.94"/>
</g>
<!-- Node13&#45;&gt;Node1 -->
<g id="edge24" class="edge">
<title>Node13&#45;&gt;Node1</title>
<path fill="none" stroke="midnightblue" d="M1622.86,-43.42C1456.81,-74.05 1262.7,-86.09 1166.52,-90.39"/>
<polygon fill="midnightblue" stroke="midnightblue" points="1623.56,-46.84 1632.74,-41.56 1622.27,-39.96 1623.56,-46.84"/>
</g>
<!-- Node14&#45;&gt;Node1 -->
<g id="edge26" class="edge">
<title>Node14&#45;&gt;Node1</title>
<path fill="none" stroke="midnightblue" d="M1763.98,-43.31C1543.37,-81.75 1282.57,-90.15 1166.81,-91.99"/>
<polygon fill="midnightblue" stroke="midnightblue" points="1764.89,-46.7 1774.13,-41.51 1763.67,-39.81 1764.89,-46.7"/>
</g>
<!-- Node15&#45;&gt;Node1 -->
<g id="edge28" class="edge">
<title>Node15&#45;&gt;Node1</title>
<path fill="none" stroke="midnightblue" d="M1904.92,-43.27C1629.03,-89.58 1299.86,-93.5 1166.66,-93.06"/>
<polygon fill="midnightblue" stroke="midnightblue" points="1905.86,-46.66 1915.13,-41.53 1904.68,-39.76 1905.86,-46.66"/>
</g>
<!-- Node16&#45;&gt;Node1 -->
<g id="edge30" class="edge">
<title>Node16&#45;&gt;Node1</title>
<path fill="none" stroke="midnightblue" d="M2046.09,-43.15C1862.57,-71.28 1343.88,-86.67 1166.64,-91.13"/>
<polygon fill="midnightblue" stroke="midnightblue" points="2046.81,-46.58 2056.13,-41.54 2045.7,-39.67 2046.81,-46.58"/>
</g>
</g>
</svg>
