<?xml version="1.0" encoding="UTF-8" standalone="no"?>
<!DOCTYPE svg PUBLIC "-//W3C//DTD SVG 1.1//EN"
 "http://www.w3.org/Graphics/SVG/1.1/DTD/svg11.dtd">
<!-- Generated by graphviz version 2.43.0 (0)
 -->
<!-- Title: include/experimental/linear_algebra/matrix_concepts.hpp Pages: 1 -->
<!--zoomable 240 -->
<svg id="main" version="1.1" xmlns="http://www.w3.org/2000/svg" xmlns:xlink="http://www.w3.org/1999/xlink" xml:space="preserve" onload="init(evt)">
<style type="text/css"><![CDATA[
.edge:hover path { stroke: red; }
.edge:hover polygon { stroke: red; fill: red; }
]]></style>
<script type="text/javascript"><![CDATA[
var edges = document.getElementsByTagName('g');
if (edges && edges.length) {
  for (var i=0;i<edges.length;i++) {
    if (edges[i].id.substr(0,4)=='edge') {
      edges[i].setAttribute('class','edge');
    }
  }
}
]]></script>
        <defs>
                <circle id="rim" cx="0" cy="0" r="7"/>
                <circle id="rim2" cx="0" cy="0" r="3.5"/>
                <g id="zoomPlus">
                        <use xlink:href="#rim" fill="#404040">
                                <set attributeName="fill" to="#808080" begin="zoomplus.mouseover" end="zoomplus.mouseout"/>
                        </use>
                        <path d="M-4,0h8M0,-4v8" fill="none" stroke="white" stroke-width="1.5" pointer-events="none"/>
                </g>
                <g id="zoomMin">
                        <use xlink:href="#rim" fill="#404040">
                                <set attributeName="fill" to="#808080" begin="zoomminus.mouseover" end="zoomminus.mouseout"/>
                        </use>
                        <path d="M-4,0h8" fill="none" stroke="white" stroke-width="1.5" pointer-events="none"/>
                </g>
                <g id="dirArrow">
                        <path fill="none" stroke="white" stroke-width="1.5" d="M0,-3.0v7 M-2.5,-0.5L0,-3.0L2.5,-0.5"/>
                </g>
               <g id="resetDef">
                       <use xlink:href="#rim2" fill="#404040">
                               <set attributeName="fill" to="#808080" begin="reset.mouseover" end="reset.mouseout"/>
                       </use>
               </g>
        </defs>

<script type="text/javascript">
var viewWidth = 3152;
var viewHeight = 240;
var sectionId = 'dynsection-0';
</script>
<script xlink:href="svgpan.js"/>
<svg id="graph" class="graph">
<g id="viewport">
<title>include/experimental/linear_algebra/matrix_concepts.hpp</title>
<polygon fill="white" stroke="transparent" points="-4,4 -4,-236 3148,-236 3148,4 -4,4"/>
<!-- Node1 -->
<g id="node1" class="node">
<title>Node1</title>
<g id="a_node1"><a xlink:title=" ">
<polygon fill="#bfbfbf" stroke="black" points="1577.5,-190.5 1577.5,-231.5 1702.5,-231.5 1702.5,-190.5 1577.5,-190.5"/>
<text text-anchor="start" x="1585.5" y="-219.5" font-family="Helvetica,sans-Serif" font-size="10.00">include/experimental</text>
<text text-anchor="start" x="1585.5" y="-208.5" font-family="Helvetica,sans-Serif" font-size="10.00">/linear_algebra/matrix</text>
<text text-anchor="middle" x="1640" y="-197.5" font-family="Helvetica,sans-Serif" font-size="10.00">_concepts.hpp</text>
</a>
</g>
</g>
<!-- Node2 -->
<g id="node2" class="node">
<title>Node2</title>
<g id="a_node2"><a xlink:href="linear__algebra_8hpp.html" target="_top" xlink:title=" ">
<polygon fill="white" stroke="black" points="1583.5,-123.5 1583.5,-153.5 1696.5,-153.5 1696.5,-123.5 1583.5,-123.5"/>
<text text-anchor="start" x="1591.5" y="-141.5" font-family="Helvetica,sans-Serif" font-size="10.00">experimental/linear</text>
<text text-anchor="middle" x="1640" y="-130.5" font-family="Helvetica,sans-Serif" font-size="10.00">_algebra.hpp</text>
</a>
</g>
</g>
<!-- Node1&#45;&gt;Node2 -->
<g id="edge1" class="edge">
<title>Node1&#45;&gt;Node2</title>
<path fill="none" stroke="midnightblue" d="M1633.88,-190.36C1633.18,-182.23 1633.06,-172.7 1633.53,-164.11"/>
<polygon fill="midnightblue" stroke="midnightblue" points="1637.04,-164.16 1634.44,-153.89 1630.07,-163.54 1637.04,-164.16"/>
</g>
<!-- Node2&#45;&gt;Node1 -->
<g id="edge24" class="edge">
<title>Node2&#45;&gt;Node1</title>
<path fill="none" stroke="midnightblue" d="M1645.56,-153.89C1646.56,-161.53 1646.93,-171.21 1646.67,-180.38"/>
<polygon fill="midnightblue" stroke="midnightblue" points="1643.18,-180.18 1646.12,-190.36 1650.17,-180.57 1643.18,-180.18"/>
</g>
<!-- Node3 -->
<g id="node3" class="node">
<title>Node3</title>
<g id="a_node3"><a xlink:title=" ">
<polygon fill="white" stroke="#bfbfbf" points="0,-62 0,-81 64,-81 64,-62 0,-62"/>
<text text-anchor="middle" x="32" y="-69" font-family="Helvetica,sans-Serif" font-size="10.00">algorithm</text>
</a>
</g>
</g>
<!-- Node2&#45;&gt;Node3 -->
<g id="edge2" class="edge">
<title>Node2&#45;&gt;Node3</title>
<path fill="none" stroke="midnightblue" d="M1583.25,-136.7C1319.91,-132.87 223.46,-115.32 73,-87 69.48,-86.34 65.86,-85.42 62.29,-84.37"/>
<polygon fill="midnightblue" stroke="midnightblue" points="63.11,-80.96 52.52,-81.15 60.92,-87.6 63.11,-80.96"/>
</g>
<!-- Node4 -->
<g id="node4" class="node">
<title>Node4</title>
<g id="a_node4"><a xlink:title=" ">
<polygon fill="white" stroke="#bfbfbf" points="82,-62 82,-81 124,-81 124,-62 82,-62"/>
<text text-anchor="middle" x="103" y="-69" font-family="Helvetica,sans-Serif" font-size="10.00">array</text>
</a>
</g>
</g>
<!-- Node2&#45;&gt;Node4 -->
<g id="edge3" class="edge">
<title>Node2&#45;&gt;Node4</title>
<path fill="none" stroke="midnightblue" d="M1583.21,-136.99C1325.89,-134.48 275.57,-122.17 133,-87 131.02,-86.51 129.02,-85.88 127.03,-85.16"/>
<polygon fill="midnightblue" stroke="midnightblue" points="128.06,-81.79 117.49,-81.01 125.26,-88.21 128.06,-81.79"/>
</g>
<!-- Node5 -->
<g id="node5" class="node">
<title>Node5</title>
<g id="a_node5"><a xlink:title=" ">
<polygon fill="white" stroke="#bfbfbf" points="142,-62 142,-81 202,-81 202,-62 142,-62"/>
<text text-anchor="middle" x="172" y="-69" font-family="Helvetica,sans-Serif" font-size="10.00">concepts</text>
</a>
</g>
</g>
<!-- Node2&#45;&gt;Node5 -->
<g id="edge4" class="edge">
<title>Node2&#45;&gt;Node5</title>
<path fill="none" stroke="midnightblue" d="M1583.49,-137.85C1352.76,-138.9 481.56,-139.28 212,-87 208.56,-86.33 205.02,-85.42 201.54,-84.36"/>
<polygon fill="midnightblue" stroke="midnightblue" points="202.6,-81.03 192,-81.13 200.35,-87.66 202.6,-81.03"/>
</g>
<!-- Node6 -->
<g id="node6" class="node">
<title>Node6</title>
<g id="a_node6"><a xlink:title=" ">
<polygon fill="white" stroke="#bfbfbf" points="220.5,-62 220.5,-81 279.5,-81 279.5,-62 220.5,-62"/>
<text text-anchor="middle" x="250" y="-69" font-family="Helvetica,sans-Serif" font-size="10.00">complex</text>
</a>
</g>
</g>
<!-- Node2&#45;&gt;Node6 -->
<g id="edge5" class="edge">
<title>Node2&#45;&gt;Node6</title>
<path fill="none" stroke="midnightblue" d="M1583.15,-137.78C1359.82,-138.49 542.49,-137.51 289,-87 285.74,-86.35 282.39,-85.47 279.1,-84.45"/>
<polygon fill="midnightblue" stroke="midnightblue" points="280.08,-81.09 269.49,-81.13 277.79,-87.71 280.08,-81.09"/>
</g>
<!-- Node7 -->
<g id="node7" class="node">
<title>Node7</title>
<g id="a_node7"><a xlink:title=" ">
<polygon fill="white" stroke="#bfbfbf" points="297.5,-62 297.5,-81 350.5,-81 350.5,-62 297.5,-62"/>
<text text-anchor="middle" x="324" y="-69" font-family="Helvetica,sans-Serif" font-size="10.00">cstddef</text>
</a>
</g>
</g>
<!-- Node2&#45;&gt;Node7 -->
<g id="edge6" class="edge">
<title>Node2&#45;&gt;Node7</title>
<path fill="none" stroke="midnightblue" d="M1583.18,-137.84C1367.32,-138.71 598.39,-138.1 360,-87 357.16,-86.39 354.25,-85.58 351.39,-84.64"/>
<polygon fill="midnightblue" stroke="midnightblue" points="352.52,-81.33 341.93,-81.13 350.09,-87.89 352.52,-81.33"/>
</g>
<!-- Node8 -->
<g id="node8" class="node">
<title>Node8</title>
<g id="a_node8"><a xlink:title=" ">
<polygon fill="white" stroke="#bfbfbf" points="369,-62 369,-81 433,-81 433,-62 369,-62"/>
<text text-anchor="middle" x="401" y="-69" font-family="Helvetica,sans-Serif" font-size="10.00">execution</text>
</a>
</g>
</g>
<!-- Node2&#45;&gt;Node8 -->
<g id="edge7" class="edge">
<title>Node2&#45;&gt;Node8</title>
<path fill="none" stroke="midnightblue" d="M1583.43,-137.28C1377.14,-136.15 665.75,-129.22 443,-87 439.3,-86.3 435.47,-85.34 431.72,-84.24"/>
<polygon fill="midnightblue" stroke="midnightblue" points="432.63,-80.86 422.04,-81.1 430.47,-87.51 432.63,-80.86"/>
</g>
<!-- Node9 -->
<g id="node9" class="node">
<title>Node9</title>
<g id="a_node9"><a xlink:title=" ">
<polygon fill="white" stroke="#bfbfbf" points="451.5,-62 451.5,-81 516.5,-81 516.5,-62 451.5,-62"/>
<text text-anchor="middle" x="484" y="-69" font-family="Helvetica,sans-Serif" font-size="10.00">exception</text>
</a>
</g>
</g>
<!-- Node2&#45;&gt;Node9 -->
<g id="edge8" class="edge">
<title>Node2&#45;&gt;Node9</title>
<path fill="none" stroke="midnightblue" d="M1583.32,-137.07C1386.27,-135.26 731.85,-126.35 526,-87 522.3,-86.29 518.48,-85.33 514.72,-84.23"/>
<polygon fill="midnightblue" stroke="midnightblue" points="515.64,-80.84 505.04,-81.09 513.48,-87.5 515.64,-80.84"/>
</g>
<!-- Node10 -->
<g id="node10" class="node">
<title>Node10</title>
<g id="a_node10"><a xlink:title=" ">
<polygon fill="white" stroke="#bfbfbf" points="534.5,-62 534.5,-81 599.5,-81 599.5,-62 534.5,-62"/>
<text text-anchor="middle" x="567" y="-69" font-family="Helvetica,sans-Serif" font-size="10.00">functional</text>
</a>
</g>
</g>
<!-- Node2&#45;&gt;Node10 -->
<g id="edge9" class="edge">
<title>Node2&#45;&gt;Node10</title>
<path fill="none" stroke="midnightblue" d="M1583.36,-136.83C1396.1,-134.3 798.05,-123.49 609,-87 605.3,-86.29 601.48,-85.32 597.72,-84.21"/>
<polygon fill="midnightblue" stroke="midnightblue" points="598.64,-80.83 588.05,-81.07 596.48,-87.49 598.64,-80.83"/>
</g>
<!-- Node11 -->
<g id="node11" class="node">
<title>Node11</title>
<g id="a_node11"><a xlink:title=" ">
<polygon fill="white" stroke="#bfbfbf" points="618,-62 618,-81 676,-81 676,-62 618,-62"/>
<text text-anchor="middle" x="647" y="-69" font-family="Helvetica,sans-Serif" font-size="10.00">memory</text>
</a>
</g>
</g>
<!-- Node2&#45;&gt;Node11 -->
<g id="edge10" class="edge">
<title>Node2&#45;&gt;Node11</title>
<path fill="none" stroke="midnightblue" d="M1583.49,-136.81C1405.52,-134.29 858.19,-123.67 685,-87 681.92,-86.35 678.76,-85.48 675.65,-84.5"/>
<polygon fill="midnightblue" stroke="midnightblue" points="676.57,-81.12 665.98,-81.07 674.23,-87.71 676.57,-81.12"/>
</g>
<!-- Node12 -->
<g id="node12" class="node">
<title>Node12</title>
<g id="a_node12"><a xlink:title=" ">
<polygon fill="white" stroke="#bfbfbf" points="694,-62 694,-81 734,-81 734,-62 694,-62"/>
<text text-anchor="middle" x="714" y="-69" font-family="Helvetica,sans-Serif" font-size="10.00">span</text>
</a>
</g>
</g>
<!-- Node2&#45;&gt;Node12 -->
<g id="edge11" class="edge">
<title>Node2&#45;&gt;Node12</title>
<path fill="none" stroke="midnightblue" d="M1583.26,-137.2C1412.23,-135.84 903.69,-128.33 744,-87 742.07,-86.5 740.11,-85.87 738.17,-85.16"/>
<polygon fill="midnightblue" stroke="midnightblue" points="739.38,-81.87 728.82,-81.09 736.59,-88.29 739.38,-81.87"/>
</g>
<!-- Node13 -->
<g id="node13" class="node">
<title>Node13</title>
<g id="a_node13"><a xlink:title=" ">
<polygon fill="white" stroke="#bfbfbf" points="752.5,-62 752.5,-81 817.5,-81 817.5,-62 752.5,-62"/>
<text text-anchor="middle" x="785" y="-69" font-family="Helvetica,sans-Serif" font-size="10.00">stdexcept</text>
</a>
</g>
</g>
<!-- Node2&#45;&gt;Node13 -->
<g id="edge12" class="edge">
<title>Node2&#45;&gt;Node13</title>
<path fill="none" stroke="midnightblue" d="M1583.37,-135.97C1423.71,-131.35 972.18,-116.01 827,-87 823.3,-86.26 819.49,-85.28 815.73,-84.17"/>
<polygon fill="midnightblue" stroke="midnightblue" points="816.65,-80.78 806.06,-81.02 814.48,-87.44 816.65,-80.78"/>
</g>
<!-- Node14 -->
<g id="node14" class="node">
<title>Node14</title>
<g id="a_node14"><a xlink:title=" ">
<polygon fill="white" stroke="#bfbfbf" points="835.5,-62 835.5,-81 876.5,-81 876.5,-62 835.5,-62"/>
<text text-anchor="middle" x="856" y="-69" font-family="Helvetica,sans-Serif" font-size="10.00">tuple</text>
</a>
</g>
</g>
<!-- Node2&#45;&gt;Node14 -->
<g id="edge13" class="edge">
<title>Node2&#45;&gt;Node14</title>
<path fill="none" stroke="midnightblue" d="M1583.23,-136.5C1431.23,-133.36 1017.59,-121.8 886,-87 884.07,-86.49 882.12,-85.85 880.18,-85.13"/>
<polygon fill="midnightblue" stroke="midnightblue" points="881.39,-81.85 870.83,-81.05 878.59,-88.26 881.39,-81.85"/>
</g>
<!-- Node15 -->
<g id="node15" class="node">
<title>Node15</title>
<g id="a_node15"><a xlink:title=" ">
<polygon fill="white" stroke="#bfbfbf" points="894.5,-62 894.5,-81 963.5,-81 963.5,-62 894.5,-62"/>
<text text-anchor="middle" x="929" y="-69" font-family="Helvetica,sans-Serif" font-size="10.00">type_traits</text>
</a>
</g>
</g>
<!-- Node2&#45;&gt;Node15 -->
<g id="edge14" class="edge">
<title>Node2&#45;&gt;Node15</title>
<path fill="none" stroke="midnightblue" d="M1583.25,-137.2C1468.14,-135.7 1199.34,-127.72 978,-87 973.46,-86.16 968.74,-85.07 964.1,-83.86"/>
<polygon fill="midnightblue" stroke="midnightblue" points="964.76,-80.4 954.18,-81.06 962.86,-87.14 964.76,-80.4"/>
</g>
<!-- Node16 -->
<g id="node16" class="node">
<title>Node16</title>
<g id="a_node16"><a xlink:title=" ">
<polygon fill="white" stroke="#bfbfbf" points="975,-0.5 975,-19.5 1099,-19.5 1099,-0.5 975,-0.5"/>
<text text-anchor="middle" x="1037" y="-7.5" font-family="Helvetica,sans-Serif" font-size="10.00">experimental/mdspan</text>
</a>
</g>
</g>
<!-- Node2&#45;&gt;Node16 -->
<g id="edge15" class="edge">
<title>Node2&#45;&gt;Node16</title>
<path fill="none" stroke="midnightblue" d="M1583.38,-137.23C1436.04,-135.95 1049.4,-128.61 1011,-87 995.7,-70.42 1010.12,-44.44 1022.81,-27.56"/>
<polygon fill="midnightblue" stroke="midnightblue" points="1025.61,-29.66 1029.12,-19.67 1020.15,-25.29 1025.61,-29.66"/>
</g>
<!-- Node17 -->
<g id="node17" class="node">
<title>Node17</title>
<g id="a_node17"><a xlink:href="mdspan__improvements_8hpp.html" target="_top" xlink:title=" ">
<polygon fill="white" stroke="black" points="1020,-56.5 1020,-86.5 1144,-86.5 1144,-56.5 1020,-56.5"/>
<text text-anchor="start" x="1028" y="-74.5" font-family="Helvetica,sans-Serif" font-size="10.00">experimental/mdspan</text>
<text text-anchor="middle" x="1082" y="-63.5" font-family="Helvetica,sans-Serif" font-size="10.00">_improvements.hpp</text>
</a>
</g>
</g>
<!-- Node2&#45;&gt;Node17 -->
<g id="edge16" class="edge">
<title>Node2&#45;&gt;Node17</title>
<path fill="none" stroke="midnightblue" d="M1583.16,-133.43C1493.91,-126.63 1315.32,-111.42 1154.36,-87.12"/>
<polygon fill="midnightblue" stroke="midnightblue" points="1154.69,-83.63 1144.28,-85.58 1153.63,-90.55 1154.69,-83.63"/>
</g>
<!-- Node18 -->
<g id="node18" class="node">
<title>Node18</title>
<g id="a_node18"><a xlink:href="private__support_8hpp.html" target="_top" xlink:title=" ">
<polygon fill="white" stroke="black" points="1162,-56.5 1162,-86.5 1286,-86.5 1286,-56.5 1162,-56.5"/>
<text text-anchor="start" x="1170" y="-74.5" font-family="Helvetica,sans-Serif" font-size="10.00">linear_algebra/private</text>
<text text-anchor="middle" x="1224" y="-63.5" font-family="Helvetica,sans-Serif" font-size="10.00">_support.hpp</text>
</a>
</g>
</g>
<!-- Node2&#45;&gt;Node18 -->
<g id="edge18" class="edge">
<title>Node2&#45;&gt;Node18</title>
<path fill="none" stroke="midnightblue" d="M1583.45,-131.02C1515.44,-122.44 1397.98,-106.32 1293.45,-88.29"/>
<polygon fill="midnightblue" stroke="midnightblue" points="1293.83,-84.8 1283.38,-86.54 1292.63,-91.7 1293.83,-84.8"/>
</g>
<!-- Node19 -->
<g id="node19" class="node">
<title>Node19</title>
<g id="a_node19"><a xlink:href="tensor__concepts_8hpp.html" target="_top" xlink:title=" ">
<polygon fill="white" stroke="black" points="1304,-56.5 1304,-86.5 1424,-86.5 1424,-56.5 1304,-56.5"/>
<text text-anchor="start" x="1312" y="-74.5" font-family="Helvetica,sans-Serif" font-size="10.00">linear_algebra/tensor</text>
<text text-anchor="middle" x="1364" y="-63.5" font-family="Helvetica,sans-Serif" font-size="10.00">_concepts.hpp</text>
</a>
</g>
</g>
<!-- Node2&#45;&gt;Node19 -->
<g id="edge20" class="edge">
<title>Node2&#45;&gt;Node19</title>
<path fill="none" stroke="midnightblue" d="M1583.35,-125.43C1538.08,-115.14 1474.75,-100.27 1427.73,-88.91"/>
<polygon fill="midnightblue" stroke="midnightblue" points="1428.5,-85.5 1417.96,-86.54 1426.85,-92.3 1428.5,-85.5"/>
</g>
<!-- Node20 -->
<g id="node20" class="node">
<title>Node20</title>
<g id="a_node20"><a xlink:href="vector__concepts_8hpp.html" target="_top" xlink:title=" ">
<polygon fill="white" stroke="black" points="1442,-56.5 1442,-86.5 1562,-86.5 1562,-56.5 1442,-56.5"/>
<text text-anchor="start" x="1450" y="-74.5" font-family="Helvetica,sans-Serif" font-size="10.00">linear_algebra/vector</text>
<text text-anchor="middle" x="1502" y="-63.5" font-family="Helvetica,sans-Serif" font-size="10.00">_concepts.hpp</text>
</a>
</g>
</g>
<!-- Node2&#45;&gt;Node20 -->
<g id="edge22" class="edge">
<title>Node2&#45;&gt;Node20</title>
<path fill="none" stroke="midnightblue" d="M1604.38,-123.4C1583.06,-113.94 1556.25,-101.39 1535.36,-91.12"/>
<polygon fill="midnightblue" stroke="midnightblue" points="1536.72,-87.89 1526.21,-86.58 1533.61,-94.16 1536.72,-87.89"/>
</g>
<!-- Node21 -->
<g id="node21" class="node">
<title>Node21</title>
<g id="a_node21"><a xlink:href="tensor__view_8hpp.html" target="_top" xlink:title=" ">
<polygon fill="white" stroke="black" points="1580,-56.5 1580,-86.5 1700,-86.5 1700,-56.5 1580,-56.5"/>
<text text-anchor="start" x="1588" y="-74.5" font-family="Helvetica,sans-Serif" font-size="10.00">linear_algebra/tensor</text>
<text text-anchor="middle" x="1640" y="-63.5" font-family="Helvetica,sans-Serif" font-size="10.00">_view.hpp</text>
</a>
</g>
</g>
<!-- Node2&#45;&gt;Node21 -->
<g id="edge25" class="edge">
<title>Node2&#45;&gt;Node21</title>
<path fill="none" stroke="midnightblue" d="M1634.32,-123.4C1633.29,-115.56 1633.01,-105.6 1633.46,-96.57"/>
<polygon fill="midnightblue" stroke="midnightblue" points="1636.95,-96.84 1634.33,-86.58 1629.97,-96.24 1636.95,-96.84"/>
</g>
<!-- Node22 -->
<g id="node22" class="node">
<title>Node22</title>
<g id="a_node22"><a xlink:href="vector__view_8hpp.html" target="_top" xlink:title=" ">
<polygon fill="white" stroke="black" points="1718,-56.5 1718,-86.5 1838,-86.5 1838,-56.5 1718,-56.5"/>
<text text-anchor="start" x="1726" y="-74.5" font-family="Helvetica,sans-Serif" font-size="10.00">linear_algebra/vector</text>
<text text-anchor="middle" x="1778" y="-63.5" font-family="Helvetica,sans-Serif" font-size="10.00">_view.hpp</text>
</a>
</g>
</g>
<!-- Node2&#45;&gt;Node22 -->
<g id="edge27" class="edge">
<title>Node2&#45;&gt;Node22</title>
<path fill="none" stroke="midnightblue" d="M1664.27,-123.4C1683.35,-113.81 1710.3,-101.05 1733.22,-90.7"/>
<polygon fill="midnightblue" stroke="midnightblue" points="1734.74,-93.86 1742.44,-86.58 1731.88,-87.47 1734.74,-93.86"/>
</g>
<!-- Node23 -->
<g id="node23" class="node">
<title>Node23</title>
<g id="a_node23"><a xlink:href="matrix__view_8hpp.html" target="_top" xlink:title=" ">
<polygon fill="white" stroke="black" points="1856,-56.5 1856,-86.5 1978,-86.5 1978,-56.5 1856,-56.5"/>
<text text-anchor="start" x="1864" y="-74.5" font-family="Helvetica,sans-Serif" font-size="10.00">linear_algebra/matrix</text>
<text text-anchor="middle" x="1917" y="-63.5" font-family="Helvetica,sans-Serif" font-size="10.00">_view.hpp</text>
</a>
</g>
</g>
<!-- Node2&#45;&gt;Node23 -->
<g id="edge29" class="edge">
<title>Node2&#45;&gt;Node23</title>
<path fill="none" stroke="midnightblue" d="M1694.1,-123.48C1737.4,-112.99 1798.42,-98.66 1845.7,-87.86"/>
<polygon fill="midnightblue" stroke="midnightblue" points="1846.6,-91.25 1855.57,-85.61 1845.05,-84.42 1846.6,-91.25"/>
</g>
<!-- Node24 -->
<g id="node24" class="node">
<title>Node24</title>
<g id="a_node24"><a xlink:href="fixed__size__tensor_8hpp.html" target="_top" xlink:title=" ">
<polygon fill="white" stroke="black" points="1996.5,-56.5 1996.5,-86.5 2109.5,-86.5 2109.5,-56.5 1996.5,-56.5"/>
<text text-anchor="start" x="2004.5" y="-74.5" font-family="Helvetica,sans-Serif" font-size="10.00">linear_algebra/fixed</text>
<text text-anchor="middle" x="2053" y="-63.5" font-family="Helvetica,sans-Serif" font-size="10.00">_size_tensor.hpp</text>
</a>
</g>
</g>
<!-- Node2&#45;&gt;Node24 -->
<g id="edge31" class="edge">
<title>Node2&#45;&gt;Node24</title>
<path fill="none" stroke="midnightblue" d="M1696.62,-129.68C1763.95,-120.74 1879.33,-104.99 1978,-87 1980.67,-86.51 1983.39,-86 1986.14,-85.46"/>
<polygon fill="midnightblue" stroke="midnightblue" points="1987.09,-88.84 1996.21,-83.44 1985.72,-81.98 1987.09,-88.84"/>
</g>
<!-- Node25 -->
<g id="node25" class="node">
<title>Node25</title>
<g id="a_node25"><a xlink:href="dynamic__tensor_8hpp.html" target="_top" xlink:title=" ">
<polygon fill="white" stroke="black" points="2127.5,-56.5 2127.5,-86.5 2258.5,-86.5 2258.5,-56.5 2127.5,-56.5"/>
<text text-anchor="start" x="2135.5" y="-74.5" font-family="Helvetica,sans-Serif" font-size="10.00">linear_algebra/dynamic</text>
<text text-anchor="middle" x="2193" y="-63.5" font-family="Helvetica,sans-Serif" font-size="10.00">_tensor.hpp</text>
</a>
</g>
</g>
<!-- Node2&#45;&gt;Node25 -->
<g id="edge33" class="edge">
<title>Node2&#45;&gt;Node25</title>
<path fill="none" stroke="midnightblue" d="M1696.73,-132.68C1785.3,-125.21 1961.36,-109.35 2110,-87 2112.35,-86.65 2114.74,-86.27 2117.15,-85.88"/>
<polygon fill="midnightblue" stroke="midnightblue" points="2117.9,-89.3 2127.17,-84.17 2116.72,-82.4 2117.9,-89.3"/>
</g>
<!-- Node26 -->
<g id="node26" class="node">
<title>Node26</title>
<g id="a_node26"><a xlink:href="fixed__size__matrix_8hpp.html" target="_top" xlink:title=" ">
<polygon fill="white" stroke="black" points="2276.5,-56.5 2276.5,-86.5 2389.5,-86.5 2389.5,-56.5 2276.5,-56.5"/>
<text text-anchor="start" x="2284.5" y="-74.5" font-family="Helvetica,sans-Serif" font-size="10.00">linear_algebra/fixed</text>
<text text-anchor="middle" x="2333" y="-63.5" font-family="Helvetica,sans-Serif" font-size="10.00">_size_matrix.hpp</text>
</a>
</g>
</g>
<!-- Node2&#45;&gt;Node26 -->
<g id="edge35" class="edge">
<title>Node2&#45;&gt;Node26</title>
<path fill="none" stroke="midnightblue" d="M1696.54,-135.38C1805.82,-130.88 2052.97,-118.11 2259,-87 2261.36,-86.64 2263.77,-86.25 2266.2,-85.83"/>
<polygon fill="midnightblue" stroke="midnightblue" points="2267.09,-89.22 2276.28,-83.95 2265.81,-82.34 2267.09,-89.22"/>
</g>
<!-- Node27 -->
<g id="node27" class="node">
<title>Node27</title>
<g id="a_node27"><a xlink:href="dynamic__matrix_8hpp.html" target="_top" xlink:title=" ">
<polygon fill="white" stroke="black" points="2407.5,-56.5 2407.5,-86.5 2538.5,-86.5 2538.5,-56.5 2407.5,-56.5"/>
<text text-anchor="start" x="2415.5" y="-74.5" font-family="Helvetica,sans-Serif" font-size="10.00">linear_algebra/dynamic</text>
<text text-anchor="middle" x="2473" y="-63.5" font-family="Helvetica,sans-Serif" font-size="10.00">_matrix.hpp</text>
</a>
</g>
</g>
<!-- Node2&#45;&gt;Node27 -->
<g id="edge37" class="edge">
<title>Node2&#45;&gt;Node27</title>
<path fill="none" stroke="midnightblue" d="M1696.83,-136.05C1822.42,-132.42 2132.36,-120.67 2390,-87 2392.35,-86.69 2394.75,-86.36 2397.16,-85.99"/>
<polygon fill="midnightblue" stroke="midnightblue" points="2397.87,-89.43 2407.2,-84.39 2396.77,-82.51 2397.87,-89.43"/>
</g>
<!-- Node28 -->
<g id="node28" class="node">
<title>Node28</title>
<g id="a_node28"><a xlink:href="fixed__size__vector_8hpp.html" target="_top" xlink:title=" ">
<polygon fill="white" stroke="black" points="2556.5,-56.5 2556.5,-86.5 2669.5,-86.5 2669.5,-56.5 2556.5,-56.5"/>
<text text-anchor="start" x="2564.5" y="-74.5" font-family="Helvetica,sans-Serif" font-size="10.00">linear_algebra/fixed</text>
<text text-anchor="middle" x="2613" y="-63.5" font-family="Helvetica,sans-Serif" font-size="10.00">_size_vector.hpp</text>
</a>
</g>
</g>
<!-- Node2&#45;&gt;Node28 -->
<g id="edge39" class="edge">
<title>Node2&#45;&gt;Node28</title>
<path fill="none" stroke="midnightblue" d="M1696.62,-137.55C1838.96,-136.91 2222.5,-130.8 2539,-87 2541.37,-86.67 2543.78,-86.3 2546.21,-85.9"/>
<polygon fill="midnightblue" stroke="midnightblue" points="2547.08,-89.3 2556.3,-84.09 2545.84,-82.41 2547.08,-89.3"/>
</g>
<!-- Node29 -->
<g id="node29" class="node">
<title>Node29</title>
<g id="a_node29"><a xlink:href="dynamic__vector_8hpp.html" target="_top" xlink:title=" ">
<polygon fill="white" stroke="black" points="2687.5,-56.5 2687.5,-86.5 2818.5,-86.5 2818.5,-56.5 2687.5,-56.5"/>
<text text-anchor="start" x="2695.5" y="-74.5" font-family="Helvetica,sans-Serif" font-size="10.00">linear_algebra/dynamic</text>
<text text-anchor="middle" x="2753" y="-63.5" font-family="Helvetica,sans-Serif" font-size="10.00">_vector.hpp</text>
</a>
</g>
</g>
<!-- Node2&#45;&gt;Node29 -->
<g id="edge41" class="edge">
<title>Node2&#45;&gt;Node29</title>
<path fill="none" stroke="midnightblue" d="M1696.56,-137.61C1852.42,-137.25 2300.47,-131.94 2670,-87 2672.36,-86.71 2674.75,-86.39 2677.17,-86.05"/>
<polygon fill="midnightblue" stroke="midnightblue" points="2677.86,-89.48 2687.21,-84.5 2676.79,-82.57 2677.86,-89.48"/>
</g>
<!-- Node30 -->
<g id="node30" class="node">
<title>Node30</title>
<g id="a_node30"><a xlink:href="instant__evaluated__operations_8hpp.html" target="_top" xlink:title=" ">
<polygon fill="white" stroke="black" points="2836.5,-56.5 2836.5,-86.5 2985.5,-86.5 2985.5,-56.5 2836.5,-56.5"/>
<text text-anchor="start" x="2844.5" y="-74.5" font-family="Helvetica,sans-Serif" font-size="10.00">linear_algebra/instant</text>
<text text-anchor="middle" x="2911" y="-63.5" font-family="Helvetica,sans-Serif" font-size="10.00">_evaluated_operations.hpp</text>
</a>
</g>
</g>
<!-- Node2&#45;&gt;Node30 -->
<g id="edge43" class="edge">
<title>Node2&#45;&gt;Node30</title>
<path fill="none" stroke="midnightblue" d="M1696.72,-137.71C1867.18,-137.71 2389.02,-133.5 2819,-87 2821.39,-86.74 2823.82,-86.46 2826.27,-86.15"/>
<polygon fill="midnightblue" stroke="midnightblue" points="2827.01,-89.58 2836.45,-84.77 2826.07,-82.64 2827.01,-89.58"/>
</g>
<!-- Node31 -->
<g id="node31" class="node">
<title>Node31</title>
<g id="a_node31"><a xlink:href="arithmetic__operators_8hpp.html" target="_top" xlink:title=" ">
<polygon fill="white" stroke="black" points="3004,-56.5 3004,-86.5 3144,-86.5 3144,-56.5 3004,-56.5"/>
<text text-anchor="start" x="3012" y="-74.5" font-family="Helvetica,sans-Serif" font-size="10.00">linear_algebra/arithmetic</text>
<text text-anchor="middle" x="3074" y="-63.5" font-family="Helvetica,sans-Serif" font-size="10.00">_operators.hpp</text>
</a>
</g>
</g>
<!-- Node2&#45;&gt;Node31 -->
<g id="edge45" class="edge">
<title>Node2&#45;&gt;Node31</title>
<path fill="none" stroke="midnightblue" d="M1696.55,-136.42C1918.46,-132.13 2729.48,-115.17 2986,-87 2988.55,-86.72 2991.14,-86.41 2993.75,-86.06"/>
<polygon fill="midnightblue" stroke="midnightblue" points="2994.52,-89.49 3003.93,-84.62 2993.53,-82.56 2994.52,-89.49"/>
</g>
<!-- Node17&#45;&gt;Node16 -->
<g id="edge17" class="edge">
<title>Node17&#45;&gt;Node16</title>
<path fill="none" stroke="midnightblue" d="M1071.34,-56.4C1064.86,-47.84 1056.57,-36.87 1049.75,-27.86"/>
<polygon fill="midnightblue" stroke="midnightblue" points="1052.37,-25.52 1043.55,-19.66 1046.79,-29.74 1052.37,-25.52"/>
</g>
<!-- Node18&#45;&gt;Node2 -->
<g id="edge19" class="edge">
<title>Node18&#45;&gt;Node2</title>
<path fill="none" stroke="midnightblue" d="M1286.39,-83.75C1292.36,-84.89 1298.3,-86 1304,-87 1397.3,-103.34 1505.43,-118.57 1573.35,-127.95"/>
<polygon fill="midnightblue" stroke="midnightblue" points="1573.1,-131.44 1583.49,-129.34 1574.06,-124.51 1573.1,-131.44"/>
</g>
<!-- Node19&#45;&gt;Node2 -->
<g id="edge21" class="edge">
<title>Node19&#45;&gt;Node2</title>
<path fill="none" stroke="midnightblue" d="M1424.27,-85.39C1469.25,-95.64 1530.52,-110.03 1576.3,-121.1"/>
<polygon fill="midnightblue" stroke="midnightblue" points="1575.58,-124.52 1586.12,-123.48 1577.23,-117.72 1575.58,-124.52"/>
</g>
<!-- Node20&#45;&gt;Node2 -->
<g id="edge23" class="edge">
<title>Node20&#45;&gt;Node2</title>
<path fill="none" stroke="midnightblue" d="M1537.56,-86.58C1558.86,-96.03 1585.68,-108.58 1606.58,-118.85"/>
<polygon fill="midnightblue" stroke="midnightblue" points="1605.22,-122.08 1615.73,-123.4 1608.33,-115.81 1605.22,-122.08"/>
</g>
<!-- Node21&#45;&gt;Node2 -->
<g id="edge26" class="edge">
<title>Node21&#45;&gt;Node2</title>
<path fill="none" stroke="midnightblue" d="M1645.67,-86.58C1646.7,-94.41 1646.99,-104.37 1646.55,-113.4"/>
<polygon fill="midnightblue" stroke="midnightblue" points="1643.06,-113.13 1645.68,-123.4 1650.03,-113.74 1643.06,-113.13"/>
</g>
<!-- Node22&#45;&gt;Node2 -->
<g id="edge28" class="edge">
<title>Node22&#45;&gt;Node2</title>
<path fill="none" stroke="midnightblue" d="M1753.79,-86.58C1734.72,-96.15 1707.77,-108.92 1684.84,-119.27"/>
<polygon fill="midnightblue" stroke="midnightblue" points="1683.32,-116.12 1675.62,-123.4 1686.18,-122.5 1683.32,-116.12"/>
</g>
<!-- Node23&#45;&gt;Node2 -->
<g id="edge30" class="edge">
<title>Node23&#45;&gt;Node2</title>
<path fill="none" stroke="midnightblue" d="M1862.69,-86.58C1817.9,-97.42 1754.27,-112.35 1706.46,-123.24"/>
<polygon fill="midnightblue" stroke="midnightblue" points="1705.48,-119.87 1696.5,-125.5 1707.03,-126.7 1705.48,-119.87"/>
</g>
<!-- Node24&#45;&gt;Node2 -->
<g id="edge32" class="edge">
<title>Node24&#45;&gt;Node2</title>
<path fill="none" stroke="midnightblue" d="M1998.44,-86.55C1997.62,-86.7 1996.81,-86.85 1996,-87 1895.96,-105.24 1778.74,-121.18 1706.85,-130.05"/>
<polygon fill="midnightblue" stroke="midnightblue" points="1706.08,-126.62 1696.58,-131.31 1706.93,-133.57 1706.08,-126.62"/>
</g>
<!-- Node25&#45;&gt;Node2 -->
<g id="edge34" class="edge">
<title>Node25&#45;&gt;Node2</title>
<path fill="none" stroke="midnightblue" d="M2131.13,-86.52C2130.08,-86.68 2129.04,-86.84 2128,-87 1978.41,-109.5 1801.03,-125.42 1706.67,-132.82"/>
<polygon fill="midnightblue" stroke="midnightblue" points="1706.39,-129.33 1696.69,-133.6 1706.94,-136.31 1706.39,-129.33"/>
</g>
<!-- Node26&#45;&gt;Node2 -->
<g id="edge36" class="edge">
<title>Node26&#45;&gt;Node2</title>
<path fill="none" stroke="midnightblue" d="M2280.11,-86.51C2279.07,-86.68 2278.03,-86.84 2277,-87 2070.97,-118.11 1823.82,-130.88 1707.12,-135.38"/>
<polygon fill="midnightblue" stroke="midnightblue" points="1706.78,-131.89 1696.92,-135.77 1707.04,-138.89 1706.78,-131.89"/>
</g>
<!-- Node27&#45;&gt;Node2 -->
<g id="edge38" class="edge">
<title>Node27&#45;&gt;Node2</title>
<path fill="none" stroke="midnightblue" d="M2411.53,-86.52C2410.35,-86.69 2409.17,-86.85 2408,-87 2150.52,-120.65 1840.8,-132.4 1706.91,-136.04"/>
<polygon fill="midnightblue" stroke="midnightblue" points="1706.71,-132.55 1696.81,-136.31 1706.9,-139.54 1706.71,-132.55"/>
</g>
<!-- Node28&#45;&gt;Node2 -->
<g id="edge40" class="edge">
<title>Node28&#45;&gt;Node2</title>
<path fill="none" stroke="midnightblue" d="M2560.11,-86.55C2559.07,-86.71 2558.03,-86.86 2557,-87 2241.11,-130.72 1858.45,-136.89 1706.6,-137.54"/>
<polygon fill="midnightblue" stroke="midnightblue" points="1706.49,-134.04 1696.51,-137.58 1706.52,-141.04 1706.49,-134.04"/>
</g>
<!-- Node29&#45;&gt;Node2 -->
<g id="edge42" class="edge">
<title>Node29&#45;&gt;Node2</title>
<path fill="none" stroke="midnightblue" d="M2691.53,-86.55C2690.35,-86.71 2689.17,-86.86 2688,-87 2319.68,-131.8 1873.36,-137.22 1706.8,-137.61"/>
<polygon fill="midnightblue" stroke="midnightblue" points="1706.71,-134.11 1696.71,-137.63 1706.72,-141.11 1706.71,-134.11"/>
</g>
<!-- Node30&#45;&gt;Node2 -->
<g id="edge44" class="edge">
<title>Node30&#45;&gt;Node2</title>
<path fill="none" stroke="midnightblue" d="M2840.96,-86.55C2839.63,-86.71 2838.31,-86.86 2837,-87 2408.67,-133.32 1889.17,-137.68 1706.94,-137.71"/>
<polygon fill="midnightblue" stroke="midnightblue" points="1706.71,-134.21 1696.71,-137.71 1706.71,-141.21 1706.71,-134.21"/>
</g>
<!-- Node31&#45;&gt;Node2 -->
<g id="edge46" class="edge">
<title>Node31&#45;&gt;Node2</title>
<path fill="none" stroke="midnightblue" d="M3008.19,-86.51C3006.78,-86.69 3005.39,-86.85 3004,-87 2748.79,-115.03 1944.71,-131.96 1706.85,-136.35"/>
<polygon fill="midnightblue" stroke="midnightblue" points="1706.56,-132.86 1696.62,-136.54 1706.69,-139.86 1706.56,-132.86"/>
</g>
</g>
</svg>
        <g id="navigator" transform="translate(0 0)" fill="#404254">
                <rect fill="#f2f5e9" fill-opacity="0.5" stroke="#606060" stroke-width=".5" x="0" y="0" width="60" height="60"/>
                <use id="zoomplus" xlink:href="#zoomPlus" x="17" y="9" onmousedown="handleZoom(evt,'in')"/>
                <use id="zoomminus" xlink:href="#zoomMin" x="42" y="9" onmousedown="handleZoom(evt,'out')"/>
                <use id="reset" xlink:href="#resetDef" x="30" y="36" onmousedown="handleReset()"/>
                <g id="arrowUp" xlink:href="#dirArrow" transform="translate(30 24)" onmousedown="handlePan(0,-1)">
                  <use xlink:href="#rim" fill="#404040">
                        <set attributeName="fill" to="#808080" begin="arrowUp.mouseover" end="arrowUp.mouseout"/>
                  </use>
                  <path fill="none" stroke="white" stroke-width="1.5" d="M0,-3.0v7 M-2.5,-0.5L0,-3.0L2.5,-0.5"/>
                </g>
                <g id="arrowRight" xlink:href="#dirArrow" transform="rotate(90) translate(36 -43)" onmousedown="handlePan(1,0)">
                  <use xlink:href="#rim" fill="#404040">
                        <set attributeName="fill" to="#808080" begin="arrowRight.mouseover" end="arrowRight.mouseout"/>
                  </use>
                  <path fill="none" stroke="white" stroke-width="1.5" d="M0,-3.0v7 M-2.5,-0.5L0,-3.0L2.5,-0.5"/>
                </g>
                <g id="arrowDown" xlink:href="#dirArrow" transform="rotate(180) translate(-30 -48)" onmousedown="handlePan(0,1)">
                  <use xlink:href="#rim" fill="#404040">
                        <set attributeName="fill" to="#808080" begin="arrowDown.mouseover" end="arrowDown.mouseout"/>
                  </use>
                  <path fill="none" stroke="white" stroke-width="1.5" d="M0,-3.0v7 M-2.5,-0.5L0,-3.0L2.5,-0.5"/>
                </g>
                <g id="arrowLeft" xlink:href="#dirArrow" transform="rotate(270) translate(-36 17)" onmousedown="handlePan(-1,0)">
                  <use xlink:href="#rim" fill="#404040">
                        <set attributeName="fill" to="#808080" begin="arrowLeft.mouseover" end="arrowLeft.mouseout"/>
                  </use>
                  <path fill="none" stroke="white" stroke-width="1.5" d="M0,-3.0v7 M-2.5,-0.5L0,-3.0L2.5,-0.5"/>
                </g>
        </g>
        <svg viewBox="0 0 15 15" width="100%" height="30px" preserveAspectRatio="xMaxYMin meet">
         <g id="arrow_out" transform="scale(0.3 0.3)">
          <a xlink:href="matrix__concepts_8hpp__incl_org.svg" target="_base">
           <rect id="button" ry="5" rx="5" y="6" x="6" height="38" width="38"
                fill="#f2f5e9" fill-opacity="0.5" stroke="#606060" stroke-width="1.0"/>
           <path id="arrow"
             d="M 11.500037,31.436501 C 11.940474,20.09759 22.043105,11.32322 32.158766,21.979434 L 37.068811,17.246167 C 37.068811,17.246167 37.088388,32 37.088388,32 L 22.160133,31.978069 C 22.160133,31.978069 26.997745,27.140456 26.997745,27.140456 C 18.528582,18.264221 13.291696,25.230495 11.500037,31.436501 z"
             style="fill:#404040;"/>
          </a>
         </g>
        </svg>
</svg>
