<?xml version="1.0" encoding="UTF-8" standalone="no"?>
<!DOCTYPE svg PUBLIC "-//W3C//DTD SVG 1.1//EN"
 "http://www.w3.org/Graphics/SVG/1.1/DTD/svg11.dtd">
<!-- Generated by graphviz version 8.0.1 (20230327.1645)
 -->
<!-- Title: include/experimental/linear_algebra/matrix_concepts.hpp Pages: 1 -->
<svg width="1839pt" height="192pt"
 viewBox="0.00 0.00 1838.50 192.00" xmlns="http://www.w3.org/2000/svg" xmlns:xlink="http://www.w3.org/1999/xlink">
<g id="graph0" class="graph" transform="scale(1 1) rotate(0) translate(4 188)">
<title>include/experimental/linear_algebra/matrix_concepts.hpp</title>
<!-- Node1 -->
<g id="node1" class="node">
<title>Node1</title>
<g id="a_node1"><a xlink:title=" ">
<polygon fill="#999999" stroke="#666666" points="979.5,-184 869.5,-184 869.5,-143 979.5,-143 979.5,-184"/>
<text text-anchor="start" x="877.5" y="-172" font-family="Helvetica,sans-Serif" font-size="10.00">include/experimental</text>
<text text-anchor="start" x="877.5" y="-161" font-family="Helvetica,sans-Serif" font-size="10.00">/linear_algebra/matrix</text>
<text text-anchor="middle" x="924.5" y="-150" font-family="Helvetica,sans-Serif" font-size="10.00">_concepts.hpp</text>
</a>
</g>
</g>
<!-- Node2 -->
<g id="node2" class="node">
<title>Node2</title>
<g id="a_node2"><a xlink:href="linear__algebra_8hpp.html" target="_top" xlink:title=" ">
<polygon fill="white" stroke="#666666" points="977.5,-107 871.5,-107 871.5,-77 977.5,-77 977.5,-107"/>
<text text-anchor="start" x="879.5" y="-95" font-family="Helvetica,sans-Serif" font-size="10.00">include/experimental</text>
<text text-anchor="middle" x="924.5" y="-84" font-family="Helvetica,sans-Serif" font-size="10.00">/linear_algebra.hpp</text>
</a>
</g>
</g>
<!-- Node1&#45;&gt;Node2 -->
<g id="edge1" class="edge">
<title>Node1&#45;&gt;Node2</title>
<path fill="none" stroke="#63b8ff" d="M917.79,-131.95C917.61,-123.44 917.98,-114.59 918.9,-107.47"/>
<polygon fill="#63b8ff" stroke="#63b8ff" points="914.34,-131.96 918.34,-141.77 921.33,-131.6 914.34,-131.96"/>
</g>
<!-- Node2&#45;&gt;Node1 -->
<g id="edge18" class="edge">
<title>Node2&#45;&gt;Node1</title>
<path fill="none" stroke="#63b8ff" d="M931.02,-118.21C931.42,-126.3 931.3,-135.13 930.66,-142.77"/>
<polygon fill="#63b8ff" stroke="#63b8ff" points="934.44,-118.14 930.1,-108.47 927.47,-118.74 934.44,-118.14"/>
</g>
<!-- Node3 -->
<g id="node3" class="node">
<title>Node3</title>
<g id="a_node3"><a xlink:href="arithmetic__operators_8hpp.html" target="_top" xlink:title=" ">
<polygon fill="white" stroke="#666666" points="125,-41 0,-41 0,0 125,0 125,-41"/>
<text text-anchor="start" x="8" y="-29" font-family="Helvetica,sans-Serif" font-size="10.00">include/experimental</text>
<text text-anchor="start" x="8" y="-18" font-family="Helvetica,sans-Serif" font-size="10.00">/linear_algebra/arithmetic</text>
<text text-anchor="middle" x="62.5" y="-7" font-family="Helvetica,sans-Serif" font-size="10.00">_operators.hpp</text>
</a>
</g>
</g>
<!-- Node2&#45;&gt;Node3 -->
<g id="edge2" class="edge">
<title>Node2&#45;&gt;Node3</title>
<path fill="none" stroke="#63b8ff" d="M860.45,-91.38C724.06,-91.33 395.72,-86.22 125.31,-41.14"/>
<polygon fill="#63b8ff" stroke="#63b8ff" points="860.11,-94.88 870.1,-91.37 860.1,-87.88 860.11,-94.88"/>
</g>
<!-- Node4 -->
<g id="node4" class="node">
<title>Node4</title>
<g id="a_node4"><a xlink:href="dynamic__matrix_8hpp.html" target="_top" xlink:title=" ">
<polygon fill="white" stroke="#666666" points="262,-41 143,-41 143,0 262,0 262,-41"/>
<text text-anchor="start" x="151" y="-29" font-family="Helvetica,sans-Serif" font-size="10.00">include/experimental</text>
<text text-anchor="start" x="151" y="-18" font-family="Helvetica,sans-Serif" font-size="10.00">/linear_algebra/dynamic</text>
<text text-anchor="middle" x="202.5" y="-7" font-family="Helvetica,sans-Serif" font-size="10.00">_matrix.hpp</text>
</a>
</g>
</g>
<!-- Node2&#45;&gt;Node4 -->
<g id="edge4" class="edge">
<title>Node2&#45;&gt;Node4</title>
<path fill="none" stroke="#63b8ff" d="M860.65,-90.49C741.79,-88.62 479.4,-80.04 262.48,-41.18"/>
<polygon fill="#63b8ff" stroke="#63b8ff" points="860.3,-94 870.35,-90.65 860.4,-87 860.3,-94"/>
</g>
<!-- Node5 -->
<g id="node5" class="node">
<title>Node5</title>
<g id="a_node5"><a xlink:href="dynamic__tensor_8hpp.html" target="_top" xlink:title=" ">
<polygon fill="white" stroke="#666666" points="399,-41 280,-41 280,0 399,0 399,-41"/>
<text text-anchor="start" x="288" y="-29" font-family="Helvetica,sans-Serif" font-size="10.00">include/experimental</text>
<text text-anchor="start" x="288" y="-18" font-family="Helvetica,sans-Serif" font-size="10.00">/linear_algebra/dynamic</text>
<text text-anchor="middle" x="339.5" y="-7" font-family="Helvetica,sans-Serif" font-size="10.00">_tensor.hpp</text>
</a>
</g>
</g>
<!-- Node2&#45;&gt;Node5 -->
<g id="edge6" class="edge">
<title>Node2&#45;&gt;Node5</title>
<path fill="none" stroke="#63b8ff" d="M860.37,-88.82C760.79,-84.47 563.69,-72.3 399.5,-41.19"/>
<polygon fill="#63b8ff" stroke="#63b8ff" points="860.02,-92.35 870.16,-89.28 860.31,-85.36 860.02,-92.35"/>
</g>
<!-- Node6 -->
<g id="node6" class="node">
<title>Node6</title>
<g id="a_node6"><a xlink:href="dynamic__vector_8hpp.html" target="_top" xlink:title=" ">
<polygon fill="white" stroke="#666666" points="536,-41 417,-41 417,0 536,0 536,-41"/>
<text text-anchor="start" x="425" y="-29" font-family="Helvetica,sans-Serif" font-size="10.00">include/experimental</text>
<text text-anchor="start" x="425" y="-18" font-family="Helvetica,sans-Serif" font-size="10.00">/linear_algebra/dynamic</text>
<text text-anchor="middle" x="476.5" y="-7" font-family="Helvetica,sans-Serif" font-size="10.00">_vector.hpp</text>
</a>
</g>
</g>
<!-- Node2&#45;&gt;Node6 -->
<g id="edge8" class="edge">
<title>Node2&#45;&gt;Node6</title>
<path fill="none" stroke="#63b8ff" d="M860.53,-85.99C783.13,-78.93 649.46,-64.26 536.85,-41.07"/>
<polygon fill="#63b8ff" stroke="#63b8ff" points="859.8,-89.53 870.07,-86.94 860.42,-82.56 859.8,-89.53"/>
</g>
<!-- Node7 -->
<g id="node7" class="node">
<title>Node7</title>
<g id="a_node7"><a xlink:href="fixed__size__matrix_8hpp.html" target="_top" xlink:title=" ">
<polygon fill="white" stroke="#666666" points="660.5,-41 554.5,-41 554.5,0 660.5,0 660.5,-41"/>
<text text-anchor="start" x="562.5" y="-29" font-family="Helvetica,sans-Serif" font-size="10.00">include/experimental</text>
<text text-anchor="start" x="562.5" y="-18" font-family="Helvetica,sans-Serif" font-size="10.00">/linear_algebra/fixed</text>
<text text-anchor="middle" x="607.5" y="-7" font-family="Helvetica,sans-Serif" font-size="10.00">_size_matrix.hpp</text>
</a>
</g>
</g>
<!-- Node2&#45;&gt;Node7 -->
<g id="edge10" class="edge">
<title>Node2&#45;&gt;Node7</title>
<path fill="none" stroke="#63b8ff" d="M860.25,-81.66C806.46,-72.75 728.12,-58.18 660.92,-41.11"/>
<polygon fill="#63b8ff" stroke="#63b8ff" points="859.58,-85.26 870.01,-83.42 860.71,-78.35 859.58,-85.26"/>
</g>
<!-- Node8 -->
<g id="node8" class="node">
<title>Node8</title>
<g id="a_node8"><a xlink:href="fixed__size__tensor_8hpp.html" target="_top" xlink:title=" ">
<polygon fill="white" stroke="#666666" points="784.5,-41 678.5,-41 678.5,0 784.5,0 784.5,-41"/>
<text text-anchor="start" x="686.5" y="-29" font-family="Helvetica,sans-Serif" font-size="10.00">include/experimental</text>
<text text-anchor="start" x="686.5" y="-18" font-family="Helvetica,sans-Serif" font-size="10.00">/linear_algebra/fixed</text>
<text text-anchor="middle" x="731.5" y="-7" font-family="Helvetica,sans-Serif" font-size="10.00">_size_tensor.hpp</text>
</a>
</g>
</g>
<!-- Node2&#45;&gt;Node8 -->
<g id="edge12" class="edge">
<title>Node2&#45;&gt;Node8</title>
<path fill="none" stroke="#63b8ff" d="M868.55,-73.01C840.73,-63.33 807.46,-51.37 780.64,-41.42"/>
<polygon fill="#63b8ff" stroke="#63b8ff" points="867.32,-76.64 877.92,-76.6 869.61,-70.02 867.32,-76.64"/>
</g>
<!-- Node9 -->
<g id="node9" class="node">
<title>Node9</title>
<g id="a_node9"><a xlink:href="fixed__size__vector_8hpp.html" target="_top" xlink:title=" ">
<polygon fill="white" stroke="#666666" points="908.5,-41 802.5,-41 802.5,0 908.5,0 908.5,-41"/>
<text text-anchor="start" x="810.5" y="-29" font-family="Helvetica,sans-Serif" font-size="10.00">include/experimental</text>
<text text-anchor="start" x="810.5" y="-18" font-family="Helvetica,sans-Serif" font-size="10.00">/linear_algebra/fixed</text>
<text text-anchor="middle" x="855.5" y="-7" font-family="Helvetica,sans-Serif" font-size="10.00">_size_vector.hpp</text>
</a>
</g>
</g>
<!-- Node2&#45;&gt;Node9 -->
<g id="edge14" class="edge">
<title>Node2&#45;&gt;Node9</title>
<path fill="none" stroke="#63b8ff" d="M896.54,-69.2C887.09,-60.31 877,-50.1 869.1,-41.42"/>
<polygon fill="#63b8ff" stroke="#63b8ff" points="893.87,-71.42 903.61,-75.6 898.61,-66.26 893.87,-71.42"/>
</g>
<!-- Node10 -->
<g id="node10" class="node">
<title>Node10</title>
<g id="a_node10"><a xlink:href="instant__evaluated__operations_8hpp.html" target="_top" xlink:title=" ">
<polygon fill="white" stroke="#666666" points="1060,-41 927,-41 927,0 1060,0 1060,-41"/>
<text text-anchor="start" x="935" y="-29" font-family="Helvetica,sans-Serif" font-size="10.00">include/experimental</text>
<text text-anchor="start" x="935" y="-18" font-family="Helvetica,sans-Serif" font-size="10.00">/linear_algebra/instant</text>
<text text-anchor="middle" x="993.5" y="-7" font-family="Helvetica,sans-Serif" font-size="10.00">_evaluated_operations.hpp</text>
</a>
</g>
</g>
<!-- Node2&#45;&gt;Node10 -->
<g id="edge16" class="edge">
<title>Node2&#45;&gt;Node10</title>
<path fill="none" stroke="#63b8ff" d="M940.33,-68.66C948.44,-59.9 958.4,-49.93 967.56,-41.42"/>
<polygon fill="#63b8ff" stroke="#63b8ff" points="938.28,-65.82 934.2,-75.6 943.49,-70.49 938.28,-65.82"/>
</g>
<!-- Node11 -->
<g id="node11" class="node">
<title>Node11</title>
<g id="a_node11"><a xlink:href="matrix__view_8hpp.html" target="_top" xlink:title=" ">
<polygon fill="white" stroke="#666666" points="1188.5,-41 1078.5,-41 1078.5,0 1188.5,0 1188.5,-41"/>
<text text-anchor="start" x="1086.5" y="-29" font-family="Helvetica,sans-Serif" font-size="10.00">include/experimental</text>
<text text-anchor="start" x="1086.5" y="-18" font-family="Helvetica,sans-Serif" font-size="10.00">/linear_algebra/matrix</text>
<text text-anchor="middle" x="1133.5" y="-7" font-family="Helvetica,sans-Serif" font-size="10.00">_view.hpp</text>
</a>
</g>
</g>
<!-- Node2&#45;&gt;Node11 -->
<g id="edge19" class="edge">
<title>Node2&#45;&gt;Node11</title>
<path fill="none" stroke="#63b8ff" d="M972.5,-73.04C1004.03,-62.21 1045.28,-48.51 1078.18,-37.95"/>
<polygon fill="#63b8ff" stroke="#63b8ff" points="971.52,-70.03 963.21,-76.6 973.81,-76.64 971.52,-70.03"/>
</g>
<!-- Node12 -->
<g id="node12" class="node">
<title>Node12</title>
<g id="a_node12"><a xlink:href="private__support_8hpp.html" target="_top" xlink:title=" ">
<polygon fill="white" stroke="#666666" points="1318.5,-41 1206.5,-41 1206.5,0 1318.5,0 1318.5,-41"/>
<text text-anchor="start" x="1214.5" y="-29" font-family="Helvetica,sans-Serif" font-size="10.00">include/experimental</text>
<text text-anchor="start" x="1214.5" y="-18" font-family="Helvetica,sans-Serif" font-size="10.00">/linear_algebra/private</text>
<text text-anchor="middle" x="1262.5" y="-7" font-family="Helvetica,sans-Serif" font-size="10.00">_support.hpp</text>
</a>
</g>
</g>
<!-- Node2&#45;&gt;Node12 -->
<g id="edge21" class="edge">
<title>Node2&#45;&gt;Node12</title>
<path fill="none" stroke="#63b8ff" d="M988.54,-80.13C1042.26,-71.18 1120.68,-57.33 1188.5,-41 1194.23,-39.62 1200.2,-38.04 1206.16,-36.38"/>
<polygon fill="#63b8ff" stroke="#63b8ff" points="988.1,-76.83 978.8,-81.91 989.24,-83.73 988.1,-76.83"/>
</g>
<!-- Node13 -->
<g id="node13" class="node">
<title>Node13</title>
<g id="a_node13"><a xlink:href="tensor__concepts_8hpp.html" target="_top" xlink:title=" ">
<polygon fill="white" stroke="#666666" points="1446.5,-41 1336.5,-41 1336.5,0 1446.5,0 1446.5,-41"/>
<text text-anchor="start" x="1344.5" y="-29" font-family="Helvetica,sans-Serif" font-size="10.00">include/experimental</text>
<text text-anchor="start" x="1344.5" y="-18" font-family="Helvetica,sans-Serif" font-size="10.00">/linear_algebra/tensor</text>
<text text-anchor="middle" x="1391.5" y="-7" font-family="Helvetica,sans-Serif" font-size="10.00">_concepts.hpp</text>
</a>
</g>
</g>
<!-- Node2&#45;&gt;Node13 -->
<g id="edge23" class="edge">
<title>Node2&#45;&gt;Node13</title>
<path fill="none" stroke="#63b8ff" d="M988.64,-85.94C1067.09,-79.29 1203.41,-65.48 1318.5,-41 1324.29,-39.77 1330.32,-38.25 1336.33,-36.62"/>
<polygon fill="#63b8ff" stroke="#63b8ff" points="988.64,-82.51 978.96,-86.83 989.22,-89.49 988.64,-82.51"/>
</g>
<!-- Node14 -->
<g id="node14" class="node">
<title>Node14</title>
<g id="a_node14"><a xlink:href="tensor__view_8hpp.html" target="_top" xlink:title=" ">
<polygon fill="white" stroke="#666666" points="1574.5,-41 1464.5,-41 1464.5,0 1574.5,0 1574.5,-41"/>
<text text-anchor="start" x="1472.5" y="-29" font-family="Helvetica,sans-Serif" font-size="10.00">include/experimental</text>
<text text-anchor="start" x="1472.5" y="-18" font-family="Helvetica,sans-Serif" font-size="10.00">/linear_algebra/tensor</text>
<text text-anchor="middle" x="1519.5" y="-7" font-family="Helvetica,sans-Serif" font-size="10.00">_view.hpp</text>
</a>
</g>
</g>
<!-- Node2&#45;&gt;Node14 -->
<g id="edge25" class="edge">
<title>Node2&#45;&gt;Node14</title>
<path fill="none" stroke="#63b8ff" d="M988.4,-88.91C1087.41,-84.85 1283.2,-73.22 1446.5,-41 1452.2,-39.88 1458.11,-38.45 1464.01,-36.87"/>
<polygon fill="#63b8ff" stroke="#63b8ff" points="988.53,-85.44 978.68,-89.34 988.81,-92.44 988.53,-85.44"/>
</g>
<!-- Node15 -->
<g id="node15" class="node">
<title>Node15</title>
<g id="a_node15"><a xlink:href="vector__concepts_8hpp.html" target="_top" xlink:title=" ">
<polygon fill="white" stroke="#666666" points="1702.5,-41 1592.5,-41 1592.5,0 1702.5,0 1702.5,-41"/>
<text text-anchor="start" x="1600.5" y="-29" font-family="Helvetica,sans-Serif" font-size="10.00">include/experimental</text>
<text text-anchor="start" x="1600.5" y="-18" font-family="Helvetica,sans-Serif" font-size="10.00">/linear_algebra/vector</text>
<text text-anchor="middle" x="1647.5" y="-7" font-family="Helvetica,sans-Serif" font-size="10.00">_concepts.hpp</text>
</a>
</g>
</g>
<!-- Node2&#45;&gt;Node15 -->
<g id="edge27" class="edge">
<title>Node2&#45;&gt;Node15</title>
<path fill="none" stroke="#63b8ff" d="M988.64,-90.73C1105.98,-89.14 1362.3,-80.87 1574.5,-41 1580.21,-39.93 1586.13,-38.53 1592.03,-36.98"/>
<polygon fill="#63b8ff" stroke="#63b8ff" points="988.68,-87.24 978.73,-90.86 988.77,-94.24 988.68,-87.24"/>
</g>
<!-- Node16 -->
<g id="node16" class="node">
<title>Node16</title>
<g id="a_node16"><a xlink:href="vector__view_8hpp.html" target="_top" xlink:title=" ">
<polygon fill="white" stroke="#666666" points="1830.5,-41 1720.5,-41 1720.5,0 1830.5,0 1830.5,-41"/>
<text text-anchor="start" x="1728.5" y="-29" font-family="Helvetica,sans-Serif" font-size="10.00">include/experimental</text>
<text text-anchor="start" x="1728.5" y="-18" font-family="Helvetica,sans-Serif" font-size="10.00">/linear_algebra/vector</text>
<text text-anchor="middle" x="1775.5" y="-7" font-family="Helvetica,sans-Serif" font-size="10.00">_view.hpp</text>
</a>
</g>
</g>
<!-- Node2&#45;&gt;Node16 -->
<g id="edge29" class="edge">
<title>Node2&#45;&gt;Node16</title>
<path fill="none" stroke="#63b8ff" d="M988.57,-88.69C1149.18,-82.79 1565.47,-65.88 1702.5,-41 1708.21,-39.96 1714.14,-38.59 1720.04,-37.04"/>
<polygon fill="#63b8ff" stroke="#63b8ff" points="988.77,-85.22 978.91,-89.08 989.03,-92.21 988.77,-85.22"/>
</g>
<!-- Node3&#45;&gt;Node2 -->
<g id="edge3" class="edge">
<title>Node3&#45;&gt;Node2</title>
<path fill="none" stroke="#63b8ff" d="M136.19,-39.85C138.31,-40.27 140.42,-40.65 142.5,-41 413.94,-86.36 744.04,-91.36 871.18,-91.38"/>
<polygon fill="#63b8ff" stroke="#63b8ff" points="136.98,-36.23 126.47,-37.56 135.52,-43.08 136.98,-36.23"/>
</g>
<!-- Node4&#45;&gt;Node2 -->
<g id="edge5" class="edge">
<title>Node4&#45;&gt;Node2</title>
<path fill="none" stroke="#63b8ff" d="M272.91,-39.71C275.13,-40.18 277.33,-40.61 279.5,-41 496.93,-80.07 760.4,-88.64 871.34,-90.5"/>
<polygon fill="#63b8ff" stroke="#63b8ff" points="273.95,-36.13 263.43,-37.32 272.4,-42.96 273.95,-36.13"/>
</g>
<!-- Node5&#45;&gt;Node2 -->
<g id="edge7" class="edge">
<title>Node5&#45;&gt;Node2</title>
<path fill="none" stroke="#63b8ff" d="M409.92,-39.66C412.13,-40.14 414.33,-40.59 416.5,-41 580.61,-72.19 777.93,-84.42 871.06,-88.8"/>
<polygon fill="#63b8ff" stroke="#63b8ff" points="410.98,-36.08 400.45,-37.21 409.39,-42.89 410.98,-36.08"/>
</g>
<!-- Node6&#45;&gt;Node2 -->
<g id="edge9" class="edge">
<title>Node6&#45;&gt;Node2</title>
<path fill="none" stroke="#63b8ff" d="M546.99,-39.36C549.52,-39.94 552.03,-40.49 554.5,-41 666.3,-64.05 798.96,-78.7 871.24,-85.83"/>
<polygon fill="#63b8ff" stroke="#63b8ff" points="548.03,-35.77 537.48,-36.81 546.38,-42.57 548.03,-35.77"/>
</g>
<!-- Node7&#45;&gt;Node2 -->
<g id="edge11" class="edge">
<title>Node7&#45;&gt;Node2</title>
<path fill="none" stroke="#63b8ff" d="M671.46,-39.14C673.84,-39.79 676.19,-40.41 678.5,-41 744.52,-57.8 821.37,-72.18 871.47,-81.14"/>
<polygon fill="#63b8ff" stroke="#63b8ff" points="672.53,-35.52 661.96,-36.16 670.62,-42.25 672.53,-35.52"/>
</g>
<!-- Node8&#45;&gt;Node2 -->
<g id="edge13" class="edge">
<title>Node8&#45;&gt;Node2</title>
<path fill="none" stroke="#63b8ff" d="M794.92,-42.1C826.62,-53.2 863.7,-66.63 890.1,-76.6"/>
<polygon fill="#63b8ff" stroke="#63b8ff" points="796.43,-38.57 785.84,-38.58 794.13,-45.18 796.43,-38.57"/>
</g>
<!-- Node9&#45;&gt;Node2 -->
<g id="edge15" class="edge">
<title>Node9&#45;&gt;Node2</title>
<path fill="none" stroke="#63b8ff" d="M889.22,-48.8C899,-58.3 908.86,-68.57 915.8,-76.6"/>
<polygon fill="#63b8ff" stroke="#63b8ff" points="892.1,-46.77 882.44,-42.42 887.28,-51.84 892.1,-46.77"/>
</g>
<!-- Node10&#45;&gt;Node2 -->
<g id="edge17" class="edge">
<title>Node10&#45;&gt;Node2</title>
<path fill="none" stroke="#63b8ff" d="M972.46,-49.37C963.52,-58.7 953.22,-68.73 944.39,-76.6"/>
<polygon fill="#63b8ff" stroke="#63b8ff" points="974.63,-52.11 978.9,-42.42 969.51,-47.33 974.63,-52.11"/>
</g>
<!-- Node11&#45;&gt;Node2 -->
<g id="edge20" class="edge">
<title>Node11&#45;&gt;Node2</title>
<path fill="none" stroke="#63b8ff" d="M1069.68,-44.86C1038.81,-55.33 1002.35,-67.37 973.66,-76.52"/>
<polygon fill="#63b8ff" stroke="#63b8ff" points="1070.58,-47.91 1078.92,-41.37 1068.32,-41.28 1070.58,-47.91"/>
</g>
<!-- Node12&#45;&gt;Node2 -->
<g id="edge22" class="edge">
<title>Node12&#45;&gt;Node2</title>
<path fill="none" stroke="#63b8ff" d="M1195.38,-43.63C1119.31,-61.37 1032.42,-75.91 977.91,-84.02"/>
<polygon fill="#63b8ff" stroke="#63b8ff" points="1196.11,-46.82 1205.04,-41.11 1194.5,-40.01 1196.11,-46.82"/>
</g>
<!-- Node13&#45;&gt;Node2 -->
<g id="edge24" class="edge">
<title>Node13&#45;&gt;Node2</title>
<path fill="none" stroke="#63b8ff" d="M1325.67,-43.26C1201.03,-68.78 1054.7,-82.18 977.75,-87.76"/>
<polygon fill="#63b8ff" stroke="#63b8ff" points="1326.05,-46.55 1335.13,-41.08 1324.62,-39.69 1326.05,-46.55"/>
</g>
<!-- Node14&#45;&gt;Node2 -->
<g id="edge26" class="edge">
<title>Node14&#45;&gt;Node2</title>
<path fill="none" stroke="#63b8ff" d="M1453.64,-43.1C1280.02,-76.13 1073.3,-86.57 977.68,-89.72"/>
<polygon fill="#63b8ff" stroke="#63b8ff" points="1454.09,-46.39 1463.24,-41.05 1452.76,-39.52 1454.09,-46.39"/>
</g>
<!-- Node15&#45;&gt;Node2 -->
<g id="edge28" class="edge">
<title>Node15&#45;&gt;Node2</title>
<path fill="none" stroke="#63b8ff" d="M1581.57,-43.02C1358.14,-83.59 1089.77,-90.07 977.64,-90.95"/>
<polygon fill="#63b8ff" stroke="#63b8ff" points="1581.97,-46.32 1591.17,-41.06 1580.7,-39.44 1581.97,-46.32"/>
</g>
<!-- Node16&#45;&gt;Node2 -->
<g id="edge30" class="edge">
<title>Node16&#45;&gt;Node2</title>
<path fill="none" stroke="#63b8ff" d="M1709.53,-42.88C1556.23,-67.74 1128.46,-84.31 977.76,-89.36"/>
<polygon fill="#63b8ff" stroke="#63b8ff" points="1709.81,-46.21 1719.08,-41.08 1708.63,-39.31 1709.81,-46.21"/>
</g>
</g>
</svg>
