<?xml version="1.0" encoding="UTF-8" standalone="no"?>
<!DOCTYPE svg PUBLIC "-//W3C//DTD SVG 1.1//EN"
 "http://www.w3.org/Graphics/SVG/1.1/DTD/svg11.dtd">
<!-- Generated by graphviz version 8.0.1 (20230327.1645)
 -->
<!-- Title: include/experimental/linear_algebra/private_support.hpp Pages: 1 -->
<!--zoomable 236 -->
<svg id="main" version="1.1" xmlns="http://www.w3.org/2000/svg" xmlns:xlink="http://www.w3.org/1999/xlink" xml:space="preserve" onload="init(evt)">
<style type="text/css"><![CDATA[
.edge:hover path { stroke: red; }
.edge:hover polygon { stroke: red; fill: red; }
]]></style>
<script type="text/javascript"><![CDATA[
var edges = document.getElementsByTagName('g');
if (edges && edges.length) {
  for (var i=0;i<edges.length;i++) {
    if (edges[i].id.substr(0,4)=='edge') {
      edges[i].setAttribute('class','edge');
    }
  }
}
]]></script>
        <defs>
                <circle id="rim" cx="0" cy="0" r="7"/>
                <circle id="rim2" cx="0" cy="0" r="3.5"/>
                <g id="zoomPlus">
                        <use xlink:href="#rim" fill="#404040">
                                <set attributeName="fill" to="#808080" begin="zoomplus.mouseover" end="zoomplus.mouseout"/>
                        </use>
                        <path d="M-4,0h8M0,-4v8" fill="none" stroke="white" stroke-width="1.5" pointer-events="none"/>
                </g>
                <g id="zoomMin">
                        <use xlink:href="#rim" fill="#404040">
                                <set attributeName="fill" to="#808080" begin="zoomminus.mouseover" end="zoomminus.mouseout"/>
                        </use>
                        <path d="M-4,0h8" fill="none" stroke="white" stroke-width="1.5" pointer-events="none"/>
                </g>
                <g id="dirArrow">
                        <path fill="none" stroke="white" stroke-width="1.5" d="M0,-3.0v7 M-2.5,-0.5L0,-3.0L2.5,-0.5"/>
                </g>
               <g id="resetDef">
                       <use xlink:href="#rim2" fill="#404040">
                               <set attributeName="fill" to="#808080" begin="reset.mouseover" end="reset.mouseout"/>
                       </use>
               </g>
        </defs>

<script type="text/javascript">
var viewWidth = 2874;
var viewHeight = 236;
var sectionId = 'dynsection-0';
</script>
<script xlink:href="svgpan.js"/>
<svg id="graph" class="graph">
<g id="viewport">
<title>include/experimental/linear_algebra/private_support.hpp</title>
<!-- Node1 -->
<g id="node1" class="node">
<title>Node1</title>
<g id="a_node1"><a xlink:title=" ">
<polygon fill="#999999" stroke="#666666" points="1565,-228 1453,-228 1453,-187 1565,-187 1565,-228"/>
<text text-anchor="start" x="1461" y="-216" font-family="Helvetica,sans-Serif" font-size="10.00">include/experimental</text>
<text text-anchor="start" x="1461" y="-205" font-family="Helvetica,sans-Serif" font-size="10.00">/linear_algebra/private</text>
<text text-anchor="middle" x="1509" y="-194" font-family="Helvetica,sans-Serif" font-size="10.00">_support.hpp</text>
</a>
</g>
</g>
<!-- Node2 -->
<g id="node2" class="node">
<title>Node2</title>
<g id="a_node2"><a xlink:href="linear__algebra_8hpp.html" target="_top" xlink:title=" ">
<polygon fill="white" stroke="#666666" points="1558,-151 1460,-151 1460,-121 1558,-121 1558,-151"/>
<text text-anchor="start" x="1468" y="-139" font-family="Helvetica,sans-Serif" font-size="10.00">experimental/linear</text>
<text text-anchor="middle" x="1509" y="-128" font-family="Helvetica,sans-Serif" font-size="10.00">_algebra.hpp</text>
</a>
</g>
</g>
<!-- Node1&#45;&gt;Node2 -->
<g id="edge1" class="edge">
<title>Node1&#45;&gt;Node2</title>
<path fill="none" stroke="#63b8ff" d="M1502.84,-186.77C1502.2,-179.13 1502.08,-170.3 1502.48,-162.21"/>
<polygon fill="#63b8ff" stroke="#63b8ff" points="1506.03,-162.74 1503.4,-152.47 1499.06,-162.14 1506.03,-162.74"/>
</g>
<!-- Node2&#45;&gt;Node1 -->
<g id="edge18" class="edge">
<title>Node2&#45;&gt;Node1</title>
<path fill="none" stroke="#63b8ff" d="M1514.6,-151.47C1515.52,-158.59 1515.89,-167.44 1515.71,-175.95"/>
<polygon fill="#63b8ff" stroke="#63b8ff" points="1512.17,-175.6 1515.16,-185.77 1519.16,-175.96 1512.17,-175.6"/>
</g>
<!-- Node3 -->
<g id="node3" class="node">
<title>Node3</title>
<g id="a_node3"><a xlink:title=" ">
<polygon fill="#e0e0e0" stroke="#999999" points="56,-79.5 0,-79.5 0,-60.5 56,-60.5 56,-79.5"/>
<text text-anchor="middle" x="28" y="-67.5" font-family="Helvetica,sans-Serif" font-size="10.00">algorithm</text>
</a>
</g>
</g>
<!-- Node2&#45;&gt;Node3 -->
<g id="edge2" class="edge">
<title>Node2&#45;&gt;Node3</title>
<path fill="none" stroke="#63b8ff" d="M1459.88,-134.25C1222.96,-130.51 203.95,-112.9 65,-85 62.79,-84.56 60.54,-84 58.29,-83.36"/>
<polygon fill="#63b8ff" stroke="#63b8ff" points="59.6,-79.77 49,-79.93 57.38,-86.41 59.6,-79.77"/>
</g>
<!-- Node4 -->
<g id="node4" class="node">
<title>Node4</title>
<g id="a_node4"><a xlink:title=" ">
<polygon fill="#e0e0e0" stroke="#999999" points="112,-79.5 74,-79.5 74,-60.5 112,-60.5 112,-79.5"/>
<text text-anchor="middle" x="93" y="-67.5" font-family="Helvetica,sans-Serif" font-size="10.00">array</text>
</a>
</g>
</g>
<!-- Node2&#45;&gt;Node4 -->
<g id="edge3" class="edge">
<title>Node2&#45;&gt;Node4</title>
<path fill="none" stroke="#63b8ff" d="M1459.81,-134.47C1228.27,-131.79 252.64,-118.59 121,-85 120.03,-84.75 119.06,-84.47 118.09,-84.16"/>
<polygon fill="#63b8ff" stroke="#63b8ff" points="119.52,-80.55 108.94,-79.94 116.83,-87.01 119.52,-80.55"/>
</g>
<!-- Node5 -->
<g id="node5" class="node">
<title>Node5</title>
<g id="a_node5"><a xlink:title=" ">
<polygon fill="#e0e0e0" stroke="#999999" points="186,-79.5 130,-79.5 130,-60.5 186,-60.5 186,-79.5"/>
<text text-anchor="middle" x="158" y="-67.5" font-family="Helvetica,sans-Serif" font-size="10.00">concepts</text>
</a>
</g>
</g>
<!-- Node2&#45;&gt;Node5 -->
<g id="edge4" class="edge">
<title>Node2&#45;&gt;Node5</title>
<path fill="none" stroke="#63b8ff" d="M1459.52,-135.19C1251.19,-135.67 444.66,-134.25 196,-85 193.65,-84.53 191.25,-83.94 188.85,-83.27"/>
<polygon fill="#63b8ff" stroke="#63b8ff" points="190.16,-79.69 179.57,-79.91 187.99,-86.34 190.16,-79.69"/>
</g>
<!-- Node6 -->
<g id="node6" class="node">
<title>Node6</title>
<g id="a_node6"><a xlink:title=" ">
<polygon fill="#e0e0e0" stroke="#999999" points="257.5,-79.5 204.5,-79.5 204.5,-60.5 257.5,-60.5 257.5,-79.5"/>
<text text-anchor="middle" x="231" y="-67.5" font-family="Helvetica,sans-Serif" font-size="10.00">complex</text>
</a>
</g>
</g>
<!-- Node2&#45;&gt;Node6 -->
<g id="edge5" class="edge">
<title>Node2&#45;&gt;Node6</title>
<path fill="none" stroke="#63b8ff" d="M1459.82,-135.18C1259,-135.58 500.83,-133.76 267,-85 264.93,-84.57 262.83,-84.03 260.73,-83.42"/>
<polygon fill="#63b8ff" stroke="#63b8ff" points="262.04,-79.83 251.45,-79.91 259.78,-86.45 262.04,-79.83"/>
</g>
<!-- Node7 -->
<g id="node7" class="node">
<title>Node7</title>
<g id="a_node7"><a xlink:title=" ">
<polygon fill="#e0e0e0" stroke="#999999" points="324.5,-79.5 275.5,-79.5 275.5,-60.5 324.5,-60.5 324.5,-79.5"/>
<text text-anchor="middle" x="300" y="-67.5" font-family="Helvetica,sans-Serif" font-size="10.00">cstddef</text>
</a>
</g>
</g>
<!-- Node2&#45;&gt;Node7 -->
<g id="edge6" class="edge">
<title>Node2&#45;&gt;Node7</title>
<path fill="none" stroke="#63b8ff" d="M1459.5,-135.17C1265.07,-135.5 553.6,-133.32 334,-85 332.2,-84.6 330.37,-84.12 328.55,-83.57"/>
<polygon fill="#63b8ff" stroke="#63b8ff" points="329.92,-79.99 319.33,-79.91 327.56,-86.58 329.92,-79.99"/>
</g>
<!-- Node8 -->
<g id="node8" class="node">
<title>Node8</title>
<g id="a_node8"><a xlink:title=" ">
<polygon fill="#e0e0e0" stroke="#999999" points="401.5,-79.5 342.5,-79.5 342.5,-60.5 401.5,-60.5 401.5,-79.5"/>
<text text-anchor="middle" x="372" y="-67.5" font-family="Helvetica,sans-Serif" font-size="10.00">execution</text>
</a>
</g>
</g>
<!-- Node2&#45;&gt;Node8 -->
<g id="edge7" class="edge">
<title>Node2&#45;&gt;Node8</title>
<path fill="none" stroke="#63b8ff" d="M1459.67,-134.71C1273.8,-133.3 615.99,-125.5 411,-85 408.5,-84.51 405.94,-83.88 403.4,-83.17"/>
<polygon fill="#63b8ff" stroke="#63b8ff" points="404.72,-79.6 394.13,-79.88 402.59,-86.26 404.72,-79.6"/>
</g>
<!-- Node9 -->
<g id="node9" class="node">
<title>Node9</title>
<g id="a_node9"><a xlink:title=" ">
<polygon fill="#e0e0e0" stroke="#999999" points="478.5,-79.5 419.5,-79.5 419.5,-60.5 478.5,-60.5 478.5,-79.5"/>
<text text-anchor="middle" x="449" y="-67.5" font-family="Helvetica,sans-Serif" font-size="10.00">exception</text>
</a>
</g>
</g>
<!-- Node2&#45;&gt;Node9 -->
<g id="edge8" class="edge">
<title>Node2&#45;&gt;Node9</title>
<path fill="none" stroke="#63b8ff" d="M1459.51,-134.51C1281.92,-132.44 677.27,-122.74 488,-85 485.5,-84.5 482.94,-83.87 480.4,-83.16"/>
<polygon fill="#63b8ff" stroke="#63b8ff" points="481.72,-79.59 471.13,-79.87 479.59,-86.25 481.72,-79.59"/>
</g>
<!-- Node10 -->
<g id="node10" class="node">
<title>Node10</title>
<g id="a_node10"><a xlink:title=" ">
<polygon fill="#e0e0e0" stroke="#999999" points="555.5,-79.5 496.5,-79.5 496.5,-60.5 555.5,-60.5 555.5,-79.5"/>
<text text-anchor="middle" x="526" y="-67.5" font-family="Helvetica,sans-Serif" font-size="10.00">functional</text>
</a>
</g>
</g>
<!-- Node2&#45;&gt;Node10 -->
<g id="edge9" class="edge">
<title>Node2&#45;&gt;Node10</title>
<path fill="none" stroke="#63b8ff" d="M1459.79,-134.28C1291.35,-131.53 738.76,-120 565,-85 562.65,-84.53 560.25,-83.94 557.86,-83.28"/>
<polygon fill="#63b8ff" stroke="#63b8ff" points="559.14,-79.69 548.54,-80 557.01,-86.36 559.14,-79.69"/>
</g>
<!-- Node11 -->
<g id="node11" class="node">
<title>Node11</title>
<g id="a_node11"><a xlink:title=" ">
<polygon fill="#e0e0e0" stroke="#999999" points="626,-79.5 574,-79.5 574,-60.5 626,-60.5 626,-79.5"/>
<text text-anchor="middle" x="600" y="-67.5" font-family="Helvetica,sans-Serif" font-size="10.00">memory</text>
</a>
</g>
</g>
<!-- Node2&#45;&gt;Node11 -->
<g id="edge10" class="edge">
<title>Node2&#45;&gt;Node11</title>
<path fill="none" stroke="#63b8ff" d="M1459.53,-134.26C1299.01,-131.55 793.93,-120.34 635,-85 633.2,-84.6 631.37,-84.12 629.54,-83.58"/>
<polygon fill="#63b8ff" stroke="#63b8ff" points="630.86,-79.98 620.27,-80 628.56,-86.59 630.86,-79.98"/>
</g>
<!-- Node12 -->
<g id="node12" class="node">
<title>Node12</title>
<g id="a_node12"><a xlink:title=" ">
<polygon fill="#e0e0e0" stroke="#999999" points="682,-79.5 644,-79.5 644,-60.5 682,-60.5 682,-79.5"/>
<text text-anchor="middle" x="663" y="-67.5" font-family="Helvetica,sans-Serif" font-size="10.00">span</text>
</a>
</g>
</g>
<!-- Node2&#45;&gt;Node12 -->
<g id="edge11" class="edge">
<title>Node2&#45;&gt;Node12</title>
<path fill="none" stroke="#63b8ff" d="M1459.72,-134.47C1306.23,-132.45 838.35,-123.22 692,-85 690.86,-84.7 689.72,-84.36 688.57,-83.98"/>
<polygon fill="#63b8ff" stroke="#63b8ff" points="690.11,-80.42 679.53,-79.86 687.45,-86.89 690.11,-80.42"/>
</g>
<!-- Node13 -->
<g id="node13" class="node">
<title>Node13</title>
<g id="a_node13"><a xlink:title=" ">
<polygon fill="#e0e0e0" stroke="#999999" points="759.5,-79.5 700.5,-79.5 700.5,-60.5 759.5,-60.5 759.5,-79.5"/>
<text text-anchor="middle" x="730" y="-67.5" font-family="Helvetica,sans-Serif" font-size="10.00">stdexcept</text>
</a>
</g>
</g>
<!-- Node2&#45;&gt;Node13 -->
<g id="edge12" class="edge">
<title>Node2&#45;&gt;Node13</title>
<path fill="none" stroke="#63b8ff" d="M1459.75,-133.45C1316.49,-128.66 901.66,-112.73 769,-85 766.65,-84.51 764.26,-83.91 761.87,-83.24"/>
<polygon fill="#63b8ff" stroke="#63b8ff" points="763.15,-79.65 752.56,-79.94 761.01,-86.32 763.15,-79.65"/>
</g>
<!-- Node14 -->
<g id="node14" class="node">
<title>Node14</title>
<g id="a_node14"><a xlink:title=" ">
<polygon fill="#e0e0e0" stroke="#999999" points="816,-79.5 778,-79.5 778,-60.5 816,-60.5 816,-79.5"/>
<text text-anchor="middle" x="797" y="-67.5" font-family="Helvetica,sans-Serif" font-size="10.00">tuple</text>
</a>
</g>
</g>
<!-- Node2&#45;&gt;Node14 -->
<g id="edge13" class="edge">
<title>Node2&#45;&gt;Node14</title>
<path fill="none" stroke="#63b8ff" d="M1459.94,-133.89C1324.04,-130.41 944.83,-117.95 825,-85 824.06,-84.74 823.11,-84.45 822.17,-84.13"/>
<polygon fill="#63b8ff" stroke="#63b8ff" points="823.84,-80.62 813.27,-79.97 821.13,-87.07 823.84,-80.62"/>
</g>
<!-- Node15 -->
<g id="node15" class="node">
<title>Node15</title>
<g id="a_node15"><a xlink:title=" ">
<polygon fill="#e0e0e0" stroke="#999999" points="896,-79.5 834,-79.5 834,-60.5 896,-60.5 896,-79.5"/>
<text text-anchor="middle" x="865" y="-67.5" font-family="Helvetica,sans-Serif" font-size="10.00">type_traits</text>
</a>
</g>
</g>
<!-- Node2&#45;&gt;Node15 -->
<g id="edge14" class="edge">
<title>Node2&#45;&gt;Node15</title>
<path fill="none" stroke="#63b8ff" d="M1459.59,-134.51C1356.48,-132.69 1111.27,-124.22 910,-85 906.99,-84.41 903.89,-83.7 900.8,-82.9"/>
<polygon fill="#63b8ff" stroke="#63b8ff" points="902.03,-79.33 891.45,-79.98 900.12,-86.07 902.03,-79.33"/>
</g>
<!-- Node16 -->
<g id="node16" class="node">
<title>Node16</title>
<g id="a_node16"><a xlink:title=" ">
<polygon fill="#e0e0e0" stroke="#999999" points="1020,-19 910,-19 910,0 1020,0 1020,-19"/>
<text text-anchor="middle" x="965" y="-7" font-family="Helvetica,sans-Serif" font-size="10.00">experimental/mdspan</text>
</a>
</g>
</g>
<!-- Node2&#45;&gt;Node16 -->
<g id="edge15" class="edge">
<title>Node2&#45;&gt;Node16</title>
<path fill="none" stroke="#63b8ff" d="M1459.95,-134.37C1328.79,-132.17 977.6,-122.79 943,-85 928.54,-69.2 940.49,-44.33 951.65,-27.72"/>
<polygon fill="#63b8ff" stroke="#63b8ff" points="954.9,-30.19 957.92,-20.03 949.23,-26.09 954.9,-30.19"/>
</g>
<!-- Node17 -->
<g id="node17" class="node">
<title>Node17</title>
<g id="a_node17"><a xlink:href="mdspan__improvements_8hpp.html" target="_top" xlink:title=" ">
<polygon fill="white" stroke="#666666" points="1062,-85 952,-85 952,-55 1062,-55 1062,-85"/>
<text text-anchor="start" x="960" y="-73" font-family="Helvetica,sans-Serif" font-size="10.00">experimental/mdspan</text>
<text text-anchor="middle" x="1007" y="-62" font-family="Helvetica,sans-Serif" font-size="10.00">_improvements.hpp</text>
</a>
</g>
</g>
<!-- Node2&#45;&gt;Node17 -->
<g id="edge16" class="edge">
<title>Node2&#45;&gt;Node17</title>
<path fill="none" stroke="#63b8ff" d="M1459.63,-130.94C1380.34,-124.08 1219.54,-108.73 1072.79,-85.01"/>
<polygon fill="#63b8ff" stroke="#63b8ff" points="1073.68,-81.44 1063.25,-83.29 1072.55,-88.35 1073.68,-81.44"/>
</g>
<!-- Node18 -->
<g id="node18" class="node">
<title>Node18</title>
<g id="a_node18"><a xlink:href="tensor__concepts_8hpp.html" target="_top" xlink:title=" ">
<polygon fill="white" stroke="#666666" points="1187.5,-85 1080.5,-85 1080.5,-55 1187.5,-55 1187.5,-85"/>
<text text-anchor="start" x="1088.5" y="-73" font-family="Helvetica,sans-Serif" font-size="10.00">linear_algebra/tensor</text>
<text text-anchor="middle" x="1134" y="-62" font-family="Helvetica,sans-Serif" font-size="10.00">_concepts.hpp</text>
</a>
</g>
</g>
<!-- Node2&#45;&gt;Node18 -->
<g id="edge19" class="edge">
<title>Node2&#45;&gt;Node18</title>
<path fill="none" stroke="#63b8ff" d="M1459.69,-128.9C1398.74,-120.53 1292.02,-104.53 1198.97,-87.08"/>
<polygon fill="#63b8ff" stroke="#63b8ff" points="1199.76,-83.47 1189.28,-85.05 1198.45,-90.35 1199.76,-83.47"/>
</g>
<!-- Node19 -->
<g id="node19" class="node">
<title>Node19</title>
<g id="a_node19"><a xlink:href="vector__concepts_8hpp.html" target="_top" xlink:title=" ">
<polygon fill="white" stroke="#666666" points="1312.5,-85 1205.5,-85 1205.5,-55 1312.5,-55 1312.5,-85"/>
<text text-anchor="start" x="1213.5" y="-73" font-family="Helvetica,sans-Serif" font-size="10.00">linear_algebra/vector</text>
<text text-anchor="middle" x="1259" y="-62" font-family="Helvetica,sans-Serif" font-size="10.00">_concepts.hpp</text>
</a>
</g>
</g>
<!-- Node2&#45;&gt;Node19 -->
<g id="edge21" class="edge">
<title>Node2&#45;&gt;Node19</title>
<path fill="none" stroke="#63b8ff" d="M1459.59,-123.71C1419.57,-113.88 1363.11,-99.49 1320.24,-88.23"/>
<polygon fill="#63b8ff" stroke="#63b8ff" points="1321.21,-84.6 1310.65,-85.44 1319.43,-91.37 1321.21,-84.6"/>
</g>
<!-- Node20 -->
<g id="node20" class="node">
<title>Node20</title>
<g id="a_node20"><a xlink:href="matrix__concepts_8hpp.html" target="_top" xlink:title=" ">
<polygon fill="white" stroke="#666666" points="1437.5,-85 1330.5,-85 1330.5,-55 1437.5,-55 1437.5,-85"/>
<text text-anchor="start" x="1338.5" y="-73" font-family="Helvetica,sans-Serif" font-size="10.00">linear_algebra/matrix</text>
<text text-anchor="middle" x="1384" y="-62" font-family="Helvetica,sans-Serif" font-size="10.00">_concepts.hpp</text>
</a>
</g>
</g>
<!-- Node2&#45;&gt;Node20 -->
<g id="edge23" class="edge">
<title>Node2&#45;&gt;Node20</title>
<path fill="none" stroke="#63b8ff" d="M1475.21,-120.64C1456.7,-111.74 1433.99,-100.21 1415.81,-90.49"/>
<polygon fill="#63b8ff" stroke="#63b8ff" points="1417.69,-86.99 1407.22,-85.31 1414.36,-93.15 1417.69,-86.99"/>
</g>
<!-- Node21 -->
<g id="node21" class="node">
<title>Node21</title>
<g id="a_node21"><a xlink:href="tensor__view_8hpp.html" target="_top" xlink:title=" ">
<polygon fill="white" stroke="#666666" points="1562.5,-85 1455.5,-85 1455.5,-55 1562.5,-55 1562.5,-85"/>
<text text-anchor="start" x="1463.5" y="-73" font-family="Helvetica,sans-Serif" font-size="10.00">linear_algebra/tensor</text>
<text text-anchor="middle" x="1509" y="-62" font-family="Helvetica,sans-Serif" font-size="10.00">_view.hpp</text>
</a>
</g>
</g>
<!-- Node2&#45;&gt;Node21 -->
<g id="edge25" class="edge">
<title>Node2&#45;&gt;Node21</title>
<path fill="none" stroke="#63b8ff" d="M1503.28,-120.8C1502.33,-113.5 1502.04,-104.41 1502.4,-95.99"/>
<polygon fill="#63b8ff" stroke="#63b8ff" points="1505.95,-96.42 1503.29,-86.16 1498.98,-95.84 1505.95,-96.42"/>
</g>
<!-- Node22 -->
<g id="node22" class="node">
<title>Node22</title>
<g id="a_node22"><a xlink:href="vector__view_8hpp.html" target="_top" xlink:title=" ">
<polygon fill="white" stroke="#666666" points="1687.5,-85 1580.5,-85 1580.5,-55 1687.5,-55 1687.5,-85"/>
<text text-anchor="start" x="1588.5" y="-73" font-family="Helvetica,sans-Serif" font-size="10.00">linear_algebra/vector</text>
<text text-anchor="middle" x="1634" y="-62" font-family="Helvetica,sans-Serif" font-size="10.00">_view.hpp</text>
</a>
</g>
</g>
<!-- Node2&#45;&gt;Node22 -->
<g id="edge27" class="edge">
<title>Node2&#45;&gt;Node22</title>
<path fill="none" stroke="#63b8ff" d="M1531.31,-120.64C1547.77,-111.62 1570.52,-99.89 1590.48,-90.09"/>
<polygon fill="#63b8ff" stroke="#63b8ff" points="1591.84,-92.83 1599.31,-85.31 1588.78,-86.54 1591.84,-92.83"/>
</g>
<!-- Node23 -->
<g id="node23" class="node">
<title>Node23</title>
<g id="a_node23"><a xlink:href="matrix__view_8hpp.html" target="_top" xlink:title=" ">
<polygon fill="white" stroke="#666666" points="1812.5,-85 1705.5,-85 1705.5,-55 1812.5,-55 1812.5,-85"/>
<text text-anchor="start" x="1713.5" y="-73" font-family="Helvetica,sans-Serif" font-size="10.00">linear_algebra/matrix</text>
<text text-anchor="middle" x="1759" y="-62" font-family="Helvetica,sans-Serif" font-size="10.00">_view.hpp</text>
</a>
</g>
</g>
<!-- Node2&#45;&gt;Node23 -->
<g id="edge29" class="edge">
<title>Node2&#45;&gt;Node23</title>
<path fill="none" stroke="#63b8ff" d="M1558.46,-120.88C1597.54,-110.53 1652.29,-96.5 1694.75,-85.96"/>
<polygon fill="#63b8ff" stroke="#63b8ff" points="1695.39,-89.16 1704.26,-83.36 1693.71,-82.36 1695.39,-89.16"/>
</g>
<!-- Node24 -->
<g id="node24" class="node">
<title>Node24</title>
<g id="a_node24"><a xlink:href="fixed__size__tensor_8hpp.html" target="_top" xlink:title=" ">
<polygon fill="white" stroke="#666666" points="1931.5,-85 1830.5,-85 1830.5,-55 1931.5,-55 1931.5,-85"/>
<text text-anchor="start" x="1838.5" y="-73" font-family="Helvetica,sans-Serif" font-size="10.00">linear_algebra/fixed</text>
<text text-anchor="middle" x="1881" y="-62" font-family="Helvetica,sans-Serif" font-size="10.00">_size_tensor.hpp</text>
</a>
</g>
</g>
<!-- Node2&#45;&gt;Node24 -->
<g id="edge31" class="edge">
<title>Node2&#45;&gt;Node24</title>
<path fill="none" stroke="#63b8ff" d="M1558.36,-127.35C1618.71,-118.47 1723.53,-102.74 1813,-85 1815.18,-84.57 1817.4,-84.11 1819.64,-83.64"/>
<polygon fill="#63b8ff" stroke="#63b8ff" points="1820.24,-86.87 1829.27,-81.33 1818.75,-80.03 1820.24,-86.87"/>
</g>
<!-- Node25 -->
<g id="node25" class="node">
<title>Node25</title>
<g id="a_node25"><a xlink:href="dynamic__tensor_8hpp.html" target="_top" xlink:title=" ">
<polygon fill="white" stroke="#666666" points="2066,-85 1950,-85 1950,-55 2066,-55 2066,-85"/>
<text text-anchor="start" x="1958" y="-73" font-family="Helvetica,sans-Serif" font-size="10.00">linear_algebra/dynamic</text>
<text text-anchor="middle" x="2008" y="-62" font-family="Helvetica,sans-Serif" font-size="10.00">_tensor.hpp</text>
</a>
</g>
</g>
<!-- Node2&#45;&gt;Node25 -->
<g id="edge33" class="edge">
<title>Node2&#45;&gt;Node25</title>
<path fill="none" stroke="#63b8ff" d="M1558.28,-130.24C1637.45,-122.76 1797.29,-106.82 1932,-85 1934.34,-84.62 1936.71,-84.22 1939.11,-83.79"/>
<polygon fill="#63b8ff" stroke="#63b8ff" points="1939.56,-87.09 1948.76,-81.83 1938.29,-80.2 1939.56,-87.09"/>
</g>
<!-- Node26 -->
<g id="node26" class="node">
<title>Node26</title>
<g id="a_node26"><a xlink:href="fixed__size__matrix_8hpp.html" target="_top" xlink:title=" ">
<polygon fill="white" stroke="#666666" points="2185.5,-85 2084.5,-85 2084.5,-55 2185.5,-55 2185.5,-85"/>
<text text-anchor="start" x="2092.5" y="-73" font-family="Helvetica,sans-Serif" font-size="10.00">linear_algebra/fixed</text>
<text text-anchor="middle" x="2135" y="-62" font-family="Helvetica,sans-Serif" font-size="10.00">_size_matrix.hpp</text>
</a>
</g>
</g>
<!-- Node2&#45;&gt;Node26 -->
<g id="edge35" class="edge">
<title>Node2&#45;&gt;Node26</title>
<path fill="none" stroke="#63b8ff" d="M1558.31,-132.74C1655.87,-127.99 1879.71,-114.81 2066,-85 2068.5,-84.6 2071.04,-84.16 2073.61,-83.68"/>
<polygon fill="#63b8ff" stroke="#63b8ff" points="2074.16,-86.94 2083.28,-81.55 2072.79,-80.07 2074.16,-86.94"/>
</g>
<!-- Node27 -->
<g id="node27" class="node">
<title>Node27</title>
<g id="a_node27"><a xlink:href="dynamic__matrix_8hpp.html" target="_top" xlink:title=" ">
<polygon fill="white" stroke="#666666" points="2320,-85 2204,-85 2204,-55 2320,-55 2320,-85"/>
<text text-anchor="start" x="2212" y="-73" font-family="Helvetica,sans-Serif" font-size="10.00">linear_algebra/dynamic</text>
<text text-anchor="middle" x="2262" y="-62" font-family="Helvetica,sans-Serif" font-size="10.00">_matrix.hpp</text>
</a>
</g>
</g>
<!-- Node2&#45;&gt;Node27 -->
<g id="edge37" class="edge">
<title>Node2&#45;&gt;Node27</title>
<path fill="none" stroke="#63b8ff" d="M1558.21,-133.51C1670.25,-129.76 1952.15,-117.81 2186,-85 2188.34,-84.67 2190.73,-84.31 2193.13,-83.92"/>
<polygon fill="#63b8ff" stroke="#63b8ff" points="2193.54,-87.23 2202.8,-82.07 2192.35,-80.33 2193.54,-87.23"/>
</g>
<!-- Node28 -->
<g id="node28" class="node">
<title>Node28</title>
<g id="a_node28"><a xlink:href="fixed__size__vector_8hpp.html" target="_top" xlink:title=" ">
<polygon fill="white" stroke="#666666" points="2439.5,-85 2338.5,-85 2338.5,-55 2439.5,-55 2439.5,-85"/>
<text text-anchor="start" x="2346.5" y="-73" font-family="Helvetica,sans-Serif" font-size="10.00">linear_algebra/fixed</text>
<text text-anchor="middle" x="2389" y="-62" font-family="Helvetica,sans-Serif" font-size="10.00">_size_vector.hpp</text>
</a>
</g>
</g>
<!-- Node2&#45;&gt;Node28 -->
<g id="edge39" class="edge">
<title>Node2&#45;&gt;Node28</title>
<path fill="none" stroke="#63b8ff" d="M1558.07,-134.84C1684.9,-133.79 2033.16,-126.91 2320,-85 2322.5,-84.63 2325.05,-84.22 2327.63,-83.76"/>
<polygon fill="#63b8ff" stroke="#63b8ff" points="2328.15,-87.03 2337.3,-81.7 2326.82,-80.16 2328.15,-87.03"/>
</g>
<!-- Node29 -->
<g id="node29" class="node">
<title>Node29</title>
<g id="a_node29"><a xlink:href="dynamic__vector_8hpp.html" target="_top" xlink:title=" ">
<polygon fill="white" stroke="#666666" points="2574,-85 2458,-85 2458,-55 2574,-55 2574,-85"/>
<text text-anchor="start" x="2466" y="-73" font-family="Helvetica,sans-Serif" font-size="10.00">linear_algebra/dynamic</text>
<text text-anchor="middle" x="2516" y="-62" font-family="Helvetica,sans-Serif" font-size="10.00">_vector.hpp</text>
</a>
</g>
</g>
<!-- Node2&#45;&gt;Node29 -->
<g id="edge41" class="edge">
<title>Node2&#45;&gt;Node29</title>
<path fill="none" stroke="#63b8ff" d="M1558.27,-135.01C1697.48,-134.42 2104.75,-128.68 2440,-85 2442.35,-84.69 2444.73,-84.35 2447.14,-83.98"/>
<polygon fill="#63b8ff" stroke="#63b8ff" points="2447.53,-87.29 2456.81,-82.18 2446.37,-80.39 2447.53,-87.29"/>
</g>
<!-- Node30 -->
<g id="node30" class="node">
<title>Node30</title>
<g id="a_node30"><a xlink:href="instant__evaluated__operations_8hpp.html" target="_top" xlink:title=" ">
<polygon fill="white" stroke="#666666" points="2725.5,-85 2592.5,-85 2592.5,-55 2725.5,-55 2725.5,-85"/>
<text text-anchor="start" x="2600.5" y="-73" font-family="Helvetica,sans-Serif" font-size="10.00">linear_algebra/instant</text>
<text text-anchor="middle" x="2659" y="-62" font-family="Helvetica,sans-Serif" font-size="10.00">_evaluated_operations.hpp</text>
</a>
</g>
</g>
<!-- Node2&#45;&gt;Node30 -->
<g id="edge43" class="edge">
<title>Node2&#45;&gt;Node30</title>
<path fill="none" stroke="#63b8ff" d="M1558.27,-135.07C1710.21,-134.73 2184.11,-129.78 2574,-85 2576.38,-84.73 2578.8,-84.42 2581.25,-84.09"/>
<polygon fill="#63b8ff" stroke="#63b8ff" points="2581.68,-87.42 2591.08,-82.52 2580.67,-80.5 2581.68,-87.42"/>
</g>
<!-- Node31 -->
<g id="node31" class="node">
<title>Node31</title>
<g id="a_node31"><a xlink:href="arithmetic__operators_8hpp.html" target="_top" xlink:title=" ">
<polygon fill="white" stroke="#666666" points="2866,-85 2744,-85 2744,-55 2866,-55 2866,-85"/>
<text text-anchor="start" x="2752" y="-73" font-family="Helvetica,sans-Serif" font-size="10.00">linear_algebra/arithmetic</text>
<text text-anchor="middle" x="2805" y="-62" font-family="Helvetica,sans-Serif" font-size="10.00">_operators.hpp</text>
</a>
</g>
</g>
<!-- Node2&#45;&gt;Node31 -->
<g id="edge45" class="edge">
<title>Node2&#45;&gt;Node31</title>
<path fill="none" stroke="#63b8ff" d="M1558.5,-133.95C1756.81,-129.72 2493.6,-112.81 2726,-85 2728.35,-84.72 2730.74,-84.4 2733.15,-84.06"/>
<polygon fill="#63b8ff" stroke="#63b8ff" points="2733.5,-87.39 2742.83,-82.37 2732.41,-80.47 2733.5,-87.39"/>
</g>
<!-- Node17&#45;&gt;Node16 -->
<g id="edge17" class="edge">
<title>Node17&#45;&gt;Node16</title>
<path fill="none" stroke="#63b8ff" d="M996.62,-54.54C990.83,-46.48 983.58,-36.38 977.48,-27.89"/>
<polygon fill="#63b8ff" stroke="#63b8ff" points="979.9,-26.26 971.23,-20.18 974.22,-30.34 979.9,-26.26"/>
</g>
<!-- Node18&#45;&gt;Node2 -->
<g id="edge20" class="edge">
<title>Node18&#45;&gt;Node2</title>
<path fill="none" stroke="#63b8ff" d="M1187.93,-81.35C1194.05,-82.63 1200.17,-83.89 1206,-85 1290.13,-101.07 1387.68,-116.14 1448.96,-125.45"/>
<polygon fill="#63b8ff" stroke="#63b8ff" points="1448.18,-129.02 1458.6,-127.06 1449.23,-122.1 1448.18,-129.02"/>
</g>
<!-- Node19&#45;&gt;Node2 -->
<g id="edge22" class="edge">
<title>Node19&#45;&gt;Node2</title>
<path fill="none" stroke="#63b8ff" d="M1312.74,-83.36C1352.83,-93.24 1407.51,-107.19 1449.02,-118.1"/>
<polygon fill="#63b8ff" stroke="#63b8ff" points="1447.97,-121.71 1458.54,-120.88 1449.76,-114.94 1447.97,-121.71"/>
</g>
<!-- Node20&#45;&gt;Node2 -->
<g id="edge24" class="edge">
<title>Node20&#45;&gt;Node2</title>
<path fill="none" stroke="#63b8ff" d="M1417.69,-85.31C1436.19,-94.2 1458.89,-105.73 1477.1,-115.45"/>
<polygon fill="#63b8ff" stroke="#63b8ff" points="1475.23,-118.96 1485.69,-120.64 1478.55,-112.8 1475.23,-118.96"/>
</g>
<!-- Node21&#45;&gt;Node2 -->
<g id="edge26" class="edge">
<title>Node21&#45;&gt;Node2</title>
<path fill="none" stroke="#63b8ff" d="M1514.71,-85.16C1515.66,-92.45 1515.96,-101.55 1515.61,-109.97"/>
<polygon fill="#63b8ff" stroke="#63b8ff" points="1512.05,-109.54 1514.72,-119.8 1519.02,-110.11 1512.05,-109.54"/>
</g>
<!-- Node22&#45;&gt;Node2 -->
<g id="edge28" class="edge">
<title>Node22&#45;&gt;Node2</title>
<path fill="none" stroke="#63b8ff" d="M1611.78,-85.31C1595.34,-94.32 1572.59,-106.05 1552.63,-115.86"/>
<polygon fill="#63b8ff" stroke="#63b8ff" points="1551.26,-113.12 1543.79,-120.64 1554.32,-119.41 1551.26,-113.12"/>
</g>
<!-- Node23&#45;&gt;Node2 -->
<g id="edge30" class="edge">
<title>Node23&#45;&gt;Node2</title>
<path fill="none" stroke="#63b8ff" d="M1708.35,-85.44C1668,-96.11 1611.51,-110.57 1568.92,-121.11"/>
<polygon fill="#63b8ff" stroke="#63b8ff" points="1568.28,-117.91 1559.41,-123.71 1569.96,-124.71 1568.28,-117.91"/>
</g>
<!-- Node24&#45;&gt;Node2 -->
<g id="edge32" class="edge">
<title>Node24&#45;&gt;Node2</title>
<path fill="none" stroke="#63b8ff" d="M1830.16,-85.17C1739.88,-103.03 1634.18,-118.84 1569.32,-127.64"/>
<polygon fill="#63b8ff" stroke="#63b8ff" points="1568.93,-124.3 1559.48,-129.1 1569.86,-131.24 1568.93,-124.3"/>
</g>
<!-- Node25&#45;&gt;Node2 -->
<g id="edge34" class="edge">
<title>Node25&#45;&gt;Node2</title>
<path fill="none" stroke="#63b8ff" d="M1949.59,-85.07C1814.54,-106.92 1654.37,-122.86 1569.16,-130.31"/>
<polygon fill="#63b8ff" stroke="#63b8ff" points="1569.05,-126.89 1559.39,-131.24 1569.65,-133.86 1569.05,-126.89"/>
</g>
<!-- Node26&#45;&gt;Node2 -->
<g id="edge36" class="edge">
<title>Node26&#45;&gt;Node2</title>
<path fill="none" stroke="#63b8ff" d="M2083.72,-85.05C1897.5,-114.82 1673.85,-127.99 1568.83,-132.74"/>
<polygon fill="#63b8ff" stroke="#63b8ff" points="1568.97,-129.28 1559.13,-133.22 1569.28,-136.27 1568.97,-129.28"/>
</g>
<!-- Node27&#45;&gt;Node2 -->
<g id="edge38" class="edge">
<title>Node27&#45;&gt;Node2</title>
<path fill="none" stroke="#63b8ff" d="M2203.65,-85.05C1970.64,-117.71 1690.04,-129.69 1569.11,-133.47"/>
<polygon fill="#63b8ff" stroke="#63b8ff" points="1569.15,-130 1559.26,-133.8 1569.36,-136.99 1569.15,-130"/>
</g>
<!-- Node28&#45;&gt;Node2 -->
<g id="edge40" class="edge">
<title>Node28&#45;&gt;Node2</title>
<path fill="none" stroke="#63b8ff" d="M2337.57,-85.06C2052.19,-126.71 1706.17,-133.72 1569.03,-134.83"/>
<polygon fill="#63b8ff" stroke="#63b8ff" points="1569.33,-131.33 1559.35,-134.91 1569.38,-138.33 1569.33,-131.33"/>
</g>
<!-- Node29&#45;&gt;Node2 -->
<g id="edge42" class="edge">
<title>Node29&#45;&gt;Node2</title>
<path fill="none" stroke="#63b8ff" d="M2457.75,-85.03C2124.4,-128.44 1719.96,-134.35 1569.27,-135"/>
<polygon fill="#63b8ff" stroke="#63b8ff" points="1569.43,-131.5 1559.44,-135.04 1569.45,-138.5 1569.43,-131.5"/>
</g>
<!-- Node30&#45;&gt;Node2 -->
<g id="edge44" class="edge">
<title>Node30&#45;&gt;Node2</title>
<path fill="none" stroke="#63b8ff" d="M2591.71,-85.03C2204.29,-129.5 1734.03,-134.67 1569.34,-135.06"/>
<polygon fill="#63b8ff" stroke="#63b8ff" points="1569.47,-131.57 1559.48,-135.08 1569.48,-138.57 1569.47,-131.57"/>
</g>
<!-- Node31&#45;&gt;Node2 -->
<g id="edge46" class="edge">
<title>Node31&#45;&gt;Node2</title>
<path fill="none" stroke="#63b8ff" d="M2743.66,-85.04C2512.24,-112.66 1783.38,-129.52 1568.88,-133.87"/>
<polygon fill="#63b8ff" stroke="#63b8ff" points="1569.09,-130.39 1559.16,-134.09 1569.23,-137.39 1569.09,-130.39"/>
</g>
</g>
</svg>
        <g id="navigator" transform="translate(0 0)" fill="#404254">
                <rect fill="#f2f5e9" fill-opacity="0.5" stroke="#606060" stroke-width=".5" x="0" y="0" width="60" height="60"/>
                <use id="zoomplus" xlink:href="#zoomPlus" x="17" y="9" onmousedown="handleZoom(evt,'in')"/>
                <use id="zoomminus" xlink:href="#zoomMin" x="42" y="9" onmousedown="handleZoom(evt,'out')"/>
                <use id="reset" xlink:href="#resetDef" x="30" y="36" onmousedown="handleReset()"/>
                <g id="arrowUp" xlink:href="#dirArrow" transform="translate(30 24)" onmousedown="handlePan(0,-1)">
                  <use xlink:href="#rim" fill="#404040">
                        <set attributeName="fill" to="#808080" begin="arrowUp.mouseover" end="arrowUp.mouseout"/>
                  </use>
                  <path fill="none" stroke="white" stroke-width="1.5" d="M0,-3.0v7 M-2.5,-0.5L0,-3.0L2.5,-0.5"/>
                </g>
                <g id="arrowRight" xlink:href="#dirArrow" transform="rotate(90) translate(36 -43)" onmousedown="handlePan(1,0)">
                  <use xlink:href="#rim" fill="#404040">
                        <set attributeName="fill" to="#808080" begin="arrowRight.mouseover" end="arrowRight.mouseout"/>
                  </use>
                  <path fill="none" stroke="white" stroke-width="1.5" d="M0,-3.0v7 M-2.5,-0.5L0,-3.0L2.5,-0.5"/>
                </g>
                <g id="arrowDown" xlink:href="#dirArrow" transform="rotate(180) translate(-30 -48)" onmousedown="handlePan(0,1)">
                  <use xlink:href="#rim" fill="#404040">
                        <set attributeName="fill" to="#808080" begin="arrowDown.mouseover" end="arrowDown.mouseout"/>
                  </use>
                  <path fill="none" stroke="white" stroke-width="1.5" d="M0,-3.0v7 M-2.5,-0.5L0,-3.0L2.5,-0.5"/>
                </g>
                <g id="arrowLeft" xlink:href="#dirArrow" transform="rotate(270) translate(-36 17)" onmousedown="handlePan(-1,0)">
                  <use xlink:href="#rim" fill="#404040">
                        <set attributeName="fill" to="#808080" begin="arrowLeft.mouseover" end="arrowLeft.mouseout"/>
                  </use>
                  <path fill="none" stroke="white" stroke-width="1.5" d="M0,-3.0v7 M-2.5,-0.5L0,-3.0L2.5,-0.5"/>
                </g>
        </g>
        <svg viewBox="0 0 15 15" width="100%" height="30px" preserveAspectRatio="xMaxYMin meet">
         <g id="arrow_out" transform="scale(0.3 0.3)">
          <a xlink:href="private__support_8hpp__incl_org.svg" target="_base">
           <rect id="button" ry="5" rx="5" y="6" x="6" height="38" width="38"
                fill="#f2f5e9" fill-opacity="0.5" stroke="#606060" stroke-width="1.0"/>
           <path id="arrow"
             d="M 11.500037,31.436501 C 11.940474,20.09759 22.043105,11.32322 32.158766,21.979434 L 37.068811,17.246167 C 37.068811,17.246167 37.088388,32 37.088388,32 L 22.160133,31.978069 C 22.160133,31.978069 26.997745,27.140456 26.997745,27.140456 C 18.528582,18.264221 13.291696,25.230495 11.500037,31.436501 z"
             style="fill:#404040;"/>
          </a>
         </g>
        </svg>
</svg>
