<?xml version="1.0" encoding="UTF-8" standalone="no"?>
<!DOCTYPE svg PUBLIC "-//W3C//DTD SVG 1.1//EN"
 "http://www.w3.org/Graphics/SVG/1.1/DTD/svg11.dtd">
<!-- Generated by graphviz version 8.0.1 (20230327.1645)
 -->
<!-- Title: include/experimental/linear_algebra/private_support.hpp Pages: 1 -->
<svg width="3380pt" height="236pt"
 viewBox="0.00 0.00 3380.00 236.00" xmlns="http://www.w3.org/2000/svg" xmlns:xlink="http://www.w3.org/1999/xlink">
<g id="graph0" class="graph" transform="scale(1 1) rotate(0) translate(4 232)">
<title>include/experimental/linear_algebra/private_support.hpp</title>
<!-- Node1 -->
<g id="node1" class="node">
<title>Node1</title>
<g id="a_node1"><a xlink:title=" ">
<polygon fill="#999999" stroke="#666666" points="1821,-228 1709,-228 1709,-187 1821,-187 1821,-228"/>
<text text-anchor="start" x="1717" y="-216" font-family="Helvetica,sans-Serif" font-size="10.00">include/experimental</text>
<text text-anchor="start" x="1717" y="-205" font-family="Helvetica,sans-Serif" font-size="10.00">/linear_algebra/private</text>
<text text-anchor="middle" x="1765" y="-194" font-family="Helvetica,sans-Serif" font-size="10.00">_support.hpp</text>
</a>
</g>
</g>
<!-- Node2 -->
<g id="node2" class="node">
<title>Node2</title>
<g id="a_node2"><a xlink:href="linear__algebra_8hpp.html" target="_top" xlink:title=" ">
<polygon fill="white" stroke="#666666" points="1814,-151 1716,-151 1716,-121 1814,-121 1814,-151"/>
<text text-anchor="start" x="1724" y="-139" font-family="Helvetica,sans-Serif" font-size="10.00">experimental/linear</text>
<text text-anchor="middle" x="1765" y="-128" font-family="Helvetica,sans-Serif" font-size="10.00">_algebra.hpp</text>
</a>
</g>
</g>
<!-- Node1&#45;&gt;Node2 -->
<g id="edge1" class="edge">
<title>Node1&#45;&gt;Node2</title>
<path fill="none" stroke="#63b8ff" d="M1758.84,-186.77C1758.2,-179.13 1758.08,-170.3 1758.48,-162.21"/>
<polygon fill="#63b8ff" stroke="#63b8ff" points="1762.03,-162.74 1759.4,-152.47 1755.06,-162.14 1762.03,-162.74"/>
</g>
<!-- Node2&#45;&gt;Node1 -->
<g id="edge22" class="edge">
<title>Node2&#45;&gt;Node1</title>
<path fill="none" stroke="#63b8ff" d="M1770.6,-151.47C1771.52,-158.59 1771.89,-167.44 1771.71,-175.95"/>
<polygon fill="#63b8ff" stroke="#63b8ff" points="1768.17,-175.6 1771.16,-185.77 1775.16,-175.96 1768.17,-175.6"/>
</g>
<!-- Node3 -->
<g id="node3" class="node">
<title>Node3</title>
<g id="a_node3"><a xlink:title=" ">
<polygon fill="#e0e0e0" stroke="#999999" points="56,-79.5 0,-79.5 0,-60.5 56,-60.5 56,-79.5"/>
<text text-anchor="middle" x="28" y="-67.5" font-family="Helvetica,sans-Serif" font-size="10.00">algorithm</text>
</a>
</g>
</g>
<!-- Node2&#45;&gt;Node3 -->
<g id="edge2" class="edge">
<title>Node2&#45;&gt;Node3</title>
<path fill="none" stroke="#63b8ff" d="M1715.66,-134.52C1453.59,-131.86 230.37,-117.76 65,-85 62.79,-84.56 60.54,-84.01 58.29,-83.37"/>
<polygon fill="#63b8ff" stroke="#63b8ff" points="59.59,-79.78 49,-79.95 57.38,-86.42 59.59,-79.78"/>
</g>
<!-- Node4 -->
<g id="node4" class="node">
<title>Node4</title>
<g id="a_node4"><a xlink:title=" ">
<polygon fill="#e0e0e0" stroke="#999999" points="112,-79.5 74,-79.5 74,-60.5 112,-60.5 112,-79.5"/>
<text text-anchor="middle" x="93" y="-67.5" font-family="Helvetica,sans-Serif" font-size="10.00">array</text>
</a>
</g>
</g>
<!-- Node2&#45;&gt;Node4 -->
<g id="edge3" class="edge">
<title>Node2&#45;&gt;Node4</title>
<path fill="none" stroke="#63b8ff" d="M1715.54,-134.76C1458.27,-133.36 278.74,-124.78 121,-85 120.03,-84.76 119.06,-84.47 118.08,-84.16"/>
<polygon fill="#63b8ff" stroke="#63b8ff" points="119.52,-80.55 108.94,-79.96 116.84,-87.02 119.52,-80.55"/>
</g>
<!-- Node5 -->
<g id="node5" class="node">
<title>Node5</title>
<g id="a_node5"><a xlink:title=" ">
<polygon fill="#e0e0e0" stroke="#999999" points="186,-79.5 130,-79.5 130,-60.5 186,-60.5 186,-79.5"/>
<text text-anchor="middle" x="158" y="-67.5" font-family="Helvetica,sans-Serif" font-size="10.00">concepts</text>
</a>
</g>
</g>
<!-- Node2&#45;&gt;Node5 -->
<g id="edge4" class="edge">
<title>Node2&#45;&gt;Node5</title>
<path fill="none" stroke="#63b8ff" d="M1715.79,-134.4C1466.29,-131.2 346.94,-115.29 195,-85 192.79,-84.56 190.54,-84 188.29,-83.36"/>
<polygon fill="#63b8ff" stroke="#63b8ff" points="189.59,-79.78 179,-79.94 187.38,-86.42 189.59,-79.78"/>
</g>
<!-- Node6 -->
<g id="node6" class="node">
<title>Node6</title>
<g id="a_node6"><a xlink:title=" ">
<polygon fill="#e0e0e0" stroke="#999999" points="257.5,-79.5 204.5,-79.5 204.5,-60.5 257.5,-60.5 257.5,-79.5"/>
<text text-anchor="middle" x="231" y="-67.5" font-family="Helvetica,sans-Serif" font-size="10.00">complex</text>
</a>
</g>
</g>
<!-- Node2&#45;&gt;Node6 -->
<g id="edge5" class="edge">
<title>Node2&#45;&gt;Node6</title>
<path fill="none" stroke="#63b8ff" d="M1715.62,-134.37C1472.69,-131.12 410.3,-115.29 266,-85 264.07,-84.59 262.1,-84.09 260.14,-83.51"/>
<polygon fill="#63b8ff" stroke="#63b8ff" points="261.48,-79.92 250.88,-79.94 259.17,-86.53 261.48,-79.92"/>
</g>
<!-- Node7 -->
<g id="node7" class="node">
<title>Node7</title>
<g id="a_node7"><a xlink:title=" ">
<polygon fill="#e0e0e0" stroke="#999999" points="324.5,-79.5 275.5,-79.5 275.5,-60.5 324.5,-60.5 324.5,-79.5"/>
<text text-anchor="middle" x="300" y="-67.5" font-family="Helvetica,sans-Serif" font-size="10.00">cstddef</text>
</a>
</g>
</g>
<!-- Node2&#45;&gt;Node7 -->
<g id="edge6" class="edge">
<title>Node2&#45;&gt;Node7</title>
<path fill="none" stroke="#63b8ff" d="M1715.88,-134.35C1480.08,-131.08 470.15,-115.39 333,-85 331.25,-84.61 329.47,-84.13 327.69,-83.59"/>
<polygon fill="#63b8ff" stroke="#63b8ff" points="329.35,-80.1 318.76,-79.94 326.94,-86.67 329.35,-80.1"/>
</g>
<!-- Node8 -->
<g id="node8" class="node">
<title>Node8</title>
<g id="a_node8"><a xlink:title=" ">
<polygon fill="#e0e0e0" stroke="#999999" points="401.5,-79.5 342.5,-79.5 342.5,-60.5 401.5,-60.5 401.5,-79.5"/>
<text text-anchor="middle" x="372" y="-67.5" font-family="Helvetica,sans-Serif" font-size="10.00">execution</text>
</a>
</g>
</g>
<!-- Node2&#45;&gt;Node8 -->
<g id="edge7" class="edge">
<title>Node2&#45;&gt;Node8</title>
<path fill="none" stroke="#63b8ff" d="M1715.74,-135.26C1503.63,-136.05 667.36,-135.81 410,-85 407.65,-84.54 405.24,-83.95 402.85,-83.27"/>
<polygon fill="#63b8ff" stroke="#63b8ff" points="404.16,-79.69 393.56,-79.92 401.99,-86.35 404.16,-79.69"/>
</g>
<!-- Node9 -->
<g id="node9" class="node">
<title>Node9</title>
<g id="a_node9"><a xlink:title=" ">
<polygon fill="#e0e0e0" stroke="#999999" points="478.5,-79.5 419.5,-79.5 419.5,-60.5 478.5,-60.5 478.5,-79.5"/>
<text text-anchor="middle" x="449" y="-67.5" font-family="Helvetica,sans-Serif" font-size="10.00">exception</text>
</a>
</g>
</g>
<!-- Node2&#45;&gt;Node9 -->
<g id="edge8" class="edge">
<title>Node2&#45;&gt;Node9</title>
<path fill="none" stroke="#63b8ff" d="M1715.81,-135.13C1511.41,-135.35 728.61,-132.98 487,-85 484.65,-84.53 482.25,-83.94 479.85,-83.27"/>
<polygon fill="#63b8ff" stroke="#63b8ff" points="481.16,-79.69 470.57,-79.91 478.99,-86.34 481.16,-79.69"/>
</g>
<!-- Node10 -->
<g id="node10" class="node">
<title>Node10</title>
<g id="a_node10"><a xlink:title=" ">
<polygon fill="#e0e0e0" stroke="#999999" points="555.5,-79.5 496.5,-79.5 496.5,-60.5 555.5,-60.5 555.5,-79.5"/>
<text text-anchor="middle" x="526" y="-67.5" font-family="Helvetica,sans-Serif" font-size="10.00">functional</text>
</a>
</g>
</g>
<!-- Node2&#45;&gt;Node10 -->
<g id="edge9" class="edge">
<title>Node2&#45;&gt;Node10</title>
<path fill="none" stroke="#63b8ff" d="M1715.52,-134.93C1518.66,-134.34 790.74,-129.15 565,-85 562.5,-84.51 559.94,-83.89 557.39,-83.18"/>
<polygon fill="#63b8ff" stroke="#63b8ff" points="558.72,-79.61 548.13,-79.9 556.59,-86.28 558.72,-79.61"/>
</g>
<!-- Node11 -->
<g id="node11" class="node">
<title>Node11</title>
<g id="a_node11"><a xlink:title=" ">
<polygon fill="#e0e0e0" stroke="#999999" points="626,-79.5 574,-79.5 574,-60.5 626,-60.5 626,-79.5"/>
<text text-anchor="middle" x="600" y="-67.5" font-family="Helvetica,sans-Serif" font-size="10.00">memory</text>
</a>
</g>
</g>
<!-- Node2&#45;&gt;Node11 -->
<g id="edge10" class="edge">
<title>Node2&#45;&gt;Node11</title>
<path fill="none" stroke="#63b8ff" d="M1715.81,-135.01C1526.6,-134.72 845.8,-130.45 635,-85 633.07,-84.58 631.11,-84.07 629.15,-83.49"/>
<polygon fill="#63b8ff" stroke="#63b8ff" points="630.49,-79.9 619.89,-79.9 628.17,-86.51 630.49,-79.9"/>
</g>
<!-- Node12 -->
<g id="node12" class="node">
<title>Node12</title>
<g id="a_node12"><a xlink:title=" ">
<polygon fill="#e0e0e0" stroke="#999999" points="682,-79.5 644,-79.5 644,-60.5 682,-60.5 682,-79.5"/>
<text text-anchor="middle" x="663" y="-67.5" font-family="Helvetica,sans-Serif" font-size="10.00">span</text>
</a>
</g>
</g>
<!-- Node2&#45;&gt;Node12 -->
<g id="edge11" class="edge">
<title>Node2&#45;&gt;Node12</title>
<path fill="none" stroke="#63b8ff" d="M1715.63,-135.41C1531.94,-136.5 888.44,-136.49 691,-85 690.03,-84.75 689.06,-84.46 688.09,-84.14"/>
<polygon fill="#63b8ff" stroke="#63b8ff" points="689.53,-80.53 678.95,-79.91 686.83,-86.99 689.53,-80.53"/>
</g>
<!-- Node13 -->
<g id="node13" class="node">
<title>Node13</title>
<g id="a_node13"><a xlink:title=" ">
<polygon fill="#e0e0e0" stroke="#999999" points="759.5,-79.5 700.5,-79.5 700.5,-60.5 759.5,-60.5 759.5,-79.5"/>
<text text-anchor="middle" x="730" y="-67.5" font-family="Helvetica,sans-Serif" font-size="10.00">stdexcept</text>
</a>
</g>
</g>
<!-- Node2&#45;&gt;Node13 -->
<g id="edge12" class="edge">
<title>Node2&#45;&gt;Node13</title>
<path fill="none" stroke="#63b8ff" d="M1715.52,-134.44C1540.77,-132.15 953.2,-121.84 769,-85 766.5,-84.5 763.95,-83.87 761.4,-83.16"/>
<polygon fill="#63b8ff" stroke="#63b8ff" points="762.73,-79.59 752.13,-79.86 760.59,-86.25 762.73,-79.59"/>
</g>
<!-- Node14 -->
<g id="node14" class="node">
<title>Node14</title>
<g id="a_node14"><a xlink:title=" ">
<polygon fill="#e0e0e0" stroke="#999999" points="816,-79.5 778,-79.5 778,-60.5 816,-60.5 816,-79.5"/>
<text text-anchor="middle" x="797" y="-67.5" font-family="Helvetica,sans-Serif" font-size="10.00">tuple</text>
</a>
</g>
</g>
<!-- Node2&#45;&gt;Node14 -->
<g id="edge13" class="edge">
<title>Node2&#45;&gt;Node14</title>
<path fill="none" stroke="#63b8ff" d="M1715.6,-134.61C1547.82,-132.94 1000.85,-124.52 830,-85 828.25,-84.6 826.47,-84.1 824.7,-83.55"/>
<polygon fill="#63b8ff" stroke="#63b8ff" points="826.37,-80.06 815.78,-79.87 823.94,-86.63 826.37,-80.06"/>
</g>
<!-- Node15 -->
<g id="node15" class="node">
<title>Node15</title>
<g id="a_node15"><a xlink:title=" ">
<polygon fill="#e0e0e0" stroke="#999999" points="1052,-19 990,-19 990,0 1052,0 1052,-19"/>
<text text-anchor="middle" x="1021" y="-7" font-family="Helvetica,sans-Serif" font-size="10.00">type_traits</text>
</a>
</g>
</g>
<!-- Node2&#45;&gt;Node15 -->
<g id="edge14" class="edge">
<title>Node2&#45;&gt;Node15</title>
<path fill="none" stroke="#63b8ff" d="M1715.51,-135.24C1558.39,-135.52 1078.33,-132.44 1029,-85 1014.52,-71.08 1014.6,-46.86 1016.94,-29.82"/>
<polygon fill="#63b8ff" stroke="#63b8ff" points="1020.49,-30.84 1018.77,-20.39 1013.59,-29.63 1020.49,-30.84"/>
</g>
<!-- Node16 -->
<g id="node16" class="node">
<title>Node16</title>
<g id="a_node16"><a xlink:title=" ">
<polygon fill="#e0e0e0" stroke="#999999" points="941,-19 831,-19 831,0 941,0 941,-19"/>
<text text-anchor="middle" x="886" y="-7" font-family="Helvetica,sans-Serif" font-size="10.00">experimental/mdspan</text>
</a>
</g>
</g>
<!-- Node2&#45;&gt;Node16 -->
<g id="edge15" class="edge">
<title>Node2&#45;&gt;Node16</title>
<path fill="none" stroke="#63b8ff" d="M1715.77,-134.12C1531.64,-130.61 892.51,-116.19 863,-85 848.22,-69.38 860.64,-44.47 872.19,-27.8"/>
<polygon fill="#63b8ff" stroke="#63b8ff" points="875.52,-30.19 878.68,-20.08 869.9,-26.01 875.52,-30.19"/>
</g>
<!-- Node17 -->
<g id="node17" class="node">
<title>Node17</title>
<g id="a_node17"><a xlink:href="mdspan__improvements_8hpp.html" target="_top" xlink:title=" ">
<polygon fill="white" stroke="#666666" points="982,-85 872,-85 872,-55 982,-55 982,-85"/>
<text text-anchor="start" x="880" y="-73" font-family="Helvetica,sans-Serif" font-size="10.00">experimental/mdspan</text>
<text text-anchor="middle" x="927" y="-62" font-family="Helvetica,sans-Serif" font-size="10.00">_improvements.hpp</text>
</a>
</g>
</g>
<!-- Node2&#45;&gt;Node17 -->
<g id="edge16" class="edge">
<title>Node2&#45;&gt;Node17</title>
<path fill="none" stroke="#63b8ff" d="M1715.74,-134.1C1593.42,-131.38 1266.2,-121.03 996,-85 995.02,-84.87 994.03,-84.73 993.04,-84.59"/>
<polygon fill="#63b8ff" stroke="#63b8ff" points="993.67,-80.99 983.25,-82.89 992.59,-87.91 993.67,-80.99"/>
</g>
<!-- Node18 -->
<g id="node18" class="node">
<title>Node18</title>
<g id="a_node18"><a xlink:href="config_8hpp.html" target="_top" xlink:title=" ">
<polygon fill="white" stroke="#666666" points="1163.5,-79.5 1038.5,-79.5 1038.5,-60.5 1163.5,-60.5 1163.5,-79.5"/>
<text text-anchor="middle" x="1101" y="-67.5" font-family="Helvetica,sans-Serif" font-size="10.00">linear_algebra/config.hpp</text>
</a>
</g>
</g>
<!-- Node2&#45;&gt;Node18 -->
<g id="edge18" class="edge">
<title>Node2&#45;&gt;Node18</title>
<path fill="none" stroke="#63b8ff" d="M1715.68,-132.64C1613.88,-127.36 1373.24,-112.84 1173,-85 1166.78,-84.13 1160.28,-83.08 1153.85,-81.95"/>
<polygon fill="#63b8ff" stroke="#63b8ff" points="1154.6,-78.35 1144.13,-79.98 1153.34,-85.23 1154.6,-78.35"/>
</g>
<!-- Node20 -->
<g id="node20" class="node">
<title>Node20</title>
<g id="a_node20"><a xlink:href="macros_8hpp.html" target="_top" xlink:title=" ">
<polygon fill="white" stroke="#666666" points="1312.5,-79.5 1181.5,-79.5 1181.5,-60.5 1312.5,-60.5 1312.5,-79.5"/>
<text text-anchor="middle" x="1247" y="-67.5" font-family="Helvetica,sans-Serif" font-size="10.00">linear_algebra/macros.hpp</text>
</a>
</g>
</g>
<!-- Node2&#45;&gt;Node20 -->
<g id="edge21" class="edge">
<title>Node2&#45;&gt;Node20</title>
<path fill="none" stroke="#63b8ff" d="M1715.68,-130.61C1633.72,-123.04 1464.38,-106.29 1322,-85 1315.79,-84.07 1309.31,-83.01 1302.87,-81.89"/>
<polygon fill="#63b8ff" stroke="#63b8ff" points="1303.58,-78.28 1293.12,-79.97 1302.35,-85.17 1303.58,-78.28"/>
</g>
<!-- Node21 -->
<g id="node21" class="node">
<title>Node21</title>
<g id="a_node21"><a xlink:href="forward__declarations_8hpp.html" target="_top" xlink:title=" ">
<polygon fill="white" stroke="#666666" points="1443,-85 1331,-85 1331,-55 1443,-55 1443,-85"/>
<text text-anchor="start" x="1339" y="-73" font-family="Helvetica,sans-Serif" font-size="10.00">linear_algebra/forward</text>
<text text-anchor="middle" x="1387" y="-62" font-family="Helvetica,sans-Serif" font-size="10.00">_declarations.hpp</text>
</a>
</g>
</g>
<!-- Node2&#45;&gt;Node21 -->
<g id="edge23" class="edge">
<title>Node2&#45;&gt;Node21</title>
<path fill="none" stroke="#63b8ff" d="M1715.72,-128.77C1654.73,-120.24 1547.9,-104.05 1454.09,-86.86"/>
<polygon fill="#63b8ff" stroke="#63b8ff" points="1454.78,-83.24 1444.31,-84.87 1453.51,-90.13 1454.78,-83.24"/>
</g>
<!-- Node22 -->
<g id="node22" class="node">
<title>Node22</title>
<g id="a_node22"><a xlink:href="tensor__concepts_8hpp.html" target="_top" xlink:title=" ">
<polygon fill="white" stroke="#666666" points="1568.5,-85 1461.5,-85 1461.5,-55 1568.5,-55 1568.5,-85"/>
<text text-anchor="start" x="1469.5" y="-73" font-family="Helvetica,sans-Serif" font-size="10.00">linear_algebra/tensor</text>
<text text-anchor="middle" x="1515" y="-62" font-family="Helvetica,sans-Serif" font-size="10.00">_concepts.hpp</text>
</a>
</g>
</g>
<!-- Node2&#45;&gt;Node22 -->
<g id="edge25" class="edge">
<title>Node2&#45;&gt;Node22</title>
<path fill="none" stroke="#63b8ff" d="M1715.59,-123.71C1675.57,-113.88 1619.11,-99.49 1576.24,-88.23"/>
<polygon fill="#63b8ff" stroke="#63b8ff" points="1577.21,-84.6 1566.65,-85.44 1575.43,-91.37 1577.21,-84.6"/>
</g>
<!-- Node23 -->
<g id="node23" class="node">
<title>Node23</title>
<g id="a_node23"><a xlink:href="vector__concepts_8hpp.html" target="_top" xlink:title=" ">
<polygon fill="white" stroke="#666666" points="1693.5,-85 1586.5,-85 1586.5,-55 1693.5,-55 1693.5,-85"/>
<text text-anchor="start" x="1594.5" y="-73" font-family="Helvetica,sans-Serif" font-size="10.00">linear_algebra/vector</text>
<text text-anchor="middle" x="1640" y="-62" font-family="Helvetica,sans-Serif" font-size="10.00">_concepts.hpp</text>
</a>
</g>
</g>
<!-- Node2&#45;&gt;Node23 -->
<g id="edge27" class="edge">
<title>Node2&#45;&gt;Node23</title>
<path fill="none" stroke="#63b8ff" d="M1731.21,-120.64C1712.7,-111.74 1689.99,-100.21 1671.81,-90.49"/>
<polygon fill="#63b8ff" stroke="#63b8ff" points="1673.69,-86.99 1663.22,-85.31 1670.36,-93.15 1673.69,-86.99"/>
</g>
<!-- Node24 -->
<g id="node24" class="node">
<title>Node24</title>
<g id="a_node24"><a xlink:href="matrix__concepts_8hpp.html" target="_top" xlink:title=" ">
<polygon fill="white" stroke="#666666" points="1818.5,-85 1711.5,-85 1711.5,-55 1818.5,-55 1818.5,-85"/>
<text text-anchor="start" x="1719.5" y="-73" font-family="Helvetica,sans-Serif" font-size="10.00">linear_algebra/matrix</text>
<text text-anchor="middle" x="1765" y="-62" font-family="Helvetica,sans-Serif" font-size="10.00">_concepts.hpp</text>
</a>
</g>
</g>
<!-- Node2&#45;&gt;Node24 -->
<g id="edge29" class="edge">
<title>Node2&#45;&gt;Node24</title>
<path fill="none" stroke="#63b8ff" d="M1759.28,-120.8C1758.33,-113.5 1758.04,-104.41 1758.4,-95.99"/>
<polygon fill="#63b8ff" stroke="#63b8ff" points="1761.95,-96.42 1759.29,-86.16 1754.98,-95.84 1761.95,-96.42"/>
</g>
<!-- Node25 -->
<g id="node25" class="node">
<title>Node25</title>
<g id="a_node25"><a xlink:href="tensor__view_8hpp.html" target="_top" xlink:title=" ">
<polygon fill="white" stroke="#666666" points="1943.5,-85 1836.5,-85 1836.5,-55 1943.5,-55 1943.5,-85"/>
<text text-anchor="start" x="1844.5" y="-73" font-family="Helvetica,sans-Serif" font-size="10.00">linear_algebra/tensor</text>
<text text-anchor="middle" x="1890" y="-62" font-family="Helvetica,sans-Serif" font-size="10.00">_view.hpp</text>
</a>
</g>
</g>
<!-- Node2&#45;&gt;Node25 -->
<g id="edge31" class="edge">
<title>Node2&#45;&gt;Node25</title>
<path fill="none" stroke="#63b8ff" d="M1787.31,-120.64C1803.77,-111.62 1826.52,-99.89 1846.48,-90.09"/>
<polygon fill="#63b8ff" stroke="#63b8ff" points="1847.84,-92.83 1855.31,-85.31 1844.78,-86.54 1847.84,-92.83"/>
</g>
<!-- Node26 -->
<g id="node26" class="node">
<title>Node26</title>
<g id="a_node26"><a xlink:href="vector__view_8hpp.html" target="_top" xlink:title=" ">
<polygon fill="white" stroke="#666666" points="2068.5,-85 1961.5,-85 1961.5,-55 2068.5,-55 2068.5,-85"/>
<text text-anchor="start" x="1969.5" y="-73" font-family="Helvetica,sans-Serif" font-size="10.00">linear_algebra/vector</text>
<text text-anchor="middle" x="2015" y="-62" font-family="Helvetica,sans-Serif" font-size="10.00">_view.hpp</text>
</a>
</g>
</g>
<!-- Node2&#45;&gt;Node26 -->
<g id="edge33" class="edge">
<title>Node2&#45;&gt;Node26</title>
<path fill="none" stroke="#63b8ff" d="M1814.46,-120.88C1853.54,-110.53 1908.29,-96.5 1950.75,-85.96"/>
<polygon fill="#63b8ff" stroke="#63b8ff" points="1951.39,-89.16 1960.26,-83.36 1949.71,-82.36 1951.39,-89.16"/>
</g>
<!-- Node27 -->
<g id="node27" class="node">
<title>Node27</title>
<g id="a_node27"><a xlink:href="matrix__view_8hpp.html" target="_top" xlink:title=" ">
<polygon fill="white" stroke="#666666" points="2193.5,-85 2086.5,-85 2086.5,-55 2193.5,-55 2193.5,-85"/>
<text text-anchor="start" x="2094.5" y="-73" font-family="Helvetica,sans-Serif" font-size="10.00">linear_algebra/matrix</text>
<text text-anchor="middle" x="2140" y="-62" font-family="Helvetica,sans-Serif" font-size="10.00">_view.hpp</text>
</a>
</g>
</g>
<!-- Node2&#45;&gt;Node27 -->
<g id="edge35" class="edge">
<title>Node2&#45;&gt;Node27</title>
<path fill="none" stroke="#63b8ff" d="M1814.32,-127.17C1874.64,-118.12 1979.43,-102.25 2069,-85 2071.16,-84.58 2073.36,-84.15 2075.58,-83.7"/>
<polygon fill="#63b8ff" stroke="#63b8ff" points="2076.03,-86.97 2085.1,-81.51 2074.6,-80.12 2076.03,-86.97"/>
</g>
<!-- Node28 -->
<g id="node28" class="node">
<title>Node28</title>
<g id="a_node28"><a xlink:href="tensor__view__impl_8hpp.html" target="_top" xlink:title=" ">
<polygon fill="white" stroke="#666666" points="2318.5,-85 2211.5,-85 2211.5,-55 2318.5,-55 2318.5,-85"/>
<text text-anchor="start" x="2219.5" y="-73" font-family="Helvetica,sans-Serif" font-size="10.00">linear_algebra/tensor</text>
<text text-anchor="middle" x="2265" y="-62" font-family="Helvetica,sans-Serif" font-size="10.00">_view_impl.hpp</text>
</a>
</g>
</g>
<!-- Node2&#45;&gt;Node28 -->
<g id="edge37" class="edge">
<title>Node2&#45;&gt;Node28</title>
<path fill="none" stroke="#63b8ff" d="M1814.43,-130.63C1894.57,-123.6 2057.23,-108.18 2194,-85 2196.17,-84.63 2198.37,-84.24 2200.6,-83.82"/>
<polygon fill="#63b8ff" stroke="#63b8ff" points="2201.01,-87.11 2210.15,-81.75 2199.66,-80.24 2201.01,-87.11"/>
</g>
<!-- Node29 -->
<g id="node29" class="node">
<title>Node29</title>
<g id="a_node29"><a xlink:href="fixed__size__tensor_8hpp.html" target="_top" xlink:title=" ">
<polygon fill="white" stroke="#666666" points="2437.5,-85 2336.5,-85 2336.5,-55 2437.5,-55 2437.5,-85"/>
<text text-anchor="start" x="2344.5" y="-73" font-family="Helvetica,sans-Serif" font-size="10.00">linear_algebra/fixed</text>
<text text-anchor="middle" x="2387" y="-62" font-family="Helvetica,sans-Serif" font-size="10.00">_size_tensor.hpp</text>
</a>
</g>
</g>
<!-- Node2&#45;&gt;Node29 -->
<g id="edge39" class="edge">
<title>Node2&#45;&gt;Node29</title>
<path fill="none" stroke="#63b8ff" d="M1814.41,-132.77C1911.65,-128.07 2133.99,-115 2319,-85 2321.07,-84.67 2323.17,-84.3 2325.29,-83.91"/>
<polygon fill="#63b8ff" stroke="#63b8ff" points="2325.89,-87.15 2335.01,-81.76 2324.52,-80.29 2325.89,-87.15"/>
</g>
<!-- Node30 -->
<g id="node30" class="node">
<title>Node30</title>
<g id="a_node30"><a xlink:href="dynamic__tensor_8hpp.html" target="_top" xlink:title=" ">
<polygon fill="white" stroke="#666666" points="2572,-85 2456,-85 2456,-55 2572,-55 2572,-85"/>
<text text-anchor="start" x="2464" y="-73" font-family="Helvetica,sans-Serif" font-size="10.00">linear_algebra/dynamic</text>
<text text-anchor="middle" x="2514" y="-62" font-family="Helvetica,sans-Serif" font-size="10.00">_tensor.hpp</text>
</a>
</g>
</g>
<!-- Node2&#45;&gt;Node30 -->
<g id="edge41" class="edge">
<title>Node2&#45;&gt;Node30</title>
<path fill="none" stroke="#63b8ff" d="M1814.32,-133.47C1925.96,-129.67 2205.81,-117.62 2438,-85 2440.34,-84.67 2442.73,-84.31 2445.13,-83.92"/>
<polygon fill="#63b8ff" stroke="#63b8ff" points="2445.54,-87.23 2454.8,-82.07 2444.35,-80.33 2445.54,-87.23"/>
</g>
<!-- Node31 -->
<g id="node31" class="node">
<title>Node31</title>
<g id="a_node31"><a xlink:href="fixed__size__matrix_8hpp.html" target="_top" xlink:title=" ">
<polygon fill="white" stroke="#666666" points="2691.5,-85 2590.5,-85 2590.5,-55 2691.5,-55 2691.5,-85"/>
<text text-anchor="start" x="2598.5" y="-73" font-family="Helvetica,sans-Serif" font-size="10.00">linear_algebra/fixed</text>
<text text-anchor="middle" x="2641" y="-62" font-family="Helvetica,sans-Serif" font-size="10.00">_size_matrix.hpp</text>
</a>
</g>
</g>
<!-- Node2&#45;&gt;Node31 -->
<g id="edge43" class="edge">
<title>Node2&#45;&gt;Node31</title>
<path fill="none" stroke="#63b8ff" d="M1814.27,-134.82C1940.85,-133.7 2286.91,-126.69 2572,-85 2574.5,-84.63 2577.05,-84.22 2579.63,-83.76"/>
<polygon fill="#63b8ff" stroke="#63b8ff" points="2580.15,-87.03 2589.3,-81.7 2578.82,-80.16 2580.15,-87.03"/>
</g>
<!-- Node32 -->
<g id="node32" class="node">
<title>Node32</title>
<g id="a_node32"><a xlink:href="dynamic__matrix_8hpp.html" target="_top" xlink:title=" ">
<polygon fill="white" stroke="#666666" points="2826,-85 2710,-85 2710,-55 2826,-55 2826,-85"/>
<text text-anchor="start" x="2718" y="-73" font-family="Helvetica,sans-Serif" font-size="10.00">linear_algebra/dynamic</text>
<text text-anchor="middle" x="2768" y="-62" font-family="Helvetica,sans-Serif" font-size="10.00">_matrix.hpp</text>
</a>
</g>
</g>
<!-- Node2&#45;&gt;Node32 -->
<g id="edge45" class="edge">
<title>Node2&#45;&gt;Node32</title>
<path fill="none" stroke="#63b8ff" d="M1814.3,-134.99C1953.13,-134.35 2358.38,-128.51 2692,-85 2694.35,-84.69 2696.73,-84.35 2699.14,-83.98"/>
<polygon fill="#63b8ff" stroke="#63b8ff" points="2699.53,-87.29 2708.81,-82.18 2698.37,-80.39 2699.53,-87.29"/>
</g>
<!-- Node33 -->
<g id="node33" class="node">
<title>Node33</title>
<g id="a_node33"><a xlink:href="fixed__size__vector_8hpp.html" target="_top" xlink:title=" ">
<polygon fill="white" stroke="#666666" points="2945.5,-85 2844.5,-85 2844.5,-55 2945.5,-55 2945.5,-85"/>
<text text-anchor="start" x="2852.5" y="-73" font-family="Helvetica,sans-Serif" font-size="10.00">linear_algebra/fixed</text>
<text text-anchor="middle" x="2895" y="-62" font-family="Helvetica,sans-Serif" font-size="10.00">_size_vector.hpp</text>
</a>
</g>
</g>
<!-- Node2&#45;&gt;Node33 -->
<g id="edge47" class="edge">
<title>Node2&#45;&gt;Node33</title>
<path fill="none" stroke="#63b8ff" d="M1814.5,-133.8C1996.29,-129.38 2626.14,-112.75 2826,-85 2828.5,-84.65 2831.06,-84.25 2833.63,-83.81"/>
<polygon fill="#63b8ff" stroke="#63b8ff" points="2834.14,-87.08 2843.32,-81.77 2832.84,-80.2 2834.14,-87.08"/>
</g>
<!-- Node34 -->
<g id="node34" class="node">
<title>Node34</title>
<g id="a_node34"><a xlink:href="dynamic__vector_8hpp.html" target="_top" xlink:title=" ">
<polygon fill="white" stroke="#666666" points="3080,-85 2964,-85 2964,-55 3080,-55 3080,-85"/>
<text text-anchor="start" x="2972" y="-73" font-family="Helvetica,sans-Serif" font-size="10.00">linear_algebra/dynamic</text>
<text text-anchor="middle" x="3022" y="-62" font-family="Helvetica,sans-Serif" font-size="10.00">_vector.hpp</text>
</a>
</g>
</g>
<!-- Node2&#45;&gt;Node34 -->
<g id="edge49" class="edge">
<title>Node2&#45;&gt;Node34</title>
<path fill="none" stroke="#63b8ff" d="M1814.28,-133.94C2008.55,-129.72 2721.06,-113.03 2946,-85 2948.35,-84.71 2950.73,-84.38 2953.15,-84.01"/>
<polygon fill="#63b8ff" stroke="#63b8ff" points="2953.53,-87.33 2962.82,-82.25 2952.38,-80.43 2953.53,-87.33"/>
</g>
<!-- Node35 -->
<g id="node35" class="node">
<title>Node35</title>
<g id="a_node35"><a xlink:href="instant__evaluated__operations_8hpp.html" target="_top" xlink:title=" ">
<polygon fill="white" stroke="#666666" points="3231.5,-85 3098.5,-85 3098.5,-55 3231.5,-55 3231.5,-85"/>
<text text-anchor="start" x="3106.5" y="-73" font-family="Helvetica,sans-Serif" font-size="10.00">linear_algebra/instant</text>
<text text-anchor="middle" x="3165" y="-62" font-family="Helvetica,sans-Serif" font-size="10.00">_evaluated_operations.hpp</text>
</a>
</g>
</g>
<!-- Node2&#45;&gt;Node35 -->
<g id="edge51" class="edge">
<title>Node2&#45;&gt;Node35</title>
<path fill="none" stroke="#63b8ff" d="M1814.39,-134.03C2022.38,-129.93 2827.07,-112.92 3080,-85 3082.38,-84.74 3084.81,-84.44 3087.25,-84.12"/>
<polygon fill="#63b8ff" stroke="#63b8ff" points="3087.68,-87.45 3097.08,-82.57 3086.69,-80.52 3087.68,-87.45"/>
</g>
<!-- Node36 -->
<g id="node36" class="node">
<title>Node36</title>
<g id="a_node36"><a xlink:href="arithmetic__operators_8hpp.html" target="_top" xlink:title=" ">
<polygon fill="white" stroke="#666666" points="3372,-85 3250,-85 3250,-55 3372,-55 3372,-85"/>
<text text-anchor="start" x="3258" y="-73" font-family="Helvetica,sans-Serif" font-size="10.00">linear_algebra/arithmetic</text>
<text text-anchor="middle" x="3311" y="-62" font-family="Helvetica,sans-Serif" font-size="10.00">_operators.hpp</text>
</a>
</g>
</g>
<!-- Node2&#45;&gt;Node36 -->
<g id="edge53" class="edge">
<title>Node2&#45;&gt;Node36</title>
<path fill="none" stroke="#63b8ff" d="M1814.3,-134.38C2036.75,-131.47 2947.71,-118.02 3232,-85 3234.35,-84.73 3236.74,-84.42 3239.15,-84.08"/>
<polygon fill="#63b8ff" stroke="#63b8ff" points="3239.49,-87.41 3248.84,-82.41 3238.42,-80.49 3239.49,-87.41"/>
</g>
<!-- Node17&#45;&gt;Node16 -->
<g id="edge17" class="edge">
<title>Node17&#45;&gt;Node16</title>
<path fill="none" stroke="#63b8ff" d="M916.87,-54.54C911.27,-46.56 904.29,-36.59 898.38,-28.16"/>
<polygon fill="#63b8ff" stroke="#63b8ff" points="900.69,-26.36 892.08,-20.18 894.95,-30.37 900.69,-26.36"/>
</g>
<!-- Node18&#45;&gt;Node15 -->
<g id="edge19" class="edge">
<title>Node18&#45;&gt;Node15</title>
<path fill="none" stroke="#63b8ff" d="M1088.85,-60.12C1076.4,-51.01 1056.8,-36.68 1041.86,-25.75"/>
<polygon fill="#63b8ff" stroke="#63b8ff" points="1044.4,-22.55 1034.26,-19.47 1040.27,-28.2 1044.4,-22.55"/>
</g>
<!-- Node19 -->
<g id="node19" class="node">
<title>Node19</title>
<g id="a_node19"><a xlink:title=" ">
<polygon fill="#e0e0e0" stroke="#999999" points="1121,-19 1081,-19 1081,0 1121,0 1121,-19"/>
<text text-anchor="middle" x="1101" y="-7" font-family="Helvetica,sans-Serif" font-size="10.00">utility</text>
</a>
</g>
</g>
<!-- Node18&#45;&gt;Node19 -->
<g id="edge20" class="edge">
<title>Node18&#45;&gt;Node19</title>
<path fill="none" stroke="#63b8ff" d="M1101,-60.37C1101,-52.42 1101,-40.33 1101,-30.05"/>
<polygon fill="#63b8ff" stroke="#63b8ff" points="1104.5,-30.17 1101,-20.17 1097.5,-30.17 1104.5,-30.17"/>
</g>
<!-- Node21&#45;&gt;Node2 -->
<g id="edge24" class="edge">
<title>Node21&#45;&gt;Node2</title>
<path fill="none" stroke="#63b8ff" d="M1443.45,-81.38C1449.73,-82.65 1456.01,-83.89 1462,-85 1546.2,-100.67 1643.74,-115.82 1705,-125.26"/>
<polygon fill="#63b8ff" stroke="#63b8ff" points="1704.21,-128.84 1714.63,-126.9 1705.28,-121.92 1704.21,-128.84"/>
</g>
<!-- Node22&#45;&gt;Node2 -->
<g id="edge26" class="edge">
<title>Node22&#45;&gt;Node2</title>
<path fill="none" stroke="#63b8ff" d="M1568.74,-83.36C1608.83,-93.24 1663.51,-107.19 1705.02,-118.1"/>
<polygon fill="#63b8ff" stroke="#63b8ff" points="1703.97,-121.71 1714.54,-120.88 1705.76,-114.94 1703.97,-121.71"/>
</g>
<!-- Node23&#45;&gt;Node2 -->
<g id="edge28" class="edge">
<title>Node23&#45;&gt;Node2</title>
<path fill="none" stroke="#63b8ff" d="M1673.69,-85.31C1692.19,-94.2 1714.89,-105.73 1733.1,-115.45"/>
<polygon fill="#63b8ff" stroke="#63b8ff" points="1731.23,-118.96 1741.69,-120.64 1734.55,-112.8 1731.23,-118.96"/>
</g>
<!-- Node24&#45;&gt;Node2 -->
<g id="edge30" class="edge">
<title>Node24&#45;&gt;Node2</title>
<path fill="none" stroke="#63b8ff" d="M1770.71,-85.16C1771.66,-92.45 1771.96,-101.55 1771.61,-109.97"/>
<polygon fill="#63b8ff" stroke="#63b8ff" points="1768.05,-109.54 1770.72,-119.8 1775.02,-110.11 1768.05,-109.54"/>
</g>
<!-- Node25&#45;&gt;Node2 -->
<g id="edge32" class="edge">
<title>Node25&#45;&gt;Node2</title>
<path fill="none" stroke="#63b8ff" d="M1867.78,-85.31C1851.34,-94.32 1828.59,-106.05 1808.63,-115.86"/>
<polygon fill="#63b8ff" stroke="#63b8ff" points="1807.26,-113.12 1799.79,-120.64 1810.32,-119.41 1807.26,-113.12"/>
</g>
<!-- Node26&#45;&gt;Node2 -->
<g id="edge34" class="edge">
<title>Node26&#45;&gt;Node2</title>
<path fill="none" stroke="#63b8ff" d="M1964.35,-85.44C1924,-96.11 1867.51,-110.57 1824.92,-121.11"/>
<polygon fill="#63b8ff" stroke="#63b8ff" points="1824.28,-117.91 1815.41,-123.71 1825.96,-124.71 1824.28,-117.91"/>
</g>
<!-- Node27&#45;&gt;Node2 -->
<g id="edge36" class="edge">
<title>Node27&#45;&gt;Node2</title>
<path fill="none" stroke="#63b8ff" d="M2086.16,-85.16C1995.79,-102.54 1890.11,-118.5 1825.29,-127.47"/>
<polygon fill="#63b8ff" stroke="#63b8ff" points="1824.89,-124.13 1815.46,-128.95 1825.84,-131.06 1824.89,-124.13"/>
</g>
<!-- Node28&#45;&gt;Node2 -->
<g id="edge38" class="edge">
<title>Node28&#45;&gt;Node2</title>
<path fill="none" stroke="#63b8ff" d="M2211.16,-85.14C2074.15,-108.31 1911.41,-123.71 1825.26,-130.69"/>
<polygon fill="#63b8ff" stroke="#63b8ff" points="1825.07,-127.28 1815.39,-131.56 1825.63,-134.25 1825.07,-127.28"/>
</g>
<!-- Node29&#45;&gt;Node2 -->
<g id="edge40" class="edge">
<title>Node29&#45;&gt;Node2</title>
<path fill="none" stroke="#63b8ff" d="M2336.16,-85.14C2151.51,-115.01 1929.94,-128.05 1825.25,-132.76"/>
<polygon fill="#63b8ff" stroke="#63b8ff" points="1825.12,-129.3 1815.28,-133.24 1825.43,-136.29 1825.12,-129.3"/>
</g>
<!-- Node30&#45;&gt;Node2 -->
<g id="edge42" class="edge">
<title>Node30&#45;&gt;Node2</title>
<path fill="none" stroke="#63b8ff" d="M2455.65,-85.05C2224.28,-117.53 1945.72,-129.59 1825.23,-133.43"/>
<polygon fill="#63b8ff" stroke="#63b8ff" points="1825.3,-129.96 1815.42,-133.77 1825.52,-136.96 1825.3,-129.96"/>
</g>
<!-- Node31&#45;&gt;Node2 -->
<g id="edge44" class="edge">
<title>Node31&#45;&gt;Node2</title>
<path fill="none" stroke="#63b8ff" d="M2589.57,-85.06C2305.58,-126.55 1961.26,-133.65 1824.76,-134.81"/>
<polygon fill="#63b8ff" stroke="#63b8ff" points="1825.1,-131.31 1815.13,-134.89 1825.16,-138.31 1825.1,-131.31"/>
</g>
<!-- Node32&#45;&gt;Node2 -->
<g id="edge46" class="edge">
<title>Node32&#45;&gt;Node2</title>
<path fill="none" stroke="#63b8ff" d="M2709.5,-85.06C2377.82,-128.27 1975.53,-134.29 1825.3,-134.98"/>
<polygon fill="#63b8ff" stroke="#63b8ff" points="1825.48,-131.48 1815.5,-135.02 1825.51,-138.48 1825.48,-131.48"/>
</g>
<!-- Node33&#45;&gt;Node2 -->
<g id="edge48" class="edge">
<title>Node33&#45;&gt;Node2</title>
<path fill="none" stroke="#63b8ff" d="M2843.7,-85.04C2644.84,-112.58 2022.49,-129.16 1825.41,-133.72"/>
<polygon fill="#63b8ff" stroke="#63b8ff" points="1825.34,-130.24 1815.42,-133.97 1825.5,-137.24 1825.34,-130.24"/>
</g>
<!-- Node34&#45;&gt;Node2 -->
<g id="edge50" class="edge">
<title>Node34&#45;&gt;Node2</title>
<path fill="none" stroke="#63b8ff" d="M2963.67,-85.04C2739.92,-112.86 2036.3,-129.49 1825.31,-133.85"/>
<polygon fill="#63b8ff" stroke="#63b8ff" points="1825.39,-130.37 1815.47,-134.07 1825.54,-137.37 1825.39,-130.37"/>
</g>
<!-- Node35&#45;&gt;Node2 -->
<g id="edge52" class="edge">
<title>Node35&#45;&gt;Node2</title>
<path fill="none" stroke="#63b8ff" d="M3097.63,-85.04C2845.95,-112.76 2050.86,-129.71 1825.19,-133.95"/>
<polygon fill="#63b8ff" stroke="#63b8ff" points="1825.19,-130.47 1815.26,-134.15 1825.32,-137.46 1825.19,-130.47"/>
</g>
<!-- Node36&#45;&gt;Node2 -->
<g id="edge54" class="edge">
<title>Node36&#45;&gt;Node2</title>
<path fill="none" stroke="#63b8ff" d="M3249.58,-85.05C2966.61,-117.82 2066.1,-131.3 1824.88,-134.32"/>
<polygon fill="#63b8ff" stroke="#63b8ff" points="1825.18,-130.83 1815.23,-134.45 1825.27,-137.83 1825.18,-130.83"/>
</g>
</g>
</svg>
