<?xml version="1.0" encoding="UTF-8" standalone="no"?>
<!DOCTYPE svg PUBLIC "-//W3C//DTD SVG 1.1//EN"
 "http://www.w3.org/Graphics/SVG/1.1/DTD/svg11.dtd">
<!-- Generated by graphviz version 8.0.1 (20230327.1645)
 -->
<!-- Title: include/experimental/linear_algebra/private_support.hpp Pages: 1 -->
<svg width="2098pt" height="192pt"
 viewBox="0.00 0.00 2097.50 192.00" xmlns="http://www.w3.org/2000/svg" xmlns:xlink="http://www.w3.org/1999/xlink">
<g id="graph0" class="graph" transform="scale(1 1) rotate(0) translate(4 188)">
<title>include/experimental/linear_algebra/private_support.hpp</title>
<!-- Node1 -->
<g id="node1" class="node">
<title>Node1</title>
<g id="a_node1"><a xlink:title=" ">
<polygon fill="#999999" stroke="#666666" points="1111.5,-184 999.5,-184 999.5,-143 1111.5,-143 1111.5,-184"/>
<text text-anchor="start" x="1007.5" y="-172" font-family="Helvetica,sans-Serif" font-size="10.00">include/experimental</text>
<text text-anchor="start" x="1007.5" y="-161" font-family="Helvetica,sans-Serif" font-size="10.00">/linear_algebra/private</text>
<text text-anchor="middle" x="1055.5" y="-150" font-family="Helvetica,sans-Serif" font-size="10.00">_support.hpp</text>
</a>
</g>
</g>
<!-- Node2 -->
<g id="node2" class="node">
<title>Node2</title>
<g id="a_node2"><a xlink:href="linear__algebra_8hpp.html" target="_top" xlink:title=" ">
<polygon fill="white" stroke="#666666" points="1108.5,-107 1002.5,-107 1002.5,-77 1108.5,-77 1108.5,-107"/>
<text text-anchor="start" x="1010.5" y="-95" font-family="Helvetica,sans-Serif" font-size="10.00">include/experimental</text>
<text text-anchor="middle" x="1055.5" y="-84" font-family="Helvetica,sans-Serif" font-size="10.00">/linear_algebra.hpp</text>
</a>
</g>
</g>
<!-- Node1&#45;&gt;Node2 -->
<g id="edge1" class="edge">
<title>Node1&#45;&gt;Node2</title>
<path fill="none" stroke="#63b8ff" d="M1048.79,-131.95C1048.61,-123.44 1048.98,-114.59 1049.9,-107.47"/>
<polygon fill="#63b8ff" stroke="#63b8ff" points="1045.34,-131.96 1049.34,-141.77 1052.33,-131.6 1045.34,-131.96"/>
</g>
<!-- Node2&#45;&gt;Node1 -->
<g id="edge24" class="edge">
<title>Node2&#45;&gt;Node1</title>
<path fill="none" stroke="#63b8ff" d="M1062.02,-118.21C1062.42,-126.3 1062.3,-135.13 1061.66,-142.77"/>
<polygon fill="#63b8ff" stroke="#63b8ff" points="1065.44,-118.14 1061.1,-108.47 1058.47,-118.74 1065.44,-118.14"/>
</g>
<!-- Node3 -->
<g id="node3" class="node">
<title>Node3</title>
<g id="a_node3"><a xlink:href="arithmetic__operators_8hpp.html" target="_top" xlink:title=" ">
<polygon fill="white" stroke="#666666" points="125,-41 0,-41 0,0 125,0 125,-41"/>
<text text-anchor="start" x="8" y="-29" font-family="Helvetica,sans-Serif" font-size="10.00">include/experimental</text>
<text text-anchor="start" x="8" y="-18" font-family="Helvetica,sans-Serif" font-size="10.00">/linear_algebra/arithmetic</text>
<text text-anchor="middle" x="62.5" y="-7" font-family="Helvetica,sans-Serif" font-size="10.00">_operators.hpp</text>
</a>
</g>
</g>
<!-- Node2&#45;&gt;Node3 -->
<g id="edge2" class="edge">
<title>Node2&#45;&gt;Node3</title>
<path fill="none" stroke="#63b8ff" d="M991.15,-89.41C809.03,-84.49 292.85,-68.16 125.25,-41.12"/>
<polygon fill="#63b8ff" stroke="#63b8ff" points="991.06,-92.94 1001.15,-89.71 991.24,-85.94 991.06,-92.94"/>
</g>
<!-- Node4 -->
<g id="node4" class="node">
<title>Node4</title>
<g id="a_node4"><a xlink:href="dynamic__matrix_8hpp.html" target="_top" xlink:title=" ">
<polygon fill="white" stroke="#666666" points="262,-41 143,-41 143,0 262,0 262,-41"/>
<text text-anchor="start" x="151" y="-29" font-family="Helvetica,sans-Serif" font-size="10.00">include/experimental</text>
<text text-anchor="start" x="151" y="-18" font-family="Helvetica,sans-Serif" font-size="10.00">/linear_algebra/dynamic</text>
<text text-anchor="middle" x="202.5" y="-7" font-family="Helvetica,sans-Serif" font-size="10.00">_matrix.hpp</text>
</a>
</g>
</g>
<!-- Node2&#45;&gt;Node4 -->
<g id="edge4" class="edge">
<title>Node2&#45;&gt;Node4</title>
<path fill="none" stroke="#63b8ff" d="M991.45,-91.56C855.74,-91.87 530.14,-87.41 262.31,-41.14"/>
<polygon fill="#63b8ff" stroke="#63b8ff" points="991.45,-95.06 1001.44,-91.53 991.43,-88.06 991.45,-95.06"/>
</g>
<!-- Node5 -->
<g id="node5" class="node">
<title>Node5</title>
<g id="a_node5"><a xlink:href="dynamic__tensor_8hpp.html" target="_top" xlink:title=" ">
<polygon fill="white" stroke="#666666" points="399,-41 280,-41 280,0 399,0 399,-41"/>
<text text-anchor="start" x="288" y="-29" font-family="Helvetica,sans-Serif" font-size="10.00">include/experimental</text>
<text text-anchor="start" x="288" y="-18" font-family="Helvetica,sans-Serif" font-size="10.00">/linear_algebra/dynamic</text>
<text text-anchor="middle" x="339.5" y="-7" font-family="Helvetica,sans-Serif" font-size="10.00">_tensor.hpp</text>
</a>
</g>
</g>
<!-- Node2&#45;&gt;Node5 -->
<g id="edge6" class="edge">
<title>Node2&#45;&gt;Node5</title>
<path fill="none" stroke="#63b8ff" d="M991.38,-90.43C873.21,-88.44 613.91,-79.67 399.47,-41.18"/>
<polygon fill="#63b8ff" stroke="#63b8ff" points="991.32,-93.94 1001.37,-90.6 991.43,-86.94 991.32,-93.94"/>
</g>
<!-- Node6 -->
<g id="node6" class="node">
<title>Node6</title>
<g id="a_node6"><a xlink:href="dynamic__vector_8hpp.html" target="_top" xlink:title=" ">
<polygon fill="white" stroke="#666666" points="536,-41 417,-41 417,0 536,0 536,-41"/>
<text text-anchor="start" x="425" y="-29" font-family="Helvetica,sans-Serif" font-size="10.00">include/experimental</text>
<text text-anchor="start" x="425" y="-18" font-family="Helvetica,sans-Serif" font-size="10.00">/linear_algebra/dynamic</text>
<text text-anchor="middle" x="476.5" y="-7" font-family="Helvetica,sans-Serif" font-size="10.00">_vector.hpp</text>
</a>
</g>
</g>
<!-- Node2&#45;&gt;Node6 -->
<g id="edge8" class="edge">
<title>Node2&#45;&gt;Node6</title>
<path fill="none" stroke="#63b8ff" d="M991.1,-88.63C892.4,-84.04 698.52,-71.54 536.99,-41.09"/>
<polygon fill="#63b8ff" stroke="#63b8ff" points="990.93,-92.17 1001.08,-89.13 991.25,-85.18 990.93,-92.17"/>
</g>
<!-- Node7 -->
<g id="node7" class="node">
<title>Node7</title>
<g id="a_node7"><a xlink:href="fixed__size__matrix_8hpp.html" target="_top" xlink:title=" ">
<polygon fill="white" stroke="#666666" points="660.5,-41 554.5,-41 554.5,0 660.5,0 660.5,-41"/>
<text text-anchor="start" x="562.5" y="-29" font-family="Helvetica,sans-Serif" font-size="10.00">include/experimental</text>
<text text-anchor="start" x="562.5" y="-18" font-family="Helvetica,sans-Serif" font-size="10.00">/linear_algebra/fixed</text>
<text text-anchor="middle" x="607.5" y="-7" font-family="Helvetica,sans-Serif" font-size="10.00">_size_matrix.hpp</text>
</a>
</g>
</g>
<!-- Node2&#45;&gt;Node7 -->
<g id="edge10" class="edge">
<title>Node2&#45;&gt;Node7</title>
<path fill="none" stroke="#63b8ff" d="M991.33,-86.69C912.58,-80.32 775.65,-66.33 660.85,-41.08"/>
<polygon fill="#63b8ff" stroke="#63b8ff" points="990.8,-90.24 1001.04,-87.54 991.35,-83.26 990.8,-90.24"/>
</g>
<!-- Node8 -->
<g id="node8" class="node">
<title>Node8</title>
<g id="a_node8"><a xlink:href="fixed__size__tensor_8hpp.html" target="_top" xlink:title=" ">
<polygon fill="white" stroke="#666666" points="784.5,-41 678.5,-41 678.5,0 784.5,0 784.5,-41"/>
<text text-anchor="start" x="686.5" y="-29" font-family="Helvetica,sans-Serif" font-size="10.00">include/experimental</text>
<text text-anchor="start" x="686.5" y="-18" font-family="Helvetica,sans-Serif" font-size="10.00">/linear_algebra/fixed</text>
<text text-anchor="middle" x="731.5" y="-7" font-family="Helvetica,sans-Serif" font-size="10.00">_size_tensor.hpp</text>
</a>
</g>
</g>
<!-- Node2&#45;&gt;Node8 -->
<g id="edge12" class="edge">
<title>Node2&#45;&gt;Node8</title>
<path fill="none" stroke="#63b8ff" d="M991.52,-82.09C936.26,-73.3 854.73,-58.66 784.94,-41.11"/>
<polygon fill="#63b8ff" stroke="#63b8ff" points="990.79,-85.67 1001.22,-83.76 991.88,-78.76 990.79,-85.67"/>
</g>
<!-- Node9 -->
<g id="node9" class="node">
<title>Node9</title>
<g id="a_node9"><a xlink:href="fixed__size__vector_8hpp.html" target="_top" xlink:title=" ">
<polygon fill="white" stroke="#666666" points="908.5,-41 802.5,-41 802.5,0 908.5,0 908.5,-41"/>
<text text-anchor="start" x="810.5" y="-29" font-family="Helvetica,sans-Serif" font-size="10.00">include/experimental</text>
<text text-anchor="start" x="810.5" y="-18" font-family="Helvetica,sans-Serif" font-size="10.00">/linear_algebra/fixed</text>
<text text-anchor="middle" x="855.5" y="-7" font-family="Helvetica,sans-Serif" font-size="10.00">_size_vector.hpp</text>
</a>
</g>
</g>
<!-- Node2&#45;&gt;Node9 -->
<g id="edge14" class="edge">
<title>Node2&#45;&gt;Node9</title>
<path fill="none" stroke="#63b8ff" d="M997.86,-73.05C969,-63.35 934.4,-51.35 906.51,-41.37"/>
<polygon fill="#63b8ff" stroke="#63b8ff" points="996.62,-76.66 1007.21,-76.52 998.84,-70.02 996.62,-76.66"/>
</g>
<!-- Node10 -->
<g id="node10" class="node">
<title>Node10</title>
<g id="a_node10"><a xlink:href="forward__declarations_8hpp.html" target="_top" xlink:title=" ">
<polygon fill="white" stroke="#666666" points="1042,-41 927,-41 927,0 1042,0 1042,-41"/>
<text text-anchor="start" x="935" y="-29" font-family="Helvetica,sans-Serif" font-size="10.00">include/experimental</text>
<text text-anchor="start" x="935" y="-18" font-family="Helvetica,sans-Serif" font-size="10.00">/linear_algebra/forward</text>
<text text-anchor="middle" x="984.5" y="-7" font-family="Helvetica,sans-Serif" font-size="10.00">_declarations.hpp</text>
</a>
</g>
</g>
<!-- Node2&#45;&gt;Node10 -->
<g id="edge16" class="edge">
<title>Node2&#45;&gt;Node10</title>
<path fill="none" stroke="#63b8ff" d="M1027.21,-69.47C1017.42,-60.52 1006.91,-50.19 998.68,-41.42"/>
<polygon fill="#63b8ff" stroke="#63b8ff" points="1024.41,-71.55 1034.2,-75.6 1029.07,-66.33 1024.41,-71.55"/>
</g>
<!-- Node11 -->
<g id="node11" class="node">
<title>Node11</title>
<g id="a_node11"><a xlink:href="instant__evaluated__operations_8hpp.html" target="_top" xlink:title=" ">
<polygon fill="white" stroke="#666666" points="1193,-41 1060,-41 1060,0 1193,0 1193,-41"/>
<text text-anchor="start" x="1068" y="-29" font-family="Helvetica,sans-Serif" font-size="10.00">include/experimental</text>
<text text-anchor="start" x="1068" y="-18" font-family="Helvetica,sans-Serif" font-size="10.00">/linear_algebra/instant</text>
<text text-anchor="middle" x="1126.5" y="-7" font-family="Helvetica,sans-Serif" font-size="10.00">_evaluated_operations.hpp</text>
</a>
</g>
</g>
<!-- Node2&#45;&gt;Node11 -->
<g id="edge18" class="edge">
<title>Node2&#45;&gt;Node11</title>
<path fill="none" stroke="#63b8ff" d="M1071.97,-68.66C1080.34,-59.9 1090.58,-49.93 1099.98,-41.42"/>
<polygon fill="#63b8ff" stroke="#63b8ff" points="1069.84,-65.88 1065.62,-75.6 1074.98,-70.64 1069.84,-65.88"/>
</g>
<!-- Node12 -->
<g id="node12" class="node">
<title>Node12</title>
<g id="a_node12"><a xlink:href="matrix__concepts_8hpp.html" target="_top" xlink:title=" ">
<polygon fill="white" stroke="#666666" points="1321.5,-41 1211.5,-41 1211.5,0 1321.5,0 1321.5,-41"/>
<text text-anchor="start" x="1219.5" y="-29" font-family="Helvetica,sans-Serif" font-size="10.00">include/experimental</text>
<text text-anchor="start" x="1219.5" y="-18" font-family="Helvetica,sans-Serif" font-size="10.00">/linear_algebra/matrix</text>
<text text-anchor="middle" x="1266.5" y="-7" font-family="Helvetica,sans-Serif" font-size="10.00">_concepts.hpp</text>
</a>
</g>
</g>
<!-- Node2&#45;&gt;Node12 -->
<g id="edge20" class="edge">
<title>Node2&#45;&gt;Node12</title>
<path fill="none" stroke="#63b8ff" d="M1103.64,-73.17C1135.65,-62.28 1177.7,-48.44 1211.1,-37.83"/>
<polygon fill="#63b8ff" stroke="#63b8ff" points="1102.95,-70.05 1094.63,-76.6 1105.22,-76.67 1102.95,-70.05"/>
</g>
<!-- Node13 -->
<g id="node13" class="node">
<title>Node13</title>
<g id="a_node13"><a xlink:href="matrix__view_8hpp.html" target="_top" xlink:title=" ">
<polygon fill="white" stroke="#666666" points="1449.5,-41 1339.5,-41 1339.5,0 1449.5,0 1449.5,-41"/>
<text text-anchor="start" x="1347.5" y="-29" font-family="Helvetica,sans-Serif" font-size="10.00">include/experimental</text>
<text text-anchor="start" x="1347.5" y="-18" font-family="Helvetica,sans-Serif" font-size="10.00">/linear_algebra/matrix</text>
<text text-anchor="middle" x="1394.5" y="-7" font-family="Helvetica,sans-Serif" font-size="10.00">_view.hpp</text>
</a>
</g>
</g>
<!-- Node2&#45;&gt;Node13 -->
<g id="edge22" class="edge">
<title>Node2&#45;&gt;Node13</title>
<path fill="none" stroke="#63b8ff" d="M1119.56,-80.34C1173.71,-71.46 1253,-57.6 1321.5,-41 1327.26,-39.6 1333.26,-37.99 1339.25,-36.3"/>
<polygon fill="#63b8ff" stroke="#63b8ff" points="1119.05,-77.05 1109.74,-82.11 1120.17,-83.95 1119.05,-77.05"/>
</g>
<!-- Node14 -->
<g id="node14" class="node">
<title>Node14</title>
<g id="a_node14"><a xlink:href="tensor__concepts_8hpp.html" target="_top" xlink:title=" ">
<polygon fill="white" stroke="#666666" points="1577.5,-41 1467.5,-41 1467.5,0 1577.5,0 1577.5,-41"/>
<text text-anchor="start" x="1475.5" y="-29" font-family="Helvetica,sans-Serif" font-size="10.00">include/experimental</text>
<text text-anchor="start" x="1475.5" y="-18" font-family="Helvetica,sans-Serif" font-size="10.00">/linear_algebra/tensor</text>
<text text-anchor="middle" x="1522.5" y="-7" font-family="Helvetica,sans-Serif" font-size="10.00">_concepts.hpp</text>
</a>
</g>
</g>
<!-- Node2&#45;&gt;Node14 -->
<g id="edge25" class="edge">
<title>Node2&#45;&gt;Node14</title>
<path fill="none" stroke="#63b8ff" d="M1119.64,-85.94C1198.09,-79.29 1334.41,-65.48 1449.5,-41 1455.29,-39.77 1461.32,-38.25 1467.33,-36.62"/>
<polygon fill="#63b8ff" stroke="#63b8ff" points="1119.64,-82.51 1109.96,-86.83 1120.22,-89.49 1119.64,-82.51"/>
</g>
<!-- Node15 -->
<g id="node15" class="node">
<title>Node15</title>
<g id="a_node15"><a xlink:href="tensor__view_8hpp.html" target="_top" xlink:title=" ">
<polygon fill="white" stroke="#666666" points="1705.5,-41 1595.5,-41 1595.5,0 1705.5,0 1705.5,-41"/>
<text text-anchor="start" x="1603.5" y="-29" font-family="Helvetica,sans-Serif" font-size="10.00">include/experimental</text>
<text text-anchor="start" x="1603.5" y="-18" font-family="Helvetica,sans-Serif" font-size="10.00">/linear_algebra/tensor</text>
<text text-anchor="middle" x="1650.5" y="-7" font-family="Helvetica,sans-Serif" font-size="10.00">_view.hpp</text>
</a>
</g>
</g>
<!-- Node2&#45;&gt;Node15 -->
<g id="edge27" class="edge">
<title>Node2&#45;&gt;Node15</title>
<path fill="none" stroke="#63b8ff" d="M1119.4,-88.91C1218.41,-84.85 1414.2,-73.22 1577.5,-41 1583.2,-39.88 1589.11,-38.45 1595.01,-36.87"/>
<polygon fill="#63b8ff" stroke="#63b8ff" points="1119.53,-85.44 1109.68,-89.34 1119.81,-92.44 1119.53,-85.44"/>
</g>
<!-- Node16 -->
<g id="node16" class="node">
<title>Node16</title>
<g id="a_node16"><a xlink:href="tensor__view__impl_8hpp.html" target="_top" xlink:title=" ">
<polygon fill="white" stroke="#666666" points="1833.5,-41 1723.5,-41 1723.5,0 1833.5,0 1833.5,-41"/>
<text text-anchor="start" x="1731.5" y="-29" font-family="Helvetica,sans-Serif" font-size="10.00">include/experimental</text>
<text text-anchor="start" x="1731.5" y="-18" font-family="Helvetica,sans-Serif" font-size="10.00">/linear_algebra/tensor</text>
<text text-anchor="middle" x="1778.5" y="-7" font-family="Helvetica,sans-Serif" font-size="10.00">_view_impl.hpp</text>
</a>
</g>
</g>
<!-- Node2&#45;&gt;Node16 -->
<g id="edge29" class="edge">
<title>Node2&#45;&gt;Node16</title>
<path fill="none" stroke="#63b8ff" d="M1119.64,-90.73C1236.98,-89.14 1493.3,-80.87 1705.5,-41 1711.21,-39.93 1717.13,-38.53 1723.03,-36.98"/>
<polygon fill="#63b8ff" stroke="#63b8ff" points="1119.68,-87.24 1109.73,-90.86 1119.77,-94.24 1119.68,-87.24"/>
</g>
<!-- Node17 -->
<g id="node17" class="node">
<title>Node17</title>
<g id="a_node17"><a xlink:href="vector__concepts_8hpp.html" target="_top" xlink:title=" ">
<polygon fill="white" stroke="#666666" points="1961.5,-41 1851.5,-41 1851.5,0 1961.5,0 1961.5,-41"/>
<text text-anchor="start" x="1859.5" y="-29" font-family="Helvetica,sans-Serif" font-size="10.00">include/experimental</text>
<text text-anchor="start" x="1859.5" y="-18" font-family="Helvetica,sans-Serif" font-size="10.00">/linear_algebra/vector</text>
<text text-anchor="middle" x="1906.5" y="-7" font-family="Helvetica,sans-Serif" font-size="10.00">_concepts.hpp</text>
</a>
</g>
</g>
<!-- Node2&#45;&gt;Node17 -->
<g id="edge31" class="edge">
<title>Node2&#45;&gt;Node17</title>
<path fill="none" stroke="#63b8ff" d="M1119.57,-88.69C1280.18,-82.79 1696.47,-65.88 1833.5,-41 1839.21,-39.96 1845.14,-38.59 1851.04,-37.04"/>
<polygon fill="#63b8ff" stroke="#63b8ff" points="1119.77,-85.22 1109.91,-89.08 1120.03,-92.21 1119.77,-85.22"/>
</g>
<!-- Node18 -->
<g id="node18" class="node">
<title>Node18</title>
<g id="a_node18"><a xlink:href="vector__view_8hpp.html" target="_top" xlink:title=" ">
<polygon fill="white" stroke="#666666" points="2089.5,-41 1979.5,-41 1979.5,0 2089.5,0 2089.5,-41"/>
<text text-anchor="start" x="1987.5" y="-29" font-family="Helvetica,sans-Serif" font-size="10.00">include/experimental</text>
<text text-anchor="start" x="1987.5" y="-18" font-family="Helvetica,sans-Serif" font-size="10.00">/linear_algebra/vector</text>
<text text-anchor="middle" x="2034.5" y="-7" font-family="Helvetica,sans-Serif" font-size="10.00">_view.hpp</text>
</a>
</g>
</g>
<!-- Node2&#45;&gt;Node18 -->
<g id="edge33" class="edge">
<title>Node2&#45;&gt;Node18</title>
<path fill="none" stroke="#63b8ff" d="M1119.8,-89.4C1298.63,-84.75 1798.95,-69.77 1961.5,-41 1967.22,-39.99 1973.15,-38.63 1979.05,-37.09"/>
<polygon fill="#63b8ff" stroke="#63b8ff" points="1119.9,-85.92 1109.99,-89.67 1120.08,-92.92 1119.9,-85.92"/>
</g>
<!-- Node3&#45;&gt;Node2 -->
<g id="edge3" class="edge">
<title>Node3&#45;&gt;Node2</title>
<path fill="none" stroke="#63b8ff" d="M136.18,-39.88C138.31,-40.29 140.42,-40.66 142.5,-41 310.32,-68.27 833.07,-84.68 1002.2,-89.5"/>
<polygon fill="#63b8ff" stroke="#63b8ff" points="136.97,-36.26 126.46,-37.61 135.52,-43.11 136.97,-36.26"/>
</g>
<!-- Node4&#45;&gt;Node2 -->
<g id="edge5" class="edge">
<title>Node4&#45;&gt;Node2</title>
<path fill="none" stroke="#63b8ff" d="M272.9,-39.75C275.12,-40.2 277.33,-40.62 279.5,-41 548.28,-87.54 875.55,-91.89 1002.11,-91.56"/>
<polygon fill="#63b8ff" stroke="#63b8ff" points="273.94,-36.17 263.41,-37.39 272.4,-43 273.94,-36.17"/>
</g>
<!-- Node5&#45;&gt;Node2 -->
<g id="edge7" class="edge">
<title>Node5&#45;&gt;Node2</title>
<path fill="none" stroke="#63b8ff" d="M409.91,-39.71C412.13,-40.18 414.33,-40.61 416.5,-41 631.38,-79.69 891.64,-88.46 1002.02,-90.43"/>
<polygon fill="#63b8ff" stroke="#63b8ff" points="410.95,-36.13 400.43,-37.32 409.4,-42.96 410.95,-36.13"/>
</g>
<!-- Node6&#45;&gt;Node2 -->
<g id="edge9" class="edge">
<title>Node6&#45;&gt;Node2</title>
<path fill="none" stroke="#63b8ff" d="M546.97,-39.46C549.51,-40.02 552.02,-40.53 554.5,-41 716.01,-71.49 910.02,-84.01 1002.12,-88.62"/>
<polygon fill="#63b8ff" stroke="#63b8ff" points="547.98,-35.87 537.44,-37.01 546.39,-42.69 547.98,-35.87"/>
</g>
<!-- Node7&#45;&gt;Node2 -->
<g id="edge11" class="edge">
<title>Node7&#45;&gt;Node2</title>
<path fill="none" stroke="#63b8ff" d="M671.42,-39.33C673.81,-39.93 676.17,-40.49 678.5,-41 792.67,-66.14 928.81,-80.14 1002.31,-86.57"/>
<polygon fill="#63b8ff" stroke="#63b8ff" points="672.44,-35.71 661.87,-36.51 670.63,-42.47 672.44,-35.71"/>
</g>
<!-- Node8&#45;&gt;Node2 -->
<g id="edge13" class="edge">
<title>Node8&#45;&gt;Node2</title>
<path fill="none" stroke="#63b8ff" d="M795.46,-39.15C797.84,-39.8 800.19,-40.42 802.5,-41 870.87,-58.21 950.59,-72.64 1002.08,-81.5"/>
<polygon fill="#63b8ff" stroke="#63b8ff" points="796.52,-35.54 785.95,-36.18 794.62,-42.27 796.52,-35.54"/>
</g>
<!-- Node9&#45;&gt;Node2 -->
<g id="edge15" class="edge">
<title>Node9&#45;&gt;Node2</title>
<path fill="none" stroke="#63b8ff" d="M918.8,-41.35C952.09,-52.6 991.63,-66.4 1019.65,-76.6"/>
<polygon fill="#63b8ff" stroke="#63b8ff" points="920.28,-37.82 909.69,-37.95 918.05,-44.46 920.28,-37.82"/>
</g>
<!-- Node10&#45;&gt;Node2 -->
<g id="edge17" class="edge">
<title>Node10&#45;&gt;Node2</title>
<path fill="none" stroke="#63b8ff" d="M1019,-48.8C1029.06,-58.3 1039.22,-68.57 1046.38,-76.6"/>
<polygon fill="#63b8ff" stroke="#63b8ff" points="1021.73,-46.64 1012.02,-42.42 1016.98,-51.78 1021.73,-46.64"/>
</g>
<!-- Node11&#45;&gt;Node2 -->
<g id="edge19" class="edge">
<title>Node11&#45;&gt;Node2</title>
<path fill="none" stroke="#63b8ff" d="M1104.94,-49.09C1095.67,-58.5 1084.96,-68.65 1075.8,-76.6"/>
<polygon fill="#63b8ff" stroke="#63b8ff" points="1106.91,-52.05 1111.32,-42.42 1101.87,-47.19 1106.91,-52.05"/>
</g>
<!-- Node12&#45;&gt;Node2 -->
<g id="edge21" class="edge">
<title>Node12&#45;&gt;Node2</title>
<path fill="none" stroke="#63b8ff" d="M1202.01,-44.86C1170.83,-55.33 1134.03,-67.37 1105.08,-76.52"/>
<polygon fill="#63b8ff" stroke="#63b8ff" points="1202.99,-47.88 1211.34,-41.37 1200.75,-41.25 1202.99,-47.88"/>
</g>
<!-- Node13&#45;&gt;Node2 -->
<g id="edge23" class="edge">
<title>Node13&#45;&gt;Node2</title>
<path fill="none" stroke="#63b8ff" d="M1328.74,-43.56C1251.81,-61.61 1163.74,-76.16 1108.76,-84.18"/>
<polygon fill="#63b8ff" stroke="#63b8ff" points="1329.12,-46.84 1338.03,-41.11 1327.5,-40.03 1329.12,-46.84"/>
</g>
<!-- Node14&#45;&gt;Node2 -->
<g id="edge26" class="edge">
<title>Node14&#45;&gt;Node2</title>
<path fill="none" stroke="#63b8ff" d="M1456.67,-43.26C1332.03,-68.78 1185.7,-82.18 1108.75,-87.76"/>
<polygon fill="#63b8ff" stroke="#63b8ff" points="1457.05,-46.55 1466.13,-41.08 1455.62,-39.69 1457.05,-46.55"/>
</g>
<!-- Node15&#45;&gt;Node2 -->
<g id="edge28" class="edge">
<title>Node15&#45;&gt;Node2</title>
<path fill="none" stroke="#63b8ff" d="M1584.64,-43.1C1411.02,-76.13 1204.3,-86.57 1108.68,-89.72"/>
<polygon fill="#63b8ff" stroke="#63b8ff" points="1585.09,-46.39 1594.24,-41.05 1583.76,-39.52 1585.09,-46.39"/>
</g>
<!-- Node16&#45;&gt;Node2 -->
<g id="edge30" class="edge">
<title>Node16&#45;&gt;Node2</title>
<path fill="none" stroke="#63b8ff" d="M1712.57,-43.02C1489.14,-83.59 1220.77,-90.07 1108.64,-90.95"/>
<polygon fill="#63b8ff" stroke="#63b8ff" points="1712.97,-46.32 1722.17,-41.06 1711.7,-39.44 1712.97,-46.32"/>
</g>
<!-- Node17&#45;&gt;Node2 -->
<g id="edge32" class="edge">
<title>Node17&#45;&gt;Node2</title>
<path fill="none" stroke="#63b8ff" d="M1840.53,-42.88C1687.23,-67.74 1259.46,-84.31 1108.76,-89.36"/>
<polygon fill="#63b8ff" stroke="#63b8ff" points="1840.81,-46.21 1850.08,-41.08 1839.63,-39.31 1840.81,-46.21"/>
</g>
<!-- Node18&#45;&gt;Node2 -->
<g id="edge34" class="edge">
<title>Node18&#45;&gt;Node2</title>
<path fill="none" stroke="#63b8ff" d="M1968.42,-42.86C1788.86,-71.45 1275.97,-85.92 1108.8,-89.86"/>
<polygon fill="#63b8ff" stroke="#63b8ff" points="1968.72,-46.19 1978.01,-41.09 1967.56,-39.29 1968.72,-46.19"/>
</g>
</g>
</svg>
