<?xml version="1.0" encoding="UTF-8" standalone="no"?>
<!DOCTYPE svg PUBLIC "-//W3C//DTD SVG 1.1//EN"
 "http://www.w3.org/Graphics/SVG/1.1/DTD/svg11.dtd">
<!-- Generated by graphviz version 2.43.0 (0)
 -->
<!-- Title: include/experimental/linear_algebra/private_support.hpp Pages: 1 -->
<!--zoomable 240 -->
<svg id="main" version="1.1" xmlns="http://www.w3.org/2000/svg" xmlns:xlink="http://www.w3.org/1999/xlink" xml:space="preserve" onload="init(evt)">
<style type="text/css"><![CDATA[
.edge:hover path { stroke: red; }
.edge:hover polygon { stroke: red; fill: red; }
]]></style>
<script type="text/javascript"><![CDATA[
var edges = document.getElementsByTagName('g');
if (edges && edges.length) {
  for (var i=0;i<edges.length;i++) {
    if (edges[i].id.substr(0,4)=='edge') {
      edges[i].setAttribute('class','edge');
    }
  }
}
]]></script>
        <defs>
                <circle id="rim" cx="0" cy="0" r="7"/>
                <circle id="rim2" cx="0" cy="0" r="3.5"/>
                <g id="zoomPlus">
                        <use xlink:href="#rim" fill="#404040">
                                <set attributeName="fill" to="#808080" begin="zoomplus.mouseover" end="zoomplus.mouseout"/>
                        </use>
                        <path d="M-4,0h8M0,-4v8" fill="none" stroke="white" stroke-width="1.5" pointer-events="none"/>
                </g>
                <g id="zoomMin">
                        <use xlink:href="#rim" fill="#404040">
                                <set attributeName="fill" to="#808080" begin="zoomminus.mouseover" end="zoomminus.mouseout"/>
                        </use>
                        <path d="M-4,0h8" fill="none" stroke="white" stroke-width="1.5" pointer-events="none"/>
                </g>
                <g id="dirArrow">
                        <path fill="none" stroke="white" stroke-width="1.5" d="M0,-3.0v7 M-2.5,-0.5L0,-3.0L2.5,-0.5"/>
                </g>
               <g id="resetDef">
                       <use xlink:href="#rim2" fill="#404040">
                               <set attributeName="fill" to="#808080" begin="reset.mouseover" end="reset.mouseout"/>
                       </use>
               </g>
        </defs>

<script type="text/javascript">
var viewWidth = 3150;
var viewHeight = 240;
var sectionId = 'dynsection-0';
</script>
<script xlink:href="svgpan.js"/>
<svg id="graph" class="graph">
<g id="viewport">
<title>include/experimental/linear_algebra/private_support.hpp</title>
<polygon fill="white" stroke="transparent" points="-4,4 -4,-236 3146,-236 3146,4 -4,4"/>
<!-- Node1 -->
<g id="node1" class="node">
<title>Node1</title>
<g id="a_node1"><a xlink:title=" ">
<polygon fill="#bfbfbf" stroke="black" points="1574.5,-190.5 1574.5,-231.5 1701.5,-231.5 1701.5,-190.5 1574.5,-190.5"/>
<text text-anchor="start" x="1582.5" y="-219.5" font-family="Helvetica,sans-Serif" font-size="10.00">include/experimental</text>
<text text-anchor="start" x="1582.5" y="-208.5" font-family="Helvetica,sans-Serif" font-size="10.00">/linear_algebra/private</text>
<text text-anchor="middle" x="1638" y="-197.5" font-family="Helvetica,sans-Serif" font-size="10.00">_support.hpp</text>
</a>
</g>
</g>
<!-- Node2 -->
<g id="node2" class="node">
<title>Node2</title>
<g id="a_node2"><a xlink:href="linear__algebra_8hpp.html" target="_top" xlink:title=" ">
<polygon fill="white" stroke="black" points="1581.5,-123.5 1581.5,-153.5 1694.5,-153.5 1694.5,-123.5 1581.5,-123.5"/>
<text text-anchor="start" x="1589.5" y="-141.5" font-family="Helvetica,sans-Serif" font-size="10.00">experimental/linear</text>
<text text-anchor="middle" x="1638" y="-130.5" font-family="Helvetica,sans-Serif" font-size="10.00">_algebra.hpp</text>
</a>
</g>
</g>
<!-- Node1&#45;&gt;Node2 -->
<g id="edge1" class="edge">
<title>Node1&#45;&gt;Node2</title>
<path fill="none" stroke="midnightblue" d="M1631.88,-190.36C1631.18,-182.23 1631.06,-172.7 1631.53,-164.11"/>
<polygon fill="midnightblue" stroke="midnightblue" points="1635.04,-164.16 1632.44,-153.89 1628.07,-163.54 1635.04,-164.16"/>
</g>
<!-- Node2&#45;&gt;Node1 -->
<g id="edge18" class="edge">
<title>Node2&#45;&gt;Node1</title>
<path fill="none" stroke="midnightblue" d="M1643.56,-153.89C1644.56,-161.53 1644.93,-171.21 1644.67,-180.38"/>
<polygon fill="midnightblue" stroke="midnightblue" points="1641.18,-180.18 1644.12,-190.36 1648.17,-180.57 1641.18,-180.18"/>
</g>
<!-- Node3 -->
<g id="node3" class="node">
<title>Node3</title>
<g id="a_node3"><a xlink:title=" ">
<polygon fill="white" stroke="#bfbfbf" points="0,-62 0,-81 64,-81 64,-62 0,-62"/>
<text text-anchor="middle" x="32" y="-69" font-family="Helvetica,sans-Serif" font-size="10.00">algorithm</text>
</a>
</g>
</g>
<!-- Node2&#45;&gt;Node3 -->
<g id="edge2" class="edge">
<title>Node2&#45;&gt;Node3</title>
<path fill="none" stroke="midnightblue" d="M1581.32,-136.7C1318.32,-132.86 223.27,-115.29 73,-87 69.48,-86.34 65.86,-85.42 62.29,-84.37"/>
<polygon fill="midnightblue" stroke="midnightblue" points="63.11,-80.96 52.52,-81.15 60.92,-87.6 63.11,-80.96"/>
</g>
<!-- Node4 -->
<g id="node4" class="node">
<title>Node4</title>
<g id="a_node4"><a xlink:title=" ">
<polygon fill="white" stroke="#bfbfbf" points="82,-62 82,-81 124,-81 124,-62 82,-62"/>
<text text-anchor="middle" x="103" y="-69" font-family="Helvetica,sans-Serif" font-size="10.00">array</text>
</a>
</g>
</g>
<!-- Node2&#45;&gt;Node4 -->
<g id="edge3" class="edge">
<title>Node2&#45;&gt;Node4</title>
<path fill="none" stroke="midnightblue" d="M1581.29,-136.99C1324.3,-134.47 275.38,-122.13 133,-87 131.02,-86.51 129.02,-85.88 127.03,-85.16"/>
<polygon fill="midnightblue" stroke="midnightblue" points="128.06,-81.79 117.49,-81.01 125.26,-88.21 128.06,-81.79"/>
</g>
<!-- Node5 -->
<g id="node5" class="node">
<title>Node5</title>
<g id="a_node5"><a xlink:title=" ">
<polygon fill="white" stroke="#bfbfbf" points="142,-62 142,-81 202,-81 202,-62 142,-62"/>
<text text-anchor="middle" x="172" y="-69" font-family="Helvetica,sans-Serif" font-size="10.00">concepts</text>
</a>
</g>
</g>
<!-- Node2&#45;&gt;Node5 -->
<g id="edge4" class="edge">
<title>Node2&#45;&gt;Node5</title>
<path fill="none" stroke="midnightblue" d="M1581.18,-137.85C1350.18,-138.89 481.03,-139.18 212,-87 208.56,-86.33 205.02,-85.41 201.54,-84.36"/>
<polygon fill="midnightblue" stroke="midnightblue" points="202.6,-81.02 192,-81.13 200.35,-87.66 202.6,-81.02"/>
</g>
<!-- Node6 -->
<g id="node6" class="node">
<title>Node6</title>
<g id="a_node6"><a xlink:title=" ">
<polygon fill="white" stroke="#bfbfbf" points="220.5,-62 220.5,-81 279.5,-81 279.5,-62 220.5,-62"/>
<text text-anchor="middle" x="250" y="-69" font-family="Helvetica,sans-Serif" font-size="10.00">complex</text>
</a>
</g>
</g>
<!-- Node2&#45;&gt;Node6 -->
<g id="edge5" class="edge">
<title>Node2&#45;&gt;Node6</title>
<path fill="none" stroke="midnightblue" d="M1581.23,-137.77C1358.23,-138.47 542.12,-137.44 289,-87 285.74,-86.35 282.39,-85.47 279.1,-84.45"/>
<polygon fill="midnightblue" stroke="midnightblue" points="280.08,-81.09 269.49,-81.13 277.79,-87.71 280.08,-81.09"/>
</g>
<!-- Node7 -->
<g id="node7" class="node">
<title>Node7</title>
<g id="a_node7"><a xlink:title=" ">
<polygon fill="white" stroke="#bfbfbf" points="297.5,-62 297.5,-81 350.5,-81 350.5,-62 297.5,-62"/>
<text text-anchor="middle" x="324" y="-69" font-family="Helvetica,sans-Serif" font-size="10.00">cstddef</text>
</a>
</g>
</g>
<!-- Node2&#45;&gt;Node7 -->
<g id="edge6" class="edge">
<title>Node2&#45;&gt;Node7</title>
<path fill="none" stroke="midnightblue" d="M1581.27,-137.83C1365.75,-138.69 598.01,-138.03 360,-87 357.16,-86.39 354.25,-85.58 351.39,-84.64"/>
<polygon fill="midnightblue" stroke="midnightblue" points="352.52,-81.33 341.93,-81.13 350.09,-87.89 352.52,-81.33"/>
</g>
<!-- Node8 -->
<g id="node8" class="node">
<title>Node8</title>
<g id="a_node8"><a xlink:title=" ">
<polygon fill="white" stroke="#bfbfbf" points="369,-62 369,-81 433,-81 433,-62 369,-62"/>
<text text-anchor="middle" x="401" y="-69" font-family="Helvetica,sans-Serif" font-size="10.00">execution</text>
</a>
</g>
</g>
<!-- Node2&#45;&gt;Node8 -->
<g id="edge7" class="edge">
<title>Node2&#45;&gt;Node8</title>
<path fill="none" stroke="midnightblue" d="M1581.17,-137.28C1374.77,-136.13 665.25,-129.13 443,-87 439.3,-86.3 435.48,-85.34 431.72,-84.24"/>
<polygon fill="midnightblue" stroke="midnightblue" points="432.63,-80.85 422.04,-81.1 430.47,-87.51 432.63,-80.85"/>
</g>
<!-- Node9 -->
<g id="node9" class="node">
<title>Node9</title>
<g id="a_node9"><a xlink:title=" ">
<polygon fill="white" stroke="#bfbfbf" points="451.5,-62 451.5,-81 516.5,-81 516.5,-62 451.5,-62"/>
<text text-anchor="middle" x="484" y="-69" font-family="Helvetica,sans-Serif" font-size="10.00">exception</text>
</a>
</g>
</g>
<!-- Node2&#45;&gt;Node9 -->
<g id="edge8" class="edge">
<title>Node2&#45;&gt;Node9</title>
<path fill="none" stroke="midnightblue" d="M1581.42,-137.07C1384.73,-135.24 731.48,-126.28 526,-87 522.3,-86.29 518.48,-85.33 514.72,-84.23"/>
<polygon fill="midnightblue" stroke="midnightblue" points="515.64,-80.84 505.04,-81.09 513.48,-87.5 515.64,-80.84"/>
</g>
<!-- Node10 -->
<g id="node10" class="node">
<title>Node10</title>
<g id="a_node10"><a xlink:title=" ">
<polygon fill="white" stroke="#bfbfbf" points="534.5,-62 534.5,-81 599.5,-81 599.5,-62 534.5,-62"/>
<text text-anchor="middle" x="567" y="-69" font-family="Helvetica,sans-Serif" font-size="10.00">functional</text>
</a>
</g>
</g>
<!-- Node2&#45;&gt;Node10 -->
<g id="edge9" class="edge">
<title>Node2&#45;&gt;Node10</title>
<path fill="none" stroke="midnightblue" d="M1581.47,-136.83C1394.57,-134.28 797.68,-123.43 609,-87 605.3,-86.29 601.48,-85.31 597.72,-84.21"/>
<polygon fill="midnightblue" stroke="midnightblue" points="598.64,-80.83 588.05,-81.07 596.48,-87.49 598.64,-80.83"/>
</g>
<!-- Node11 -->
<g id="node11" class="node">
<title>Node11</title>
<g id="a_node11"><a xlink:title=" ">
<polygon fill="white" stroke="#bfbfbf" points="618,-62 618,-81 676,-81 676,-62 618,-62"/>
<text text-anchor="middle" x="647" y="-69" font-family="Helvetica,sans-Serif" font-size="10.00">memory</text>
</a>
</g>
</g>
<!-- Node2&#45;&gt;Node11 -->
<g id="edge10" class="edge">
<title>Node2&#45;&gt;Node11</title>
<path fill="none" stroke="midnightblue" d="M1581.29,-136.8C1403.37,-134.26 857.72,-123.59 685,-87 681.92,-86.35 678.76,-85.48 675.65,-84.5"/>
<polygon fill="midnightblue" stroke="midnightblue" points="676.57,-81.12 665.98,-81.07 674.23,-87.71 676.57,-81.12"/>
</g>
<!-- Node12 -->
<g id="node12" class="node">
<title>Node12</title>
<g id="a_node12"><a xlink:title=" ">
<polygon fill="white" stroke="#bfbfbf" points="694,-62 694,-81 734,-81 734,-62 694,-62"/>
<text text-anchor="middle" x="714" y="-69" font-family="Helvetica,sans-Serif" font-size="10.00">span</text>
</a>
</g>
</g>
<!-- Node2&#45;&gt;Node12 -->
<g id="edge11" class="edge">
<title>Node2&#45;&gt;Node12</title>
<path fill="none" stroke="midnightblue" d="M1581.38,-137.19C1410.73,-135.81 903.34,-128.25 744,-87 742.07,-86.5 740.11,-85.87 738.17,-85.16"/>
<polygon fill="midnightblue" stroke="midnightblue" points="739.38,-81.87 728.82,-81.09 736.59,-88.29 739.38,-81.87"/>
</g>
<!-- Node13 -->
<g id="node13" class="node">
<title>Node13</title>
<g id="a_node13"><a xlink:title=" ">
<polygon fill="white" stroke="#bfbfbf" points="752.5,-62 752.5,-81 817.5,-81 817.5,-62 752.5,-62"/>
<text text-anchor="middle" x="785" y="-69" font-family="Helvetica,sans-Serif" font-size="10.00">stdexcept</text>
</a>
</g>
</g>
<!-- Node2&#45;&gt;Node13 -->
<g id="edge12" class="edge">
<title>Node2&#45;&gt;Node13</title>
<path fill="none" stroke="midnightblue" d="M1581.22,-135.96C1421.7,-131.31 971.73,-115.93 827,-87 823.3,-86.26 819.49,-85.28 815.73,-84.16"/>
<polygon fill="midnightblue" stroke="midnightblue" points="816.65,-80.78 806.06,-81.02 814.48,-87.44 816.65,-80.78"/>
</g>
<!-- Node14 -->
<g id="node14" class="node">
<title>Node14</title>
<g id="a_node14"><a xlink:title=" ">
<polygon fill="white" stroke="#bfbfbf" points="835.5,-62 835.5,-81 876.5,-81 876.5,-62 835.5,-62"/>
<text text-anchor="middle" x="856" y="-69" font-family="Helvetica,sans-Serif" font-size="10.00">tuple</text>
</a>
</g>
</g>
<!-- Node2&#45;&gt;Node14 -->
<g id="edge13" class="edge">
<title>Node2&#45;&gt;Node14</title>
<path fill="none" stroke="midnightblue" d="M1581.39,-136.49C1429.78,-133.33 1017.24,-121.72 886,-87 884.07,-86.49 882.12,-85.85 880.18,-85.13"/>
<polygon fill="midnightblue" stroke="midnightblue" points="881.39,-81.85 870.83,-81.05 878.59,-88.26 881.39,-81.85"/>
</g>
<!-- Node15 -->
<g id="node15" class="node">
<title>Node15</title>
<g id="a_node15"><a xlink:title=" ">
<polygon fill="white" stroke="#bfbfbf" points="894.5,-62 894.5,-81 963.5,-81 963.5,-62 894.5,-62"/>
<text text-anchor="middle" x="929" y="-69" font-family="Helvetica,sans-Serif" font-size="10.00">type_traits</text>
</a>
</g>
</g>
<!-- Node2&#45;&gt;Node15 -->
<g id="edge14" class="edge">
<title>Node2&#45;&gt;Node15</title>
<path fill="none" stroke="midnightblue" d="M1581.42,-137.18C1466.66,-135.65 1198.67,-127.62 978,-87 973.46,-86.16 968.74,-85.07 964.1,-83.86"/>
<polygon fill="midnightblue" stroke="midnightblue" points="964.76,-80.4 954.18,-81.06 962.86,-87.14 964.76,-80.4"/>
</g>
<!-- Node16 -->
<g id="node16" class="node">
<title>Node16</title>
<g id="a_node16"><a xlink:title=" ">
<polygon fill="white" stroke="#bfbfbf" points="975,-0.5 975,-19.5 1099,-19.5 1099,-0.5 975,-0.5"/>
<text text-anchor="middle" x="1037" y="-7.5" font-family="Helvetica,sans-Serif" font-size="10.00">experimental/mdspan</text>
</a>
</g>
</g>
<!-- Node2&#45;&gt;Node16 -->
<g id="edge15" class="edge">
<title>Node2&#45;&gt;Node16</title>
<path fill="none" stroke="midnightblue" d="M1581.29,-137.22C1434.22,-135.89 1049.25,-128.46 1011,-87 995.7,-70.42 1010.13,-44.44 1022.81,-27.56"/>
<polygon fill="midnightblue" stroke="midnightblue" points="1025.62,-29.66 1029.12,-19.67 1020.15,-25.29 1025.62,-29.66"/>
</g>
<!-- Node17 -->
<g id="node17" class="node">
<title>Node17</title>
<g id="a_node17"><a xlink:href="mdspan__improvements_8hpp.html" target="_top" xlink:title=" ">
<polygon fill="white" stroke="black" points="1020,-56.5 1020,-86.5 1144,-86.5 1144,-56.5 1020,-56.5"/>
<text text-anchor="start" x="1028" y="-74.5" font-family="Helvetica,sans-Serif" font-size="10.00">experimental/mdspan</text>
<text text-anchor="middle" x="1082" y="-63.5" font-family="Helvetica,sans-Serif" font-size="10.00">_improvements.hpp</text>
</a>
</g>
</g>
<!-- Node2&#45;&gt;Node17 -->
<g id="edge16" class="edge">
<title>Node2&#45;&gt;Node17</title>
<path fill="none" stroke="midnightblue" d="M1581.39,-133.41C1492.51,-126.59 1314.65,-111.35 1154.32,-87.11"/>
<polygon fill="midnightblue" stroke="midnightblue" points="1154.69,-83.63 1144.28,-85.58 1153.63,-90.55 1154.69,-83.63"/>
</g>
<!-- Node18 -->
<g id="node18" class="node">
<title>Node18</title>
<g id="a_node18"><a xlink:href="tensor__concepts_8hpp.html" target="_top" xlink:title=" ">
<polygon fill="white" stroke="black" points="1162,-56.5 1162,-86.5 1282,-86.5 1282,-56.5 1162,-56.5"/>
<text text-anchor="start" x="1170" y="-74.5" font-family="Helvetica,sans-Serif" font-size="10.00">linear_algebra/tensor</text>
<text text-anchor="middle" x="1222" y="-63.5" font-family="Helvetica,sans-Serif" font-size="10.00">_concepts.hpp</text>
</a>
</g>
</g>
<!-- Node2&#45;&gt;Node18 -->
<g id="edge19" class="edge">
<title>Node2&#45;&gt;Node18</title>
<path fill="none" stroke="midnightblue" d="M1581.45,-131.17C1513.09,-122.71 1394.73,-106.7 1289.59,-88.33"/>
<polygon fill="midnightblue" stroke="midnightblue" points="1289.91,-84.83 1279.45,-86.54 1288.69,-91.73 1289.91,-84.83"/>
</g>
<!-- Node19 -->
<g id="node19" class="node">
<title>Node19</title>
<g id="a_node19"><a xlink:href="vector__concepts_8hpp.html" target="_top" xlink:title=" ">
<polygon fill="white" stroke="black" points="1300,-56.5 1300,-86.5 1420,-86.5 1420,-56.5 1300,-56.5"/>
<text text-anchor="start" x="1308" y="-74.5" font-family="Helvetica,sans-Serif" font-size="10.00">linear_algebra/vector</text>
<text text-anchor="middle" x="1360" y="-63.5" font-family="Helvetica,sans-Serif" font-size="10.00">_concepts.hpp</text>
</a>
</g>
</g>
<!-- Node2&#45;&gt;Node19 -->
<g id="edge21" class="edge">
<title>Node2&#45;&gt;Node19</title>
<path fill="none" stroke="midnightblue" d="M1581.31,-125.5C1535.76,-115.23 1471.86,-100.33 1424.39,-88.95"/>
<polygon fill="midnightblue" stroke="midnightblue" points="1425.07,-85.51 1414.53,-86.58 1423.43,-92.32 1425.07,-85.51"/>
</g>
<!-- Node20 -->
<g id="node20" class="node">
<title>Node20</title>
<g id="a_node20"><a xlink:href="matrix__concepts_8hpp.html" target="_top" xlink:title=" ">
<polygon fill="white" stroke="black" points="1438,-56.5 1438,-86.5 1560,-86.5 1560,-56.5 1438,-56.5"/>
<text text-anchor="start" x="1446" y="-74.5" font-family="Helvetica,sans-Serif" font-size="10.00">linear_algebra/matrix</text>
<text text-anchor="middle" x="1499" y="-63.5" font-family="Helvetica,sans-Serif" font-size="10.00">_concepts.hpp</text>
</a>
</g>
</g>
<!-- Node2&#45;&gt;Node20 -->
<g id="edge23" class="edge">
<title>Node2&#45;&gt;Node20</title>
<path fill="none" stroke="midnightblue" d="M1602.16,-123.4C1580.7,-113.94 1553.7,-101.39 1532.64,-91.12"/>
<polygon fill="midnightblue" stroke="midnightblue" points="1533.94,-87.86 1523.43,-86.58 1530.85,-94.14 1533.94,-87.86"/>
</g>
<!-- Node21 -->
<g id="node21" class="node">
<title>Node21</title>
<g id="a_node21"><a xlink:href="tensor__view_8hpp.html" target="_top" xlink:title=" ">
<polygon fill="white" stroke="black" points="1578,-56.5 1578,-86.5 1698,-86.5 1698,-56.5 1578,-56.5"/>
<text text-anchor="start" x="1586" y="-74.5" font-family="Helvetica,sans-Serif" font-size="10.00">linear_algebra/tensor</text>
<text text-anchor="middle" x="1638" y="-63.5" font-family="Helvetica,sans-Serif" font-size="10.00">_view.hpp</text>
</a>
</g>
</g>
<!-- Node2&#45;&gt;Node21 -->
<g id="edge25" class="edge">
<title>Node2&#45;&gt;Node21</title>
<path fill="none" stroke="midnightblue" d="M1632.32,-123.4C1631.29,-115.56 1631.01,-105.6 1631.46,-96.57"/>
<polygon fill="midnightblue" stroke="midnightblue" points="1634.95,-96.84 1632.33,-86.58 1627.97,-96.24 1634.95,-96.84"/>
</g>
<!-- Node22 -->
<g id="node22" class="node">
<title>Node22</title>
<g id="a_node22"><a xlink:href="vector__view_8hpp.html" target="_top" xlink:title=" ">
<polygon fill="white" stroke="black" points="1716,-56.5 1716,-86.5 1836,-86.5 1836,-56.5 1716,-56.5"/>
<text text-anchor="start" x="1724" y="-74.5" font-family="Helvetica,sans-Serif" font-size="10.00">linear_algebra/vector</text>
<text text-anchor="middle" x="1776" y="-63.5" font-family="Helvetica,sans-Serif" font-size="10.00">_view.hpp</text>
</a>
</g>
</g>
<!-- Node2&#45;&gt;Node22 -->
<g id="edge27" class="edge">
<title>Node2&#45;&gt;Node22</title>
<path fill="none" stroke="midnightblue" d="M1662.27,-123.4C1681.35,-113.81 1708.3,-101.05 1731.22,-90.7"/>
<polygon fill="midnightblue" stroke="midnightblue" points="1732.74,-93.86 1740.44,-86.58 1729.88,-87.47 1732.74,-93.86"/>
</g>
<!-- Node23 -->
<g id="node23" class="node">
<title>Node23</title>
<g id="a_node23"><a xlink:href="matrix__view_8hpp.html" target="_top" xlink:title=" ">
<polygon fill="white" stroke="black" points="1854,-56.5 1854,-86.5 1976,-86.5 1976,-56.5 1854,-56.5"/>
<text text-anchor="start" x="1862" y="-74.5" font-family="Helvetica,sans-Serif" font-size="10.00">linear_algebra/matrix</text>
<text text-anchor="middle" x="1915" y="-63.5" font-family="Helvetica,sans-Serif" font-size="10.00">_view.hpp</text>
</a>
</g>
</g>
<!-- Node2&#45;&gt;Node23 -->
<g id="edge29" class="edge">
<title>Node2&#45;&gt;Node23</title>
<path fill="none" stroke="midnightblue" d="M1692.1,-123.48C1735.4,-112.99 1796.42,-98.66 1843.7,-87.86"/>
<polygon fill="midnightblue" stroke="midnightblue" points="1844.6,-91.25 1853.57,-85.61 1843.05,-84.42 1844.6,-91.25"/>
</g>
<!-- Node24 -->
<g id="node24" class="node">
<title>Node24</title>
<g id="a_node24"><a xlink:href="fixed__size__tensor_8hpp.html" target="_top" xlink:title=" ">
<polygon fill="white" stroke="black" points="1994.5,-56.5 1994.5,-86.5 2107.5,-86.5 2107.5,-56.5 1994.5,-56.5"/>
<text text-anchor="start" x="2002.5" y="-74.5" font-family="Helvetica,sans-Serif" font-size="10.00">linear_algebra/fixed</text>
<text text-anchor="middle" x="2051" y="-63.5" font-family="Helvetica,sans-Serif" font-size="10.00">_size_tensor.hpp</text>
</a>
</g>
</g>
<!-- Node2&#45;&gt;Node24 -->
<g id="edge31" class="edge">
<title>Node2&#45;&gt;Node24</title>
<path fill="none" stroke="midnightblue" d="M1694.62,-129.68C1761.95,-120.74 1877.33,-104.99 1976,-87 1978.67,-86.51 1981.39,-86 1984.14,-85.46"/>
<polygon fill="midnightblue" stroke="midnightblue" points="1985.09,-88.84 1994.21,-83.44 1983.72,-81.98 1985.09,-88.84"/>
</g>
<!-- Node25 -->
<g id="node25" class="node">
<title>Node25</title>
<g id="a_node25"><a xlink:href="dynamic__tensor_8hpp.html" target="_top" xlink:title=" ">
<polygon fill="white" stroke="black" points="2125.5,-56.5 2125.5,-86.5 2256.5,-86.5 2256.5,-56.5 2125.5,-56.5"/>
<text text-anchor="start" x="2133.5" y="-74.5" font-family="Helvetica,sans-Serif" font-size="10.00">linear_algebra/dynamic</text>
<text text-anchor="middle" x="2191" y="-63.5" font-family="Helvetica,sans-Serif" font-size="10.00">_tensor.hpp</text>
</a>
</g>
</g>
<!-- Node2&#45;&gt;Node25 -->
<g id="edge33" class="edge">
<title>Node2&#45;&gt;Node25</title>
<path fill="none" stroke="midnightblue" d="M1694.73,-132.68C1783.3,-125.21 1959.36,-109.35 2108,-87 2110.35,-86.65 2112.74,-86.27 2115.15,-85.88"/>
<polygon fill="midnightblue" stroke="midnightblue" points="2115.9,-89.3 2125.17,-84.17 2114.72,-82.4 2115.9,-89.3"/>
</g>
<!-- Node26 -->
<g id="node26" class="node">
<title>Node26</title>
<g id="a_node26"><a xlink:href="fixed__size__matrix_8hpp.html" target="_top" xlink:title=" ">
<polygon fill="white" stroke="black" points="2274.5,-56.5 2274.5,-86.5 2387.5,-86.5 2387.5,-56.5 2274.5,-56.5"/>
<text text-anchor="start" x="2282.5" y="-74.5" font-family="Helvetica,sans-Serif" font-size="10.00">linear_algebra/fixed</text>
<text text-anchor="middle" x="2331" y="-63.5" font-family="Helvetica,sans-Serif" font-size="10.00">_size_matrix.hpp</text>
</a>
</g>
</g>
<!-- Node2&#45;&gt;Node26 -->
<g id="edge35" class="edge">
<title>Node2&#45;&gt;Node26</title>
<path fill="none" stroke="midnightblue" d="M1694.54,-135.38C1803.82,-130.88 2050.97,-118.11 2257,-87 2259.36,-86.64 2261.77,-86.25 2264.2,-85.83"/>
<polygon fill="midnightblue" stroke="midnightblue" points="2265.09,-89.22 2274.28,-83.95 2263.81,-82.34 2265.09,-89.22"/>
</g>
<!-- Node27 -->
<g id="node27" class="node">
<title>Node27</title>
<g id="a_node27"><a xlink:href="dynamic__matrix_8hpp.html" target="_top" xlink:title=" ">
<polygon fill="white" stroke="black" points="2405.5,-56.5 2405.5,-86.5 2536.5,-86.5 2536.5,-56.5 2405.5,-56.5"/>
<text text-anchor="start" x="2413.5" y="-74.5" font-family="Helvetica,sans-Serif" font-size="10.00">linear_algebra/dynamic</text>
<text text-anchor="middle" x="2471" y="-63.5" font-family="Helvetica,sans-Serif" font-size="10.00">_matrix.hpp</text>
</a>
</g>
</g>
<!-- Node2&#45;&gt;Node27 -->
<g id="edge37" class="edge">
<title>Node2&#45;&gt;Node27</title>
<path fill="none" stroke="midnightblue" d="M1694.83,-136.05C1820.42,-132.42 2130.36,-120.67 2388,-87 2390.35,-86.69 2392.75,-86.36 2395.16,-85.99"/>
<polygon fill="midnightblue" stroke="midnightblue" points="2395.87,-89.43 2405.2,-84.39 2394.77,-82.51 2395.87,-89.43"/>
</g>
<!-- Node28 -->
<g id="node28" class="node">
<title>Node28</title>
<g id="a_node28"><a xlink:href="fixed__size__vector_8hpp.html" target="_top" xlink:title=" ">
<polygon fill="white" stroke="black" points="2554.5,-56.5 2554.5,-86.5 2667.5,-86.5 2667.5,-56.5 2554.5,-56.5"/>
<text text-anchor="start" x="2562.5" y="-74.5" font-family="Helvetica,sans-Serif" font-size="10.00">linear_algebra/fixed</text>
<text text-anchor="middle" x="2611" y="-63.5" font-family="Helvetica,sans-Serif" font-size="10.00">_size_vector.hpp</text>
</a>
</g>
</g>
<!-- Node2&#45;&gt;Node28 -->
<g id="edge39" class="edge">
<title>Node2&#45;&gt;Node28</title>
<path fill="none" stroke="midnightblue" d="M1694.62,-137.55C1836.96,-136.91 2220.5,-130.8 2537,-87 2539.37,-86.67 2541.78,-86.3 2544.21,-85.9"/>
<polygon fill="midnightblue" stroke="midnightblue" points="2545.08,-89.3 2554.3,-84.09 2543.84,-82.41 2545.08,-89.3"/>
</g>
<!-- Node29 -->
<g id="node29" class="node">
<title>Node29</title>
<g id="a_node29"><a xlink:href="dynamic__vector_8hpp.html" target="_top" xlink:title=" ">
<polygon fill="white" stroke="black" points="2685.5,-56.5 2685.5,-86.5 2816.5,-86.5 2816.5,-56.5 2685.5,-56.5"/>
<text text-anchor="start" x="2693.5" y="-74.5" font-family="Helvetica,sans-Serif" font-size="10.00">linear_algebra/dynamic</text>
<text text-anchor="middle" x="2751" y="-63.5" font-family="Helvetica,sans-Serif" font-size="10.00">_vector.hpp</text>
</a>
</g>
</g>
<!-- Node2&#45;&gt;Node29 -->
<g id="edge41" class="edge">
<title>Node2&#45;&gt;Node29</title>
<path fill="none" stroke="midnightblue" d="M1694.56,-137.61C1850.42,-137.25 2298.47,-131.94 2668,-87 2670.36,-86.71 2672.75,-86.39 2675.17,-86.05"/>
<polygon fill="midnightblue" stroke="midnightblue" points="2675.86,-89.48 2685.21,-84.5 2674.79,-82.57 2675.86,-89.48"/>
</g>
<!-- Node30 -->
<g id="node30" class="node">
<title>Node30</title>
<g id="a_node30"><a xlink:href="instant__evaluated__operations_8hpp.html" target="_top" xlink:title=" ">
<polygon fill="white" stroke="black" points="2834.5,-56.5 2834.5,-86.5 2983.5,-86.5 2983.5,-56.5 2834.5,-56.5"/>
<text text-anchor="start" x="2842.5" y="-74.5" font-family="Helvetica,sans-Serif" font-size="10.00">linear_algebra/instant</text>
<text text-anchor="middle" x="2909" y="-63.5" font-family="Helvetica,sans-Serif" font-size="10.00">_evaluated_operations.hpp</text>
</a>
</g>
</g>
<!-- Node2&#45;&gt;Node30 -->
<g id="edge43" class="edge">
<title>Node2&#45;&gt;Node30</title>
<path fill="none" stroke="midnightblue" d="M1694.72,-137.71C1865.18,-137.71 2387.02,-133.5 2817,-87 2819.39,-86.74 2821.82,-86.46 2824.27,-86.15"/>
<polygon fill="midnightblue" stroke="midnightblue" points="2825.01,-89.58 2834.45,-84.77 2824.07,-82.64 2825.01,-89.58"/>
</g>
<!-- Node31 -->
<g id="node31" class="node">
<title>Node31</title>
<g id="a_node31"><a xlink:href="arithmetic__operators_8hpp.html" target="_top" xlink:title=" ">
<polygon fill="white" stroke="black" points="3002,-56.5 3002,-86.5 3142,-86.5 3142,-56.5 3002,-56.5"/>
<text text-anchor="start" x="3010" y="-74.5" font-family="Helvetica,sans-Serif" font-size="10.00">linear_algebra/arithmetic</text>
<text text-anchor="middle" x="3072" y="-63.5" font-family="Helvetica,sans-Serif" font-size="10.00">_operators.hpp</text>
</a>
</g>
</g>
<!-- Node2&#45;&gt;Node31 -->
<g id="edge45" class="edge">
<title>Node2&#45;&gt;Node31</title>
<path fill="none" stroke="midnightblue" d="M1694.55,-136.42C1916.46,-132.13 2727.48,-115.17 2984,-87 2986.55,-86.72 2989.14,-86.41 2991.75,-86.06"/>
<polygon fill="midnightblue" stroke="midnightblue" points="2992.52,-89.49 3001.93,-84.62 2991.53,-82.56 2992.52,-89.49"/>
</g>
<!-- Node17&#45;&gt;Node16 -->
<g id="edge17" class="edge">
<title>Node17&#45;&gt;Node16</title>
<path fill="none" stroke="midnightblue" d="M1071.34,-56.4C1064.86,-47.84 1056.57,-36.87 1049.75,-27.86"/>
<polygon fill="midnightblue" stroke="midnightblue" points="1052.37,-25.52 1043.55,-19.66 1046.79,-29.74 1052.37,-25.52"/>
</g>
<!-- Node18&#45;&gt;Node2 -->
<g id="edge20" class="edge">
<title>Node18&#45;&gt;Node2</title>
<path fill="none" stroke="midnightblue" d="M1282.12,-83.63C1288.17,-84.82 1294.21,-85.97 1300,-87 1393.93,-103.69 1502.89,-118.87 1571.21,-128.13"/>
<polygon fill="midnightblue" stroke="midnightblue" points="1571.03,-131.64 1581.41,-129.51 1571.97,-124.7 1571.03,-131.64"/>
</g>
<!-- Node19&#45;&gt;Node2 -->
<g id="edge22" class="edge">
<title>Node19&#45;&gt;Node2</title>
<path fill="none" stroke="midnightblue" d="M1420.18,-85.29C1465.52,-95.53 1527.48,-109.99 1573.77,-121.09"/>
<polygon fill="midnightblue" stroke="midnightblue" points="1573.15,-124.54 1583.69,-123.48 1574.78,-117.73 1573.15,-124.54"/>
</g>
<!-- Node20&#45;&gt;Node2 -->
<g id="edge24" class="edge">
<title>Node20&#45;&gt;Node2</title>
<path fill="none" stroke="midnightblue" d="M1534.78,-86.58C1556.22,-96.03 1583.23,-108.58 1604.3,-118.85"/>
<polygon fill="midnightblue" stroke="midnightblue" points="1603,-122.12 1613.52,-123.4 1606.09,-115.84 1603,-122.12"/>
</g>
<!-- Node21&#45;&gt;Node2 -->
<g id="edge26" class="edge">
<title>Node21&#45;&gt;Node2</title>
<path fill="none" stroke="midnightblue" d="M1643.67,-86.58C1644.7,-94.41 1644.99,-104.37 1644.55,-113.4"/>
<polygon fill="midnightblue" stroke="midnightblue" points="1641.06,-113.13 1643.68,-123.4 1648.03,-113.74 1641.06,-113.13"/>
</g>
<!-- Node22&#45;&gt;Node2 -->
<g id="edge28" class="edge">
<title>Node22&#45;&gt;Node2</title>
<path fill="none" stroke="midnightblue" d="M1751.79,-86.58C1732.72,-96.15 1705.77,-108.92 1682.84,-119.27"/>
<polygon fill="midnightblue" stroke="midnightblue" points="1681.32,-116.12 1673.62,-123.4 1684.18,-122.5 1681.32,-116.12"/>
</g>
<!-- Node23&#45;&gt;Node2 -->
<g id="edge30" class="edge">
<title>Node23&#45;&gt;Node2</title>
<path fill="none" stroke="midnightblue" d="M1860.69,-86.58C1815.9,-97.42 1752.27,-112.35 1704.46,-123.24"/>
<polygon fill="midnightblue" stroke="midnightblue" points="1703.48,-119.87 1694.5,-125.5 1705.03,-126.7 1703.48,-119.87"/>
</g>
<!-- Node24&#45;&gt;Node2 -->
<g id="edge32" class="edge">
<title>Node24&#45;&gt;Node2</title>
<path fill="none" stroke="midnightblue" d="M1996.44,-86.55C1995.62,-86.7 1994.81,-86.85 1994,-87 1893.96,-105.24 1776.74,-121.18 1704.85,-130.05"/>
<polygon fill="midnightblue" stroke="midnightblue" points="1704.08,-126.62 1694.58,-131.31 1704.93,-133.57 1704.08,-126.62"/>
</g>
<!-- Node25&#45;&gt;Node2 -->
<g id="edge34" class="edge">
<title>Node25&#45;&gt;Node2</title>
<path fill="none" stroke="midnightblue" d="M2129.13,-86.52C2128.08,-86.68 2127.04,-86.84 2126,-87 1976.41,-109.5 1799.03,-125.42 1704.67,-132.82"/>
<polygon fill="midnightblue" stroke="midnightblue" points="1704.39,-129.33 1694.69,-133.6 1704.94,-136.31 1704.39,-129.33"/>
</g>
<!-- Node26&#45;&gt;Node2 -->
<g id="edge36" class="edge">
<title>Node26&#45;&gt;Node2</title>
<path fill="none" stroke="midnightblue" d="M2278.11,-86.51C2277.07,-86.68 2276.03,-86.84 2275,-87 2068.97,-118.11 1821.82,-130.88 1705.12,-135.38"/>
<polygon fill="midnightblue" stroke="midnightblue" points="1704.78,-131.89 1694.92,-135.77 1705.04,-138.89 1704.78,-131.89"/>
</g>
<!-- Node27&#45;&gt;Node2 -->
<g id="edge38" class="edge">
<title>Node27&#45;&gt;Node2</title>
<path fill="none" stroke="midnightblue" d="M2409.53,-86.52C2408.35,-86.69 2407.17,-86.85 2406,-87 2148.52,-120.65 1838.8,-132.4 1704.91,-136.04"/>
<polygon fill="midnightblue" stroke="midnightblue" points="1704.71,-132.55 1694.81,-136.31 1704.9,-139.54 1704.71,-132.55"/>
</g>
<!-- Node28&#45;&gt;Node2 -->
<g id="edge40" class="edge">
<title>Node28&#45;&gt;Node2</title>
<path fill="none" stroke="midnightblue" d="M2558.11,-86.55C2557.07,-86.71 2556.03,-86.86 2555,-87 2239.11,-130.72 1856.45,-136.89 1704.6,-137.54"/>
<polygon fill="midnightblue" stroke="midnightblue" points="1704.49,-134.04 1694.51,-137.58 1704.52,-141.04 1704.49,-134.04"/>
</g>
<!-- Node29&#45;&gt;Node2 -->
<g id="edge42" class="edge">
<title>Node29&#45;&gt;Node2</title>
<path fill="none" stroke="midnightblue" d="M2689.53,-86.55C2688.35,-86.71 2687.17,-86.86 2686,-87 2317.68,-131.8 1871.36,-137.22 1704.8,-137.61"/>
<polygon fill="midnightblue" stroke="midnightblue" points="1704.71,-134.11 1694.71,-137.63 1704.72,-141.11 1704.71,-134.11"/>
</g>
<!-- Node30&#45;&gt;Node2 -->
<g id="edge44" class="edge">
<title>Node30&#45;&gt;Node2</title>
<path fill="none" stroke="midnightblue" d="M2838.96,-86.55C2837.63,-86.71 2836.31,-86.86 2835,-87 2406.67,-133.32 1887.17,-137.68 1704.94,-137.71"/>
<polygon fill="midnightblue" stroke="midnightblue" points="1704.71,-134.21 1694.71,-137.71 1704.71,-141.21 1704.71,-134.21"/>
</g>
<!-- Node31&#45;&gt;Node2 -->
<g id="edge46" class="edge">
<title>Node31&#45;&gt;Node2</title>
<path fill="none" stroke="midnightblue" d="M3006.19,-86.51C3004.78,-86.69 3003.39,-86.85 3002,-87 2746.79,-115.03 1942.71,-131.96 1704.85,-136.35"/>
<polygon fill="midnightblue" stroke="midnightblue" points="1704.56,-132.86 1694.62,-136.54 1704.69,-139.86 1704.56,-132.86"/>
</g>
</g>
</svg>
        <g id="navigator" transform="translate(0 0)" fill="#404254">
                <rect fill="#f2f5e9" fill-opacity="0.5" stroke="#606060" stroke-width=".5" x="0" y="0" width="60" height="60"/>
                <use id="zoomplus" xlink:href="#zoomPlus" x="17" y="9" onmousedown="handleZoom(evt,'in')"/>
                <use id="zoomminus" xlink:href="#zoomMin" x="42" y="9" onmousedown="handleZoom(evt,'out')"/>
                <use id="reset" xlink:href="#resetDef" x="30" y="36" onmousedown="handleReset()"/>
                <g id="arrowUp" xlink:href="#dirArrow" transform="translate(30 24)" onmousedown="handlePan(0,-1)">
                  <use xlink:href="#rim" fill="#404040">
                        <set attributeName="fill" to="#808080" begin="arrowUp.mouseover" end="arrowUp.mouseout"/>
                  </use>
                  <path fill="none" stroke="white" stroke-width="1.5" d="M0,-3.0v7 M-2.5,-0.5L0,-3.0L2.5,-0.5"/>
                </g>
                <g id="arrowRight" xlink:href="#dirArrow" transform="rotate(90) translate(36 -43)" onmousedown="handlePan(1,0)">
                  <use xlink:href="#rim" fill="#404040">
                        <set attributeName="fill" to="#808080" begin="arrowRight.mouseover" end="arrowRight.mouseout"/>
                  </use>
                  <path fill="none" stroke="white" stroke-width="1.5" d="M0,-3.0v7 M-2.5,-0.5L0,-3.0L2.5,-0.5"/>
                </g>
                <g id="arrowDown" xlink:href="#dirArrow" transform="rotate(180) translate(-30 -48)" onmousedown="handlePan(0,1)">
                  <use xlink:href="#rim" fill="#404040">
                        <set attributeName="fill" to="#808080" begin="arrowDown.mouseover" end="arrowDown.mouseout"/>
                  </use>
                  <path fill="none" stroke="white" stroke-width="1.5" d="M0,-3.0v7 M-2.5,-0.5L0,-3.0L2.5,-0.5"/>
                </g>
                <g id="arrowLeft" xlink:href="#dirArrow" transform="rotate(270) translate(-36 17)" onmousedown="handlePan(-1,0)">
                  <use xlink:href="#rim" fill="#404040">
                        <set attributeName="fill" to="#808080" begin="arrowLeft.mouseover" end="arrowLeft.mouseout"/>
                  </use>
                  <path fill="none" stroke="white" stroke-width="1.5" d="M0,-3.0v7 M-2.5,-0.5L0,-3.0L2.5,-0.5"/>
                </g>
        </g>
        <svg viewBox="0 0 15 15" width="100%" height="30px" preserveAspectRatio="xMaxYMin meet">
         <g id="arrow_out" transform="scale(0.3 0.3)">
          <a xlink:href="private__support_8hpp__incl_org.svg" target="_base">
           <rect id="button" ry="5" rx="5" y="6" x="6" height="38" width="38"
                fill="#f2f5e9" fill-opacity="0.5" stroke="#606060" stroke-width="1.0"/>
           <path id="arrow"
             d="M 11.500037,31.436501 C 11.940474,20.09759 22.043105,11.32322 32.158766,21.979434 L 37.068811,17.246167 C 37.068811,17.246167 37.088388,32 37.088388,32 L 22.160133,31.978069 C 22.160133,31.978069 26.997745,27.140456 26.997745,27.140456 C 18.528582,18.264221 13.291696,25.230495 11.500037,31.436501 z"
             style="fill:#404040;"/>
          </a>
         </g>
        </svg>
</svg>
