<?xml version="1.0" encoding="UTF-8" standalone="no"?>
<!DOCTYPE svg PUBLIC "-//W3C//DTD SVG 1.1//EN"
 "http://www.w3.org/Graphics/SVG/1.1/DTD/svg11.dtd">
<!-- Generated by graphviz version 8.0.1 (20230327.1645)
 -->
<!-- Title: std::math::concepts::has_underlying_span_type&lt; T, ::std::enable_if_t&lt; ::std::is_same_v&lt; typename T::underlying_span_type, typename T::underlying_span_type &gt; &gt; &gt; Pages: 1 -->
<svg width="181pt" height="226pt"
 viewBox="0.00 0.00 181.00 226.00" xmlns="http://www.w3.org/2000/svg" xmlns:xlink="http://www.w3.org/1999/xlink">
<g id="graph0" class="graph" transform="scale(1 1) rotate(0) translate(4 222)">
<title>std::math::concepts::has_underlying_span_type&lt; T, ::std::enable_if_t&lt; ::std::is_same_v&lt; typename T::underlying_span_type, typename T::underlying_span_type &gt; &gt; &gt;</title>
<!-- Node1 -->
<g id="node1" class="node">
<title>Node1</title>
<g id="a_node1"><a xlink:title=" ">
<polygon fill="#999999" stroke="#666666" points="0,-0.5 0,-123.5 173,-123.5 173,-0.5 0,-0.5"/>
<text text-anchor="start" x="8" y="-111.5" font-family="Helvetica,sans-Serif" font-size="10.00">std::math::concepts</text>
<text text-anchor="start" x="8" y="-100.5" font-family="Helvetica,sans-Serif" font-size="10.00">::has_underlying_span</text>
<text text-anchor="start" x="8" y="-89.5" font-family="Helvetica,sans-Serif" font-size="10.00">_type&lt; T, ::std::enable</text>
<text text-anchor="start" x="8" y="-78.5" font-family="Helvetica,sans-Serif" font-size="10.00">_if_t&lt; ::std::is_same_v</text>
<text text-anchor="start" x="8" y="-67.5" font-family="Helvetica,sans-Serif" font-size="10.00">&lt; typename T::underlying</text>
<text text-anchor="start" x="8" y="-56.5" font-family="Helvetica,sans-Serif" font-size="10.00">_span_type, typename T::underlying</text>
<text text-anchor="middle" x="86.5" y="-45.5" font-family="Helvetica,sans-Serif" font-size="10.00">_span_type &gt; &gt; &gt;</text>
<polyline fill="none" stroke="#666666" points="0,-38.5 173,-38.5"/>
<text text-anchor="middle" x="86.5" y="-26.5" font-family="Helvetica,sans-Serif" font-size="10.00"> </text>
<polyline fill="none" stroke="#666666" points="0,-19.5 173,-19.5"/>
<text text-anchor="middle" x="86.5" y="-7.5" font-family="Helvetica,sans-Serif" font-size="10.00"> </text>
</a>
</g>
</g>
<!-- Node2 -->
<g id="node2" class="node">
<title>Node2</title>
<g id="a_node2"><a xlink:title=" ">
<polygon fill="white" stroke="#666666" points="48,-160.5 48,-217.5 125,-217.5 125,-160.5 48,-160.5"/>
<text text-anchor="middle" x="86.5" y="-205.5" font-family="Helvetica,sans-Serif" font-size="10.00">std::true_type</text>
<polyline fill="none" stroke="#666666" points="48,-198.5 125,-198.5"/>
<text text-anchor="middle" x="86.5" y="-186.5" font-family="Helvetica,sans-Serif" font-size="10.00"> </text>
<polyline fill="none" stroke="#666666" points="48,-179.5 125,-179.5"/>
<text text-anchor="middle" x="86.5" y="-167.5" font-family="Helvetica,sans-Serif" font-size="10.00"> </text>
</a>
</g>
</g>
<!-- Node2&#45;&gt;Node1 -->
<g id="edge1" class="edge">
<title>Node2&#45;&gt;Node1</title>
<path fill="none" stroke="#63b8ff" d="M86.5,-149.7C86.5,-141.37 86.5,-132.37 86.5,-123.42"/>
<polygon fill="none" stroke="#63b8ff" points="83,-149.57 86.5,-159.57 90,-149.57 83,-149.57"/>
</g>
</g>
</svg>
