<?xml version="1.0" encoding="UTF-8" standalone="no"?>
<!DOCTYPE svg PUBLIC "-//W3C//DTD SVG 1.1//EN"
 "http://www.w3.org/Graphics/SVG/1.1/DTD/svg11.dtd">
<!-- Generated by graphviz version 8.0.1 (20230327.1645)
 -->
<!-- Title: std::math::concepts::dynamic_tensor_data&lt; T &gt; Pages: 1 -->
<svg width="153pt" height="237pt"
 viewBox="0.00 0.00 153.00 237.00" xmlns="http://www.w3.org/2000/svg" xmlns:xlink="http://www.w3.org/1999/xlink">
<g id="graph0" class="graph" transform="scale(1 1) rotate(0) translate(4 233)">
<title>std::math::concepts::dynamic_tensor_data&lt; T &gt;</title>
<!-- Node1 -->
<g id="node1" class="node">
<title>Node1</title>
<g id="a_node1"><a xlink:title=" ">
<polygon fill="#999999" stroke="#666666" points="2.5,-0.5 2.5,-68.5 142.5,-68.5 142.5,-0.5 2.5,-0.5"/>
<text text-anchor="start" x="10.5" y="-56.5" font-family="Helvetica,sans-Serif" font-size="10.00">std::math::concepts</text>
<text text-anchor="middle" x="72.5" y="-45.5" font-family="Helvetica,sans-Serif" font-size="10.00">::dynamic_tensor_data&lt; T &gt;</text>
<polyline fill="none" stroke="#666666" points="2.5,-38.5 142.5,-38.5"/>
<text text-anchor="middle" x="72.5" y="-26.5" font-family="Helvetica,sans-Serif" font-size="10.00"> </text>
<polyline fill="none" stroke="#666666" points="2.5,-19.5 142.5,-19.5"/>
<text text-anchor="middle" x="72.5" y="-7.5" font-family="Helvetica,sans-Serif" font-size="10.00"> </text>
</a>
</g>
</g>
<!-- Node2 -->
<g id="node2" class="node">
<title>Node2</title>
<g id="a_node2"><a xlink:title=" ">
<polygon fill="white" stroke="#666666" points="0,-105.5 0,-228.5 145,-228.5 145,-105.5 0,-105.5"/>
<text text-anchor="start" x="8" y="-216.5" font-family="Helvetica,sans-Serif" font-size="10.00">std::conditional_t</text>
<text text-anchor="start" x="8" y="-205.5" font-family="Helvetica,sans-Serif" font-size="10.00">&lt; tensor_data_v&lt; T &gt;</text>
<text text-anchor="start" x="8" y="-194.5" font-family="Helvetica,sans-Serif" font-size="10.00"> &amp;&amp;has_allocator_type</text>
<text text-anchor="start" x="8" y="-183.5" font-family="Helvetica,sans-Serif" font-size="10.00">_v&lt; T &gt; &amp;&amp;has_resize_func</text>
<text text-anchor="start" x="8" y="-172.5" font-family="Helvetica,sans-Serif" font-size="10.00">_v&lt; T &gt; &amp;&amp;has_reserve_func</text>
<text text-anchor="start" x="8" y="-161.5" font-family="Helvetica,sans-Serif" font-size="10.00">_v&lt; T &gt;, ::std::true_type,</text>
<text text-anchor="middle" x="72.5" y="-150.5" font-family="Helvetica,sans-Serif" font-size="10.00"> ::std::false_type &gt;</text>
<polyline fill="none" stroke="#666666" points="0,-143.5 145,-143.5"/>
<text text-anchor="middle" x="72.5" y="-131.5" font-family="Helvetica,sans-Serif" font-size="10.00"> </text>
<polyline fill="none" stroke="#666666" points="0,-124.5 145,-124.5"/>
<text text-anchor="middle" x="72.5" y="-112.5" font-family="Helvetica,sans-Serif" font-size="10.00"> </text>
</a>
</g>
</g>
<!-- Node2&#45;&gt;Node1 -->
<g id="edge1" class="edge">
<title>Node2&#45;&gt;Node1</title>
<path fill="none" stroke="#63b8ff" d="M72.5,-94.88C72.5,-85.67 72.5,-76.62 72.5,-68.47"/>
<polygon fill="none" stroke="#63b8ff" points="69,-94.72 72.5,-104.72 76,-94.72 69,-94.72"/>
</g>
</g>
</svg>
