<?xml version="1.0" encoding="UTF-8" standalone="no"?>
<!DOCTYPE svg PUBLIC "-//W3C//DTD SVG 1.1//EN"
 "http://www.w3.org/Graphics/SVG/1.1/DTD/svg11.dtd">
<!-- Generated by graphviz version 8.0.1 (20230327.1645)
 -->
<!-- Title: std::math::concepts::has_const_underlying_span_type&lt; T, class &gt; Pages: 1 -->
<svg width="127pt" height="182pt"
 viewBox="0.00 0.00 127.00 182.00" xmlns="http://www.w3.org/2000/svg" xmlns:xlink="http://www.w3.org/1999/xlink">
<g id="graph0" class="graph" transform="scale(1 1) rotate(0) translate(4 178)">
<title>std::math::concepts::has_const_underlying_span_type&lt; T, class &gt;</title>
<!-- Node1 -->
<g id="node1" class="node">
<title>Node1</title>
<g id="a_node1"><a xlink:title=" ">
<polygon fill="#999999" stroke="#666666" points="0,-0.5 0,-79.5 119,-79.5 119,-0.5 0,-0.5"/>
<text text-anchor="start" x="8" y="-67.5" font-family="Helvetica,sans-Serif" font-size="10.00">std::math::concepts</text>
<text text-anchor="start" x="8" y="-56.5" font-family="Helvetica,sans-Serif" font-size="10.00">::has_const_underlying</text>
<text text-anchor="middle" x="59.5" y="-45.5" font-family="Helvetica,sans-Serif" font-size="10.00">_span_type&lt; T, class &gt;</text>
<polyline fill="none" stroke="#666666" points="0,-38.5 119,-38.5"/>
<text text-anchor="middle" x="59.5" y="-26.5" font-family="Helvetica,sans-Serif" font-size="10.00"> </text>
<polyline fill="none" stroke="#666666" points="0,-19.5 119,-19.5"/>
<text text-anchor="middle" x="59.5" y="-7.5" font-family="Helvetica,sans-Serif" font-size="10.00"> </text>
</a>
</g>
</g>
<!-- Node2 -->
<g id="node2" class="node">
<title>Node2</title>
<g id="a_node2"><a xlink:title=" ">
<polygon fill="white" stroke="#666666" points="19,-116.5 19,-173.5 100,-173.5 100,-116.5 19,-116.5"/>
<text text-anchor="middle" x="59.5" y="-161.5" font-family="Helvetica,sans-Serif" font-size="10.00">std::false_type</text>
<polyline fill="none" stroke="#666666" points="19,-154.5 100,-154.5"/>
<text text-anchor="middle" x="59.5" y="-142.5" font-family="Helvetica,sans-Serif" font-size="10.00"> </text>
<polyline fill="none" stroke="#666666" points="19,-135.5 100,-135.5"/>
<text text-anchor="middle" x="59.5" y="-123.5" font-family="Helvetica,sans-Serif" font-size="10.00"> </text>
</a>
</g>
</g>
<!-- Node2&#45;&gt;Node1 -->
<g id="edge1" class="edge">
<title>Node2&#45;&gt;Node1</title>
<path fill="none" stroke="#63b8ff" d="M59.5,-105.72C59.5,-97.1 59.5,-87.94 59.5,-79.32"/>
<polygon fill="none" stroke="#63b8ff" points="56,-105.67 59.5,-115.67 63,-105.67 56,-105.67"/>
</g>
</g>
</svg>
