<?xml version="1.0" encoding="UTF-8" standalone="no"?>
<!DOCTYPE svg PUBLIC "-//W3C//DTD SVG 1.1//EN"
 "http://www.w3.org/Graphics/SVG/1.1/DTD/svg11.dtd">
<!-- Generated by graphviz version 8.0.1 (20230327.1645)
 -->
<!-- Title: std::math::detail::is_defined&lt; T, typename make_void&lt; decltype(sizeof(T) !=0) &gt;::type &gt; Pages: 1 -->
<svg width="150pt" height="193pt"
 viewBox="0.00 0.00 150.00 193.00" xmlns="http://www.w3.org/2000/svg" xmlns:xlink="http://www.w3.org/1999/xlink">
<g id="graph0" class="graph" transform="scale(1 1) rotate(0) translate(4 189)">
<title>std::math::detail::is_defined&lt; T, typename make_void&lt; decltype(sizeof(T) !=0) &gt;::type &gt;</title>
<!-- Node1 -->
<g id="node1" class="node">
<title>Node1</title>
<g id="a_node1"><a xlink:title=" ">
<polygon fill="#999999" stroke="#666666" points="0,-0.5 0,-90.5 142,-90.5 142,-0.5 0,-0.5"/>
<text text-anchor="start" x="8" y="-78.5" font-family="Helvetica,sans-Serif" font-size="10.00">std::math::detail::</text>
<text text-anchor="start" x="8" y="-67.5" font-family="Helvetica,sans-Serif" font-size="10.00">is_defined&lt; T, typename</text>
<text text-anchor="start" x="8" y="-56.5" font-family="Helvetica,sans-Serif" font-size="10.00"> make_void&lt; decltype(sizeof</text>
<text text-anchor="middle" x="71" y="-45.5" font-family="Helvetica,sans-Serif" font-size="10.00">(T) !=0) &gt;::type &gt;</text>
<polyline fill="none" stroke="#666666" points="0,-38.5 142,-38.5"/>
<text text-anchor="middle" x="71" y="-26.5" font-family="Helvetica,sans-Serif" font-size="10.00"> </text>
<polyline fill="none" stroke="#666666" points="0,-19.5 142,-19.5"/>
<text text-anchor="middle" x="71" y="-7.5" font-family="Helvetica,sans-Serif" font-size="10.00"> </text>
</a>
</g>
</g>
<!-- Node2 -->
<g id="node2" class="node">
<title>Node2</title>
<g id="a_node2"><a xlink:title=" ">
<polygon fill="white" stroke="#666666" points="32.5,-127.5 32.5,-184.5 109.5,-184.5 109.5,-127.5 32.5,-127.5"/>
<text text-anchor="middle" x="71" y="-172.5" font-family="Helvetica,sans-Serif" font-size="10.00">std::true_type</text>
<polyline fill="none" stroke="#666666" points="32.5,-165.5 109.5,-165.5"/>
<text text-anchor="middle" x="71" y="-153.5" font-family="Helvetica,sans-Serif" font-size="10.00"> </text>
<polyline fill="none" stroke="#666666" points="32.5,-146.5 109.5,-146.5"/>
<text text-anchor="middle" x="71" y="-134.5" font-family="Helvetica,sans-Serif" font-size="10.00"> </text>
</a>
</g>
</g>
<!-- Node2&#45;&gt;Node1 -->
<g id="edge1" class="edge">
<title>Node2&#45;&gt;Node1</title>
<path fill="none" stroke="#63b8ff" d="M71,-116.79C71,-108.24 71,-99.1 71,-90.34"/>
<polygon fill="none" stroke="#63b8ff" points="67.5,-116.62 71,-126.62 74.5,-116.62 67.5,-116.62"/>
</g>
</g>
</svg>
