<?xml version="1.0" encoding="UTF-8" standalone="no"?>
<!DOCTYPE svg PUBLIC "-//W3C//DTD SVG 1.1//EN"
 "http://www.w3.org/Graphics/SVG/1.1/DTD/svg11.dtd">
<!-- Generated by graphviz version 8.0.1 (20230327.1645)
 -->
<!-- Title: std::math::concepts::writable_tensor_data&lt; T &gt; Pages: 1 -->
<svg width="167pt" height="248pt"
 viewBox="0.00 0.00 167.00 248.00" xmlns="http://www.w3.org/2000/svg" xmlns:xlink="http://www.w3.org/1999/xlink">
<g id="graph0" class="graph" transform="scale(1 1) rotate(0) translate(4 244)">
<title>std::math::concepts::writable_tensor_data&lt; T &gt;</title>
<!-- Node1 -->
<g id="node1" class="node">
<title>Node1</title>
<g id="a_node1"><a xlink:title=" ">
<polygon fill="#999999" stroke="#666666" points="11,-0.5 11,-68.5 148,-68.5 148,-0.5 11,-0.5"/>
<text text-anchor="start" x="19" y="-56.5" font-family="Helvetica,sans-Serif" font-size="10.00">std::math::concepts</text>
<text text-anchor="middle" x="79.5" y="-45.5" font-family="Helvetica,sans-Serif" font-size="10.00">::writable_tensor_data&lt; T &gt;</text>
<polyline fill="none" stroke="#666666" points="11,-38.5 148,-38.5"/>
<text text-anchor="middle" x="79.5" y="-26.5" font-family="Helvetica,sans-Serif" font-size="10.00"> </text>
<polyline fill="none" stroke="#666666" points="11,-19.5 148,-19.5"/>
<text text-anchor="middle" x="79.5" y="-7.5" font-family="Helvetica,sans-Serif" font-size="10.00"> </text>
</a>
</g>
</g>
<!-- Node2 -->
<g id="node2" class="node">
<title>Node2</title>
<g id="a_node2"><a xlink:title=" ">
<polygon fill="white" stroke="#666666" points="0,-105.5 0,-239.5 159,-239.5 159,-105.5 0,-105.5"/>
<text text-anchor="start" x="8" y="-227.5" font-family="Helvetica,sans-Serif" font-size="10.00">std::conditional_t</text>
<text text-anchor="start" x="8" y="-216.5" font-family="Helvetica,sans-Serif" font-size="10.00">&lt; readable_tensor_data</text>
<text text-anchor="start" x="8" y="-205.5" font-family="Helvetica,sans-Serif" font-size="10.00">_v&lt; T &gt; &amp;&amp;has_reference</text>
<text text-anchor="start" x="8" y="-194.5" font-family="Helvetica,sans-Serif" font-size="10.00">_v&lt; T &gt; &amp;&amp;is_const_tensor</text>
<text text-anchor="start" x="8" y="-183.5" font-family="Helvetica,sans-Serif" font-size="10.00">_v&lt; T &gt; &amp;&amp;has_underlying_span</text>
<text text-anchor="start" x="8" y="-172.5" font-family="Helvetica,sans-Serif" font-size="10.00">_type_v&lt; T &gt; &amp;&amp;has_underlying</text>
<text text-anchor="start" x="8" y="-161.5" font-family="Helvetica,sans-Serif" font-size="10.00">_span_func_v&lt; T &gt;, ::std::true</text>
<text text-anchor="middle" x="79.5" y="-150.5" font-family="Helvetica,sans-Serif" font-size="10.00">_type, ::std::false_type &gt;</text>
<polyline fill="none" stroke="#666666" points="0,-143.5 159,-143.5"/>
<text text-anchor="middle" x="79.5" y="-131.5" font-family="Helvetica,sans-Serif" font-size="10.00"> </text>
<polyline fill="none" stroke="#666666" points="0,-124.5 159,-124.5"/>
<text text-anchor="middle" x="79.5" y="-112.5" font-family="Helvetica,sans-Serif" font-size="10.00"> </text>
</a>
</g>
</g>
<!-- Node2&#45;&gt;Node1 -->
<g id="edge1" class="edge">
<title>Node2&#45;&gt;Node1</title>
<path fill="none" stroke="#63b8ff" d="M79.5,-94.9C79.5,-85.59 79.5,-76.5 79.5,-68.34"/>
<polygon fill="none" stroke="#63b8ff" points="76,-94.89 79.5,-104.89 83,-94.89 76,-94.89"/>
</g>
</g>
</svg>
