<?xml version="1.0" encoding="UTF-8" standalone="no"?>
<!DOCTYPE svg PUBLIC "-//W3C//DTD SVG 1.1//EN"
 "http://www.w3.org/Graphics/SVG/1.1/DTD/svg11.dtd">
<!-- Generated by graphviz version 8.0.1 (20230327.1645)
 -->
<!-- Title: std::math::detail::extents_is_static&lt; experimental::extents&lt; SizeType, Extents... &gt; &gt; Pages: 1 -->
<svg width="179pt" height="204pt"
 viewBox="0.00 0.00 179.00 204.00" xmlns="http://www.w3.org/2000/svg" xmlns:xlink="http://www.w3.org/1999/xlink">
<g id="graph0" class="graph" transform="scale(1 1) rotate(0) translate(4 200)">
<title>std::math::detail::extents_is_static&lt; experimental::extents&lt; SizeType, Extents... &gt; &gt;</title>
<!-- Node1 -->
<g id="node1" class="node">
<title>Node1</title>
<g id="a_node1"><a xlink:title=" ">
<polygon fill="#999999" stroke="#666666" points="0,-0.5 0,-79.5 171,-79.5 171,-0.5 0,-0.5"/>
<text text-anchor="start" x="8" y="-67.5" font-family="Helvetica,sans-Serif" font-size="10.00">std::math::detail::</text>
<text text-anchor="start" x="8" y="-56.5" font-family="Helvetica,sans-Serif" font-size="10.00">extents_is_static&lt; experimental</text>
<text text-anchor="middle" x="85.5" y="-45.5" font-family="Helvetica,sans-Serif" font-size="10.00">::extents&lt; SizeType, Extents... &gt; &gt;</text>
<polyline fill="none" stroke="#666666" points="0,-38.5 171,-38.5"/>
<text text-anchor="middle" x="85.5" y="-26.5" font-family="Helvetica,sans-Serif" font-size="10.00"> </text>
<polyline fill="none" stroke="#666666" points="0,-19.5 171,-19.5"/>
<text text-anchor="middle" x="85.5" y="-7.5" font-family="Helvetica,sans-Serif" font-size="10.00"> </text>
</a>
</g>
</g>
<!-- Node2 -->
<g id="node2" class="node">
<title>Node2</title>
<g id="a_node2"><a xlink:title=" ">
<polygon fill="white" stroke="#666666" points="21,-116.5 21,-195.5 150,-195.5 150,-116.5 21,-116.5"/>
<text text-anchor="start" x="29" y="-183.5" font-family="Helvetica,sans-Serif" font-size="10.00">conditional_t&lt;((Extents</text>
<text text-anchor="start" x="29" y="-172.5" font-family="Helvetica,sans-Serif" font-size="10.00"> !=dynamic_extent) &amp;&amp;...)</text>
<text text-anchor="middle" x="85.5" y="-161.5" font-family="Helvetica,sans-Serif" font-size="10.00">, true_type, false_type &gt;</text>
<polyline fill="none" stroke="#666666" points="21,-154.5 150,-154.5"/>
<text text-anchor="middle" x="85.5" y="-142.5" font-family="Helvetica,sans-Serif" font-size="10.00"> </text>
<polyline fill="none" stroke="#666666" points="21,-135.5 150,-135.5"/>
<text text-anchor="middle" x="85.5" y="-123.5" font-family="Helvetica,sans-Serif" font-size="10.00"> </text>
</a>
</g>
</g>
<!-- Node2&#45;&gt;Node1 -->
<g id="edge1" class="edge">
<title>Node2&#45;&gt;Node1</title>
<path fill="none" stroke="#63b8ff" d="M85.5,-105.74C85.5,-96.91 85.5,-87.83 85.5,-79.37"/>
<polygon fill="none" stroke="#63b8ff" points="82,-105.72 85.5,-115.72 89,-105.72 82,-105.72"/>
</g>
</g>
</svg>
