<?xml version="1.0" encoding="UTF-8" standalone="no"?>
<!DOCTYPE svg PUBLIC "-//W3C//DTD SVG 1.1//EN"
 "http://www.w3.org/Graphics/SVG/1.1/DTD/svg11.dtd">
<!-- Generated by graphviz version 8.0.1 (20230327.1645)
 -->
<!-- Title: std::math::detail::has_index_operator&lt; Lambda, IndexType, Indices &gt; Pages: 1 -->
<svg width="257pt" height="460pt"
 viewBox="0.00 0.00 257.00 460.00" xmlns="http://www.w3.org/2000/svg" xmlns:xlink="http://www.w3.org/1999/xlink">
<g id="graph0" class="graph" transform="scale(1 1) rotate(0) translate(4 456)">
<title>std::math::detail::has_index_operator&lt; Lambda, IndexType, Indices &gt;</title>
<!-- Node1 -->
<g id="node1" class="node">
<title>Node1</title>
<g id="a_node1"><a xlink:title=" ">
<polygon fill="#999999" stroke="#666666" points="0,-0.5 0,-79.5 152,-79.5 152,-0.5 0,-0.5"/>
<text text-anchor="start" x="8" y="-67.5" font-family="Helvetica,sans-Serif" font-size="10.00">std::math::detail::</text>
<text text-anchor="start" x="8" y="-56.5" font-family="Helvetica,sans-Serif" font-size="10.00">has_index_operator&lt;</text>
<text text-anchor="middle" x="76" y="-45.5" font-family="Helvetica,sans-Serif" font-size="10.00"> Lambda, IndexType, Indices &gt;</text>
<polyline fill="none" stroke="#666666" points="0,-38.5 152,-38.5"/>
<text text-anchor="middle" x="76" y="-26.5" font-family="Helvetica,sans-Serif" font-size="10.00"> </text>
<polyline fill="none" stroke="#666666" points="0,-19.5 152,-19.5"/>
<text text-anchor="middle" x="76" y="-7.5" font-family="Helvetica,sans-Serif" font-size="10.00"> </text>
</a>
</g>
</g>
<!-- Node2 -->
<g id="node2" class="node">
<title>Node2</title>
<g id="a_node2"><a xlink:href="structstd_1_1math_1_1detail_1_1has__index__operator__impl.html" target="_top" xlink:title=" ">
<polygon fill="white" stroke="#666666" points="7,-117.5 7,-207.5 145,-207.5 145,-117.5 7,-117.5"/>
<text text-anchor="start" x="15" y="-195.5" font-family="Helvetica,sans-Serif" font-size="10.00">std::math::detail::</text>
<text text-anchor="start" x="15" y="-184.5" font-family="Helvetica,sans-Serif" font-size="10.00">has_index_operator_impl</text>
<text text-anchor="start" x="15" y="-173.5" font-family="Helvetica,sans-Serif" font-size="10.00">&lt; Lambda, void, IndexType,</text>
<text text-anchor="middle" x="76" y="-162.5" font-family="Helvetica,sans-Serif" font-size="10.00"> Indices ... &gt;</text>
<polyline fill="none" stroke="#666666" points="7,-155.5 145,-155.5"/>
<text text-anchor="middle" x="76" y="-143.5" font-family="Helvetica,sans-Serif" font-size="10.00"> </text>
<polyline fill="none" stroke="#666666" points="7,-136.5 145,-136.5"/>
<text text-anchor="middle" x="76" y="-124.5" font-family="Helvetica,sans-Serif" font-size="10.00"> </text>
</a>
</g>
</g>
<!-- Node2&#45;&gt;Node1 -->
<g id="edge1" class="edge">
<title>Node2&#45;&gt;Node1</title>
<path fill="none" stroke="#63b8ff" d="M76,-106.91C76,-97.63 76,-88.18 76,-79.43"/>
<polygon fill="none" stroke="#63b8ff" points="72.5,-106.66 76,-116.66 79.5,-106.66 72.5,-106.66"/>
</g>
<!-- Node3 -->
<g id="node3" class="node">
<title>Node3</title>
<g id="a_node3"><a xlink:title=" ">
<polygon fill="white" stroke="#666666" points="31.5,-394.5 31.5,-451.5 112.5,-451.5 112.5,-394.5 31.5,-394.5"/>
<text text-anchor="middle" x="72" y="-439.5" font-family="Helvetica,sans-Serif" font-size="10.00">std::false_type</text>
<polyline fill="none" stroke="#666666" points="31.5,-432.5 112.5,-432.5"/>
<text text-anchor="middle" x="72" y="-420.5" font-family="Helvetica,sans-Serif" font-size="10.00"> </text>
<polyline fill="none" stroke="#666666" points="31.5,-413.5 112.5,-413.5"/>
<text text-anchor="middle" x="72" y="-401.5" font-family="Helvetica,sans-Serif" font-size="10.00"> </text>
</a>
</g>
</g>
<!-- Node3&#45;&gt;Node2 -->
<g id="edge2" class="edge">
<title>Node3&#45;&gt;Node2</title>
<path fill="none" stroke="#63b8ff" d="M72.59,-383.9C73.32,-336.87 74.55,-257.05 75.32,-207.47"/>
<polygon fill="none" stroke="#63b8ff" points="69.08,-383.77 72.42,-393.82 76.07,-383.88 69.08,-383.77"/>
</g>
<!-- Node4 -->
<g id="node4" class="node">
<title>Node4</title>
<g id="a_node4"><a xlink:href="structstd_1_1math_1_1detail_1_1has__index__operator__impl.html" target="_top" xlink:title=" ">
<polygon fill="white" stroke="#666666" points="88,-266.5 88,-356.5 238,-356.5 238,-266.5 88,-266.5"/>
<text text-anchor="start" x="96" y="-344.5" font-family="Helvetica,sans-Serif" font-size="10.00">std::math::detail::</text>
<text text-anchor="start" x="96" y="-333.5" font-family="Helvetica,sans-Serif" font-size="10.00">has_index_operator_impl</text>
<text text-anchor="start" x="96" y="-322.5" font-family="Helvetica,sans-Serif" font-size="10.00">&lt; Lambda, Enable, IndexType,</text>
<text text-anchor="middle" x="163" y="-311.5" font-family="Helvetica,sans-Serif" font-size="10.00"> Indices &gt;</text>
<polyline fill="none" stroke="#666666" points="88,-304.5 238,-304.5"/>
<text text-anchor="middle" x="163" y="-292.5" font-family="Helvetica,sans-Serif" font-size="10.00"> </text>
<polyline fill="none" stroke="#666666" points="88,-285.5 238,-285.5"/>
<text text-anchor="middle" x="163" y="-273.5" font-family="Helvetica,sans-Serif" font-size="10.00"> </text>
</a>
</g>
</g>
<!-- Node3&#45;&gt;Node4 -->
<g id="edge4" class="edge">
<title>Node3&#45;&gt;Node4</title>
<path fill="none" stroke="#63b8ff" d="M101.57,-386.42C109.61,-376.75 118.41,-366.16 126.77,-356.1"/>
<polygon fill="none" stroke="#63b8ff" points="98.43,-383.72 94.73,-393.65 103.81,-388.2 98.43,-383.72"/>
</g>
<!-- Node4&#45;&gt;Node2 -->
<g id="edge3" class="edge">
<title>Node4&#45;&gt;Node2</title>
<path fill="none" stroke="orange" d="M131.8,-257.78C122,-241.23 111.3,-223.15 101.92,-207.29"/>
<polygon fill="orange" stroke="orange" points="129.03,-258.97 137.13,-265.79 135.05,-255.4 129.03,-258.97"/>
<text text-anchor="start" x="124" y="-240" font-family="Helvetica,sans-Serif" font-size="10.00"> &lt; Lambda, void, IndexType,</text>
<text text-anchor="middle" x="186.5" y="-229" font-family="Helvetica,sans-Serif" font-size="10.00"> Indices ... &gt;</text>
</g>
</g>
</svg>
