<?xml version="1.0" encoding="UTF-8" standalone="no"?>
<!DOCTYPE svg PUBLIC "-//W3C//DTD SVG 1.1//EN"
 "http://www.w3.org/Graphics/SVG/1.1/DTD/svg11.dtd">
<!-- Generated by graphviz version 8.0.1 (20230327.1645)
 -->
<!-- Title: std::math::detail::has_index_operator_impl&lt; Lambda, Enable, IndexType, Indices &gt; Pages: 1 -->
<!--zoomable 460 -->
<svg id="main" version="1.1" xmlns="http://www.w3.org/2000/svg" xmlns:xlink="http://www.w3.org/1999/xlink" xml:space="preserve" onload="init(evt)">
<style type="text/css"><![CDATA[
.edge:hover path { stroke: red; }
.edge:hover polygon { stroke: red; fill: red; }
]]></style>
<script type="text/javascript"><![CDATA[
var edges = document.getElementsByTagName('g');
if (edges && edges.length) {
  for (var i=0;i<edges.length;i++) {
    if (edges[i].id.substr(0,4)=='edge') {
      edges[i].setAttribute('class','edge');
    }
  }
}
]]></script>
        <defs>
                <circle id="rim" cx="0" cy="0" r="7"/>
                <circle id="rim2" cx="0" cy="0" r="3.5"/>
                <g id="zoomPlus">
                        <use xlink:href="#rim" fill="#404040">
                                <set attributeName="fill" to="#808080" begin="zoomplus.mouseover" end="zoomplus.mouseout"/>
                        </use>
                        <path d="M-4,0h8M0,-4v8" fill="none" stroke="white" stroke-width="1.5" pointer-events="none"/>
                </g>
                <g id="zoomMin">
                        <use xlink:href="#rim" fill="#404040">
                                <set attributeName="fill" to="#808080" begin="zoomminus.mouseover" end="zoomminus.mouseout"/>
                        </use>
                        <path d="M-4,0h8" fill="none" stroke="white" stroke-width="1.5" pointer-events="none"/>
                </g>
                <g id="dirArrow">
                        <path fill="none" stroke="white" stroke-width="1.5" d="M0,-3.0v7 M-2.5,-0.5L0,-3.0L2.5,-0.5"/>
                </g>
               <g id="resetDef">
                       <use xlink:href="#rim2" fill="#404040">
                               <set attributeName="fill" to="#808080" begin="reset.mouseover" end="reset.mouseout"/>
                       </use>
               </g>
        </defs>

<script type="text/javascript">
var viewWidth = 209;
var viewHeight = 460;
var sectionId = 'dynsection-0';
</script>
<script xlink:href="svgpan.js"/>
<svg id="graph" class="graph">
<g id="viewport">
<title>std::math::detail::has_index_operator_impl&lt; Lambda, Enable, IndexType, Indices &gt;</title>
<!-- Node1 -->
<g id="node1" class="node">
<title>Node1</title>
<g id="a_node1"><a xlink:title=" ">
<polygon fill="#999999" stroke="#666666" points="1,-266.5 1,-356.5 151,-356.5 151,-266.5 1,-266.5"/>
<text text-anchor="start" x="9" y="-344.5" font-family="Helvetica,sans-Serif" font-size="10.00">std::math::detail::</text>
<text text-anchor="start" x="9" y="-333.5" font-family="Helvetica,sans-Serif" font-size="10.00">has_index_operator_impl</text>
<text text-anchor="start" x="9" y="-322.5" font-family="Helvetica,sans-Serif" font-size="10.00">&lt; Lambda, Enable, IndexType,</text>
<text text-anchor="middle" x="76" y="-311.5" font-family="Helvetica,sans-Serif" font-size="10.00"> Indices &gt;</text>
<polyline fill="none" stroke="#666666" points="1,-304.5 151,-304.5"/>
<text text-anchor="middle" x="76" y="-292.5" font-family="Helvetica,sans-Serif" font-size="10.00"> </text>
<polyline fill="none" stroke="#666666" points="1,-285.5 151,-285.5"/>
<text text-anchor="middle" x="76" y="-273.5" font-family="Helvetica,sans-Serif" font-size="10.00"> </text>
</a>
</g>
</g>
<!-- Node3 -->
<g id="node3" class="node">
<title>Node3</title>
<g id="a_node3"><a xlink:href="structstd_1_1math_1_1detail_1_1has__index__operator__impl.html" target="_top" xlink:title=" ">
<polygon fill="white" stroke="#666666" points="7,-117.5 7,-207.5 145,-207.5 145,-117.5 7,-117.5"/>
<text text-anchor="start" x="15" y="-195.5" font-family="Helvetica,sans-Serif" font-size="10.00">std::math::detail::</text>
<text text-anchor="start" x="15" y="-184.5" font-family="Helvetica,sans-Serif" font-size="10.00">has_index_operator_impl</text>
<text text-anchor="start" x="15" y="-173.5" font-family="Helvetica,sans-Serif" font-size="10.00">&lt; Lambda, void, IndexType,</text>
<text text-anchor="middle" x="76" y="-162.5" font-family="Helvetica,sans-Serif" font-size="10.00"> Indices ... &gt;</text>
<polyline fill="none" stroke="#666666" points="7,-155.5 145,-155.5"/>
<text text-anchor="middle" x="76" y="-143.5" font-family="Helvetica,sans-Serif" font-size="10.00"> </text>
<polyline fill="none" stroke="#666666" points="7,-136.5 145,-136.5"/>
<text text-anchor="middle" x="76" y="-124.5" font-family="Helvetica,sans-Serif" font-size="10.00"> </text>
</a>
</g>
</g>
<!-- Node1&#45;&gt;Node3 -->
<g id="edge2" class="edge">
<title>Node1&#45;&gt;Node3</title>
<path fill="none" stroke="orange" d="M76,-255.94C76,-239.9 76,-222.57 76,-207.29"/>
<polygon fill="orange" stroke="orange" points="72.5,-255.79 76,-265.79 79.5,-255.79 72.5,-255.79"/>
<text text-anchor="start" x="76" y="-240" font-family="Helvetica,sans-Serif" font-size="10.00"> &lt; Lambda, void, IndexType,</text>
<text text-anchor="middle" x="138.5" y="-229" font-family="Helvetica,sans-Serif" font-size="10.00"> Indices ... &gt;</text>
</g>
<!-- Node2 -->
<g id="node2" class="node">
<title>Node2</title>
<g id="a_node2"><a xlink:title=" ">
<polygon fill="white" stroke="#666666" points="35.5,-394.5 35.5,-451.5 116.5,-451.5 116.5,-394.5 35.5,-394.5"/>
<text text-anchor="middle" x="76" y="-439.5" font-family="Helvetica,sans-Serif" font-size="10.00">std::false_type</text>
<polyline fill="none" stroke="#666666" points="35.5,-432.5 116.5,-432.5"/>
<text text-anchor="middle" x="76" y="-420.5" font-family="Helvetica,sans-Serif" font-size="10.00"> </text>
<polyline fill="none" stroke="#666666" points="35.5,-413.5 116.5,-413.5"/>
<text text-anchor="middle" x="76" y="-401.5" font-family="Helvetica,sans-Serif" font-size="10.00"> </text>
</a>
</g>
</g>
<!-- Node2&#45;&gt;Node1 -->
<g id="edge1" class="edge">
<title>Node2&#45;&gt;Node1</title>
<path fill="none" stroke="#63b8ff" d="M76,-383.76C76,-374.83 76,-365.24 76,-356.1"/>
<polygon fill="none" stroke="#63b8ff" points="72.5,-383.65 76,-393.65 79.5,-383.65 72.5,-383.65"/>
</g>
<!-- Node4 -->
<g id="node4" class="node">
<title>Node4</title>
<g id="a_node4"><a xlink:href="structstd_1_1math_1_1detail_1_1has__index__operator.html" target="_top" xlink:title=" ">
<polygon fill="white" stroke="#666666" points="0,-0.5 0,-79.5 152,-79.5 152,-0.5 0,-0.5"/>
<text text-anchor="start" x="8" y="-67.5" font-family="Helvetica,sans-Serif" font-size="10.00">std::math::detail::</text>
<text text-anchor="start" x="8" y="-56.5" font-family="Helvetica,sans-Serif" font-size="10.00">has_index_operator&lt;</text>
<text text-anchor="middle" x="76" y="-45.5" font-family="Helvetica,sans-Serif" font-size="10.00"> Lambda, IndexType, Indices &gt;</text>
<polyline fill="none" stroke="#666666" points="0,-38.5 152,-38.5"/>
<text text-anchor="middle" x="76" y="-26.5" font-family="Helvetica,sans-Serif" font-size="10.00"> </text>
<polyline fill="none" stroke="#666666" points="0,-19.5 152,-19.5"/>
<text text-anchor="middle" x="76" y="-7.5" font-family="Helvetica,sans-Serif" font-size="10.00"> </text>
</a>
</g>
</g>
<!-- Node3&#45;&gt;Node4 -->
<g id="edge3" class="edge">
<title>Node3&#45;&gt;Node4</title>
<path fill="none" stroke="#63b8ff" d="M76,-106.91C76,-97.63 76,-88.18 76,-79.43"/>
<polygon fill="none" stroke="#63b8ff" points="72.5,-106.66 76,-116.66 79.5,-106.66 72.5,-106.66"/>
</g>
</g>
</svg>
        <g id="navigator" transform="translate(0 0)" fill="#404254">
                <rect fill="#f2f5e9" fill-opacity="0.5" stroke="#606060" stroke-width=".5" x="0" y="0" width="60" height="60"/>
                <use id="zoomplus" xlink:href="#zoomPlus" x="17" y="9" onmousedown="handleZoom(evt,'in')"/>
                <use id="zoomminus" xlink:href="#zoomMin" x="42" y="9" onmousedown="handleZoom(evt,'out')"/>
                <use id="reset" xlink:href="#resetDef" x="30" y="36" onmousedown="handleReset()"/>
                <g id="arrowUp" xlink:href="#dirArrow" transform="translate(30 24)" onmousedown="handlePan(0,-1)">
                  <use xlink:href="#rim" fill="#404040">
                        <set attributeName="fill" to="#808080" begin="arrowUp.mouseover" end="arrowUp.mouseout"/>
                  </use>
                  <path fill="none" stroke="white" stroke-width="1.5" d="M0,-3.0v7 M-2.5,-0.5L0,-3.0L2.5,-0.5"/>
                </g>
                <g id="arrowRight" xlink:href="#dirArrow" transform="rotate(90) translate(36 -43)" onmousedown="handlePan(1,0)">
                  <use xlink:href="#rim" fill="#404040">
                        <set attributeName="fill" to="#808080" begin="arrowRight.mouseover" end="arrowRight.mouseout"/>
                  </use>
                  <path fill="none" stroke="white" stroke-width="1.5" d="M0,-3.0v7 M-2.5,-0.5L0,-3.0L2.5,-0.5"/>
                </g>
                <g id="arrowDown" xlink:href="#dirArrow" transform="rotate(180) translate(-30 -48)" onmousedown="handlePan(0,1)">
                  <use xlink:href="#rim" fill="#404040">
                        <set attributeName="fill" to="#808080" begin="arrowDown.mouseover" end="arrowDown.mouseout"/>
                  </use>
                  <path fill="none" stroke="white" stroke-width="1.5" d="M0,-3.0v7 M-2.5,-0.5L0,-3.0L2.5,-0.5"/>
                </g>
                <g id="arrowLeft" xlink:href="#dirArrow" transform="rotate(270) translate(-36 17)" onmousedown="handlePan(-1,0)">
                  <use xlink:href="#rim" fill="#404040">
                        <set attributeName="fill" to="#808080" begin="arrowLeft.mouseover" end="arrowLeft.mouseout"/>
                  </use>
                  <path fill="none" stroke="white" stroke-width="1.5" d="M0,-3.0v7 M-2.5,-0.5L0,-3.0L2.5,-0.5"/>
                </g>
        </g>
        <svg viewBox="0 0 15 15" width="100%" height="30px" preserveAspectRatio="xMaxYMin meet">
         <g id="arrow_out" transform="scale(0.3 0.3)">
          <a xlink:href="structstd_1_1math_1_1detail_1_1has__index__operator__impl__inherit__graph_org.svg" target="_base">
           <rect id="button" ry="5" rx="5" y="6" x="6" height="38" width="38"
                fill="#f2f5e9" fill-opacity="0.5" stroke="#606060" stroke-width="1.0"/>
           <path id="arrow"
             d="M 11.500037,31.436501 C 11.940474,20.09759 22.043105,11.32322 32.158766,21.979434 L 37.068811,17.246167 C 37.068811,17.246167 37.088388,32 37.088388,32 L 22.160133,31.978069 C 22.160133,31.978069 26.997745,27.140456 26.997745,27.140456 C 18.528582,18.264221 13.291696,25.230495 11.500037,31.436501 z"
             style="fill:#404040;"/>
          </a>
         </g>
        </svg>
</svg>
