<?xml version="1.0" encoding="UTF-8" standalone="no"?>
<!DOCTYPE svg PUBLIC "-//W3C//DTD SVG 1.1//EN"
 "http://www.w3.org/Graphics/SVG/1.1/DTD/svg11.dtd">
<!-- Generated by graphviz version 8.0.1 (20230327.1645)
 -->
<!-- Title: std::math::concepts::constructible_from_size_and_alloc&lt; T, ::std::enable_if_t&lt; is_constructible_v&lt; T, typename T::extents_type, typename T::allocator_type &gt; &gt; &gt; Pages: 1 -->
<svg width="158pt" height="226pt"
 viewBox="0.00 0.00 158.00 226.00" xmlns="http://www.w3.org/2000/svg" xmlns:xlink="http://www.w3.org/1999/xlink">
<g id="graph0" class="graph" transform="scale(1 1) rotate(0) translate(4 222)">
<title>std::math::concepts::constructible_from_size_and_alloc&lt; T, ::std::enable_if_t&lt; is_constructible_v&lt; T, typename T::extents_type, typename T::allocator_type &gt; &gt; &gt;</title>
<!-- Node1 -->
<g id="node1" class="node">
<title>Node1</title>
<g id="a_node1"><a xlink:title=" ">
<polygon fill="#999999" stroke="#666666" points="0,-0.5 0,-123.5 150,-123.5 150,-0.5 0,-0.5"/>
<text text-anchor="start" x="8" y="-111.5" font-family="Helvetica,sans-Serif" font-size="10.00">std::math::concepts</text>
<text text-anchor="start" x="8" y="-100.5" font-family="Helvetica,sans-Serif" font-size="10.00">::constructible_from</text>
<text text-anchor="start" x="8" y="-89.5" font-family="Helvetica,sans-Serif" font-size="10.00">_size_and_alloc&lt; T, </text>
<text text-anchor="start" x="8" y="-78.5" font-family="Helvetica,sans-Serif" font-size="10.00">::std::enable_if_t&lt; is</text>
<text text-anchor="start" x="8" y="-67.5" font-family="Helvetica,sans-Serif" font-size="10.00">_constructible_v&lt; T, typename</text>
<text text-anchor="start" x="8" y="-56.5" font-family="Helvetica,sans-Serif" font-size="10.00"> T::extents_type, typename</text>
<text text-anchor="middle" x="75" y="-45.5" font-family="Helvetica,sans-Serif" font-size="10.00"> T::allocator_type &gt; &gt; &gt;</text>
<polyline fill="none" stroke="#666666" points="0,-38.5 150,-38.5"/>
<text text-anchor="middle" x="75" y="-26.5" font-family="Helvetica,sans-Serif" font-size="10.00"> </text>
<polyline fill="none" stroke="#666666" points="0,-19.5 150,-19.5"/>
<text text-anchor="middle" x="75" y="-7.5" font-family="Helvetica,sans-Serif" font-size="10.00"> </text>
</a>
</g>
</g>
<!-- Node2 -->
<g id="node2" class="node">
<title>Node2</title>
<g id="a_node2"><a xlink:title=" ">
<polygon fill="white" stroke="#666666" points="36.5,-160.5 36.5,-217.5 113.5,-217.5 113.5,-160.5 36.5,-160.5"/>
<text text-anchor="middle" x="75" y="-205.5" font-family="Helvetica,sans-Serif" font-size="10.00">std::true_type</text>
<polyline fill="none" stroke="#666666" points="36.5,-198.5 113.5,-198.5"/>
<text text-anchor="middle" x="75" y="-186.5" font-family="Helvetica,sans-Serif" font-size="10.00"> </text>
<polyline fill="none" stroke="#666666" points="36.5,-179.5 113.5,-179.5"/>
<text text-anchor="middle" x="75" y="-167.5" font-family="Helvetica,sans-Serif" font-size="10.00"> </text>
</a>
</g>
</g>
<!-- Node2&#45;&gt;Node1 -->
<g id="edge1" class="edge">
<title>Node2&#45;&gt;Node1</title>
<path fill="none" stroke="#63b8ff" d="M75,-149.7C75,-141.37 75,-132.37 75,-123.42"/>
<polygon fill="none" stroke="#63b8ff" points="71.5,-149.57 75,-159.57 78.5,-149.57 71.5,-149.57"/>
</g>
</g>
</svg>
