<?xml version="1.0" encoding="UTF-8" standalone="no"?>
<!DOCTYPE svg PUBLIC "-//W3C//DTD SVG 1.1//EN"
 "http://www.w3.org/Graphics/SVG/1.1/DTD/svg11.dtd">
<!-- Generated by graphviz version 2.43.0 (0)
 -->
<!-- Title: std::math::detail::extents_is_equal&lt; T, U &gt; Pages: 1 -->
<svg width="187pt" height="215pt"
 viewBox="0.00 0.00 187.00 215.00" xmlns="http://www.w3.org/2000/svg" xmlns:xlink="http://www.w3.org/1999/xlink">
<g id="graph0" class="graph" transform="scale(1 1) rotate(0) translate(4 211)">
<title>std::math::detail::extents_is_equal&lt; T, U &gt;</title>
<polygon fill="white" stroke="transparent" points="-4,4 -4,-211 183,-211 183,4 -4,4"/>
<!-- Node1 -->
<g id="node1" class="node">
<title>Node1</title>
<g id="a_node1"><a xlink:title=" ">
<polygon fill="#bfbfbf" stroke="black" points="19,-0.5 19,-68.5 160,-68.5 160,-0.5 19,-0.5"/>
<text text-anchor="start" x="27" y="-56.5" font-family="Helvetica,sans-Serif" font-size="10.00">std::math::detail::</text>
<text text-anchor="middle" x="89.5" y="-45.5" font-family="Helvetica,sans-Serif" font-size="10.00">extents_is_equal&lt; T, U &gt;</text>
<polyline fill="none" stroke="black" points="19,-38.5 160,-38.5 "/>
<text text-anchor="middle" x="89.5" y="-26.5" font-family="Helvetica,sans-Serif" font-size="10.00"> </text>
<polyline fill="none" stroke="black" points="19,-19.5 160,-19.5 "/>
<text text-anchor="middle" x="89.5" y="-7.5" font-family="Helvetica,sans-Serif" font-size="10.00"> </text>
</a>
</g>
</g>
<!-- Node2 -->
<g id="node2" class="node">
<title>Node2</title>
<g id="a_node2"><a xlink:title=" ">
<polygon fill="white" stroke="#bfbfbf" points="0,-105.5 0,-206.5 179,-206.5 179,-105.5 0,-105.5"/>
<text text-anchor="start" x="8" y="-194.5" font-family="Helvetica,sans-Serif" font-size="10.00">conditional_t&lt; extents</text>
<text text-anchor="start" x="8" y="-183.5" font-family="Helvetica,sans-Serif" font-size="10.00">_may_be_equal_v&lt; T, U</text>
<text text-anchor="start" x="8" y="-172.5" font-family="Helvetica,sans-Serif" font-size="10.00"> &gt; &amp;&amp;extents_is_static</text>
<text text-anchor="start" x="8" y="-161.5" font-family="Helvetica,sans-Serif" font-size="10.00">_v&lt; T &gt; &amp;&amp;extents_is_static</text>
<text text-anchor="middle" x="89.5" y="-150.5" font-family="Helvetica,sans-Serif" font-size="10.00">_v&lt; U &gt;, true_type, false_type &gt;</text>
<polyline fill="none" stroke="#bfbfbf" points="0,-143.5 179,-143.5 "/>
<text text-anchor="middle" x="89.5" y="-131.5" font-family="Helvetica,sans-Serif" font-size="10.00"> </text>
<polyline fill="none" stroke="#bfbfbf" points="0,-124.5 179,-124.5 "/>
<text text-anchor="middle" x="89.5" y="-112.5" font-family="Helvetica,sans-Serif" font-size="10.00"> </text>
</a>
</g>
</g>
<!-- Node2&#45;&gt;Node1 -->
<g id="edge1" class="edge">
<title>Node2&#45;&gt;Node1</title>
<path fill="none" stroke="midnightblue" d="M89.5,-95.17C89.5,-86.11 89.5,-77.05 89.5,-68.83"/>
<polygon fill="none" stroke="midnightblue" points="86,-95.36 89.5,-105.36 93,-95.36 86,-95.36"/>
</g>
</g>
</svg>
