<?xml version="1.0" encoding="UTF-8" standalone="no"?>
<!DOCTYPE svg PUBLIC "-//W3C//DTD SVG 1.1//EN"
 "http://www.w3.org/Graphics/SVG/1.1/DTD/svg11.dtd">
<!-- Generated by graphviz version 8.0.1 (20230327.1645)
 -->
<!-- Title: std::math::concepts::has_row_func&lt; T, class &gt; Pages: 1 -->
<svg width="143pt" height="171pt"
 viewBox="0.00 0.00 143.00 171.00" xmlns="http://www.w3.org/2000/svg" xmlns:xlink="http://www.w3.org/1999/xlink">
<g id="graph0" class="graph" transform="scale(1 1) rotate(0) translate(4 167)">
<title>std::math::concepts::has_row_func&lt; T, class &gt;</title>
<!-- Node1 -->
<g id="node1" class="node">
<title>Node1</title>
<g id="a_node1"><a xlink:title=" ">
<polygon fill="#999999" stroke="#666666" points="0,-0.5 0,-68.5 135,-68.5 135,-0.5 0,-0.5"/>
<text text-anchor="start" x="8" y="-56.5" font-family="Helvetica,sans-Serif" font-size="10.00">std::math::concepts</text>
<text text-anchor="middle" x="67.5" y="-45.5" font-family="Helvetica,sans-Serif" font-size="10.00">::has_row_func&lt; T, class &gt;</text>
<polyline fill="none" stroke="#666666" points="0,-38.5 135,-38.5"/>
<text text-anchor="middle" x="67.5" y="-26.5" font-family="Helvetica,sans-Serif" font-size="10.00"> </text>
<polyline fill="none" stroke="#666666" points="0,-19.5 135,-19.5"/>
<text text-anchor="middle" x="67.5" y="-7.5" font-family="Helvetica,sans-Serif" font-size="10.00"> </text>
</a>
</g>
</g>
<!-- Node2 -->
<g id="node2" class="node">
<title>Node2</title>
<g id="a_node2"><a xlink:title=" ">
<polygon fill="white" stroke="#666666" points="27,-105.5 27,-162.5 108,-162.5 108,-105.5 27,-105.5"/>
<text text-anchor="middle" x="67.5" y="-150.5" font-family="Helvetica,sans-Serif" font-size="10.00">std::false_type</text>
<polyline fill="none" stroke="#666666" points="27,-143.5 108,-143.5"/>
<text text-anchor="middle" x="67.5" y="-131.5" font-family="Helvetica,sans-Serif" font-size="10.00"> </text>
<polyline fill="none" stroke="#666666" points="27,-124.5 108,-124.5"/>
<text text-anchor="middle" x="67.5" y="-112.5" font-family="Helvetica,sans-Serif" font-size="10.00"> </text>
</a>
</g>
</g>
<!-- Node2&#45;&gt;Node1 -->
<g id="edge1" class="edge">
<title>Node2&#45;&gt;Node1</title>
<path fill="none" stroke="#63b8ff" d="M67.5,-94.81C67.5,-86.03 67.5,-76.77 67.5,-68.24"/>
<polygon fill="none" stroke="#63b8ff" points="64,-94.58 67.5,-104.58 71,-94.58 64,-94.58"/>
</g>
</g>
</svg>
