<?xml version="1.0" encoding="UTF-8" standalone="no"?>
<!DOCTYPE svg PUBLIC "-//W3C//DTD SVG 1.1//EN"
 "http://www.w3.org/Graphics/SVG/1.1/DTD/svg11.dtd">
<!-- Generated by graphviz version 8.0.1 (20230327.1645)
 -->
<!-- Title: std::math::detail::nondynamic_rank&lt; E&lt; T, Extents... &gt; &gt; Pages: 1 -->
<svg width="157pt" height="215pt"
 viewBox="0.00 0.00 157.00 215.00" xmlns="http://www.w3.org/2000/svg" xmlns:xlink="http://www.w3.org/1999/xlink">
<g id="graph0" class="graph" transform="scale(1 1) rotate(0) translate(4 211)">
<title>std::math::detail::nondynamic_rank&lt; E&lt; T, Extents... &gt; &gt;</title>
<!-- Node1 -->
<g id="node1" class="node">
<title>Node1</title>
<g id="a_node1"><a xlink:title=" ">
<polygon fill="#999999" stroke="#666666" points="17,-0.5 17,-79.5 132,-79.5 132,-0.5 17,-0.5"/>
<text text-anchor="start" x="25" y="-67.5" font-family="Helvetica,sans-Serif" font-size="10.00">std::math::detail::</text>
<text text-anchor="start" x="25" y="-56.5" font-family="Helvetica,sans-Serif" font-size="10.00">nondynamic_rank&lt; E&lt;</text>
<text text-anchor="middle" x="74.5" y="-45.5" font-family="Helvetica,sans-Serif" font-size="10.00"> T, Extents... &gt; &gt;</text>
<polyline fill="none" stroke="#666666" points="17,-38.5 132,-38.5"/>
<text text-anchor="middle" x="74.5" y="-26.5" font-family="Helvetica,sans-Serif" font-size="10.00"> </text>
<polyline fill="none" stroke="#666666" points="17,-19.5 132,-19.5"/>
<text text-anchor="middle" x="74.5" y="-7.5" font-family="Helvetica,sans-Serif" font-size="10.00"> </text>
</a>
</g>
</g>
<!-- Node2 -->
<g id="node2" class="node">
<title>Node2</title>
<g id="a_node2"><a xlink:title=" ">
<polygon fill="white" stroke="#666666" points="0,-116.5 0,-206.5 149,-206.5 149,-116.5 0,-116.5"/>
<text text-anchor="start" x="8" y="-194.5" font-family="Helvetica,sans-Serif" font-size="10.00">integral_constant&lt;</text>
<text text-anchor="start" x="8" y="-183.5" font-family="Helvetica,sans-Serif" font-size="10.00"> size_t,(((Extents &gt;</text>
<text text-anchor="start" x="8" y="-172.5" font-family="Helvetica,sans-Serif" font-size="10.00"> 1) &amp;&amp;(Extents !=experimental</text>
<text text-anchor="middle" x="74.5" y="-161.5" font-family="Helvetica,sans-Serif" font-size="10.00">::dynamic_extent))+...) &gt;</text>
<polyline fill="none" stroke="#666666" points="0,-154.5 149,-154.5"/>
<text text-anchor="middle" x="74.5" y="-142.5" font-family="Helvetica,sans-Serif" font-size="10.00"> </text>
<polyline fill="none" stroke="#666666" points="0,-135.5 149,-135.5"/>
<text text-anchor="middle" x="74.5" y="-123.5" font-family="Helvetica,sans-Serif" font-size="10.00"> </text>
</a>
</g>
</g>
<!-- Node2&#45;&gt;Node1 -->
<g id="edge1" class="edge">
<title>Node2&#45;&gt;Node1</title>
<path fill="none" stroke="#63b8ff" d="M74.5,-105.87C74.5,-96.89 74.5,-87.76 74.5,-79.29"/>
<polygon fill="none" stroke="#63b8ff" points="71,-105.68 74.5,-115.68 78,-105.68 71,-105.68"/>
</g>
</g>
</svg>
