<?xml version="1.0" encoding="UTF-8" standalone="no"?>
<!DOCTYPE svg PUBLIC "-//W3C//DTD SVG 1.1//EN"
 "http://www.w3.org/Graphics/SVG/1.1/DTD/svg11.dtd">
<!-- Generated by graphviz version 8.0.1 (20230327.1645)
 -->
<!-- Title: std::math::detail::extents_is_static&lt; ::std::experimental::extents&lt; SizeType, Extents... &gt; &gt; Pages: 1 -->
<svg width="173pt" height="226pt"
 viewBox="0.00 0.00 173.00 226.00" xmlns="http://www.w3.org/2000/svg" xmlns:xlink="http://www.w3.org/1999/xlink">
<g id="graph0" class="graph" transform="scale(1 1) rotate(0) translate(4 222)">
<title>std::math::detail::extents_is_static&lt; ::std::experimental::extents&lt; SizeType, Extents... &gt; &gt;</title>
<!-- Node1 -->
<g id="node1" class="node">
<title>Node1</title>
<g id="a_node1"><a xlink:title=" ">
<polygon fill="#999999" stroke="#666666" points="0,-0.5 0,-90.5 165,-90.5 165,-0.5 0,-0.5"/>
<text text-anchor="start" x="8" y="-78.5" font-family="Helvetica,sans-Serif" font-size="10.00">std::math::detail::</text>
<text text-anchor="start" x="8" y="-67.5" font-family="Helvetica,sans-Serif" font-size="10.00">extents_is_static&lt; </text>
<text text-anchor="start" x="8" y="-56.5" font-family="Helvetica,sans-Serif" font-size="10.00">::std::experimental::</text>
<text text-anchor="middle" x="82.5" y="-45.5" font-family="Helvetica,sans-Serif" font-size="10.00">extents&lt; SizeType, Extents... &gt; &gt;</text>
<polyline fill="none" stroke="#666666" points="0,-38.5 165,-38.5"/>
<text text-anchor="middle" x="82.5" y="-26.5" font-family="Helvetica,sans-Serif" font-size="10.00"> </text>
<polyline fill="none" stroke="#666666" points="0,-19.5 165,-19.5"/>
<text text-anchor="middle" x="82.5" y="-7.5" font-family="Helvetica,sans-Serif" font-size="10.00"> </text>
</a>
</g>
</g>
<!-- Node2 -->
<g id="node2" class="node">
<title>Node2</title>
<g id="a_node2"><a xlink:title=" ">
<polygon fill="white" stroke="#666666" points="8,-127.5 8,-217.5 157,-217.5 157,-127.5 8,-127.5"/>
<text text-anchor="start" x="16" y="-205.5" font-family="Helvetica,sans-Serif" font-size="10.00">std::conditional_t</text>
<text text-anchor="start" x="16" y="-194.5" font-family="Helvetica,sans-Serif" font-size="10.00">&lt;((Extents !=dynamic</text>
<text text-anchor="start" x="16" y="-183.5" font-family="Helvetica,sans-Serif" font-size="10.00">_extent) &amp;&amp;...), ::std</text>
<text text-anchor="middle" x="82.5" y="-172.5" font-family="Helvetica,sans-Serif" font-size="10.00">::true_type, ::std::false_type &gt;</text>
<polyline fill="none" stroke="#666666" points="8,-165.5 157,-165.5"/>
<text text-anchor="middle" x="82.5" y="-153.5" font-family="Helvetica,sans-Serif" font-size="10.00"> </text>
<polyline fill="none" stroke="#666666" points="8,-146.5 157,-146.5"/>
<text text-anchor="middle" x="82.5" y="-134.5" font-family="Helvetica,sans-Serif" font-size="10.00"> </text>
</a>
</g>
</g>
<!-- Node2&#45;&gt;Node1 -->
<g id="edge1" class="edge">
<title>Node2&#45;&gt;Node1</title>
<path fill="none" stroke="#63b8ff" d="M82.5,-117.07C82.5,-108.16 82.5,-99.02 82.5,-90.41"/>
<polygon fill="none" stroke="#63b8ff" points="79,-116.78 82.5,-126.78 86,-116.78 79,-116.78"/>
</g>
</g>
</svg>
