<?xml version="1.0" encoding="UTF-8" standalone="no"?>
<!DOCTYPE svg PUBLIC "-//W3C//DTD SVG 1.1//EN"
 "http://www.w3.org/Graphics/SVG/1.1/DTD/svg11.dtd">
<!-- Generated by graphviz version 8.0.1 (20230327.1645)
 -->
<!-- Title: std::math::detail::has_index_operator_impl&lt; Lambda, Enable, IndexType, Indices &gt; Pages: 1 -->
<svg width="209pt" height="460pt"
 viewBox="0.00 0.00 209.00 460.00" xmlns="http://www.w3.org/2000/svg" xmlns:xlink="http://www.w3.org/1999/xlink">
<g id="graph0" class="graph" transform="scale(1 1) rotate(0) translate(4 456)">
<title>std::math::detail::has_index_operator_impl&lt; Lambda, Enable, IndexType, Indices &gt;</title>
<!-- Node1 -->
<g id="node1" class="node">
<title>Node1</title>
<g id="a_node1"><a xlink:title=" ">
<polygon fill="#999999" stroke="#666666" points="1,-266.5 1,-356.5 151,-356.5 151,-266.5 1,-266.5"/>
<text text-anchor="start" x="9" y="-344.5" font-family="Helvetica,sans-Serif" font-size="10.00">std::math::detail::</text>
<text text-anchor="start" x="9" y="-333.5" font-family="Helvetica,sans-Serif" font-size="10.00">has_index_operator_impl</text>
<text text-anchor="start" x="9" y="-322.5" font-family="Helvetica,sans-Serif" font-size="10.00">&lt; Lambda, Enable, IndexType,</text>
<text text-anchor="middle" x="76" y="-311.5" font-family="Helvetica,sans-Serif" font-size="10.00"> Indices &gt;</text>
<polyline fill="none" stroke="#666666" points="1,-304.5 151,-304.5"/>
<text text-anchor="middle" x="76" y="-292.5" font-family="Helvetica,sans-Serif" font-size="10.00"> </text>
<polyline fill="none" stroke="#666666" points="1,-285.5 151,-285.5"/>
<text text-anchor="middle" x="76" y="-273.5" font-family="Helvetica,sans-Serif" font-size="10.00"> </text>
</a>
</g>
</g>
<!-- Node3 -->
<g id="node3" class="node">
<title>Node3</title>
<g id="a_node3"><a xlink:href="structstd_1_1math_1_1detail_1_1has__index__operator__impl.html" target="_top" xlink:title=" ">
<polygon fill="white" stroke="#666666" points="7,-117.5 7,-207.5 145,-207.5 145,-117.5 7,-117.5"/>
<text text-anchor="start" x="15" y="-195.5" font-family="Helvetica,sans-Serif" font-size="10.00">std::math::detail::</text>
<text text-anchor="start" x="15" y="-184.5" font-family="Helvetica,sans-Serif" font-size="10.00">has_index_operator_impl</text>
<text text-anchor="start" x="15" y="-173.5" font-family="Helvetica,sans-Serif" font-size="10.00">&lt; Lambda, void, IndexType,</text>
<text text-anchor="middle" x="76" y="-162.5" font-family="Helvetica,sans-Serif" font-size="10.00"> Indices ... &gt;</text>
<polyline fill="none" stroke="#666666" points="7,-155.5 145,-155.5"/>
<text text-anchor="middle" x="76" y="-143.5" font-family="Helvetica,sans-Serif" font-size="10.00"> </text>
<polyline fill="none" stroke="#666666" points="7,-136.5 145,-136.5"/>
<text text-anchor="middle" x="76" y="-124.5" font-family="Helvetica,sans-Serif" font-size="10.00"> </text>
</a>
</g>
</g>
<!-- Node1&#45;&gt;Node3 -->
<g id="edge2" class="edge">
<title>Node1&#45;&gt;Node3</title>
<path fill="none" stroke="orange" d="M76,-255.94C76,-239.9 76,-222.57 76,-207.29"/>
<polygon fill="orange" stroke="orange" points="72.5,-255.79 76,-265.79 79.5,-255.79 72.5,-255.79"/>
<text text-anchor="start" x="76" y="-240" font-family="Helvetica,sans-Serif" font-size="10.00"> &lt; Lambda, void, IndexType,</text>
<text text-anchor="middle" x="138.5" y="-229" font-family="Helvetica,sans-Serif" font-size="10.00"> Indices ... &gt;</text>
</g>
<!-- Node2 -->
<g id="node2" class="node">
<title>Node2</title>
<g id="a_node2"><a xlink:title=" ">
<polygon fill="white" stroke="#666666" points="35.5,-394.5 35.5,-451.5 116.5,-451.5 116.5,-394.5 35.5,-394.5"/>
<text text-anchor="middle" x="76" y="-439.5" font-family="Helvetica,sans-Serif" font-size="10.00">std::false_type</text>
<polyline fill="none" stroke="#666666" points="35.5,-432.5 116.5,-432.5"/>
<text text-anchor="middle" x="76" y="-420.5" font-family="Helvetica,sans-Serif" font-size="10.00"> </text>
<polyline fill="none" stroke="#666666" points="35.5,-413.5 116.5,-413.5"/>
<text text-anchor="middle" x="76" y="-401.5" font-family="Helvetica,sans-Serif" font-size="10.00"> </text>
</a>
</g>
</g>
<!-- Node2&#45;&gt;Node1 -->
<g id="edge1" class="edge">
<title>Node2&#45;&gt;Node1</title>
<path fill="none" stroke="#63b8ff" d="M76,-383.76C76,-374.83 76,-365.24 76,-356.1"/>
<polygon fill="none" stroke="#63b8ff" points="72.5,-383.65 76,-393.65 79.5,-383.65 72.5,-383.65"/>
</g>
<!-- Node4 -->
<g id="node4" class="node">
<title>Node4</title>
<g id="a_node4"><a xlink:href="structstd_1_1math_1_1detail_1_1has__index__operator.html" target="_top" xlink:title=" ">
<polygon fill="white" stroke="#666666" points="0,-0.5 0,-79.5 152,-79.5 152,-0.5 0,-0.5"/>
<text text-anchor="start" x="8" y="-67.5" font-family="Helvetica,sans-Serif" font-size="10.00">std::math::detail::</text>
<text text-anchor="start" x="8" y="-56.5" font-family="Helvetica,sans-Serif" font-size="10.00">has_index_operator&lt;</text>
<text text-anchor="middle" x="76" y="-45.5" font-family="Helvetica,sans-Serif" font-size="10.00"> Lambda, IndexType, Indices &gt;</text>
<polyline fill="none" stroke="#666666" points="0,-38.5 152,-38.5"/>
<text text-anchor="middle" x="76" y="-26.5" font-family="Helvetica,sans-Serif" font-size="10.00"> </text>
<polyline fill="none" stroke="#666666" points="0,-19.5 152,-19.5"/>
<text text-anchor="middle" x="76" y="-7.5" font-family="Helvetica,sans-Serif" font-size="10.00"> </text>
</a>
</g>
</g>
<!-- Node3&#45;&gt;Node4 -->
<g id="edge3" class="edge">
<title>Node3&#45;&gt;Node4</title>
<path fill="none" stroke="#63b8ff" d="M76,-106.91C76,-97.63 76,-88.18 76,-79.43"/>
<polygon fill="none" stroke="#63b8ff" points="72.5,-106.66 76,-116.66 79.5,-106.66 72.5,-106.66"/>
</g>
</g>
</svg>
