<?xml version="1.0" encoding="UTF-8" standalone="no"?>
<!DOCTYPE svg PUBLIC "-//W3C//DTD SVG 1.1//EN"
 "http://www.w3.org/Graphics/SVG/1.1/DTD/svg11.dtd">
<!-- Generated by graphviz version 8.0.1 (20230327.1645)
 -->
<!-- Title: std::math::concepts::values_are_constructible&lt; T, U, ::std::enable_if_t&lt; is_constructible_v&lt; typename T::value_type, typename U::value_type &gt; &gt; &gt; Pages: 1 -->
<svg width="174pt" height="215pt"
 viewBox="0.00 0.00 174.00 215.00" xmlns="http://www.w3.org/2000/svg" xmlns:xlink="http://www.w3.org/1999/xlink">
<g id="graph0" class="graph" transform="scale(1 1) rotate(0) translate(4 211)">
<title>std::math::concepts::values_are_constructible&lt; T, U, ::std::enable_if_t&lt; is_constructible_v&lt; typename T::value_type, typename U::value_type &gt; &gt; &gt;</title>
<!-- Node1 -->
<g id="node1" class="node">
<title>Node1</title>
<g id="a_node1"><a xlink:title=" ">
<polygon fill="#999999" stroke="#666666" points="0,-0.5 0,-112.5 166,-112.5 166,-0.5 0,-0.5"/>
<text text-anchor="start" x="8" y="-100.5" font-family="Helvetica,sans-Serif" font-size="10.00">std::math::concepts</text>
<text text-anchor="start" x="8" y="-89.5" font-family="Helvetica,sans-Serif" font-size="10.00">::values_are_constructible</text>
<text text-anchor="start" x="8" y="-78.5" font-family="Helvetica,sans-Serif" font-size="10.00">&lt; T, U, ::std::enable_if</text>
<text text-anchor="start" x="8" y="-67.5" font-family="Helvetica,sans-Serif" font-size="10.00">_t&lt; is_constructible_v&lt; typename</text>
<text text-anchor="start" x="8" y="-56.5" font-family="Helvetica,sans-Serif" font-size="10.00"> T::value_type, typename U::value</text>
<text text-anchor="middle" x="83" y="-45.5" font-family="Helvetica,sans-Serif" font-size="10.00">_type &gt; &gt; &gt;</text>
<polyline fill="none" stroke="#666666" points="0,-38.5 166,-38.5"/>
<text text-anchor="middle" x="83" y="-26.5" font-family="Helvetica,sans-Serif" font-size="10.00"> </text>
<polyline fill="none" stroke="#666666" points="0,-19.5 166,-19.5"/>
<text text-anchor="middle" x="83" y="-7.5" font-family="Helvetica,sans-Serif" font-size="10.00"> </text>
</a>
</g>
</g>
<!-- Node2 -->
<g id="node2" class="node">
<title>Node2</title>
<g id="a_node2"><a xlink:title=" ">
<polygon fill="white" stroke="#666666" points="44.5,-149.5 44.5,-206.5 121.5,-206.5 121.5,-149.5 44.5,-149.5"/>
<text text-anchor="middle" x="83" y="-194.5" font-family="Helvetica,sans-Serif" font-size="10.00">std::true_type</text>
<polyline fill="none" stroke="#666666" points="44.5,-187.5 121.5,-187.5"/>
<text text-anchor="middle" x="83" y="-175.5" font-family="Helvetica,sans-Serif" font-size="10.00"> </text>
<polyline fill="none" stroke="#666666" points="44.5,-168.5 121.5,-168.5"/>
<text text-anchor="middle" x="83" y="-156.5" font-family="Helvetica,sans-Serif" font-size="10.00"> </text>
</a>
</g>
</g>
<!-- Node2&#45;&gt;Node1 -->
<g id="edge1" class="edge">
<title>Node2&#45;&gt;Node1</title>
<path fill="none" stroke="#63b8ff" d="M83,-138.85C83,-130.34 83,-121.15 83,-112.11"/>
<polygon fill="none" stroke="#63b8ff" points="79.5,-138.58 83,-148.58 86.5,-138.58 79.5,-138.58"/>
</g>
</g>
</svg>
