<?xml version="1.0" encoding="UTF-8" standalone="no"?>
<!DOCTYPE svg PUBLIC "-//W3C//DTD SVG 1.1//EN"
 "http://www.w3.org/Graphics/SVG/1.1/DTD/svg11.dtd">
<!-- Generated by graphviz version 8.0.1 (20230327.1645)
 -->
<!-- Title: std::math::concepts::tensor&lt; T &gt; Pages: 1 -->
<svg width="178pt" height="270pt"
 viewBox="0.00 0.00 178.00 270.00" xmlns="http://www.w3.org/2000/svg" xmlns:xlink="http://www.w3.org/1999/xlink">
<g id="graph0" class="graph" transform="scale(1 1) rotate(0) translate(4 266)">
<title>std::math::concepts::tensor&lt; T &gt;</title>
<!-- Node1 -->
<g id="node1" class="node">
<title>Node1</title>
<g id="a_node1"><a xlink:title=" ">
<polygon fill="#999999" stroke="#666666" points="33,-0.5 33,-68.5 137,-68.5 137,-0.5 33,-0.5"/>
<text text-anchor="start" x="41" y="-56.5" font-family="Helvetica,sans-Serif" font-size="10.00">std::math::concepts</text>
<text text-anchor="middle" x="85" y="-45.5" font-family="Helvetica,sans-Serif" font-size="10.00">::tensor&lt; T &gt;</text>
<polyline fill="none" stroke="#666666" points="33,-38.5 137,-38.5"/>
<text text-anchor="middle" x="85" y="-26.5" font-family="Helvetica,sans-Serif" font-size="10.00"> </text>
<polyline fill="none" stroke="#666666" points="33,-19.5 137,-19.5"/>
<text text-anchor="middle" x="85" y="-7.5" font-family="Helvetica,sans-Serif" font-size="10.00"> </text>
</a>
</g>
</g>
<!-- Node2 -->
<g id="node2" class="node">
<title>Node2</title>
<g id="a_node2"><a xlink:title=" ">
<polygon fill="white" stroke="#666666" points="0,-105.5 0,-261.5 170,-261.5 170,-105.5 0,-105.5"/>
<text text-anchor="start" x="8" y="-249.5" font-family="Helvetica,sans-Serif" font-size="10.00">std::conditional_t</text>
<text text-anchor="start" x="8" y="-238.5" font-family="Helvetica,sans-Serif" font-size="10.00">&lt; tensor_data_v&lt; T &gt;</text>
<text text-anchor="start" x="8" y="-227.5" font-family="Helvetica,sans-Serif" font-size="10.00"> &amp;&amp;has_scalar_premultiply</text>
<text text-anchor="start" x="8" y="-216.5" font-family="Helvetica,sans-Serif" font-size="10.00">_func_v&lt; T &gt; &amp;&amp;has_scalar</text>
<text text-anchor="start" x="8" y="-205.5" font-family="Helvetica,sans-Serif" font-size="10.00">_postmultiply_func_v&lt; T &gt;</text>
<text text-anchor="start" x="8" y="-194.5" font-family="Helvetica,sans-Serif" font-size="10.00"> &amp;&amp;has_scalar_divide_func_v</text>
<text text-anchor="start" x="8" y="-183.5" font-family="Helvetica,sans-Serif" font-size="10.00">&lt; T &gt; &amp;&amp;has_negate_func_v&lt; T</text>
<text text-anchor="start" x="8" y="-172.5" font-family="Helvetica,sans-Serif" font-size="10.00"> &gt; &amp;&amp;has_add_func_v&lt; T &gt; &amp;&amp;has</text>
<text text-anchor="start" x="8" y="-161.5" font-family="Helvetica,sans-Serif" font-size="10.00">_subtract_func_v&lt; T &gt;, ::std::true</text>
<text text-anchor="middle" x="85" y="-150.5" font-family="Helvetica,sans-Serif" font-size="10.00">_type, ::std::false_type &gt;</text>
<polyline fill="none" stroke="#666666" points="0,-143.5 170,-143.5"/>
<text text-anchor="middle" x="85" y="-131.5" font-family="Helvetica,sans-Serif" font-size="10.00"> </text>
<polyline fill="none" stroke="#666666" points="0,-124.5 170,-124.5"/>
<text text-anchor="middle" x="85" y="-112.5" font-family="Helvetica,sans-Serif" font-size="10.00"> </text>
</a>
</g>
</g>
<!-- Node2&#45;&gt;Node1 -->
<g id="edge1" class="edge">
<title>Node2&#45;&gt;Node1</title>
<path fill="none" stroke="#63b8ff" d="M85,-94.61C85,-85.37 85,-76.46 85,-68.47"/>
<polygon fill="none" stroke="#63b8ff" points="81.5,-94.56 85,-104.56 88.5,-94.56 81.5,-94.56"/>
</g>
</g>
</svg>
