<?xml version="1.0" encoding="UTF-8" standalone="no"?>
<!DOCTYPE svg PUBLIC "-//W3C//DTD SVG 1.1//EN"
 "http://www.w3.org/Graphics/SVG/1.1/DTD/svg11.dtd">
<!-- Generated by graphviz version 8.0.1 (20230327.1645)
 -->
<!-- Title: include/experimental/linear_algebra/tensor_view.hpp Pages: 1 -->
<svg width="2876pt" height="236pt"
 viewBox="0.00 0.00 2876.00 236.00" xmlns="http://www.w3.org/2000/svg" xmlns:xlink="http://www.w3.org/1999/xlink">
<g id="graph0" class="graph" transform="scale(1 1) rotate(0) translate(4 232)">
<title>include/experimental/linear_algebra/tensor_view.hpp</title>
<!-- Node1 -->
<g id="node1" class="node">
<title>Node1</title>
<g id="a_node1"><a xlink:title=" ">
<polygon fill="#999999" stroke="#666666" points="1566,-228 1456,-228 1456,-187 1566,-187 1566,-228"/>
<text text-anchor="start" x="1464" y="-216" font-family="Helvetica,sans-Serif" font-size="10.00">include/experimental</text>
<text text-anchor="start" x="1464" y="-205" font-family="Helvetica,sans-Serif" font-size="10.00">/linear_algebra/tensor</text>
<text text-anchor="middle" x="1511" y="-194" font-family="Helvetica,sans-Serif" font-size="10.00">_view.hpp</text>
</a>
</g>
</g>
<!-- Node2 -->
<g id="node2" class="node">
<title>Node2</title>
<g id="a_node2"><a xlink:href="linear__algebra_8hpp.html" target="_top" xlink:title=" ">
<polygon fill="white" stroke="#666666" points="1560,-151 1462,-151 1462,-121 1560,-121 1560,-151"/>
<text text-anchor="start" x="1470" y="-139" font-family="Helvetica,sans-Serif" font-size="10.00">experimental/linear</text>
<text text-anchor="middle" x="1511" y="-128" font-family="Helvetica,sans-Serif" font-size="10.00">_algebra.hpp</text>
</a>
</g>
</g>
<!-- Node1&#45;&gt;Node2 -->
<g id="edge1" class="edge">
<title>Node1&#45;&gt;Node2</title>
<path fill="none" stroke="#63b8ff" d="M1504.84,-186.77C1504.2,-179.13 1504.08,-170.3 1504.48,-162.21"/>
<polygon fill="#63b8ff" stroke="#63b8ff" points="1508.03,-162.74 1505.4,-152.47 1501.06,-162.14 1508.03,-162.74"/>
</g>
<!-- Node2&#45;&gt;Node1 -->
<g id="edge26" class="edge">
<title>Node2&#45;&gt;Node1</title>
<path fill="none" stroke="#63b8ff" d="M1516.6,-151.47C1517.52,-158.59 1517.89,-167.44 1517.71,-175.95"/>
<polygon fill="#63b8ff" stroke="#63b8ff" points="1514.17,-175.6 1517.16,-185.77 1521.16,-175.96 1514.17,-175.6"/>
</g>
<!-- Node3 -->
<g id="node3" class="node">
<title>Node3</title>
<g id="a_node3"><a xlink:title=" ">
<polygon fill="#e0e0e0" stroke="#999999" points="56,-79.5 0,-79.5 0,-60.5 56,-60.5 56,-79.5"/>
<text text-anchor="middle" x="28" y="-67.5" font-family="Helvetica,sans-Serif" font-size="10.00">algorithm</text>
</a>
</g>
</g>
<!-- Node2&#45;&gt;Node3 -->
<g id="edge2" class="edge">
<title>Node2&#45;&gt;Node3</title>
<path fill="none" stroke="#63b8ff" d="M1461.81,-134.25C1224.56,-130.52 204.15,-112.94 65,-85 62.79,-84.56 60.54,-84 58.29,-83.36"/>
<polygon fill="#63b8ff" stroke="#63b8ff" points="59.6,-79.77 49,-79.93 57.38,-86.41 59.6,-79.77"/>
</g>
<!-- Node4 -->
<g id="node4" class="node">
<title>Node4</title>
<g id="a_node4"><a xlink:title=" ">
<polygon fill="#e0e0e0" stroke="#999999" points="112,-79.5 74,-79.5 74,-60.5 112,-60.5 112,-79.5"/>
<text text-anchor="middle" x="93" y="-67.5" font-family="Helvetica,sans-Serif" font-size="10.00">array</text>
</a>
</g>
</g>
<!-- Node2&#45;&gt;Node4 -->
<g id="edge3" class="edge">
<title>Node2&#45;&gt;Node4</title>
<path fill="none" stroke="#63b8ff" d="M1461.74,-134.47C1229.87,-131.8 252.83,-118.63 121,-85 120.03,-84.75 119.06,-84.47 118.09,-84.16"/>
<polygon fill="#63b8ff" stroke="#63b8ff" points="119.52,-80.55 108.94,-79.94 116.83,-87.01 119.52,-80.55"/>
</g>
<!-- Node5 -->
<g id="node5" class="node">
<title>Node5</title>
<g id="a_node5"><a xlink:title=" ">
<polygon fill="#e0e0e0" stroke="#999999" points="186,-79.5 130,-79.5 130,-60.5 186,-60.5 186,-79.5"/>
<text text-anchor="middle" x="158" y="-67.5" font-family="Helvetica,sans-Serif" font-size="10.00">concepts</text>
</a>
</g>
</g>
<!-- Node2&#45;&gt;Node5 -->
<g id="edge4" class="edge">
<title>Node2&#45;&gt;Node5</title>
<path fill="none" stroke="#63b8ff" d="M1461.8,-135.19C1253.7,-135.69 445.18,-134.35 196,-85 193.65,-84.53 191.25,-83.94 188.85,-83.27"/>
<polygon fill="#63b8ff" stroke="#63b8ff" points="190.16,-79.69 179.57,-79.91 187.99,-86.34 190.16,-79.69"/>
</g>
<!-- Node6 -->
<g id="node6" class="node">
<title>Node6</title>
<g id="a_node6"><a xlink:title=" ">
<polygon fill="#e0e0e0" stroke="#999999" points="257.5,-79.5 204.5,-79.5 204.5,-60.5 257.5,-60.5 257.5,-79.5"/>
<text text-anchor="middle" x="231" y="-67.5" font-family="Helvetica,sans-Serif" font-size="10.00">complex</text>
</a>
</g>
</g>
<!-- Node2&#45;&gt;Node6 -->
<g id="edge5" class="edge">
<title>Node2&#45;&gt;Node6</title>
<path fill="none" stroke="#63b8ff" d="M1461.74,-135.18C1260.6,-135.6 501.21,-133.83 267,-85 264.93,-84.57 262.83,-84.03 260.73,-83.42"/>
<polygon fill="#63b8ff" stroke="#63b8ff" points="262.04,-79.83 251.45,-79.91 259.78,-86.45 262.04,-79.83"/>
</g>
<!-- Node7 -->
<g id="node7" class="node">
<title>Node7</title>
<g id="a_node7"><a xlink:title=" ">
<polygon fill="#e0e0e0" stroke="#999999" points="324.5,-79.5 275.5,-79.5 275.5,-60.5 324.5,-60.5 324.5,-79.5"/>
<text text-anchor="middle" x="300" y="-67.5" font-family="Helvetica,sans-Serif" font-size="10.00">cstddef</text>
</a>
</g>
</g>
<!-- Node2&#45;&gt;Node7 -->
<g id="edge6" class="edge">
<title>Node2&#45;&gt;Node7</title>
<path fill="none" stroke="#63b8ff" d="M1461.75,-135.18C1267.47,-135.53 554.1,-133.42 334,-85 332.2,-84.6 330.37,-84.12 328.55,-83.57"/>
<polygon fill="#63b8ff" stroke="#63b8ff" points="329.92,-79.99 319.33,-79.91 327.56,-86.58 329.92,-79.99"/>
</g>
<!-- Node8 -->
<g id="node8" class="node">
<title>Node8</title>
<g id="a_node8"><a xlink:title=" ">
<polygon fill="#e0e0e0" stroke="#999999" points="401.5,-79.5 342.5,-79.5 342.5,-60.5 401.5,-60.5 401.5,-79.5"/>
<text text-anchor="middle" x="372" y="-67.5" font-family="Helvetica,sans-Serif" font-size="10.00">execution</text>
</a>
</g>
</g>
<!-- Node2&#45;&gt;Node8 -->
<g id="edge7" class="edge">
<title>Node2&#45;&gt;Node8</title>
<path fill="none" stroke="#63b8ff" d="M1461.58,-134.71C1275.37,-133.32 616.36,-125.57 411,-85 408.5,-84.51 405.94,-83.88 403.4,-83.17"/>
<polygon fill="#63b8ff" stroke="#63b8ff" points="404.72,-79.6 394.13,-79.88 402.59,-86.26 404.72,-79.6"/>
</g>
<!-- Node9 -->
<g id="node9" class="node">
<title>Node9</title>
<g id="a_node9"><a xlink:title=" ">
<polygon fill="#e0e0e0" stroke="#999999" points="478.5,-79.5 419.5,-79.5 419.5,-60.5 478.5,-60.5 478.5,-79.5"/>
<text text-anchor="middle" x="449" y="-67.5" font-family="Helvetica,sans-Serif" font-size="10.00">exception</text>
</a>
</g>
</g>
<!-- Node2&#45;&gt;Node9 -->
<g id="edge8" class="edge">
<title>Node2&#45;&gt;Node9</title>
<path fill="none" stroke="#63b8ff" d="M1461.72,-134.52C1284.18,-132.47 677.75,-122.82 488,-85 485.5,-84.5 482.94,-83.87 480.4,-83.16"/>
<polygon fill="#63b8ff" stroke="#63b8ff" points="481.72,-79.59 471.13,-79.87 479.59,-86.25 481.72,-79.59"/>
</g>
<!-- Node10 -->
<g id="node10" class="node">
<title>Node10</title>
<g id="a_node10"><a xlink:title=" ">
<polygon fill="#e0e0e0" stroke="#999999" points="555.5,-79.5 496.5,-79.5 496.5,-60.5 555.5,-60.5 555.5,-79.5"/>
<text text-anchor="middle" x="526" y="-67.5" font-family="Helvetica,sans-Serif" font-size="10.00">functional</text>
</a>
</g>
</g>
<!-- Node2&#45;&gt;Node10 -->
<g id="edge9" class="edge">
<title>Node2&#45;&gt;Node10</title>
<path fill="none" stroke="#63b8ff" d="M1461.68,-134.29C1292.89,-131.55 739.13,-120.07 565,-85 562.65,-84.53 560.25,-83.94 557.86,-83.28"/>
<polygon fill="#63b8ff" stroke="#63b8ff" points="559.14,-79.69 548.54,-80 557.01,-86.36 559.14,-79.69"/>
</g>
<!-- Node11 -->
<g id="node11" class="node">
<title>Node11</title>
<g id="a_node11"><a xlink:title=" ">
<polygon fill="#e0e0e0" stroke="#999999" points="626,-79.5 574,-79.5 574,-60.5 626,-60.5 626,-79.5"/>
<text text-anchor="middle" x="600" y="-67.5" font-family="Helvetica,sans-Serif" font-size="10.00">memory</text>
</a>
</g>
</g>
<!-- Node2&#45;&gt;Node11 -->
<g id="edge10" class="edge">
<title>Node2&#45;&gt;Node11</title>
<path fill="none" stroke="#63b8ff" d="M1461.69,-134.27C1301.12,-131.59 794.39,-120.44 635,-85 633.2,-84.6 631.37,-84.12 629.54,-83.58"/>
<polygon fill="#63b8ff" stroke="#63b8ff" points="630.86,-79.98 620.27,-80 628.56,-86.59 630.86,-79.98"/>
</g>
<!-- Node12 -->
<g id="node12" class="node">
<title>Node12</title>
<g id="a_node12"><a xlink:title=" ">
<polygon fill="#e0e0e0" stroke="#999999" points="682,-79.5 644,-79.5 644,-60.5 682,-60.5 682,-79.5"/>
<text text-anchor="middle" x="663" y="-67.5" font-family="Helvetica,sans-Serif" font-size="10.00">span</text>
</a>
</g>
</g>
<!-- Node2&#45;&gt;Node12 -->
<g id="edge11" class="edge">
<title>Node2&#45;&gt;Node12</title>
<path fill="none" stroke="#63b8ff" d="M1461.6,-134.48C1307.74,-132.48 838.71,-123.3 692,-85 690.86,-84.7 689.72,-84.36 688.57,-83.98"/>
<polygon fill="#63b8ff" stroke="#63b8ff" points="690.11,-80.42 679.53,-79.86 687.45,-86.89 690.11,-80.42"/>
</g>
<!-- Node13 -->
<g id="node13" class="node">
<title>Node13</title>
<g id="a_node13"><a xlink:title=" ">
<polygon fill="#e0e0e0" stroke="#999999" points="759.5,-79.5 700.5,-79.5 700.5,-60.5 759.5,-60.5 759.5,-79.5"/>
<text text-anchor="middle" x="730" y="-67.5" font-family="Helvetica,sans-Serif" font-size="10.00">stdexcept</text>
</a>
</g>
</g>
<!-- Node2&#45;&gt;Node13 -->
<g id="edge12" class="edge">
<title>Node2&#45;&gt;Node13</title>
<path fill="none" stroke="#63b8ff" d="M1461.62,-133.46C1317.97,-128.68 902.02,-112.79 769,-85 766.65,-84.51 764.26,-83.91 761.87,-83.24"/>
<polygon fill="#63b8ff" stroke="#63b8ff" points="763.15,-79.65 752.56,-79.94 761.01,-86.32 763.15,-79.65"/>
</g>
<!-- Node14 -->
<g id="node14" class="node">
<title>Node14</title>
<g id="a_node14"><a xlink:title=" ">
<polygon fill="#e0e0e0" stroke="#999999" points="816,-79.5 778,-79.5 778,-60.5 816,-60.5 816,-79.5"/>
<text text-anchor="middle" x="797" y="-67.5" font-family="Helvetica,sans-Serif" font-size="10.00">tuple</text>
</a>
</g>
</g>
<!-- Node2&#45;&gt;Node14 -->
<g id="edge13" class="edge">
<title>Node2&#45;&gt;Node14</title>
<path fill="none" stroke="#63b8ff" d="M1461.8,-133.89C1325.5,-130.44 945.18,-118.03 825,-85 824.06,-84.74 823.11,-84.45 822.17,-84.13"/>
<polygon fill="#63b8ff" stroke="#63b8ff" points="823.84,-80.62 813.27,-79.97 821.13,-87.07 823.84,-80.62"/>
</g>
<!-- Node15 -->
<g id="node15" class="node">
<title>Node15</title>
<g id="a_node15"><a xlink:title=" ">
<polygon fill="#e0e0e0" stroke="#999999" points="896,-79.5 834,-79.5 834,-60.5 896,-60.5 896,-79.5"/>
<text text-anchor="middle" x="865" y="-67.5" font-family="Helvetica,sans-Serif" font-size="10.00">type_traits</text>
</a>
</g>
</g>
<!-- Node2&#45;&gt;Node15 -->
<g id="edge14" class="edge">
<title>Node2&#45;&gt;Node15</title>
<path fill="none" stroke="#63b8ff" d="M1461.81,-134.53C1358.59,-132.76 1112.2,-124.37 910,-85 906.99,-84.41 903.89,-83.7 900.8,-82.91"/>
<polygon fill="#63b8ff" stroke="#63b8ff" points="902.03,-79.33 891.45,-79.98 900.12,-86.07 902.03,-79.33"/>
</g>
<!-- Node16 -->
<g id="node16" class="node">
<title>Node16</title>
<g id="a_node16"><a xlink:title=" ">
<polygon fill="#e0e0e0" stroke="#999999" points="1020,-19 910,-19 910,0 1020,0 1020,-19"/>
<text text-anchor="middle" x="965" y="-7" font-family="Helvetica,sans-Serif" font-size="10.00">experimental/mdspan</text>
</a>
</g>
</g>
<!-- Node2&#45;&gt;Node16 -->
<g id="edge15" class="edge">
<title>Node2&#45;&gt;Node16</title>
<path fill="none" stroke="#63b8ff" d="M1461.77,-134.38C1330.16,-132.22 977.72,-122.92 943,-85 928.53,-69.2 940.49,-44.33 951.64,-27.73"/>
<polygon fill="#63b8ff" stroke="#63b8ff" points="954.9,-30.19 957.92,-20.03 949.23,-26.09 954.9,-30.19"/>
</g>
<!-- Node17 -->
<g id="node17" class="node">
<title>Node17</title>
<g id="a_node17"><a xlink:href="mdspan__improvements_8hpp.html" target="_top" xlink:title=" ">
<polygon fill="white" stroke="#666666" points="1062,-85 952,-85 952,-55 1062,-55 1062,-85"/>
<text text-anchor="start" x="960" y="-73" font-family="Helvetica,sans-Serif" font-size="10.00">experimental/mdspan</text>
<text text-anchor="middle" x="1007" y="-62" font-family="Helvetica,sans-Serif" font-size="10.00">_improvements.hpp</text>
</a>
</g>
</g>
<!-- Node2&#45;&gt;Node17 -->
<g id="edge16" class="edge">
<title>Node2&#45;&gt;Node17</title>
<path fill="none" stroke="#63b8ff" d="M1461.73,-130.99C1382.2,-124.16 1220.41,-108.83 1072.85,-85.02"/>
<polygon fill="#63b8ff" stroke="#63b8ff" points="1073.68,-81.44 1063.25,-83.29 1072.55,-88.35 1073.68,-81.44"/>
</g>
<!-- Node18 -->
<g id="node18" class="node">
<title>Node18</title>
<g id="a_node18"><a xlink:href="private__support_8hpp.html" target="_top" xlink:title=" ">
<polygon fill="white" stroke="#666666" points="1189.5,-85 1080.5,-85 1080.5,-55 1189.5,-55 1189.5,-85"/>
<text text-anchor="start" x="1088.5" y="-73" font-family="Helvetica,sans-Serif" font-size="10.00">linear_algebra/private</text>
<text text-anchor="middle" x="1135" y="-62" font-family="Helvetica,sans-Serif" font-size="10.00">_support.hpp</text>
</a>
</g>
</g>
<!-- Node2&#45;&gt;Node18 -->
<g id="edge18" class="edge">
<title>Node2&#45;&gt;Node18</title>
<path fill="none" stroke="#63b8ff" d="M1461.7,-128.85C1400.76,-120.43 1294.05,-104.37 1200.98,-87.06"/>
<polygon fill="#63b8ff" stroke="#63b8ff" points="1201.75,-83.46 1191.28,-85.05 1200.46,-90.34 1201.75,-83.46"/>
</g>
<!-- Node19 -->
<g id="node19" class="node">
<title>Node19</title>
<g id="a_node19"><a xlink:href="tensor__concepts_8hpp.html" target="_top" xlink:title=" ">
<polygon fill="white" stroke="#666666" points="1314.5,-85 1207.5,-85 1207.5,-55 1314.5,-55 1314.5,-85"/>
<text text-anchor="start" x="1215.5" y="-73" font-family="Helvetica,sans-Serif" font-size="10.00">linear_algebra/tensor</text>
<text text-anchor="middle" x="1261" y="-62" font-family="Helvetica,sans-Serif" font-size="10.00">_concepts.hpp</text>
</a>
</g>
</g>
<!-- Node2&#45;&gt;Node19 -->
<g id="edge20" class="edge">
<title>Node2&#45;&gt;Node19</title>
<path fill="none" stroke="#63b8ff" d="M1461.59,-123.71C1421.57,-113.88 1365.11,-99.49 1322.24,-88.23"/>
<polygon fill="#63b8ff" stroke="#63b8ff" points="1323.21,-84.6 1312.65,-85.44 1321.43,-91.37 1323.21,-84.6"/>
</g>
<!-- Node20 -->
<g id="node20" class="node">
<title>Node20</title>
<g id="a_node20"><a xlink:href="vector__concepts_8hpp.html" target="_top" xlink:title=" ">
<polygon fill="white" stroke="#666666" points="1439.5,-85 1332.5,-85 1332.5,-55 1439.5,-55 1439.5,-85"/>
<text text-anchor="start" x="1340.5" y="-73" font-family="Helvetica,sans-Serif" font-size="10.00">linear_algebra/vector</text>
<text text-anchor="middle" x="1386" y="-62" font-family="Helvetica,sans-Serif" font-size="10.00">_concepts.hpp</text>
</a>
</g>
</g>
<!-- Node2&#45;&gt;Node20 -->
<g id="edge22" class="edge">
<title>Node2&#45;&gt;Node20</title>
<path fill="none" stroke="#63b8ff" d="M1477.21,-120.64C1458.7,-111.74 1435.99,-100.21 1417.81,-90.49"/>
<polygon fill="#63b8ff" stroke="#63b8ff" points="1419.69,-86.99 1409.22,-85.31 1416.36,-93.15 1419.69,-86.99"/>
</g>
<!-- Node21 -->
<g id="node21" class="node">
<title>Node21</title>
<g id="a_node21"><a xlink:href="matrix__concepts_8hpp.html" target="_top" xlink:title=" ">
<polygon fill="white" stroke="#666666" points="1564.5,-85 1457.5,-85 1457.5,-55 1564.5,-55 1564.5,-85"/>
<text text-anchor="start" x="1465.5" y="-73" font-family="Helvetica,sans-Serif" font-size="10.00">linear_algebra/matrix</text>
<text text-anchor="middle" x="1511" y="-62" font-family="Helvetica,sans-Serif" font-size="10.00">_concepts.hpp</text>
</a>
</g>
</g>
<!-- Node2&#45;&gt;Node21 -->
<g id="edge24" class="edge">
<title>Node2&#45;&gt;Node21</title>
<path fill="none" stroke="#63b8ff" d="M1505.28,-120.8C1504.33,-113.5 1504.04,-104.41 1504.4,-95.99"/>
<polygon fill="#63b8ff" stroke="#63b8ff" points="1507.95,-96.42 1505.29,-86.16 1500.98,-95.84 1507.95,-96.42"/>
</g>
<!-- Node22 -->
<g id="node22" class="node">
<title>Node22</title>
<g id="a_node22"><a xlink:href="vector__view_8hpp.html" target="_top" xlink:title=" ">
<polygon fill="white" stroke="#666666" points="1689.5,-85 1582.5,-85 1582.5,-55 1689.5,-55 1689.5,-85"/>
<text text-anchor="start" x="1590.5" y="-73" font-family="Helvetica,sans-Serif" font-size="10.00">linear_algebra/vector</text>
<text text-anchor="middle" x="1636" y="-62" font-family="Helvetica,sans-Serif" font-size="10.00">_view.hpp</text>
</a>
</g>
</g>
<!-- Node2&#45;&gt;Node22 -->
<g id="edge27" class="edge">
<title>Node2&#45;&gt;Node22</title>
<path fill="none" stroke="#63b8ff" d="M1533.31,-120.64C1549.77,-111.62 1572.52,-99.89 1592.48,-90.09"/>
<polygon fill="#63b8ff" stroke="#63b8ff" points="1593.84,-92.83 1601.31,-85.31 1590.78,-86.54 1593.84,-92.83"/>
</g>
<!-- Node23 -->
<g id="node23" class="node">
<title>Node23</title>
<g id="a_node23"><a xlink:href="matrix__view_8hpp.html" target="_top" xlink:title=" ">
<polygon fill="white" stroke="#666666" points="1814.5,-85 1707.5,-85 1707.5,-55 1814.5,-55 1814.5,-85"/>
<text text-anchor="start" x="1715.5" y="-73" font-family="Helvetica,sans-Serif" font-size="10.00">linear_algebra/matrix</text>
<text text-anchor="middle" x="1761" y="-62" font-family="Helvetica,sans-Serif" font-size="10.00">_view.hpp</text>
</a>
</g>
</g>
<!-- Node2&#45;&gt;Node23 -->
<g id="edge29" class="edge">
<title>Node2&#45;&gt;Node23</title>
<path fill="none" stroke="#63b8ff" d="M1560.46,-120.88C1599.54,-110.53 1654.29,-96.5 1696.75,-85.96"/>
<polygon fill="#63b8ff" stroke="#63b8ff" points="1697.39,-89.16 1706.26,-83.36 1695.71,-82.36 1697.39,-89.16"/>
</g>
<!-- Node24 -->
<g id="node24" class="node">
<title>Node24</title>
<g id="a_node24"><a xlink:href="fixed__size__tensor_8hpp.html" target="_top" xlink:title=" ">
<polygon fill="white" stroke="#666666" points="1933.5,-85 1832.5,-85 1832.5,-55 1933.5,-55 1933.5,-85"/>
<text text-anchor="start" x="1840.5" y="-73" font-family="Helvetica,sans-Serif" font-size="10.00">linear_algebra/fixed</text>
<text text-anchor="middle" x="1883" y="-62" font-family="Helvetica,sans-Serif" font-size="10.00">_size_tensor.hpp</text>
</a>
</g>
</g>
<!-- Node2&#45;&gt;Node24 -->
<g id="edge31" class="edge">
<title>Node2&#45;&gt;Node24</title>
<path fill="none" stroke="#63b8ff" d="M1560.36,-127.35C1620.71,-118.47 1725.53,-102.74 1815,-85 1817.18,-84.57 1819.4,-84.11 1821.64,-83.64"/>
<polygon fill="#63b8ff" stroke="#63b8ff" points="1822.24,-86.87 1831.27,-81.33 1820.75,-80.03 1822.24,-86.87"/>
</g>
<!-- Node25 -->
<g id="node25" class="node">
<title>Node25</title>
<g id="a_node25"><a xlink:href="dynamic__tensor_8hpp.html" target="_top" xlink:title=" ">
<polygon fill="white" stroke="#666666" points="2068,-85 1952,-85 1952,-55 2068,-55 2068,-85"/>
<text text-anchor="start" x="1960" y="-73" font-family="Helvetica,sans-Serif" font-size="10.00">linear_algebra/dynamic</text>
<text text-anchor="middle" x="2010" y="-62" font-family="Helvetica,sans-Serif" font-size="10.00">_tensor.hpp</text>
</a>
</g>
</g>
<!-- Node2&#45;&gt;Node25 -->
<g id="edge33" class="edge">
<title>Node2&#45;&gt;Node25</title>
<path fill="none" stroke="#63b8ff" d="M1560.28,-130.24C1639.45,-122.76 1799.29,-106.82 1934,-85 1936.34,-84.62 1938.71,-84.22 1941.11,-83.79"/>
<polygon fill="#63b8ff" stroke="#63b8ff" points="1941.56,-87.09 1950.76,-81.83 1940.29,-80.2 1941.56,-87.09"/>
</g>
<!-- Node26 -->
<g id="node26" class="node">
<title>Node26</title>
<g id="a_node26"><a xlink:href="fixed__size__matrix_8hpp.html" target="_top" xlink:title=" ">
<polygon fill="white" stroke="#666666" points="2187.5,-85 2086.5,-85 2086.5,-55 2187.5,-55 2187.5,-85"/>
<text text-anchor="start" x="2094.5" y="-73" font-family="Helvetica,sans-Serif" font-size="10.00">linear_algebra/fixed</text>
<text text-anchor="middle" x="2137" y="-62" font-family="Helvetica,sans-Serif" font-size="10.00">_size_matrix.hpp</text>
</a>
</g>
</g>
<!-- Node2&#45;&gt;Node26 -->
<g id="edge35" class="edge">
<title>Node2&#45;&gt;Node26</title>
<path fill="none" stroke="#63b8ff" d="M1560.31,-132.74C1657.87,-127.99 1881.71,-114.81 2068,-85 2070.5,-84.6 2073.04,-84.16 2075.61,-83.68"/>
<polygon fill="#63b8ff" stroke="#63b8ff" points="2076.16,-86.94 2085.28,-81.55 2074.79,-80.07 2076.16,-86.94"/>
</g>
<!-- Node27 -->
<g id="node27" class="node">
<title>Node27</title>
<g id="a_node27"><a xlink:href="dynamic__matrix_8hpp.html" target="_top" xlink:title=" ">
<polygon fill="white" stroke="#666666" points="2322,-85 2206,-85 2206,-55 2322,-55 2322,-85"/>
<text text-anchor="start" x="2214" y="-73" font-family="Helvetica,sans-Serif" font-size="10.00">linear_algebra/dynamic</text>
<text text-anchor="middle" x="2264" y="-62" font-family="Helvetica,sans-Serif" font-size="10.00">_matrix.hpp</text>
</a>
</g>
</g>
<!-- Node2&#45;&gt;Node27 -->
<g id="edge37" class="edge">
<title>Node2&#45;&gt;Node27</title>
<path fill="none" stroke="#63b8ff" d="M1560.21,-133.51C1672.25,-129.76 1954.15,-117.81 2188,-85 2190.34,-84.67 2192.73,-84.31 2195.13,-83.92"/>
<polygon fill="#63b8ff" stroke="#63b8ff" points="2195.54,-87.23 2204.8,-82.07 2194.35,-80.33 2195.54,-87.23"/>
</g>
<!-- Node28 -->
<g id="node28" class="node">
<title>Node28</title>
<g id="a_node28"><a xlink:href="fixed__size__vector_8hpp.html" target="_top" xlink:title=" ">
<polygon fill="white" stroke="#666666" points="2441.5,-85 2340.5,-85 2340.5,-55 2441.5,-55 2441.5,-85"/>
<text text-anchor="start" x="2348.5" y="-73" font-family="Helvetica,sans-Serif" font-size="10.00">linear_algebra/fixed</text>
<text text-anchor="middle" x="2391" y="-62" font-family="Helvetica,sans-Serif" font-size="10.00">_size_vector.hpp</text>
</a>
</g>
</g>
<!-- Node2&#45;&gt;Node28 -->
<g id="edge39" class="edge">
<title>Node2&#45;&gt;Node28</title>
<path fill="none" stroke="#63b8ff" d="M1560.07,-134.84C1686.9,-133.79 2035.16,-126.91 2322,-85 2324.5,-84.63 2327.05,-84.22 2329.63,-83.76"/>
<polygon fill="#63b8ff" stroke="#63b8ff" points="2330.15,-87.03 2339.3,-81.7 2328.82,-80.16 2330.15,-87.03"/>
</g>
<!-- Node29 -->
<g id="node29" class="node">
<title>Node29</title>
<g id="a_node29"><a xlink:href="dynamic__vector_8hpp.html" target="_top" xlink:title=" ">
<polygon fill="white" stroke="#666666" points="2576,-85 2460,-85 2460,-55 2576,-55 2576,-85"/>
<text text-anchor="start" x="2468" y="-73" font-family="Helvetica,sans-Serif" font-size="10.00">linear_algebra/dynamic</text>
<text text-anchor="middle" x="2518" y="-62" font-family="Helvetica,sans-Serif" font-size="10.00">_vector.hpp</text>
</a>
</g>
</g>
<!-- Node2&#45;&gt;Node29 -->
<g id="edge41" class="edge">
<title>Node2&#45;&gt;Node29</title>
<path fill="none" stroke="#63b8ff" d="M1560.27,-135.01C1699.48,-134.42 2106.75,-128.68 2442,-85 2444.35,-84.69 2446.73,-84.35 2449.14,-83.98"/>
<polygon fill="#63b8ff" stroke="#63b8ff" points="2449.53,-87.29 2458.81,-82.18 2448.37,-80.39 2449.53,-87.29"/>
</g>
<!-- Node30 -->
<g id="node30" class="node">
<title>Node30</title>
<g id="a_node30"><a xlink:href="instant__evaluated__operations_8hpp.html" target="_top" xlink:title=" ">
<polygon fill="white" stroke="#666666" points="2727.5,-85 2594.5,-85 2594.5,-55 2727.5,-55 2727.5,-85"/>
<text text-anchor="start" x="2602.5" y="-73" font-family="Helvetica,sans-Serif" font-size="10.00">linear_algebra/instant</text>
<text text-anchor="middle" x="2661" y="-62" font-family="Helvetica,sans-Serif" font-size="10.00">_evaluated_operations.hpp</text>
</a>
</g>
</g>
<!-- Node2&#45;&gt;Node30 -->
<g id="edge43" class="edge">
<title>Node2&#45;&gt;Node30</title>
<path fill="none" stroke="#63b8ff" d="M1560.27,-135.07C1712.21,-134.73 2186.11,-129.78 2576,-85 2578.38,-84.73 2580.8,-84.42 2583.25,-84.09"/>
<polygon fill="#63b8ff" stroke="#63b8ff" points="2583.68,-87.42 2593.08,-82.52 2582.67,-80.5 2583.68,-87.42"/>
</g>
<!-- Node31 -->
<g id="node31" class="node">
<title>Node31</title>
<g id="a_node31"><a xlink:href="arithmetic__operators_8hpp.html" target="_top" xlink:title=" ">
<polygon fill="white" stroke="#666666" points="2868,-85 2746,-85 2746,-55 2868,-55 2868,-85"/>
<text text-anchor="start" x="2754" y="-73" font-family="Helvetica,sans-Serif" font-size="10.00">linear_algebra/arithmetic</text>
<text text-anchor="middle" x="2807" y="-62" font-family="Helvetica,sans-Serif" font-size="10.00">_operators.hpp</text>
</a>
</g>
</g>
<!-- Node2&#45;&gt;Node31 -->
<g id="edge45" class="edge">
<title>Node2&#45;&gt;Node31</title>
<path fill="none" stroke="#63b8ff" d="M1560.5,-133.95C1758.81,-129.72 2495.6,-112.81 2728,-85 2730.35,-84.72 2732.74,-84.4 2735.15,-84.06"/>
<polygon fill="#63b8ff" stroke="#63b8ff" points="2735.5,-87.39 2744.83,-82.37 2734.41,-80.47 2735.5,-87.39"/>
</g>
<!-- Node17&#45;&gt;Node16 -->
<g id="edge17" class="edge">
<title>Node17&#45;&gt;Node16</title>
<path fill="none" stroke="#63b8ff" d="M996.62,-54.54C990.83,-46.48 983.58,-36.38 977.48,-27.89"/>
<polygon fill="#63b8ff" stroke="#63b8ff" points="979.9,-26.26 971.23,-20.18 974.22,-30.34 979.9,-26.26"/>
</g>
<!-- Node18&#45;&gt;Node2 -->
<g id="edge19" class="edge">
<title>Node18&#45;&gt;Node2</title>
<path fill="none" stroke="#63b8ff" d="M1189.65,-81.33C1195.86,-82.62 1202.08,-83.88 1208,-85 1292.15,-100.93 1389.71,-116.03 1450.97,-125.38"/>
<polygon fill="#63b8ff" stroke="#63b8ff" points="1450.19,-128.96 1460.61,-127 1451.25,-122.04 1450.19,-128.96"/>
</g>
<!-- Node19&#45;&gt;Node2 -->
<g id="edge21" class="edge">
<title>Node19&#45;&gt;Node2</title>
<path fill="none" stroke="#63b8ff" d="M1314.74,-83.36C1354.83,-93.24 1409.51,-107.19 1451.02,-118.1"/>
<polygon fill="#63b8ff" stroke="#63b8ff" points="1449.97,-121.71 1460.54,-120.88 1451.76,-114.94 1449.97,-121.71"/>
</g>
<!-- Node20&#45;&gt;Node2 -->
<g id="edge23" class="edge">
<title>Node20&#45;&gt;Node2</title>
<path fill="none" stroke="#63b8ff" d="M1419.69,-85.31C1438.19,-94.2 1460.89,-105.73 1479.1,-115.45"/>
<polygon fill="#63b8ff" stroke="#63b8ff" points="1477.23,-118.96 1487.69,-120.64 1480.55,-112.8 1477.23,-118.96"/>
</g>
<!-- Node21&#45;&gt;Node2 -->
<g id="edge25" class="edge">
<title>Node21&#45;&gt;Node2</title>
<path fill="none" stroke="#63b8ff" d="M1516.71,-85.16C1517.66,-92.45 1517.96,-101.55 1517.61,-109.97"/>
<polygon fill="#63b8ff" stroke="#63b8ff" points="1514.05,-109.54 1516.72,-119.8 1521.02,-110.11 1514.05,-109.54"/>
</g>
<!-- Node22&#45;&gt;Node2 -->
<g id="edge28" class="edge">
<title>Node22&#45;&gt;Node2</title>
<path fill="none" stroke="#63b8ff" d="M1613.78,-85.31C1597.34,-94.32 1574.59,-106.05 1554.63,-115.86"/>
<polygon fill="#63b8ff" stroke="#63b8ff" points="1553.26,-113.12 1545.79,-120.64 1556.32,-119.41 1553.26,-113.12"/>
</g>
<!-- Node23&#45;&gt;Node2 -->
<g id="edge30" class="edge">
<title>Node23&#45;&gt;Node2</title>
<path fill="none" stroke="#63b8ff" d="M1710.35,-85.44C1670,-96.11 1613.51,-110.57 1570.92,-121.11"/>
<polygon fill="#63b8ff" stroke="#63b8ff" points="1570.28,-117.91 1561.41,-123.71 1571.96,-124.71 1570.28,-117.91"/>
</g>
<!-- Node24&#45;&gt;Node2 -->
<g id="edge32" class="edge">
<title>Node24&#45;&gt;Node2</title>
<path fill="none" stroke="#63b8ff" d="M1832.16,-85.17C1741.88,-103.03 1636.18,-118.84 1571.32,-127.64"/>
<polygon fill="#63b8ff" stroke="#63b8ff" points="1570.93,-124.3 1561.48,-129.1 1571.86,-131.24 1570.93,-124.3"/>
</g>
<!-- Node25&#45;&gt;Node2 -->
<g id="edge34" class="edge">
<title>Node25&#45;&gt;Node2</title>
<path fill="none" stroke="#63b8ff" d="M1951.59,-85.07C1816.54,-106.92 1656.37,-122.86 1571.16,-130.31"/>
<polygon fill="#63b8ff" stroke="#63b8ff" points="1571.05,-126.89 1561.39,-131.24 1571.65,-133.86 1571.05,-126.89"/>
</g>
<!-- Node26&#45;&gt;Node2 -->
<g id="edge36" class="edge">
<title>Node26&#45;&gt;Node2</title>
<path fill="none" stroke="#63b8ff" d="M2085.72,-85.05C1899.5,-114.82 1675.85,-127.99 1570.83,-132.74"/>
<polygon fill="#63b8ff" stroke="#63b8ff" points="1570.97,-129.28 1561.13,-133.22 1571.28,-136.27 1570.97,-129.28"/>
</g>
<!-- Node27&#45;&gt;Node2 -->
<g id="edge38" class="edge">
<title>Node27&#45;&gt;Node2</title>
<path fill="none" stroke="#63b8ff" d="M2205.65,-85.05C1972.64,-117.71 1692.04,-129.69 1571.11,-133.47"/>
<polygon fill="#63b8ff" stroke="#63b8ff" points="1571.15,-130 1561.26,-133.8 1571.36,-136.99 1571.15,-130"/>
</g>
<!-- Node28&#45;&gt;Node2 -->
<g id="edge40" class="edge">
<title>Node28&#45;&gt;Node2</title>
<path fill="none" stroke="#63b8ff" d="M2339.57,-85.06C2054.19,-126.71 1708.17,-133.72 1571.03,-134.83"/>
<polygon fill="#63b8ff" stroke="#63b8ff" points="1571.33,-131.33 1561.35,-134.91 1571.38,-138.33 1571.33,-131.33"/>
</g>
<!-- Node29&#45;&gt;Node2 -->
<g id="edge42" class="edge">
<title>Node29&#45;&gt;Node2</title>
<path fill="none" stroke="#63b8ff" d="M2459.75,-85.03C2126.4,-128.44 1721.96,-134.35 1571.27,-135"/>
<polygon fill="#63b8ff" stroke="#63b8ff" points="1571.43,-131.5 1561.44,-135.04 1571.45,-138.5 1571.43,-131.5"/>
</g>
<!-- Node30&#45;&gt;Node2 -->
<g id="edge44" class="edge">
<title>Node30&#45;&gt;Node2</title>
<path fill="none" stroke="#63b8ff" d="M2593.71,-85.03C2206.29,-129.5 1736.03,-134.67 1571.34,-135.06"/>
<polygon fill="#63b8ff" stroke="#63b8ff" points="1571.47,-131.57 1561.48,-135.08 1571.48,-138.57 1571.47,-131.57"/>
</g>
<!-- Node31&#45;&gt;Node2 -->
<g id="edge46" class="edge">
<title>Node31&#45;&gt;Node2</title>
<path fill="none" stroke="#63b8ff" d="M2745.66,-85.04C2514.24,-112.66 1785.38,-129.52 1570.88,-133.87"/>
<polygon fill="#63b8ff" stroke="#63b8ff" points="1571.09,-130.39 1561.16,-134.09 1571.23,-137.39 1571.09,-130.39"/>
</g>
</g>
</svg>
