<?xml version="1.0" encoding="UTF-8" standalone="no"?>
<!DOCTYPE svg PUBLIC "-//W3C//DTD SVG 1.1//EN"
 "http://www.w3.org/Graphics/SVG/1.1/DTD/svg11.dtd">
<!-- Generated by graphviz version 2.43.0 (0)
 -->
<!-- Title: include/experimental/linear_algebra/tensor_view.hpp Pages: 1 -->
<!--zoomable 240 -->
<svg id="main" version="1.1" xmlns="http://www.w3.org/2000/svg" xmlns:xlink="http://www.w3.org/1999/xlink" xml:space="preserve" onload="init(evt)">
<style type="text/css"><![CDATA[
.edge:hover path { stroke: red; }
.edge:hover polygon { stroke: red; fill: red; }
]]></style>
<script type="text/javascript"><![CDATA[
var edges = document.getElementsByTagName('g');
if (edges && edges.length) {
  for (var i=0;i<edges.length;i++) {
    if (edges[i].id.substr(0,4)=='edge') {
      edges[i].setAttribute('class','edge');
    }
  }
}
]]></script>
        <defs>
                <circle id="rim" cx="0" cy="0" r="7"/>
                <circle id="rim2" cx="0" cy="0" r="3.5"/>
                <g id="zoomPlus">
                        <use xlink:href="#rim" fill="#404040">
                                <set attributeName="fill" to="#808080" begin="zoomplus.mouseover" end="zoomplus.mouseout"/>
                        </use>
                        <path d="M-4,0h8M0,-4v8" fill="none" stroke="white" stroke-width="1.5" pointer-events="none"/>
                </g>
                <g id="zoomMin">
                        <use xlink:href="#rim" fill="#404040">
                                <set attributeName="fill" to="#808080" begin="zoomminus.mouseover" end="zoomminus.mouseout"/>
                        </use>
                        <path d="M-4,0h8" fill="none" stroke="white" stroke-width="1.5" pointer-events="none"/>
                </g>
                <g id="dirArrow">
                        <path fill="none" stroke="white" stroke-width="1.5" d="M0,-3.0v7 M-2.5,-0.5L0,-3.0L2.5,-0.5"/>
                </g>
               <g id="resetDef">
                       <use xlink:href="#rim2" fill="#404040">
                               <set attributeName="fill" to="#808080" begin="reset.mouseover" end="reset.mouseout"/>
                       </use>
               </g>
        </defs>

<script type="text/javascript">
var viewWidth = 3154;
var viewHeight = 240;
var sectionId = 'dynsection-0';
</script>
<script xlink:href="svgpan.js"/>
<svg id="graph" class="graph">
<g id="viewport">
<title>include/experimental/linear_algebra/tensor_view.hpp</title>
<polygon fill="white" stroke="transparent" points="-4,4 -4,-236 3150,-236 3150,4 -4,4"/>
<!-- Node1 -->
<g id="node1" class="node">
<title>Node1</title>
<g id="a_node1"><a xlink:title=" ">
<polygon fill="#bfbfbf" stroke="black" points="1579.5,-190.5 1579.5,-231.5 1702.5,-231.5 1702.5,-190.5 1579.5,-190.5"/>
<text text-anchor="start" x="1587.5" y="-219.5" font-family="Helvetica,sans-Serif" font-size="10.00">include/experimental</text>
<text text-anchor="start" x="1587.5" y="-208.5" font-family="Helvetica,sans-Serif" font-size="10.00">/linear_algebra/tensor</text>
<text text-anchor="middle" x="1641" y="-197.5" font-family="Helvetica,sans-Serif" font-size="10.00">_view.hpp</text>
</a>
</g>
</g>
<!-- Node2 -->
<g id="node2" class="node">
<title>Node2</title>
<g id="a_node2"><a xlink:href="linear__algebra_8hpp.html" target="_top" xlink:title=" ">
<polygon fill="white" stroke="black" points="1584.5,-123.5 1584.5,-153.5 1697.5,-153.5 1697.5,-123.5 1584.5,-123.5"/>
<text text-anchor="start" x="1592.5" y="-141.5" font-family="Helvetica,sans-Serif" font-size="10.00">experimental/linear</text>
<text text-anchor="middle" x="1641" y="-130.5" font-family="Helvetica,sans-Serif" font-size="10.00">_algebra.hpp</text>
</a>
</g>
</g>
<!-- Node1&#45;&gt;Node2 -->
<g id="edge1" class="edge">
<title>Node1&#45;&gt;Node2</title>
<path fill="none" stroke="midnightblue" d="M1634.88,-190.36C1634.18,-182.23 1634.06,-172.7 1634.53,-164.11"/>
<polygon fill="midnightblue" stroke="midnightblue" points="1638.04,-164.16 1635.44,-153.89 1631.07,-163.54 1638.04,-164.16"/>
</g>
<!-- Node2&#45;&gt;Node1 -->
<g id="edge26" class="edge">
<title>Node2&#45;&gt;Node1</title>
<path fill="none" stroke="midnightblue" d="M1646.56,-153.89C1647.56,-161.53 1647.93,-171.21 1647.67,-180.38"/>
<polygon fill="midnightblue" stroke="midnightblue" points="1644.18,-180.18 1647.12,-190.36 1651.17,-180.57 1644.18,-180.18"/>
</g>
<!-- Node3 -->
<g id="node3" class="node">
<title>Node3</title>
<g id="a_node3"><a xlink:title=" ">
<polygon fill="white" stroke="#bfbfbf" points="0,-62 0,-81 64,-81 64,-62 0,-62"/>
<text text-anchor="middle" x="32" y="-69" font-family="Helvetica,sans-Serif" font-size="10.00">algorithm</text>
</a>
</g>
</g>
<!-- Node2&#45;&gt;Node3 -->
<g id="edge2" class="edge">
<title>Node2&#45;&gt;Node3</title>
<path fill="none" stroke="midnightblue" d="M1584.21,-136.7C1320.71,-132.87 223.56,-115.34 73,-87 69.48,-86.34 65.86,-85.42 62.29,-84.37"/>
<polygon fill="midnightblue" stroke="midnightblue" points="63.11,-80.96 52.52,-81.15 60.92,-87.6 63.11,-80.96"/>
</g>
<!-- Node4 -->
<g id="node4" class="node">
<title>Node4</title>
<g id="a_node4"><a xlink:title=" ">
<polygon fill="white" stroke="#bfbfbf" points="82,-62 82,-81 124,-81 124,-62 82,-62"/>
<text text-anchor="middle" x="103" y="-69" font-family="Helvetica,sans-Serif" font-size="10.00">array</text>
</a>
</g>
</g>
<!-- Node2&#45;&gt;Node4 -->
<g id="edge3" class="edge">
<title>Node2&#45;&gt;Node4</title>
<path fill="none" stroke="midnightblue" d="M1584.18,-136.99C1326.68,-134.49 275.66,-122.19 133,-87 131.02,-86.51 129.02,-85.88 127.03,-85.16"/>
<polygon fill="midnightblue" stroke="midnightblue" points="128.06,-81.79 117.49,-81.01 125.26,-88.21 128.06,-81.79"/>
</g>
<!-- Node5 -->
<g id="node5" class="node">
<title>Node5</title>
<g id="a_node5"><a xlink:title=" ">
<polygon fill="white" stroke="#bfbfbf" points="142,-62 142,-81 202,-81 202,-62 142,-62"/>
<text text-anchor="middle" x="172" y="-69" font-family="Helvetica,sans-Serif" font-size="10.00">concepts</text>
</a>
</g>
</g>
<!-- Node2&#45;&gt;Node5 -->
<g id="edge4" class="edge">
<title>Node2&#45;&gt;Node5</title>
<path fill="none" stroke="midnightblue" d="M1584.45,-137.85C1353.56,-138.91 481.75,-139.31 212,-87 208.56,-86.33 205.02,-85.42 201.54,-84.36"/>
<polygon fill="midnightblue" stroke="midnightblue" points="202.6,-81.03 192,-81.14 200.35,-87.66 202.6,-81.03"/>
</g>
<!-- Node6 -->
<g id="node6" class="node">
<title>Node6</title>
<g id="a_node6"><a xlink:title=" ">
<polygon fill="white" stroke="#bfbfbf" points="220.5,-62 220.5,-81 279.5,-81 279.5,-62 220.5,-62"/>
<text text-anchor="middle" x="250" y="-69" font-family="Helvetica,sans-Serif" font-size="10.00">complex</text>
</a>
</g>
</g>
<!-- Node2&#45;&gt;Node6 -->
<g id="edge5" class="edge">
<title>Node2&#45;&gt;Node6</title>
<path fill="none" stroke="midnightblue" d="M1584.49,-137.78C1361.54,-138.5 542.83,-137.57 289,-87 285.74,-86.35 282.39,-85.47 279.1,-84.45"/>
<polygon fill="midnightblue" stroke="midnightblue" points="280.08,-81.09 269.49,-81.13 277.79,-87.71 280.08,-81.09"/>
</g>
<!-- Node7 -->
<g id="node7" class="node">
<title>Node7</title>
<g id="a_node7"><a xlink:title=" ">
<polygon fill="white" stroke="#bfbfbf" points="297.5,-62 297.5,-81 350.5,-81 350.5,-62 297.5,-62"/>
<text text-anchor="middle" x="324" y="-69" font-family="Helvetica,sans-Serif" font-size="10.00">cstddef</text>
</a>
</g>
</g>
<!-- Node2&#45;&gt;Node7 -->
<g id="edge6" class="edge">
<title>Node2&#45;&gt;Node7</title>
<path fill="none" stroke="midnightblue" d="M1584.13,-137.84C1368.11,-138.72 598.57,-138.14 360,-87 357.16,-86.39 354.25,-85.58 351.39,-84.64"/>
<polygon fill="midnightblue" stroke="midnightblue" points="352.52,-81.33 341.93,-81.13 350.09,-87.89 352.52,-81.33"/>
</g>
<!-- Node8 -->
<g id="node8" class="node">
<title>Node8</title>
<g id="a_node8"><a xlink:title=" ">
<polygon fill="white" stroke="#bfbfbf" points="369,-62 369,-81 433,-81 433,-62 369,-62"/>
<text text-anchor="middle" x="401" y="-69" font-family="Helvetica,sans-Serif" font-size="10.00">execution</text>
</a>
</g>
</g>
<!-- Node2&#45;&gt;Node8 -->
<g id="edge7" class="edge">
<title>Node2&#45;&gt;Node8</title>
<path fill="none" stroke="midnightblue" d="M1584.38,-137.28C1377.93,-136.16 665.94,-129.25 443,-87 439.3,-86.3 435.47,-85.34 431.72,-84.24"/>
<polygon fill="midnightblue" stroke="midnightblue" points="432.63,-80.86 422.04,-81.1 430.47,-87.51 432.63,-80.86"/>
</g>
<!-- Node9 -->
<g id="node9" class="node">
<title>Node9</title>
<g id="a_node9"><a xlink:title=" ">
<polygon fill="white" stroke="#bfbfbf" points="451.5,-62 451.5,-81 516.5,-81 516.5,-62 451.5,-62"/>
<text text-anchor="middle" x="484" y="-69" font-family="Helvetica,sans-Serif" font-size="10.00">exception</text>
</a>
</g>
</g>
<!-- Node2&#45;&gt;Node9 -->
<g id="edge8" class="edge">
<title>Node2&#45;&gt;Node9</title>
<path fill="none" stroke="midnightblue" d="M1584.27,-137.08C1387.04,-135.27 732.03,-126.38 526,-87 522.3,-86.29 518.48,-85.33 514.72,-84.23"/>
<polygon fill="midnightblue" stroke="midnightblue" points="515.64,-80.84 505.04,-81.09 513.48,-87.5 515.64,-80.84"/>
</g>
<!-- Node10 -->
<g id="node10" class="node">
<title>Node10</title>
<g id="a_node10"><a xlink:title=" ">
<polygon fill="white" stroke="#bfbfbf" points="534.5,-62 534.5,-81 599.5,-81 599.5,-62 534.5,-62"/>
<text text-anchor="middle" x="567" y="-69" font-family="Helvetica,sans-Serif" font-size="10.00">functional</text>
</a>
</g>
</g>
<!-- Node2&#45;&gt;Node10 -->
<g id="edge9" class="edge">
<title>Node2&#45;&gt;Node10</title>
<path fill="none" stroke="midnightblue" d="M1584.31,-136.84C1396.86,-134.31 798.23,-123.52 609,-87 605.3,-86.29 601.48,-85.32 597.72,-84.21"/>
<polygon fill="midnightblue" stroke="midnightblue" points="598.64,-80.83 588.05,-81.07 596.48,-87.49 598.64,-80.83"/>
</g>
<!-- Node11 -->
<g id="node11" class="node">
<title>Node11</title>
<g id="a_node11"><a xlink:title=" ">
<polygon fill="white" stroke="#bfbfbf" points="618,-62 618,-81 676,-81 676,-62 618,-62"/>
<text text-anchor="middle" x="647" y="-69" font-family="Helvetica,sans-Serif" font-size="10.00">memory</text>
</a>
</g>
</g>
<!-- Node2&#45;&gt;Node11 -->
<g id="edge10" class="edge">
<title>Node2&#45;&gt;Node11</title>
<path fill="none" stroke="midnightblue" d="M1584.43,-136.82C1406.27,-134.3 858.37,-123.71 685,-87 681.92,-86.35 678.76,-85.48 675.65,-84.5"/>
<polygon fill="midnightblue" stroke="midnightblue" points="676.57,-81.12 665.98,-81.07 674.23,-87.71 676.57,-81.12"/>
</g>
<!-- Node12 -->
<g id="node12" class="node">
<title>Node12</title>
<g id="a_node12"><a xlink:title=" ">
<polygon fill="white" stroke="#bfbfbf" points="694,-62 694,-81 734,-81 734,-62 694,-62"/>
<text text-anchor="middle" x="714" y="-69" font-family="Helvetica,sans-Serif" font-size="10.00">span</text>
</a>
</g>
</g>
<!-- Node2&#45;&gt;Node12 -->
<g id="edge11" class="edge">
<title>Node2&#45;&gt;Node12</title>
<path fill="none" stroke="midnightblue" d="M1584.5,-137.21C1413.57,-135.86 903.97,-128.4 744,-87 742.07,-86.5 740.11,-85.87 738.17,-85.16"/>
<polygon fill="midnightblue" stroke="midnightblue" points="739.38,-81.87 728.82,-81.09 736.59,-88.29 739.38,-81.87"/>
</g>
<!-- Node13 -->
<g id="node13" class="node">
<title>Node13</title>
<g id="a_node13"><a xlink:title=" ">
<polygon fill="white" stroke="#bfbfbf" points="752.5,-62 752.5,-81 817.5,-81 817.5,-62 752.5,-62"/>
<text text-anchor="middle" x="785" y="-69" font-family="Helvetica,sans-Serif" font-size="10.00">stdexcept</text>
</a>
</g>
</g>
<!-- Node2&#45;&gt;Node13 -->
<g id="edge12" class="edge">
<title>Node2&#45;&gt;Node13</title>
<path fill="none" stroke="midnightblue" d="M1584.3,-135.97C1424.44,-131.36 972.36,-116.04 827,-87 823.3,-86.26 819.49,-85.28 815.73,-84.17"/>
<polygon fill="midnightblue" stroke="midnightblue" points="816.65,-80.78 806.06,-81.02 814.48,-87.44 816.65,-80.78"/>
</g>
<!-- Node14 -->
<g id="node14" class="node">
<title>Node14</title>
<g id="a_node14"><a xlink:title=" ">
<polygon fill="white" stroke="#bfbfbf" points="835.5,-62 835.5,-81 876.5,-81 876.5,-62 835.5,-62"/>
<text text-anchor="middle" x="856" y="-69" font-family="Helvetica,sans-Serif" font-size="10.00">tuple</text>
</a>
</g>
</g>
<!-- Node2&#45;&gt;Node14 -->
<g id="edge13" class="edge">
<title>Node2&#45;&gt;Node14</title>
<path fill="none" stroke="midnightblue" d="M1584.43,-136.51C1432.45,-133.39 1017.85,-121.86 886,-87 884.07,-86.49 882.12,-85.85 880.18,-85.14"/>
<polygon fill="midnightblue" stroke="midnightblue" points="881.39,-81.85 870.83,-81.05 878.59,-88.26 881.39,-81.85"/>
</g>
<!-- Node15 -->
<g id="node15" class="node">
<title>Node15</title>
<g id="a_node15"><a xlink:title=" ">
<polygon fill="white" stroke="#bfbfbf" points="894.5,-62 894.5,-81 963.5,-81 963.5,-62 894.5,-62"/>
<text text-anchor="middle" x="929" y="-69" font-family="Helvetica,sans-Serif" font-size="10.00">type_traits</text>
</a>
</g>
</g>
<!-- Node2&#45;&gt;Node15 -->
<g id="edge14" class="edge">
<title>Node2&#45;&gt;Node15</title>
<path fill="none" stroke="midnightblue" d="M1584.16,-137.21C1468.88,-135.72 1199.67,-127.77 978,-87 973.46,-86.17 968.74,-85.07 964.1,-83.86"/>
<polygon fill="midnightblue" stroke="midnightblue" points="964.76,-80.4 954.18,-81.06 962.86,-87.14 964.76,-80.4"/>
</g>
<!-- Node16 -->
<g id="node16" class="node">
<title>Node16</title>
<g id="a_node16"><a xlink:title=" ">
<polygon fill="white" stroke="#bfbfbf" points="975,-0.5 975,-19.5 1099,-19.5 1099,-0.5 975,-0.5"/>
<text text-anchor="middle" x="1037" y="-7.5" font-family="Helvetica,sans-Serif" font-size="10.00">experimental/mdspan</text>
</a>
</g>
</g>
<!-- Node2&#45;&gt;Node16 -->
<g id="edge15" class="edge">
<title>Node2&#45;&gt;Node16</title>
<path fill="none" stroke="midnightblue" d="M1584.29,-137.24C1436.72,-135.97 1049.47,-128.67 1011,-87 995.7,-70.42 1010.12,-44.44 1022.81,-27.56"/>
<polygon fill="midnightblue" stroke="midnightblue" points="1025.61,-29.66 1029.12,-19.67 1020.15,-25.29 1025.61,-29.66"/>
</g>
<!-- Node17 -->
<g id="node17" class="node">
<title>Node17</title>
<g id="a_node17"><a xlink:href="mdspan__improvements_8hpp.html" target="_top" xlink:title=" ">
<polygon fill="white" stroke="black" points="1020,-56.5 1020,-86.5 1144,-86.5 1144,-56.5 1020,-56.5"/>
<text text-anchor="start" x="1028" y="-74.5" font-family="Helvetica,sans-Serif" font-size="10.00">experimental/mdspan</text>
<text text-anchor="middle" x="1082" y="-63.5" font-family="Helvetica,sans-Serif" font-size="10.00">_improvements.hpp</text>
</a>
</g>
</g>
<!-- Node2&#45;&gt;Node17 -->
<g id="edge16" class="edge">
<title>Node2&#45;&gt;Node17</title>
<path fill="none" stroke="midnightblue" d="M1584.41,-133.46C1495.11,-126.69 1315.87,-111.48 1154.39,-87.12"/>
<polygon fill="midnightblue" stroke="midnightblue" points="1154.69,-83.63 1144.28,-85.58 1153.63,-90.55 1154.69,-83.63"/>
</g>
<!-- Node18 -->
<g id="node18" class="node">
<title>Node18</title>
<g id="a_node18"><a xlink:href="private__support_8hpp.html" target="_top" xlink:title=" ">
<polygon fill="white" stroke="black" points="1162,-56.5 1162,-86.5 1286,-86.5 1286,-56.5 1162,-56.5"/>
<text text-anchor="start" x="1170" y="-74.5" font-family="Helvetica,sans-Serif" font-size="10.00">linear_algebra/private</text>
<text text-anchor="middle" x="1224" y="-63.5" font-family="Helvetica,sans-Serif" font-size="10.00">_support.hpp</text>
</a>
</g>
</g>
<!-- Node2&#45;&gt;Node18 -->
<g id="edge18" class="edge">
<title>Node2&#45;&gt;Node18</title>
<path fill="none" stroke="midnightblue" d="M1584.31,-131.03C1516.11,-122.46 1398.3,-106.35 1293.48,-88.29"/>
<polygon fill="midnightblue" stroke="midnightblue" points="1293.83,-84.8 1283.38,-86.54 1292.64,-91.7 1293.83,-84.8"/>
</g>
<!-- Node19 -->
<g id="node19" class="node">
<title>Node19</title>
<g id="a_node19"><a xlink:href="tensor__concepts_8hpp.html" target="_top" xlink:title=" ">
<polygon fill="white" stroke="black" points="1304,-56.5 1304,-86.5 1424,-86.5 1424,-56.5 1304,-56.5"/>
<text text-anchor="start" x="1312" y="-74.5" font-family="Helvetica,sans-Serif" font-size="10.00">linear_algebra/tensor</text>
<text text-anchor="middle" x="1364" y="-63.5" font-family="Helvetica,sans-Serif" font-size="10.00">_concepts.hpp</text>
</a>
</g>
</g>
<!-- Node2&#45;&gt;Node19 -->
<g id="edge20" class="edge">
<title>Node2&#45;&gt;Node19</title>
<path fill="none" stroke="midnightblue" d="M1584.5,-125.5C1539.1,-115.23 1475.44,-100.33 1428.14,-88.95"/>
<polygon fill="midnightblue" stroke="midnightblue" points="1428.85,-85.52 1418.31,-86.58 1427.21,-92.32 1428.85,-85.52"/>
</g>
<!-- Node20 -->
<g id="node20" class="node">
<title>Node20</title>
<g id="a_node20"><a xlink:href="vector__concepts_8hpp.html" target="_top" xlink:title=" ">
<polygon fill="white" stroke="black" points="1442,-56.5 1442,-86.5 1562,-86.5 1562,-56.5 1442,-56.5"/>
<text text-anchor="start" x="1450" y="-74.5" font-family="Helvetica,sans-Serif" font-size="10.00">linear_algebra/vector</text>
<text text-anchor="middle" x="1502" y="-63.5" font-family="Helvetica,sans-Serif" font-size="10.00">_concepts.hpp</text>
</a>
</g>
</g>
<!-- Node2&#45;&gt;Node20 -->
<g id="edge22" class="edge">
<title>Node2&#45;&gt;Node20</title>
<path fill="none" stroke="midnightblue" d="M1605.16,-123.4C1583.7,-113.94 1556.7,-101.39 1535.64,-91.12"/>
<polygon fill="midnightblue" stroke="midnightblue" points="1536.94,-87.86 1526.43,-86.58 1533.85,-94.14 1536.94,-87.86"/>
</g>
<!-- Node21 -->
<g id="node21" class="node">
<title>Node21</title>
<g id="a_node21"><a xlink:href="matrix__concepts_8hpp.html" target="_top" xlink:title=" ">
<polygon fill="white" stroke="black" points="1580,-56.5 1580,-86.5 1702,-86.5 1702,-56.5 1580,-56.5"/>
<text text-anchor="start" x="1588" y="-74.5" font-family="Helvetica,sans-Serif" font-size="10.00">linear_algebra/matrix</text>
<text text-anchor="middle" x="1641" y="-63.5" font-family="Helvetica,sans-Serif" font-size="10.00">_concepts.hpp</text>
</a>
</g>
</g>
<!-- Node2&#45;&gt;Node21 -->
<g id="edge24" class="edge">
<title>Node2&#45;&gt;Node21</title>
<path fill="none" stroke="midnightblue" d="M1635.32,-123.4C1634.29,-115.56 1634.01,-105.6 1634.46,-96.57"/>
<polygon fill="midnightblue" stroke="midnightblue" points="1637.95,-96.84 1635.33,-86.58 1630.97,-96.24 1637.95,-96.84"/>
</g>
<!-- Node22 -->
<g id="node22" class="node">
<title>Node22</title>
<g id="a_node22"><a xlink:href="vector__view_8hpp.html" target="_top" xlink:title=" ">
<polygon fill="white" stroke="black" points="1720,-56.5 1720,-86.5 1840,-86.5 1840,-56.5 1720,-56.5"/>
<text text-anchor="start" x="1728" y="-74.5" font-family="Helvetica,sans-Serif" font-size="10.00">linear_algebra/vector</text>
<text text-anchor="middle" x="1780" y="-63.5" font-family="Helvetica,sans-Serif" font-size="10.00">_view.hpp</text>
</a>
</g>
</g>
<!-- Node2&#45;&gt;Node22 -->
<g id="edge27" class="edge">
<title>Node2&#45;&gt;Node22</title>
<path fill="none" stroke="midnightblue" d="M1665.48,-123.4C1684.72,-113.81 1711.86,-101.05 1734.94,-90.7"/>
<polygon fill="midnightblue" stroke="midnightblue" points="1736.51,-93.84 1744.22,-86.58 1733.66,-87.44 1736.51,-93.84"/>
</g>
<!-- Node23 -->
<g id="node23" class="node">
<title>Node23</title>
<g id="a_node23"><a xlink:href="matrix__view_8hpp.html" target="_top" xlink:title=" ">
<polygon fill="white" stroke="black" points="1858,-56.5 1858,-86.5 1980,-86.5 1980,-56.5 1858,-56.5"/>
<text text-anchor="start" x="1866" y="-74.5" font-family="Helvetica,sans-Serif" font-size="10.00">linear_algebra/matrix</text>
<text text-anchor="middle" x="1919" y="-63.5" font-family="Helvetica,sans-Serif" font-size="10.00">_view.hpp</text>
</a>
</g>
</g>
<!-- Node2&#45;&gt;Node23 -->
<g id="edge29" class="edge">
<title>Node2&#45;&gt;Node23</title>
<path fill="none" stroke="midnightblue" d="M1695.31,-123.48C1738.93,-112.95 1800.43,-98.56 1847.94,-87.75"/>
<polygon fill="midnightblue" stroke="midnightblue" points="1848.88,-91.13 1857.86,-85.5 1847.33,-84.3 1848.88,-91.13"/>
</g>
<!-- Node24 -->
<g id="node24" class="node">
<title>Node24</title>
<g id="a_node24"><a xlink:href="fixed__size__tensor_8hpp.html" target="_top" xlink:title=" ">
<polygon fill="white" stroke="black" points="1998.5,-56.5 1998.5,-86.5 2111.5,-86.5 2111.5,-56.5 1998.5,-56.5"/>
<text text-anchor="start" x="2006.5" y="-74.5" font-family="Helvetica,sans-Serif" font-size="10.00">linear_algebra/fixed</text>
<text text-anchor="middle" x="2055" y="-63.5" font-family="Helvetica,sans-Serif" font-size="10.00">_size_tensor.hpp</text>
</a>
</g>
</g>
<!-- Node2&#45;&gt;Node24 -->
<g id="edge31" class="edge">
<title>Node2&#45;&gt;Node24</title>
<path fill="none" stroke="midnightblue" d="M1697.81,-129.7C1765.33,-120.77 1881.05,-105.02 1980,-87 1982.67,-86.51 1985.39,-86 1988.15,-85.46"/>
<polygon fill="midnightblue" stroke="midnightblue" points="1989.09,-88.84 1998.21,-83.44 1987.72,-81.98 1989.09,-88.84"/>
</g>
<!-- Node25 -->
<g id="node25" class="node">
<title>Node25</title>
<g id="a_node25"><a xlink:href="dynamic__tensor_8hpp.html" target="_top" xlink:title=" ">
<polygon fill="white" stroke="black" points="2129.5,-56.5 2129.5,-86.5 2260.5,-86.5 2260.5,-56.5 2129.5,-56.5"/>
<text text-anchor="start" x="2137.5" y="-74.5" font-family="Helvetica,sans-Serif" font-size="10.00">linear_algebra/dynamic</text>
<text text-anchor="middle" x="2195" y="-63.5" font-family="Helvetica,sans-Serif" font-size="10.00">_tensor.hpp</text>
</a>
</g>
</g>
<!-- Node2&#45;&gt;Node25 -->
<g id="edge33" class="edge">
<title>Node2&#45;&gt;Node25</title>
<path fill="none" stroke="midnightblue" d="M1697.86,-132.69C1786.63,-125.23 1963.05,-109.38 2112,-87 2114.35,-86.65 2116.74,-86.27 2119.15,-85.88"/>
<polygon fill="midnightblue" stroke="midnightblue" points="2119.9,-89.3 2129.17,-84.17 2118.72,-82.4 2119.9,-89.3"/>
</g>
<!-- Node26 -->
<g id="node26" class="node">
<title>Node26</title>
<g id="a_node26"><a xlink:href="fixed__size__matrix_8hpp.html" target="_top" xlink:title=" ">
<polygon fill="white" stroke="black" points="2278.5,-56.5 2278.5,-86.5 2391.5,-86.5 2391.5,-56.5 2278.5,-56.5"/>
<text text-anchor="start" x="2286.5" y="-74.5" font-family="Helvetica,sans-Serif" font-size="10.00">linear_algebra/fixed</text>
<text text-anchor="middle" x="2335" y="-63.5" font-family="Helvetica,sans-Serif" font-size="10.00">_size_matrix.hpp</text>
</a>
</g>
</g>
<!-- Node2&#45;&gt;Node26 -->
<g id="edge35" class="edge">
<title>Node2&#45;&gt;Node26</title>
<path fill="none" stroke="midnightblue" d="M1697.64,-135.39C1807.1,-130.9 2054.64,-118.15 2261,-87 2263.36,-86.64 2265.77,-86.25 2268.2,-85.83"/>
<polygon fill="midnightblue" stroke="midnightblue" points="2269.09,-89.22 2278.28,-83.95 2267.81,-82.34 2269.09,-89.22"/>
</g>
<!-- Node27 -->
<g id="node27" class="node">
<title>Node27</title>
<g id="a_node27"><a xlink:href="dynamic__matrix_8hpp.html" target="_top" xlink:title=" ">
<polygon fill="white" stroke="black" points="2409.5,-56.5 2409.5,-86.5 2540.5,-86.5 2540.5,-56.5 2409.5,-56.5"/>
<text text-anchor="start" x="2417.5" y="-74.5" font-family="Helvetica,sans-Serif" font-size="10.00">linear_algebra/dynamic</text>
<text text-anchor="middle" x="2475" y="-63.5" font-family="Helvetica,sans-Serif" font-size="10.00">_matrix.hpp</text>
</a>
</g>
</g>
<!-- Node2&#45;&gt;Node27 -->
<g id="edge37" class="edge">
<title>Node2&#45;&gt;Node27</title>
<path fill="none" stroke="midnightblue" d="M1697.92,-136.05C1823.67,-132.43 2134.02,-120.71 2392,-87 2394.35,-86.69 2396.75,-86.36 2399.16,-86"/>
<polygon fill="midnightblue" stroke="midnightblue" points="2399.87,-89.43 2409.2,-84.4 2398.77,-82.51 2399.87,-89.43"/>
</g>
<!-- Node28 -->
<g id="node28" class="node">
<title>Node28</title>
<g id="a_node28"><a xlink:href="fixed__size__vector_8hpp.html" target="_top" xlink:title=" ">
<polygon fill="white" stroke="black" points="2558.5,-56.5 2558.5,-86.5 2671.5,-86.5 2671.5,-56.5 2558.5,-56.5"/>
<text text-anchor="start" x="2566.5" y="-74.5" font-family="Helvetica,sans-Serif" font-size="10.00">linear_algebra/fixed</text>
<text text-anchor="middle" x="2615" y="-63.5" font-family="Helvetica,sans-Serif" font-size="10.00">_size_vector.hpp</text>
</a>
</g>
</g>
<!-- Node2&#45;&gt;Node28 -->
<g id="edge39" class="edge">
<title>Node2&#45;&gt;Node28</title>
<path fill="none" stroke="midnightblue" d="M1697.69,-137.55C1840.19,-136.93 2224.15,-130.84 2541,-87 2543.37,-86.67 2545.78,-86.3 2548.21,-85.9"/>
<polygon fill="midnightblue" stroke="midnightblue" points="2549.08,-89.3 2558.3,-84.09 2547.84,-82.41 2549.08,-89.3"/>
</g>
<!-- Node29 -->
<g id="node29" class="node">
<title>Node29</title>
<g id="a_node29"><a xlink:href="dynamic__vector_8hpp.html" target="_top" xlink:title=" ">
<polygon fill="white" stroke="black" points="2689.5,-56.5 2689.5,-86.5 2820.5,-86.5 2820.5,-56.5 2689.5,-56.5"/>
<text text-anchor="start" x="2697.5" y="-74.5" font-family="Helvetica,sans-Serif" font-size="10.00">linear_algebra/dynamic</text>
<text text-anchor="middle" x="2755" y="-63.5" font-family="Helvetica,sans-Serif" font-size="10.00">_vector.hpp</text>
</a>
</g>
</g>
<!-- Node2&#45;&gt;Node29 -->
<g id="edge41" class="edge">
<title>Node2&#45;&gt;Node29</title>
<path fill="none" stroke="midnightblue" d="M1697.62,-137.62C1853.63,-137.27 2302.12,-131.98 2672,-87 2674.36,-86.71 2676.75,-86.39 2679.17,-86.05"/>
<polygon fill="midnightblue" stroke="midnightblue" points="2679.86,-89.48 2689.21,-84.5 2678.79,-82.57 2679.86,-89.48"/>
</g>
<!-- Node30 -->
<g id="node30" class="node">
<title>Node30</title>
<g id="a_node30"><a xlink:href="instant__evaluated__operations_8hpp.html" target="_top" xlink:title=" ">
<polygon fill="white" stroke="black" points="2838.5,-56.5 2838.5,-86.5 2987.5,-86.5 2987.5,-56.5 2838.5,-56.5"/>
<text text-anchor="start" x="2846.5" y="-74.5" font-family="Helvetica,sans-Serif" font-size="10.00">linear_algebra/instant</text>
<text text-anchor="middle" x="2913" y="-63.5" font-family="Helvetica,sans-Serif" font-size="10.00">_evaluated_operations.hpp</text>
</a>
</g>
</g>
<!-- Node2&#45;&gt;Node30 -->
<g id="edge43" class="edge">
<title>Node2&#45;&gt;Node30</title>
<path fill="none" stroke="midnightblue" d="M1697.77,-137.71C1868.38,-137.72 2390.66,-133.53 2821,-87 2823.39,-86.74 2825.82,-86.46 2828.27,-86.15"/>
<polygon fill="midnightblue" stroke="midnightblue" points="2829.01,-89.58 2838.45,-84.77 2828.07,-82.64 2829.01,-89.58"/>
</g>
<!-- Node31 -->
<g id="node31" class="node">
<title>Node31</title>
<g id="a_node31"><a xlink:href="arithmetic__operators_8hpp.html" target="_top" xlink:title=" ">
<polygon fill="white" stroke="black" points="3006,-56.5 3006,-86.5 3146,-86.5 3146,-56.5 3006,-56.5"/>
<text text-anchor="start" x="3014" y="-74.5" font-family="Helvetica,sans-Serif" font-size="10.00">linear_algebra/arithmetic</text>
<text text-anchor="middle" x="3076" y="-63.5" font-family="Helvetica,sans-Serif" font-size="10.00">_operators.hpp</text>
</a>
</g>
</g>
<!-- Node2&#45;&gt;Node31 -->
<g id="edge45" class="edge">
<title>Node2&#45;&gt;Node31</title>
<path fill="none" stroke="midnightblue" d="M1697.59,-136.42C1919.67,-132.14 2731.29,-115.19 2988,-87 2990.55,-86.72 2993.14,-86.41 2995.75,-86.06"/>
<polygon fill="midnightblue" stroke="midnightblue" points="2996.52,-89.49 3005.93,-84.62 2995.53,-82.56 2996.52,-89.49"/>
</g>
<!-- Node17&#45;&gt;Node16 -->
<g id="edge17" class="edge">
<title>Node17&#45;&gt;Node16</title>
<path fill="none" stroke="midnightblue" d="M1071.34,-56.4C1064.86,-47.84 1056.57,-36.87 1049.75,-27.86"/>
<polygon fill="midnightblue" stroke="midnightblue" points="1052.37,-25.52 1043.55,-19.66 1046.79,-29.74 1052.37,-25.52"/>
</g>
<!-- Node18&#45;&gt;Node2 -->
<g id="edge19" class="edge">
<title>Node18&#45;&gt;Node2</title>
<path fill="none" stroke="midnightblue" d="M1286.39,-83.75C1292.36,-84.9 1298.3,-86 1304,-87 1397.56,-103.37 1506.01,-118.59 1574.14,-127.96"/>
<polygon fill="midnightblue" stroke="midnightblue" points="1573.92,-131.46 1584.3,-129.35 1574.87,-124.53 1573.92,-131.46"/>
</g>
<!-- Node19&#45;&gt;Node2 -->
<g id="edge21" class="edge">
<title>Node19&#45;&gt;Node2</title>
<path fill="none" stroke="midnightblue" d="M1424.46,-85.39C1469.61,-95.64 1531.1,-110.03 1577.05,-121.1"/>
<polygon fill="midnightblue" stroke="midnightblue" points="1576.36,-124.53 1586.9,-123.48 1578,-117.73 1576.36,-124.53"/>
</g>
<!-- Node20&#45;&gt;Node2 -->
<g id="edge23" class="edge">
<title>Node20&#45;&gt;Node2</title>
<path fill="none" stroke="midnightblue" d="M1537.78,-86.58C1559.22,-96.03 1586.23,-108.58 1607.3,-118.85"/>
<polygon fill="midnightblue" stroke="midnightblue" points="1606,-122.12 1616.52,-123.4 1609.09,-115.84 1606,-122.12"/>
</g>
<!-- Node21&#45;&gt;Node2 -->
<g id="edge25" class="edge">
<title>Node21&#45;&gt;Node2</title>
<path fill="none" stroke="midnightblue" d="M1646.67,-86.58C1647.7,-94.41 1647.99,-104.37 1647.55,-113.4"/>
<polygon fill="midnightblue" stroke="midnightblue" points="1644.06,-113.13 1646.68,-123.4 1651.03,-113.74 1644.06,-113.13"/>
</g>
<!-- Node22&#45;&gt;Node2 -->
<g id="edge28" class="edge">
<title>Node22&#45;&gt;Node2</title>
<path fill="none" stroke="midnightblue" d="M1755.57,-86.58C1736.35,-96.15 1709.21,-108.92 1686.12,-119.27"/>
<polygon fill="midnightblue" stroke="midnightblue" points="1684.55,-116.14 1676.84,-123.4 1687.4,-122.53 1684.55,-116.14"/>
</g>
<!-- Node23&#45;&gt;Node2 -->
<g id="edge30" class="edge">
<title>Node23&#45;&gt;Node2</title>
<path fill="none" stroke="midnightblue" d="M1864.47,-86.58C1819.52,-97.42 1755.66,-112.35 1707.68,-123.24"/>
<polygon fill="midnightblue" stroke="midnightblue" points="1706.67,-119.88 1697.69,-125.5 1708.22,-126.71 1706.67,-119.88"/>
</g>
<!-- Node24&#45;&gt;Node2 -->
<g id="edge32" class="edge">
<title>Node24&#45;&gt;Node2</title>
<path fill="none" stroke="midnightblue" d="M2000.44,-86.55C1999.62,-86.7 1998.81,-86.85 1998,-87 1897.68,-105.27 1780.12,-121.2 1708.02,-130.06"/>
<polygon fill="midnightblue" stroke="midnightblue" points="1707.23,-126.63 1697.73,-131.32 1708.08,-133.58 1707.23,-126.63"/>
</g>
<!-- Node25&#45;&gt;Node2 -->
<g id="edge34" class="edge">
<title>Node25&#45;&gt;Node2</title>
<path fill="none" stroke="midnightblue" d="M2133.13,-86.52C2132.08,-86.68 2131.04,-86.84 2130,-87 1980.09,-109.53 1802.35,-125.43 1707.8,-132.83"/>
<polygon fill="midnightblue" stroke="midnightblue" points="1707.5,-129.34 1697.8,-133.6 1708.04,-136.32 1707.5,-129.34"/>
</g>
<!-- Node26&#45;&gt;Node2 -->
<g id="edge36" class="edge">
<title>Node26&#45;&gt;Node2</title>
<path fill="none" stroke="midnightblue" d="M2282.11,-86.51C2281.07,-86.68 2280.03,-86.84 2279,-87 2072.38,-118.19 1824.46,-130.93 1707.78,-135.41"/>
<polygon fill="midnightblue" stroke="midnightblue" points="1707.44,-131.92 1697.57,-135.79 1707.7,-138.91 1707.44,-131.92"/>
</g>
<!-- Node27&#45;&gt;Node2 -->
<g id="edge38" class="edge">
<title>Node27&#45;&gt;Node2</title>
<path fill="none" stroke="midnightblue" d="M2413.53,-86.52C2412.35,-86.69 2411.17,-86.85 2410,-87 2152.18,-120.69 1842.06,-132.42 1708,-136.05"/>
<polygon fill="midnightblue" stroke="midnightblue" points="1707.78,-132.55 1697.88,-136.31 1707.97,-139.55 1707.78,-132.55"/>
</g>
<!-- Node28&#45;&gt;Node2 -->
<g id="edge40" class="edge">
<title>Node28&#45;&gt;Node2</title>
<path fill="none" stroke="midnightblue" d="M2562.11,-86.55C2561.07,-86.71 2560.03,-86.86 2559,-87 2242.77,-130.76 1859.68,-136.9 1707.67,-137.55"/>
<polygon fill="midnightblue" stroke="midnightblue" points="1707.55,-134.05 1697.56,-137.58 1707.58,-141.05 1707.55,-134.05"/>
</g>
<!-- Node29&#45;&gt;Node2 -->
<g id="edge42" class="edge">
<title>Node29&#45;&gt;Node2</title>
<path fill="none" stroke="midnightblue" d="M2693.53,-86.55C2692.35,-86.71 2691.17,-86.86 2690,-87 2321.33,-131.83 1874.58,-137.23 1707.86,-137.61"/>
<polygon fill="midnightblue" stroke="midnightblue" points="1707.76,-134.11 1697.76,-137.63 1707.77,-141.11 1707.76,-134.11"/>
</g>
<!-- Node30&#45;&gt;Node2 -->
<g id="edge44" class="edge">
<title>Node30&#45;&gt;Node2</title>
<path fill="none" stroke="midnightblue" d="M2842.96,-86.55C2841.63,-86.71 2840.31,-86.86 2839,-87 2410.31,-133.35 1890.37,-137.69 1707.99,-137.71"/>
<polygon fill="midnightblue" stroke="midnightblue" points="1707.76,-134.21 1697.76,-137.71 1707.76,-141.21 1707.76,-134.21"/>
</g>
<!-- Node31&#45;&gt;Node2 -->
<g id="edge46" class="edge">
<title>Node31&#45;&gt;Node2</title>
<path fill="none" stroke="midnightblue" d="M3010.19,-86.51C3008.78,-86.69 3007.39,-86.85 3006,-87 2750.6,-115.05 1945.93,-131.96 1707.9,-136.35"/>
<polygon fill="midnightblue" stroke="midnightblue" points="1707.6,-132.86 1697.66,-136.54 1707.73,-139.86 1707.6,-132.86"/>
</g>
</g>
</svg>
        <g id="navigator" transform="translate(0 0)" fill="#404254">
                <rect fill="#f2f5e9" fill-opacity="0.5" stroke="#606060" stroke-width=".5" x="0" y="0" width="60" height="60"/>
                <use id="zoomplus" xlink:href="#zoomPlus" x="17" y="9" onmousedown="handleZoom(evt,'in')"/>
                <use id="zoomminus" xlink:href="#zoomMin" x="42" y="9" onmousedown="handleZoom(evt,'out')"/>
                <use id="reset" xlink:href="#resetDef" x="30" y="36" onmousedown="handleReset()"/>
                <g id="arrowUp" xlink:href="#dirArrow" transform="translate(30 24)" onmousedown="handlePan(0,-1)">
                  <use xlink:href="#rim" fill="#404040">
                        <set attributeName="fill" to="#808080" begin="arrowUp.mouseover" end="arrowUp.mouseout"/>
                  </use>
                  <path fill="none" stroke="white" stroke-width="1.5" d="M0,-3.0v7 M-2.5,-0.5L0,-3.0L2.5,-0.5"/>
                </g>
                <g id="arrowRight" xlink:href="#dirArrow" transform="rotate(90) translate(36 -43)" onmousedown="handlePan(1,0)">
                  <use xlink:href="#rim" fill="#404040">
                        <set attributeName="fill" to="#808080" begin="arrowRight.mouseover" end="arrowRight.mouseout"/>
                  </use>
                  <path fill="none" stroke="white" stroke-width="1.5" d="M0,-3.0v7 M-2.5,-0.5L0,-3.0L2.5,-0.5"/>
                </g>
                <g id="arrowDown" xlink:href="#dirArrow" transform="rotate(180) translate(-30 -48)" onmousedown="handlePan(0,1)">
                  <use xlink:href="#rim" fill="#404040">
                        <set attributeName="fill" to="#808080" begin="arrowDown.mouseover" end="arrowDown.mouseout"/>
                  </use>
                  <path fill="none" stroke="white" stroke-width="1.5" d="M0,-3.0v7 M-2.5,-0.5L0,-3.0L2.5,-0.5"/>
                </g>
                <g id="arrowLeft" xlink:href="#dirArrow" transform="rotate(270) translate(-36 17)" onmousedown="handlePan(-1,0)">
                  <use xlink:href="#rim" fill="#404040">
                        <set attributeName="fill" to="#808080" begin="arrowLeft.mouseover" end="arrowLeft.mouseout"/>
                  </use>
                  <path fill="none" stroke="white" stroke-width="1.5" d="M0,-3.0v7 M-2.5,-0.5L0,-3.0L2.5,-0.5"/>
                </g>
        </g>
        <svg viewBox="0 0 15 15" width="100%" height="30px" preserveAspectRatio="xMaxYMin meet">
         <g id="arrow_out" transform="scale(0.3 0.3)">
          <a xlink:href="tensor__view_8hpp__incl_org.svg" target="_base">
           <rect id="button" ry="5" rx="5" y="6" x="6" height="38" width="38"
                fill="#f2f5e9" fill-opacity="0.5" stroke="#606060" stroke-width="1.0"/>
           <path id="arrow"
             d="M 11.500037,31.436501 C 11.940474,20.09759 22.043105,11.32322 32.158766,21.979434 L 37.068811,17.246167 C 37.068811,17.246167 37.088388,32 37.088388,32 L 22.160133,31.978069 C 22.160133,31.978069 26.997745,27.140456 26.997745,27.140456 C 18.528582,18.264221 13.291696,25.230495 11.500037,31.436501 z"
             style="fill:#404040;"/>
          </a>
         </g>
        </svg>
</svg>
